<?xml version="1.0" encoding="UTF-8" standalone="no"?>
<!-- Created with Inkscape (http://www.inkscape.org/) -->

<svg
   xmlns:dc="http://purl.org/dc/elements/1.1/"
   xmlns:cc="http://creativecommons.org/ns#"
   xmlns:rdf="http://www.w3.org/1999/02/22-rdf-syntax-ns#"
   xmlns:svg="http://www.w3.org/2000/svg"
   xmlns="http://www.w3.org/2000/svg"
   xmlns:sodipodi="http://sodipodi.sourceforge.net/DTD/sodipodi-0.dtd"
   xmlns:inkscape="http://www.inkscape.org/namespaces/inkscape"
   width="300"
   height="300"
   id="svg2"
   version="1.1"
   inkscape:version="0.48.2 r9819"
   sodipodi:docname="xxxAB.svg">
  <defs
     id="defs4" />
  <sodipodi:namedview
     id="base"
     pagecolor="#ffffff"
     bordercolor="#666666"
     borderopacity="1.0"
     inkscape:pageopacity="0.0"
     inkscape:pageshadow="2"
     inkscape:zoom="1.8127222"
     inkscape:cx="48.402213"
     inkscape:cy="163.36713"
     inkscape:document-units="px"
     inkscape:current-layer="svg2"
     showgrid="false"
     inkscape:window-width="1366"
     inkscape:window-height="744"
     inkscape:window-x="0"
     inkscape:window-y="24"
     inkscape:window-maximized="1" />
  <metadata
     id="metadata7">
    <rdf:RDF>
      <cc:Work
         rdf:about="">
        <dc:format>image/svg+xml</dc:format>
        <dc:type
           rdf:resource="http://purl.org/dc/dcmitype/StillImage" />
        <dc:title></dc:title>
      </cc:Work>
    </rdf:RDF>
  </metadata>
  <path
     inkscape:connector-curvature="0"
     id="path2998"
     style="font-size:13px;font-style:normal;font-variant:normal;font-weight:normal;font-stretch:normal;text-align:start;line-height:129.99999523%;letter-spacing:0px;word-spacing:0px;writing-mode:lr-tb;text-anchor:start;fill:#ff0000;fill-opacity:1;stroke:none;font-family:Adobe Caslon Pro;-inkscape-font-specification:Adobe Caslon Pro"
     d="m 111.04032,132.23534 c 0.98035,2.81185 2.32864,6.87822 4.04463,12.19883 1.71581,5.32076 3.36681,10.59824 4.95305,15.83246 1.58602,5.2342 2.67469,9.12749 3.26599,11.67968 0.69345,2.69279 0.5717,4.60694 -0.36493,5.74258 -0.93693,1.13504 -2.76186,1.68699 -5.47484,1.65449 l -4.86653,0 c -0.58415,-0.015 -1.02214,0.06 -1.31398,0.24408 -0.29215,0.1782 -0.43815,0.55104 -0.438,1.11857 l 0,4.47727 c 0.0329,1.16798 0.5515,1.75197 1.55728,1.75197 2.09265,-0.03 5.2073,-0.11975 9.344,-0.29199 4.13647,-0.17071 10.171,-0.26805 18.10357,-0.292 7.65251,0.03 13.07872,0.11975 16.2786,0.292 3.19963,0.1707 5.55989,0.26804 7.08084,0.29199 1.32969,0.03 1.97844,-0.42226 1.94622,-1.36264 l 0,-4.8666 c 0.008,-0.39681 -0.10629,-0.72176 -0.34067,-0.97332 -0.2354,-0.25157 -0.64089,-0.38183 -1.21665,-0.38933 l -6.42382,0 c -2.47395,0.03 -4.87477,-0.61992 -7.20247,-1.97089 -2.32795,-1.35067 -4.33944,-3.61342 -6.0345,-6.78882 -1.02034,-2.20015 -2.80829,-6.8408 -5.364,-13.92191 -2.55594,-7.08097 -5.2091,-14.69203 -7.95947,-22.83302 -2.75061,-8.14084 -4.92794,-14.90106 -6.53199,-20.28083 -1.37478,-4.53836 -3.60012,-11.38033 -6.67615,-20.525942 -3.07623,-9.145303 -6.15235,-18.279978 -9.22839,-27.404023 -3.07621,-9.12374 -5.30159,-15.922447 -6.67616,-20.396121 -0.27178,-1.075153 -0.55569,-1.893781 -0.85173,-2.457562 -0.29618,-0.563033 -0.725941,-0.847532 -1.289567,-0.852028 -0.470488,0.01249 -0.89231,0.182691 -1.265316,0.510623 -0.373155,0.327931 -0.794977,0.742712 -1.265315,1.241346 -1.269507,1.524971 -3.548601,3.341782 -6.83749,5.450599 -3.289026,2.108956 -6.3955,3.536434 -9.319396,4.282449 -0.669194,0.206641 -1.131595,0.474684 -1.386905,0.802615 -0.255608,0.327931 -0.377198,0.645386 -0.364919,0.949354 0.01947,0.39831 0.174299,0.819085 0.462252,1.265323 0.287802,0.446224 0.588034,0.868498 0.900245,1.26531 0.624421,1.09161 0.835407,2.218424 0.632656,3.382203 -0.202898,1.163501 -0.478573,2.242831 -0.827321,3.236213 -0.759488,2.212277 -2.549885,7.110168 -5.371208,14.693382 -2.821442,7.583505 -5.621201,15.091081 -8.399278,22.523049 -2.778167,7.43196 -4.48206,12.02693 -5.111663,13.78489 -2.013932,5.64765 -4.582985,12.54249 -7.707145,20.68453 -3.124219,8.14218 -6.010484,15.57056 -8.658825,22.2851 -2.648371,6.71472 -4.265742,10.75444 -4.8521,12.11947 -1.297809,3.09846 -2.790161,5.36944 -4.477222,6.81324 -1.687078,1.4435 -3.958115,2.15748 -6.813144,2.14116 l -6.813143,0 c -0.4055,-0.004 -0.762483,0.10476 -1.070651,0.31594 -0.308168,0.21564 -0.470488,0.56453 -0.48666,1.0467 l 0,4.67193 c -0.004,0.57651 0.101822,0.98081 0.316403,1.2174 0.214879,0.2351 0.563777,0.34889 1.046244,0.34142 1.188198,-0.03 3.28898,-0.11975 6.30218,-0.29201 3.013201,-0.1707 7.985184,-0.26803 14.915965,-0.29199 5.778999,0.03 10.572536,0.11975 14.380638,0.29199 3.808029,0.17072 6.411628,0.26804 7.810811,0.29201 0.490554,0.0125 0.871795,-0.10477 1.143576,-0.36537 0.27163,-0.25607 0.409542,-0.71727 0.413585,-1.38662 l 0,-4.47726 c 0.03294,-0.94038 -0.616486,-1.3956 -1.946623,-1.36265 l -9.14908,0 c -2.149417,-0.008 -3.787813,-0.38184 -4.915201,-1.11856 -1.127402,-0.73823 -1.695207,-1.79256 -1.703278,-3.1633 0.01221,-0.5196 0.08535,-1.18445 0.219072,-1.99529 0.133265,-0.81161 0.255458,-1.57349 0.36492,-2.28731 0.438592,-1.67261 1.616143,-5.24858 3.532743,-10.72791 1.916541,-5.47934 3.887182,-11.00196 5.91194,-16.56785 2.024668,-5.56588 3.418551,-9.31495 4.181618,-11.24723 z M 65.684232,125.2276 c 0.667997,-2.19162 2.597849,-7.67096 5.789378,-16.43801 3.191438,-8.76691 6.361283,-17.404142 9.509566,-25.911705 3.148163,-8.507258 4.991434,-13.467438 5.529829,-14.880707 0.296039,-0.802601 0.628465,-1.483926 0.997577,-2.043961 0.368964,-0.560035 0.750205,-0.852028 1.143576,-0.875991 0.28376,0.02997 0.543411,0.312959 0.778655,0.852027 0.235094,0.539068 0.494746,1.163488 0.778655,1.873564 0.502233,1.520184 2.114768,6.482751 4.837696,14.888047 2.722777,8.405283 5.488886,16.972887 8.298336,25.702506 2.8093,8.72977 4.59489,14.34118 5.3568,16.83452 z"
     sodipodi:nodetypes="ccccccccccccccccccccccccccccccccccccccccsscssccccccccccccccccccccccsccccssccccccccc" />
  <path
     inkscape:connector-curvature="0"
     id="path3000"
     style="font-size:13px;font-style:normal;font-variant:normal;font-weight:normal;font-stretch:normal;text-align:start;line-height:129.99999523%;letter-spacing:0px;word-spacing:0px;writing-mode:lr-tb;text-anchor:start;fill:#ff0000;fill-opacity:1;stroke:none;font-family:Adobe Caslon Pro;-inkscape-font-specification:Adobe Caslon Pro"
     d="m 191.86312,124.6436 c -0.001,5.51183 -0.0419,11.53189 -0.1228,18.06032 -0.0809,6.52826 -0.19346,12.41865 -0.33886,17.67082 -0.14524,5.25234 -0.3161,8.7202 -0.51182,10.40359 -0.28795,3.08212 -0.92869,5.28827 -1.92228,6.61857 -0.99354,1.32969 -2.94833,1.97898 -5.86418,1.94648 l -9.34374,0 c -0.6692,-0.004 -1.13145,0.10477 -1.3869,0.31596 -0.25546,0.21563 -0.37721,0.56453 -0.36493,1.04669 l 0,5.06126 c -0.0329,0.38933 0.1303,0.68132 0.48666,0.87599 0.35683,0.19466 1.103,0.29199 2.23861,0.29199 2.04802,-0.03 5.44648,-0.11975 10.19544,-0.29199 4.74892,-0.17071 9.65601,-0.26805 14.7213,-0.292 3.95405,0.03 8.16361,0.11975 12.62869,0.292 4.465,0.1707 9.98853,0.26804 16.57059,0.29199 8.87316,0.03 16.28645,-0.51061 22.2399,-1.60598 5.95328,-1.09461 10.93335,-2.89554 14.94023,-5.40191 4.54199,-3.06582 8.15945,-7.39708 10.85237,-12.99367 2.69271,-5.59643 4.07155,-10.9982 4.13656,-16.20546 -0.13321,-10.24395 -3.02953,-18.4685 -8.68677,-24.67334 -5.65745,-6.20483 -13.27356,-10.82795 -22.84837,-13.86965 l -0.58399,-0.38932 c 7.63224,-3.62539 13.4883,-7.56734 17.56817,-11.825668 4.07967,-4.258055 6.13985,-11.022613 6.1805,-20.293411 0.0688,-5.750515 -1.04235,-10.844113 -3.33358,-15.28096 -2.29142,-4.436528 -6.17655,-8.16749 -11.65534,-11.193011 -3.4675,-1.922088 -8.16369,-3.284738 -14.08861,-4.087797 -5.92508,-0.802615 -12.71389,-1.191933 -20.36643,-1.167983 -3.62151,0.02997 -7.8148,0.119749 -12.57989,0.291992 -4.76518,0.170716 -8.81251,0.268043 -12.14201,0.292006 -7.01597,-0.02997 -12.69359,-0.119749 -17.0329,-0.292006 -4.33936,-0.170702 -7.29172,-0.268028 -8.85712,-0.291992 -0.57591,-0.0042 -0.9814,0.104763 -1.21664,0.317455 -0.23526,0.215632 -0.34876,0.56453 -0.34067,1.046693 l 0,4.866448 c -0.008,0.482163 0.10476,0.831061 0.34067,1.046694 0.23524,0.215619 0.64073,0.320438 1.21664,0.315942 l 6.0345,0 c 4.40825,-0.218616 7.56338,0.315956 9.46541,1.605979 1.90197,1.289274 2.96451,4.647679 3.18758,10.073704 0.0688,1.395592 0.14824,4.358379 0.23793,8.889555 0.0899,4.531315 0.16936,9.268092 0.23795,14.210303 0.0688,4.942211 0.10476,8.727372 0.10781,11.355197 z m 17.1302,-8.75972 6.22917,0 c 4.50553,-0.0599 8.97463,0.10476 13.40729,0.48666 4.43253,0.38184 8.65829,1.32221 12.67731,2.82262 5.83571,2.24672 10.51568,5.92902 14.03994,11.04703 3.52409,5.11802 5.33282,11.62293 5.42618,19.51474 -0.2839,11.42423 -3.46342,19.47837 -9.53838,24.16227 -6.07514,4.68407 -13.34249,6.9471 -21.80208,6.78883 -7.92033,0.045 -13.34651,-2.03573 -16.27856,-6.2291 -2.93212,-4.19335 -4.3191,-10.74693 -4.16087,-19.66073 l 0,-26.86332 z m 0,-21.023385 c 0.004,-8.366361 0.045,-16.063511 0.12128,-23.091768 0.0763,-7.027966 0.16621,-11.659313 0.26758,-13.893916 0.0165,-0.887967 0.27568,-1.642362 0.77865,-2.262883 0.50284,-0.619937 1.15167,-1.034718 1.94661,-1.24136 0.77867,-0.178195 1.70325,-0.25905 2.77394,-0.24258 1.07064,0.01499 2.2872,0.02997 3.64989,0.04496 5.01652,-0.02997 9.82627,0.46719 14.42927,1.483939 4.60285,1.018248 8.68262,2.729338 12.23933,5.134186 3.54842,2.68875 6.03846,5.82779 7.47012,9.416634 1.43153,3.589149 2.12091,7.263511 2.06829,11.022766 0.045,4.343393 -0.77477,8.553076 -2.4576,12.628593 -1.68309,4.075808 -4.49757,7.652675 -8.44345,10.730755 -2.37251,1.6587 -5.65742,2.91592 -9.85472,3.77154 -4.19745,0.85652 -9.0883,1.28629 -14.6726,1.28927 -1.64655,0.008 -3.3174,-0.008 -5.01253,-0.045 -1.69522,-0.045 -3.46338,-0.15424 -5.30452,-0.34141 z"
     sodipodi:nodetypes="cscccccccccccccccccccccscccccccccccccccccccccccscccsccccccscccccccccccccccc" />
</svg>
