<?xml version="1.0" encoding="UTF-8"?>
<!DOCTYPE svg PUBLIC "-//W3C//DTD SVG 1.1//EN" "http://www.w3.org/Graphics/SVG/1.1/DTD/svg11.dtd">
<svg xmlns="http://www.w3.org/2000/svg" xmlns:xlink="http://www.w3.org/1999/xlink" id="canvas" width="2000" height="2000" onload="init()">
    
  <style type="text/css">
      .ellipse
      {
        stroke: red;
        stroke-width: 2;
        fill: blue;
        fill-opacity: 0.1;
      }

      .axes
      {
        stroke: blue;
        stroke-width: 1;
      }   
  </style>

  <script>
      <![CDATA[
      var COLS = 4;
      var ROWS = 4;
      var RX   = 80;
      var RY   = 30;

      function init()
      {
        var canvas = document.getElementById("canvas");

        var angleStep = 360.0/(COLS*ROWS);
        var spacing = 2*Math.max(RX, RY)+10;
        for (var c = 0; c < COLS; ++c) {
          for (var r = 0; r < ROWS; ++r) {
            var ellipse = createEllipse((c+ COLS*r)*angleStep, spacing*(c+0.5), spacing*(r+0.5), RX, RY);
            canvas.appendChild(ellipse);
          }
        }
      }

      function createEllipse(phi, x, y, rx, ry)
      {
        var degPerRad = Math.PI/180.0;
        var e1x = rx*Math.cos(phi*degPerRad);
        var e1y = rx*Math.sin(phi*degPerRad);
        var e2x = ry*Math.cos((phi+90)*degPerRad);
        var e2y = ry*Math.sin((phi+90)*degPerRad);

        var axes  = document.createElementNS("http://www.w3.org/2000/svg", "path");
        axes.setAttribute("class", "axes");
        axes.setAttribute("d", "M"+x+","+y+" l"+e1x+","+e1y+"M"+x+","+y+" l"+e2x+","+e2y);
        var ellipse = document.createElementNS("http://www.w3.org/2000/svg", "path");
        ellipse.setAttribute("class", "ellipse");
        ellipse.setAttribute("d", "M" + (x+e1x) + "," + (y+e1y) +
                                  "A" + rx + "," + ry + " " + phi + " 0,1 " + (x+e2x) + "," + (y+e2y) +
                                  "A" + rx + "," + ry + " " + phi + " 1,1 " + (x+e1x) + "," + (y+e1y) +"z");

        var group = document.createElementNS("http://www.w3.org/2000/svg", "g");
        group.appendChild(axes);
        group.appendChild(ellipse);
        return group;
      }

      ]]>
    </script>
<g transform="scale(0.5)">
<g><path class="axes" d="M85,85 l80,0M85,85 l1.83697019872103e-15,30"/><path class="ellipse" d="M165,85A80,30 0 0,1 85,115A80,30 0 1,1 165,85z"/></g><g><path class="axes" d="M85,255 l4.898587196589413e-15,80M85,255 l-30,3.67394039744206e-15"/><path class="ellipse" d="M85,335A80,30 90 0,1 55,255A80,30 90 1,1 85,335z"/></g><g><path class="axes" d="M85,425 l-80,9.797174393178826e-15M85,425 l-5.510910596163089e-15,-30"/><path class="ellipse" d="M5,425A80,30 180 0,1 85,395A80,30 180 1,1 5,425z"/></g><g><path class="axes" d="M85,595 l-1.4695761589768237e-14,-80M85,595 l30,-7.34788079488412e-15"/><path class="ellipse" d="M84.99999999999999,515A80,30 270 0,1 115,595A80,30 270 1,1 84.99999999999999,515z"/></g><g><path class="axes" d="M255,85 l73.91036260090294,30.614674589207183M255,85 l-11.480502970952692,27.716385975338603"/><path class="ellipse" d="M328.91036260090294,115.61467458920718A80,30 22.5 0,1 243.5194970290473,112.7163859753386A80,30 22.5 1,1 328.91036260090294,115.61467458920718z"/></g><g><path class="axes" d="M255,255 l-30.614674589207176,73.91036260090294M255,255 l-27.716385975338607,-11.48050297095269"/><path class="ellipse" d="M224.38532541079283,328.91036260090294A80,30 112.5 0,1 227.2836140246614,243.5194970290473A80,30 112.5 1,1 224.38532541079283,328.91036260090294z"/></g><g><path class="axes" d="M255,425 l-73.91036260090294,-30.614674589207173M255,425 l11.480502970952701,-27.7163859753386"/><path class="ellipse" d="M181.08963739909706,394.3853254107928A80,30 202.5 0,1 266.4805029709527,397.2836140246614A80,30 202.5 1,1 181.08963739909706,394.3853254107928z"/></g><g><path class="axes" d="M255,595 l30.6146745892072,-73.91036260090293M255,595 l27.716385975338603,11.4805029709527"/><path class="ellipse" d="M285.6146745892072,521.0896373990971A80,30 292.5 0,1 282.7163859753386,606.4805029709527A80,30 292.5 1,1 285.6146745892072,521.0896373990971z"/></g><g><path class="axes" d="M425,85 l56.568542494923804,56.5685424949238M425,85 l-21.213203435596423,21.213203435596427"/><path class="ellipse" d="M481.5685424949238,141.5685424949238A80,30 45 0,1 403.7867965644036,106.21320343559643A80,30 45 1,1 481.5685424949238,141.5685424949238z"/></g><g><path class="axes" d="M425,255 l-56.5685424949238,56.568542494923804M425,255 l-21.21320343559643,-21.213203435596423"/><path class="ellipse" d="M368.4314575050762,311.5685424949238A80,30 135 0,1 403.7867965644036,233.78679656440357A80,30 135 1,1 368.4314575050762,311.5685424949238z"/></g><g><path class="axes" d="M425,425 l-56.56854249492382,-56.5685424949238M425,425 l21.21320343559642,-21.21320343559643"/><path class="ellipse" d="M368.4314575050762,368.4314575050762A80,30 225 0,1 446.2132034355964,403.7867965644036A80,30 225 1,1 368.4314575050762,368.4314575050762z"/></g><g><path class="axes" d="M425,595 l56.56854249492379,-56.56854249492382M425,595 l21.21320343559643,21.21320343559642"/><path class="ellipse" d="M481.5685424949238,538.4314575050762A80,30 315 0,1 446.2132034355964,616.2132034355964A80,30 315 1,1 481.5685424949238,538.4314575050762z"/></g><g><path class="axes" d="M595,85 l30.614674589207187,73.91036260090294M595,85 l-27.716385975338603,11.480502970952697"/><path class="ellipse" d="M625.6146745892072,158.91036260090294A80,30 67.5 0,1 567.2836140246613,96.4805029709527A80,30 67.5 1,1 625.6146745892072,158.91036260090294z"/></g><g><path class="axes" d="M595,255 l-73.91036260090294,30.61467458920719M595,255 l-11.480502970952685,-27.716385975338607"/><path class="ellipse" d="M521.089637399097,285.6146745892072A80,30 157.5 0,1 583.5194970290473,227.2836140246614A80,30 157.5 1,1 521.089637399097,285.6146745892072z"/></g><g><path class="axes" d="M595,425 l-30.614674589207162,-73.91036260090294M595,425 l27.716385975338607,-11.480502970952687"/><path class="ellipse" d="M564.3853254107928,351.08963739909706A80,30 247.5 0,1 622.7163859753387,413.51949702904733A80,30 247.5 1,1 564.3853254107928,351.08963739909706z"/></g><g><path class="axes" d="M595,595 l73.91036260090294,-30.614674589207166M595,595 l11.480502970952688,27.716385975338607"/><path class="ellipse" d="M668.910362600903,564.3853254107928A80,30 337.5 0,1 606.4805029709527,622.7163859753387A80,30 337.5 1,1 668.910362600903,564.3853254107928z"/></g></g></svg>