<?xml version="1.0" encoding="UTF-8" standalone="no"?>
<!-- This is a slightly modified version of a sample that shipped with
     JASC's WebDraw (www.jasc.com) -->

<svg
   xmlns:dc="http://purl.org/dc/elements/1.1/"
   xmlns:cc="http://creativecommons.org/ns#"
   xmlns:rdf="http://www.w3.org/1999/02/22-rdf-syntax-ns#"
   xmlns:svg="http://www.w3.org/2000/svg"
   xmlns="http://www.w3.org/2000/svg"
   xmlns:sodipodi="http://sodipodi.sourceforge.net/DTD/sodipodi-0.dtd"
   xmlns:inkscape="http://www.inkscape.org/namespaces/inkscape"
   id="svg3623"
   version="1.1"
   inkscape:version="0.48.2 r9819"
   width="430"
   height="260"
   sodipodi:docname="butterfly.svg">
  <metadata
     id="metadata3635">
    <rdf:RDF>
      <cc:Work
         rdf:about="">
        <dc:format>image/svg+xml</dc:format>
        <dc:type
           rdf:resource="http://purl.org/dc/dcmitype/StillImage" />
      </cc:Work>
    </rdf:RDF>
  </metadata>
  <defs
     id="defs3633" />
  <sodipodi:namedview
     pagecolor="#ffffff"
     bordercolor="#666666"
     borderopacity="1"
     objecttolerance="10"
     gridtolerance="10"
     guidetolerance="10"
     inkscape:pageopacity="0"
     inkscape:pageshadow="2"
     inkscape:window-width="1366"
     inkscape:window-height="744"
     id="namedview3631"
     showgrid="false"
     fit-margin-top="0"
     fit-margin-left="0"
     fit-margin-right="0"
     fit-margin-bottom="0"
     showborder="true"
     inkscape:showpageshadow="false"
     inkscape:zoom="0.56729519"
     inkscape:cx="154.24361"
     inkscape:cy="-243.84107"
     inkscape:window-x="0"
     inkscape:window-y="24"
     inkscape:window-maximized="1"
     inkscape:current-layer="svg3623" />
  <g
     id="g3637"
     transform="translate(15.818224,-5.50067)">
    <path
       inkscape:connector-curvature="0"
       id="path3625"
       d="m 196.2937,117.48998 c -8,-6.49999 2.35,-7.00999 2.25,-7.24999 -14.25,-35.500005 -37.23,-51.170005 -39,-52.000005 -5.46,-2.56 -8.1,-2.32 -7.13,-3.61 0.96,-1.29 7.27,2.75 8.13,3.36 25.25,18 39,52.000005 39,52.000005 0,0 1.75,1 2,0.25 10,-29.500005 30,-45.000005 36.75,-51.250005 6.75,-6.25 10.3,-6.86 1,0.25 -28.75,22 -36.99,50.649995 -36.5,50.750005 11.5,2.49999 0.5,7.99999 1,7.49999 3.02,-3.02 3,6 3,6 0,0 17,-34.999995 83.5,-79.499995 4.1,-2.74 147.5,-81 97.5,14.5 -2.59,4.96 -20,25 -20,25 0,0 1.5,8.5 -4.5,15.5 -1.03,1.200005 -3.5,12.999995 -9.5,19.499995 -1.69,1.84 -0.02,-1.58 0,0 0.5,30 -24.07,29.34 -22.5,29.5 9.5,1 10.86,13.33 11,13.5 5.5,6.5 3.5,8 5.5,11 10.8,16.19 -0.59,15.22 1,18 4,7 -0.84,9.89 0.5,12 3.5,5.5 -2.58,9.01 -2.5,10.5 0.5,8.5 -5.16,5.4 -5,9 0.5,11 -3.5,6.5 -6,10.5 -7.5,12 -10.37,7.55 -11,9 -3,7 -7.02,5.32 -8.5,7 -3.5,4 -7,4 -8.5,5.5 -7,7 -10.97,2.06 -12,2.5 -16,7 -23.5,1.34 -26,1.5 -7.5,0.5 -6.35,-0.66 -8.5,-2.5 -31.5,-27 -50,-66 -53.5,-71 -1.43,-2.04 -4.48,-13.71 -3.5,-11 2,5.5 1,54.5 -4.5,54.5 -5.5,0 -6,-46 -2.5,-54.5 1.1,-2.67 -0.93,7.89 -3.54,11 -5.46,6.5 -22.29,44 -54.2,71 -2.17,1.84 -1.01,3 -8.61,2.5 -2.52,-0.16 -10.13,5.5 -26.33,-1.5 -1.04,-0.44 -5.069998,4.5 -12.159998,-2.5 -1.52,-1.5 -5.06,-1.5 -8.61,-5.5 -1.49,-1.68 -5.57,0 -8.61,-7 -0.63,-1.45 -3.54,3 -11.14,-9 -2.53,-4 -6.59,0.5 -6.08,-10.5 0.17,-3.6 -5.57,-0.5 -5.06,-9 0.09,-1.49 -6.08,-5 -2.54,-10.5 1.36,-2.11 -3.54,-5 0.51,-12 1.61,-2.78 -9.92,-1.81 1.01,-18 2.03,-3 0,-4.5 5.57,-11 0.15,-0.17 1.52,-12.5 11.15,-13.5 1.59,-0.16 -23.3,0.5 -22.79,-29.5 0.02,-1.58 1.71,1.84 0,0 -6.08,-6.5 -8.58,-18.29999 -9.63,-19.499995 -6.08,-7 -4.56,-15.5 -4.56,-15.5 0,0 -17.63,-20.04 -20.25,-25 -50.65,-95.5 94.609998,-17.24 98.759998,-14.5 67.36,44.5 83.78,79.499995 83.78,79.499995 0,0 0.36,-2.55 1,-4 0.64,-1.44 1.56,-1.81 1.33,-2 z"
       style="fill:#f67f00;stroke:none" />
    <path
       inkscape:connector-curvature="0"
       id="path3627"
       d="m 195.5837,117.27998 c -8,-6.5 2.34,-7.01999 2.25,-7.25 -14.25,-35.499995 -37.23,-51.169995 -39,-51.999995 -5.46,-2.56 -8.1,-2.32 -7.14,-3.61 0.96,-1.29 7.28,2.75 8.14,3.36 25.25,18 39,51.999995 39,51.999995 0,0 1.75,1 2,0.25 10,-29.499995 30,-44.999995 36.75,-51.249995 6.75,-6.25 10.3,-6.86 1,0.25 -28.75,22 -36.99,50.639995 -36.5,50.749995 11.5,2.5 0.5,8 1,7.5 3.02,-3.02 3,6 3,6 0,0 17,-34.999995 83.5,-79.499995 4.09,-2.74 147.5,-81 97.5,14.5 -2.59,4.95 -20,25 -20,25 0,0 1.5,8.5 -4.5,15.5 -1.03,1.2 -3.5,12.999995 -9.5,19.499995 -1.69,1.84 -0.03,-1.58 0,0 0.5,30 -24.07,29.34 -22.5,29.5 9.5,1 10.85,13.33 11,13.5 5.5,6.5 3.5,8 5.5,11 10.79,16.19 -0.59,15.22 1,18 4,7 -0.84,9.89 0.5,12 3.5,5.5 -2.59,9 -2.5,10.5 0.5,8.5 -5.16,5.4 -5,9 0.5,11 -3.5,6.5 -6,10.5 -7.5,12 -10.38,7.55 -11,9 -3,7 -7.03,5.32 -8.5,7 -3.5,4 -7,4 -8.5,5.5 -7,7 -10.97,2.05 -12,2.5 -16,7 -23.5,1.33 -26,1.5 -7.5,0.5 -6.35,-0.66 -8.5,-2.5 -31.5,-27 -50,-66 -53.5,-71 -1.43,-2.05 -4.49,-13.71 -3.5,-11 2,5.5 1,54.5 -4.5,54.5 -5.5,0 -6,-46 -2.5,-54.5 1.1,-2.67 -0.93,7.88 -3.54,11 -5.46,6.5 -22.29,44 -54.2,71 -2.17,1.84 -1.01,3 -8.61,2.5 -2.52,-0.17 -10.13,5.5 -26.33,-1.5 -1.04,-0.45 -5.069998,4.5 -12.159998,-2.5 -1.52,-1.5 -5.06,-1.5 -8.61,-5.5 -1.49,-1.68 -5.57,0 -8.61,-7 -0.63,-1.45 -3.55,3 -11.14,-9 -2.54,-4 -6.59,0.5 -6.08,-10.5 0.17,-3.6 -5.57,-0.5 -5.07,-9 0.09,-1.5 -6.07,-5 -2.53,-10.5 1.36,-2.11 -3.54,-5 0.51,-12 1.61,-2.78 -9.92,-1.81 1.01,-18 2.03,-3 0,-4.5 5.57,-11 0.15,-0.17 1.52,-12.5 11.15,-13.5 1.59,-0.16 -23.3,0.5 -22.8,-29.5 0.03,-1.58 1.72,1.84 0,0 -6.07,-6.5 -8.58,-18.299995 -9.62,-19.499995 -6.08,-7 -4.56,-15.5 -4.56,-15.5 0,0 -17.63,-20.05 -20.26,-25 -50.64,-95.5 94.619998,-17.24 98.769998,-14.5 67.36,44.5 83.78,79.499995 83.78,79.499995 0,0 0.36,-2.55 1,-4 0.64,-1.44 1.56,-1.81 1.33,-2 z m 38.5,13.5 c 3.04,-0.1 9.23,3.05 13,2 25.43,-7.06 73.32,-0.56 76.5,0.5 12,4 20,-24.5 -5.5,-24.5 -31.53,0 -25,-2 -46,-5 -1.78,-0.25 -27.52,9.3 -51.5,23 -3.5,2 -1.5,4.5 13.5,4 z m -19,-5 c 2.54,0.28 15,-8.5 54,-24 2.37,-0.93999 2.5,-5.999995 23.5,-15.499995 1.37,-0.62 -0.5,-4 14,-16 7.17,-5.93 -17.5,-5 -23,-4 -5.5,1 -19,12 -19,12 0,0 15.18,-12.07 10,-10.5 -11.5,3.5 -41.5,36.499995 -51.5,50.499995 -10,14 16.5,-23.999995 23,-29.999995 6.5,-6 -49.5,35.499995 -31,37.499995 z m 112.5,-19.5 c 14.52,2.91 13,-18.499995 5.5,-19.499995 -11.57,-1.54 -33.61,-0.82 -40,1.5 -16.5,6 -20.83,12.029995 -19.5,12.499995 28.5,10 49,4.5 54,5.5 z m -0.5,-21.999995 c 5.92,0.74 16,3 16.5,-5 0.25,-4.02 14,3 17,3.5 2.48,0.41 -10.5,-4.79 -15,-8 -3.5,-2.5 -4.11,-5.36 -4.5,-5.5 -32,-11.5 -45.5,15.5 -45.5,15.5 0,0 27.5,-1 31.5,-0.5 z m 65.5,-44 c -5,-8 -13.96,-5.54 -17,-9 -14.5,-16.500001 -48.08,4.66 -20.5,2.5 32,-2.5 38.09,7.45 37.5,6.5 z m -24,4 c 13.51,0 19.5,6 18.5,5 -7,-7 -13,-5.5 -14.5,-7.5 -8.92,-11.89 -35.5,0.5 -33.5,3.5 2,3 26,-1 29.5,-1 z m -46.5,9.5 c -21,5 -12,12.5 -9.5,12 19.43,-3.88 13.88,-13.04 9.5,-12 z m 10.5,-24 c -9.5,1 -10.14,18.31 -5.5,15 7,-5 15,-16 5.5,-15 z m -25,23.5 c 14,-5.5 3.5,-8 -1,-7.5 -4.5,0.5 -7.83,7.33 -6.5,10 3,6 4.79,-1.43 7.5,-2.5 z m 44,45.5 c 4.5,-2.5 -1,-8.5 -5,-6 -4,2.5 0.5,8.499995 5,6 z m -9.5,-42.5 c 11.77,11.77 16.5,5.5 19,4.5 8.12,-3.25 17,5.5 15.5,4 -7.28,-7.28 -12,-6 -13,-7.5 -7.61,-11.42 -18.96,-4.18 -21.5,-4 -7,0.5 -15.69,5.41 -12.5,4.5 3.5,-1 11,-3 12.5,-1.5 z m 33.5,-34.5 c 7,-5.000001 -2.22,-6.270001 -4,-6.000001 -6.5,1 -3,11.000001 4,6.000001 z m -159,136.999995 c 5.5,6.5 67,104 57.5,71.5 -1.29,-4.42 3.5,13.5 9,3.5 1.54,-2.8 10.15,-3.09 -16.5,-47.5 -1.5,-2.5 -22,-10.5 -42.5,-33 -3.1,-3.41 -12.07,0.1 -7.5,5.5 z m 55.5,34.5 c 4.5,7 15.69,30.45 16.5,34 2.5,11 9.5,-1.5 11,-1 13.16,4.39 3.5,-7.5 2.5,-10.5 -9.17,-27.5 -30.5,-25 -30.5,-25 0,0 -4,-4.5 0.5,2.5 z m -26.5,40.5 c 12.64,17.97 17.5,11 20,9 7.7,-6.16 -41.28,-68.98 -44.5,-73 -4,-5 -4,23.5 24.5,64 z m 46.5,-37 c 6.5,5 13.74,26.07 17.5,25.5 10,-1.5 4,-10 6.5,-8.5 2.5,1.5 7.5,-1.17 6,-4 -12.5,-23.5 -32,-16 -32,-16 0,0 -4.5,-2 2,3 z m -64.5,-50.5 c -19.5,0 46.5,54 65.5,43.5 3.94,-2.18 -5,-3.5 -3.5,-15 0.28,-2.1 -13.5,-6 -13.5,-19 0,-4.24 -7.92,-6 -33,-6 -4.5,0 4.91,-3.5 -15.5,-3.5 z m 72,45 c 18.27,2.03 22.61,16.18 25,14.5 28.5,-20 -22.73,-28.16 -32,-27 -4,0.5 2.5,12 7,12.5 z m -69,-49.5 c 3.5,2.5 15.5,12.5 54,4 1.47,-0.32 -29,-0.5 -33,-1.5 -4,-1 -23.37,-4.19 -21,-2.5 z m 66.5,34.5 c 37.5,9 27.6,2.74 29,2 8.5,-4.5 -0.79,-5.39 0.5,-7 4.21,-5.26 -7,-8.5 -30.5,-11 -5.56,-0.59 -16.58,-3.35 -17,-2.5 -3.5,7 13.21,17.35 18,18.5 z m 6,-16.5 c 32.5,5.5 12.11,-4.69 12.5,-5 11.5,-9 -26.5,-9 -26.5,-9 0,0 -16.33,3.88 -16,4.5 4.5,8.5 26.03,8.83 30,9.5 z m -61.5,71.5 c 0,0 -29,-46.5 -23,-65.5 1.21,-3.81 -13,-22.5 -6.5,9 0.1,0.49 -1.23,-6.69 -3.5,-10 -2.27,-3.31 -5.44,-2.22 -3.5,7.5 4.89,24.43 36.5,59 36.5,59 z m 39.5,-169.999995 c 7.5,-2 4,-4.5 -0.5,-5.5 -4.5,-1 -7,7.5 0.5,5.5 z m -101.72,65.499995 c -24.28,-13.7 -50.36,-23.24999 -52.17,-22.99999 -21.27,3 -14.65,5 -46.589998,5 -25.83,0 -17.73,28.49999 -5.57,24.49999 3.22,-1.06 51.729998,-7.56 77.489998,-0.5 3.81,1.05 10.09,-2.1 13.17,-2 15.19,0.5 17.22,-2 13.67,-4 z m -25.83,-38.499995 c 6.58,6 33.43,43.999995 23.3,29.999995 -10.13,-13.99999 -40.52,-46.999995 -52.17,-50.499995 -5.24,-1.57 10.13,10.5 10.13,10.5 0,0 -13.67,-11 -19.25,-12 -5.57,-1 -30.549998,-1.93 -23.289998,4 14.679998,12 12.789998,15.38 14.179998,16 21.27,9.5 21.4,14.560005 23.8,15.500005 39.51,15.49999 52.13,24.27999 54.7,23.99999 18.74,-2 -37.98,-43.499995 -31.4,-37.499995 z m -27.86,12.500005 c 1.36,-0.47 -3.03,-6.500005 -19.75,-12.500005 -6.469998,-2.32 -28.799998,-3.04 -40.519998,-1.5 -7.59,1 -9.13,22.410005 5.57,19.500005 5.07,-1 25.83,4.5 54.699998,-5.5 z m -22.28,-16.000005 c 0,0 -13.679998,-27 -46.089998,-15.5 -0.39,0.14 -1.01,3 -4.56,5.5 -4.55,3.21 -17.7,8.41 -15.19,8 3.04,-0.5 16.96,-7.52 17.22,-3.5 0.5,8 10.72,5.74 16.71,5 4.05,-0.5 31.909998,0.5 31.909998,0.5 z m -60.269998,-51 c 27.93,2.16 -6.08,-19 -20.77,-2.5 -3.08,3.46 -12.15,1 -17.22,9 -0.6,0.95 5.57,-9 37.99,-6.5 z m 16.21,11.5 c 2.02,-3 -24.9,-15.39 -33.94,-3.5 -1.52,2 -7.6,0.5 -14.69,7.5 -1.01,1 5.06,-5 18.74,-5 3.55,0 27.86,4 29.89,1 z m 17.22,8.5 c 21.27,5 12.15,12.5 9.62,12 -19.68,-3.88 -14.06,-13.04 -9.62,-12 z m -5.07,-9 c 4.7,3.31 4.05,-14 -5.57,-15 -9.62,-1 -1.52,10 5.57,15 z m 27.35,11 c 1.349998,-2.67 -2.03,-9.5 -6.58,-10 -4.56,-0.5 -15.2,2 -1.02,7.5 2.75,1.07 4.56,8.5 7.6,2.5 z m -47.1,37 c -4.05,-2.5 -9.63,3.5 -5.07,6 4.56,2.500005 9.12,-3.5 5.07,-6 z m 17.22,-35 c 3.23,0.91 -5.57,-4 -12.66,-4.5 -2.58,-0.18 -14.07,-7.42 -21.78,4 -1.02,1.5 -5.8,0.22 -13.17,7.5 -1.52,1.5 7.47,-7.25 15.7,-4 2.53,1 7.33,7.27 19.25,-4.5 1.52,-1.5 9.11,0.5 12.66,1.5 z m -42.55,-42 c -1.8,-0.27 -11.14,1 -4.05,6 7.09,5 10.64,-5 4.05,-6 z M 175.8237,153.27998 c -20.77,22.5 -41.54,30.5 -43.06,33 -26.99,44.41 -18.27,44.7 -16.71,47.5 5.57,10 10.43,-7.92 9.12,-3.5 -9.63,32.5 52.67,-65 58.24,-71.5 4.63,-5.4 -4.45,-8.91 -7.59,-5.5 z m -48.12,37.5 c 0,0 -21.61,-2.5 -30.899998,25 -1.01,3 -10.79,14.89 2.54,10.5 1.519998,-0.5 8.609998,12 11.139998,1 0.82,-3.55 12.16,-27 16.71,-34 4.56,-7 0.51,-2.5 0.51,-2.5 z m 51.15,-21 c -3.25,4.02 -52.87,66.84 -45.07,73 2.53,2 7.45,8.97 20.26,-9 28.87,-40.5 28.87,-69 24.81,-64 z m -69.89,24 c 0,0 -19.749998,-7.5 -32.409998,16 -1.53,2.83 3.54,5.5 6.07,4 2.54,-1.5 -3.54,7 6.59,8.5 3.81,0.57 11.139998,-20.5 17.719998,-25.5 6.59,-5 2.03,-3 2.03,-3 z m 47.61,-44 c -25.41,0 -33.43,1.76 -33.43,6 0,13 -13.95,16.9 -13.67,19 1.52,11.5 -7.54,12.82 -3.55,15 19.25,10.5 86.1,-43.5 66.35,-43.5 -20.67,0 -11.14,3.5 -15.7,3.5 z m -50.14,29 c -9.389998,-1.16 -61.289998,7 -32.419998,27 2.42,1.68 6.82,-12.47 25.33,-14.5 4.559998,-0.5 11.139998,-12 7.089998,-12.5 z m 41.53,-34.5 c -4.05,1 -34.91,1.18 -33.43,1.5 39,8.5 51.16,-1.5 54.7,-4 2.4,-1.69 -17.22,1.5 -21.27,2.5 z m -27.86,13.5 c -0.43,-0.85 -11.59,1.91 -17.22,2.5 -23.799998,2.5 -35.159998,5.74 -30.889998,11 1.3,1.61 -8.11,2.5 0.5,7 1.42,0.74 -8.61,7 29.379998,-2 4.85,-1.15 21.78,-11.5 18.23,-18.5 z m 6.08,-7.5 c 0.34,-0.62 -16.21,-4.5 -16.21,-4.5 0,0 -38.489998,0 -26.839998,9 0.4,0.31 -20.26,10.5 12.66,5 4.03,-0.67 25.829998,-1 30.389998,-9.5 z m 68.88,22 c 1.97,-9.72 -1.25,-10.81 -3.54,-7.5 -2.3,3.31 -3.65,10.49 -3.55,10 6.59,-31.5 -7.8,-12.81 -6.58,-9 6.07,19 -23.3,65.5 -23.3,65.5 0,0 32.02,-34.57 36.97,-59 z m -76.48,-116.499995 c -4.56,1 -8.1,3.5 -0.5,5.5 7.59,2 5.06,-6.5 0.5,-5.5 z"
       style="fill:#000000;stroke:none" />
    <path
       inkscape:connector-curvature="0"
       id="path3629"
       d="m 355.6937,63.389985 c -4.46,0.56 -8.5,1 -9.5,-4.5 -1,-5.5 1.5,-7.5 9,-5.5 7.5,2 12.5,8.5 0.5,10 z m -36.5,3.5 c 0,0 -18.72,4.42 -1.5,-8.5 8,-6 8.5,-1 9,2 0.75,4.47 -7.5,6.5 -7.5,6.5 z m 57,-40.5 c -8.35,-1.67 -8,-6.5 1,-8.5 1.47,-0.32 4,9.5 -1,8.5 z m 5,0 c 2.5,-0.5 6.5,0.5 7,4 0.5,3.5 -3.5,5.5 -6,3.5 -2.5,-2 -3.5,-7 -1,-7.5 z m -6,11 c 2.5,-1 10,0.5 9.5,3.5 -0.5,3 -6.5,3.5 -9,2 -2.5,-1.5 -3,-4.5 -0.5,-5.5 z m 1,17.5 c 3,-2.5 6.5,0 7.5,1.5 1,1.5 -4,3.5 -5.5,4 -1.5,0.5 -5,-3 -2,-5.5 z m 11.5,-37 c 0,0 4,0 3,1.5 -1,1.5 -4,1.5 -4,1.5 z m 6,9 c 0,0 4,0 3,1.5 -1,1.5 -4,1.5 -4,1.5 z m -32.5,48 c 0,0 5,2 4,3.5 -1,1.5 -2.5,4 -6,0.5 -3.5,-3.5 2,-4 2,-4 z m -13.5,19.5 c 3,-2.5 6.5,0 7.5,1.5 1,1.5 -4,3.5 -5.5,4 -1.5,0.499995 -5,-3 -2,-5.5 z m 2,-10 c 3,-2.5 5.5,1 6.5,2.5 1,1.5 -3,2.5 -4.5,3 -1.5,0.5 -5,-3 -2,-5.5 z m -17,-33.5 c -3.57,0.2 -9.5,-1.5 -0.5,-7.5 8.32,-5.54 8,-4 8.5,-1 0.75,4.47 -4.43,8.31 -8,8.5 z m -30.5,9 c 0,0 -3.5,-3 3.5,-9 7.6,-6.5 6.5,-4 7,-1 0.75,4.47 -10.5,10 -10.5,10 z m 31,-26.5 c 0,0 6,-1 5,0.5 -1,1.5 -3.5,7 -7,3.5 -3.5,-3.5 2,-4 2,-4 z m 33.5,30.5 c 1.38,0 2.5,1.13 2.5,2.5 0,1.38 -1.12,2.5 -2.5,2.5 -1.37,0 -2.5,-1.12 -2.5,-2.5 0,-1.37 1.13,-2.5 2.5,-2.5 z m -5,24.5 c 1.38,0 2.5,1.13 2.5,2.5 0,1.38 -1.12,2.5 -2.5,2.5 -1.37,0 -2.5,-1.12 -2.5,-2.5 0,-1.37 1.13,-2.5 2.5,-2.5 z m -4,10 c 1.38,0 2.5,1.13 2.5,2.499995 0,1.38 -1.12,2.5 -2.5,2.5 -1.37,0 -2.5,-1.12 -2.5,-2.5 0,-1.369995 1.13,-2.499995 2.5,-2.499995 z m -16,6.499995 c 1.38,0 2.5,1.13 2.5,2.5 0,1.38 -1.12,2.5 -2.5,2.5 -1.37,0 -2.5,-1.12 -2.5,-2.5 0,-1.37 1.13,-2.5 2.5,-2.5 z m 8.5,1.5 c 1.38,0 4,2.13 4,3.5 0,1.38 -2.62,1.5 -4,1.5 -1.37,0 -2.5,-1.12 -2.5,-2.5 0,-1.37 1.13,-2.5 2.5,-2.5 z m 24,-38.999995 c 1.38,0 2.5,1.13 2.5,2.5 0,1.38 -1.12,2.5 -2.5,2.5 -1.37,0 -2.5,-1.12 -2.5,-2.5 0,-1.37 1.13,-2.5 2.5,-2.5 z m 13.5,-23.5 c 1.38,0 2.5,1.13 2.5,2.5 0,1.38 -1.12,2.5 -2.5,2.5 -1.37,0 -2.5,-1.12 -2.5,-2.5 0,-1.37 1.13,-2.5 2.5,-2.5 z m -95,8 c 2.32,0.93 13.5,-6.5 10,-7.5 -3.5,-1 -12.5,6.5 -10,7.5 z m 19,-13 c 2.5,0.5 10,-2.5 6.5,-3.5 -3.5,-1 -9.14,2.98 -6.5,3.5 z m -48,30.5 c 5.5,-3 21,-10.5 13.5,-9.5 -7.5,1 -18.22,12.08 -13.5,9.5 z m 92.5,-49.500001 c 2.5,0.5 10,-2.5 6.5,-3.5 -3.5,-1 -9.14,2.98 -6.5,3.5 z m -72,36.500001 c 2.5,0.5 7.5,-2 4,-3 -3.5,-1 -6.64,2.48 -4,3 z m 63,62.499995 c 1.38,0 2.5,1.63 2.5,3 0,1.38 -0.62,1.5 -2,1.5 -1.37,0 -2.5,-1.12 -2.5,-2.5 0,-1.37 0.63,-2 2,-2 z m -7.5,-0.5 c 1.38,0 3.5,0.63 3.5,2 0,1.38 -2.62,1 -4,1 -1.37,0 -2.5,-1.12 -2.5,-2.5 0,-1.37 1.63,-0.5 3,-0.5 z m 2,14.5 c 1.38,0 4,2.13 4,3.5 0,1.38 -2.62,1.5 -4,1.5 -1.37,0 -2.5,-1.12 -2.5,-2.5 0,-1.37 1.13,-2.5 2.5,-2.5 z m -12,20.5 c 4,-1 4,1 5,4.5 1,3.5 8.07,14.88 -3.5,1 -2.5,-3 -5.5,-4.5 -1.5,-5.5 z m 12,12 c 1.38,0 2.5,1.13 2.5,2.5 0,1.38 -1.12,2.5 -2.5,2.5 -1.37,0 -2.5,-1.12 -2.5,-2.5 0,-1.37 1.13,-2.5 2.5,-2.5 z m 2.5,9 c 1.38,0 2.5,1.13 2.5,2.5 0,1.38 -1.12,2.5 -2.5,2.5 -1.37,0 -2.5,-1.12 -2.5,-2.5 0,-1.37 1.13,-2.5 2.5,-2.5 z m 0.17,9 c 1.37,0 3.33,3.13 3.33,4.5 0,1.38 -1.12,2.5 -2.5,2.5 -1.37,0 -4.16,-1.62 -4.16,-3 0,-1.37 1.95,-4 3.33,-4 z m 1.33,16 c 1.38,0 1,0.13 1,1.5 0,1.38 -0.12,0.5 -1.5,0.5 -1.37,0 -1,0.88 -1,-0.5 0,-1.37 0.13,-1.5 1.5,-1.5 z m -13.5,-33 c 1.38,0 1,0.13 1,1.5 0,1.38 -0.12,0.5 -1.5,0.5 -1.37,0 -1,0.88 -1,-0.5 0,-1.37 0.13,-1.5 1.5,-1.5 z m 3,12.5 c 1.38,0 1,0.13 1,1.5 0,1.38 0.21,5 -1.16,5 -1.38,0 -1.34,-3.62 -1.34,-5 0,-1.37 0.13,-1.5 1.5,-1.5 z m 3.5,14 c 1.38,0 1,0.13 1,1.5 0,1.38 -0.12,0.5 -1.5,0.5 -1.37,0 -1,0.88 -1,-0.5 0,-1.37 0.13,-1.5 1.5,-1.5 z m -6.16,13.5 c 1.37,0 1.16,0.13 1.16,1.5 0,1.38 -0.29,0.5 -1.66,0.5 -1.38,0 -0.84,0.88 -0.84,-0.5 0,-1.37 -0.04,-1.5 1.34,-1.5 z m 8.83,3.34 c 1.37,0 2.67,1.95 2.67,3.33 0,1.37 -2.96,3.83 -4.34,3.83 -1.37,0 -1,0.88 -1,-0.5 0,-1.37 1.29,-6.66 2.67,-6.66 z m -5.67,14.33 c 1.38,0 3.67,-0.38 3.67,1 0,1.37 -3.29,3.83 -4.67,3.83 -1.37,0 -1,0.88 -1,-0.5 0,-1.37 0.63,-4.33 2,-4.33 z m -8.5,-7.17 c 1.38,0 1,0.13 1,1.5 0,1.38 -0.12,0.5 -1.5,0.5 -1.37,0 -1,0.88 -1,-0.5 0,-1.37 0.13,-1.5 1.5,-1.5 z m -2.5,19.17 c 1.38,0 2.67,1.62 2.67,3 0,1.37 -2.29,0.83 -3.67,0.83 -1.37,0 -1,0.88 -1,-0.5 0,-1.37 0.63,-3.33 2,-3.33 z m -8.33,5.33 c 1.37,0 0.67,1.63 0.67,3 0,1.38 -4.96,4.5 -6.34,4.5 -1.37,0 -1,0.88 -1,-0.5 0,-1.37 5.29,-7 6.67,-7 z m 0.83,-16 c 1.38,0 1,0.13 1,1.5 0,1.38 -0.12,0.5 -1.5,0.5 -1.37,0 -1,0.88 -1,-0.5 0,-1.37 0.13,-1.5 1.5,-1.5 z m -12,8.5 c 1.38,0 5.84,1.79 5.84,3.17 0,1.37 -5.63,3.67 -7,3.67 -1.38,0 -2.34,-2.3 -2.34,-3.67 0,-1.38 2.13,-3.17 3.5,-3.17 z m -13,4.5 c 1.38,0 1,0.13 1,1.5 0,1.38 -0.12,0.5 -1.5,0.5 -1.37,0 -1,0.88 -1,-0.5 0,-1.37 0.13,-1.5 1.5,-1.5 z m 8,12 c 1.38,0 1,0.13 1,1.5 0,1.38 -0.12,0.5 -1.5,0.5 -1.37,0 -1,0.88 -1,-0.5 0,-1.37 0.13,-1.5 1.5,-1.5 z m -3,1 c 1.38,0 1,0.13 1,1.5 0,1.38 -0.12,0.5 -1.5,0.5 -1.37,0 -1,0.88 -1,-0.5 0,-1.37 0.13,-1.5 1.5,-1.5 z m -11.5,0.34 c 0.92,0 2,1.41 2,2.33 0,0.92 -0.08,0.33 -1,0.33 -0.91,0 -3.33,1.25 -3.33,0.34 0,-0.92 1.42,-3 2.33,-3 z m 3,2.66 c 0.92,0 0.67,0.09 0.67,1 0,0.92 -0.08,0.34 -1,0.34 -0.92,0 -0.67,0.58 -0.67,-0.34 0,-0.91 0.09,-1 1,-1 z m -5.33,-13 c 0.92,0 2.33,3.42 2.33,4.34 0,0.91 -3.08,0.66 -4,0.66 -0.91,0 -2.33,-2.75 -2.33,-3.66 0,-0.92 3.08,-1.34 4,-1.34 z m -11.33,11 c 1.37,0 1.16,0.13 1.16,1.5 0,1.38 -0.29,0.5 -1.66,0.5 -1.38,0 -0.84,0.88 -0.84,-0.5 0,-1.37 -0.04,-1.5 1.34,-1.5 z m -3,-7 c 1.37,0 -0.67,3.29 -0.67,4.67 0,1.37 -4.46,1.83 -5.83,1.83 -1.38,0 1.16,-1.79 1.16,-3.16 0,-1.38 3.96,-3.34 5.34,-3.34 z M 44.193702,62.559985 c 4.47,0.56 8.5,1 9.5,-4.5 1,-5.5 -1.5,-7.5 -9,-5.5 -7.5,2 -12.5,8.5 -0.5,10 z m 36.5,3.5 c 0,0 18.72,4.41 1.5,-8.5 -8,-6 -8.5,-1 -9,2 -0.74,4.47 7.5,6.5 7.5,6.5 z m -57,-40.5 c 8.35,-1.67 8,-6.500001 -1,-8.500001 -1.46,-0.33 -4,9.500001 1,8.500001 z m -5,0 c -2.5,-0.5 -6.5,0.5 -7,4 -0.5,3.5 3.5,5.5 6,3.5 2.5,-2 3.5,-7 1,-7.5 z m 6,11 c -2.5,-1 -10,0.5 -9.5,3.5 0.5,3 6.5,3.5 9,2 2.5,-1.5 3,-4.5 0.5,-5.5 z m -1,17.5 c -3,-2.5 -6.5,0 -7.5,1.5 -1,1.5 4,3.5 5.5,4 1.5,0.5 5,-3 2,-5.5 z m -11.5,-37.000001 c 0,0 -4,0 -3,1.5 1,1.5 4,1.5 4,1.5 z m -6,9.000001 c 0,0 -4,0 -3,1.5 1,1.5 4,1.5 4,1.5 z m 32.5,48 c 0,0 -5,2 -4,3.5 1,1.5 2.5,4 6,0.5 3.5,-3.5 -2,-4 -2,-4 z m 13.5,19.5 c -3,-2.5 -6.5,0 -7.5,1.5 -1,1.5 4,3.5 5.5,4 1.5,0.5 5,-3 2,-5.5 z m -2,-10 c -3,-2.5 -5.5,1 -6.5,2.5 -1,1.5 3,2.5 4.5,3 1.5,0.5 5,-3 2,-5.5 z m 17,-33.5 c 3.57,0.2 9.5,-1.5 0.5,-7.5 -8.32,-5.55 -8,-4 -8.5,-1 -0.74,4.47 4.43,8.3 8,8.5 z m 30.5,9 c 0,0 3.499998,-3 -3.5,-9 -7.59,-6.51 -6.5,-4 -7,-1 -0.74,4.47 10.5,10 10.5,10 z m -31,-26.5 c 0,0 -6,-1 -5,0.5 1,1.5 3.5,7 7,3.5 3.5,-3.5 -2,-4 -2,-4 z m -33.5,30.5 c -1.37,0 -2.5,1.13 -2.5,2.5 0,1.38 1.13,2.5 2.5,2.5 1.38,0 2.5,-1.12 2.5,-2.5 0,-1.37 -1.12,-2.5 -2.5,-2.5 z m 5,24.5 c -1.37,0 -2.5,1.13 -2.5,2.5 0,1.38 1.13,2.5 2.5,2.5 1.38,0 2.5,-1.12 2.5,-2.5 0,-1.37 -1.12,-2.5 -2.5,-2.5 z m 4,10 c -1.37,0 -2.5,1.13 -2.5,2.499995 0,1.38 1.13,2.5 2.5,2.5 1.38,0 2.5,-1.12 2.5,-2.5 0,-1.369995 -1.12,-2.499995 -2.5,-2.499995 z m 16,6.499995 c -1.37,0 -2.5,1.13 -2.5,2.5 0,1.38 1.13,2.5 2.5,2.5 1.38,0 2.5,-1.12 2.5,-2.5 0,-1.37 -1.12,-2.5 -2.5,-2.5 z m -8.5,1.5 c -1.37,0 -4,2.13 -4,3.5 0,1.38 2.63,1.5 4,1.5 1.38,0 2.5,-1.12 2.5,-2.5 0,-1.37 -1.12,-2.5 -2.5,-2.5 z m -24,-38.999995 c -1.37,0 -2.5,1.13 -2.5,2.5 0,1.38 1.13,2.5 2.5,2.5 1.38,0 2.5,-1.12 2.5,-2.5 0,-1.37 -1.12,-2.5 -2.5,-2.5 z m -13.5,-23.5 c -1.37,0 -2.5,1.13 -2.5,2.5 0,1.38 1.13,2.5 2.5,2.5 1.38,0 2.5,-1.12 2.5,-2.5 0,-1.37 -1.12,-2.5 -2.5,-2.5 z m 94.999998,8 c -2.32,0.93 -13.499998,-6.5 -9.999998,-7.5 3.499998,-1 12.499998,6.5 9.999998,7.5 z m -18.999998,-13 c -2.5,0.5 -10,-2.5 -6.5,-3.5 3.5,-1 9.14,2.97 6.5,3.5 z m 47.999998,30.5 c -5.5,-3 -21,-10.5 -13.5,-9.5 7.5,1 18.23,12.08 13.5,9.5 z M 43.693702,19.059984 c -2.5,0.5 -10,-2.5 -6.5,-3.499999 3.5,-1 9.14,2.969999 6.5,3.499999 z M 115.6937,55.559985 c -2.5,0.5 -7.5,-2 -4,-3 3.5,-1 6.64,2.47 4,3 z M 52.693702,118.05998 c -1.37,0 -2.5,1.63 -2.5,3 0,1.38 0.63,1.5 2,1.5 1.38,0 2.5,-1.12 2.5,-2.5 0,-1.37 -0.62,-2 -2,-2 z m 7.5,-0.5 c -1.37,0 -3.5,0.63 -3.5,2 0,1.38 2.63,1 4,1 1.38,0 2.5,-1.12 2.5,-2.5 0,-1.37 -1.62,-0.5 -3,-0.5 z m -2,14.5 c -1.37,0 -4,2.13 -4,3.5 0,1.38 2.63,1.5 4,1.5 1.38,0 2.5,-1.12 2.5,-2.5 0,-1.37 -1.12,-2.5 -2.5,-2.5 z m 12,20.5 c -4,-1 -4,1 -5,4.5 -1,3.5 -8.06,14.88 3.5,1 2.5,-3 5.5,-4.5 1.5,-5.5 z m -12,12 c -1.37,0 -2.5,1.12 -2.5,2.5 0,1.37 1.13,2.5 2.5,2.5 1.38,0 2.5,-1.13 2.5,-2.5 0,-1.38 -1.12,-2.5 -2.5,-2.5 z m -2.5,9 c -1.37,0 -2.5,1.12 -2.5,2.5 0,1.37 1.13,2.5 2.5,2.5 1.38,0 2.5,-1.13 2.5,-2.5 0,-1.38 -1.12,-2.5 -2.5,-2.5 z m -0.16,9 c -1.38,0 -3.34,3.12 -3.34,4.5 0,1.37 1.13,2.5 2.5,2.5 1.38,0 4.17,-1.63 4.17,-3 0,-1.38 -1.96,-4 -3.33,-4 z m -1.34,16 c -1.37,0 -1,0.12 -1,1.5 0,1.37 0.13,0.5 1.5,0.5 1.38,0 1,0.87 1,-0.5 0,-1.38 -0.12,-1.5 -1.5,-1.5 z m 13.5,-33 c -1.37,0 -1,0.12 -1,1.5 0,1.37 0.13,0.5 1.5,0.5 1.38,0 1,0.87 1,-0.5 0,-1.38 -0.12,-1.5 -1.5,-1.5 z m -3,12.5 c -1.37,0 -1,0.12 -1,1.5 0,1.37 -0.2,5 1.17,5 1.38,0 1.33,-3.63 1.33,-5 0,-1.38 -0.12,-1.5 -1.5,-1.5 z m -3.5,14 c -1.37,0 -1,0.12 -1,1.5 0,1.37 0.13,0.5 1.5,0.5 1.38,0 1,0.87 1,-0.5 0,-1.38 -0.12,-1.5 -1.5,-1.5 z m 6.17,13.5 c -1.37,0 -1.17,0.12 -1.17,1.5 0,1.37 0.3,0.5 1.67,0.5 1.38,0 0.83,0.87 0.83,-0.5 0,-1.38 0.05,-1.5 -1.33,-1.5 z m -8.83,3.33 c -1.38,0 -2.67,1.96 -2.67,3.34 0,1.37 2.96,3.83 4.33,3.83 1.38,0 1,0.87 1,-0.5 0,-1.38 -1.29,-6.67 -2.66,-6.67 z m 5.66,14.34 c -1.37,0 -3.66,-0.38 -3.66,1 0,1.37 3.29,3.83 4.66,3.83 1.38,0 1,0.87 1,-0.5 0,-1.38 -0.62,-4.33 -2,-4.33 z m 8.5,-7.17 c -1.37,0 -1,0.12 -1,1.5 0,1.37 0.13,0.5 1.5,0.5 1.38,0 1,0.87 1,-0.5 0,-1.38 -0.12,-1.5 -1.5,-1.5 z m 2.5,19.17 c -1.37,0 -2.66,1.62 -2.66,3 0,1.37 2.29,0.83 3.66,0.83 1.38,0 1,0.87 1,-0.5 0,-1.38 -0.62,-3.33 -2,-3.33 z m 8.34,5.33 c -1.38,0 -0.67,1.62 -0.67,3 0,1.37 4.96,4.5 6.33,4.5 1.38,0 1,0.87 1,-0.5 0,-1.38 -5.29,-7 -6.66,-7 z m -0.84,-16 c -1.37,0 -1,0.12 -1,1.5 0,1.37 0.13,0.5 1.5,0.5 1.38,0 1,0.87 1,-0.5 0,-1.38 -0.12,-1.5 -1.5,-1.5 z m 12,8.5 c -1.37,0 -5.83,1.79 -5.83,3.17 0,1.37 5.63,3.66 7,3.66 1.38,0 2.33,-2.29 2.33,-3.66 0,-1.38 -2.12,-3.17 -3.5,-3.17 z m 12.999998,4.5 c -1.37,0 -1,0.12 -1,1.5 0,1.37 0.13,0.5 1.5,0.5 1.38,0 1,0.87 1,-0.5 0,-1.38 -0.12,-1.5 -1.5,-1.5 z m -7.999998,12 c -1.37,0 -1,0.12 -1,1.5 0,1.37 0.13,0.5 1.499998,0.5 1.38,0 1,0.87 1,-0.5 0,-1.38 -0.12,-1.5 -1.499998,-1.5 z m 2.999998,1 c -1.37,0 -1,0.12 -1,1.5 0,1.37 0.13,0.5 1.5,0.5 1.38,0 1,0.87 1,-0.5 0,-1.38 -0.12,-1.5 -1.5,-1.5 z m 11.5,0.33 c -0.91,0 -2,1.42 -2,2.34 0,0.91 0.09,0.33 1,0.33 0.92,0 3.34,1.25 3.34,0.33 0,-0.91 -1.42,-3 -2.34,-3 z m -3,2.67 c -0.91,0 -0.66,0.08 -0.66,1 0,0.92 0.08,0.33 1,0.33 0.91,0 0.66,0.59 0.66,-0.33 0,-0.92 -0.08,-1 -1,-1 z m 5.34,-13 c -0.92,0 -2.34,3.42 -2.34,4.33 0,0.92 3.09,0.67 4,0.67 0.92,0 2.34,-2.75 2.34,-3.67 0,-0.91 -3.09,-1.33 -4,-1.33 z m 11.33,11 c -1.37,0 -1.17,0.12 -1.17,1.5 0,1.37 0.3,0.5 1.67,0.5 1.38,0 0.83,0.87 0.83,-0.5 0,-1.38 0.05,-1.5 -1.33,-1.5 z m 3,-7 c -1.37,0 0.67,3.29 0.67,4.67 0,1.37 4.46,1.83 5.83,1.83 1.38,0 -1.17,-1.79 -1.17,-3.17 0,-1.37 -3.95,-3.33 -5.33,-3.33 z m 72.1,-132.1 c -1.37,0 -1.17,0.13 -1.17,1.5 0,1.38 0.3,0.5 1.67,0.5 1.38,0 0.83,0.88 0.83,-0.5 0,-1.37 0.05,-1.5 -1.33,-1.5 z m -5.5,0 c -1.37,0 -1.17,0.13 -1.17,1.5 0,1.38 0.3,0.5 1.67,0.5 1.38,0 0.83,0.88 0.83,-0.5 0,-1.37 0.05,-1.5 -1.33,-1.5 z m 5.5,9 c -1.37,0 -1.17,0.13 -1.17,1.5 0,1.38 0.3,0.5 1.67,0.5 1.38,0 0.83,0.88 0.83,-0.5 0,-1.37 0.05,-1.5 -1.33,-1.5 z m -6.1,-0.1 c -1.37,0 -1.17,0.13 -1.17,1.5 0,1.38 0.3,0.5 1.67,0.5 1.38,0 0.83,0.88 0.83,-0.5 0,-1.37 0.05,-1.5 -1.33,-1.5 z m 8.1,10.6 c -1.37,0 -1,1.13 -1,2.5 0,1.38 0.42,4.5 1.8,4.5 1.37,0 0.53,-4.12 0.53,-5.5 0,-1.37 0.05,-1.5 -1.33,-1.5 z m -9,0 c -1.37,0 -1.4,1.23 -1.4,2.6 0,1.38 -0.97,4.6 0.4,4.6 1.38,0 1.8,-3.82 1.8,-5.2 0,-1.37 0.58,-2 -0.8,-2 z"
       style="fill:#fff6e3;stroke:none" />
  </g>
  <!-- Generated by Jasc WebDraw PR4(tm) on 06/07/01 12:18:39 -->
</svg>
