<?xml version="1.0" encoding="UTF-8"?>
<!DOCTYPE svg PUBLIC "-//W3C//DTD SVG 1.1//EN" "http://www.w3.org/Graphics/SVG/1.1/DTD/svg11.dtd" [
	<!ENTITY st0 "fill:#8C1788;stroke:none;">
	<!ENTITY st1 "fill:#202020;">
	<!ENTITY st2 "font-size:0.5;">
	<!ENTITY st3 "fill:#FF00FF;">
	<!ENTITY st4 "fill-rule:nonzero;fill:#FFFFFF;stroke:#000000;stroke-width:0.11677;stroke-miterlimit:10;">
	<!ENTITY st5 "fill:#CF4629;">
	<!ENTITY st6 "fill:none;stroke:none;">
	<!ENTITY st7 "font-family:'Helvetica';">
	<!ENTITY st8 "fill:#727272;">
	<!ENTITY st9 "fill:#0FF0FF;">
]>
<svg xmlns="http://www.w3.org/2000/svg" xmlns:xlink="http://www.w3.org/1999/xlink" xmlns:xhtml="http://www.w3.org/1999/xhtml" width="800" height="800">
  <g id="Layer_x0020_1" transform="translate(20,20) scale(2 )">
    <g style="fill-rule:nonzero;fill:#FFFFFF;stroke:#000000;stroke-width:0.11677;stroke-miterlimit:10;">
      <g>
        <!--path id="clip1" style="&st6;" d="M0,144.99951V0h117v144.99951H0z"/-->
        <!--g style="clip-path:url(#clip1);"-->
        <g>
          <path style="fill:#0FF0FF;" d="M68.37207,6.72461c0-0.96582-0.78418-1.74951-1.75-1.74951s-1.75,0.78369-1.75,1.74951c0,0.96631,0.78418,1.75,1.75,1.75s1.75-0.78369,1.75-1.75z"/>
          <path d="M67.49805,7.30713c-0.0459-0.04053-0.12402-0.02832-0.17383,0.02832c-0.05078,0.05615-0.05371,0.13525-0.00879,0.17578l2.00684,2.08496l0.47363-0.53125l-2.29785-1.75781z"/>
          <path style="fill:#0FF0FF;" d="M57.05566,134.40479c0-1.01172-0.82129-1.83301-1.8335-1.83301c-1.01172,0-1.83301,0.82129-1.83301,1.83301s0.82129,1.83301,1.83301,1.83301c1.01221,0,1.8335-0.82129,1.8335-1.83301z"/>
          <path d="M56.08496,133.62451c-0.0498,0.03809-0.04883,0.12305,0.00244,0.18945c0.05078,0.06641,0.13281,0.08887,0.18262,0.05078l2.64746-1.76562l-0.43896-0.57324l-2.39355,2.09863z"/>
          <path style="fill:#0FF0FF;" d="M88.39062,2.28467c0-1.02002-0.82812-1.84814-1.84863-1.84814c-1.01953,0-1.84766,0.82812-1.84766,1.84814c0,1.02051,0.82812,1.84863,1.84766,1.84863c1.02051,0,1.84863-0.82812,1.84863-1.84863z"/>
          <path d="M85.7041,3.48047c0.03711-0.04297,0.00977-0.12793-0.06152-0.18994s-0.15918-0.07764-0.19629-0.03467l-2.63672,2.77246l0.51074,0.44531l2.38379-2.99316z"/>
          <path style="fill:#0FF0FF;" d="M23.02002,91.68506c0-1.03711-0.84131-1.87793-1.87793-1.87793c-1.03613,0-1.87744,0.84082-1.87744,1.87793c0,1.03613,0.84131,1.87695,1.87744,1.87695c1.03662,0,1.87793-0.84082,1.87793-1.87695z"/>
          <path d="M20.74463,91.28857c0.03662,0.05664,0.11572,0.07227,0.17627,0.0332c0.06055-0.03809,0.07959-0.11621,0.04297-0.17383l-0.54785-1.36328l-0.68018,0.43652l1.00879,1.06738z"/>
          <path style="fill:#727272;" d="M72.99902,10.20459c0-1.3335-1.08301-2.41602-2.41699-2.41602s-2.41602,1.08252-2.41602,2.41602c0,1.33398,1.08203,2.4165,2.41602,2.4165s2.41699-1.08252,2.41699-2.4165z"/>
          <path d="M72.83887,9.51709c-0.02637,0.00537-0.02441,0.10938,0.00293,0.23145s0.07129,0.2168,0.09668,0.21094l6.54395-1.41309l-0.12793-0.5625l-6.51562,1.5332z"/>
          <path d="M69.47461,11.83203c0.03809-0.04492,0.00879-0.13232-0.06543-0.1958c-0.07324-0.06396-0.16504-0.0791-0.20312-0.03467l-3.63867,3.96191l0.54102,0.46533l3.36621-4.19678z"/>
          <path style="fill:#0FF0FF;" d="M99.99707,82.92529c0-1.06836-0.86621-1.93555-1.93457-1.93555s-1.93555,0.86719-1.93555,1.93555c0,1.06738,0.86719,1.93457,1.93555,1.93457s1.93457-0.86719,1.93457-1.93457z"/>
          <path d="M98.41504,83.6958c-0.01953-0.06738-0.09473-0.10449-0.16895-0.08398c-0.07422,0.02148-0.11816,0.09375-0.09863,0.16113l0.24609,1.84863l0.78809-0.22559l-0.7666-1.7002z"/>
          <path style="fill:#0FF0FF;" d="M75.6582,142.68506c0-1.08008-0.87598-1.95605-1.95605-1.95605c-1.0791,0-1.95605,0.87598-1.95605,1.95605c0,1.0791,0.87695,1.95605,1.95605,1.95605c1.08008,0,1.95605-0.87695,1.95605-1.95605z"/>
          <path d="M72.75391,141.15967c0.02148,0.04785,0.11914,0.05078,0.21777,0.00586c0.09863-0.04395,0.16113-0.11914,0.13965-0.16699l-1.51172-3.70898l-0.61621,0.27734l1.77051,3.59277z"/>
          <path style="fill:#727272;" d="M84.22949,7.68506c0-1.37305-1.11426-2.4873-2.4873-2.4873s-2.4873,1.11426-2.4873,2.4873c0,1.37256,1.11426,2.4873,2.4873,2.4873s2.4873-1.11475,2.4873-2.4873z"/>
          <path d="M82.93945,8.58936c-0.05176-0.04688-0.13965-0.03418-0.19727,0.02881s-0.0625,0.15186-0.01074,0.19873l2.6123,2.72949l0.5498-0.60205l-2.9541-2.35498z"/>
          <path style="fill:#727272;" d="M62.40918,130.80518c0-1.38379-1.12305-2.50684-2.50684-2.50684s-2.50635,1.12305-2.50635,2.50684c0,1.38281,1.12256,2.50586,2.50635,2.50586s2.50684-1.12305,2.50684-2.50586z"/>
          <path d="M62.30273,131.57373c-0.03027-0.01367-0.0957,0.07031-0.14648,0.18555s-0.06738,0.21973-0.03809,0.23242l5.85156,2.66406l0.24805-0.56152l-5.91504-2.52051z"/>
          <path d="M58.9292,128.90186c0.02197,0.04883,0.12061,0.05273,0.2207,0.00781s0.16309-0.12109,0.14111-0.16992l-2.21924-5.30664l-0.63574,0.28516l2.49316,5.18359z"/>
          <path style="fill:#0FF0FF;" d="M113.86035,98.04443c0-1.10254-0.89453-1.99805-1.99805-1.99805s-1.99805,0.89551-1.99805,1.99805c0,1.10352,0.89453,1.99902,1.99805,1.99902s1.99805-0.89551,1.99805-1.99902z"/>
          <path d="M110.7041,97.55322c0.05957,0.03516,0.14551,0.00195,0.19043-0.0752c0.0459-0.07715,0.03418-0.16797-0.02539-0.20312l-2.26562-1.62012l-0.40527,0.68262l2.50586,1.21582z"/>
          <path style="fill:#0FF0FF;" d="M57.85059,19.20459c0-1.11963-0.90869-2.02832-2.02832-2.02832s-2.02832,0.90869-2.02832,2.02832c0,1.12012,0.90869,2.02881,2.02832,2.02881s2.02832-0.90869,2.02832-2.02881z"/>
          <path d="M57.68164,18.58301c-0.02979,0.00635-0.03174,0.11572-0.00439,0.24365c0.02734,0.12744,0.07373,0.22607,0.10352,0.21973l4.29736-0.84814l-0.12891-0.59961l-4.26758,0.98438z"/>
          <path style="fill:#727272;" d="M72.93555,135.36475c0-1.43164-1.16211-2.59277-2.59277-2.59277c-1.43164,0-2.59375,1.16113-2.59375,2.59277s1.16211,2.59375,2.59375,2.59375c1.43066,0,2.59277-1.16211,2.59277-2.59375z"/>
          <path d="M71.625,134.17725c-0.05469,0.04297-0.05273,0.13867,0.00586,0.21289s0.15039,0.09961,0.20508,0.05664l3.47168-2.41797l-0.50586-0.64453l-3.17676,2.79297z"/>
          <path style="fill:#0FF0FF;" d="M49.8418,118.08447c0-1.13672-0.92285-2.05859-2.05957-2.05859s-2.05957,0.92188-2.05957,2.05859s0.92285,2.05957,2.05957,2.05957s2.05957-0.92285,2.05957-2.05957z"/>
          <path d="M49.67188,118.56982c-0.0332-0.01465-0.10205,0.06934-0.15283,0.18848c-0.05127,0.11816-0.06543,0.22559-0.03174,0.24023l3.85693,1.75586l0.25244-0.58789l-3.9248-1.59668z"/>
          <path style="fill:#0FF0FF;" d="M102.2832,55.20459c0-1.1377-0.92285-2.06104-2.06055-2.06104s-2.06152,0.92334-2.06152,2.06104c0,1.13818,0.92383,2.06152,2.06152,2.06152s2.06055-0.92334,2.06055-2.06152z"/>
          <path style="fill:#727272;" d="M22.31787,89.40479c0-1.44434-1.17188-2.61523-2.61572-2.61523s-2.61572,1.1709-2.61572,2.61523S18.2583,92.021,19.70215,92.021s2.61572-1.17188,2.61572-2.61621z"/>
          <path style="fill:#0FF0FF;" d="M34.979,77.16455c0-1.14648-0.93018-2.07617-2.07666-2.07617s-2.07715,0.92969-2.07715,2.07617s0.93066,2.07715,2.07715,2.07715s2.07666-0.93066,2.07666-2.07715z"/>
          <path d="M31.479,78.20459c0.05176-0.03027,0.04834-0.13184-0.00781-0.22754c-0.05566-0.0957-0.14307-0.14844-0.19434-0.11816l-3.21875,1.69141l0.37158,0.63379l3.04932-1.97949z"/>
          <path d="M20.94287,87.3501c-0.03174,0.04004,0.01807,0.13281,0.11084,0.20605c0.09277,0.07422,0.19385,0.10254,0.22559,0.0625l3.7085-4.43262l-0.54932-0.43848l-3.49561,4.60254z"/>
          <path d="M17.84473,90.65283c0.0498-0.03027,0.04346-0.13184-0.01465-0.22754s-0.14551-0.14941-0.19531-0.11914l-4.71777,2.66797l0.38184,0.62988l4.5459-2.95117z"/>
          <path style="fill:#727272;" d="M67.20117,17.40479c0-1.4458-1.17285-2.61914-2.61914-2.61914c-1.44531,0-2.61914,1.17334-2.61914,2.61914s1.17383,2.61914,2.61914,2.61914c1.44629,0,2.61914-1.17334,2.61914-2.61914z"/>
          <path d="M65.69141,18.29102c-0.05273-0.05078-0.14648-0.03906-0.20801,0.02588c-0.0625,0.06543-0.06934,0.15918-0.01562,0.20947l2.45117,2.69922l0.58984-0.62061l-2.81738-2.31396z"/>
          <path style="fill:#727272;" d="M58.49414,121.44482c0-1.47461-1.19727-2.67188-2.67188-2.67188s-2.67139,1.19727-2.67139,2.67188s1.19678,2.67188,2.67139,2.67188s2.67188-1.19727,2.67188-2.67188z"/>
          <path d="M57.06348,120.23389c-0.05664,0.0459-0.05371,0.14355,0.00684,0.21777c0.06006,0.0752,0.15479,0.09961,0.21143,0.05371l3.3374-2.36133l-0.5293-0.65918l-3.02637,2.74902z"/>
          <path style="fill:#0FF0FF;" d="M8.02734,100.92529c0-1.17383-0.95166-2.12598-2.125-2.12598s-2.12549,0.95215-2.12549,2.12598c0,1.17285,0.95215,2.125,2.12549,2.125s2.125-0.95215,2.125-2.125z"/>
          <path d="M6.94287,99.27393c-0.03271,0.04004,0.01709,0.13477,0.11182,0.21191c0.09424,0.07617,0.19727,0.10547,0.23047,0.06543l2.50293-2.87012l-0.55225-0.44727l-2.29297,3.04004z"/>
          <path style="fill:#727272;" d="M101.82227,86.5249c0-1.47949-1.2002-2.67969-2.67969-2.67969s-2.68066,1.2002-2.68066,2.67969s1.20117,2.67969,2.68066,2.67969s2.67969-1.2002,2.67969-2.67969z"/>
          <path d="M101.0625,88.31689c-0.0127-0.01367-0.10938,0.05469-0.2168,0.15234c-0.10742,0.09863-0.18359,0.18945-0.1709,0.20312l4.23047,4.68164l0.44824-0.41016l-4.29102-4.62695z"/>
          <path d="M97.52441,85.80322c0.06348,0.03809,0.1543,0.00195,0.2041-0.08008c0.0498-0.08105,0.03906-0.17871-0.02344-0.2168L94.43457,83.229l-0.44238,0.73047l3.53223,1.84375z"/>
          <path style="fill:#CF4629;" d="M71.26758,89.76514c0-2.03418-1.65137-3.68555-3.68555-3.68555s-3.68457,1.65137-3.68457,3.68555s1.65039,3.68457,3.68457,3.68457s3.68555-1.65039,3.68555-3.68457z"/>
          <path d="M69.43164,86.68994c-0.02051,0.0293,0.05273,0.11523,0.16309,0.19336c0.11035,0.07715,0.21582,0.11719,0.23633,0.08789l9.1748-12.85645l-0.55664-0.3916l-9.01758,12.9668z"/>
          <path d="M65.94727,91.87061c0.04688-0.05176,0.02148-0.14941-0.05469-0.2168c-0.07715-0.06738-0.17676-0.08008-0.22266-0.02734l-7.76562,8.41016l0.66699,0.58984l7.37598-8.75586z"/>
          <path style="fill:#727272;" d="M109.66602,95.16455c0-1.50293-1.2207-2.72266-2.72363-2.72266s-2.72363,1.21973-2.72363,2.72266c0,1.50391,1.2207,2.72363,2.72363,2.72363s2.72363-1.21973,2.72363-2.72363z"/>
          <path d="M107.43359,96.19775c-0.02344-0.0752-0.1084-0.11523-0.19141-0.08984s-0.13184,0.10645-0.1084,0.18164l0.46387,2.55176l0.88281-0.27051l-1.04688-2.37305z"/>
          <path style="fill:#CF4629;" d="M71.94629,50.04492c0-2.07812-1.68652-3.76416-3.76367-3.76416c-2.07812,0-3.76465,1.68604-3.76465,3.76416c0,2.07764,1.68652,3.76416,3.76465,3.76416c2.07715,0,3.76367-1.68652,3.76367-3.76416z"/>
          <path d="M70.42773,53.0083c-0.01367-0.02197-0.12402,0.02344-0.24512,0.10156s-0.20703,0.15918-0.19336,0.18164l8.56543,13.39551l0.55176-0.35498L70.42773,53.0083z"/>
          <path d="M66.82422,47.43457c0.02832,0.06201,0.13184,0.07617,0.23145,0.03125c0.10059-0.04443,0.15918-0.13086,0.13184-0.19287l-4.70801-11.14893l-0.79883,0.35547l5.14355,10.95508z"/>
          <path style="fill:#727272;" d="M29.06299,81.12451c0-1.52344-1.23682-2.76074-2.76074-2.76074s-2.76074,1.2373-2.76074,2.76074c0,1.52441,1.23682,2.76074,2.76074,2.76074s2.76074-1.23633,2.76074-2.76074z"/>
          <path d="M25.68555,80.34521c0.04004,0.06934,0.13135,0.09082,0.20459,0.04883c0.07275-0.04199,0.1001-0.13184,0.06006-0.20117l-0.67041-1.81543l-0.82666,0.47559l1.23242,1.49219z"/>
          <path style="fill:#727272;" d="M89.5459,12.24463c0-1.52539-1.23828-2.76318-2.76367-2.76318s-2.76367,1.23779-2.76367,2.76318s1.23828,2.76367,2.76367,2.76367s2.76367-1.23828,2.76367-2.76367z"/>
          <path d="M89.35352,11.47852c-0.0293,0.00635-0.0293,0.125,0.00195,0.26416c0.03125,0.13965,0.08008,0.24707,0.11035,0.24072l3.95312-0.80664l-0.1416-0.63965l-3.92383,0.94141z"/>
          <path d="M85.49414,14.1123c0.04395-0.05078,0.01074-0.15137-0.07324-0.22461c-0.08496-0.07324-0.18945-0.09131-0.2334-0.04102l-3.31934,3.52246l0.61133,0.52979l3.01465-3.78662z"/>
          <path style="fill:#727272;" d="M13.85498,94.56494c0-1.54199-1.25098-2.79297-2.79248-2.79297s-2.79297,1.25098-2.79297,2.79297c0,1.54102,1.25146,2.79199,2.79297,2.79199s2.79248-1.25098,2.79248-2.79199z"/>
          <path d="M10.5127,93.86475c0.04199,0.06934,0.13477,0.08984,0.20703,0.04492c0.07275-0.04395,0.09717-0.13477,0.05518-0.2041l-0.65137-1.70215l-0.82324,0.50293l1.2124,1.3584z"/>
          <path style="fill:#0FF0FF;" d="M97.65918,10.32471c0-1.23486-1.00195-2.23682-2.2373-2.23682c-1.23438,0-2.23633,1.00195-2.23633,2.23682s1.00195,2.2373,2.23633,2.2373c1.23535,0,2.2373-1.00244,2.2373-2.2373z"/>
          <path style="fill:#0FF0FF;" d="M115.66895,41.5249c0-1.24023-1.00586-2.24707-2.24707-2.24707c-1.24023,0-2.24707,1.00684-2.24707,2.24707s1.00684,2.24707,2.24707,2.24707c1.24121,0,2.24707-1.00684,2.24707-2.24707z"/>
          <path d="M112.09375,42.71924c0.05664-0.03857,0.0498-0.14697-0.01465-0.24219s-0.16309-0.14111-0.21875-0.10303l-2.70703,1.59717l0.45703,0.67334l2.4834-1.92529z"/>
          <path style="fill:#727272;" d="M79.42871,130.56494c0-1.57129-1.27539-2.84668-2.84668-2.84668s-2.84668,1.27539-2.84668,2.84668s1.27539,2.84668,2.84668,2.84668s2.84668-1.27539,2.84668-2.84668z"/>
          <path d="M79.1582,131.3833c-0.03418-0.01465-0.10742,0.08105-0.16309,0.21289c-0.05664,0.13281-0.0752,0.25098-0.04102,0.26562l3.49707,1.58594l0.27148-0.63379l-3.56445-1.43066z"/>
          <path d="M75.30371,128.38428c0.02539,0.05469,0.1377,0.05859,0.25098,0.00684c0.11426-0.05176,0.18555-0.13867,0.16016-0.19434l-1.98535-4.7627l-0.71484,0.3252l2.28906,4.625z"/>
          <path style="fill:#727272;" d="M102.71973,53.40479c0-1.57715-1.28027-2.85742-2.85742-2.85742s-2.85742,1.28027-2.85742,2.85742c0,1.57764,1.28027,2.85742,2.85742,2.85742s2.85742-1.27979,2.85742-2.85742z"/>
          <path d="M101.53906,51.37939c-0.03516,0.03711,0.01367,0.14258,0.10938,0.23535s0.20312,0.1377,0.23926,0.10059l3.89062-3.84033l-0.53809-0.52002l-3.70117,4.02441z"/>
          <path d="M98.10059,54.92871c0.05664-0.03857,0.04785-0.14844-0.01855-0.24512s-0.16699-0.14355-0.22266-0.10498l-4.06445,2.55713l0.46875,0.68066l3.83691-2.8877z"/>
          <path style="fill:#FF00FF;" d="M85.8623,70.32471c0-2.53906-2.06055-4.6001-4.59961-4.6001c-2.54004,0-4.60059,2.06104-4.60059,4.6001c0,2.53955,2.06055,4.60059,4.60059,4.60059c2.53906,0,4.59961-2.06104,4.59961-4.60059z"/>
          <path d="M84.55664,73.45508c-0.01465-0.0166-0.11914,0.0542-0.23242,0.15869c-0.11328,0.10352-0.19238,0.20215-0.17773,0.21875l6.2666,6.88965l0.4873-0.44922l-6.34375-6.81787z"/>
          <path d="M84.00879,67.03271c-0.03516,0.0376,0.01562,0.14258,0.11426,0.23486s0.20703,0.13721,0.24121,0.09961l5.99219-6.18408l-0.55566-0.52148l-5.79199,6.37109z"/>
          <path style="fill:#0FF0FF;" d="M14.67041,41.5249c0-1.26318-1.02539-2.28809-2.28809-2.28809c-1.26318,0-2.28809,1.0249-2.28809,2.28809c0,1.2627,1.0249,2.28809,2.28809,2.28809c1.2627,0,2.28809-1.02539,2.28809-2.28809z"/>
          <path d="M14.04004,42.93994c-0.03516-0.04053-0.14551-0.00195-0.24609,0.08594s-0.15381,0.19141-0.11865,0.23193l1.99561,2.4917l0.56641-0.49463l-2.19727-2.31494z"/>
          <path style="fill:#727272;" d="M72.28125,21.96484c0-1.6001-1.29883-2.89844-2.89941-2.89844c-1.59961,0-2.89844,1.29834-2.89844,2.89844s1.29883,2.89844,2.89844,2.89844c1.60059,0,2.89941-1.29834,2.89941-2.89844z"/>
          <path d="M72.09961,21.1416c-0.0293,0.00732-0.02539,0.13184,0.00879,0.27832s0.08691,0.25977,0.11621,0.25293l5.67578-1.26514l-0.15625-0.66699l-5.64453,1.40088z"/>
          <path d="M68.0459,24.01025c0.04395-0.05225,0.00488-0.15723-0.08594-0.23438c-0.0918-0.07715-0.20215-0.09766-0.24609-0.04541l-4.8916,5.4707l0.6543,0.55225l4.56934-5.74316z"/>
          <path style="fill:#0FF0FF;" d="M86.93359,133.92529c0-1.27637-1.03516-2.31152-2.31152-2.31152c-1.27539,0-2.31152,1.03516-2.31152,2.31152c0,1.27539,1.03613,2.31055,2.31152,2.31055c1.27637,0,2.31152-1.03516,2.31152-2.31055z"/>
          <path style="fill:#727272;" d="M64.75195,116.64502c0-1.61719-1.3125-2.92969-2.92969-2.92969s-2.9292,1.3125-2.9292,2.92969s1.31201,2.92871,2.9292,2.92871s2.92969-1.31152,2.92969-2.92871z"/>
          <path d="M64.53711,117.51416c-0.0332-0.01465-0.10938,0.08398-0.16895,0.21973c-0.05957,0.13672-0.08203,0.25879-0.04785,0.27344l5.17285,2.37109l0.28516-0.64941l-5.24121-2.21484z"/>
          <path d="M60.58301,114.38135c0.02539,0.05566,0.14062,0.05957,0.25781,0.00684s0.19238-0.14062,0.16699-0.19727l-3.0293-7.21191l-0.75195,0.33594l3.35645,7.06641z"/>
          <path style="fill:#727272;" d="M95.60449,82.56494c0-1.62402-1.31738-2.94238-2.94238-2.94238c-1.62402,0-2.94238,1.31836-2.94238,2.94238s1.31836,2.94238,2.94238,2.94238c1.625,0,2.94238-1.31836,2.94238-2.94238z"/>
          <path d="M93.15137,83.81689c-0.02441-0.08008-0.11621-0.12402-0.20703-0.09668c-0.08984,0.02734-0.14258,0.11426-0.11816,0.19531l0.40527,2.46875l0.94531-0.28516l-1.02539-2.28223z"/>
          <path style="fill:#727272;" d="M83.62988,19.44482c0-1.63818-1.3291-2.96777-2.96777-2.96777c-1.6377,0-2.96777,1.32959-2.96777,2.96777s1.33008,2.96777,2.96777,2.96777c1.63867,0,2.96777-1.32959,2.96777-2.96777z"/>
          <path d="M82.08105,20.38965c-0.06348-0.05322-0.16797-0.0332-0.2334,0.04541c-0.06641,0.07812-0.06836,0.18457-0.00488,0.23779l1.46582,1.60498l0.60449-0.71777l-1.83203-1.17041z"/>
          <path style="fill:#727272;" d="M20.83447,47.64502c0-1.68506-1.36768-3.05225-3.05225-3.05225s-3.05176,1.36719-3.05176,3.05225c0,1.68457,1.36719,3.05176,3.05176,3.05176s3.05225-1.36719,3.05225-3.05176z"/>
          <path style="fill:#202020;" d="M19.8042,49.51807c-0.03662-0.04199-0.15088-0.00195-0.25439,0.08936c-0.104,0.09131-0.1582,0.19922-0.12109,0.24121l2.2085,2.72461l0.58838-0.51709l-2.42139-2.53809z"/>
          <path style="fill:#727272;" d="M110.41211,45.60498c0-1.65039-1.33984-2.98975-2.99023-2.98975c-1.64941,0-2.98926,1.33936-2.98926,2.98975c0,1.6499,1.33984,2.98926,2.98926,2.98926c1.65039,0,2.99023-1.33936,2.99023-2.98926z"/>
          <path style="fill:#727272;" d="M75.39551,121.20459c0-1.66309-1.35059-3.0127-3.01367-3.0127c-1.66211,0-3.0127,1.34961-3.0127,3.0127s1.35059,3.0127,3.0127,3.0127c1.66309,0,3.01367-1.34961,3.01367-3.0127z"/>
          <path d="M73.81348,119.86377c-0.06543,0.04785-0.06543,0.1582-0.00098,0.24707c0.06543,0.08887,0.1709,0.12207,0.23633,0.07422l2.12207-1.22656l-0.54395-0.74316l-1.81348,1.64844z"/>
          <path style="fill:#727272;" d="M111.41406,99.96436c0-1.67285-1.3584-3.03125-3.03223-3.03125c-1.67285,0-3.03125,1.3584-3.03125,3.03125c0,1.67383,1.3584,3.03223,3.03125,3.03223c1.67383,0,3.03223-1.3584,3.03223-3.03223z"/>
          <path d="M110.65625,101.93896c-0.01465-0.01562-0.12402,0.06152-0.24512,0.17188c-0.12109,0.11133-0.20703,0.21387-0.19238,0.22949l2.4248,2.71387l0.50586-0.46289l-2.49316-2.65234z"/>
          <path d="M106.6582,99.12744c0.07227,0.04199,0.1748,0.00098,0.22852-0.0918c0.05469-0.09277,0.04102-0.20215-0.03027-0.24414l-2.83887-1.99805l-0.48535,0.82422l3.12598,1.50977z"/>
          <path style="fill:#727272;" d="M95.11914,58.9248c0-1.6875-1.36914-3.05713-3.05664-3.05713s-3.05762,1.36963-3.05762,3.05713s1.37012,3.05713,3.05762,3.05713s3.05664-1.36963,3.05664-3.05713z"/>
          <path style="fill:#0FF0FF;" d="M116.93457,106.56494c0-1.34277-1.08984-2.43262-2.43262-2.43262c-1.3418,0-2.43164,1.08984-2.43164,2.43262s1.08984,2.43262,2.43164,2.43262c1.34277,0,2.43262-1.08984,2.43262-2.43262z"/>
          <path style="fill:#727272;" d="M27.46826,77.76514c0-1.7041-1.38232-3.08691-3.08594-3.08691s-3.08643,1.38281-3.08643,3.08691c0,1.70312,1.38281,3.08594,3.08643,3.08594s3.08594-1.38281,3.08594-3.08594z"/>
          <path d="M25.86279,75.39404c-0.03564,0.04688,0.02637,0.1543,0.13867,0.23926s0.23291,0.11621,0.26855,0.06836l4.82275-6.09912l-0.66553-0.50488l-4.56445,6.29639z"/>
          <path d="M22.2793,79.37939c0.05762-0.03613,0.04736-0.15723-0.02344-0.26953c-0.07031-0.1123-0.1748-0.17383-0.23242-0.13672l-4.06689,2.33594l0.4585,0.72754l3.86426-2.65723z"/>
          <path style="fill:#727272;" d="M26.95459,54.48486c0-1.75098-1.42139-3.17188-3.17236-3.17188s-3.17188,1.4209-3.17188,3.17188s1.4209,3.17188,3.17188,3.17188s3.17236-1.4209,3.17236-3.17188z"/>
          <path d="M25.95117,56.47363c-0.03809-0.04297-0.15625-0.00049-0.26416,0.09473c-0.10742,0.09521-0.16357,0.20752-0.12549,0.25049l4.57275,5.39355l0.61963-0.5498l-4.80273-5.18896z"/>
          <path style="fill:#727272;" d="M12.26025,91.56494c0-1.72168-1.39697-3.11816-3.11816-3.11816c-1.7207,0-3.11768,1.39648-3.11768,3.11816c0,1.7207,1.39697,3.11816,3.11768,3.11816c1.72119,0,3.11816-1.39746,3.11816-3.11816z"/>
          <path d="M10.77344,89.09131c-0.0376,0.04688,0.02197,0.15723,0.13281,0.24512c0.11084,0.08887,0.23145,0.12207,0.26904,0.0752l3.16455-3.71484l-0.64795-0.51758l-2.91846,3.91211z"/>
          <path d="M7.09814,93.03662c0.05957-0.03711,0.05176-0.1582-0.01807-0.27148c-0.06934-0.1123-0.17383-0.1748-0.2334-0.1377L4.2583,93.99365L4.70996,94.729l2.38818-1.69238z"/>
          <path style="fill:#FF00FF;" d="M60.89648,103.08447c0-2.80078-2.27295-5.07422-5.07422-5.07422s-5.07471,2.27344-5.07471,5.07422c0,2.80176,2.27344,5.0752,5.07471,5.0752s5.07422-2.27344,5.07422-5.0752z"/>
          <path d="M53.60547,99.36084c0.03174,0.0625,0.15576,0.06348,0.27637,0.00098c0.12012-0.06152,0.19238-0.16211,0.16016-0.22461l-5.39795-11.04492l-0.83105,0.4248l5.79248,10.84375z"/>
          <path d="M53.7251,106.08252c0.05127-0.06543,0.01709-0.17871-0.07666-0.25195c-0.09375-0.07422-0.21143-0.08105-0.26318-0.01465l-3.91992,4.53125l0.77979,0.61426l3.47998-4.87891z"/>
          <path style="fill:#FF00FF;" d="M65.5957,32.64502c0-2.81201-2.28125-5.09424-5.09375-5.09424c-2.81152,0-5.09375,2.28223-5.09375,5.09424c0,2.81152,2.28223,5.09375,5.09375,5.09375c2.8125,0,5.09375-2.28223,5.09375-5.09375z"/>
          <path d="M57.31836,35.60352c0.05566-0.0459,0.03076-0.16748-0.05566-0.27051c-0.08594-0.10303-0.20068-0.14941-0.25635-0.10303l-9.36182,7.51514L48.25,43.4707l9.06836-7.86719z"/>
          <path d="M59.23535,29.1123c0.02197,0.0791,0.13525,0.1167,0.25293,0.08398c0.11719-0.03271,0.19482-0.12402,0.17236-0.20312l-1.22705-5.38574l-0.94336,0.26465l1.74512,5.24023z"/>
          <path style="fill:#0FF0FF;" d="M87.14648,22.80469c0-1.39307-1.13086-2.52393-2.52441-2.52393c-1.39258,0-2.52344,1.13086-2.52344,2.52393c0,1.39355,1.13086,2.52393,2.52344,2.52393c1.39355,0,2.52441-1.13037,2.52441-2.52393z"/>
          <path style="fill:#0FF0FF;" d="M79.72754,117.60498c0-1.40527-1.14062-2.54492-2.54492-2.54492c-1.40527,0-2.54492,1.13965-2.54492,2.54492c0,1.4043,1.13965,2.54492,2.54492,2.54492c1.4043,0,2.54492-1.14062,2.54492-2.54492z"/>
          <path style="fill:#0FF0FF;" d="M35.35547,114.96436c0-1.41992-1.15283-2.57227-2.57324-2.57227s-2.57324,1.15234-2.57324,2.57227c0,1.4209,1.15283,2.57324,2.57324,2.57324s2.57324-1.15234,2.57324-2.57324z"/>
          <path d="M34.12598,115.25146c-0.08643-0.03027-0.18604,0.02734-0.22217,0.12891c-0.03613,0.10254,0.00488,0.20996,0.09131,0.24023l1.45068,0.85547l0.34619-0.97559l-1.66602-0.24902z"/>
          <path style="fill:#727272;" d="M97.47168,87.60498c0-1.79395-1.45508-3.25-3.24902-3.25s-3.25,1.45605-3.25,3.25s1.45605,3.25,3.25,3.25c1.79395-0.00098,3.24902-1.45605,3.24902-3.25z"/>
          <path d="M96.51758,89.7417c-0.01562-0.01758-0.13379,0.06543-0.2627,0.18457c-0.12891,0.11816-0.2207,0.22852-0.20508,0.24609l3.46973,3.84375l0.54199-0.49805l-3.54395-3.77637z"/>
          <path d="M92.25293,86.81396c0.0791,0.04297,0.1875-0.00391,0.24219-0.10352c0.05469-0.10059,0.03516-0.2168-0.04297-0.25977l-1.58105-1.20605l-0.48535,0.88379l1.86719,0.68555z"/>
          <path style="fill:#0FF0FF;" d="M5.24561,95.5249c0-1.42578-1.15723-2.58301-2.5835-2.58301c-1.42578,0-2.58301,1.15723-2.58301,2.58301s1.15723,2.58301,2.58301,2.58301c1.42627,0,2.5835-1.15723,2.5835-2.58301z"/>
          <path style="fill:#727272;" d="M19.12451,83.16455c0-1.80078-1.46143-3.26172-3.26221-3.26172s-3.26221,1.46094-3.26221,3.26172s1.46143,3.2627,3.26221,3.2627s3.26221-1.46191,3.26221-3.2627z"/>
          <path style="fill:#FF00FF;" d="M38.89893,65.64502c0-2.9126-2.36377-5.27686-5.27686-5.27686c-2.9126,0-5.27637,2.36426-5.27637,5.27686s2.36377,5.27637,5.27637,5.27637c2.91309,0,5.27686-2.36377,5.27686-5.27637z"/>
          <path d="M36.62598,69.51123c-0.03027-0.04443-0.16064-0.00977-0.29248,0.07764c-0.13135,0.0874-0.21387,0.19482-0.18408,0.23975l7.32324,11.26367l0.72119-0.48047l-7.56787-11.10059z"/>
          <path d="M35.7998,61.1416c-0.02783,0.05029,0.05908,0.15234,0.19385,0.22852c0.13525,0.07617,0.26807,0.09717,0.2959,0.04736l6.67822-11.53174l-0.76807-0.43262L35.7998,61.1416z"/>
          <path style="fill:#727272;" d="M105.31738,96.12451c0-1.81836-1.47656-3.29395-3.29492-3.29395s-3.29492,1.47559-3.29492,3.29395c0,1.81934,1.47656,3.29492,3.29492,3.29492s3.29492-1.47559,3.29492-3.29492z"/>
          <path d="M102.56934,97.44092c-0.02734-0.09082-0.13086-0.14062-0.23047-0.11035c-0.10059,0.0293-0.16016,0.12793-0.13281,0.21777l0.03711,1.34473l1.03125-0.30762l-0.70508-1.14453z"/>
          <path style="fill:#727272;" d="M110.38477,43.08496c0-1.83398-1.48828-3.32227-3.32227-3.32227s-3.32227,1.48828-3.32227,3.32227c0,1.8335,1.48828,3.32227,3.32227,3.32227s3.32227-1.48877,3.32227-3.32227z"/>
          <path d="M109.02051,40.78271c-0.04199,0.04297,0.01367,0.16553,0.125,0.27393c0.11035,0.10791,0.23438,0.16064,0.27637,0.11768l2.10449-1.94092l-0.6123-0.59961l-1.89355,2.14893z"/>
          <path d="M104.98828,44.84521c0.06641-0.04395,0.05957-0.17139-0.01562-0.28467s-0.18945-0.16943-0.25586-0.12549l-3.4541,2.01025l0.52637,0.79541l3.19922-2.39551z"/>
          <path style="fill:#727272;" d="M95.09082,56.16504c0-1.87109-1.51758-3.38916-3.38867-3.38916c-1.87012,0-3.38867,1.51807-3.38867,3.38916c0,1.87061,1.51855,3.38867,3.38867,3.38867c1.87109,0,3.38867-1.51807,3.38867-3.38867z"/>
          <path d="M93.60547,53.72705c-0.04199,0.04395,0.01465,0.16895,0.12793,0.2793c0.11328,0.10986,0.24023,0.16309,0.2832,0.11914l3.22949-3.10693l-0.63184-0.61377l-3.00879,3.32227z"/>
          <path d="M89.49902,57.80322c0.07031-0.04395,0.06738-0.17334-0.00488-0.28906c-0.07324-0.11572-0.18945-0.17383-0.25879-0.12988l-2.12793,1.05859l0.51562,0.81982l1.87598-1.45947z"/>
          <path style="fill:#0FF0FF;" d="M115.6582,37.20459c0-1.49902-1.2168-2.71582-2.71582-2.71582s-2.71582,1.2168-2.71582,2.71582c0,1.49951,1.2168,2.71582,2.71582,2.71582s2.71582-1.21631,2.71582-2.71582z"/>
          <path style="fill:#0FF0FF;" d="M91.92383,84.96436c0-1.5127-1.22852-2.74121-2.74121-2.74121c-1.51367,0-2.74219,1.22852-2.74219,2.74121c0,1.51367,1.22852,2.74219,2.74219,2.74219c1.5127,0,2.74121-1.22852,2.74121-2.74219z"/>
          <path style="fill:#727272;" d="M40.81055,116.64502c0-1.91504-1.55371-3.46875-3.46826-3.46875s-3.46826,1.55371-3.46826,3.46875c0,1.91406,1.55371,3.46777,3.46826,3.46777s3.46826-1.55371,3.46826-3.46777z"/>
          <path d="M40.43652,115.104c-0.02148,0.00781,0.01318,0.1582,0.07764,0.33496c0.06445,0.17773,0.13428,0.31543,0.15576,0.30762l4.53174-1.59375l-0.26709-0.7334l-4.49805,1.68457z"/>
          <path d="M35.93115,118.5415c0.06104-0.07031,0.03271-0.19531-0.06348-0.2793c-0.0957-0.08496-0.22363-0.09668-0.28467-0.02734l-2.31934,2.18652l0.7959,0.7002l1.87158-2.58008z"/>
          <path style="fill:#727272;" d="M60.83105,21.24463c0-1.96973-1.59912-3.56787-3.56885-3.56787s-3.56836,1.59814-3.56836,3.56787s1.59863,3.56836,3.56836,3.56836s3.56885-1.59863,3.56885-3.56836z"/>
          <path style="fill:#202020;" d="M56.28857,18.94678c0.02832,0.08887,0.15088,0.12891,0.27441,0.08984s0.20068-0.14307,0.17236-0.23193l-0.29102-1.88672l-1.00586,0.32031l0.8501,1.7085z"/>
          <path style="fill:#727272;" d="M51.8916,112.56494c0-1.9375-1.57227-3.50879-3.50928-3.50879s-3.50928,1.57129-3.50928,3.50879c0,1.93652,1.57227,3.50879,3.50928,3.50879s3.50928-1.57227,3.50928-3.50879z"/>
          <path d="M50.04199,113.08154c-0.09229-0.03809-0.20264,0.01855-0.24658,0.125c-0.04346,0.10742-0.00439,0.22461,0.08789,0.2627l1.98291,1.19922l0.43115-1.05469l-2.25537-0.53223z"/>
          <path style="fill:#0FF0FF;" d="M17.08887,80.88525c0-1.53906-1.24854-2.78711-2.78662-2.78711s-2.78662,1.24805-2.78662,2.78711c0,1.53809,1.24854,2.78613,2.78662,2.78613s2.78662-1.24805,2.78662-2.78613z"/>
          <path style="fill:#727272;" d="M102.66309,48.36475c0-1.94336-1.57715-3.52051-3.52051-3.52051s-3.52051,1.57715-3.52051,3.52051s1.57715,3.521,3.52051,3.521s3.52051-1.57764,3.52051-3.521z"/>
          <path style="fill:#CF4629;" d="M51.19336,84.60498c0-2.67773-2.17334-4.85156-4.85107-4.85156s-4.85107,2.17383-4.85107,4.85156s2.17334,4.85059,4.85107,4.85059s4.85107-2.17285,4.85107-4.85059z"/>
          <path style="fill:#0FF0FF;" d="M105.90332,99.84521c0-1.54688-1.25488-2.80078-2.80078-2.80078s-2.80078,1.25391-2.80078,2.80078c0,1.5459,1.25488,2.80078,2.80078,2.80078s2.80078-1.25488,2.80078-2.80078z"/>
          <path style="fill:#0FF0FF;" d="M88.27539,60.00488c0-1.55322-1.25977-2.81348-2.81348-2.81348c-1.55273,0-2.81348,1.26025-2.81348,2.81348c0,1.55273,1.26074,2.81348,2.81348,2.81348c1.55371,0,2.81348-1.26074,2.81348-2.81348z"/>
          <path style="fill:#CF4629;" d="M49.66162,45.72461c0-2.69336-2.18604-4.87939-4.87939-4.87939s-4.87939,2.18604-4.87939,4.87939c0,2.69385,2.18604,4.87988,4.87939,4.87988s4.87939-2.18604,4.87939-4.87988z"/>
          <path style="fill:#0FF0FF;" d="M26.45752,125.64502c0-1.60938-1.30615-2.91504-2.91504-2.91504c-1.60938,0-2.91553,1.30566-2.91553,2.91504s1.30615,2.91504,2.91553,2.91504c1.60889,0,2.91504-1.30566,2.91504-2.91504z"/>
          <path d="M26.06885,124.36475c-0.02539,0.00879,0.00781,0.16797,0.07324,0.35449c0.06543,0.1875,0.13916,0.33301,0.16406,0.32422l2.37109-0.77148l-0.27344-0.7832l-2.33496,0.87598z"/>
          <path style="fill:#727272;" d="M58.88086,14.64502c0-2.08594-1.69287-3.77881-3.77832-3.77881c-2.08594,0-3.77881,1.69287-3.77881,3.77881c0,2.08545,1.69287,3.77832,3.77881,3.77832c2.08545,0,3.77832-1.69287,3.77832-3.77832z"/>
          <path d="M54.13379,12.19873c0.02979,0.09424,0.16016,0.13721,0.29053,0.0957c0.13037-0.04102,0.21191-0.15137,0.18164-0.24561l-0.12354-1.40381l-1.05518,0.33447l0.70654,1.21924z"/>
          <path style="fill:#727272;" d="M35.77246,122.64502c0-2.04785-1.66211-3.70996-3.70996-3.70996c-2.04834,0-3.71045,1.66211-3.71045,3.70996s1.66211,3.70996,3.71045,3.70996c2.04785,0,3.70996-1.66211,3.70996-3.70996z"/>
          <path d="M33.83447,123.15283c-0.09814-0.03809-0.21338,0.02344-0.25781,0.1377s-0.00049,0.2373,0.09766,0.27539l1.80908,1.10547l0.43311-1.11523l-2.08203-0.40332z"/>
          <path style="fill:#0FF0FF;" d="M101.77441,46.56494c0-1.65186-1.34082-2.99219-2.99219-2.99219s-2.99219,1.34033-2.99219,2.99219c0,1.65137,1.34082,2.9917,2.99219,2.9917s2.99219-1.34033,2.99219-2.9917z"/>
          <path style="fill:#727272;" d="M57.5791,114.84521c0-2.09668-1.70117-3.79688-3.79688-3.79688s-3.79688,1.7002-3.79688,3.79688c0,2.0957,1.70117,3.79688,3.79688,3.79688s3.79688-1.70117,3.79688-3.79688z"/>
          <path d="M57.23242,113.26318c-0.03027,0.01074,0.00049,0.1748,0.06836,0.36523c0.06738,0.19043,0.14697,0.33594,0.17725,0.3252l2.18604-0.70605l-0.29102-0.81738l-2.14062,0.83301z"/>
          <path d="M52.31934,116.99463c0.06641-0.07617,0.03467-0.21289-0.0708-0.30469c-0.10547-0.09277-0.24512-0.10449-0.31201-0.02832l-2.03076,1.84375l0.86865,0.75684l1.54492-2.26758z"/>
          <path style="fill:#0FF0FF;" d="M65.3457,111.84521c0-1.68066-1.36328-3.04395-3.04297-3.04395c-1.68066,0-3.04395,1.36328-3.04395,3.04395c0,1.67969,1.36328,3.04297,3.04395,3.04297c1.67969,0,3.04297-1.36328,3.04297-3.04297z"/>
          <path style="fill:#0FF0FF;" d="M56.37695,8.76465c0-1.69678-1.37744-3.07422-3.07471-3.07422s-3.07471,1.37744-3.07471,3.07422c0,1.69727,1.37744,3.07471,3.07471,3.07471s3.07471-1.37744,3.07471-3.07471z"/>
          <path style="fill:#727272;" d="M41.57275,124.80518c0-2.20312-1.7876-3.99023-3.99023-3.99023s-3.99072,1.78711-3.99072,3.99023c0,2.20215,1.78809,3.99023,3.99072,3.99023s3.99023-1.78809,3.99023-3.99023z"/>
          <path d="M41.16113,123.15869c-0.02637,0.00879,0.01074,0.18164,0.08301,0.38477c0.07227,0.2041,0.15234,0.36133,0.17871,0.35254l3.51953-1.18652l-0.30127-0.84863l-3.47998,1.29785z"/>
          <path d="M35.95752,127.05322c0.07178-0.0791,0.04053-0.22363-0.06885-0.32129c-0.10938-0.09863-0.25586-0.11328-0.32715-0.0332l-1.09717,0.72852l0.88818,0.79688l0.60498-1.1709z"/>
          <path style="fill:#727272;" d="M52.53418,120.96436c0-2.22559-1.80615-4.03125-4.03174-4.03125c-2.22607,0-4.03223,1.80566-4.03223,4.03125c0,2.22656,1.80615,4.03223,4.03223,4.03223c2.22559,0,4.03174-1.80566,4.03174-4.03223z"/>
          <path d="M50.55957,121.4585c-0.10693-0.04004-0.23145,0.02832-0.27832,0.15332c-0.04688,0.12402,0.00195,0.25781,0.10889,0.29785l0.71191,0.68848l0.44629-1.18945l-0.98877,0.0498z"/>
          <path style="fill:#0FF0FF;" d="M36.68945,129.48486c0-1.8252-1.48145-3.30762-3.30713-3.30762s-3.30713,1.48242-3.30713,3.30762s1.48145,3.30762,3.30713,3.30762s3.30713-1.48242,3.30713-3.30762z"/>
          <path style="fill:#0FF0FF;" d="M56.18604,122.5249c0-1.85742-1.50684-3.36426-3.36377-3.36426s-3.36377,1.50684-3.36377,3.36426c0,1.85645,1.50684,3.36426,3.36377,3.36426s3.36377-1.50781,3.36377-3.36426z"/>
        </g>
      </g>
    </g>
  </g>
</svg>