<?xml version="1.0" encoding="UTF-8" standalone="no"?>
<svg
   xmlns:dc="http://purl.org/dc/elements/1.1/"
   xmlns:cc="http://creativecommons.org/ns#"
   xmlns:rdf="http://www.w3.org/1999/02/22-rdf-syntax-ns#"
   xmlns:svg="http://www.w3.org/2000/svg"
   xmlns="http://www.w3.org/2000/svg"
   xmlns:sodipodi="http://sodipodi.sourceforge.net/DTD/sodipodi-0.dtd"
   xmlns:inkscape="http://www.inkscape.org/namespaces/inkscape"
   viewBox="0 0 256 256"
   id="svg3093"
   version="1.1"
   inkscape:version="0.48.2 r9819"
   width="256"
   height="256"
   sodipodi:docname="SVG_logo.svg">
  <metadata
     id="metadata3145">
    <rdf:RDF>
      <cc:Work
         rdf:about="">
        <dc:format>image/svg+xml</dc:format>
        <dc:type
           rdf:resource="http://purl.org/dc/dcmitype/StillImage" />
      </cc:Work>
    </rdf:RDF>
  </metadata>
  <defs
     id="defs3143" />
  <sodipodi:namedview
     pagecolor="#ffffff"
     bordercolor="#666666"
     borderopacity="1"
     objecttolerance="3"
     gridtolerance="3"
     guidetolerance="3"
     inkscape:pageopacity="0"
     inkscape:pageshadow="2"
     inkscape:window-width="1366"
     inkscape:window-height="744"
     id="namedview3141"
     showgrid="false"
     inkscape:zoom="1.1660156"
     inkscape:cx="128"
     inkscape:cy="128"
     inkscape:window-x="0"
     inkscape:window-y="24"
     inkscape:window-maximized="1"
     inkscape:current-layer="svg3093" />
  <title
     id="title3095">SVG logo</title>
  <rect
     fill="#F90"
     width="255.993"
     height="256"
     id="rect3097" />
  <rect
     x="127.991"
     y="128.005"
     fill="#DE8500"
     width="128.002"
     height="127.604"
     id="rect3099" />
  <rect
     fill="#FFB13B"
     width="128.002"
     height="128.005"
     id="rect3101" />
  <circle
     fill="#F90"
     cx="47.419"
     cy="127.806"
     r="47.031"
     id="circle3103" />
  <circle
     fill="#F90"
     cx="71.079"
     cy="70.694"
     r="47.031"
     id="circle3105" />
  <path
     fill="#F90"
     d="M128.194,0c25.972,0,47.03,21.059,47.03,47.034c0,25.973-21.059,47.031-47.03,47.031c-25.976,0-47.031-21.059-47.031-47.031C81.163,21.059,102.219,0,128.194,0z"
     id="path3107" />
  <path
     fill="#F90"
     d="M218.565,103.947c-18.368,18.361-48.147,18.361-66.516,0c-18.365-18.369-18.365-48.151,0-66.513c18.368-18.361,48.147-18.361,66.516,0C236.935,55.796,236.935,85.578,218.565,103.947z"
     id="path3109" />
  <path
     fill="#F90"
     d="M208.962,80.775c25.976,0,47.038,21.055,47.038,47.03s-21.063,47.031-47.038,47.031c-25.969,0-47.03-21.056-47.03-47.031S182.993,80.775,208.962,80.775z"
     id="path3111" />
  <circle
     fill="#F90"
     cx="185.308"
     cy="184.924"
     r="47.033"
     id="circle3113" />
  <path
     fill="#F90"
     d="M81.163,208.577c0-25.969,21.056-47.03,47.031-47.03c25.972,0,47.03,21.062,47.03,47.03c0,25.976-21.059,47.038-47.03,47.038C102.219,255.615,81.163,234.56,81.163,208.577z"
     id="path3115" />
  <path
     fill="#F90"
     d="M37.819,151.668c18.365-18.368,48.144-18.368,66.513,0c18.364,18.365,18.364,48.145,0,66.513c-18.369,18.368-48.147,18.368-66.513,0C19.458,199.813,19.458,170.033,37.819,151.668z"
     id="path3117" />
  <path
     d="M161.653,47.027c0-18.472-14.984-33.459-33.459-33.459c-18.472,0-33.459,14.987-33.459,33.459c-13.067-13.057-34.253-13.057-47.323,0c-13.057,13.067-13.057,34.256,0,47.319c-18.472,0-33.459,14.987-33.459,33.459s14.987,33.459,33.459,33.459c-13.057,13.07-13.057,34.256,0,47.323c13.07,13.06,34.256,13.06,47.323,0c0,18.472,14.987,33.459,33.459,33.459c18.475,0,33.459-14.987,33.459-33.459c13.07,13.06,34.252,13.06,47.319,0c13.057-13.067,13.057-34.253,0-47.323c18.475,0,33.445-14.987,33.445-33.459s-14.974-33.459-33.445-33.459c13.057-13.063,13.057-34.252,0-47.319C195.905,33.971,174.72,33.971,161.653,47.027z"
     id="path3119" />
  <path
     fill="#FFF"
     d="M140.993,59.844V96.89l26.202-26.202c0-4.632,1.77-9.264,5.302-12.803c7.081-7.071,18.551-7.071,25.614,0c7.078,7.071,7.078,18.544,0,25.618c-3.532,3.532-8.17,5.299-12.802,5.299l-26.199,26.205h37.043c3.281-3.281,7.81-5.309,12.815-5.309c9.995,0,18.107,8.116,18.107,18.107c0,10.002-8.108,18.118-18.107,18.118c-5.006,0-9.534-2.038-12.815-5.315H159.11l26.199,26.202c4.632,0,9.263,1.766,12.802,5.302c7.078,7.074,7.078,18.547,0,25.614c-7.061,7.078-18.54,7.078-25.614,0c-3.532-3.532-5.302-8.17-5.302-12.802l-26.202-26.202v37.053c3.281,3.274,5.315,7.807,5.315,12.813c0,10.002-8.116,18.104-18.114,18.104c-10.002,0-18.111-8.102-18.111-18.104c0-5.006,2.027-9.538,5.309-12.813v-37.053l-26.198,26.202c0,4.635-1.767,9.27-5.302,12.802c-7.071,7.078-18.544,7.078-25.615,0c-7.078-7.067-7.078-18.54,0-25.614c3.536-3.536,8.174-5.302,12.803-5.302l26.198-26.202H60.229c-3.278,3.277-7.811,5.315-12.816,5.315c-9.998,0-18.107-8.116-18.107-18.118c0-9.991,8.109-18.107,18.107-18.107c5.006,0,9.538,2.027,12.816,5.309h37.049L71.079,88.802c-4.636,0-9.267-1.767-12.803-5.299c-7.078-7.078-7.078-18.547,0-25.618c7.071-7.071,18.544-7.071,25.615,0c3.535,3.539,5.302,8.174,5.302,12.803l26.198,26.202V59.844c-3.281-3.278-5.309-7.811-5.309-12.816c0-9.995,8.116-18.107,18.111-18.107s18.114,8.109,18.114,18.107C146.309,52.033,144.274,56.565,140.993,59.844z"
     id="path3121" />
  <rect
     x="13.964"
     y="127.998"
     width="228.44"
     height="114.035"
     id="rect3123" />
  <rect
     x="13.964"
     y="191.989"
     width="228.44"
     height="50.044"
     id="rect3125" />
  <path
     fill="#3F3F3F"
     d="M37.908,138.581h182.417c7.47,0,13.578,6.099,13.578,13.579v45.794c-70.498-8.721-140.392-20.781-209.577-19.668V152.16C24.326,144.68,30.432,138.581,37.908,138.581z"
     id="path3127" />
  <polygon
     fill="#FFF"
     points="157.822,135.502 136.735,237.356 119.254,237.356 98.157,135.502 115.636,135.502 127.991,195.16 140.344,135.502 "
     id="polygon3129" />
  <polygon
     fill="none"
     stroke="#000000"
     stroke-width="0.5035"
     points="157.822,135.502 136.735,237.356 119.254,237.356 98.157,135.502 115.636,135.502 127.991,195.16 140.344,135.502 "
     id="polygon3131" />
  <path
     fill="#FFF"
     d="M187.663,177.688h29.838v29.831c0,16.481-13.363,29.837-29.828,29.837c-16.485,0-29.844-13.358-29.844-29.837v-42.19h-0.007c0-16.468,13.362-29.827,29.837-29.827c16.476,0,29.838,13.359,29.838,29.827h-17.482c0-6.816-5.535-12.345-12.355-12.345c-6.827,0-12.352,5.524-12.352,12.345v42.19c0,6.816,5.531,12.358,12.352,12.358s12.355-5.542,12.355-12.352v-0.007v-12.349h-12.355v-17.482H187.663z"
     id="path3133" />
  <path
     fill="none"
     stroke="#000000"
     stroke-width="0.5035"
     d="M187.663,177.688h29.838v29.831c0,16.481-13.363,29.837-29.828,29.837c-16.485,0-29.844-13.358-29.844-29.837v-42.19h-0.007c0-16.468,13.362-29.827,29.837-29.827c16.476,0,29.838,13.359,29.838,29.827h-17.482c0-6.816-5.535-12.345-12.355-12.345c-6.827,0-12.352,5.524-12.352,12.345v42.19c0,6.816,5.531,12.358,12.352,12.358s12.355-5.542,12.355-12.352v-0.007v-12.349h-12.355v-17.482H187.663z"
     id="path3135" />
  <path
     fill="#FFF"
     d="M47.227,186.423c-5.395-5.405-8.744-12.857-8.744-21.097c0-16.479,13.362-29.831,29.837-29.831c16.469,0,29.831,13.353,29.831,29.831H80.679c0-6.824-5.539-12.355-12.359-12.355s-12.355,5.531-12.355,12.355c0,3.412,1.378,6.487,3.608,8.728h0.01c2.24,2.24,5.329,3.621,8.737,3.621v0.011c8.243,0,15.699,3.332,21.094,8.737c5.404,5.401,8.744,12.864,8.744,21.097c0,16.472-13.362,29.834-29.834,29.834c-16.476,0-29.834-13.362-29.834-29.834h17.479c0,6.83,5.535,12.358,12.355,12.358c6.827,0,12.362-5.531,12.362-12.358c0-3.405-1.381-6.494-3.625-8.731c-2.236-2.229-5.329-3.624-8.741-3.624c-8.235,0-15.695-3.34-21.1-8.734v-0.007H47.227z"
     id="path3137" />
  <path
     fill="none"
     stroke="#000000"
     stroke-width="0.5035"
     d="M47.227,186.423c-5.395-5.405-8.744-12.857-8.744-21.097c0-16.479,13.362-29.831,29.837-29.831c16.469,0,29.831,13.353,29.831,29.831H80.679c0-6.824-5.539-12.355-12.359-12.355s-12.355,5.531-12.355,12.355c0,3.412,1.378,6.487,3.608,8.728h0.01c2.24,2.24,5.329,3.621,8.737,3.621v0.011c8.243,0,15.699,3.332,21.094,8.737c5.404,5.401,8.744,12.864,8.744,21.097c0,16.472-13.362,29.834-29.834,29.834c-16.476,0-29.834-13.362-29.834-29.834h17.479c0,6.83,5.535,12.358,12.355,12.358c6.827,0,12.362-5.531,12.362-12.358c0-3.405-1.381-6.494-3.625-8.731c-2.236-2.229-5.329-3.624-8.741-3.624c-8.235,0-15.695-3.34-21.1-8.734v-0.007H47.227z"
     id="path3139" />
</svg>
