<?xml version="1.0" encoding="UTF-8" standalone="no"?>
<!-- Created with Inkscape (http://www.inkscape.org/) -->

<svg
   xmlns:dc="http://purl.org/dc/elements/1.1/"
   xmlns:cc="http://creativecommons.org/ns#"
   xmlns:rdf="http://www.w3.org/1999/02/22-rdf-syntax-ns#"
   xmlns:svg="http://www.w3.org/2000/svg"
   xmlns="http://www.w3.org/2000/svg"
   xmlns:sodipodi="http://sodipodi.sourceforge.net/DTD/sodipodi-0.dtd"
   xmlns:inkscape="http://www.inkscape.org/namespaces/inkscape"
   width="300"
   height="300"
   id="svg2"
   version="1.1"
   inkscape:version="0.48.2 r9819"
   sodipodi:docname="xxAB.svg">
  <defs
     id="defs4" />
  <sodipodi:namedview
     id="base"
     pagecolor="#ffffff"
     bordercolor="#666666"
     borderopacity="1.0"
     inkscape:pageopacity="0.0"
     inkscape:pageshadow="2"
     inkscape:zoom="0.9063611"
     inkscape:cx="32.117565"
     inkscape:cy="183.25371"
     inkscape:document-units="px"
     inkscape:current-layer="layer1"
     showgrid="false"
     inkscape:window-width="1366"
     inkscape:window-height="744"
     inkscape:window-x="0"
     inkscape:window-y="24"
     inkscape:window-maximized="1" />
  <metadata
     id="metadata7">
    <rdf:RDF>
      <cc:Work
         rdf:about="">
        <dc:format>image/svg+xml</dc:format>
        <dc:type
           rdf:resource="http://purl.org/dc/dcmitype/StillImage" />
        <dc:title />
      </cc:Work>
    </rdf:RDF>
  </metadata>
  <!--
  <g
     inkscape:label="Layer 1"
     inkscape:groupmode="layer"
     id="layer1"
     transform="translate(0,-752.36218)">
	-->
  <g
     inkscape:label="Layer 1"
     inkscape:groupmode="layer"
     id="layer1"
     transform="translate(10,10)">
    <!--
    <path
       inkscape:connector-curvature="0"
       id="path3766"
       style="font-size:13px;font-style:normal;font-variant:normal;font-weight:normal;font-stretch:normal;text-align:start;line-height:129.99999523%;letter-spacing:0px;word-spacing:0px;writing-mode:lr-tb;text-anchor:start;opacity:0.29583333;fill:#000000;fill-opacity:1;stroke:none;font-family:Adobe Caslon Pro;-inkscape-font-specification:Adobe Caslon Pro"
       d="m 76.65696,119.85596 c 0.06548,0.18777 0.15551,0.45933 0.270108,0.81465 0.114584,0.35533 0.224842,0.70777 0.330773,1.05732 0.105918,0.34955 0.17862,0.60955 0.218108,0.77999 0.04631,0.17983 0.03818,0.30767 -0.02437,0.3835 -0.06257,0.0758 -0.184442,0.11266 -0.365621,0.1105 l -0.324996,0 c -0.03901,-0.001 -0.06826,0.004 -0.08775,0.0162 -0.0195,0.0119 -0.02926,0.0368 -0.02925,0.0747 l 0,0.299 c 0.0022,0.078 0.03683,0.117 0.103999,0.117 0.13975,-0.002 0.347753,-0.008 0.624008,-0.0195 0.276242,-0.0114 0.679238,-0.0179 1.20899,-0.0195 0.511049,0.002 0.87342,0.008 1.087114,0.0195 0.213676,0.0114 0.371299,0.0179 0.47287,0.0195 0.0888,0.002 0.132125,-0.0282 0.129972,-0.091 l 0,-0.325 c 5.32e-4,-0.0265 -0.0071,-0.0482 -0.02275,-0.065 -0.01572,-0.0168 -0.0428,-0.0255 -0.08125,-0.026 l -0.428995,0 c -0.165215,0.002 -0.325546,-0.0414 -0.480994,-0.13163 -0.155464,-0.0902 -0.289796,-0.24131 -0.402994,-0.45337 -0.06814,-0.14693 -0.187543,-0.45684 -0.358218,-0.92973 -0.170691,-0.47288 -0.347874,-0.98116 -0.531549,-1.52483 -0.18369,-0.54366 -0.329095,-0.99512 -0.436216,-1.35439 -0.09181,-0.30308 -0.240424,-0.76 -0.445847,-1.37076 -0.205435,-0.61074 -0.410864,-1.22077 -0.616288,-1.83009 -0.205435,-0.60929 -0.35405,-1.06332 -0.445846,-1.36209 -0.01815,-0.0718 -0.03711,-0.12647 -0.05688,-0.16412 -0.01977,-0.0376 -0.04848,-0.0566 -0.08612,-0.0569 -0.03142,8.3e-4 -0.05959,0.0122 -0.0845,0.0341 -0.02492,0.022 -0.05309,0.0496 -0.0845,0.0829 -0.08477,0.10184 -0.236981,0.22318 -0.45662,0.364 -0.219647,0.14084 -0.427102,0.23617 -0.622366,0.28599 -0.04469,0.0138 -0.07557,0.0317 -0.09262,0.0536 -0.01707,0.0219 -0.02519,0.0431 -0.02437,0.0634 0.0014,0.0266 0.01164,0.0547 0.03087,0.0845 0.01923,0.0298 0.03927,0.058 0.06012,0.0845 0.0417,0.0729 0.05579,0.14815 0.04225,0.22587 -0.01355,0.0777 -0.03196,0.14978 -0.05525,0.21612 -0.05072,0.14775 -0.170285,0.47483 -0.358699,0.98125 -0.188421,0.50644 -0.375394,1.00782 -0.560919,1.50413 -0.185531,0.49633 -0.299319,0.80319 -0.341365,0.92058 -0.134495,0.37716 -0.306061,0.83761 -0.514697,1.38135 -0.208642,0.54375 -0.401392,1.03983 -0.578252,1.48824 -0.176864,0.44842 -0.284875,0.71821 -0.324033,0.80936 -0.08667,0.20692 -0.186332,0.35858 -0.298996,0.455 -0.112666,0.0964 -0.264331,0.14408 -0.454994,0.143 l -0.454995,0 c -0.02708,-2.7e-4 -0.05092,0.007 -0.0715,0.0211 -0.02058,0.0144 -0.03142,0.0376 -0.0325,0.0699 l 0,0.312 c -2.71e-4,0.0385 0.0068,0.0655 0.02113,0.0812 0.01435,0.0157 0.03764,0.0233 0.06987,0.0228 0.07935,-0.002 0.219643,-0.008 0.42087,-0.0195 0.201227,-0.0114 0.533265,-0.0179 0.996116,-0.0195 0.385931,0.002 0.706052,0.008 0.960364,0.0195 0.254308,0.0114 0.428181,0.0179 0.52162,0.0195 0.03276,8.1e-4 0.05822,-0.007 0.07637,-0.0244 0.01814,-0.0171 0.02735,-0.0479 0.02762,-0.0926 l 0,-0.299 c 0.0022,-0.0628 -0.04117,-0.0932 -0.129998,-0.091 l -0.610992,0 c -0.143543,-5.5e-4 -0.252958,-0.0255 -0.328247,-0.0747 -0.07529,-0.0493 -0.113208,-0.11971 -0.113748,-0.21125 8.11e-4,-0.0347 0.0057,-0.0791 0.01462,-0.13325 0.0089,-0.0542 0.01706,-0.10508 0.02438,-0.15275 0.02929,-0.1117 0.107928,-0.35051 0.235922,-0.71643 0.12799,-0.36592 0.259594,-0.73473 0.39481,-1.10643 0.135212,-0.3717 0.228297,-0.62207 0.279256,-0.7511 z m -3.028961,-0.468 c 0.04461,-0.14636 0.173488,-0.51228 0.386624,-1.09776 0.21313,-0.58547 0.424818,-1.16228 0.635066,-1.73042 0.21024,-0.56814 0.333337,-0.89939 0.369292,-0.99377 0.01977,-0.0536 0.04197,-0.0991 0.06662,-0.1365 0.02464,-0.0374 0.0501,-0.0569 0.07637,-0.0585 0.01895,0.002 0.03629,0.0209 0.052,0.0569 0.0157,0.036 0.03304,0.0777 0.052,0.12512 0.03354,0.10152 0.141228,0.43294 0.323069,0.99425 0.181832,0.56132 0.366558,1.13348 0.554179,1.71646 0.187609,0.58299 0.306854,0.95774 0.357736,1.12424 z"
       transform="matrix(15.529548,0,0,15.529548,-1084.3185,-944.56001)" /> -->
    <!--
    <path
       inkscape:connector-curvature="0"
       id="path3766"
       style="font-size:13px;font-style:normal;font-variant:normal;font-weight:normal;font-stretch:normal;text-align:start;line-height:129.99999523%;letter-spacing:0px;word-spacing:0px;writing-mode:lr-tb;text-anchor:start;opacity:0.29583333;fill:#000000;fill-opacity:1;stroke:none;font-family:Adobe Caslon Pro;-inkscape-font-specification:Adobe Caslon Pro"
       d="m 76.65696,119.85596 c 0.06548,0.18777 0.15551,0.45933 0.270108,0.81465 0.114584,0.35533 0.224842,0.70777 0.330773,1.05732 0.105918,0.34955 0.17862,0.60955 0.218108,0.77999 0.04631,0.17983 0.03818,0.30767 -0.02437,0.3835 -0.06257,0.0758 -0.184442,0.11266 -0.365621,0.1105 l -0.324996,0 c -0.03901,-0.001 -0.06826,0.004 -0.08775,0.0162 -0.0195,0.0119 -0.02926,0.0368 -0.02925,0.0747 l 0,0.299 c 0.0022,0.078 0.03683,0.117 0.103999,0.117 0.13975,-0.002 0.347753,-0.008 0.624008,-0.0195 0.276242,-0.0114 0.679238,-0.0179 1.20899,-0.0195 0.511049,0.002 0.87342,0.008 1.087114,0.0195 0.213676,0.0114 0.371299,0.0179 0.47287,0.0195 0.0888,0.002 0.132125,-0.0282 0.129972,-0.091 l 0,-0.325 c 5.32e-4,-0.0265 -0.0071,-0.0482 -0.02275,-0.065 -0.01572,-0.0168 -0.0428,-0.0255 -0.08125,-0.026 l -0.428995,0 c -0.165215,0.002 -0.325546,-0.0414 -0.480994,-0.13163 -0.155464,-0.0902 -0.289796,-0.24131 -0.402994,-0.45337 -0.06814,-0.14693 -0.187543,-0.45684 -0.358218,-0.92973 -0.170691,-0.47288 -0.347874,-0.98116 -0.531549,-1.52483 -0.18369,-0.54366 -0.329095,-0.99512 -0.436216,-1.35439 -0.09181,-0.30308 -0.240424,-0.76 -0.445847,-1.37076 -0.205435,-0.61074 -0.410864,-1.22077 -0.616288,-1.83009 -0.205435,-0.60929 -0.35405,-1.06332 -0.445846,-1.36209 -0.01815,-0.0718 -0.03711,-0.12647 -0.05688,-0.16412 -0.01977,-0.0376 -0.04848,-0.0566 -0.08612,-0.0569 -0.03142,8.3e-4 -0.05959,0.0122 -0.0845,0.0341 -0.02492,0.022 -0.05309,0.0496 -0.0845,0.0829 -0.08477,0.10184 -0.236981,0.22318 -0.45662,0.364 -0.219647,0.14084 -0.427102,0.23617 -0.622366,0.28599 -0.04469,0.0138 -0.07557,0.0317 -0.09262,0.0536 -0.01707,0.0219 -0.02519,0.0431 -0.02437,0.0634 0.0014,0.0266 0.01164,0.0547 0.03087,0.0845 0.01923,0.0298 0.03927,0.058 0.06012,0.0845 0.0417,0.0729 0.05579,0.14815 0.04225,0.22587 -0.01355,0.0777 -0.03196,0.14978 -0.05525,0.21612 -0.05072,0.14775 -0.170285,0.47483 -0.358699,0.98125 -0.188421,0.50644 -0.375394,1.00782 -0.560919,1.50413 -0.185531,0.49633 -0.299319,0.80319 -0.341365,0.92058 -0.134495,0.37716 -0.306061,0.83761 -0.514697,1.38135 -0.208642,0.54375 -0.401392,1.03983 -0.578252,1.48824 -0.176864,0.44842 -0.284875,0.71821 -0.324033,0.80936 -0.08667,0.20692 -0.186332,0.35858 -0.298996,0.455 -0.112666,0.0964 -0.264331,0.14408 -0.454994,0.143 l -0.454995,0 c -0.02708,-2.7e-4 -0.05092,0.007 -0.0715,0.0211 -0.02058,0.0144 -0.03142,0.0376 -0.0325,0.0699 l 0,0.312 c -2.71e-4,0.0385 0.0068,0.0655 0.02113,0.0812 0.01435,0.0157 0.03764,0.0233 0.06987,0.0228 0.07935,-0.002 0.219643,-0.008 0.42087,-0.0195 0.201227,-0.0114 0.533265,-0.0179 0.996116,-0.0195 0.385931,0.002 0.706052,0.008 0.960364,0.0195 0.254308,0.0114 0.428181,0.0179 0.52162,0.0195 0.03276,8.1e-4 0.05822,-0.007 0.07637,-0.0244 0.01814,-0.0171 0.02735,-0.0479 0.02762,-0.0926 l 0,-0.299 c 0.0022,-0.0628 -0.04117,-0.0932 -0.129998,-0.091 l -0.610992,0 c -0.143543,-5.5e-4 -0.252958,-0.0255 -0.328247,-0.0747 -0.07529,-0.0493 -0.113208,-0.11971 -0.113748,-0.21125 8.11e-4,-0.0347 0.0057,-0.0791 0.01462,-0.13325 0.0089,-0.0542 0.01706,-0.10508 0.02438,-0.15275 0.02929,-0.1117 0.107928,-0.35051 0.235922,-0.71643 0.12799,-0.36592 0.259594,-0.73473 0.39481,-1.10643 0.135212,-0.3717 0.228297,-0.62207 0.279256,-0.7511 z m -3.028961,-0.468 c 0.04461,-0.14636 0.173488,-0.51228 0.386624,-1.09776 0.21313,-0.58547 0.424818,-1.16228 0.635066,-1.73042 0.21024,-0.56814 0.333337,-0.89939 0.369292,-0.99377 0.01977,-0.0536 0.04197,-0.0991 0.06662,-0.1365 0.02464,-0.0374 0.0501,-0.0569 0.07637,-0.0585 0.01895,0.002 0.03629,0.0209 0.052,0.0569 0.0157,0.036 0.03304,0.0777 0.052,0.12512 0.03354,0.10152 0.141228,0.43294 0.323069,0.99425 0.181832,0.56132 0.366558,1.13348 0.554179,1.71646 0.187609,0.58299 0.306854,0.95774 0.357736,1.12424 z"
       transform="matrix(21.961315,0,0,21.961315,-1521.167,-2468.6473)" />
		-->
    <!--
    <path
       inkscape:connector-curvature="0"
       id="path3768"
       style="font-size:13px;font-style:normal;font-variant:normal;font-weight:normal;font-stretch:normal;text-align:start;line-height:129.99999523%;letter-spacing:0px;word-spacing:0px;writing-mode:lr-tb;text-anchor:start;opacity:0.29583333;fill:#000000;fill-opacity:1;stroke:none;font-family:Adobe Caslon Pro;-inkscape-font-specification:Adobe Caslon Pro"
       d="m 82.054452,119.34896 c -8.2e-5,0.36809 -0.0028,0.77013 -0.0082,1.2061 -0.0054,0.43598 -0.01292,0.82934 -0.02263,1.18009 -0.0097,0.35076 -0.02111,0.58235 -0.03418,0.69477 -0.01923,0.20583 -0.06202,0.35317 -0.128373,0.442 -0.06636,0.0888 -0.196895,0.13216 -0.39162,0.13 l -0.623992,0 c -0.04469,-2.7e-4 -0.07556,0.007 -0.09262,0.0211 -0.01706,0.0144 -0.02519,0.0376 -0.02437,0.0699 l 0,0.338 c -0.0022,0.026 0.0087,0.0455 0.0325,0.0585 0.02383,0.013 0.07366,0.0195 0.149498,0.0195 0.136769,-0.002 0.363726,-0.008 0.680869,-0.0195 0.317142,-0.0114 0.644846,-0.0179 0.983116,-0.0195 0.264057,0.002 0.545179,0.008 0.843366,0.0195 0.298181,0.0114 0.667052,0.0179 1.106614,0.0195 0.592565,0.002 1.087638,-0.0341 1.48522,-0.10725 0.397571,-0.0731 0.73015,-0.19337 0.997736,-0.36074 0.303323,-0.20475 0.544903,-0.494 0.724741,-0.86774 0.179823,-0.37375 0.271905,-0.73449 0.276246,-1.08224 -0.0089,-0.68411 -0.202317,-1.23336 -0.580117,-1.64773 -0.377815,-0.41436 -0.886433,-0.72311 -1.525855,-0.92624 l -0.039,-0.026 c 0.509696,-0.24211 0.900773,-0.50536 1.173235,-0.78974 0.272448,-0.28436 0.410029,-0.73611 0.412745,-1.35523 0.0046,-0.38403 -0.06961,-0.72419 -0.222623,-1.02049 -0.153026,-0.29628 -0.41248,-0.54544 -0.778365,-0.74749 -0.231565,-0.12836 -0.545186,-0.21936 -0.940863,-0.27299 -0.395687,-0.0536 -0.849055,-0.0796 -1.360107,-0.078 -0.24185,0.002 -0.521886,0.008 -0.840107,0.0195 -0.318228,0.0114 -0.588516,0.0179 -0.810865,0.0195 -0.468539,-0.002 -0.847702,-0.008 -1.137489,-0.0195 -0.28979,-0.0114 -0.486954,-0.0179 -0.591494,-0.0195 -0.03846,-2.5e-4 -0.06554,0.007 -0.08125,0.0211 -0.01571,0.0144 -0.02329,0.0377 -0.02275,0.0699 l 0,0.32499 c -5.42e-4,0.0322 0.007,0.0555 0.02275,0.0699 0.01571,0.0144 0.04279,0.0214 0.08125,0.0211 l 0.402994,0 c 0.294391,-0.0146 0.505096,0.0211 0.632117,0.10725 0.127017,0.0861 0.197975,0.31038 0.212873,0.67274 0.0046,0.0932 0.0099,0.29106 0.01589,0.59366 0.006,0.30261 0.01131,0.61894 0.01589,0.94899 0.0046,0.33006 0.007,0.58283 0.0072,0.75832 z m 1.143985,-0.58499 0.415995,0 c 0.300888,-0.004 0.599343,0.007 0.895364,0.0325 0.296012,0.0255 0.578216,0.0883 0.846614,0.1885 0.389718,0.15004 0.702255,0.39595 0.937612,0.73774 0.235345,0.34179 0.356135,0.7762 0.362371,1.30323 -0.01896,0.76293 -0.231295,1.3008 -0.636992,1.61361 -0.405709,0.3128 -0.891035,0.46393 -1.455981,0.45336 -0.528935,0.003 -0.891305,-0.13595 -1.087112,-0.41599 -0.195813,-0.28004 -0.288436,-0.7177 -0.277871,-1.31298 l 0,-1.79398 z m 0,-1.40398 c 2.68e-4,-0.55872 0.003,-1.07275 0.0081,-1.54211 0.0051,-0.46934 0.0111,-0.77862 0.01787,-0.92786 0.0011,-0.0593 0.01841,-0.10968 0.052,-0.15112 0.03358,-0.0414 0.07691,-0.0691 0.129999,-0.0829 0.052,-0.0119 0.113745,-0.0173 0.185247,-0.0162 0.0715,0.001 0.152745,0.002 0.243747,0.003 0.335013,-0.002 0.656217,0.0312 0.963613,0.0991 0.307387,0.068 0.579841,0.18227 0.817364,0.34287 0.23697,0.17957 0.40326,0.38919 0.498868,0.62886 0.0956,0.2397 0.141639,0.48507 0.138124,0.73612 0.003,0.29007 -0.05174,0.57119 -0.164123,0.84336 -0.1124,0.27219 -0.300356,0.51107 -0.563868,0.71662 -0.15844,0.11077 -0.377812,0.19473 -0.658116,0.25187 -0.280314,0.0572 -0.606934,0.0859 -0.979863,0.0861 -0.10996,5.4e-4 -0.221542,-5.4e-4 -0.334745,-0.003 -0.11321,-0.003 -0.231292,-0.0103 -0.354246,-0.0228 z"
       transform="matrix(15.529548,0,0,15.529548,-1084.3185,-944.56001)" />
	-->
    <path
       inkscape:connector-curvature="0"
       id="path2998"
       style="font-size:13px;font-style:normal;font-variant:normal;font-weight:normal;font-stretch:normal;text-align:start;line-height:129.99999522999999613%;letter-spacing:0px;word-spacing:0px;writing-mode:lr-tb;text-anchor:start;fill:#ff0000;fill-opacity:1;stroke:none;font-family:Adobe Caslon Pro;-inkscape-font-specification:Adobe Caslon Pro;stroke-opacity:1;stroke-width:0.06142614000000000;stroke-miterlimit:4;stroke-dasharray:none"
       d="m 36.38603,134.19903 c 0.06547,0.18778 0.155511,0.45934 0.270108,0.81466 0.114585,0.35533 0.224842,0.70777 0.330773,1.05732 0.105918,0.34955 0.178621,0.60955 0.218109,0.77999 0.04631,0.17983 0.03818,0.30766 -0.02437,0.3835 -0.06257,0.0758 -0.184442,0.11266 -0.36562,0.11049 l -0.324996,0 c -0.03901,-0.001 -0.06826,0.004 -0.08775,0.0163 -0.01951,0.0119 -0.02926,0.0368 -0.02925,0.0747 l 0,0.299 c 0.0022,0.078 0.03683,0.117 0.103998,0.117 0.139751,-0.002 0.347753,-0.008 0.624009,-0.0195 0.276241,-0.0114 0.679238,-0.0179 1.208989,-0.0195 0.511049,0.002 0.87342,0.008 1.087115,0.0195 0.213676,0.0114 0.371299,0.0179 0.47287,0.0195 0.0888,0.002 0.132124,-0.0282 0.129972,-0.091 l 0,-0.325 c 5.32e-4,-0.0265 -0.0071,-0.0482 -0.02275,-0.065 -0.01572,-0.0168 -0.0428,-0.0255 -0.08125,-0.026 l -0.428994,0 c -0.165215,0.002 -0.325546,-0.0414 -0.480994,-0.13162 -0.155465,-0.0902 -0.289796,-0.24131 -0.402995,-0.45337 -0.06814,-0.14693 -0.187543,-0.45684 -0.358218,-0.92973 -0.17069,-0.47288 -0.347873,-0.98116 -0.531548,-1.52483 -0.18369,-0.54366 -0.329096,-0.99512 -0.436217,-1.35439 -0.09181,-0.30308 -0.240423,-0.76 -0.445846,-1.37076 -0.205436,-0.61074 -0.410865,-1.22077 -0.616288,-1.83009 -0.205435,-0.6093 -0.35405,-1.06333 -0.445846,-1.36209 -0.01815,-0.0718 -0.03711,-0.12647 -0.05688,-0.16412 -0.01978,-0.0376 -0.04848,-0.0566 -0.08612,-0.0569 -0.03142,8.2e-4 -0.05959,0.0122 -0.0845,0.0341 -0.02492,0.0219 -0.05309,0.0496 -0.0845,0.0829 -0.08478,0.10184 -0.236982,0.22317 -0.45662,0.364 -0.219647,0.14084 -0.427103,0.23617 -0.622366,0.28599 -0.04469,0.0138 -0.07557,0.0317 -0.09262,0.0536 -0.01707,0.0219 -0.02519,0.0431 -0.02437,0.0634 0.0013,0.0266 0.01164,0.0547 0.03087,0.0845 0.01922,0.0298 0.03927,0.058 0.06012,0.0845 0.0417,0.0729 0.05579,0.14815 0.04225,0.22587 -0.01355,0.0777 -0.03196,0.14978 -0.05525,0.21612 -0.05072,0.14774 -0.170286,0.47483 -0.358699,0.98125 -0.188421,0.50644 -0.375394,1.00781 -0.560919,1.50413 -0.185531,0.49632 -0.29932,0.80318 -0.341366,0.92058 -0.134494,0.37716 -0.30606,0.83761 -0.514697,1.38135 -0.208641,0.54375 -0.401391,1.03983 -0.578252,1.48824 -0.176863,0.44842 -0.284874,0.7182 -0.324032,0.80936 -0.08667,0.20692 -0.186332,0.35858 -0.298997,0.455 -0.112666,0.0964 -0.26433,0.14408 -0.454994,0.14299 l -0.454994,0 c -0.02708,-2.7e-4 -0.05092,0.007 -0.0715,0.0211 -0.02058,0.0144 -0.03142,0.0377 -0.0325,0.0699 l 0,0.312 c -2.7e-4,0.0385 0.0068,0.0655 0.02113,0.0813 0.01435,0.0157 0.03765,0.0233 0.06987,0.0228 0.07935,-0.002 0.219644,-0.008 0.420871,-0.0195 0.201227,-0.0114 0.533265,-0.0179 0.996115,-0.0195 0.385932,0.002 0.706053,0.008 0.960365,0.0195 0.254307,0.0114 0.42818,0.0179 0.52162,0.0195 0.03276,8.1e-4 0.05822,-0.007 0.07637,-0.0244 0.01814,-0.0171 0.02735,-0.0479 0.02762,-0.0926 l 0,-0.299 c 0.0022,-0.0628 -0.04117,-0.0932 -0.129999,-0.091 l -0.610992,0 c -0.143542,-5.4e-4 -0.252957,-0.0255 -0.328246,-0.0747 -0.07529,-0.0493 -0.113209,-0.11971 -0.113748,-0.21125 8.11e-4,-0.0347 0.0057,-0.0791 0.01463,-0.13325 0.0089,-0.0542 0.01706,-0.10508 0.02437,-0.15275 0.02929,-0.1117 0.107929,-0.35051 0.235923,-0.71643 0.12799,-0.36592 0.259593,-0.73473 0.39481,-1.10643 0.135211,-0.3717 0.228297,-0.62207 0.279256,-0.75111 z m -3.028961,-0.46799 c 0.04461,-0.14636 0.173489,-0.51228 0.386625,-1.09776 0.21313,-0.58547 0.424818,-1.16228 0.635066,-1.73043 0.21024,-0.56813 0.333337,-0.89938 0.369292,-0.99376 0.01977,-0.0536 0.04197,-0.0991 0.06662,-0.1365 0.02464,-0.0374 0.0501,-0.0569 0.07637,-0.0585 0.01895,0.002 0.03629,0.0209 0.052,0.0569 0.0157,0.036 0.03304,0.0777 0.052,0.12512 0.03354,0.10152 0.141228,0.43293 0.32307,0.99425 0.181832,0.56132 0.366558,1.13348 0.554178,1.71646 0.18761,0.58299 0.306855,0.95773 0.357737,1.12424 z"
       transform="matrix(16.279715,0,0,16.279715,-496.01913,-2042.4735)" />
    <path
       inkscape:connector-curvature="0"
       id="path3000"
       style="font-size:13px;font-style:normal;font-variant:normal;font-weight:normal;font-stretch:normal;text-align:start;line-height:129.99999522999999613%;letter-spacing:0px;word-spacing:0px;writing-mode:lr-tb;text-anchor:start;fill:#ff0000;fill-opacity:1;stroke:none;font-family:Adobe Caslon Pro;-inkscape-font-specification:Adobe Caslon Pro;stroke-opacity:1;stroke-width:0.06142614000000000;stroke-miterlimit:4;stroke-dasharray:none"
       d="m 41.783523,133.69204 c -8.2e-5,0.36809 -0.0028,0.77012 -0.0082,1.2061 -0.0054,0.43597 -0.01292,0.82934 -0.02263,1.18009 -0.0097,0.35076 -0.02111,0.58235 -0.03418,0.69477 -0.01923,0.20583 -0.06202,0.35316 -0.128374,0.442 -0.06635,0.0888 -0.196894,0.13216 -0.39162,0.12999 l -0.623992,0 c -0.04469,-2.7e-4 -0.07556,0.007 -0.09262,0.0211 -0.01706,0.0144 -0.02519,0.0377 -0.02437,0.0699 l 0,0.338 c -0.0022,0.026 0.0087,0.0455 0.0325,0.0585 0.02383,0.013 0.07366,0.0195 0.149498,0.0195 0.13677,-0.002 0.363726,-0.008 0.68087,-0.0195 0.317141,-0.0114 0.644846,-0.0179 0.983115,-0.0195 0.264058,0.002 0.54518,0.008 0.843367,0.0195 0.298181,0.0114 0.667052,0.0179 1.106614,0.0195 0.592565,0.002 1.087638,-0.0341 1.48522,-0.10725 0.397571,-0.0731 0.730149,-0.19337 0.997736,-0.36075 0.303322,-0.20474 0.544902,-0.49399 0.724741,-0.86774 0.179823,-0.37374 0.271905,-0.73448 0.276246,-1.08223 -0.0089,-0.68411 -0.202317,-1.23336 -0.580118,-1.64773 -0.377814,-0.41437 -0.886432,-0.72311 -1.525855,-0.92624 l -0.039,-0.026 c 0.509695,-0.24211 0.900773,-0.50536 1.173234,-0.78974 0.272448,-0.28436 0.41003,-0.73611 0.412745,-1.35523 0.0046,-0.38403 -0.06961,-0.72419 -0.222622,-1.02049 -0.153026,-0.29628 -0.412481,-0.54544 -0.778365,-0.74749 -0.231566,-0.12836 -0.545186,-0.21936 -0.940863,-0.27299 -0.395687,-0.0536 -0.849056,-0.0796 -1.360107,-0.078 -0.24185,0.002 -0.521886,0.008 -0.840107,0.0195 -0.318228,0.0114 -0.588516,0.0179 -0.810866,0.0195 -0.468539,-0.002 -0.847701,-0.008 -1.137488,-0.0195 -0.28979,-0.0114 -0.486954,-0.0179 -0.591494,-0.0195 -0.03846,-2.5e-4 -0.06554,0.007 -0.08125,0.0212 -0.01571,0.0144 -0.02329,0.0377 -0.02275,0.0699 l 0,0.32499 c -5.42e-4,0.0322 0.007,0.0555 0.02275,0.0699 0.01571,0.0144 0.04279,0.0214 0.08125,0.0211 l 0.402995,0 c 0.294391,-0.0146 0.505096,0.0211 0.632117,0.10725 0.127017,0.0861 0.197975,0.31038 0.212872,0.67274 0.0046,0.0932 0.0099,0.29106 0.01589,0.59366 0.006,0.30261 0.01131,0.61894 0.01589,0.94899 0.0046,0.33005 0.007,0.58283 0.0072,0.75832 z m 1.143985,-0.58499 0.415995,0 c 0.300888,-0.004 0.599342,0.007 0.895363,0.0325 0.296013,0.0255 0.578217,0.0883 0.846614,0.1885 0.389719,0.15004 0.702256,0.39595 0.937613,0.73774 0.235345,0.34179 0.356135,0.7762 0.36237,1.30323 -0.01896,0.76293 -0.231294,1.3008 -0.636991,1.6136 -0.405709,0.31281 -0.891035,0.46394 -1.455982,0.45337 -0.528934,0.003 -0.891304,-0.13595 -1.087111,-0.41599 -0.195813,-0.28004 -0.288437,-0.7177 -0.277871,-1.31298 l 0,-1.79398 z m 0,-1.40398 c 2.68e-4,-0.55872 0.003,-1.07275 0.0081,-1.54211 0.0051,-0.46934 0.0111,-0.77863 0.01787,-0.92786 0.0011,-0.0593 0.01841,-0.10968 0.052,-0.15112 0.03358,-0.0414 0.07691,-0.0691 0.129998,-0.0829 0.052,-0.0119 0.113746,-0.0173 0.185248,-0.0162 0.0715,0.001 0.152744,0.002 0.243747,0.003 0.335012,-0.002 0.656216,0.0312 0.963612,0.0991 0.307387,0.068 0.579842,0.18227 0.817365,0.34287 0.23697,0.17956 0.403259,0.38919 0.498868,0.62886 0.0956,0.23969 0.141638,0.48507 0.138124,0.73612 0.003,0.29006 -0.05174,0.57119 -0.164123,0.84336 -0.1124,0.27219 -0.300356,0.51106 -0.563868,0.71662 -0.158441,0.11077 -0.377813,0.19473 -0.658117,0.25187 -0.280313,0.0572 -0.606933,0.0859 -0.979862,0.0861 -0.10996,5.5e-4 -0.221542,-5.3e-4 -0.334746,-0.003 -0.11321,-0.003 -0.231291,-0.0103 -0.354245,-0.0228 z"
       transform="matrix(16.279715,0,0,16.279715,-496.01913,-2042.4735)" />
  </g>
</svg>
