<?xml version="1.0" encoding="UTF-8" standalone="no"?>
<!-- Created with Inkscape (http://www.inkscape.org/) -->

<svg
   xmlns:dc="http://purl.org/dc/elements/1.1/"
   xmlns:cc="http://creativecommons.org/ns#"
   xmlns:rdf="http://www.w3.org/1999/02/22-rdf-syntax-ns#"
   xmlns:svg="http://www.w3.org/2000/svg"
   xmlns="http://www.w3.org/2000/svg"
   xmlns:sodipodi="http://sodipodi.sourceforge.net/DTD/sodipodi-0.dtd"
   xmlns:inkscape="http://www.inkscape.org/namespaces/inkscape"
   width="300"
   height="300"
   id="svg2"
   version="1.1"
   inkscape:version="0.48.2 r9819"
   sodipodi:docname="xxxAB.svg">
  <defs
     id="defs4" />
  <sodipodi:namedview
     id="base"
     pagecolor="#ffffff"
     bordercolor="#666666"
     borderopacity="1.0"
     inkscape:pageopacity="0.0"
     inkscape:pageshadow="2"
     inkscape:zoom="1.8127222"
     inkscape:cx="48.402213"
     inkscape:cy="163.36713"
     inkscape:document-units="px"
     inkscape:current-layer="svg2"
     showgrid="false"
     inkscape:window-width="1366"
     inkscape:window-height="744"
     inkscape:window-x="0"
     inkscape:window-y="24"
     inkscape:window-maximized="1" />
  <metadata
     id="metadata7">
    <rdf:RDF>
      <cc:Work
         rdf:about="">
        <dc:format>image/svg+xml</dc:format>
        <dc:type
           rdf:resource="http://purl.org/dc/dcmitype/StillImage" />
        <dc:title />
      </cc:Work>
    </rdf:RDF>
  </metadata>
  <path
     inkscape:connector-curvature="0"
     id="path2998"
     style="font-size:13px;font-style:normal;font-variant:normal;font-weight:normal;font-stretch:normal;text-align:start;line-height:129.99999523%;letter-spacing:0px;word-spacing:0px;writing-mode:lr-tb;text-anchor:start;fill:#ff0000;fill-opacity:1;stroke:none;font-family:Adobe Caslon Pro;-inkscape-font-specification:Adobe Caslon Pro"
     d="m 95.701618,193.26019 c 0.706513,2.02641 1.678181,4.95692 2.914844,8.79132 1.236533,3.83451 2.426358,7.63783 3.569508,11.40997 1.143,3.77213 1.92757,6.5779 2.3537,8.41719 0.49975,1.94061 0.41201,3.32008 -0.26299,4.1385 -0.67522,0.81799 -1.99039,1.21576 -3.94555,1.19234 l -3.507163,0 c -0.420973,-0.0108 -0.736622,0.0432 -0.946946,0.1759 -0.21054,0.12842 -0.315756,0.39712 -0.315649,0.80612 l 0,3.22663 c 0.02374,0.84173 0.397448,1.26259 1.122285,1.26259 1.508109,-0.0216 3.752743,-0.0863 6.733933,-0.21043 2.98103,-0.12302 7.32993,-0.19317 13.04669,-0.21043 5.51493,0.0216 9.42543,0.0863 11.73149,0.21043 2.30587,0.12302 4.00684,0.19317 5.10294,0.21043 0.95827,0.0216 1.4258,-0.30431 1.40258,-0.98201 l 0,-3.50721 c 0.006,-0.28597 -0.0766,-0.52015 -0.24551,-0.70144 -0.16964,-0.1813 -0.46187,-0.27518 -0.8768,-0.28058 l -4.62945,0 c -1.7829,0.0216 -3.5131,-0.44676 -5.1906,-1.42036 -1.67768,-0.97339 -3.1273,-2.60408 -4.34888,-4.8925 -0.73533,-1.58558 -2.02385,-4.92995 -3.86567,-10.03309 -1.84199,-5.10304 -3.75404,-10.5881 -5.73615,-16.45506 -1.98228,-5.86685 -3.55141,-10.73874 -4.7074,-14.61577 -0.99076,-3.27066 -2.5945,-8.20146 -4.8113,-14.79242 -2.216944,-6.59074 -4.433811,-13.17382 -6.650614,-19.74924 -2.216932,-6.5752 -3.820696,-11.47482 -4.811304,-14.69886 -0.195864,-0.77483 -0.400469,-1.36479 -0.613815,-1.77109 -0.213454,-0.40576 -0.523167,-0.61079 -0.929355,-0.61403 -0.339066,0.009 -0.64306,0.13166 -0.911874,0.36799 -0.268922,0.23633 -0.572916,0.53525 -0.911874,0.8946 -0.914895,1.099 -2.557368,2.40832 -4.92757,3.92808 -2.3703,1.51986 -4.609041,2.5486 -6.716203,3.08623 -0.482268,0.14892 -0.815506,0.34209 -0.9995,0.57842 -0.184209,0.23633 -0.271835,0.46511 -0.262986,0.68417 0.01403,0.28705 0.125612,0.59029 0.333131,0.91188 0.20741,0.32158 0.423778,0.6259 0.648779,0.91187 0.450001,0.78669 0.602052,1.59875 0.455936,2.43745 -0.146223,0.8385 -0.344893,1.61634 -0.596225,2.33224 -0.54734,1.59432 -1.837624,5.12408 -3.870865,10.58907 -2.033327,5.4652 -4.051028,10.87568 -6.053103,16.23167 -2.00214,5.35599 -3.230083,8.66744 -3.683819,9.93435 -1.451379,4.07009 -3.302817,9.03899 -5.554303,14.90671 -2.251529,5.86782 -4.331572,11.22122 -6.24015,16.06019 -1.9086,4.83909 -3.07419,7.75039 -3.49676,8.73413 -0.935291,2.23296 -2.010784,3.86959 -3.226597,4.91009 -1.215825,1.04029 -2.852492,1.55483 -4.910024,1.54307 l -4.910024,0 c -0.292231,-0.003 -0.549498,0.0755 -0.771585,0.22769 -0.222087,0.1554 -0.339066,0.40684 -0.350721,0.75432 l 0,3.36692 c -0.0029,0.41547 0.07338,0.70684 0.228022,0.87734 0.154857,0.16943 0.406297,0.25144 0.753996,0.24605 0.856298,-0.0216 2.370267,-0.0863 4.541788,-0.21044 2.171522,-0.12302 5.754678,-0.19316 10.749479,-0.21043 4.164748,0.0216 7.619303,0.0863 10.363686,0.21043 2.74433,0.12303 4.620664,0.19317 5.629012,0.21044 0.353527,0.009 0.628276,-0.0755 0.82414,-0.26331 0.195756,-0.18454 0.295145,-0.51691 0.298058,-0.99929 l 0,-3.22663 c 0.02374,-0.6777 -0.444282,-1.00576 -1.402871,-0.98202 l -6.593462,0 c -1.549019,-0.006 -2.729761,-0.27518 -3.542235,-0.80611 -0.812484,-0.53202 -1.221684,-1.29184 -1.2275,-2.27969 0.0088,-0.37446 0.06151,-0.8536 0.157878,-1.43795 0.09604,-0.5849 0.184101,-1.13396 0.262987,-1.64839 0.31608,-1.2054 1.164705,-3.78249 2.54594,-7.73128 1.381192,-3.94879 2.801373,-7.92877 4.260554,-11.93994 1.459116,-4.01116 2.463645,-6.713 3.013564,-8.10553 z m -32.686741,-5.05027 c 0.481405,-1.57943 1.87219,-5.52822 4.172227,-11.84637 2.299972,-6.31804 4.584382,-12.54263 6.853253,-18.67377 2.268785,-6.13092 3.597174,-9.70557 3.985179,-10.72407 0.213346,-0.57841 0.452915,-1.06942 0.718923,-1.47302 0.265901,-0.4036 0.54065,-0.61403 0.82414,-0.6313 0.204497,0.0216 0.39162,0.22554 0.561153,0.61403 0.169425,0.38849 0.356548,0.83849 0.561153,1.35022 0.361944,1.09555 1.524048,4.67192 3.486379,10.72936 1.962222,6.05743 3.955675,12.23184 5.980358,18.52301 2.024575,6.29128 3.311396,10.33525 3.860484,12.13212 z"
     sodipodi:nodetypes="ccccccccccccccccccccccccccccccccccccccccsscssccccccccccccccccccccccsccccssccccccccc" />
  <path
     inkscape:connector-curvature="0"
     id="path3000"
     style="font-size:13px;font-style:normal;font-variant:normal;font-weight:normal;font-stretch:normal;text-align:start;line-height:129.99999523%;letter-spacing:0px;word-spacing:0px;writing-mode:lr-tb;text-anchor:start;fill:#ff0000;fill-opacity:1;stroke:none;font-family:Adobe Caslon Pro;-inkscape-font-specification:Adobe Caslon Pro"
     d="m 153.94814,187.78905 c -8.8e-4,3.97221 -0.0302,8.31068 -0.0885,13.01552 -0.0583,4.70472 -0.13942,8.94974 -0.24421,12.73482 -0.10467,3.7852 -0.2278,6.28438 -0.36885,7.49755 -0.20752,2.22119 -0.66928,3.81109 -1.38533,4.7698 -0.71601,0.95827 -2.12477,1.42619 -4.22613,1.40277 l -6.73375,0 c -0.48227,-0.003 -0.8154,0.0755 -0.9995,0.2277 -0.1841,0.1554 -0.27184,0.40684 -0.26299,0.75432 l 0,3.64749 c -0.0237,0.28058 0.0939,0.49101 0.35072,0.6313 0.25716,0.14029 0.7949,0.21043 1.6133,0.21043 1.47594,-0.0216 3.92511,-0.0863 7.34754,-0.21043 3.4224,-0.12302 6.95879,-0.19317 10.60919,-0.21043 2.84956,0.0216 5.88326,0.0863 9.10111,0.21043 3.21779,0.12302 7.19843,0.19317 11.94192,0.21043 6.39461,0.0216 11.73714,-0.36798 16.02761,-1.15738 4.29035,-0.78885 7.87933,-2.08673 10.76697,-3.89299 3.27327,-2.20944 5.88026,-5.33085 7.82097,-9.36414 1.94055,-4.03318 2.93424,-7.92607 2.98109,-11.67878 -0.096,-7.3825 -2.18329,-13.30968 -6.26029,-17.78132 -4.07715,-4.47163 -9.56585,-7.80337 -16.46612,-9.99543 l -0.42086,-0.28057 c 5.50032,-2.61271 9.7206,-5.45355 12.66084,-8.5224 2.94009,-3.06865 4.4248,-7.94366 4.4541,-14.62484 0.0496,-4.14422 -0.75119,-7.81502 -2.40241,-11.01252 -1.65136,-3.19727 -4.45125,-5.88606 -8.39965,-8.06646 -2.49892,-1.38519 -5.88332,-2.36721 -10.15323,-2.94595 -4.27002,-0.57842 -9.16251,-0.85899 -14.67746,-0.84173 -2.60991,0.0216 -5.63189,0.0863 -9.06594,0.21043 -3.43412,0.12303 -6.35091,0.19317 -8.75038,0.21044 -5.05619,-0.0216 -9.14788,-0.0863 -12.27509,-0.21044 -3.12724,-0.12302 -5.25492,-0.19316 -6.38305,-0.21043 -0.41504,-0.003 -0.70727,0.0755 -0.8768,0.22878 -0.16954,0.1554 -0.25134,0.40684 -0.24551,0.75432 l 0,3.5071 c -0.006,0.34748 0.0755,0.59892 0.24551,0.75432 0.16953,0.15539 0.46176,0.23093 0.8768,0.22769 l 4.34888,0 c 3.17689,-0.15755 5.45069,0.2277 6.82143,1.15738 1.37069,0.92914 2.13643,3.34944 2.29719,7.25981 0.0496,1.00576 0.10683,3.14095 0.17147,6.40643 0.0648,3.26558 0.12205,6.67923 0.17148,10.24093 0.0496,3.5617 0.0755,6.28955 0.0777,8.18334 z m 12.34521,-6.31286 4.48917,0 c 3.247,-0.0432 6.46774,0.0755 9.66222,0.35072 3.19439,0.27518 6.23977,0.95288 9.13615,2.03418 4.20562,1.61914 7.57833,4.27286 10.11816,7.96125 2.5397,3.6884 3.8432,8.37629 3.91048,14.06368 -0.2046,8.23309 -2.49598,14.03746 -6.87402,17.41301 -4.37817,3.37566 -9.61552,5.00656 -15.71209,4.8925 -5.70794,0.0324 -9.61842,-1.46709 -11.73146,-4.48912 -2.11309,-3.02202 -3.11264,-7.74499 -2.99861,-14.16889 l 0,-19.35957 z m 0,-15.15091 c 0.003,-6.02938 0.0324,-11.57648 0.0874,-16.64153 0.055,-5.06484 0.11978,-8.40251 0.19284,-10.01292 0.0119,-0.63993 0.19867,-1.1836 0.56115,-1.63079 0.36238,-0.44677 0.82997,-0.74569 1.40286,-0.89461 0.56116,-0.12842 1.22748,-0.18669 1.99909,-0.17482 0.77158,0.0108 1.64832,0.0216 2.63037,0.0324 3.61525,-0.0216 7.08149,0.33669 10.39873,1.06943 3.31713,0.73382 6.2573,1.96695 8.82051,3.70005 2.55724,1.9377 4.35173,4.19991 5.38349,6.78628 1.03166,2.58659 1.52847,5.23459 1.49055,7.94377 0.0324,3.13015 -0.55835,6.16394 -1.77112,9.10104 -1.21295,2.93731 -3.24126,5.51505 -6.08493,7.73333 -1.7098,1.19537 -4.07713,2.10141 -7.102,2.71803 -3.02497,0.61727 -6.54966,0.92699 -10.57409,0.92914 -1.18662,0.006 -2.39075,-0.006 -3.61238,-0.0324 -1.22169,-0.0324 -2.49595,-0.11115 -3.8228,-0.24604 z"
     sodipodi:nodetypes="cscccccccccccccccccccccscccccccccccccccccccccccscccsccccccscccccccccccccccc" />
</svg>
