<?xml version="1.0" standalone="no"?> <!DOCTYPE svg PUBLIC "-//W3C//DTD SVG 1.0//EN" "http://www.w3.org/TR/2001/REC-SVG-20010904/DTD/svg10.dtd" > <svg xmlns="http://www.w3.org/2000/svg" width="100%" height="100%">
<defs >
<font id="acaslonproitalic" horiz-adv-x="369" ><font-face
    font-family="Adobe Caslon Pro"
    units-per-em="1000"
    panose-1="2 5 5 2 5 5 11 9 10 3"
    ascent="735"
    descent="-265"
    alphabetic="0" />
<missing-glyph horiz-adv-x="500" d="M0 0V700H500V0H0ZM250 395L420 650H80L250 395ZM280 350L450 95V605L280 350ZM80 50H420L250 305L80 50ZM50 605V95L220 350L50 605Z" />
<glyph unicode=" " glyph-name="space" horiz-adv-x="230" />
<glyph unicode="!" glyph-name="exclam" horiz-adv-x="270" d="M80 -10Q66 -10 50 3T34 42Q34 64 49 80T86 96Q107 96 120 80T134 46Q134 22 119 6T80 -10ZM129 183Q127 183 125 185T122 192T124 204Q131 223 153 326T197 529T219 632Q231 685 269 685Q289 685
301 672T313 641Q313 626 298 589Q296 585 258 487T181 292T141 191Q137 183 129 183Z" />
<glyph unicode="&quot;" glyph-name="quotedbl" horiz-adv-x="234" d="M157 460L132 468Q135 479 150 559T172 656Q182 685 217 685Q229 685 238 676T247 654Q247 648 227 606T184 518T157 460ZM277 460L252 468Q255 479 270 559T292 656Q302 685 337 685Q349
685 358 676T367 654Q367 648 347 606T304 518T277 460Z" />
<glyph unicode="#" glyph-name="numbersign" horiz-adv-x="500" d="M306 248L356 394H258L208 248H306ZM292 198H194L126 0Q121 -15 116 -15H75Q68 -15 72 -2L141 198H47Q39 198 42 206L54 241Q57 248 65 248H156L206 394H111Q103 394 100 395T98 401L110 438Q111
444 121 444H218L284 636Q287 645 294 645H334Q341 645 336 631L272 444H369L433 632Q438 645 445 645H483Q490 645 486 632L422 444H515Q519 444 521 443T523 438L511 401Q509 394 497 394H408L358 248H460Q466 248 468 246T469 240L457 202Q456 198 444 198H344L275
-4Q272 -15 265 -15H224Q219 -15 222 -5L292 198Z" />
<glyph unicode="$" glyph-name="dollar" horiz-adv-x="500" d="M58 68L121 246Q124 255 129 253L140 250Q147 247 144 238Q119 136 183 85L244 328Q209 363 192 394T174 464Q174 512 212 558T314 610L334 688Q336 696 342 695L360 692Q365 689 362 680L344 610Q365
609 389 600L409 683Q411 690 418 689L434 686Q440 685 437 674L416 587Q421 585 429 580T442 572T452 569Q464 569 470 596Q471 601 476 601H485Q490 601 488 592L463 437Q462 431 458 431H444Q439 431 439 440Q441 505 407 548L353 324Q422 259 422 189T382 78T281
29L258 -66Q255 -78 248 -75L232 -70Q226 -69 229 -56L250 28Q221 30 202 35L176 -69Q174 -75 168 -74L151 -70Q145 -68 148 -58L174 47Q159 54 145 66T122 86T108 95Q92 95 75 59Q72 54 68 55L60 59Q55 61 58 68ZM268 303L210 67Q230 57 257 57L308 265Q304 269
295 278T277 294T268 303ZM328 345L381 569Q363 580 337 581L288 380Q324 347 328 345ZM265 404L307 579Q274 572 255 546T236 488Q236 439 265 404ZM332 239L289 62Q322 70 343 96T364 158Q364 203 332 239Z" />
<glyph unicode="%" glyph-name="percent" horiz-adv-x="700" d="M177 278Q217 278 253 328T309 441T328 555Q328 583 314 599T278 615Q242 615 207 568T151 459T131 352Q131 318 145 298T177 278ZM181 251Q130 251 103 283T76 372Q76 432 102 494T178 601T282
645Q331 645 357 615T383 536Q383 433 322 342T181 251ZM186 -12L167 1Q164 2 164 6Q164 11 168 18L576 641Q579 645 582 645T589 643L611 629Q615 628 615 624Q615 622 612 617L202 -8Q198 -15 194 -15T186 -12ZM504 -7Q453 -7 426 25T399 114Q399 174 425 236T501
343T605 387Q654 387 680 357T706 278Q706 175 645 84T504 -7ZM500 20Q540 20 576 70T632 183T651 297Q651 325 637 341T601 357Q565 357 530 310T474 201T454 94Q454 60 468 40T500 20Z" />
<glyph unicode="&amp;" glyph-name="ampersand" horiz-adv-x="852" d="M448 -22Q368 -22 305 -5T205 39T143 101T109 170T100 236Q100 316 137 369T216 441Q179 491 179 560Q179 618 220 661T329 704Q371 704 398 683T426 625Q426 596 409 578T379 559Q373 559
376 577Q382 607 363 626T316 645Q275 645 248 613T220 530Q220 485 245 451Q260 456 280 456Q296 456 313 449T331 432Q331 414 323 400T302 385Q291 385 272 392T246 405Q230 419 216 410Q190 393 174 357T158 275Q158 180 237 117T451 53Q579 53 655 120T731
267Q731 329 689 376T582 423Q531 423 510 391T488 331Q488 310 494 293T508 267T520 259Q529 259 529 274Q529 286 540 300T572 314Q594 314 606 300T619 263Q619 246 604 230T558 214Q522 214 487 247T452 337Q452 393 492 436T605 479Q626 479 666 476T712 472Q872
472 872 560Q872 587 854 608T815 630Q799 630 804 608Q806 595 796 581T763 566T731 577T720 602Q720 632 743 648T796 664Q845 664 878 632T911 559Q911 428 748 407Q731 405 728 399T734 380Q770 325 770 250Q770 127 676 53T448 -22Z" />
<glyph unicode="&apos;" glyph-name="quotesingle" horiz-adv-x="144" d="M162 460L137 468Q140 479 155 559T177 656Q187 685 222 685Q234 685 243 676T252 654Q252 648 232 606T189 518T162 460Z" />
<glyph unicode="(" glyph-name="parenleft" horiz-adv-x="344" d="M86 69Q86 259 177 428T427 717Q437 724 446 710Q451 702 450 698T441 687Q309 579 227 407T145 44Q145 -96 166 -189Q168 -198 153 -203Q138 -209 134 -200Q117 -164 102 -84T86 69Z" />
<glyph unicode=")" glyph-name="parenright" horiz-adv-x="344" d="M315 445Q315 255 224 86T-26 -203Q-36 -210 -45 -196Q-50 -188 -49 -184T-40 -173Q92 -65 174 107T256 470Q256 610 235 703Q233 712 248 717Q263 723 267 714Q284 678 299 598T315 445Z" />
<glyph unicode="*" glyph-name="asterisk" horiz-adv-x="300" d="M260 685Q286 685 286 666Q286 639 238 539L239 537Q245 541 271 564T322 604T356 622Q369 622 376 613T383 592Q383 571 343 559Q308 549 239 534V531Q244 530 294 516T350 498Q367 490 367 480Q367
469 355 456T327 442Q323 442 319 443T310 447T301 453T292 462T282 472T272 484T261 497T250 511T238 526L236 524Q237 519 240 469T243 410Q238 377 207 377Q182 377 182 399Q182 418 230 524L228 526Q224 523 206 506T178 481T153 461T128 444T110 438Q101 438
93 444T84 463Q84 484 109 497Q117 501 170 516T228 531V533Q223 534 179 546T129 560Q103 570 103 585Q103 598 113 609T137 621Q144 621 152 617T170 603T188 586T209 562T231 537L232 539L230 565Q227 591 225 619T224 654Q226 666 235 675T260 685Z" />
<glyph unicode="+" glyph-name="plus" horiz-adv-x="500" d="M296 40H237V213H72V267H237V440H296V267H460V213H296V40Z" />
<glyph unicode="," glyph-name="comma" horiz-adv-x="250" d="M11 -127Q1 -127 -1 -118Q-2 -107 10 -104Q35 -97 62 -73T90 -18Q90 8 66 33L62 37Q57 41 54 44T47 53T41 64T38 78Q38 97 50 110T82 124Q113 124 133 91T154 27Q154 -6 141 -34T110 -78T70 -106T33
-122T11 -127Z" />
<glyph unicode="-" glyph-name="hyphen" horiz-adv-x="418" d="M63 224V261Q63 271 71 271H394Q403 271 403 263V229Q403 217 394 217H71Q63 217 63 224Z" />
<glyph unicode="." glyph-name="period" horiz-adv-x="250" d="M94 -10Q71 -10 56 5T41 44Q41 62 54 79T93 96Q122 96 136 78T150 44Q150 23 134 7T94 -10Z" />
<glyph unicode="/" glyph-name="slash" horiz-adv-x="330" d="M-50 16L430 677Q436 686 444 683L473 670Q480 667 473 656L-8 -6Q-16 -18 -23 -14L-53 3Q-58 6 -50 16Z" />
<glyph unicode="0" glyph-name="zero" horiz-adv-x="500" d="M209 -15Q135 -15 94 39T53 187Q53 286 97 391T218 571T380 645Q451 645 490 595T529 461Q529 352 485 242T366 58T209 -15ZM205 25Q257 25 306 75T387 199T440 353T460 496Q460 548 437 576T374 604Q327
604 280 556T200 437T146 289T125 154Q125 91 148 58T205 25Z" />
<glyph unicode="1" glyph-name="one" horiz-adv-x="500" d="M43 4L49 27Q50 34 61 34H114Q144 34 161 43T193 85Q205 114 241 228L298 413Q328 508 328 512Q328 531 312 531Q304 531 250 509L196 486Q187 481 182 489L174 505Q171 512 181 517L406 635Q429 645
436 645Q447 645 447 635Q447 627 439 608Q404 514 360 376L305 201Q285 139 268 82Q258 55 267 45T311 34H365Q373 34 371 24L367 3Q366 -3 358 -3Q354 -3 278 -2T196 0Q188 0 120 -1T48 -3Q41 -3 43 4Z" />
<glyph unicode="2" glyph-name="two" horiz-adv-x="500" d="M113 66H292Q321 66 345 78T381 104T410 142Q415 151 420 149L435 142Q437 138 432 130Q416 106 391 53T363 -9Q358 -19 351 -19Q340 -19 332 -7Q326 0 285 0H58Q52 0 42 0T25 -1Q5 -3 1 -3Q-7 -3 -7
7Q-7 16 7 27Q22 39 80 84T170 154T254 227T334 309T384 387T407 467Q407 484 404 501T391 538T361 572T308 585Q296 585 285 583T264 577T245 567T229 555T214 540T202 526T190 510T181 497T173 484T167 473Q159 460 155 462L139 470Q135 473 139 484Q160 539
216 592T347 645Q412 645 451 603T490 494Q490 462 477 428T449 366T400 303T347 247T282 192T223 146T162 102T113 68V66Z" />
<glyph unicode="3" glyph-name="three" horiz-adv-x="500" d="M161 -15Q91 -15 50 19T8 96Q8 109 17 122T42 136Q66 136 74 117T80 79Q78 58 102 37T164 16Q240 16 294 74T348 215Q348 257 327 291T272 338Q261 342 258 345T254 355Q254 361 257 363T272 367Q315
375 363 415T412 513Q412 527 407 542T381 574T327 591Q285 591 250 561T199 504Q193 493 185 498L173 506Q169 511 176 524Q250 645 368 645Q424 645 455 614T486 548Q486 490 451 449T356 371Q430 327 430 227Q430 128 344 57T161 -15Z" />
<glyph unicode="4" glyph-name="four" horiz-adv-x="500" d="M276 0H231Q221 0 230 24L294 186H29Q22 186 18 190T13 201Q13 210 36 230L492 632Q507 645 520 645Q539 645 526 610L385 239H489Q498 239 496 228L481 198Q475 186 465 186H364L300 20Q296 7 292
4T276 0ZM121 239H315L420 502Q428 522 418 520Q414 520 409 515L119 257Q111 251 112 245T121 239Z" />
<glyph unicode="5" glyph-name="five" horiz-adv-x="500" d="M262 559L207 418L210 416Q227 416 266 409T333 387Q427 339 427 234Q427 196 408 154T355 73T264 10T140 -15Q99 -15 64 -4T29 31Q29 43 36 51T54 60Q76 60 105 38Q122 25 160 25Q242 25 296 79T351
198Q351 289 271 331Q257 339 229 345T180 352Q155 352 151 357Q144 362 149 375L243 621Q246 630 258 630H440Q457 630 470 636T488 648T505 670Q510 676 520 668Q532 660 527 653L470 567Q464 559 439 559H262Z" />
<glyph unicode="6" glyph-name="six" horiz-adv-x="500" d="M225 -15Q151 -15 113 32T74 153Q74 234 111 316T205 460T325 569T448 638Q467 645 474 645Q486 645 486 632Q486 624 476 619Q382 572 322 509T209 351L211 349Q268 386 332 386Q393 386 429 347T465
248Q465 145 392 65T225 -15ZM230 19Q278 19 315 61T368 153T385 246T361 317T294 347Q267 347 238 334T192 298Q147 238 143 136Q142 109 147 85T174 40T230 19Z" />
<glyph unicode="7" glyph-name="seven" horiz-adv-x="500" d="M269 630H530Q539 630 539 622Q539 618 534 610Q530 604 487 532T437 446Q239 70 232 55Q222 33 216 22T197 -2T172 -15Q140 -15 140 17Q140 32 161 65Q284 250 319 311Q462 560 464 563H271Q253 563
238 560T213 553T193 538T177 523T162 502T146 481Q140 472 128 481Q119 487 123 495L203 654Q206 660 207 662T212 665T220 663Q228 660 227 649Q226 637 234 634T269 630Z" />
<glyph unicode="8" glyph-name="eight" horiz-adv-x="500" d="M212 -15Q167 -15 135 0T88 38T67 81T60 119Q60 142 66 162T86 200T112 230T146 257T179 278T215 298T244 313Q241 317 227 335T204 364T185 393T169 428T164 463Q164 529 224 587T379 645Q444 645
483 610T522 527Q522 489 503 453T452 391T395 348T344 319Q346 317 356 304T369 288T381 272T393 253T403 236T411 216T416 197T418 175Q418 99 359 42T212 -15ZM215 12Q276 12 309 54T342 139Q342 156 338 173T329 202T314 230T298 252T281 272T266 290Q264 289
243 278T216 262T191 245T166 221T147 194T132 157T128 114Q128 69 156 41T215 12ZM319 343Q386 378 421 417T457 515Q457 548 433 580T359 612T274 581T237 496Q237 430 319 343Z" />
<glyph unicode="9" glyph-name="nine" horiz-adv-x="500" d="M352 645Q427 645 464 600T502 475Q502 393 466 311T372 166T245 56T107 -10Q90 -15 88 -15Q82 -15 78 -11T74 -2Q74 8 81 11Q189 61 250 122T362 269L360 271Q336 251 313 243T252 235Q212 235 184
252T142 295T122 343T116 384Q116 480 183 562T352 645ZM347 611Q309 611 278 586T230 522T203 445T193 375Q193 334 213 303T276 272Q303 272 332 287T380 326Q433 398 433 503Q433 611 347 611Z" />
<glyph unicode=":" glyph-name="colon" horiz-adv-x="250" d="M81 -10Q58 -10 43 5T28 44Q28 62 41 79T80 96Q109 96 123 78T137 44Q137 23 121 7T81 -10ZM192 310Q169 310 154 325T139 364Q139 382 152 399T191 416Q220 416 234 398T248 364Q248 343 232 327T192 310Z" />
<glyph unicode=";" glyph-name="semicolon" horiz-adv-x="250" d="M14 -127Q4 -127 2 -118Q1 -107 13 -104Q38 -97 65 -73T93 -18Q93 8 69 33L64 37Q60 41 57 44T50 53T44 64T41 78Q41 97 53 110T85 124Q116 124 136 91T157 27Q157 -6 144 -34T113 -78T73 -106T36
-122T14 -127ZM175 310Q152 310 137 325T122 364Q122 382 135 399T174 416Q203 416 217 398T231 364Q231 343 215 327T175 310Z" />
<glyph unicode="&lt;" glyph-name="less" horiz-adv-x="500" d="M395 40L84 225V257L395 440V374L174 246V241L395 108V40Z" />
<glyph unicode="=" glyph-name="equal" horiz-adv-x="500" d="M72 346H460V292H72V346ZM72 195H460V141H72V195Z" />
<glyph unicode="&gt;" glyph-name="greater" horiz-adv-x="500" d="M125 440L436 255V223L125 40V106L346 234V239L125 372V440Z" />
<glyph unicode="?" glyph-name="question" horiz-adv-x="429" d="M317 685Q361 685 392 670T438 632T458 590T464 554Q464 524 457 498T432 450T402 414T360 382T320 358T278 336Q243 318 228 310T193 288T168 262T161 233Q161 210 181 197T231 183Q256 183 278
195T311 220Q315 224 320 218L327 210Q331 206 329 202Q279 145 222 145Q182 145 153 171T124 249Q124 273 134 294T166 334T203 364T248 393T283 413Q320 436 334 446T371 476T402 518T411 568Q411 597 385 623T311 650T229 624T194 559Q194 538 204 526T224 514Q236
514 240 523Q239 527 239 538Q239 553 252 568T289 584Q307 584 316 573T326 550Q326 519 301 500T246 480Q214 480 189 498T164 557Q164 604 206 644T317 685ZM181 -10Q162 -10 146 3T129 39Q129 59 142 75T179 91Q201 91 215 76T230 39Q230 23 216 7T181 -10Z"
/>
<glyph unicode="@" glyph-name="at" horiz-adv-x="700" d="M280 239Q280 209 303 209Q341 209 404 276T485 379Q510 429 510 453Q510 474 499 489T471 504Q415 504 348 405T280 239ZM546 61L559 37Q535 17 476 1T352 -15Q215 -15 136 58T57 250Q57 332 94 412T190
552T327 648T483 685Q605 685 670 618T735 432Q735 331 660 249T466 166Q452 166 442 175T431 197Q431 229 464 310L460 312Q423 260 367 213T262 166Q242 166 228 180T214 221Q214 282 258 355T366 480T483 531Q523 531 541 498L553 516Q558 523 562 523H598Q608
523 603 513Q597 503 582 467T551 394T534 353Q494 260 494 222Q494 203 522 203Q570 203 623 268T677 442Q677 545 624 597T472 650Q379 650 298 592T172 445T127 264Q127 151 194 86T366 22Q484 22 546 61Z" />
<glyph unicode="A" glyph-name="A" horiz-adv-x="619" d="M472 301H294L154 125Q113 72 113 58Q113 34 148 34H184Q194 34 191 24L187 5Q185 -3 177 -3Q175 -3 158 -3T111 -1T46 0Q17 0 -8 -1T-48 -2T-66 -3Q-70 -3 -73 -1T-75 4L-70 26Q-69 34 -63 34H-48Q12
34 73 107L536 660Q542 669 564 670Q595 672 611 677Q640 685 644 685Q657 685 654 675L507 120Q497 77 497 62Q497 50 508 42T534 34H561Q570 34 569 24L566 6Q564 -3 554 -3Q551 -3 535 -3T491 -1T434 0Q392 0 355 -1T317 -3Q305 -3 307 7L311 26Q313 34 319
34H338Q371 34 389 49T422 116L472 301ZM320 336H483L560 600Q563 610 554 612T538 607L320 336Z" />
<glyph unicode="B" glyph-name="B" horiz-adv-x="619" d="M128 95L255 570Q261 592 261 606Q261 633 206 633H180Q170 633 172 642L176 663Q177 670 189 670Q229 670 270 671Q388 673 411 673Q511 673 566 640Q629 602 629 537Q629 452 570 405T430 344Q420 342
428 338Q490 318 527 277T564 176Q564 109 506 55Q443 -3 295 -3Q272 -3 227 -2T160 0Q137 0 91 -1T21 -3Q16 -3 14 -1T12 5L16 26Q18 34 25 34H64Q91 34 105 49T128 95ZM273 328L212 98Q205 72 207 61T223 41Q245 29 285 29Q379 29 427 76T475 191Q475 229 457
257T409 300T349 321T287 328H273ZM356 639L282 362Q305 358 342 358Q428 358 484 399T541 522Q541 571 498 606T385 641Q372 641 356 639Z" />
<glyph unicode="C" glyph-name="C" horiz-adv-x="666" d="M638 197L567 -17Q564 -24 558 -22L540 -17Q535 -15 537 -9Q540 6 540 8Q540 27 524 27Q512 27 480 13Q462 4 419 -5T342 -15Q240 -15 171 50T102 223Q102 310 140 403T247 570Q296 624 360 654T488 685Q557
685 620 642Q621 641 633 632T653 618T670 614Q688 614 696 645Q699 654 705 651L718 648Q727 647 724 638L671 431Q668 423 660 425L646 427Q639 428 640 437Q657 516 617 582T495 649Q436 649 392 620T303 527Q251 451 228 367T204 213Q204 117 253 72T357 26Q533
26 606 203Q611 213 616 211L633 206Q639 204 638 197Z" />
<glyph unicode="D" glyph-name="D" horiz-adv-x="777" d="M134 113L249 583Q262 633 198 633H153Q146 633 144 634T143 641L149 663Q151 670 165 670Q190 670 248 673Q265 673 305 674T356 676Q609 676 707 579Q782 503 782 398Q782 329 763 270T712 172T653 108T597
68Q471 -3 270 -3Q257 -3 198 -2T124 0Q91 0 65 -1T26 -2T12 -3Q2 -3 4 5L10 27Q12 34 20 34H50Q81 34 102 50T134 113ZM346 636L217 106Q210 75 210 64Q210 34 281 34Q470 34 567 117Q616 158 652 235T689 395Q689 495 625 561Q581 606 511 626Q461 639 402 639Q356
639 346 636Z" />
<glyph unicode="E" glyph-name="E" horiz-adv-x="669" d="M117 90L269 565Q281 603 263 619T214 636H182Q173 636 176 647L181 666Q183 673 193 673Q194 673 206 673T231 672Q273 670 331 670H395Q487 670 569 672Q593 672 618 672T646 673Q657 673 660 670T667
654L699 517Q700 512 693 508L682 504Q676 502 672 507L578 628Q573 636 562 636H380L294 373H390Q425 373 442 376T477 399T509 457Q511 463 516 462L531 459Q538 457 537 451L483 252Q482 245 476 246L460 248Q455 249 456 256Q461 313 437 327T344 341H284L187
34H446Q494 34 526 76L606 177Q611 184 618 179L628 173Q634 168 631 159L580 14Q576 3 572 0T558 -3Q555 -3 541 -3T499 -2T447 -1Q419 -1 350 -1T245 0H129Q103 0 72 0T35 -1Q27 -1 21 -1T11 -2T5 -3Q-6 -3 -3 5L0 26Q3 34 8 34H45Q99 34 117 90Z" />
<glyph unicode="F" glyph-name="F" horiz-adv-x="620" d="M121 95L278 598Q290 636 250 636H216Q206 636 209 645L215 665Q217 673 227 673Q230 673 267 672T337 670Q472 670 604 673Q633 674 661 678T691 683Q701 683 701 667Q702 650 710 587T721 511Q722 504
716 502L701 496Q695 493 693 501Q690 512 665 557T631 613Q619 628 614 629Q612 630 594 631Q546 636 376 636L292 368L441 370Q465 370 480 376T506 398T522 428T536 473Q538 480 548 478L564 475Q570 473 568 466L509 215Q506 207 499 210L482 212Q475 213 476
221Q487 276 479 302T431 329L281 335L213 108Q201 62 207 48T241 34H269Q274 34 276 32T278 26L271 3Q270 -3 259 -3Q256 -3 242 -3T200 -1T137 0Q100 0 73 -1T32 -2T16 -3Q8 -3 9 5L13 26Q15 34 23 34H52Q102 34 121 95Z" />
<glyph unicode="G" glyph-name="G" horiz-adv-x="709" d="M636 206L601 52Q596 36 583 30Q474 -15 389 -15Q260 -15 181 65T102 265Q102 380 159 477T311 630T511 685Q610 685 673 635Q689 623 700 623Q717 623 726 655Q728 661 736 659L748 656Q755 654 754 648L697
447Q695 440 685 441L672 443Q663 445 666 453Q684 524 642 587T511 651Q377 651 288 532T199 246Q199 135 253 78T384 21Q459 21 509 63Q519 72 527 97L547 194Q553 222 544 232T507 242H470Q460 242 463 252L467 271Q468 279 478 279Q479 279 517 278T594 276Q635
276 668 278L700 279Q710 279 709 269L706 250Q705 242 697 242H681Q644 242 636 206Z" />
<glyph unicode="H" glyph-name="H" horiz-adv-x="784" d="M628 324H263L191 100Q179 58 185 46T221 34H256Q266 34 264 26L260 6Q258 -3 249 -3Q246 -3 230 -3T185 -1T122 0Q92 0 66 -1T26 -2T9 -3Q-1 -3 2 9L6 26Q9 34 15 34H39Q63 34 78 52T107 110L263 589Q270
611 260 623T228 636H192Q183 636 186 646L191 665Q194 673 201 673Q203 673 221 673T269 671T327 670Q353 670 381 671T426 672T447 673Q452 673 454 671T456 665L449 643Q448 636 440 636H414Q384 636 371 625T348 583L276 360H639L713 593Q719 614 710 625T681
636H657Q648 636 650 646L655 667Q656 673 665 673Q668 673 685 673T729 671T778 670Q811 670 848 672L886 673Q892 673 894 671T896 666L890 644Q887 636 881 636H852Q831 636 820 625T798 583L643 104Q632 75 638 55T667 34H703Q714 34 711 24L706 4Q705 -3 694
-3Q692 -3 678 -3T635 -1T572 0Q540 0 512 -1T468 -2T449 -3Q440 -3 441 9L443 24Q445 34 452 34H480Q511 34 528 52T562 121L628 324Z" />
<glyph unicode="I" glyph-name="I" horiz-adv-x="359" d="M130 108L255 570Q273 636 219 636H173Q167 636 165 637T164 644L169 667Q170 673 182 673Q185 673 205 673T255 671T317 670Q353 670 384 671T434 672T456 673Q463 673 466 671T467 663L462 644Q460 636
451 636H432Q386 636 369 623T339 565L214 102Q204 66 216 50T267 34H302Q310 34 308 24L305 5Q304 -3 293 -3Q291 -3 272 -3T220 -1T148 0Q112 0 78 -1T24 -2T0 -3Q-10 -3 -8 5L-4 24Q-2 34 5 34H48Q89 34 103 48T130 108Z" />
<glyph unicode="J" glyph-name="J" horiz-adv-x="345" d="M347 554L218 102Q175 -47 123 -116Q58 -200 -34 -200Q-84 -200 -107 -178T-130 -133T-118 -96T-85 -80T-53 -93T-41 -122Q-41 -138 -47 -147Q-51 -153 -47 -159Q-40 -166 -13 -166Q53 -166 104 10L267
574Q278 599 271 617T230 636H197Q192 636 190 638T188 644L193 665Q194 673 203 673Q205 673 222 673T268 671T330 670T390 671T435 672T453 673Q463 673 462 663L458 643Q457 636 448 636H422Q396 636 379 620T347 554Z" />
<glyph unicode="K" glyph-name="K" horiz-adv-x="684" d="M276 319L205 100Q195 67 204 51T239 34H264Q272 34 271 24L267 5Q265 -3 254 -3Q251 -3 234 -3T189 -1T131 0Q98 0 72 -1T33 -2T19 -3Q9 -3 11 8L15 26Q17 34 26 34H54Q99 34 118 94L272 572Q283 605
275 620T239 636H214Q202 636 205 646L212 667Q214 673 224 673Q226 673 240 673T280 671T336 670Q371 670 398 671T440 672T458 673Q466 673 464 663L461 644Q460 636 449 636H425Q377 636 360 583L285 347Q318 347 333 352T368 375Q374 381 421 422T484 477T532
522T583 570T612 603Q623 616 619 626T595 637H583Q573 637 575 647L579 665Q582 673 590 673Q593 673 608 673T649 671T700 670T748 671T782 672T797 673Q803 673 806 671T808 664L804 646Q801 636 794 636H763Q726 636 684 603Q654 580 524 464T383 335Q389 324
466 212T561 79Q600 34 633 34H662Q673 34 671 24L667 7Q664 -3 654 -3Q650 -3 638 -3T603 -1T552 0Q517 0 472 -2L426 -3Q416 -3 417 8L419 24Q420 34 428 34H443Q460 34 470 43T473 62Q472 63 448 100T397 177T345 256T311 305Q300 319 276 319Z" />
<glyph unicode="L" glyph-name="L" horiz-adv-x="625" d="M121 108L265 574Q276 607 267 621T222 636H185Q175 636 177 644L184 667Q185 673 196 673Q199 673 216 673T265 671T334 670T404 671T455 672T476 673Q486 673 484 665L479 644Q476 636 467 636H422Q393
636 378 623T350 567L194 63Q185 34 219 34H259Q441 34 466 38Q487 41 501 54Q514 66 545 112T581 169Q583 175 591 171L601 167Q609 164 607 158Q603 147 586 83T565 1Q562 -15 553 -15Q549 -15 527 -9T490 -3Q487 -3 397 -2T256 0Q207 0 148 -1T50 -2T9 -3Q0
-3 1 7L5 26Q7 34 14 34H39Q73 34 89 48T121 108Z" />
<glyph unicode="M" glyph-name="M" horiz-adv-x="938" d="M106 103L270 575Q277 594 277 608Q277 636 225 636H189Q182 636 179 638T177 646L181 663Q184 673 192 673L212 672Q232 672 278 671T388 670Q399 670 402 666T408 647L456 164Q460 127 481 156L834 654Q845
670 860 670Q909 670 944 671T996 672T1016 673Q1021 673 1023 671T1025 665L1021 644Q1020 636 1011 636H981Q964 636 953 619T930 562L801 96Q793 65 801 50T831 34H862Q871 34 869 26L865 5Q864 -3 853 -3Q850 -3 835 -3T794 -1T737 0Q701 0 671 -1T625 -2T607
-3Q597 -3 598 7L600 24Q602 34 611 34H637Q672 34 691 52T720 105L854 588Q857 599 850 600T838 594L428 15Q421 4 412 1T396 2T388 22L331 585Q330 594 327 597T321 599T315 590L151 105Q127 34 173 34H208Q216 34 215 24L212 5Q210 -3 200 -3Q197 -3 184 -3T147
-1T97 0Q72 0 51 -1T16 -2T0 -3Q-8 -3 -6 5L-2 26Q-1 34 5 34H25Q62 34 77 50T106 103Z" />
<glyph unicode="N" glyph-name="N" horiz-adv-x="746" d="M118 137L256 577Q265 604 254 620T198 636H160Q149 636 152 648L156 663Q159 673 167 673Q169 673 188 673T246 671T339 670Q344 670 348 667T353 661T357 652T360 644L575 164Q582 149 587 157Q592 163
600 187L731 578Q751 636 699 636H664Q652 636 653 647L656 665Q658 673 666 673Q669 673 683 673T723 671T780 670T837 671T866 673Q878 673 875 660L872 644Q871 636 863 636H838Q818 636 807 626T783 581L589 26Q584 10 577 4T562 2T548 20L310 551Q307 557
304 559T297 560T292 550L164 127Q136 34 198 34H237Q248 34 246 24L243 5Q240 -3 231 -3Q229 -3 212 -3T166 -1T105 0Q75 0 50 -1T10 -2T-7 -3Q-17 -3 -15 8L-12 26Q-10 34 -3 34H24Q60 34 79 56T118 137Z" />
<glyph unicode="O" glyph-name="O" horiz-adv-x="709" d="M360 -15Q251 -15 186 53Q102 138 102 288Q102 389 150 481T280 629T452 685Q566 685 640 602T715 385Q715 314 691 244T623 116T510 21T360 -15ZM337 24Q416 24 486 88T597 250T637 450Q637 534 594 587T471
641Q396 641 324 569Q260 505 219 405T178 223Q178 125 226 75T337 24Z" />
<glyph unicode="P" glyph-name="P" horiz-adv-x="590" d="M133 114L252 566Q271 633 220 633H173Q166 633 168 643L173 662Q175 670 187 670Q191 670 287 671T396 673Q473 673 516 664T594 626T641 569T654 490Q654 405 581 342T366 278Q301 278 265 290L216 107Q197
34 248 34H286Q296 34 294 24L291 5Q290 -3 279 -3Q276 -3 259 -3T212 -1T146 0Q105 0 66 -2L28 -3Q19 -3 20 7L22 24Q24 34 33 34H54Q91 34 107 54T133 114ZM357 639L272 326Q295 310 357 310Q460 310 513 367T566 498Q566 540 550 570T506 614T452 635T396 641Q364
641 357 639Z" />
<glyph unicode="Q" glyph-name="Q" horiz-adv-x="740" d="M489 685Q601 685 673 613T746 405Q746 332 715 250T628 102Q591 58 541 31T448 -7Q274 -50 212 -82L214 -87Q280 -81 306 -81Q435 -81 505 -174Q535 -216 564 -216Q582 -216 592 -206T602 -183Q602 -178
596 -164Q588 -150 588 -131Q588 -116 600 -104T629 -92Q648 -92 657 -105T666 -131Q666 -185 623 -217T530 -250Q473 -250 430 -204Q391 -163 346 -142T218 -121Q177 -121 165 -133Q143 -155 126 -155Q102 -155 102 -121Q102 -95 178 -60T316 -8V-4Q224 13 168
87T111 283Q111 376 156 462T249 589Q278 614 295 626T341 655T407 678T489 685ZM362 25Q437 25 507 89T619 255T661 463Q661 546 617 597T498 649Q443 649 393 619T307 542T246 438T206 328T193 233Q193 176 207 135T240 73T285 41T328 27T362 25Z" />
<glyph unicode="R" glyph-name="R" horiz-adv-x="694" d="M110 84L269 583Q278 607 272 620T240 633H201Q191 633 193 641L198 662Q199 670 211 670Q257 670 309 671T396 672T435 673Q661 673 661 530Q661 457 594 402T436 336V334Q459 326 486 274Q572 102 578
92Q598 60 616 47T666 34H691Q700 34 698 24L695 5Q693 -3 685 -3L662 -2Q640 0 611 0Q585 0 562 -1T537 -3Q531 -3 526 3T510 29Q502 43 450 155T395 274Q390 283 385 290T372 303T359 312T344 318T330 322T314 324T300 325T285 325H272L201 106Q189 63 197 49T238
34H279Q288 34 286 26L283 3Q282 -3 271 -3Q268 -3 250 -3T200 -1T131 0Q96 0 58 -2L21 -3Q13 -3 15 5L19 26Q20 34 29 34H48Q94 34 110 84ZM371 640L282 357Q286 357 307 357T337 357T365 358T398 362T429 370T466 382Q512 401 541 440T571 530Q571 570 533 605T412
641Q383 641 371 640Z" />
<glyph unicode="S" glyph-name="S" horiz-adv-x="504" d="M57 33L131 251Q133 256 142 255L152 252Q161 248 159 241Q135 140 176 82T274 24Q322 24 356 58T390 142Q390 161 386 178T369 213T350 239T323 269T297 296Q265 331 252 346T220 391T193 447T186 509Q186
571 232 628T356 685Q409 685 474 640Q482 635 488 635Q497 635 504 670Q505 674 514 673L527 672Q535 671 534 665L498 475Q496 469 490 469L476 470Q466 472 467 479Q470 497 467 522T453 577T418 626T356 646Q312 646 285 613T257 537Q257 515 260 498T276 463T294
439T321 411T347 385Q350 382 355 377Q386 346 403 326T438 265T456 178Q456 85 402 35T275 -15Q232 -15 198 5T128 61Q115 74 105 59Q96 47 84 21Q81 15 74 18L61 23Q55 25 57 33Z" />
<glyph unicode="T" glyph-name="T" horiz-adv-x="664" d="M354 670H653Q713 670 749 680Q756 682 762 684T771 687T775 689Q782 689 781 679Q779 663 775 585T772 481Q772 474 764 473L751 472Q744 471 742 473T738 485Q734 512 723 554T701 617Q682 625 629 631T548
638H527L362 120Q346 72 355 53T405 34H444Q453 34 451 24L447 5Q445 -3 434 -3Q430 -3 412 -3T360 -1T284 0Q252 0 221 -1T171 -2T148 -3Q139 -3 140 7L143 26Q145 34 154 34H181Q224 34 244 55T283 137L443 638H417Q301 638 237 618Q209 595 179 559T135 500Q131
494 122 497L109 503Q103 506 107 513Q115 529 148 601T183 679Q186 689 191 689Q192 689 207 685T259 675T354 670Z" />
<glyph unicode="U" glyph-name="U" horiz-adv-x="731" d="M761 590L663 279Q618 134 546 60T360 -15Q255 -15 191 31T127 168Q127 220 148 293L233 574Q254 636 205 636H169Q161 636 162 644L167 665Q168 673 180 673Q183 673 198 673T240 671T299 670Q335 670
363 671T407 672T424 673Q434 673 433 663L429 644Q427 636 419 636H387Q372 636 363 633T342 617T323 579L241 312Q212 206 212 171Q212 127 231 97T279 53T330 35T370 30Q403 30 439 44T500 80Q535 112 561 159T612 287L700 575Q719 636 663 636H625Q614 636
616 644L619 663Q622 673 632 673Q635 673 651 673T694 671T754 670Q780 670 800 671T831 672T845 673Q855 673 854 663L851 644Q849 636 840 636H819Q780 636 761 590Z" />
<glyph unicode="V" glyph-name="V" horiz-adv-x="612" d="M321 592L255 168Q253 156 256 152T265 150T279 164L585 571Q598 588 602 603T602 627T583 636H552Q539 636 542 648L546 665Q547 673 559 673Q560 673 595 672T667 670Q701 670 731 671T763 673Q770 673
772 670T774 663L770 646Q767 636 761 636H731Q689 636 627 557L193 -3Q180 -20 164 -20Q144 -20 149 15L231 581Q240 636 187 636H156Q150 636 147 637T144 643L150 663Q157 672 161 673Q165 673 182 673T228 671T289 670T349 671T395 672T415 673Q422 673 424
671T426 665L422 644Q421 636 411 636H379Q352 636 339 626T321 592Z" />
<glyph unicode="W" glyph-name="W" horiz-adv-x="874" d="M324 580L245 148Q243 138 249 139Q254 140 260 146Q278 163 535 524Q568 572 568 607Q568 618 560 627T537 636H520Q515 636 513 637T512 642L517 665Q518 673 529 673L557 672Q585 670 615 670Q648 670
678 671T709 673Q721 673 718 663L713 644Q710 636 702 636H680Q664 636 657 625T645 586L592 146Q591 137 594 135T602 137Q617 150 672 238T753 370Q853 539 869 582Q888 636 849 636H833Q826 636 827 644L831 663Q832 673 842 673Q844 673 871 672T926 670Q958
670 988 671T1021 673Q1032 673 1030 663L1026 644Q1025 636 1018 636H1001Q965 636 943 607Q937 598 854 460T758 304Q732 261 656 151T551 6Q528 -20 518 -20Q499 -20 502 10L550 458Q551 468 547 470T538 465Q536 463 485 394T376 244T262 91T193 3Q172 -20
158 -20Q143 -20 150 24L239 583Q244 611 238 623T207 636H183Q172 636 173 646L177 665Q179 673 189 673Q192 673 207 673T245 671T291 670Q318 670 343 671T384 672T403 673Q414 673 413 663L409 644Q407 636 399 636H377Q352 636 341 625T324 580Z" />
<glyph unicode="X" glyph-name="X" horiz-adv-x="691" d="M380 584L444 396Q474 423 550 500T636 594Q645 608 639 622T612 636H597Q588 636 589 644L592 663Q593 673 604 673Q606 673 640 672T706 670Q738 670 768 672L799 673Q805 673 807 671T809 665L806 644Q805
636 797 636H780Q753 636 701 598Q696 594 642 541T528 431T456 362L555 86Q563 63 582 49T624 34H647Q655 34 655 24L654 7Q653 -3 643 -3Q640 -3 627 -3T590 -1T539 0Q501 0 463 -1T423 -3Q409 -3 412 9L415 26Q417 34 424 34H442Q463 34 469 46T470 74Q463 99
389 310Q388 308 291 211T168 80Q155 65 158 50T182 34H201Q208 34 206 24L204 7Q202 -3 192 -3Q188 -3 173 -3T133 -1T80 0Q51 0 15 -1T-23 -3Q-28 -3 -30 -1T-32 5L-28 24Q-25 34 -18 34H4Q21 34 37 40T62 53T87 73T110 92Q122 102 237 210T376 342L295 574Q284
606 271 621T232 636H206Q197 636 198 646L201 663Q202 673 214 673Q216 673 253 672T319 670Q356 670 391 672L426 673Q437 673 435 663L432 644Q430 636 423 636H404Q382 636 377 620T380 584Z" />
<glyph unicode="Y" glyph-name="Y" horiz-adv-x="540" d="M217 87L250 235Q255 259 245 289L137 598Q124 636 76 636H53Q45 636 46 644L50 665Q51 673 60 673Q64 673 77 673T113 671T165 670Q198 670 226 671T269 672T288 673Q293 673 295 671T297 665L295 644Q294
636 286 636H260Q211 636 228 588L321 310Q326 293 336 306Q368 350 440 456T520 582Q530 610 522 623T483 636H463Q454 636 456 646L458 665Q459 673 470 673Q472 673 509 672T580 670Q613 670 645 671T678 673Q684 673 686 671T688 665L685 646Q684 636 677 636H658Q634
636 618 625T580 587Q535 529 369 292Q355 272 350 264T339 241T327 203L302 90Q294 54 303 44T341 34H371Q380 34 378 26L375 5Q373 -3 364 -3L326 -2Q287 0 243 0Q206 0 178 -1T136 -2T118 -3Q109 -3 110 5L114 26Q114 34 123 34H152Q184 34 197 47T217 87Z"
/>
<glyph unicode="Z" glyph-name="Z" horiz-adv-x="677" d="M389 0H73Q65 0 62 4T60 13T65 22L592 634Q350 634 287 627Q254 624 229 602T192 553Q188 546 183 548L169 553Q164 555 165 561L203 675Q206 685 213 685T230 679Q235 676 291 673T374 670H698Q709 670
710 662T706 648L183 37Q442 37 516 51Q555 58 578 78T626 139Q630 145 636 142L650 135Q656 133 653 125L606 -6Q604 -12 597 -12Q588 -12 578 -8Q549 0 389 0Z" />
<glyph unicode="[" glyph-name="bracketleft" horiz-adv-x="324" d="M223 -197H20Q10 -197 15 -183L259 713Q262 723 275 723H470Q474 723 476 721T478 716L471 691Q470 686 457 686H329Q319 686 315 671L90 -150Q88 -160 96 -160H237Q245 -160 244 -167L238 -190Q237
-197 223 -197Z" />
<glyph unicode="\" glyph-name="backslash" horiz-adv-x="320" d="M292 -2L258 -12Q255 -13 254 -12T251 -9T249 0L114 662Q112 672 120 674L154 683Q161 684 163 678L297 10Q300 0 292 -2Z" />
<glyph unicode="]" glyph-name="bracketright" horiz-adv-x="324" d="M168 723H371Q381 723 376 709L132 -187Q130 -197 116 -197H-79Q-83 -197 -85 -195T-87 -190L-80 -165Q-79 -160 -70 -160H62Q72 -160 76 -145L301 676Q303 686 295 686H154Q146 686 147 693L153
716Q154 723 168 723Z" />
<glyph unicode="^" glyph-name="asciicircum" horiz-adv-x="500" d="M48 260L259 685H291L503 260H438L274 588H269L110 260H48Z" />
<glyph unicode="_" glyph-name="underscore" horiz-adv-x="500" d="M0 -125V-75H500V-125H0Z" />
<glyph unicode="`" glyph-name="grave" horiz-adv-x="235" d="M275 475L268 467Q264 462 259 467L139 558Q120 574 127 596T156 618Q172 618 191 594L275 483Q279 479 275 475Z" />
<glyph unicode="a" glyph-name="a" horiz-adv-x="455" d="M420 416H455Q462 416 458 407Q445 380 417 305T383 212Q335 76 335 62Q335 50 346 50Q354 50 381 75T416 111Q422 117 424 113L433 103Q437 99 435 95Q423 73 370 32T280 -10Q259 -10 259 7Q259 25 307
159L302 161Q264 102 200 46T88 -10Q68 -10 51 6T34 54Q34 125 79 211T193 356T320 416Q370 416 391 382L410 409Q415 416 420 416ZM134 43Q167 43 238 123T329 242Q353 292 353 325Q353 384 306 384Q263 384 215 327T137 198T107 78Q107 43 134 43Z" />
<glyph unicode="b" glyph-name="b" horiz-adv-x="446" d="M236 641H207Q195 641 198 651L204 667Q207 675 214 675H341Q356 675 348 657L187 294L193 292Q233 342 284 379T374 416Q445 416 445 340Q445 290 413 222T314 87Q215 -10 102 -10Q72 -10 54 9T35 56Q35
80 50 114L257 599Q264 616 264 626Q264 641 236 641ZM107 67Q107 40 118 32T150 24Q190 24 242 71T334 190T373 324Q373 367 339 367Q311 367 263 327T176 233Q148 194 128 142T107 67Z" />
<glyph unicode="c" glyph-name="c" horiz-adv-x="302" d="M118 -10Q88 -10 66 13T43 82Q43 150 75 228T161 361T270 416Q301 416 314 398T327 360Q327 343 314 331T286 318Q266 318 260 340Q257 349 249 357T229 366Q190 366 156 297Q137 257 125 203T113 122Q113
39 153 39Q178 39 202 57T241 93Q246 100 250 97L261 87Q267 83 262 76Q246 52 203 21T118 -10Z" />
<glyph unicode="d" glyph-name="d" horiz-adv-x="471" d="M447 641H416Q406 641 408 648L414 669Q416 675 426 675H549Q559 675 562 669T561 657Q547 624 456 379T354 94Q341 48 358 48Q369 48 394 69T428 100Q435 105 439 99L449 89Q454 86 449 79Q436 62 387
26T303 -10Q276 -10 276 13Q276 44 320 158L312 160Q271 95 210 43T101 -10Q74 -10 56 7T37 56Q37 116 75 195T175 335Q259 416 332 416Q367 416 395 383L472 602Q479 616 473 628T447 641ZM139 41Q168 41 215 85T298 178Q363 266 363 318Q363 384 310 384Q266
384 218 325T140 193T110 73Q110 58 119 50T139 41Z" />
<glyph unicode="e" glyph-name="e" horiz-adv-x="349" d="M137 -10Q89 -10 67 14T44 88Q44 150 80 222T172 349Q199 376 236 396T306 416Q333 416 348 400T363 363Q363 326 338 291T270 233Q200 198 125 192Q112 161 112 100Q112 70 129 54T164 37Q198 37 229
58T278 108Q282 114 287 109L298 100Q305 96 299 91Q272 53 230 22T137 -10ZM267 372Q225 372 183 316T133 221Q170 218 234 251T299 334Q299 350 291 361T267 372Z" />
<glyph unicode="f" glyph-name="f" horiz-adv-x="279" d="M157 352H68Q60 352 63 362L67 379Q70 389 79 389H166Q222 549 283 617Q307 645 346 665T431 685Q471 685 496 666T521 626Q521 604 509 592T481 580Q442 580 437 620Q436 630 426 639T396 649Q375 649
357 640T324 611T298 573T276 521T258 469T241 413Q236 397 234 389H331Q340 389 337 377L332 359Q331 352 321 352H226Q219 329 197 252T150 101T104 -30Q54 -159 -3 -228T-135 -297Q-165 -297 -186 -280T-207 -238Q-207 -220 -195 -208T-164 -195Q-144 -195 -132
-209T-117 -240Q-114 -257 -100 -257Q-23 -257 56 12L157 352Z" />
<glyph unicode="g" glyph-name="g" horiz-adv-x="432" d="M153 -297Q74 -297 11 -258T-52 -166Q-52 -140 -35 -117T16 -73T67 -45T117 -22Q79 6 79 36Q79 51 97 66T164 110Q137 117 112 147T86 225Q86 289 136 352T263 416Q320 416 348 369Q360 381 384 393T433
406Q455 406 465 393T475 367Q475 356 468 346T443 336Q423 336 410 351Q403 358 391 358Q384 358 375 354T362 344Q370 324 370 288Q370 258 360 224T315 154T227 108Q201 104 197 101Q180 94 163 80T145 53Q145 38 162 26Q169 21 187 10T235 -21T292 -59Q366
-107 366 -167Q366 -175 363 -187T347 -219T313 -256T250 -284T153 -297ZM197 131Q231 131 257 165T294 242T306 324Q306 391 261 391Q219 391 185 326T150 199Q150 131 197 131ZM17 -159Q17 -207 67 -236T173 -266Q228 -266 263 -246T298 -186Q298 -166 285 -147T261
-119T231 -98L143 -41Q17 -92 17 -159Z" />
<glyph unicode="h" glyph-name="h" horiz-adv-x="467" d="M74 0H31Q28 0 27 1T24 3T24 5L253 572Q266 604 266 621Q266 641 233 641H202Q190 641 193 650L198 667Q201 675 209 675H344Q356 675 356 663Q356 656 347 633L190 265L195 261Q244 331 291 373T393 416Q426
416 444 392T462 332Q462 228 393 100Q361 40 322 4T243 -32Q222 -32 207 -19T192 11Q192 29 202 44T228 60Q242 60 251 51T263 30Q265 10 280 10T316 46T354 126Q394 230 394 307Q394 363 364 363Q340 363 302 334T241 278T196 225Q159 179 130 109L88 7Q86 0
74 0Z" />
<glyph unicode="i" glyph-name="i" horiz-adv-x="287" d="M92 -10Q75 -8 75 15Q75 39 134 196L163 274Q181 323 181 333Q181 346 167 346Q162 346 154 341T136 326T118 308T100 289T87 276Q81 270 76 275L68 284Q62 289 65 293Q71 302 96 328T163 386T235 416Q245
416 252 410T259 391Q259 371 225 280L167 128Q149 80 149 62Q149 48 160 45Q174 48 204 76T240 115Q244 120 251 113L259 106Q264 99 261 94Q252 82 233 63T172 17T92 -10ZM253 550Q225 550 213 566T201 598Q201 619 215 633T253 648Q278 648 292 634T306 600Q306
584 293 567T253 550Z" />
<glyph unicode="j" glyph-name="j" horiz-adv-x="271" d="M220 238L143 34Q139 21 135 10T115 -37T82 -102T39 -162T-17 -212T-82 -230Q-128 -230 -150 -212T-173 -173Q-173 -155 -161 -141T-131 -127Q-112 -127 -101 -140T-88 -167Q-84 -196 -63 -196Q-40 -196
-19 -175T23 -111T57 -33T90 60Q99 86 103 98L170 292Q179 316 179 331T168 346T132 327T92 292Q88 288 84 292L74 303Q70 307 73 311Q98 339 151 377T247 416Q258 416 263 410T268 397Q268 368 220 238ZM275 550Q252 550 237 563T221 595Q221 617 236 634T278
651Q303 651 315 635T328 602Q328 580 312 565T275 550Z" />
<glyph unicode="k" glyph-name="k" horiz-adv-x="434" d="M177 244L154 189Q222 181 293 234T365 337Q365 349 357 358T337 367Q314 367 283 348T234 311T204 281Q185 259 177 244ZM68 0H25Q15 0 20 11L256 597Q274 641 220 641H193Q185 641 188 651L194 667Q199
675 206 675H339Q353 675 347 658L203 311L208 309Q238 348 285 382T378 416Q398 416 414 403T430 357Q430 321 392 281T314 216T245 181V177L310 72Q335 31 360 31Q381 31 407 57Q412 64 416 58L426 47Q429 44 425 38Q419 31 410 22T380 2T341 -10Q304 -10 286
2T250 49L195 154Q187 169 145 165L83 7Q81 0 68 0Z" />
<glyph unicode="l" glyph-name="l" horiz-adv-x="254" d="M72 127L247 578Q272 641 232 641H203Q193 641 197 650L203 668Q205 675 213 675H337Q351 675 346 660L138 131Q112 64 120 55Q122 53 126 53Q137 53 162 72T200 105Q204 110 209 105L220 93Q224 88 219
83Q210 68 154 29T57 -10Q35 -10 35 19Q35 34 72 127Z" />
<glyph unicode="m" glyph-name="m" horiz-adv-x="731" d="M101 0H63Q53 0 57 10L133 191Q190 328 191 341Q191 357 181 357Q172 357 139 328T97 286Q92 280 85 287L76 296Q71 301 75 305Q93 326 114 347T173 392T239 416Q249 416 256 408T263 388Q263 377 248
339T214 256T192 205L197 204Q227 251 259 292T342 375T431 416Q453 416 464 403T475 373Q475 334 418 200L423 199Q451 241 472 270T525 337T590 395T653 416Q675 416 688 401T701 368Q701 338 652 220Q644 201 640 190Q598 86 598 73T609 60T648 88T688 132Q692
140 700 132L708 124Q713 119 710 113T680 79T609 20T537 -10Q519 -10 519 14Q519 37 587 204Q591 213 597 229T607 252T615 272T622 291T627 306T631 322T634 334T635 346Q635 365 614 365Q590 365 531 302T421 165Q420 163 414 155T403 139T391 119T380 94L346
6Q344 0 332 0H292Q286 0 284 2T283 8L351 174Q409 317 409 342Q409 362 389 362Q365 362 308 304T203 180Q168 131 153 95L117 6Q113 0 101 0Z" />
<glyph unicode="n" glyph-name="n" horiz-adv-x="519" d="M111 0H72Q64 0 62 2T61 9L132 194Q184 328 184 345T169 362Q145 362 85 295Q80 290 75 296L66 305Q61 310 64 315Q78 332 97 350T154 392T225 416Q241 416 249 407T257 386Q257 372 247 342T222 276T206
237L210 235Q244 290 312 353T438 416Q461 416 474 405T488 375Q488 368 487 361T486 348T482 333T478 317T472 300T466 283T459 264T451 244T442 222T432 198Q381 73 381 60T393 47Q403 47 427 65T465 98Q471 103 476 96L483 88Q488 83 484 77Q468 56 418 23T324
-10Q300 -10 300 10Q300 18 309 43T337 115T367 194Q371 204 385 240T408 302T417 338Q417 361 392 361Q363 361 304 307T210 198T150 73L125 6Q122 0 111 0Z" />
<glyph unicode="o" glyph-name="o" horiz-adv-x="397" d="M155 -10Q113 -10 83 26T52 119Q52 184 80 251T163 367T280 416Q329 416 358 384T387 299Q387 240 361 171T279 46T155 -10ZM140 38Q188 38 238 94T318 214T347 314Q348 338 335 354T297 370Q264 370 226
340T152 251Q94 159 94 89Q94 66 107 52T140 38Z" />
<glyph unicode="p" glyph-name="p" horiz-adv-x="461" d="M207 399L239 492Q243 502 252 506L314 528Q316 529 321 529Q324 529 324 525Q324 520 322 517L276 413Q288 415 296 415Q303 416 316 416Q383 416 418 377T454 283Q454 164 335 75Q300 49 243 28T127
0L56 -198Q43 -238 49 -252T88 -266H116Q120 -266 122 -269T123 -274L116 -294Q112 -300 104 -300Q101 -300 88 -299T51 -298T-1 -297Q-31 -297 -55 -297T-92 -299T-108 -300Q-112 -300 -114 -299T-115 -294L-109 -274Q-107 -266 -102 -266H-79Q-51 -266 -36 -249T-3
-185L193 354Q160 345 125 317T69 264Q65 258 60 263L49 273Q44 278 48 282Q117 365 207 399ZM262 372L139 30Q236 45 310 109T384 260Q384 314 357 344T294 375Q283 375 262 372Z" />
<glyph unicode="q" glyph-name="q" horiz-adv-x="454" d="M178 -214L278 43H274Q217 -10 149 -10Q51 -10 51 105Q51 125 57 158T92 252T170 360Q230 416 298 416Q343 416 386 380Q393 375 400 380L451 413Q460 419 468 419Q479 419 472 401L243 -215Q224 -266
260 -266H288Q297 -266 295 -274L289 -292Q286 -300 278 -300Q277 -300 245 -299T180 -297Q155 -297 132 -297T94 -299T77 -300Q67 -300 69 -292L73 -274Q76 -266 82 -266H107Q135 -266 150 -256T178 -214ZM159 16Q204 16 245 57T312 152T352 253T367 320Q367 345
352 361T313 378Q274 378 233 337Q183 287 148 210T112 79Q112 50 124 33T159 16Z" />
<glyph unicode="r" glyph-name="r" horiz-adv-x="356" d="M107 0H67Q54 0 58 9L114 171Q163 323 163 346Q163 361 146 361Q133 361 108 339T67 299Q64 294 59 299L49 309Q46 312 49 317Q72 351 112 383T198 416Q226 416 226 381Q227 363 190 239L195 237Q222 294
271 355T358 416Q380 416 392 404T405 371Q405 352 393 339T366 325T341 335Q329 347 315 347Q284 347 192 195Q171 161 153 108L120 7Q118 0 107 0Z" />
<glyph unicode="s" glyph-name="s" horiz-adv-x="294" d="M106 -10Q63 -10 38 5T12 46Q12 58 21 68T46 79Q76 79 87 47Q92 32 99 26T123 19Q145 19 162 36T179 80Q179 99 172 119T152 163T136 196Q135 199 129 212T118 235T111 261T107 294Q107 339 144 377T233
416Q260 416 282 404T304 365Q304 352 295 343T273 333Q249 333 239 357Q239 358 236 366T232 376T225 381T213 385Q197 385 181 366T164 322Q164 306 171 287T188 250T200 229Q200 228 206 218T216 199T226 175T235 146T238 115Q238 59 199 25T106 -10Z" />
<glyph unicode="t" glyph-name="t" horiz-adv-x="314" d="M53 61L179 352H109Q100 352 103 360L111 382Q114 389 122 389H194L246 505Q252 516 262 520Q286 527 307 537Q319 543 322 543Q333 543 323 523L257 389H359Q367 389 363 378L354 357Q352 352 345 352H243L146
127Q123 73 123 63Q123 46 136 46Q155 46 190 72T236 110Q240 115 245 110L256 98Q260 94 257 89Q238 65 181 28T74 -10Q42 -10 42 14Q42 34 53 61Z" />
<glyph unicode="u" glyph-name="u" horiz-adv-x="484" d="M434 406H475Q487 406 484 397L407 189Q365 76 365 59Q365 50 373 47Q383 47 413 72T451 109Q455 115 460 109L470 99Q474 95 470 90Q465 83 442 62T378 16T305 -10Q286 -10 286 13Q286 17 350 184L344
187Q324 158 301 130T243 67T171 11T97 -10Q82 -10 72 1T60 31Q60 40 63 53T74 85T89 120T109 167T131 218Q137 232 146 252T160 285T170 310T177 331T180 345Q180 359 164 359Q152 359 125 337T86 302Q82 298 77 302L68 311Q63 314 69 320Q85 341 133 378T223
416Q237 416 244 405T252 380Q252 348 187 207Q134 91 134 62Q134 45 151 45Q186 45 245 106T339 218Q371 266 385 303L420 399Q422 406 434 406Z" />
<glyph unicode="v" glyph-name="v" horiz-adv-x="524" d="M197 353H145Q121 353 106 339T90 301Q91 284 112 272Q134 259 134 242Q134 229 125 219T97 209Q80 209 66 223T51 266Q51 292 64 320T90 363Q104 379 113 386T146 402T204 411Q249 411 277 412T316 415T329
416Q340 416 344 412T342 397Q324 375 301 340T251 243T224 136Q224 89 244 66T295 43Q358 43 413 122T468 279Q468 313 460 331Q445 365 445 372Q445 416 490 416Q509 416 519 400T529 363Q529 322 512 257T463 139Q427 76 370 33T255 -10Q214 -10 185 16T156
93Q156 156 199 234T297 377L290 380Q276 368 246 361T197 353Z" />
<glyph unicode="w" glyph-name="w" horiz-adv-x="737" d="M214 349H135Q120 349 110 340T99 316Q98 299 118 286Q139 272 139 255Q139 241 130 232T101 222Q85 222 70 237T54 281Q54 321 98 371Q109 384 131 395T174 406H247L339 412Q349 413 352 407T347 392Q315
357 272 271T229 123Q229 89 246 70T289 50Q361 50 406 120Q428 156 446 248Q449 265 454 308T463 371Q473 403 508 403Q533 403 533 379Q533 374 531 364T523 339T512 308T497 268T481 225Q458 156 458 134Q458 101 484 77T546 52Q601 52 643 108T686 261Q686
275 682 295T671 322Q638 355 638 376Q638 394 651 405T682 416Q732 416 732 313Q732 255 715 191T664 82Q643 55 629 40T584 8T517 -10Q475 -10 448 20T416 82Q393 52 348 21T253 -10Q217 -10 190 17T162 92Q161 147 206 227T294 359L287 366Q253 349 214 349Z"
/>
<glyph unicode="x" glyph-name="x" horiz-adv-x="471" d="M228 200L185 326Q179 344 167 344Q142 344 104 269Q101 263 94 266L80 273Q76 274 78 281Q86 305 125 360T195 416Q211 416 221 405T241 361L275 246Q290 265 314 297T353 347T379 377Q418 416 448 416Q461
416 469 407T477 385Q477 330 450 267Q447 260 440 263L428 267Q420 270 421 275Q447 353 419 353Q412 353 399 343T363 307T329 266T287 214L334 80Q344 53 360 53T398 80T425 121Q426 125 434 122L446 116Q452 113 449 106Q386 -10 327 -10Q294 -10 281 33L239
168Q148 47 114 16Q85 -10 65 -10Q28 -10 28 25Q28 42 35 77T50 131Q52 137 58 135L73 131Q79 130 77 123Q68 95 68 78T73 56T85 51Q111 51 228 200Z" />
<glyph unicode="y" glyph-name="y" horiz-adv-x="409" d="M59 266L45 272Q41 274 44 281L48 288Q51 296 54 303T64 321T76 342T91 363T107 384T125 400T144 412T164 416Q187 416 197 393T214 303Q229 129 233 7L237 8Q260 45 294 115T339 220Q354 271 354 307Q354
331 349 344Q338 369 338 380Q338 394 347 405T379 416Q398 416 408 401T419 366Q419 300 352 154Q314 70 245 -39T116 -206Q28 -297 -36 -297Q-63 -297 -77 -283T-92 -250Q-92 -232 -80 -221T-52 -209Q-36 -208 -15 -225Q-1 -237 10 -237Q29 -237 57 -216Q132
-160 167 -81Q177 -57 175 -25Q175 -24 171 30T163 138T153 248T143 322Q137 350 126 350Q114 350 95 321T68 269Q65 264 59 266Z" />
<glyph unicode="z" glyph-name="z" horiz-adv-x="477" d="M408 337L175 106L178 101Q215 101 282 57Q287 53 298 46T314 36T326 28T338 21T349 17T361 13T372 12Q387 12 397 21T408 41Q408 57 402 69Q391 89 391 101Q391 117 401 127T424 137Q465 137 465 88Q465
49 433 15T343 -20Q297 -20 217 18Q214 19 199 28T168 43T141 50Q123 50 115 42T101 14Q91 -15 58 -15Q49 -15 43 -9T37 7Q37 34 63 59T117 99L326 307L322 311Q281 308 232 340Q230 341 213 355T181 378T153 386Q138 386 131 380T123 368Q123 358 137 350Q150
341 150 321Q150 307 141 297T117 286Q100 286 87 299T73 335Q73 363 97 389T171 416Q191 416 211 411T243 401T288 380Q336 357 363 357Q389 357 400 393Q406 410 419 424T451 439Q460 439 465 432T470 415Q470 376 408 337Z" />
<glyph unicode="{" glyph-name="braceleft" horiz-adv-x="324" d="M92 271T92 285T105 299Q123 299 141 306Q196 329 201 380Q204 407 204 460T209 550Q215 596 247 634T320 693T405 720Q425 723 451 723Q468 723 468 709Q468 691 456 691Q446 691 424 689Q365
681 325 647T276 550Q273 527 270 479T262 409Q254 354 211 318Q203 311 189 303T169 289T162 277Q162 272 175 261T192 244Q207 222 207 195Q207 160 177 82Q175 78 170 65T164 48T158 32T153 15T149 -2T146 -21T145 -41Q145 -88 171 -120T236 -161Q253 -165 271
-165Q278 -165 278 -182Q278 -197 271 -197Q251 -197 226 -193Q206 -190 183 -181T135 -155T94 -108T78 -41Q78 6 116 88Q118 93 124 107T133 128T141 146T148 165T151 182T153 200Q153 232 138 251Q127 266 105 269Q92 271 92 285Z" />
<glyph unicode="|" glyph-name="bar" horiz-adv-x="250" d="M191 -260H149Q143 -260 143 -250V753Q143 762 149 762H189Q196 762 196 750V-250Q196 -260 191 -260Z" />
<glyph unicode="}" glyph-name="braceright" horiz-adv-x="324" d="M314 255T314 241T301 227Q283 227 265 220Q210 197 205 146Q202 119 202 66T197 -24Q191 -70 159 -108T86 -167T1 -194Q-19 -197 -45 -197Q-62 -197 -62 -183Q-62 -165 -50 -165Q-40 -165 -18
-163Q41 -155 81 -121T130 -24Q133 -1 136 47T144 117Q152 172 195 208Q203 215 217 223T237 237T244 249Q244 254 231 265T214 282Q199 304 199 331Q199 366 229 444Q231 448 236 461T242 478T248 494T253 511T257 528T260 547T261 567Q261 614 235 646T170 687Q153
691 135 691Q128 691 128 708Q128 723 135 723Q155 723 180 719Q200 716 223 707T271 681T312 634T328 567Q328 520 290 438Q288 433 282 419T273 398T265 380T258 361T255 344T253 326Q253 294 268 275Q279 260 301 257Q314 255 314 241Z" />
<glyph unicode="~" glyph-name="asciitilde" horiz-adv-x="500" d="M405 309H458Q458 245 429 207T359 169Q327 169 276 202L237 229Q203 251 171 251Q154 251 140 232T125 171H72Q72 235 101 273T171 311T251 287L293 259Q297 257 307 250T323 240T338 233T356
229Q377 229 391 248T405 309Z" />
</font>
</defs>
</svg>
