<?xml version="1.0" standalone="no"?> <!DOCTYPE svg PUBLIC "-//W3C//DTD SVG 1.0//EN" "http://www.w3.org/TR/2001/REC-SVG-20010904/DTD/svg10.dtd" > <svg xmlns="http://www.w3.org/2000/svg" width="100%" height="100%">
<defs >
<font id="AKKURAT-LIGHT" horiz-adv-x="545" ><font-face
    font-family="Akkurat-Light"
    units-per-em="1000"
    panose-1="2 0 5 3 3 0 0 2 0 4"
    ascent="979"
    descent="-244"
    alphabetic="0" />
<missing-glyph horiz-adv-x="588" d="M88 698H500V0H88V698ZM425 74V623H163V74H425Z" />
<glyph unicode=" " glyph-name="space" horiz-adv-x="215" />
<glyph unicode="!" glyph-name="exclam" horiz-adv-x="307" d="M184 227H150L136 515V709H198V515L184 227ZM130 0V76H206V0H130Z" />
<glyph unicode="&quot;" glyph-name="quotedbl" horiz-adv-x="438" d="M293 433H261L247 585V709H308V585L293 433ZM142 433H110L96 585V709H157V585L142 433Z" />
<glyph unicode="#" glyph-name="numbersign" horiz-adv-x="765" d="M550 452L521 243H654V198H514L486 0H442L470 198H254L226 0H181L209 198H83V243H216L245 452H116V497H252L280 695H324L296 497H512L540 695H585L557 497H687V452H550ZM290 452L260 243H476L506
452H290Z" />
<glyph unicode="$" glyph-name="dollar" horiz-adv-x="568" d="M523 202Q523 157 507 125T467 69Q407 9 305 3V-88H264V3Q215 6 170 24T94 75Q66 105 50 144T33 229H83Q83 191 97 159T134 104Q159 78 192 65T264 49V342L219 348Q185 352 155 365T102 399T66 450T53
520Q53 562 70 593T113 647Q175 702 264 707V800H305V706Q349 701 387 684T451 639Q477 611 493 577T512 498H462Q460 531 448 559T414 610Q394 631 366 643T305 659V389L352 383Q432 373 477 326T523 202ZM264 661Q231 659 202 650T150 620Q130 603 117 579T103
520Q103 489 113 468T140 432T178 410T224 399L264 394V661ZM473 202Q473 260 440 292T346 332L305 337V49Q343 52 374 65T430 101Q448 118 460 144T473 202Z" />
<glyph unicode="%" glyph-name="percent" horiz-adv-x="925" d="M852 172Q852 137 845 105T819 47Q800 21 771 4T700 -14Q659 -14 630 3T581 47Q563 73 556 105T548 172Q548 207 555 239T581 297Q600 323 629 340T700 358Q741 358 770 341T819 297Q837 271 844
239T852 172ZM218 -12L183 15L700 719L736 694L218 -12ZM372 536Q372 501 365 469T339 411Q320 385 291 368T220 350Q179 350 149 367T100 411Q82 437 75 469T68 536Q68 571 75 603T100 661Q119 687 148 704T219 722Q260 722 290 705T339 661Q357 635 364 603T372
536ZM806 172Q806 201 800 227T782 272T749 302T700 313Q671 313 651 302T618 272T599 227T593 172Q593 143 599 117T618 72T651 42T700 31Q728 31 748 42T781 72T800 117T806 172ZM326 536Q326 565 320 591T301 636T268 666T219 677Q190 677 170 666T138 636T119
591T113 536Q113 507 119 481T138 436T171 406T220 395Q248 395 268 406T301 436T320 481T326 536Z" />
<glyph unicode="&amp;" glyph-name="ampersand" horiz-adv-x="719" d="M591 352Q591 324 589 293T581 232T565 174T540 124L651 0H587L513 84Q475 39 421 13T300 -14Q256 -14 218 0T152 40T107 103T90 186Q90 240 115 283T187 353L243 386L191 444Q165 473 154
502T142 565Q142 598 154 627T189 677T242 710T309 723Q344 723 375 712T429 681T465 631T479 565Q479 514 456 479T392 419L318 375L506 162Q528 201 535 248T543 354V397H667V352H591ZM430 565Q430 616 396 646T309 677Q285 677 264 669T227 647T202 611T192
565Q192 539 204 515T234 469L286 409L367 459Q396 477 413 504T430 565ZM275 350L219 317Q183 296 162 262T141 186Q141 152 153 125T188 78T238 47T300 36Q360 36 403 59T478 122L275 350Z" />
<glyph unicode="&apos;" glyph-name="quotesingle" horiz-adv-x="241" d="M136 433H104L90 585V709H151V585L136 433Z" />
<glyph unicode="(" glyph-name="parenleft" horiz-adv-x="291" d="M240 -128Q199 -83 169 -29T117 84T86 203T75 323Q75 381 85 442T117 561T168 674T240 774L271 750Q197 655 160 551T122 323Q122 199 159 95T271 -104L240 -128Z" />
<glyph unicode=")" glyph-name="parenright" horiz-adv-x="291" d="M216 323Q216 264 206 204T174 85T122 -28T51 -128L20 -104Q94 -9 131 95T169 323Q169 447 132 551T20 750L51 774Q91 729 122 675T174 562T205 442T216 323Z" />
<glyph unicode="*" glyph-name="asterisk" horiz-adv-x="534" d="M298 480L406 337L368 309L266 458L164 309L126 337L236 480L63 532L77 577L248 517L243 697H290L286 517L456 577L471 532L298 480Z" />
<glyph unicode="+" glyph-name="plus" horiz-adv-x="683" d="M365 280V5H318V280H73V325H318V582H365V325H610V280H365Z" />
<glyph unicode="," glyph-name="comma" horiz-adv-x="269" d="M181 -1Q181 -44 163 -74T105 -123L88 -95Q120 -78 132 -58T144 0H89V90H181V-1Z" />
<glyph unicode="-" glyph-name="hyphen" horiz-adv-x="433" d="M75 279V325H358V279H75Z" />
<glyph unicode="." glyph-name="period" horiz-adv-x="264" d="M88 0V90H176V0H88Z" />
<glyph unicode="/" glyph-name="slash" horiz-adv-x="396" d="M71 -13H25L338 722H384L71 -13Z" />
<glyph unicode="0" glyph-name="zero" horiz-adv-x="568" d="M507 348Q507 307 505 264T493 181T468 105T425 43Q401 20 367 4T284 -13Q236 -13 202 3T143 43Q116 69 100 104T75 180T64 264T61 348Q61 389 63 432T75 515T100 591T143 653Q167 676 201 692T284
709Q332 709 366 693T425 653Q452 627 468 592T493 516T504 432T507 348ZM456 348Q456 382 455 420T447 495T428 565T391 621Q372 639 347 650T284 661Q247 661 222 650T177 621Q153 598 140 565T121 495T114 420T112 348Q112 314 113 276T121 201T140 131T177
75Q196 57 221 46T284 35Q321 35 346 46T391 75Q415 98 428 131T447 201T454 276T456 348Z" />
<glyph unicode="1" glyph-name="one" horiz-adv-x="568" d="M293 0V633L120 506V562L298 695H343V0H293Z" />
<glyph unicode="2" glyph-name="two" horiz-adv-x="568" d="M99 0V54L377 401Q398 427 415 463T433 535Q433 565 423 588T394 628T350 652T297 661Q225 661 188 617T151 503H98Q98 548 111 585T151 650T213 693T297 709Q337 709 371 697T430 663T469 608T483 535Q483
490 463 448T415 372L155 48H502V0H99Z" />
<glyph unicode="3" glyph-name="three" horiz-adv-x="568" d="M488 182Q488 138 471 102T425 41T356 1T273 -13Q223 -13 184 3T118 48T76 116T60 202H111Q111 168 121 138T151 85T202 49T273 35Q347 35 391 74T436 182Q436 260 392 299T272 338H235V386H272Q340
386 380 421T421 526Q421 557 410 582T378 624T332 651T276 661Q204 661 161 618T116 504H64Q65 550 81 588T125 653T192 694T276 709Q316 709 352 696T415 660T457 602T473 526Q473 469 445 424T360 362Q391 353 414 336T454 295T479 242T488 182Z" />
<glyph unicode="4" glyph-name="four" horiz-adv-x="568" d="M433 159V0H382V159H54V214L337 695H394L108 209H382V424H433V209H530V159H433Z" />
<glyph unicode="5" glyph-name="five" horiz-adv-x="568" d="M508 218Q508 169 495 127T456 54T389 4T294 -14Q245 -14 206 2T138 48T94 116T77 201H128Q129 164 141 133T175 80T226 46T294 34Q376 34 416 85T457 218Q457 256 448 289T420 348T372 387T302 402Q257
402 217 384T153 326H91L107 695H485V648H155L141 372Q167 414 211 431T302 449Q354 449 392 432T456 383T495 310T508 218Z" />
<glyph unicode="6" glyph-name="six" horiz-adv-x="568" d="M511 220Q511 172 497 130T455 56T387 6T296 -13Q238 -13 197 13T132 72Q113 99 101 131T83 200T74 274T71 349Q71 389 73 430T84 509T108 582T147 643Q171 669 207 689T295 709Q337 709 372 696T434
660T476 603T494 528H442Q438 588 400 624T295 661Q257 661 230 648T185 614Q163 590 151 557T132 486T125 411T123 342Q144 390 190 420T295 451Q346 451 386 434T454 387T496 314T511 220ZM460 220Q460 256 451 289T421 348T370 389T296 405Q262 405 236 394T190
363Q137 312 137 222Q137 186 147 153T177 93T227 51T297 35Q340 35 370 50T421 91T450 150T460 220Z" />
<glyph unicode="7" glyph-name="seven" horiz-adv-x="568" d="M190 0H136L438 647H55V695H489V642L190 0Z" />
<glyph unicode="8" glyph-name="eight" horiz-adv-x="568" d="M503 183Q503 136 485 100T437 38T367 0T283 -13Q239 -13 200 0T130 38T83 99T65 183Q65 212 73 240T98 292T137 334T188 363Q139 382 110 427T81 524Q81 568 97 602T140 660T205 696T285 709Q327
709 364 697T428 661T471 603T487 524Q487 472 458 427T380 363Q408 353 431 335T470 292T494 240T503 183ZM435 526Q435 559 423 585T391 628T342 655T283 664Q251 664 224 655T177 629T145 585T133 526Q133 492 144 466T176 421T225 394T285 385Q317 385 344
394T392 421T423 465T435 526ZM451 186Q451 223 438 252T403 300T349 330T283 341Q248 341 218 331T165 301T130 252T117 186Q117 149 130 121T165 73T219 43T285 33Q320 33 350 43T403 72T438 120T451 186Z" />
<glyph unicode="9" glyph-name="nine" horiz-adv-x="568" d="M496 347Q496 307 494 266T485 185T464 111T426 49Q402 23 366 5T278 -13Q236 -13 201 0T138 36T95 93T77 168H129Q133 108 172 72T278 35Q316 35 343 46T388 78Q408 100 419 131T436 198T443 269T444
337V354Q423 306 378 276T274 245Q223 245 183 262T115 309T73 382T58 476Q58 524 72 566T114 640T182 690T273 709Q331 709 373 684T439 625Q458 598 469 566T487 497T494 422T496 347ZM432 474Q432 510 422 543T392 603T342 645T272 661Q229 661 199 646T148
605T119 546T109 476Q109 440 118 407T148 348T199 307T273 291Q307 291 333 302T379 333Q432 384 432 474Z" />
<glyph unicode=":" glyph-name="colon" horiz-adv-x="289" d="M110 414V500H193V414H110ZM110 0V86H193V0H110Z" />
<glyph unicode=";" glyph-name="semicolon" horiz-adv-x="289" d="M114 414V500H197V414H114ZM199 -1Q199 -82 126 -117L110 -90Q141 -73 152 -54T164 0H111V86H199V-1Z" />
<glyph unicode="&lt;" glyph-name="less" horiz-adv-x="488" d="M383 -23L55 304L382 631L412 600L116 304L413 7L383 -23Z" />
<glyph unicode="=" glyph-name="equal" horiz-adv-x="693" d="M113 373V419H580V373H113ZM113 136V182H580V136H113Z" />
<glyph unicode="&gt;" glyph-name="greater" horiz-adv-x="488" d="M105 -23L75 7L372 304L76 600L106 631L433 304L105 -23Z" />
<glyph unicode="?" glyph-name="question" horiz-adv-x="488" d="M458 542Q458 479 429 437T352 364Q326 347 310 333T285 301T273 261T270 208H218Q218 247 223 275T242 326T276 368T330 410Q402 458 402 539Q402 602 362 638T257 674Q179 674 137 633T95 515H40Q40
563 56 602T100 668T169 710T257 725Q302 725 341 710T407 666Q430 641 444 611T458 542ZM205 0V78H284V0H205Z" />
<glyph unicode="@" glyph-name="at" horiz-adv-x="934" d="M862 381Q862 334 851 286T816 199T757 135T671 110Q637 110 612 132T581 189Q572 172 558 158T526 133T490 118T451 112Q413 112 384 126T335 165T305 221T295 288Q295 329 307 368T343 438T401 487T481
506Q516 506 546 490T591 440L604 497H641L621 233V224Q621 193 634 173T676 153Q710 153 736 172T780 224T806 298T815 381Q815 451 790 506T722 599T619 656T493 676Q410 676 344 649T231 572T159 455T133 306Q133 234 157 170T225 59T330 -15T466 -43Q532 -43
595 -32T719 6V-41Q654 -69 594 -79T463 -89Q378 -89 308 -59T189 25T112 151T84 306Q84 398 113 474T195 606T324 691T493 722Q570 722 637 699T754 632T833 525T862 381ZM582 330Q582 356 577 380T558 422T525 452T474 463Q442 463 418 447T377 406T352 350T343
288Q343 260 350 236T370 193T404 165T453 154Q488 154 512 171T552 213T575 270T582 330Z" />
<glyph unicode="A" glyph-name="A" horiz-adv-x="608" d="M547 0L475 187H132L62 0H8L277 709H328L600 0H547ZM302 637L151 236H456L302 637Z" />
<glyph unicode="B" glyph-name="B" horiz-adv-x="660" d="M602 196Q602 154 587 115T537 49Q499 18 453 9T359 0H108V709H359Q399 709 439 702T513 671Q547 648 566 612T586 535Q586 477 560 432T473 369Q539 353 570 305T602 196ZM533 531Q533 568 518 593T479
633T423 654T359 660H160V395H359Q396 395 427 400T482 421T519 462T533 531ZM549 200Q549 243 534 271T493 316T433 338T359 345H160V49H359Q395 49 429 55T490 78T533 124T549 200Z" />
<glyph unicode="C" glyph-name="C" horiz-adv-x="623" d="M580 217Q576 168 556 126T503 53T426 5T328 -13Q277 -13 228 7T141 64Q112 93 96 128T71 200T61 277T58 355Q58 393 60 432T71 509T95 581T141 645Q178 682 227 702T328 722Q381 722 425 705T503 656T556
583T580 492H526Q523 531 507 564T466 621T405 658T328 671Q280 671 244 655T179 610Q155 585 142 554T122 490T114 422T112 355Q112 323 113 289T122 220T142 155T180 99Q239 38 328 38Q370 38 405 51T465 88T507 145T526 217H580Z" />
<glyph unicode="D" glyph-name="D" horiz-adv-x="666" d="M608 355Q608 318 606 280T594 204T568 132T522 70Q490 39 445 20T343 0H108V709H343Q400 709 445 690T522 639Q551 611 568 577T594 506T605 431T608 355ZM555 355Q555 387 553 421T544 488T523 551T484
605Q457 631 420 644T343 658H160V51H343Q383 51 420 64T484 104Q509 128 523 158T544 222T553 289T555 355Z" />
<glyph unicode="E" glyph-name="E" horiz-adv-x="616" d="M108 0V709H562V659H161V399H514V349H161V50H562V0H108Z" />
<glyph unicode="F" glyph-name="F" horiz-adv-x="582" d="M160 659V385H513V335H160V0H108V709H552V659H160Z" />
<glyph unicode="G" glyph-name="G" horiz-adv-x="678" d="M557 0L546 109Q532 80 510 58T461 20T402 -4T339 -13Q282 -13 234 8T152 62Q123 90 106 125T79 198T66 276T62 354Q62 392 65 431T78 509T105 581T152 645Q186 678 234 700T339 722Q394 722 439 706T518
662T571 596T595 511H542Q539 546 527 570T495 617Q467 647 427 659T340 671Q294 671 258 656T193 613Q168 589 153 558T130 492T119 422T116 354Q116 322 119 286T130 215T153 149T194 93Q252 38 339 38Q382 38 419 53T481 94Q502 116 514 143T533 198T541 257T543
316H334V367H596V0H557Z" />
<glyph unicode="H" glyph-name="H" horiz-adv-x="716" d="M556 0V348H160V0H108V709H160V399H556V709H608V0H556Z" />
<glyph unicode="I" glyph-name="I" horiz-adv-x="269" d="M108 0V709H161V0H108Z" />
<glyph unicode="J" glyph-name="J" horiz-adv-x="506" d="M411 199Q411 151 398 112T358 44Q333 18 298 3T215 -13Q173 -13 140 0T82 37Q49 67 33 113T15 215H68Q68 171 80 134T118 72Q154 38 215 38Q285 38 321 77Q341 98 350 129T359 198V709H411V199Z" />
<glyph unicode="K" glyph-name="K" horiz-adv-x="655" d="M580 0L345 405L161 197V0H108V709H161V272L551 709H615L380 444L639 0H580Z" />
<glyph unicode="L" glyph-name="L" horiz-adv-x="546" d="M108 0V709H160V49H528V0H108Z" />
<glyph unicode="M" glyph-name="M" horiz-adv-x="882" d="M723 0V634L464 10H418L159 629V0H108V709H181L443 79L700 709H774V0H723Z" />
<glyph unicode="N" glyph-name="N" horiz-adv-x="738" d="M571 0L160 628V0H108V709H167L579 82V709H630V0H571Z" />
<glyph unicode="O" glyph-name="O" horiz-adv-x="658" d="M600 355Q600 317 598 277T586 198T559 124T511 59Q478 27 433 7T329 -13Q271 -13 226 7T147 59Q117 88 100 123T73 197T61 276T58 355Q58 393 60 433T72 511T99 585T147 650Q180 682 225 702T329 722Q387
722 432 702T511 650Q541 621 558 586T585 512T597 433T600 355ZM546 355Q546 386 545 421T536 492T514 559T473 616Q445 643 408 657T329 671Q287 671 250 657T185 616Q159 591 144 559T122 492T114 422T112 355Q112 323 113 288T122 218T144 151T185 93Q213 66
250 52T329 38Q371 38 408 52T473 93Q499 118 514 150T536 218T544 288T546 355Z" />
<glyph unicode="P" glyph-name="P" horiz-adv-x="618" d="M590 500Q590 446 572 407T523 342T448 304T354 291H160V0H108V709H354Q405 709 448 697T522 658T572 593T590 500ZM536 500Q536 542 522 572T484 621T427 650T354 659H160V341H354Q393 341 426 350T484
378T522 428T536 500Z" />
<glyph unicode="Q" glyph-name="Q" horiz-adv-x="658" d="M600 355Q600 317 598 278T586 201T560 127T515 63Q522 54 528 47T541 30T558 8T582 -23L546 -52L479 33Q449 12 412 0T329 -13Q271 -13 226 7T147 59Q117 88 100 123T73 197T61 276T58 355Q58 393 60
433T72 511T99 585T147 650Q180 682 225 702T329 722Q387 722 432 702T511 650Q541 621 558 586T585 512T597 433T600 355ZM546 355Q546 386 545 421T536 492T514 559T473 616Q445 643 408 657T329 671Q287 671 250 657T185 616Q159 591 144 559T122 492T114 422T112
355Q112 323 113 288T122 218T144 151T185 93Q213 66 250 52T329 38Q396 38 448 73L342 208L378 237L483 104Q505 129 518 160T537 224T544 291T546 355Z" />
<glyph unicode="R" glyph-name="R" horiz-adv-x="656" d="M606 505Q606 435 566 384T459 315L603 0H546L407 302H160V0H108V709H367Q425 709 469 695T544 653T590 589T606 505ZM552 505Q552 581 504 620T367 660H160V350H367Q455 350 503 389T552 505Z" />
<glyph unicode="S" glyph-name="S" horiz-adv-x="622" d="M569 192Q569 145 554 113T513 56Q477 21 426 4T312 -13Q251 -13 200 6T114 63Q88 91 71 127T50 204H104Q108 172 122 144T156 95Q185 66 226 52T312 37Q358 37 401 49T473 90Q492 108 503 133T515 192Q515
217 506 240T478 282T435 313T377 330L245 347Q207 352 176 365T121 400T84 454T71 526Q71 571 88 603T133 660Q166 690 212 706T308 722Q365 722 417 701T500 644Q523 618 537 589T554 521H501Q497 548 488 569T462 611Q439 640 398 656T308 672Q270 672 235 662T173
629Q153 611 139 586T125 526Q125 494 135 472T163 436T203 413T250 402L384 385Q425 380 459 363T517 321T555 262T569 192Z" />
<glyph unicode="T" glyph-name="T" horiz-adv-x="533" d="M292 659V0H240V659H15V709H518V659H292Z" />
<glyph unicode="U" glyph-name="U" horiz-adv-x="693" d="M598 260Q598 201 583 152T536 65T457 8T346 -13Q282 -13 235 7T157 65T111 151T95 260V709H147V259Q147 213 158 173T194 102T256 55T346 37Q398 37 436 54T498 102T534 172T546 259V709H598V260Z" />
<glyph unicode="V" glyph-name="V" horiz-adv-x="573" d="M311 0H262L8 709H63L288 75L510 709H565L311 0Z" />
<glyph unicode="W" glyph-name="W" horiz-adv-x="862" d="M674 0H617L430 621L243 0H188L39 709H88L221 75L408 698H455L643 75L774 709H823L674 0Z" />
<glyph unicode="X" glyph-name="X" horiz-adv-x="572" d="M490 0L285 317L79 0H23L256 359L24 709H81L287 399L493 709H549L316 359L549 0H490Z" />
<glyph unicode="Y" glyph-name="Y" d="M298 281V0H247V281L2 709H58L274 332L490 709H543L298 281Z" />
<glyph unicode="Z" glyph-name="Z" horiz-adv-x="618" d="M50 0V56L501 660H57V709H561V653L109 49H566V0H50Z" />
<glyph unicode="[" glyph-name="bracketleft" horiz-adv-x="321" d="M110 -115V762H286V721H154V-74H286V-115H110Z" />
<glyph unicode="\" glyph-name="backslash" horiz-adv-x="397" d="M325 -13L12 722H59L372 -13H325Z" />
<glyph unicode="]" glyph-name="bracketright" horiz-adv-x="321" d="M35 -115V-74H167V721H35V762H211V-115H35Z" />
<glyph unicode="^" glyph-name="asciicircum" horiz-adv-x="513" d="M388 405L257 672L125 405H70L230 722H285L443 405H388Z" />
<glyph unicode="_" glyph-name="underscore" horiz-adv-x="530" d="M33 -43V0H497V-43H33Z" />
<glyph unicode="`" glyph-name="grave" horiz-adv-x="243" d="M188 560L20 659L47 703L205 587L188 560Z" />
<glyph unicode="a" glyph-name="a" horiz-adv-x="561" d="M513 0Q504 -2 501 -2T489 -3Q466 -3 451 5T426 26T414 57T410 95Q400 68 382 48T339 15T287 -6T230 -13Q194 -13 163 -3T108 28T71 76T58 141Q58 208 104 246T226 290L410 303V352Q410 414 373 440T278
466Q218 466 178 439T134 356H84Q87 394 102 423T143 472T203 502T278 513Q303 513 329 509T378 493T419 465T447 421Q456 398 458 374T460 325V97Q460 71 466 57T499 43Q508 43 513 44V0ZM410 257L231 246Q175 242 142 215T109 141Q109 87 144 60T234 33Q281 33
314 50T369 96T400 159T410 231V257Z" />
<glyph unicode="b" glyph-name="b" horiz-adv-x="584" d="M530 249Q530 184 510 128T448 34Q423 12 391 0T315 -13Q290 -13 265 -6T217 14T177 46T149 88L143 0H99V722H149V416Q159 437 176 455T216 486T263 506T316 513Q360 513 393 499T452 461Q492 423 511
367T530 249ZM479 250Q479 298 466 343T423 420Q403 440 377 452T316 464Q281 464 256 454T211 425Q176 393 162 350T148 250Q148 198 163 154T212 76Q231 58 256 47T314 36Q346 36 370 45T413 71Q448 102 463 149T479 250Z" />
<glyph unicode="c" glyph-name="c" horiz-adv-x="512" d="M468 158Q463 122 447 91T405 36T346 0T273 -13Q226 -13 189 3T126 46Q87 85 72 135T56 250Q56 314 71 364T126 454Q152 480 189 496T273 513Q312 513 345 501T404 467T445 413T466 344H414Q406 396 368
430T273 464Q237 464 210 453T162 421Q128 386 118 343T107 250Q107 201 117 157T162 78Q202 36 273 36Q331 36 368 71T415 158H468Z" />
<glyph unicode="d" glyph-name="d" horiz-adv-x="584" d="M441 0L435 88Q425 65 407 46T367 14T320 -6T269 -13Q226 -13 194 -1T136 34Q94 71 74 127T54 249Q54 311 73 367T132 461Q157 485 190 499T268 513Q295 513 320 506T368 486T407 455T435 416V722H485V0H441ZM436
250Q436 306 422 349T373 425Q354 443 329 453T268 464Q233 464 207 452T161 420Q132 388 119 343T105 250Q105 196 120 149T171 71Q190 54 214 45T270 36Q303 36 328 47T372 76Q406 109 421 153T436 250Z" />
<glyph unicode="e" glyph-name="e" horiz-adv-x="539" d="M488 238H106Q107 194 120 156T158 88Q179 63 208 49T279 35Q346 35 388 79Q402 93 411 110T426 150H478Q473 118 458 92T422 45Q395 18 359 3T279 -13Q225 -13 186 7T120 58Q89 94 73 142T56 248Q56 296
66 341T105 426Q169 513 275 513Q326 513 365 493T432 440T474 362T489 271L488 238ZM438 284Q437 320 426 352T394 410T343 451T275 466Q236 466 205 452T153 412T119 354T107 284H438Z" />
<glyph unicode="f" glyph-name="f" horiz-adv-x="351" d="M349 677Q334 679 317 681T277 683Q182 683 182 586V500H339V454H182V0H132V454H32V500H132V588Q132 616 141 641T167 686T211 717T273 728Q295 728 313 727T349 722V677Z" />
<glyph unicode="g" glyph-name="g" horiz-adv-x="533" d="M514 -75Q514 -104 504 -127T476 -168Q444 -201 391 -214T278 -227Q221 -227 173 -214T92 -169Q75 -152 66 -130T57 -79Q57 -43 77 -11T132 38Q106 46 88 70T69 120Q69 152 84 175T129 215Q106 238 93
268T79 338Q79 378 93 410T133 466T192 501T266 513Q332 513 383 479Q393 511 421 529T484 547Q489 547 493 546T503 545V502Q498 502 494 503T484 504Q457 504 439 490T415 450Q434 428 444 400T455 338Q455 297 440 265T400 211T340 177T266 165Q210 165 166
188Q146 180 131 165T116 126Q116 108 126 97T151 79Q165 74 184 73T218 71H327Q375 71 412 59T474 22Q492 4 503 -19T514 -75ZM405 338Q405 368 394 392T365 433T321 459T266 468Q237 468 212 459T168 433T139 392T128 338Q128 308 138 284T167 244T211 219T266
210Q295 210 320 218T364 243T394 284T405 338ZM464 -75Q464 -54 458 -40T440 -13Q405 24 319 24H187Q155 16 130 -9T104 -79Q104 -99 111 -115T131 -142Q144 -155 162 -162T199 -174T239 -180T279 -182Q298 -182 319 -181T363 -175T404 -161T438 -138Q449 -127
456 -111T464 -75Z" />
<glyph unicode="h" glyph-name="h" horiz-adv-x="583" d="M444 0V327Q444 393 414 429T315 466Q269 466 237 448T186 399T158 329T149 250V0H99V722H149V408Q159 432 177 451T217 484T266 505T318 513Q405 513 449 464T494 330V0H444Z" />
<glyph unicode="i" glyph-name="i" horiz-adv-x="260" d="M95 639V709H165V639H95ZM104 0V500H157V0H104Z" />
<glyph unicode="j" glyph-name="j" horiz-adv-x="284" d="M119 639V709H188V639H119ZM180 -64Q180 -95 173 -121T151 -167T111 -196T51 -207Q29 -207 15 -206T-18 -200V-154Q-3 -156 11 -158T47 -160Q92 -160 111 -135T130 -62V500H180V-64Z" />
<glyph unicode="k" glyph-name="k" horiz-adv-x="536" d="M457 0L281 267L150 124V0H99V722H150V196L431 500H494L317 307L518 0H457Z" />
<glyph unicode="l" glyph-name="l" horiz-adv-x="279" d="M241 0Q233 -2 223 -4T196 -6Q148 -6 122 19T96 100V722H146V102Q146 76 156 59T198 42Q213 42 221 42T241 44V0Z" />
<glyph unicode="m" glyph-name="m" horiz-adv-x="875" d="M736 0V327Q736 392 709 429T617 466Q588 466 567 457T528 432Q499 404 484 366T469 283V0H418V327Q418 392 391 429T298 466Q269 466 248 457T209 432Q175 400 162 352T149 250V0H99V500H143L149 414Q169
457 208 485T301 513Q367 513 405 484T459 405Q479 452 518 482T620 513Q664 513 695 500T747 462T776 404T786 330V0H736Z" />
<glyph unicode="n" glyph-name="n" horiz-adv-x="583" d="M444 0V327Q444 393 414 428T315 464Q269 464 237 446T186 397T158 329T149 250V0H99V500H143L149 409Q159 433 177 452T217 484T266 505T318 513Q405 513 449 464T494 330V0H444Z" />
<glyph unicode="o" glyph-name="o" horiz-adv-x="546" d="M490 250Q490 186 474 136T419 47Q393 21 357 4T273 -13Q226 -13 190 4T127 47Q88 86 72 136T56 250Q56 314 72 364T127 453Q153 479 189 496T273 513Q320 513 356 496T419 453Q458 414 474 364T490 250ZM439
250Q439 299 428 342T383 420Q363 440 336 452T273 464Q237 464 210 452T163 420Q129 385 118 342T107 250Q107 201 118 158T163 80Q183 60 210 48T273 36Q309 36 336 48T383 80Q417 115 428 158T439 250Z" />
<glyph unicode="p" glyph-name="p" horiz-adv-x="584" d="M530 251Q530 189 511 133T452 39Q427 15 394 1T316 -13Q289 -13 264 -6T216 14T177 45T149 84V-200H99V500H143L149 412Q159 435 177 454T217 486T264 506T315 513Q358 513 390 501T448 466Q490 429 510
373T530 251ZM479 250Q479 304 464 351T413 429Q394 446 370 455T314 464Q281 464 256 453T212 424Q178 391 163 347T148 250Q148 194 162 151T211 75Q230 57 255 47T316 36Q351 36 377 48T423 80Q452 112 465 157T479 250Z" />
<glyph unicode="q" glyph-name="q" horiz-adv-x="584" d="M435 -200V84Q425 63 408 45T368 14T321 -6T268 -13Q224 -13 191 1T132 39Q92 77 73 133T54 251Q54 316 74 372T136 466Q161 488 193 500T269 513Q294 513 319 506T367 486T407 454T435 412L441 500H485V-200H435ZM436
250Q436 302 421 346T372 424Q353 442 328 453T270 464Q238 464 214 455T171 429Q136 398 121 351T105 250Q105 202 118 157T161 80Q181 60 207 48T268 36Q303 36 328 46T373 75Q408 107 422 150T436 250Z" />
<glyph unicode="r" glyph-name="r" horiz-adv-x="381" d="M357 452Q345 455 333 456T308 457Q261 457 231 438T182 388T157 318T149 240V0H99V500H143L149 399Q166 451 210 478T308 505Q320 505 332 505T357 502V452Z" />
<glyph unicode="s" glyph-name="s" horiz-adv-x="512" d="M456 139Q456 86 422 47Q395 17 353 2T260 -13Q209 -13 167 3T96 51Q75 75 66 98T54 152H105Q109 108 142 75Q164 54 194 45T260 35Q299 35 329 44T378 72Q392 86 398 100T405 136Q405 170 382 195T313
227L216 240Q185 244 155 255T103 290Q75 323 75 369Q75 399 86 423T118 466Q145 491 180 502T255 513Q300 513 340 499T406 454Q423 434 433 410T444 362H394Q392 374 387 391T369 422Q352 442 323 454T255 466Q197 466 165 443Q126 415 126 374Q126 342 146 320T223
290L318 277Q353 272 379 259T422 226T447 185T456 139Z" />
<glyph unicode="t" glyph-name="t" horiz-adv-x="370" d="M336 5Q315 0 295 -3T253 -7Q183 -7 154 33T124 139V454H24V500H124V638L174 650V500H329V454H174V141Q174 119 177 101T190 69T216 48T257 40Q277 40 296 42T336 49V5Z" />
<glyph unicode="u" glyph-name="u" horiz-adv-x="583" d="M440 1L434 92Q423 68 406 49T366 16T317 -5T265 -12Q178 -12 134 37T89 171V501H139V174Q139 108 169 73T268 37Q314 37 346 55T397 103T425 171T434 251V501H484V1H440Z" />
<glyph unicode="v" glyph-name="v" horiz-adv-x="467" d="M263 0H212L14 500H71L239 71L400 500H453L263 0Z" />
<glyph unicode="w" glyph-name="w" horiz-adv-x="746" d="M579 0H519L372 428L226 0H167L43 500H91L199 60L347 493H400L547 64L656 500H703L579 0Z" />
<glyph unicode="x" glyph-name="x" horiz-adv-x="472" d="M390 0L236 223L81 0H22L202 259L25 506H85L237 292L390 506H448L270 259L450 0H390Z" />
<glyph unicode="y" glyph-name="y" horiz-adv-x="479" d="M235 -107Q216 -156 184 -182T100 -209Q85 -209 73 -208T53 -205Q43 -203 37 -200V-158Q47 -160 58 -161Q76 -164 98 -164Q134 -164 155 -143T189 -90L221 -8L16 500H70L245 56L413 500H467L235 -107Z" />
<glyph unicode="z" glyph-name="z" horiz-adv-x="492" d="M61 0V56L381 453H61V500H435V445L115 48H438V0H61Z" />
<glyph unicode="{" glyph-name="braceleft" horiz-adv-x="351" d="M305 -116Q236 -116 200 -79T163 27V206Q163 227 155 243T132 272T99 291T60 300V347Q80 349 98 356T131 374T154 402T163 440V619Q163 688 199 725T305 762H331V720H305Q253 720 231 695T209
619V440Q209 397 182 366T115 324Q155 313 182 281T209 206V27Q209 -24 231 -49T305 -74H331V-116H305Z" />
<glyph unicode="|" glyph-name="bar" horiz-adv-x="258" d="M108 -115V761H150V-115H108Z" />
<glyph unicode="}" glyph-name="braceright" horiz-adv-x="351" d="M291 300Q271 298 253 291T220 272T197 244T188 206V27Q188 -42 152 -79T46 -116H20V-74H46Q98 -74 120 -49T142 27V206Q142 249 169 281T236 324Q196 335 169 366T142 440V619Q142 670 120 695T46
720H20V762H46Q115 762 151 725T188 619V440Q188 419 196 403T219 375T252 356T291 347V300Z" />
<glyph unicode="~" glyph-name="asciitilde" horiz-adv-x="620" d="M537 311Q509 284 479 267T408 249Q381 249 357 258T308 279Q285 290 261 299T212 309Q182 309 159 296T115 263L83 300Q111 327 141 344T213 361Q240 361 264 353T313 333Q336 322 359 313T408
304Q438 304 460 315T505 347L537 311Z" />
</font>
</defs>
</svg>
