<?xml version="1.0" standalone="no"?> <!DOCTYPE svg PUBLIC "-//W3C//DTD SVG 1.0//EN" "http://www.w3.org/TR/2001/REC-SVG-20010904/DTD/svg10.dtd" > <svg xmlns="http://www.w3.org/2000/svg" width="100%" height="100%">
<defs >
<font id="BELLO-SMCP" horiz-adv-x="1594" ><font-face
    font-family="Bello"
    units-per-em="4096"
    panose-1="2 0 5 5 2 0 0 2 0 3"
    ascent="3072"
    descent="-1024"
    alphabetic="0" />
<missing-glyph horiz-adv-x="1663" d="M721 381V598H901V381H721ZM729 758L725 811Q725 901 734 967T766 1073Q788 1116 825 1164T918 1266Q970 1317 1001 1354T1049 1421T1071 1480T1077 1540Q1077 1597 1057 1647T1004 1734T926 1793T831 1815Q780 1815 736
1798T657 1744T598 1647T565 1503L401 1532Q413 1646 451 1729T546 1866T679 1947T840 1974Q926 1974 999 1944T1126 1858T1210 1724T1241 1548Q1241 1496 1232 1451T1200 1360T1138 1267T1036 1159Q974 1110 940 1068T897 991Q891 960 886 902T881 758H729ZM1499
160V2163H160V160H1499ZM1663 2331V0H0V2331H1663Z" />
<glyph unicode=" " glyph-name="space" horiz-adv-x="778" />
<glyph unicode="!" glyph-name="exclam" horiz-adv-x="1245" d="M1004 897Q995 893 977 889T938 880T895 874T856 872Q772 872 700 884T575 927T488 1009T446 1139Q437 1219 432 1308T425 1483T423 1647T422 1782Q391 1816 370 1853T348 1946Q348 1993 360 2045T394
2147T450 2243T527 2324T623 2379T737 2400Q835 2400 923 2374T1079 2301T1185 2191T1225 2056Q1225 2010 1219 1974T1203 1899T1180 1813T1151 1696Q1131 1608 1112 1508T1075 1303T1039 1095T1004 897ZM1090 369Q1090 267 1063 191T988 65T879 -11T745 -37Q625
-37 548 -7T427 68T365 167T348 266Q348 378 389 485T520 680Q655 680 761 659T940 597T1051 499T1090 369Z" />
<glyph unicode="&quot;" glyph-name="quotedbl" horiz-adv-x="1982" d="M328 1487Q359 1617 376 1762T393 2044Q393 2073 393 2114T392 2201T387 2289T377 2367Q423 2433 489 2466T651 2499Q746 2499 817 2468T935 2385T1005 2266T1028 2126Q1028 2059 1008 1977T953
1811T874 1648T782 1507Q764 1484 740 1462T684 1423T617 1395T537 1384Q501 1384 467 1392T403 1414T354 1447T328 1487ZM1237 1499Q1268 1632 1281 1770T1294 2048Q1294 2077 1294 2119T1293 2207T1288 2297T1278 2376Q1324 2444 1392 2477T1556 2511Q1655 2511
1721 2479T1827 2394T1884 2273T1901 2130Q1901 2061 1888 1981T1850 1820T1787 1663T1700 1524Q1682 1499 1657 1476T1601 1436T1533 1408T1450 1397Q1415 1397 1380 1405T1315 1426T1264 1459T1237 1499Z" />
<glyph unicode="#" glyph-name="numbersign" horiz-adv-x="2118" d="M729 1589Q754 1738 781 1897T827 2208Q849 2220 877 2226T934 2232Q985 2232 1026 2212T1097 2153T1143 2060T1159 1937Q1159 1906 1154 1868T1142 1787T1127 1703T1110 1622L1331 1642Q1346
1720 1359 1791T1382 1930T1398 2069T1405 2216Q1430 2235 1469 2246T1552 2257Q1608 2257 1654 2241T1734 2194T1787 2116T1806 2007Q1806 1978 1800 1941T1785 1864T1765 1780T1745 1696Q1835 1714 1903 1735T2028 1782Q2071 1763 2098 1725T2126 1622Q2126 1515
2014 1449T1663 1364L1573 1069Q1616 1074 1652 1078T1721 1090T1785 1105T1851 1126Q1889 1102 1903 1067T1917 995Q1917 946 1896 904T1824 831T1689 782T1479 762Q1456 671 1439 602T1410 471T1391 352T1380 225Q1365 207 1343 196T1286 184Q1246 184 1211 200T1150
245T1109 316T1094 406Q1094 440 1097 474T1105 548T1119 634T1139 737L852 721Q829 629 814 564T788 447T771 353T762 262Q746 250 724 240T668 229Q632 229 601 243T547 284T510 351T496 446Q496 490 507 555T541 713H303Q285 725 276 749T266 795Q266 838 280
871T331 927T434 965T602 983Q613 1032 621 1073T638 1154T655 1233T672 1319L414 1307Q401 1319 391 1343T381 1389Q381 1421 395 1453T449 1512T555 1559T729 1589ZM1024 1339L934 1012L1204 1028L1286 1348L1024 1339Z" />
<glyph unicode="$" glyph-name="dollar" horiz-adv-x="1589" d="M1110 2396Q1110 2347 1101 2276T1069 2109Q1174 2094 1255 2059T1393 1975T1478 1869T1507 1749Q1507 1610 1431 1529T1212 1438Q1126 1524 1030 1568T831 1622Q830 1610 829 1602T828 1586T827
1571T827 1552Q827 1528 831 1508T849 1466T889 1421T960 1364T1071 1289T1229 1188Q1316 1133 1375 1077T1471 960T1524 834T1540 692Q1540 597 1510 499T1420 314T1271 162T1061 66Q1061 -16 1061 -91T1063 -230T1066 -341T1069 -418Q1032 -449 984 -462T877
-475Q825 -475 783 -459T712 -412T667 -341T651 -250Q651 -200 657 -123T676 45Q564 57 473 88T318 173T219 302T184 479Q184 548 205 605T263 702T350 764T459 786Q477 786 498 783T541 774Q592 685 636 627T719 534T794 485T864 471Q887 471 903 479T930 500T945
531T950 569Q950 586 947 602T930 637T890 682T817 741T703 822T537 930Q462 978 410 1034T326 1154T280 1292T266 1446Q266 1554 291 1647T372 1821T513 1967T721 2085Q721 2163 721 2236T719 2371T716 2480T713 2556Q747 2584 800 2602T909 2621Q958 2621 995
2604T1058 2556T1097 2485T1110 2396Z" />
<glyph unicode="%" glyph-name="percent" horiz-adv-x="3068" d="M2056 2396Q2072 2402 2091 2403T2126 2404Q2188 2404 2241 2385T2335 2327T2398 2233T2421 2105Q2421 2060 2418 2020T2406 1938T2378 1845T2327 1730T2248 1579T2135 1381T1980 1122T1778 791Q1707
676 1653 580T1559 401T1490 243T1444 97T1414 -45T1397 -193Q1372 -220 1329 -235T1229 -250Q1175 -250 1128 -229T1046 -167T991 -69T971 61Q971 100 977 140T997 229T1036 336T1096 468T1183 634T1298 844Q1359 952 1410 1043T1505 1214T1588 1365T1662 1503T1731
1635T1798 1769Q1749 1765 1688 1761T1561 1754T1425 1749T1290 1745Q1293 1714 1295 1681T1298 1614Q1298 1440 1267 1293T1168 1037T991 868T729 807Q620 807 531 838T379 942T281 1135T246 1434Q246 1558 263 1655T311 1827T387 1955T487 2044Q531 2143 607
2194T782 2245Q906 2245 998 2199T1159 2068Q1232 2069 1309 2072T1464 2081T1615 2092T1752 2105T1868 2119T1954 2134Q1979 2193 2003 2257T2056 2396ZM2556 1298Q2670 1298 2766 1251T2931 1122T3040 934T3080 709Q3080 523 3043 380T2932 140T2754 -7T2511
-57Q2406 -57 2316 -23T2159 86T2054 280T2015 569Q2015 654 2031 732T2078 879T2155 1003T2261 1098Q2304 1197 2380 1247T2556 1298ZM705 1868Q700 1831 695 1781T686 1681T679 1587T676 1516Q676 1416 680 1347T697 1236T729 1174T782 1155Q805 1155 821 1170T848
1211T867 1269T878 1333T883 1397T885 1450Q885 1525 873 1591T837 1711T780 1805T705 1868ZM2478 922Q2463 847 2456 776T2449 651Q2449 551 2455 483T2474 372T2510 310T2564 291Q2598 291 2618 324T2648 405T2662 502T2666 586Q2666 648 2655 697T2621 787T2563
861T2478 922Z" />
<glyph unicode="&amp;" glyph-name="ampersand" horiz-adv-x="2621" d="M528 1724Q528 1881 568 1999T679 2198T845 2324T1049 2380Q1114 2417 1197 2443T1376 2470Q1488 2470 1568 2442T1701 2361T1777 2235T1802 2073Q1802 1973 1779 1893T1713 1758T1613 1672T1483
1642Q1468 1642 1450 1643T1413 1648T1379 1655T1352 1663Q1341 1752 1326 1804T1285 1885T1224 1929T1135 1958Q1124 1926 1117 1889T1106 1816T1100 1748T1098 1692Q1098 1632 1102 1586T1115 1501T1137 1426T1167 1348Q1250 1336 1308 1319T1404 1275T1458 1212T1475
1122Q1475 1078 1466 1030T1440 933T1401 842T1353 765T1299 711T1241 688Q1167 688 1088 736T922 893Q903 834 894 766T885 623Q885 454 978 373T1249 291Q1267 291 1301 293T1372 300T1443 308T1495 315Q1520 526 1554 745T1626 1196Q1644 1313 1673 1386T1742
1500T1830 1558T1937 1577Q1984 1611 2040 1629T2154 1647Q2253 1647 2338 1609T2486 1504T2585 1347T2621 1151Q2621 991 2572 838T2427 540T2190 262T1864 8Q1848 -131 1817 -257T1742 -491T1637 -686T1503 -835T1339 -930T1143 -963Q1108 -963 1069 -960T992
-947T919 -919T858 -871T815 -798T799 -696Q799 -662 807 -622T827 -553Q975 -542 1082 -510T1262 -424T1375 -299T1430 -135Q1410 -143 1374 -151T1294 -165T1208 -176T1130 -180Q912 -180 747 -139T470 -6T303 228T246 573Q246 679 274 777T356 960T485 1114T659
1233Q632 1278 609 1327T568 1436T540 1566T528 1724ZM1884 434Q1940 505 1990 573T2079 709T2140 846T2163 987Q2163 1026 2153 1057T2119 1115T2061 1167T1974 1221Q1965 1138 1956 1049T1936 863T1912 660T1884 434Z" />
<glyph unicode="&apos;" glyph-name="quotesingle" horiz-adv-x="1110" d="M328 1487Q359 1617 376 1762T393 2044Q393 2073 393 2114T392 2201T387 2289T377 2367Q423 2433 489 2466T651 2499Q746 2499 817 2468T935 2385T1005 2266T1028 2126Q1028 2059 1008
1977T953 1811T874 1648T782 1507Q764 1484 740 1462T684 1423T617 1395T537 1384Q501 1384 467 1392T403 1414T354 1447T328 1487Z" />
<glyph unicode="(" glyph-name="parenleft" horiz-adv-x="1516" d="M1024 651Q1024 525 1034 427T1069 251T1135 109T1238 -10T1384 -120T1581 -233Q1581 -276 1567 -329T1515 -430T1414 -509T1249 -541Q1136 -541 1031 -510T835 -417T670 -264T542 -56T459 206T430
520Q430 757 439 976T469 1391T520 1753T594 2052Q632 2165 688 2259T815 2428T965 2559T1132 2652T1306 2709T1479 2728Q1531 2728 1572 2713T1641 2673T1685 2616T1700 2548Q1700 2523 1697 2499T1683 2454Q1577 2399 1493 2351T1342 2246T1226 2117T1139 1942Q1103
1842 1081 1709T1046 1413T1029 1059T1024 651Z" />
<glyph unicode=")" glyph-name="parenright" horiz-adv-x="1516" d="M737 1532Q737 1658 727 1756T692 1932T626 2074T523 2193T377 2303T180 2417Q180 2460 194 2513T246 2613T348 2692T512 2724Q683 2724 832 2654T1092 2447T1267 2114T1331 1663Q1331 1426
1322 1207T1292 792T1241 430T1167 131Q1110 -38 1013 -164T796 -375T544 -502T283 -545Q231 -545 190 -530T120 -490T76 -433T61 -365Q61 -340 65 -316T78 -270Q184 -215 268 -167T419 -62T536 66T623 242Q658 342 680 474T715 770T732 1124T737 1532Z" />
<glyph unicode="*" glyph-name="asterisk" horiz-adv-x="1966" d="M1536 2417Q1536 2336 1500 2215T1393 1917Q1442 1935 1500 1959T1615 2010T1722 2065T1806 2122Q1884 2094 1925 2034T1966 1896Q1966 1833 1934 1783T1833 1693T1660 1621T1409 1565Q1443 1502
1475 1451T1541 1359T1613 1284T1696 1221Q1705 1196 1708 1171T1712 1126Q1712 1069 1684 1020T1609 933T1505 874T1389 852Q1320 852 1264 882T1160 974T1069 1134T983 1364Q928 1301 891 1256T829 1170T786 1087T754 987Q723 965 683 954T602 942Q545 942 501
960T425 1009T377 1084T360 1176Q360 1230 380 1278T442 1377T551 1486T709 1618Q598 1707 507 1756T336 1827Q311 1861 297 1905T283 2011Q283 2073 306 2126T367 2220T455 2283T561 2306Q604 2306 646 2289T736 2233T842 2134T975 1987Q981 2028 984 2081T989
2188T991 2292T991 2380Q991 2426 988 2487T979 2605Q1010 2658 1070 2689T1217 2720Q1295 2720 1354 2695T1454 2627T1515 2530T1536 2417Z" />
<glyph unicode="+" glyph-name="plus" horiz-adv-x="1991" d="M344 836Q333 848 325 865T311 903T302 944T299 983Q299 1054 320 1111T385 1210T500 1276T668 1303Q739 1306 787 1306T860 1307Q865 1388 868 1468T875 1619T879 1747T881 1839Q912 1867 970 1881T1094
1896Q1174 1896 1238 1873T1348 1809T1417 1708T1442 1577Q1442 1534 1431 1471T1405 1327Q1560 1336 1674 1345T1847 1364Q1897 1314 1917 1258T1937 1126Q1937 1054 1910 995T1823 895T1668 830T1438 807H1319Q1297 668 1282 538T1257 299Q1239 284 1194 273T1094
262Q1028 262 976 282T887 338T831 426T811 541Q811 561 812 593T816 664T821 745T827 827Q760 829 693 830T564 833T446 835T344 836Z" />
<glyph unicode="," glyph-name="comma" horiz-adv-x="1278" d="M328 270Q328 494 409 601T647 709Q747 709 832 669T980 562T1078 406T1114 221Q1114 137 1094 53T1037 -110T948 -255T834 -372T699 -450T549 -479Q456 -479 398 -438T328 -315Q351 -280 378 -229T429
-123T474 -19T504 66Q461 84 428 103T373 146T340 200T328 270Z" />
<glyph unicode="-" glyph-name="hyphen" horiz-adv-x="1573" d="M623 1282Q803 1294 926 1304T1134 1324T1272 1343T1364 1364Q1417 1330 1452 1274T1487 1147Q1487 1064 1460 997T1372 882T1217 808T987 782Q951 782 902 785T796 793T680 806T563 821T456 837T369
852Q347 877 333 923T319 1016Q319 1073 335 1119T388 1199T482 1255T623 1282Z" />
<glyph unicode="." glyph-name="period" horiz-adv-x="1106" d="M246 270Q246 405 270 495T336 639T437 715T565 737Q693 737 776 705T909 625T979 522T999 418Q999 303 948 193T803 -8Q788 -10 766 -10T723 -11T682 -12T651 -12Q540 -12 463 9T338 67T268 157T246 270Z" />
<glyph unicode="/" glyph-name="slash" horiz-adv-x="1634" d="M1270 2396Q1285 2402 1304 2403T1339 2404Q1401 2404 1454 2385T1548 2327T1611 2233T1634 2105Q1634 2051 1625 1994T1590 1865T1522 1698T1409 1475T1244 1174T1016 778Q941 649 884 545T785 354T712
195T662 57T630 -69T610 -193Q586 -220 542 -235T442 -250Q388 -250 341 -229T259 -167T204 -69T184 61Q184 100 189 141T209 230T247 337T307 470T394 636T512 844Q675 1119 799 1350T1016 1774T1171 2120T1270 2396Z" />
<glyph unicode="0" glyph-name="zero" horiz-adv-x="1843" d="M1053 2241Q1248 2241 1404 2172T1669 1974T1837 1662T1896 1249Q1896 1064 1874 897T1805 586T1685 326T1511 129T1278 3T983 -41Q866 -41 763 -20T574 50T419 176T303 364T230 622T205 958Q205 1158
230 1311T304 1580T423 1778T582 1917Q650 2077 773 2159T1053 2241ZM913 1679Q904 1616 898 1535T888 1372T883 1217T881 1098Q881 930 888 813T914 621T970 513T1065 479Q1103 479 1130 505T1176 575T1206 672T1223 783T1231 891T1233 983Q1233 1112 1210 1221T1144
1417T1043 1570T913 1679Z" />
<glyph unicode="1" glyph-name="one" horiz-adv-x="1401" d="M590 1188Q534 1157 489 1142T393 1126Q276 1126 212 1191T147 1376Q186 1408 240 1462T357 1585T488 1734T624 1899T755 2067T872 2228Q891 2231 918 2233T971 2236Q1054 2236 1114 2203T1213 2113T1271
1981T1290 1823Q1290 1822 1290 1817T1290 1795T1290 1742T1288 1645T1286 1491T1284 1266T1280 958T1274 553Q1363 534 1402 487T1442 377Q1442 274 1408 202T1309 84T1152 17T942 -4Q925 -4 889 -4T803 -4T697 -3T581 -1T467 1T366 3T290 5T250 8Q216 48 200
99T184 209Q184 263 206 309T276 392T396 457T573 500Q573 640 576 764T582 984Q586 1095 590 1188Z" />
<glyph unicode="2" glyph-name="two" horiz-adv-x="1614" d="M1651 1552Q1651 1426 1608 1312T1479 1080T1264 835T963 557Q1000 554 1039 550T1106 545Q1148 545 1186 552T1262 575T1341 617T1430 684Q1490 669 1535 636T1612 560T1659 468T1675 369Q1675 277
1637 203T1528 76T1356 -5T1126 -33Q1071 -33 999 -31T845 -24T679 -14T511 -1T354 15T221 33Q197 68 182 100T158 162T146 222T143 283Q143 363 162 424T218 530T307 606T426 655Q532 768 613 861T754 1032T855 1175T920 1296T956 1403T967 1503Q967 1589 897
1639T705 1708Q697 1668 691 1628T680 1539T671 1431T664 1294Q658 1290 639 1285T595 1276T544 1269T496 1266Q436 1266 381 1290T282 1361T214 1476T188 1634Q188 1765 222 1863T319 2028T470 2131T668 2171Q711 2188 750 2200T827 2220T906 2232T991 2236Q1100
2236 1191 2210T1355 2136T1483 2025T1576 1884T1632 1724T1651 1552Z" />
<glyph unicode="3" glyph-name="three" horiz-adv-x="1663" d="M909 1245Q934 1279 953 1309T985 1369T1005 1432T1012 1503Q1012 1554 990 1589T929 1651T843 1695T741 1729Q732 1700 725 1669T713 1599T702 1512T692 1401Q686 1397 669 1392T628 1382T580 1375T532
1372Q469 1372 415 1395T320 1463T256 1571T233 1712Q233 1949 343 2060T680 2171Q726 2188 764 2200T839 2220T913 2232T995 2236Q1144 2236 1265 2191T1472 2068T1604 1882T1651 1651Q1651 1579 1631 1511T1573 1376T1483 1245T1368 1114Q1540 1016 1622 891T1704
627Q1704 484 1646 360T1478 143T1213 -3T864 -57Q711 -57 583 -28T361 56T216 186T164 356Q164 439 186 504T245 615T326 687T418 717Q475 653 537 598T661 503T783 441T893 418Q919 418 941 433T979 473T1003 532T1012 602Q1012 650 977 685T876 749T718 805T512
860Q500 910 500 975Q500 1116 600 1180T909 1245Z" />
<glyph unicode="4" glyph-name="four" horiz-adv-x="1774" d="M1675 803Q1728 784 1761 750T1794 664Q1794 589 1759 509T1671 344V57Q1648 37 1613 18T1535 -16T1443 -40T1343 -49Q1243 -49 1179 -28T1076 38T1023 154T1008 328L279 373Q241 435 217 519T193
696Q193 773 215 879T299 1118Q382 1298 455 1449T596 1730T727 1967T852 2167Q886 2178 934 2188T1036 2208T1148 2222T1257 2228Q1368 2228 1447 2195T1578 2102T1654 1962T1679 1786L1675 803ZM1020 803L1036 1704L717 811L1020 803Z" />
<glyph unicode="5" glyph-name="five" horiz-adv-x="1626" d="M819 1352Q999 1344 1132 1315T1359 1239T1513 1134T1607 1005T1654 861T1667 709Q1667 552 1618 413T1465 170T1201 4T819 -57Q653 -57 531 -25T328 65T208 199T168 365Q168 433 186 495T239 606T325
687T442 725Q562 574 669 496T885 418Q937 418 970 460T1004 586Q1004 643 966 691T849 782T648 864T356 942Q336 971 321 1016T296 1112T280 1212T274 1298Q274 1329 275 1381T277 1496T281 1628T285 1760T288 1877T291 1962Q293 2027 307 2072T347 2147T407 2190T483
2204Q502 2204 544 2204T642 2202T764 2200T893 2197T1016 2196T1118 2195Q1233 2195 1339 2207T1544 2241Q1567 2226 1586 2201T1618 2145T1639 2078T1647 2003Q1647 1909 1616 1830T1530 1694T1397 1605T1225 1573Q1168 1573 1112 1574T1003 1578T903 1585T819
1593V1352Z" />
<glyph unicode="6" glyph-name="six" horiz-adv-x="1700" d="M872 889Q872 790 877 720T893 600T924 521T969 470T1032 436T1114 410Q1176 526 1176 680Q1176 718 1159 747T1106 801T1012 846T872 889ZM872 1257Q901 1265 943 1271T1032 1281T1127 1288T1217 1290Q1262
1290 1320 1283T1438 1257T1556 1202T1660 1111T1733 974T1761 782Q1761 572 1696 417T1519 159T1262 6T954 -45Q852 -45 757 -22T577 52T424 186T306 387T229 662T201 1020Q201 1230 225 1404T305 1711T450 1931T668 2056Q725 2102 784 2137T908 2197T1047 2233T1204
2245Q1304 2245 1394 2215T1552 2130T1660 2000T1700 1835Q1700 1748 1676 1679T1609 1563T1505 1491T1372 1466Q1320 1466 1272 1473T1192 1495Q1180 1560 1155 1603T1095 1675T1015 1723T918 1757Q906 1712 897 1647T883 1512T875 1375T872 1257Z" />
<glyph unicode="7" glyph-name="seven" horiz-adv-x="1642" d="M684 2220Q745 2220 818 2218T973 2211T1141 2202T1314 2193T1484 2186T1642 2183Q1664 2163 1682 2133T1715 2066T1737 1991T1745 1913Q1745 1855 1736 1802T1709 1693T1661 1577T1589 1442Q1496
1279 1430 1149T1319 907T1247 695T1206 491T1188 275T1184 25Q1167 11 1141 -2T1081 -25T1007 -42T922 -49Q798 -49 706 -14T554 85T464 236T434 426Q434 498 470 596T589 833T807 1163T1143 1610Q1086 1616 1014 1621T872 1630T741 1636T647 1638Q638 1589 630
1515T614 1352Q596 1342 563 1335T483 1327Q422 1327 367 1353T270 1428T205 1549T180 1712Q180 1826 214 1919T312 2079T470 2183T684 2220Z" />
<glyph unicode="8" glyph-name="eight" horiz-adv-x="1737" d="M1765 627Q1765 479 1713 356T1556 143T1292 5T918 -45Q734 -45 593 1T357 131T213 330T164 582Q164 677 185 745T244 872T335 985T451 1110Q405 1164 371 1215T313 1322T278 1441T266 1581Q266 1647
279 1712T322 1837T404 1948T532 2036Q589 2096 644 2136T758 2200T885 2234T1036 2245Q1179 2245 1305 2205T1525 2089T1674 1908T1729 1671Q1729 1508 1669 1360T1491 1061Q1577 990 1630 936T1714 833T1754 736T1765 627ZM975 422Q1037 422 1075 453T1114 537Q1114
574 1102 600T1054 658T957 733T795 848Q784 816 777 792T766 746T760 701T758 647Q758 598 772 557T814 485T882 439T975 422ZM1098 1282Q1110 1325 1119 1358T1134 1421T1144 1476T1147 1532Q1147 1572 1136 1604T1095 1665T1014 1717T885 1765Q863 1728 854
1684T844 1589Q844 1554 853 1525T889 1462T967 1386T1098 1282Z" />
<glyph unicode="9" glyph-name="nine" horiz-adv-x="1708" d="M1085 1139Q1085 1302 1076 1407T1043 1579T982 1682T885 1741Q838 1676 819 1603T799 1458Q799 1347 868 1269T1085 1139ZM778 -45Q625 -45 511 -16T322 66T209 195T172 365Q172 512 236 592T414
696Q468 635 527 590T647 514T771 470T893 455Q936 455 967 478T1019 542T1053 640T1073 762Q1036 759 1000 757T930 754Q769 754 632 799T396 929T240 1134T184 1405Q184 1615 274 1777T532 2044Q615 2148 721 2194T967 2241Q1062 2241 1157 2224T1341 2165T1505
2055T1637 1884T1725 1642T1757 1319Q1757 981 1698 726T1518 299T1213 42T778 -45Z" />
<glyph unicode=":" glyph-name="colon" horiz-adv-x="1180" d="M246 393Q246 528 270 618T336 762T437 838T565 860Q650 860 715 845T828 805T909 747T962 679T990 608T999 541Q999 423 948 313T803 111Q788 109 766 108T723 107T682 106T651 106Q540 106 463
127T338 186T268 277T246 393ZM319 1589Q319 1679 337 1749T386 1870T459 1957T546 2015T642 2046T737 2056Q839 2056 904 2031T1006 1961T1058 1860T1073 1737Q1073 1620 1033 1520T897 1331Q880 1324 855 1317T800 1303T736 1294T668 1290Q557 1290 489 1313T383
1376T332 1471T319 1589Z" />
<glyph unicode=";" glyph-name="semicolon" horiz-adv-x="1286" d="M369 1589Q369 1724 407 1814T506 1958T640 2034T782 2056Q885 2056 951 2031T1055 1961T1107 1860T1122 1737Q1122 1620 1080 1520T942 1331Q925 1324 900 1317T845 1303T781 1294T713 1290Q602
1290 535 1313T431 1376T382 1471T369 1589ZM328 270Q328 494 409 601T647 709Q747 709 832 669T980 562T1078 406T1114 221Q1114 137 1094 53T1037 -110T948 -255T834 -372T699 -450T549 -479Q456 -479 398 -438T328 -315Q351 -280 378 -229T429 -123T474 -19T504
66Q461 84 428 103T373 146T340 200T328 270Z" />
<glyph unicode="&lt;" glyph-name="less" horiz-adv-x="1683" d="M315 852Q300 892 294 936T287 1024Q287 1081 303 1135T356 1245T449 1358T590 1479Q731 1585 845 1672T1049 1830T1206 1956T1323 2052Q1374 2038 1413 2013T1478 1954T1518 1880T1532 1794Q1532
1724 1499 1648T1400 1487T1239 1307T1016 1102Q1156 1010 1251 931T1406 780T1490 644T1516 516Q1516 430 1488 360T1410 240T1295 163T1155 135Q1124 135 1098 138T1053 147Q1017 204 964 271T825 423T616 613T315 852Z" />
<glyph unicode="=" glyph-name="equal" horiz-adv-x="1921" d="M635 1655Q830 1670 974 1683T1224 1709T1403 1732T1527 1754T1615 1776T1683 1798Q1714 1769 1735 1739T1771 1674T1791 1602T1798 1520Q1798 1440 1769 1375T1675 1264T1508 1192T1262 1167Q1184
1167 1079 1171T857 1179T622 1188T397 1192Q373 1229 357 1280T340 1384Q340 1444 356 1492T409 1574T501 1629T635 1655ZM709 885Q932 896 1092 908T1363 934T1543 962T1655 991Q1707 951 1738 884T1769 733Q1769 653 1743 591T1659 487T1507 423T1278 401Q1226
401 1159 402T1017 405T860 409T696 413T535 416T385 418Q363 443 352 485T340 565Q340 636 360 693T425 792T540 858T709 885Z" />
<glyph unicode="&gt;" glyph-name="greater" horiz-adv-x="1683" d="M1565 1311Q1580 1270 1586 1226T1593 1139Q1593 1082 1577 1028T1524 918T1431 805T1290 684Q1149 578 1035 491T831 333T674 207T557 111Q506 125 467 150T402 209T362 283T348 369Q348 440
381 516T480 676T641 856T864 1061Q725 1153 630 1232T475 1383T391 1519T365 1647Q365 1733 393 1803T471 1923T585 2000T725 2028Q756 2028 782 2025T827 2015Q851 1977 882 1935T956 1845T1055 1740T1185 1619T1353 1477T1565 1311Z" />
<glyph unicode="?" glyph-name="question" horiz-adv-x="1438" d="M1511 1712Q1511 1630 1498 1564T1456 1443T1377 1340T1257 1246T1089 1153T868 1053Q853 1009 838 950T811 836Q780 820 746 814T672 807Q606 807 549 842T450 933T384 1057T360 1192Q360 1230
372 1261T411 1317T478 1365T573 1409Q673 1449 734 1474T829 1518T874 1552T885 1585Q885 1619 857 1656T768 1726T614 1788T389 1831Q352 1871 336 1924T319 2036Q319 2104 347 2164T434 2269T580 2340T786 2367Q893 2367 988 2341T1163 2268T1308 2158T1418
2022T1487 1870T1511 1712ZM328 315Q328 495 413 585T664 676Q744 676 811 649T926 576T1001 469T1028 340Q1028 241 993 161T893 4Q878 -2 852 -7T795 -16T730 -22T664 -25Q562 -25 497 6T395 87T343 196T328 315Z" />
<glyph unicode="@" glyph-name="at" horiz-adv-x="2945" d="M2310 1470Q2310 1604 2262 1721T2119 1926T1885 2063T1565 2114Q1451 2114 1343 2100T1114 2048Q1050 1922 1001 1780T919 1491T869 1198T852 918Q852 698 903 540T1047 280T1272 130T1565 82Q1654
82 1738 95T1897 130T2038 182T2154 246Q2231 224 2266 171T2302 49Q2302 -42 2236 -128T2053 -283T1779 -392T1438 -434Q1195 -434 987 -360T626 -134T386 248T299 791Q299 1081 335 1311T437 1717T596 2015T803 2212Q883 2333 971 2416T1165 2550T1403 2623T1700
2646Q1972 2646 2184 2568T2541 2348T2763 2012T2839 1585Q2839 1411 2805 1253T2706 958T2551 712T2348 523T2104 403T1827 360Q1676 360 1548 397T1326 511T1179 709T1126 995Q1126 1101 1135 1199T1167 1383T1228 1540T1322 1662T1456 1741T1634 1769Q1720 1769
1783 1747T1886 1683T1946 1581T1966 1446Q1966 1383 1963 1319T1953 1183T1934 1027T1905 840H1929Q2007 840 2076 880T2198 1000T2280 1197T2310 1470Z" />
<glyph unicode="A" glyph-name="A" horiz-adv-x="1929" d="M659 2109Q713 2140 779 2163T919 2203T1073 2227T1237 2236Q1334 2236 1406 2217T1527 2161T1603 2075T1638 1962Q1652 1861 1668 1742T1704 1494T1746 1232T1793 971T1845 722T1901 500Q1935 475 1959
452T1998 406T2021 356T2028 299Q2028 215 1978 155T1846 55T1660 -2T1446 -20Q1382 -20 1339 1T1266 70T1215 199T1171 397Q1136 394 1089 392T987 389T873 386T754 385Q751 370 747 341T737 275T726 199T717 125T709 63T705 25Q683 3 636 -11T520 -25Q483 -25
442 -20T361 -3T283 28T218 77T173 146T156 238Q156 258 165 318T193 469T238 679T298 932T372 1216T458 1515T554 1818T659 2109ZM1004 1593Q992 1550 977 1492T946 1367T914 1225T881 1077T850 931T823 795Q846 795 884 796T966 800T1049 805T1118 811Q1112 852
1104 910T1085 1036T1064 1179T1043 1326T1022 1468T1004 1593Z" />
<glyph unicode="B" glyph-name="B" horiz-adv-x="1835" d="M1872 700Q1872 604 1854 513T1796 341T1692 193T1534 78T1316 2T1032 -25Q934 -25 843 -19T673 -2T531 22T426 49Q359 74 320 106T260 191T235 324T229 528Q229 605 230 693T234 872T238 1055T244 1231Q250
1427 258 1626Q239 1691 234 1752T229 1872Q229 1932 250 1979T325 2060T473 2117T713 2150Q775 2175 833 2193T950 2224T1074 2243T1212 2249Q1380 2249 1497 2204T1687 2083T1794 1907T1827 1696Q1827 1615 1809 1541T1760 1396T1685 1256T1593 1114Q1673 1071
1725 1028T1809 935T1855 829T1872 700ZM885 1233Q906 1233 945 1233T1029 1231T1116 1228T1184 1225Q1195 1269 1202 1303T1213 1365T1219 1420T1221 1475Q1221 1527 1207 1568T1157 1640T1064 1691T918 1720L885 1233ZM852 475Q880 464 913 454T981 436T1050
423T1114 418Q1146 418 1176 422T1228 443T1264 497T1278 598Q1278 638 1267 673T1213 738T1090 792T868 836L852 475Z" />
<glyph unicode="C" glyph-name="C" horiz-adv-x="1638" d="M1376 1335Q1296 1335 1243 1346T1155 1376Q1138 1468 1123 1525T1086 1618T1035 1671T958 1704Q947 1661 937 1602T919 1476T905 1340T894 1207T888 1092T885 1008Q885 914 892 842T922 717T984 629T1087
572T1242 541T1458 532Q1470 532 1493 532T1542 532T1594 534T1638 537Q1647 525 1653 507T1664 471T1669 434T1671 401Q1671 304 1635 227T1525 94T1343 10T1090 -20Q879 -20 714 23T435 171T261 453T201 897Q201 1129 225 1320T307 1656T460 1896T696 2032Q823
2134 961 2187T1253 2241Q1373 2241 1459 2211T1602 2126T1685 1994T1712 1823Q1712 1589 1627 1462T1376 1335Z" />
<glyph unicode="D" glyph-name="D" horiz-adv-x="1913" d="M1307 1139Q1307 1257 1286 1349T1219 1511T1103 1628T934 1704Q934 1586 932 1445T926 1149T915 831T901 504Q929 488 960 482T1016 475Q1045 475 1077 481T1142 509T1204 573T1257 690T1293 873T1307
1139ZM737 2171Q782 2189 832 2203T931 2226T1023 2240T1098 2245Q1331 2245 1495 2184T1763 2005T1914 1716T1962 1327Q1962 1012 1894 764T1702 343T1402 79T1012 -12Q919 -12 827 -6T651 16T495 55T371 114T288 196T258 303Q258 380 259 478T262 686T266 908T271
1129Q276 1380 283 1647Q258 1702 244 1772T229 1942Q229 2002 260 2043T355 2112T514 2153T737 2171Z" />
<glyph unicode="E" glyph-name="E" horiz-adv-x="1696" d="M1458 33Q1417 24 1365 18T1245 7T1094 2T905 0Q819 0 757 3T639 12Q572 20 504 46T381 112T292 200T258 303Q258 380 259 477T263 682T267 901T273 1118Q279 1364 287 1626Q269 1669 258 1706T240 1780T231
1855T229 1937Q229 2005 250 2056T327 2140T478 2191T721 2208Q777 2208 860 2208T1039 2207T1235 2205T1424 2203T1584 2199T1692 2195Q1710 2180 1723 2152T1745 2091T1757 2024T1761 1962Q1761 1875 1742 1814T1686 1713T1594 1653T1466 1626Q1432 1623 1373
1620T1241 1615T1089 1612T938 1610L926 1229Q970 1233 1028 1235T1148 1240T1273 1243T1388 1244T1479 1245T1532 1245Q1554 1217 1565 1177T1577 1094Q1577 1017 1562 958T1518 858T1449 794T1360 766Q1339 763 1297 761T1196 757T1067 754T918 750L913 520L1626
516Q1651 482 1661 447T1671 369Q1671 292 1656 234T1612 134T1545 67T1458 33Z" />
<glyph unicode="F" glyph-name="F" horiz-adv-x="1499" d="M287 1630Q269 1673 258 1710T240 1784T231 1859T229 1942Q229 2010 250 2060T327 2144T478 2195T721 2212Q777 2212 848 2212T997 2211T1153 2209T1303 2207T1432 2204T1528 2200Q1546 2185 1560 2161T1583
2108T1597 2049T1602 1991Q1602 1790 1529 1676T1311 1548Q1279 1545 1234 1543T1140 1540T1043 1537T958 1536L946 1139Q1014 1144 1074 1146T1184 1149T1270 1151T1327 1151Q1373 1151 1403 1144T1451 1121T1476 1080T1483 1020Q1483 911 1463 831T1409 699T1329
620T1233 590Q1196 584 1124 581T930 573L922 262Q921 179 899 126T832 42T721 0T565 -12Q498 -12 451 -6T371 18T321 66T293 145T282 262T279 422Q279 499 279 591T280 783T281 983T283 1179Q285 1400 287 1630Z" />
<glyph unicode="G" glyph-name="G" horiz-adv-x="1769" d="M1188 958Q1244 999 1324 1019T1507 1040Q1593 1040 1648 1026T1734 980T1778 899T1790 778Q1790 717 1789 647T1783 506T1773 367T1757 238Q1748 167 1693 118T1548 38T1342 -6T1090 -20Q950 -20 830
1T610 69T435 194T307 383T228 646T201 991Q201 1237 238 1419T343 1727T507 1929T721 2036Q784 2087 843 2126T969 2191T1119 2231T1311 2245Q1518 2245 1625 2151T1733 1876Q1733 1825 1721 1775T1686 1679T1629 1595T1552 1528Q1485 1551 1424 1570T1298 1602T1156
1624T979 1634Q958 1571 941 1497T911 1349T892 1209T885 1094Q885 936 899 825T946 636T1037 511T1180 430L1188 958Z" />
<glyph unicode="H" glyph-name="H" horiz-adv-x="1962" d="M1253 2138Q1318 2181 1404 2206T1614 2232Q1712 2232 1775 2215T1876 2162T1927 2068T1942 1929Q1942 1823 1940 1681T1933 1347T1919 905T1896 336Q1890 170 1803 83T1536 -4Q1441 -4 1384 12T1297
74T1258 206T1249 430V774Q1220 768 1180 764T1094 756T1004 752T918 750L897 262Q894 195 862 143T774 56T640 2T467 -16Q380 -16 321 6T238 82Q238 159 239 269T241 508T244 775T248 1047Q252 1359 258 1704Q243 1769 236 1830T229 1950Q229 2010 261 2060T357
2148T512 2207T725 2228Q774 2228 816 2218T890 2184T940 2125T958 2036Q958 1985 958 1921T955 1762T948 1537T934 1221L1253 1253V2138Z" />
<glyph unicode="I" glyph-name="I" horiz-adv-x="1032" d="M291 1675Q269 1750 258 1822T246 1954Q246 2014 279 2065T375 2153T531 2211T741 2232Q829 2232 879 2220T955 2186T988 2132T995 2060L975 573Q1031 539 1062 501T1094 410Q1094 304 1056 224T952 89T794
8T594 -20Q493 -20 430 -4T333 58T286 190T274 414Q274 491 275 586T277 784T280 993T283 1198Q287 1430 291 1675Z" />
<glyph unicode="J" glyph-name="J" horiz-adv-x="1303" d="M471 -90Q380 -90 310 -70T190 -10T116 93T90 238Q90 282 100 328T128 416T171 491T225 541Q250 538 296 534T394 525T494 519T569 516Q569 570 570 651T574 829T580 1032T587 1243T596 1445T606 1622Q526
1633 470 1646T377 1678T324 1723T307 1786Q307 1867 324 1944T385 2082T500 2179T684 2216Q848 2216 962 2207T1147 2174T1250 2113T1282 2015Q1282 1970 1281 1899T1278 1740T1274 1552T1268 1347T1262 1140T1256 943T1250 770T1245 635Q1240 535 1230 458T1201
323T1152 221T1078 145T973 86T831 37Q805 14 768 -9T685 -50T585 -79T471 -90Z" />
<glyph unicode="K" glyph-name="K" horiz-adv-x="1942" d="M238 78Q238 129 238 196T239 340T241 504T243 680T245 862T248 1042Q252 1354 258 1700Q243 1765 236 1826T229 1946Q229 2006 261 2056T357 2144T512 2203T725 2224Q774 2224 814 2214T882 2180T926
2121T942 2032Q942 1981 939 1907T931 1728T918 1482T901 1159Q926 1159 951 1156T995 1147Q1046 1287 1084 1402T1149 1617T1194 1808T1221 1987Q1229 2052 1261 2099T1348 2178T1477 2225T1642 2241Q1725 2241 1782 2217T1876 2153T1928 2058T1946 1942Q1922
1871 1890 1791T1820 1625T1740 1454T1654 1285T1566 1126T1479 987L1679 700Q1708 659 1735 634T1796 594T1871 573T1974 561Q1990 530 1998 493T2007 422Q2007 328 1973 245T1878 99T1729 0T1536 -37Q1473 -37 1424 -26T1334 10T1259 75T1192 172L885 729L864
258Q861 191 832 139T752 52T628 -2T467 -20Q380 -20 321 2T238 78Z" />
<glyph unicode="L" glyph-name="L" horiz-adv-x="1417" d="M1430 618Q1447 605 1460 583T1481 533T1494 477T1499 422Q1499 304 1471 228T1394 105T1282 39T1147 12Q1060 6 954 1T733 -4Q677 -4 619 6T508 35T407 80T325 136T270 202T250 274Q250 419 250 534T251
744T253 916T254 1065T256 1206T258 1351T260 1515T262 1712Q244 1777 237 1838T229 1958Q229 2018 262 2069T358 2157T514 2215T725 2236Q812 2236 863 2224T941 2190T975 2136T983 2064Q983 1958 980 1804T972 1462T959 1057T942 610Q976 611 1019 612T1111 614T1207
615T1299 616T1376 617T1430 618Z" />
<glyph unicode="M" glyph-name="M" horiz-adv-x="2597" d="M1065 2114Q1098 2069 1133 2008T1205 1875T1276 1728T1342 1580Q1416 1410 1487 1225Q1579 1420 1660 1587Q1695 1658 1730 1730T1798 1867T1857 1982T1901 2060Q1931 2111 1960 2145T2021 2201T2086
2231T2163 2241Q2258 2241 2326 2234T2439 2215T2512 2185T2553 2148T2572 2104T2576 2056Q2576 1986 2576 1894T2574 1694T2570 1470T2566 1234T2562 997T2556 772T2550 571T2544 406Q2539 291 2516 211T2447 80T2335 7T2175 -16Q2133 -16 2094 -10T2020 8T1958
38T1913 82L1905 1184Q1890 1144 1866 1094T1813 990T1749 877T1679 762Q1676 657 1657 561T1597 391T1492 273T1335 229Q1284 229 1244 238T1175 263T1126 297T1098 336Q1085 478 1059 598T995 811L856 1163Q856 1052 855 928T849 683T837 450T819 254Q804 124
722 56T487 -12Q416 -12 367 10T295 82Q294 152 294 255T293 484T292 753T291 1046T291 1345T291 1634Q277 1670 266 1709T246 1788T234 1863T229 1929Q229 1989 269 2044T381 2140T549 2207T758 2232Q818 2232 863 2227T943 2209T1008 2172T1065 2114Z" />
<glyph unicode="N" glyph-name="N" horiz-adv-x="2007" d="M1405 2150Q1433 2170 1461 2184T1520 2207T1586 2220T1663 2224Q1737 2224 1797 2209T1899 2162T1964 2079T1987 1958Q1987 1891 1987 1795T1985 1583T1981 1340T1976 1081T1967 823T1956 582T1941 376T1921
221Q1899 92 1815 36T1573 -20Q1496 -20 1452 1T1383 69T1349 192T1331 377Q1214 581 1097 783T856 1184Q856 1110 855 1028T852 861T847 691T839 527T828 377T815 250Q800 120 718 52T483 -16Q415 -16 364 6T295 78Q293 148 292 252T289 485T288 760T288 1057T287
1360T287 1651Q275 1686 264 1725T246 1804T234 1880T229 1946Q229 2006 261 2056T357 2144T512 2203T725 2224Q782 2224 824 2218T898 2200T952 2171T991 2130Q1015 2098 1047 2046T1116 1930T1192 1795T1270 1655T1341 1523T1401 1413Q1401 1474 1401 1545T1401
1689T1401 1834T1402 1967T1403 2077T1405 2150Z" />
<glyph unicode="O" glyph-name="O" horiz-adv-x="1896" d="M1188 2236Q1346 2236 1480 2178T1713 2002T1866 1706T1921 1286Q1921 1101 1899 931T1830 615T1710 349T1536 144T1303 13T1008 -33Q881 -33 772 -14T573 52T414 172T298 357T226 616T201 958Q201 1158
224 1311T294 1578T408 1774T565 1913Q616 2002 685 2063T836 2163T1007 2219T1188 2236ZM913 1696Q907 1654 902 1602T893 1494T886 1380T881 1271T878 1174T877 1098Q877 970 883 876T905 715T944 603T1006 530T1093 484T1208 455Q1228 549 1241 644T1261 824T1271
981T1274 1098Q1274 1244 1252 1344T1186 1513T1073 1624T913 1696Z" />
<glyph unicode="P" glyph-name="P" horiz-adv-x="1786" d="M885 999Q903 992 930 984T988 969T1049 958T1102 954Q1142 954 1166 990T1203 1089T1220 1234T1225 1409Q1225 1471 1214 1520T1169 1605T1075 1664T918 1696L885 999ZM848 262Q840 179 821 126T763
42T665 0T516 -12Q449 -12 401 -6T322 18T272 66T244 145T232 262T229 422Q229 499 230 591T234 782T238 981T244 1175Q250 1394 258 1622Q243 1687 236 1748T229 1868Q229 1928 250 1975T325 2056T473 2113T713 2146Q775 2171 833 2189T950 2220T1074 2239T1212
2245Q1391 2245 1509 2195T1698 2055T1798 1846T1827 1585Q1827 1315 1768 1105T1601 752T1345 534T1016 459Q979 459 942 460T864 471L848 262Z" />
<glyph unicode="Q" glyph-name="Q" horiz-adv-x="1917" d="M1667 352Q1696 325 1725 305T1788 272T1859 249T1946 233Q1961 206 1969 169T1978 98Q1978 4 1950 -80T1868 -227T1735 -328T1552 -365Q1497 -365 1454 -355T1373 -320T1301 -256T1229 -156Q1189 -91
1168 -56T1135 -4Q1120 -7 1100 -9T1059 -13T1017 -15T979 -16Q858 -16 754 3T563 66T409 184T296 365T225 620T201 958Q201 1158 224 1311T294 1578T408 1774T565 1913Q616 2002 685 2063T836 2163T1007 2219T1188 2236Q1346 2236 1480 2179T1713 2004T1866 1708T1921
1286Q1921 1136 1907 1006T1862 762T1783 547T1667 352ZM913 1696Q907 1654 902 1602T893 1494T886 1380T881 1271T878 1174T877 1098Q877 970 883 876T905 715T944 603T1006 530T1093 484T1208 455Q1228 549 1241 644T1261 824T1271 981T1274 1098Q1274 1244 1252
1344T1186 1513T1073 1624T913 1696Z" />
<glyph unicode="R" glyph-name="R" horiz-adv-x="1827" d="M1466 795Q1511 739 1545 699T1606 632T1658 588T1707 562T1762 549T1831 541Q1849 513 1856 477T1864 406Q1864 315 1835 235T1751 96T1617 2T1438 -33Q1369 -33 1322 -22T1240 17T1177 87T1114 193Q1074
267 1041 322T979 417T923 484T868 528L848 262Q840 179 821 126T763 42T665 0T516 -12Q449 -12 401 -6T322 18T272 66T244 145T232 262T229 422Q229 499 230 591T234 783T238 982T244 1177Q250 1397 258 1626Q243 1691 236 1752T229 1872Q229 1932 250 1979T325
2060T473 2117T713 2150Q775 2175 833 2193T950 2224T1074 2243T1212 2249Q1377 2249 1493 2203T1684 2072T1792 1872T1827 1618Q1827 1491 1807 1386T1742 1185T1630 995T1466 795ZM885 1012Q908 1011 941 1006T1009 994T1076 980T1130 967Q1177 1078 1201 1179T1225
1380Q1225 1455 1210 1511T1159 1606T1064 1668T918 1700L885 1012Z" />
<glyph unicode="S" glyph-name="S" horiz-adv-x="1622" d="M983 2245Q1146 2245 1266 2206T1465 2103T1583 1958T1622 1794Q1622 1696 1596 1626T1523 1512T1416 1446T1286 1425Q1243 1425 1210 1431T1143 1446Q1129 1503 1109 1545T1055 1622T970 1683T844 1737Q831
1706 825 1668T819 1593Q819 1566 823 1545T842 1501T888 1451T972 1386T1105 1295T1298 1167Q1395 1104 1461 1049T1569 935T1629 807T1647 647Q1647 518 1598 397T1450 182T1203 32T856 -25Q695 -25 562 1T334 84T187 231T135 451Q135 529 158 592T222 701T318
770T438 795Q460 795 484 792T532 782Q592 671 642 601T736 490T823 434T909 418Q940 418 961 426T997 447T1017 477T1024 512Q1024 525 1018 540T993 575T941 624T853 693T721 789T537 918Q451 978 392 1038T297 1164T245 1302T229 1458Q229 1530 244 1605T289
1749T364 1879T471 1982Q514 2053 559 2103T664 2184T800 2230T983 2245Z" />
<glyph unicode="T" glyph-name="T" horiz-adv-x="1524" d="M1573 2191Q1587 2174 1599 2149T1619 2094T1633 2033T1638 1974Q1638 1847 1614 1764T1540 1632T1417 1560T1245 1532Q1244 1481 1242 1400T1237 1219T1229 1011T1221 794Q1211 543 1200 258Q1196 183
1163 131T1074 46T943 -1T778 -16Q711 -16 664 -10T587 14T540 62T515 141T506 258T504 418Q504 495 505 582T507 761T510 942T514 1116Q518 1310 524 1507Q404 1507 330 1514T214 1540T158 1590T143 1667Q143 1785 164 1880T220 2043T300 2150T393 2195Q436 2198
481 2201T587 2207T729 2210T926 2212Q1046 2212 1140 2211T1312 2207T1452 2200T1573 2191Z" />
<glyph unicode="U" glyph-name="U" horiz-adv-x="1942" d="M262 1712Q244 1780 237 1841T229 1958Q229 2018 262 2069T358 2159T514 2219T725 2241Q803 2241 851 2225T924 2179T958 2111T967 2028Q967 1948 963 1849T953 1635T943 1395T938 1135Q938 1008 943
915T963 755T999 644T1056 572T1137 528T1245 500Q1247 549 1248 628T1251 804T1254 1010T1256 1228T1259 1440T1260 1628T1261 1776T1262 1864Q1262 1917 1264 1965T1276 2053T1306 2125T1361 2181T1448 2216T1577 2228Q1634 2228 1687 2221T1786 2200T1866 2166T1921
2122Q1921 2051 1920 1941T1916 1692T1911 1396T1906 1072T1903 740T1901 418Q1901 321 1870 258T1774 155T1607 98T1364 74Q1287 27 1174 1T918 -25Q715 -25 583 43T373 248T264 594T233 1081Q233 1153 234 1210T238 1317T243 1412T249 1503T255 1599T262 1712Z"
/>
<glyph unicode="V" glyph-name="V" horiz-adv-x="1917" d="M1409 2154Q1423 2168 1446 2181T1499 2204T1561 2221T1626 2228Q1710 2228 1782 2213T1906 2154T1989 2037T2019 1843Q2019 1776 1994 1641T1920 1317T1797 894T1626 393Q1605 332 1575 286T1494 203T1367
137T1176 82Q1150 62 1113 44T1026 11T915 -11T778 -20Q703 -20 656 4T579 79T531 204T496 381Q446 690 388 1005T258 1638Q190 1703 157 1764T123 1901Q123 1961 146 2009T210 2095T307 2159T428 2203T564 2228T709 2236Q774 2236 816 2213T886 2138T935 2004T975
1802Q980 1771 989 1714T1009 1582T1032 1420T1057 1242T1082 1060T1105 890T1125 743T1139 635Q1179 802 1214 962T1278 1272T1330 1554T1371 1801T1397 2004T1409 2154Z" />
<glyph unicode="W" glyph-name="W" horiz-adv-x="2793" d="M2286 2154Q2300 2168 2323 2181T2375 2204T2436 2221T2499 2228Q2585 2228 2652 2213T2765 2154T2835 2037T2859 1843Q2859 1798 2849 1721T2819 1538T2768 1304T2696 1026T2602 712T2486 369Q2463 308
2436 262T2365 181T2252 118T2077 66Q2002 22 1926 3T1757 -16Q1714 -16 1680 -8T1618 25T1570 97T1532 221Q1528 243 1521 283T1503 373T1483 478T1463 583T1446 675T1434 741Q1405 635 1375 538T1315 361T1257 222T1204 131Q1176 96 1129 68T1023 21T895 -9T758
-20Q663 -20 603 4T505 79T446 204T410 381Q385 535 367 691T328 1005T284 1321T225 1638Q173 1700 148 1763T123 1901Q123 1991 163 2055T274 2159T439 2217T643 2236Q697 2236 739 2222T814 2170T870 2067T909 1901Q914 1870 921 1801T938 1640T957 1439T978
1223Q1002 970 1028 668L1257 1470Q1237 1562 1225 1623T1205 1731T1195 1814T1192 1896Q1192 1971 1224 2032T1315 2135T1454 2201T1630 2224Q1695 2224 1735 2201T1801 2126T1846 1993T1884 1794Q1889 1763 1898 1708T1920 1581T1945 1425T1972 1254T1999 1080T2024
916T2045 774T2060 668Q2120 918 2161 1147T2229 1570T2269 1914T2286 2154Z" />
<glyph unicode="X" glyph-name="X" horiz-adv-x="1815" d="M328 1626Q244 1688 204 1759T164 1905Q164 1995 206 2059T321 2163T490 2222T696 2241Q752 2241 791 2235T858 2215T904 2182T934 2134Q938 2124 948 2095T974 2023T1006 1930T1042 1828Q1084 1707 1135
1561L1331 2167Q1368 2198 1425 2215T1544 2232Q1708 2232 1794 2159T1880 1946Q1880 1884 1864 1826T1810 1700L1466 1065L1794 385Q1816 339 1831 289T1847 193Q1847 93 1731 43T1376 -8Q1335 -8 1303 -1T1246 23T1200 66T1163 131L918 676L762 53Q728 22 671
5T549 -12Q468 -12 404 7T294 62T225 151T201 274Q201 308 205 338T218 397T238 456T266 520L561 1151L328 1626Z" />
<glyph unicode="Y" glyph-name="Y" horiz-adv-x="1786" d="M1548 2236Q1633 2236 1696 2217T1804 2164T1874 2083T1909 1978L1356 815L1352 303Q1352 242 1328 184T1245 80T1088 8T840 -20Q768 -20 721 -8T647 37T609 128T598 279Q598 317 598 358T600 443T602
528T604 608Q607 698 610 786L258 1704Q226 1727 202 1757T163 1820T139 1885T131 1946Q131 1993 154 2033T215 2106T305 2164T414 2206T530 2232T643 2241Q702 2241 747 2229T827 2189T890 2118T938 2011L1118 1487L1294 2015Q1314 2077 1335 2119T1386 2187T1454
2224T1548 2236Z" />
<glyph unicode="Z" glyph-name="Z" horiz-adv-x="1675" d="M1327 12Q1247 6 1144 1T926 -4Q745 -4 612 5T388 37T249 96T188 188Q182 210 178 238T172 297T169 359T168 418Q168 446 175 477T197 546T239 629T303 729L872 1552Q814 1557 736 1563T574 1576T412
1588T270 1597Q252 1616 240 1643T220 1702T209 1770T205 1843Q205 1951 244 2025T352 2147T514 2215T717 2236Q903 2236 1117 2223T1573 2204Q1607 2203 1637 2191T1691 2142T1727 2041T1741 1868Q1741 1813 1729 1767T1692 1681T1627 1603T1532 1528Q1501 1474
1458 1407T1365 1265T1264 1114T1162 965Q1045 796 918 618Q952 619 1011 621T1140 625T1286 630T1427 635T1543 638T1614 639Q1629 625 1641 600T1662 543T1674 480T1679 422Q1679 327 1651 254T1574 129T1462 48T1327 12Z" />
<glyph unicode="[" glyph-name="bracketleft" horiz-adv-x="1589" d="M807 2671Q925 2671 1036 2673T1245 2679T1426 2690T1573 2703Q1616 2660 1633 2616T1651 2515Q1651 2441 1617 2389T1513 2299T1338 2235T1090 2187Q1090 2066 1090 1918T1090 1608T1090 1277T1089
942T1088 622T1086 336T1084 102T1081 -61L1593 -82Q1618 -116 1626 -146T1634 -217Q1634 -279 1599 -337T1491 -442T1310 -517T1053 -545Q952 -545 869 -540T722 -516T610 -464T532 -372T486 -231T471 -29Q471 50 472 163T474 413T477 704T481 1019T486 1341T491
1652T496 1935T501 2174T505 2351T508 2449Q511 2502 526 2543T576 2612T666 2656T807 2671Z" />
<glyph unicode="\" glyph-name="backslash" horiz-adv-x="1532" d="M1556 -66Q1543 -92 1520 -118T1464 -165T1389 -199T1294 -213Q1240 -213 1195 -199T1109 -152T1033 -63T960 75T887 268T807 524Q787 594 763 680T711 863T656 1061T599 1261T544 1452T492 1622Q430
1814 363 1961T225 2216Q237 2265 265 2303T331 2367T416 2407T512 2421Q581 2421 638 2402T744 2341T836 2231T919 2065T999 1837T1081 1540Q1142 1300 1189 1113T1277 778T1351 515T1417 301T1483 114T1556 -66Z" />
<glyph unicode="]" glyph-name="bracketright" horiz-adv-x="1602" d="M729 -70Q743 380 754 801Q757 921 760 1046T765 1296T770 1542T774 1777T777 1993T778 2179Q628 2196 525 2226T358 2297T266 2391T238 2503Q238 2549 249 2583T283 2642Q350 2649 427 2655T584
2667T745 2677T899 2685T1035 2689T1143 2691Q1227 2691 1280 2670T1364 2603T1406 2484T1417 2306Q1417 2220 1415 2094T1410 1815T1401 1488T1390 1132T1377 764T1361 403T1343 69T1323 -221Q1316 -319 1272 -387T1156 -497T992 -559T795 -578Q629 -578 505 -552T297
-479T173 -371T131 -238Q131 -200 138 -165T168 -98L729 -70Z" />
<glyph unicode="^" glyph-name="asciicircum" horiz-adv-x="1733" d="M848 2159Q837 2117 822 2053T789 1914T753 1757T719 1598T690 1454T668 1339Q649 1327 613 1317T524 1307Q466 1307 419 1330T337 1397T285 1504T266 1647Q266 1685 273 1742T294 1868T328
2010T374 2155T430 2289T496 2400Q519 2431 544 2454T598 2494T656 2524T721 2548Q756 2592 794 2627T876 2688T967 2726T1073 2740Q1181 2740 1258 2708T1389 2614T1475 2462T1524 2257Q1530 2216 1539 2156T1560 2026T1585 1880T1612 1732T1639 1594T1663 1479Q1645
1440 1616 1405T1547 1344T1459 1302T1352 1286Q1293 1286 1244 1304T1153 1364T1074 1472T1001 1636T927 1862T848 2159Z" />
<glyph unicode="_" glyph-name="underscore" horiz-adv-x="1520" d="M528 446Q663 455 767 463T950 480T1089 497T1196 516T1281 537T1356 561Q1391 544 1419 518T1466 458T1496 388T1507 311Q1507 230 1479 166T1388 56T1226 -13T983 -37Q942 -37 883 -36T755
-31T613 -23T471 -14T343 -2T242 12Q230 24 219 43T201 83T189 129T184 176Q184 235 202 282T262 363T369 419T528 446Z" />
<glyph unicode="`" glyph-name="grave" horiz-adv-x="1270" d="M627 3158Q648 3158 665 3155T696 3143T725 3120T754 3084Q794 3030 828 2980T906 2875T1010 2757T1163 2613Q1166 2604 1166 2595T1167 2576Q1167 2502 1110 2458T954 2413Q903 2413 844 2420T721
2441T594 2475T471 2519Q419 2540 381 2565T317 2624T279 2700T266 2798Q266 2853 292 2916T366 3033T480 3122T627 3158Z" />
<glyph unicode="a" glyph-name="a" horiz-adv-x="1929" d="M659 2109Q713 2140 779 2163T919 2203T1073 2227T1237 2236Q1334 2236 1406 2217T1527 2161T1603 2075T1638 1962Q1652 1861 1668 1742T1704 1494T1746 1232T1793 971T1845 722T1901 500Q1935 475 1959
452T1998 406T2021 356T2028 299Q2028 215 1978 155T1846 55T1660 -2T1446 -20Q1382 -20 1339 1T1266 70T1215 199T1171 397Q1136 394 1089 392T987 389T873 386T754 385Q751 370 747 341T737 275T726 199T717 125T709 63T705 25Q683 3 636 -11T520 -25Q483 -25
442 -20T361 -3T283 28T218 77T173 146T156 238Q156 258 165 318T193 469T238 679T298 932T372 1216T458 1515T554 1818T659 2109ZM1004 1593Q992 1550 977 1492T946 1367T914 1225T881 1077T850 931T823 795Q846 795 884 796T966 800T1049 805T1118 811Q1112 852
1104 910T1085 1036T1064 1179T1043 1326T1022 1468T1004 1593Z" />
<glyph unicode="b" glyph-name="b" horiz-adv-x="1835" d="M1872 700Q1872 604 1854 513T1796 341T1692 193T1534 78T1316 2T1032 -25Q934 -25 843 -19T673 -2T531 22T426 49Q359 74 320 106T260 191T235 324T229 528Q229 605 230 693T234 872T238 1055T244 1231Q250
1427 258 1626Q239 1691 234 1752T229 1872Q229 1932 250 1979T325 2060T473 2117T713 2150Q775 2175 833 2193T950 2224T1074 2243T1212 2249Q1380 2249 1497 2204T1687 2083T1794 1907T1827 1696Q1827 1615 1809 1541T1760 1396T1685 1256T1593 1114Q1673 1071
1725 1028T1809 935T1855 829T1872 700ZM885 1233Q906 1233 945 1233T1029 1231T1116 1228T1184 1225Q1195 1269 1202 1303T1213 1365T1219 1420T1221 1475Q1221 1527 1207 1568T1157 1640T1064 1691T918 1720L885 1233ZM852 475Q880 464 913 454T981 436T1050
423T1114 418Q1146 418 1176 422T1228 443T1264 497T1278 598Q1278 638 1267 673T1213 738T1090 792T868 836L852 475Z" />
<glyph unicode="c" glyph-name="c" horiz-adv-x="1638" d="M1376 1335Q1296 1335 1243 1346T1155 1376Q1138 1468 1123 1525T1086 1618T1035 1671T958 1704Q947 1661 937 1602T919 1476T905 1340T894 1207T888 1092T885 1008Q885 914 892 842T922 717T984 629T1087
572T1242 541T1458 532Q1470 532 1493 532T1542 532T1594 534T1638 537Q1647 525 1653 507T1664 471T1669 434T1671 401Q1671 304 1635 227T1525 94T1343 10T1090 -20Q879 -20 714 23T435 171T261 453T201 897Q201 1129 225 1320T307 1656T460 1896T696 2032Q823
2134 961 2187T1253 2241Q1373 2241 1459 2211T1602 2126T1685 1994T1712 1823Q1712 1589 1627 1462T1376 1335Z" />
<glyph unicode="d" glyph-name="d" horiz-adv-x="1913" d="M1307 1139Q1307 1257 1286 1349T1219 1511T1103 1628T934 1704Q934 1586 932 1445T926 1149T915 831T901 504Q929 488 960 482T1016 475Q1045 475 1077 481T1142 509T1204 573T1257 690T1293 873T1307
1139ZM737 2171Q782 2189 832 2203T931 2226T1023 2240T1098 2245Q1331 2245 1495 2184T1763 2005T1914 1716T1962 1327Q1962 1012 1894 764T1702 343T1402 79T1012 -12Q919 -12 827 -6T651 16T495 55T371 114T288 196T258 303Q258 380 259 478T262 686T266 908T271
1129Q276 1380 283 1647Q258 1702 244 1772T229 1942Q229 2002 260 2043T355 2112T514 2153T737 2171Z" />
<glyph unicode="e" glyph-name="e" horiz-adv-x="1696" d="M1458 33Q1417 24 1365 18T1245 7T1094 2T905 0Q819 0 757 3T639 12Q572 20 504 46T381 112T292 200T258 303Q258 380 259 477T263 682T267 901T273 1118Q279 1364 287 1626Q269 1669 258 1706T240 1780T231
1855T229 1937Q229 2005 250 2056T327 2140T478 2191T721 2208Q777 2208 860 2208T1039 2207T1235 2205T1424 2203T1584 2199T1692 2195Q1710 2180 1723 2152T1745 2091T1757 2024T1761 1962Q1761 1875 1742 1814T1686 1713T1594 1653T1466 1626Q1432 1623 1373
1620T1241 1615T1089 1612T938 1610L926 1229Q970 1233 1028 1235T1148 1240T1273 1243T1388 1244T1479 1245T1532 1245Q1554 1217 1565 1177T1577 1094Q1577 1017 1562 958T1518 858T1449 794T1360 766Q1339 763 1297 761T1196 757T1067 754T918 750L913 520L1626
516Q1651 482 1661 447T1671 369Q1671 292 1656 234T1612 134T1545 67T1458 33Z" />
<glyph unicode="f" glyph-name="f" horiz-adv-x="1499" d="M287 1630Q269 1673 258 1710T240 1784T231 1859T229 1942Q229 2010 250 2060T327 2144T478 2195T721 2212Q777 2212 848 2212T997 2211T1153 2209T1303 2207T1432 2204T1528 2200Q1546 2185 1560 2161T1583
2108T1597 2049T1602 1991Q1602 1790 1529 1676T1311 1548Q1279 1545 1234 1543T1140 1540T1043 1537T958 1536L946 1139Q1014 1144 1074 1146T1184 1149T1270 1151T1327 1151Q1373 1151 1403 1144T1451 1121T1476 1080T1483 1020Q1483 911 1463 831T1409 699T1329
620T1233 590Q1196 584 1124 581T930 573L922 262Q921 179 899 126T832 42T721 0T565 -12Q498 -12 451 -6T371 18T321 66T293 145T282 262T279 422Q279 499 279 591T280 783T281 983T283 1179Q285 1400 287 1630Z" />
<glyph unicode="g" glyph-name="g" horiz-adv-x="1769" d="M1188 958Q1244 999 1324 1019T1507 1040Q1593 1040 1648 1026T1734 980T1778 899T1790 778Q1790 717 1789 647T1783 506T1773 367T1757 238Q1748 167 1693 118T1548 38T1342 -6T1090 -20Q950 -20 830
1T610 69T435 194T307 383T228 646T201 991Q201 1237 238 1419T343 1727T507 1929T721 2036Q784 2087 843 2126T969 2191T1119 2231T1311 2245Q1518 2245 1625 2151T1733 1876Q1733 1825 1721 1775T1686 1679T1629 1595T1552 1528Q1485 1551 1424 1570T1298 1602T1156
1624T979 1634Q958 1571 941 1497T911 1349T892 1209T885 1094Q885 936 899 825T946 636T1037 511T1180 430L1188 958Z" />
<glyph unicode="h" glyph-name="h" horiz-adv-x="1962" d="M1253 2138Q1318 2181 1404 2206T1614 2232Q1712 2232 1775 2215T1876 2162T1927 2068T1942 1929Q1942 1823 1940 1681T1933 1347T1919 905T1896 336Q1890 170 1803 83T1536 -4Q1441 -4 1384 12T1297
74T1258 206T1249 430V774Q1220 768 1180 764T1094 756T1004 752T918 750L897 262Q894 195 862 143T774 56T640 2T467 -16Q380 -16 321 6T238 82Q238 159 239 269T241 508T244 775T248 1047Q252 1359 258 1704Q243 1769 236 1830T229 1950Q229 2010 261 2060T357
2148T512 2207T725 2228Q774 2228 816 2218T890 2184T940 2125T958 2036Q958 1985 958 1921T955 1762T948 1537T934 1221L1253 1253V2138Z" />
<glyph unicode="i" glyph-name="i" horiz-adv-x="1032" d="M291 1675Q269 1750 258 1822T246 1954Q246 2014 279 2065T375 2153T531 2211T741 2232Q829 2232 879 2220T955 2186T988 2132T995 2060L975 573Q1031 539 1062 501T1094 410Q1094 304 1056 224T952 89T794
8T594 -20Q493 -20 430 -4T333 58T286 190T274 414Q274 491 275 586T277 784T280 993T283 1198Q287 1430 291 1675Z" />
<glyph unicode="j" glyph-name="j" horiz-adv-x="1303" d="M471 -90Q380 -90 310 -70T190 -10T116 93T90 238Q90 282 100 328T128 416T171 491T225 541Q250 538 296 534T394 525T494 519T569 516Q569 570 570 651T574 829T580 1032T587 1243T596 1445T606 1622Q526
1633 470 1646T377 1678T324 1723T307 1786Q307 1867 324 1944T385 2082T500 2179T684 2216Q848 2216 962 2207T1147 2174T1250 2113T1282 2015Q1282 1970 1281 1899T1278 1740T1274 1552T1268 1347T1262 1140T1256 943T1250 770T1245 635Q1240 535 1230 458T1201
323T1152 221T1078 145T973 86T831 37Q805 14 768 -9T685 -50T585 -79T471 -90Z" />
<glyph unicode="k" glyph-name="k" horiz-adv-x="1942" d="M238 78Q238 129 238 196T239 340T241 504T243 680T245 862T248 1042Q252 1354 258 1700Q243 1765 236 1826T229 1946Q229 2006 261 2056T357 2144T512 2203T725 2224Q774 2224 814 2214T882 2180T926
2121T942 2032Q942 1981 939 1907T931 1728T918 1482T901 1159Q926 1159 951 1156T995 1147Q1046 1287 1084 1402T1149 1617T1194 1808T1221 1987Q1229 2052 1261 2099T1348 2178T1477 2225T1642 2241Q1725 2241 1782 2217T1876 2153T1928 2058T1946 1942Q1922
1871 1890 1791T1820 1625T1740 1454T1654 1285T1566 1126T1479 987L1679 700Q1708 659 1735 634T1796 594T1871 573T1974 561Q1990 530 1998 493T2007 422Q2007 328 1973 245T1878 99T1729 0T1536 -37Q1473 -37 1424 -26T1334 10T1259 75T1192 172L885 729L864
258Q861 191 832 139T752 52T628 -2T467 -20Q380 -20 321 2T238 78Z" />
<glyph unicode="l" glyph-name="l" horiz-adv-x="1417" d="M1430 618Q1447 605 1460 583T1481 533T1494 477T1499 422Q1499 304 1471 228T1394 105T1282 39T1147 12Q1060 6 954 1T733 -4Q677 -4 619 6T508 35T407 80T325 136T270 202T250 274Q250 419 250 534T251
744T253 916T254 1065T256 1206T258 1351T260 1515T262 1712Q244 1777 237 1838T229 1958Q229 2018 262 2069T358 2157T514 2215T725 2236Q812 2236 863 2224T941 2190T975 2136T983 2064Q983 1958 980 1804T972 1462T959 1057T942 610Q976 611 1019 612T1111 614T1207
615T1299 616T1376 617T1430 618Z" />
<glyph unicode="m" glyph-name="m" horiz-adv-x="2597" d="M1065 2114Q1098 2069 1133 2008T1205 1875T1276 1728T1342 1580Q1416 1410 1487 1225Q1579 1420 1660 1587Q1695 1658 1730 1730T1798 1867T1857 1982T1901 2060Q1931 2111 1960 2145T2021 2201T2086
2231T2163 2241Q2258 2241 2326 2234T2439 2215T2512 2185T2553 2148T2572 2104T2576 2056Q2576 1986 2576 1894T2574 1694T2570 1470T2566 1234T2562 997T2556 772T2550 571T2544 406Q2539 291 2516 211T2447 80T2335 7T2175 -16Q2133 -16 2094 -10T2020 8T1958
38T1913 82L1905 1184Q1890 1144 1866 1094T1813 990T1749 877T1679 762Q1676 657 1657 561T1597 391T1492 273T1335 229Q1284 229 1244 238T1175 263T1126 297T1098 336Q1085 478 1059 598T995 811L856 1163Q856 1052 855 928T849 683T837 450T819 254Q804 124
722 56T487 -12Q416 -12 367 10T295 82Q294 152 294 255T293 484T292 753T291 1046T291 1345T291 1634Q277 1670 266 1709T246 1788T234 1863T229 1929Q229 1989 269 2044T381 2140T549 2207T758 2232Q818 2232 863 2227T943 2209T1008 2172T1065 2114Z" />
<glyph unicode="n" glyph-name="n" horiz-adv-x="2007" d="M1405 2150Q1433 2170 1461 2184T1520 2207T1586 2220T1663 2224Q1737 2224 1797 2209T1899 2162T1964 2079T1987 1958Q1987 1891 1987 1795T1985 1583T1981 1340T1976 1081T1967 823T1956 582T1941 376T1921
221Q1899 92 1815 36T1573 -20Q1496 -20 1452 1T1383 69T1349 192T1331 377Q1214 581 1097 783T856 1184Q856 1110 855 1028T852 861T847 691T839 527T828 377T815 250Q800 120 718 52T483 -16Q415 -16 364 6T295 78Q293 148 292 252T289 485T288 760T288 1057T287
1360T287 1651Q275 1686 264 1725T246 1804T234 1880T229 1946Q229 2006 261 2056T357 2144T512 2203T725 2224Q782 2224 824 2218T898 2200T952 2171T991 2130Q1015 2098 1047 2046T1116 1930T1192 1795T1270 1655T1341 1523T1401 1413Q1401 1474 1401 1545T1401
1689T1401 1834T1402 1967T1403 2077T1405 2150Z" />
<glyph unicode="o" glyph-name="o" horiz-adv-x="1896" d="M1188 2236Q1346 2236 1480 2178T1713 2002T1866 1706T1921 1286Q1921 1101 1899 931T1830 615T1710 349T1536 144T1303 13T1008 -33Q881 -33 772 -14T573 52T414 172T298 357T226 616T201 958Q201 1158
224 1311T294 1578T408 1774T565 1913Q616 2002 685 2063T836 2163T1007 2219T1188 2236ZM913 1696Q907 1654 902 1602T893 1494T886 1380T881 1271T878 1174T877 1098Q877 970 883 876T905 715T944 603T1006 530T1093 484T1208 455Q1228 549 1241 644T1261 824T1271
981T1274 1098Q1274 1244 1252 1344T1186 1513T1073 1624T913 1696Z" />
<glyph unicode="p" glyph-name="p" horiz-adv-x="1786" d="M885 999Q903 992 930 984T988 969T1049 958T1102 954Q1142 954 1166 990T1203 1089T1220 1234T1225 1409Q1225 1471 1214 1520T1169 1605T1075 1664T918 1696L885 999ZM848 262Q840 179 821 126T763
42T665 0T516 -12Q449 -12 401 -6T322 18T272 66T244 145T232 262T229 422Q229 499 230 591T234 782T238 981T244 1175Q250 1394 258 1622Q243 1687 236 1748T229 1868Q229 1928 250 1975T325 2056T473 2113T713 2146Q775 2171 833 2189T950 2220T1074 2239T1212
2245Q1391 2245 1509 2195T1698 2055T1798 1846T1827 1585Q1827 1315 1768 1105T1601 752T1345 534T1016 459Q979 459 942 460T864 471L848 262Z" />
<glyph unicode="q" glyph-name="q" horiz-adv-x="1917" d="M1667 352Q1696 325 1725 305T1788 272T1859 249T1946 233Q1961 206 1969 169T1978 98Q1978 4 1950 -80T1868 -227T1735 -328T1552 -365Q1497 -365 1454 -355T1373 -320T1301 -256T1229 -156Q1189 -91
1168 -56T1135 -4Q1120 -7 1100 -9T1059 -13T1017 -15T979 -16Q858 -16 754 3T563 66T409 184T296 365T225 620T201 958Q201 1158 224 1311T294 1578T408 1774T565 1913Q616 2002 685 2063T836 2163T1007 2219T1188 2236Q1346 2236 1480 2179T1713 2004T1866 1708T1921
1286Q1921 1136 1907 1006T1862 762T1783 547T1667 352ZM913 1696Q907 1654 902 1602T893 1494T886 1380T881 1271T878 1174T877 1098Q877 970 883 876T905 715T944 603T1006 530T1093 484T1208 455Q1228 549 1241 644T1261 824T1271 981T1274 1098Q1274 1244 1252
1344T1186 1513T1073 1624T913 1696Z" />
<glyph unicode="r" glyph-name="r" horiz-adv-x="1827" d="M1466 795Q1511 739 1545 699T1606 632T1658 588T1707 562T1762 549T1831 541Q1849 513 1856 477T1864 406Q1864 315 1835 235T1751 96T1617 2T1438 -33Q1369 -33 1322 -22T1240 17T1177 87T1114 193Q1074
267 1041 322T979 417T923 484T868 528L848 262Q840 179 821 126T763 42T665 0T516 -12Q449 -12 401 -6T322 18T272 66T244 145T232 262T229 422Q229 499 230 591T234 783T238 982T244 1177Q250 1397 258 1626Q243 1691 236 1752T229 1872Q229 1932 250 1979T325
2060T473 2117T713 2150Q775 2175 833 2193T950 2224T1074 2243T1212 2249Q1377 2249 1493 2203T1684 2072T1792 1872T1827 1618Q1827 1491 1807 1386T1742 1185T1630 995T1466 795ZM885 1012Q908 1011 941 1006T1009 994T1076 980T1130 967Q1177 1078 1201 1179T1225
1380Q1225 1455 1210 1511T1159 1606T1064 1668T918 1700L885 1012Z" />
<glyph unicode="s" glyph-name="s" horiz-adv-x="1622" d="M983 2245Q1146 2245 1266 2206T1465 2103T1583 1958T1622 1794Q1622 1696 1596 1626T1523 1512T1416 1446T1286 1425Q1243 1425 1210 1431T1143 1446Q1129 1503 1109 1545T1055 1622T970 1683T844 1737Q831
1706 825 1668T819 1593Q819 1566 823 1545T842 1501T888 1451T972 1386T1105 1295T1298 1167Q1395 1104 1461 1049T1569 935T1629 807T1647 647Q1647 518 1598 397T1450 182T1203 32T856 -25Q695 -25 562 1T334 84T187 231T135 451Q135 529 158 592T222 701T318
770T438 795Q460 795 484 792T532 782Q592 671 642 601T736 490T823 434T909 418Q940 418 961 426T997 447T1017 477T1024 512Q1024 525 1018 540T993 575T941 624T853 693T721 789T537 918Q451 978 392 1038T297 1164T245 1302T229 1458Q229 1530 244 1605T289
1749T364 1879T471 1982Q514 2053 559 2103T664 2184T800 2230T983 2245Z" />
<glyph unicode="t" glyph-name="t" horiz-adv-x="1524" d="M1573 2191Q1587 2174 1599 2149T1619 2094T1633 2033T1638 1974Q1638 1847 1614 1764T1540 1632T1417 1560T1245 1532Q1244 1481 1242 1400T1237 1219T1229 1011T1221 794Q1211 543 1200 258Q1196 183
1163 131T1074 46T943 -1T778 -16Q711 -16 664 -10T587 14T540 62T515 141T506 258T504 418Q504 495 505 582T507 761T510 942T514 1116Q518 1310 524 1507Q404 1507 330 1514T214 1540T158 1590T143 1667Q143 1785 164 1880T220 2043T300 2150T393 2195Q436 2198
481 2201T587 2207T729 2210T926 2212Q1046 2212 1140 2211T1312 2207T1452 2200T1573 2191Z" />
<glyph unicode="u" glyph-name="u" horiz-adv-x="1942" d="M262 1712Q244 1780 237 1841T229 1958Q229 2018 262 2069T358 2159T514 2219T725 2241Q803 2241 851 2225T924 2179T958 2111T967 2028Q967 1948 963 1849T953 1635T943 1395T938 1135Q938 1008 943
915T963 755T999 644T1056 572T1137 528T1245 500Q1247 549 1248 628T1251 804T1254 1010T1256 1228T1259 1440T1260 1628T1261 1776T1262 1864Q1262 1917 1264 1965T1276 2053T1306 2125T1361 2181T1448 2216T1577 2228Q1634 2228 1687 2221T1786 2200T1866 2166T1921
2122Q1921 2051 1920 1941T1916 1692T1911 1396T1906 1072T1903 740T1901 418Q1901 321 1870 258T1774 155T1607 98T1364 74Q1287 27 1174 1T918 -25Q715 -25 583 43T373 248T264 594T233 1081Q233 1153 234 1210T238 1317T243 1412T249 1503T255 1599T262 1712Z"
/>
<glyph unicode="v" glyph-name="v" horiz-adv-x="1917" d="M1409 2154Q1423 2168 1446 2181T1499 2204T1561 2221T1626 2228Q1710 2228 1782 2213T1906 2154T1989 2037T2019 1843Q2019 1776 1994 1641T1920 1317T1797 894T1626 393Q1605 332 1575 286T1494 203T1367
137T1176 82Q1150 62 1113 44T1026 11T915 -11T778 -20Q703 -20 656 4T579 79T531 204T496 381Q446 690 388 1005T258 1638Q190 1703 157 1764T123 1901Q123 1961 146 2009T210 2095T307 2159T428 2203T564 2228T709 2236Q774 2236 816 2213T886 2138T935 2004T975
1802Q980 1771 989 1714T1009 1582T1032 1420T1057 1242T1082 1060T1105 890T1125 743T1139 635Q1179 802 1214 962T1278 1272T1330 1554T1371 1801T1397 2004T1409 2154Z" />
<glyph unicode="w" glyph-name="w" horiz-adv-x="2793" d="M2286 2154Q2300 2168 2323 2181T2375 2204T2436 2221T2499 2228Q2585 2228 2652 2213T2765 2154T2835 2037T2859 1843Q2859 1776 2839 1643T2775 1323T2663 904T2499 406Q2476 345 2449 299T2377 218T2264
155T2089 102Q2060 76 2028 55T1955 19T1862 -4T1741 -12Q1704 -12 1673 -3T1617 31T1570 102T1532 221Q1528 243 1521 283T1503 373T1483 478T1463 583T1446 675T1434 741Q1419 690 1403 631T1370 510T1337 390T1304 280T1271 190T1237 131Q1209 96 1162 68T1052
21T914 -9T758 -20Q663 -20 603 4T505 79T446 204T410 381Q385 535 367 691T328 1005T284 1321T225 1638Q173 1700 148 1763T123 1901Q123 1991 163 2055T274 2159T439 2217T643 2236Q697 2236 739 2222T814 2170T870 2067T909 1901Q914 1870 921 1801T938 1640T957
1439T978 1223Q1002 970 1028 668L1257 1470Q1237 1562 1225 1623T1205 1731T1195 1814T1192 1896Q1192 1971 1224 2032T1315 2135T1454 2201T1630 2224Q1695 2224 1735 2201T1801 2126T1846 1993T1884 1794Q1889 1763 1898 1708T1920 1581T1945 1425T1972 1254T1999
1080T2024 916T2045 774T2060 668Q2120 918 2161 1147T2229 1570T2269 1914T2286 2154Z" />
<glyph unicode="x" glyph-name="x" horiz-adv-x="1815" d="M328 1626Q244 1688 204 1759T164 1905Q164 1995 206 2059T321 2163T490 2222T696 2241Q752 2241 791 2235T858 2215T904 2182T934 2134Q938 2124 948 2095T974 2023T1006 1930T1042 1828Q1084 1707 1135
1561L1331 2167Q1368 2198 1425 2215T1544 2232Q1708 2232 1794 2159T1880 1946Q1880 1884 1864 1826T1810 1700L1466 1065L1794 385Q1816 339 1831 289T1847 193Q1847 93 1731 43T1376 -8Q1335 -8 1303 -1T1246 23T1200 66T1163 131L918 676L762 53Q728 22 671
5T549 -12Q468 -12 404 7T294 62T225 151T201 274Q201 308 205 338T218 397T238 456T266 520L561 1151L328 1626Z" />
<glyph unicode="y" glyph-name="y" horiz-adv-x="1786" d="M1548 2236Q1633 2236 1696 2217T1804 2164T1874 2083T1909 1978L1356 815L1352 303Q1352 242 1328 184T1245 80T1088 8T840 -20Q768 -20 721 -8T647 37T609 128T598 279Q598 317 598 358T600 443T602
528T604 608Q607 698 610 786L258 1704Q226 1727 202 1757T163 1820T139 1885T131 1946Q131 1993 154 2033T215 2106T305 2164T414 2206T530 2232T643 2241Q702 2241 747 2229T827 2189T890 2118T938 2011L1118 1487L1294 2015Q1314 2077 1335 2119T1386 2187T1454
2224T1548 2236Z" />
<glyph unicode="z" glyph-name="z" horiz-adv-x="1675" d="M1327 12Q1247 6 1144 1T926 -4Q745 -4 612 5T388 37T249 96T188 188Q182 210 178 238T172 297T169 359T168 418Q168 446 175 477T197 546T239 629T303 729L872 1552Q814 1557 736 1563T574 1576T412
1588T270 1597Q252 1616 240 1643T220 1702T209 1770T205 1843Q205 1951 244 2025T352 2147T514 2215T717 2236Q903 2236 1117 2223T1573 2204Q1607 2203 1637 2191T1691 2142T1727 2041T1741 1868Q1741 1813 1729 1767T1692 1681T1627 1603T1532 1528Q1501 1474
1458 1407T1365 1265T1264 1114T1162 965Q1045 796 918 618Q952 619 1011 621T1140 625T1286 630T1427 635T1543 638T1614 639Q1629 625 1641 600T1662 543T1674 480T1679 422Q1679 327 1651 254T1574 129T1462 48T1327 12Z" />
<glyph unicode="{" glyph-name="braceleft" horiz-adv-x="1671" d="M1184 1126Q1243 1061 1266 974T1290 791Q1290 739 1288 676T1284 532T1280 352T1278 123Q1278 68 1291 23T1341 -61T1440 -131T1602 -193Q1608 -208 1611 -232T1614 -279Q1614 -336 1591 -385T1523
-472T1409 -531T1249 -553Q1142 -553 1055 -530T901 -468T785 -375T705 -263T658 -140T643 -16Q643 107 656 216T684 425T712 620T725 807Q725 866 681 900T541 934Q521 934 488 933T418 929T347 922T291 913Q244 957 225 1012T205 1139Q205 1182 224 1232T288
1325T405 1396T582 1425Q625 1425 663 1422T745 1409Q749 1431 751 1467T754 1532Q754 1583 750 1650T742 1793T733 1945T729 2093Q729 2178 751 2259T816 2412T923 2544T1072 2647T1260 2715T1487 2740Q1558 2740 1614 2723T1711 2673T1772 2597T1794 2499Q1794
2468 1786 2433T1765 2380Q1677 2370 1612 2361T1501 2338T1425 2304T1378 2252T1355 2175T1348 2064V1573Q1348 1437 1306 1328T1184 1126Z" />
<glyph unicode="|" glyph-name="bar" horiz-adv-x="1700" d="M1233 -119Q1199 -156 1152 -176T1040 -197Q962 -197 899 -169T792 -70T724 119T700 418Q700 599 702 763T707 1082T717 1388T733 1692Q715 1716 701 1740T676 1792T661 1851T655 1921Q655 1988 675
2056T728 2189T806 2309T898 2408T996 2474T1090 2499Q1142 2499 1176 2483T1232 2437T1261 2367T1270 2277Q1270 2145 1261 1989T1239 1650T1218 1255T1208 799Q1208 703 1208 621T1209 464T1211 320T1215 181T1222 38T1233 -119Z" />
<glyph unicode="}" glyph-name="braceright" horiz-adv-x="1630" d="M713 1057Q654 1122 630 1209T606 1393Q606 1445 608 1508T612 1651T616 1832T618 2060Q618 2116 605 2161T555 2244T456 2314T295 2376Q289 2391 286 2415T283 2462Q283 2519 306 2568T374
2655T488 2714T647 2736Q755 2736 841 2713T995 2651T1111 2559T1191 2447T1238 2324T1253 2200Q1253 2077 1240 1968T1212 1758T1184 1563T1171 1376Q1171 1317 1215 1283T1356 1249Q1376 1249 1409 1250T1479 1254T1550 1261T1606 1270Q1652 1226 1672 1171T1692
1044Q1692 1001 1672 951T1608 858T1491 787T1315 758Q1271 758 1233 761T1151 774Q1148 752 1146 716T1143 651Q1143 600 1147 533T1155 391T1163 239T1167 90Q1167 5 1145 -76T1080 -229T973 -361T825 -464T637 -532T410 -557Q339 -557 282 -540T185 -490T124
-414T102 -315Q102 -284 110 -250T131 -197Q219 -187 284 -178T395 -155T472 -121T519 -69T542 9T549 119V610Q549 747 590 855T713 1057Z" />
<glyph unicode="~" glyph-name="asciitilde" horiz-adv-x="1806" d="M831 1356Q965 1370 1060 1385T1231 1422T1372 1475T1511 1552Q1574 1531 1618 1496T1691 1415T1732 1317T1745 1204Q1745 1123 1713 1051T1613 926T1444 842T1204 811Q1153 811 1084 814T941
823T795 836T668 852Q646 838 620 819T566 777T514 734T471 696Q426 699 387 717T318 765T271 837T254 930Q254 1105 395 1213T831 1356Z" />
</font>
</defs>
</svg>
