<?xml version="1.0" standalone="no"?> <!DOCTYPE svg PUBLIC "-//W3C//DTD SVG 1.0//EN" "http://www.w3.org/TR/2001/REC-SVG-20010904/DTD/svg10.dtd" > <svg xmlns="http://www.w3.org/2000/svg" width="100%" height="100%">
<defs >
<font id="BELLO-WORDSSHADOW" horiz-adv-x="2815" ><font-face
    font-family="Bello"
    units-per-em="4096"
    panose-1="2 0 5 7 2 0 0 2 0 3"
    ascent="3072"
    descent="-1024"
    alphabetic="0" />
<missing-glyph horiz-adv-x="1663" d="M721 381V598H901V381H721ZM729 758L725 811Q725 901 734 967T766 1073Q788 1116 825 1164T918 1266Q970 1317 1001 1354T1049 1421T1071 1480T1077 1540Q1077 1597 1057 1647T1004 1734T925 1793T831 1815Q780 1815 736
1798T657 1744T598 1647T565 1503L401 1532Q413 1646 451 1729T546 1866T679 1947T840 1974Q926 1974 999 1944T1126 1858T1210 1724T1241 1548Q1241 1496 1232 1451T1200 1360T1137 1266T1036 1159Q974 1110 940 1068T897 991Q891 960 886 902T881 758H729ZM1499
160V2163H160V160H1499ZM1663 2331V0H0V2331H1663Z" />
<glyph unicode=" " glyph-name="space" horiz-adv-x="901" />
<glyph unicode="!" glyph-name="exclam" horiz-adv-x="2499" d="M152 -487Q-143 -487 -396 -456T-861 -368T-1244 -231T-1548 -53Q-1272 -223 -873 -310T61 -397Q136 -397 204 -395T339 -387T471 -373T610 -352L725 -438Q577 -463 438 -475T152 -487ZM2159 1208Q2159
992 2109 790T1962 411T1723 89T1397 -160L1343 -66Q1529 37 1675 180T1924 500T2085 880T2154 1311Q2158 1283 2158 1258T2159 1208Z" />
<glyph unicode="&quot;" glyph-name="quotedbl" horiz-adv-x="1724" d="M1081 569Q1008 569 947 602T842 692T774 823T750 979Q750 1054 786 1116T882 1224T1020 1294T1184 1319Q1255 1319 1308 1306T1398 1270T1452 1214T1470 1143Q1470 1084 1457 1018T1419
889T1359 767T1281 665T1187 595T1081 569Z" />
<glyph unicode="#" glyph-name="numbersign" horiz-adv-x="1724" d="M1081 569Q1008 569 947 602T842 692T774 823T750 979Q750 1054 786 1116T882 1224T1020 1294T1184 1319Q1255 1319 1308 1306T1398 1270T1452 1214T1470 1143Q1470 1084 1457 1018T1419 889T1359
767T1281 665T1187 595T1081 569Z" />
<glyph unicode="$" glyph-name="dollar" horiz-adv-x="1724" d="M1081 569Q1008 569 947 602T842 692T774 823T750 979Q750 1054 786 1116T882 1224T1020 1294T1184 1319Q1255 1319 1308 1306T1398 1270T1452 1214T1470 1143Q1470 1084 1457 1018T1419 889T1359
767T1281 665T1187 595T1081 569Z" />
<glyph unicode="%" glyph-name="percent" horiz-adv-x="1724" d="M1081 569Q1008 569 947 602T842 692T774 823T750 979Q750 1054 786 1116T882 1224T1020 1294T1184 1319Q1255 1319 1308 1306T1398 1270T1452 1214T1470 1143Q1470 1084 1457 1018T1419 889T1359
767T1281 665T1187 595T1081 569Z" />
<glyph unicode="&amp;" glyph-name="ampersand" horiz-adv-x="2253" d="M-410 -1044Q-597 -1044 -770 -1015T-1092 -934T-1356 -815T-1544 -668Q-1454 -736 -1338 -790T-1088 -883T-803 -942T-492 -963Q-307 -963 -134 -936T192 -861T477 -751T712 -617T888 -471T995
-324Q1011 -339 1017 -362T1024 -414Q1024 -474 974 -544T830 -684T607 -819T317 -934T-26 -1014T-410 -1044ZM-791 1982Q-815 1989 -833 2010T-860 2056Q-751 2128 -615 2190T-332 2298T-33 2370T258 2396Q599 2396 835 2336T1217 2159Q1063 2245 845 2286T340
2327Q197 2327 44 2301T-259 2229T-545 2119T-791 1982ZM1217 135Q1165 135 1123 140T1047 158T985 188T930 233Q976 215 1026 206T1135 197Q1231 197 1337 248T1548 393T1748 617T1919 906T2043 1246T2101 1622Q2104 1594 2104 1564T2105 1503Q2105 1319 2065
1146T1957 821T1799 543T1611 326T1411 185T1217 135ZM246 41Q168 41 118 59T37 115Q90 102 164 102Q230 102 296 126T430 197T567 310T709 459Q718 437 729 417T754 381Q688 306 624 244T496 136T370 66T246 41ZM-1229 45Q-1169 45 -1106 70T-978 140T-849 245T-725
377Q-716 355 -704 337T-680 299Q-734 232 -792 174T-910 74T-1030 8T-1147 -16Q-1203 -16 -1242 -1T-1307 49Q-1288 46 -1269 46T-1229 45ZM-172 123Q-194 101 -228 88T-311 74Q-370 74 -421 96T-512 160Q-484 147 -454 141T-393 135Q-359 135 -330 141T-275 162T-222
197T-168 250L-172 123Z" />
<glyph unicode="&apos;" glyph-name="quotesingle" horiz-adv-x="1724" d="M1081 569Q1008 569 947 602T842 692T774 823T750 979Q750 1054 786 1116T882 1224T1020 1294T1184 1319Q1255 1319 1308 1306T1398 1270T1452 1214T1470 1143Q1470 1084 1457 1018T1419
889T1359 767T1281 665T1187 595T1081 569Z" />
<glyph unicode="(" glyph-name="parenleft" horiz-adv-x="1724" d="M1081 569Q1008 569 947 602T842 692T774 823T750 979Q750 1054 786 1116T882 1224T1020 1294T1184 1319Q1255 1319 1308 1306T1398 1270T1452 1214T1470 1143Q1470 1084 1457 1018T1419 889T1359
767T1281 665T1187 595T1081 569Z" />
<glyph unicode=")" glyph-name="parenright" horiz-adv-x="1724" d="M1081 569Q1008 569 947 602T842 692T774 823T750 979Q750 1054 786 1116T882 1224T1020 1294T1184 1319Q1255 1319 1308 1306T1398 1270T1452 1214T1470 1143Q1470 1084 1457 1018T1419 889T1359
767T1281 665T1187 595T1081 569Z" />
<glyph unicode="*" glyph-name="asterisk" horiz-adv-x="1724" d="M1081 569Q1008 569 947 602T842 692T774 823T750 979Q750 1054 786 1116T882 1224T1020 1294T1184 1319Q1255 1319 1308 1306T1398 1270T1452 1214T1470 1143Q1470 1084 1457 1018T1419 889T1359
767T1281 665T1187 595T1081 569Z" />
<glyph unicode="+" glyph-name="plus" horiz-adv-x="1724" d="M1081 569Q1008 569 947 602T842 692T774 823T750 979Q750 1054 786 1116T882 1224T1020 1294T1184 1319Q1255 1319 1308 1306T1398 1270T1452 1214T1470 1143Q1470 1084 1457 1018T1419 889T1359
767T1281 665T1187 595T1081 569Z" />
<glyph unicode="," glyph-name="comma" horiz-adv-x="1724" d="M1081 569Q1008 569 947 602T842 692T774 823T750 979Q750 1054 786 1116T882 1224T1020 1294T1184 1319Q1255 1319 1308 1306T1398 1270T1452 1214T1470 1143Q1470 1084 1457 1018T1419 889T1359
767T1281 665T1187 595T1081 569Z" />
<glyph unicode="-" glyph-name="hyphen" horiz-adv-x="1892" d="M881 1040Q957 1066 1021 1090T1141 1138T1249 1188T1352 1245T1456 1310T1569 1389Q1610 1387 1649 1366T1718 1309T1767 1229T1786 1135Q1786 1032 1724 953T1532 814T1204 711T733 635Q710 643
691 658T657 695T635 741T627 795Q627 838 639 872T680 934T758 988T881 1040Z" />
<glyph unicode="." glyph-name="period" horiz-adv-x="1724" d="M1081 569Q1008 569 947 602T842 692T774 823T750 979Q750 1054 786 1116T882 1224T1020 1294T1184 1319Q1255 1319 1308 1306T1398 1270T1452 1214T1470 1143Q1470 1084 1457 1018T1419 889T1359
767T1281 665T1187 595T1081 569Z" />
<glyph unicode="/" glyph-name="slash" horiz-adv-x="1724" d="M1081 569Q1008 569 947 602T842 692T774 823T750 979Q750 1054 786 1116T882 1224T1020 1294T1184 1319Q1255 1319 1308 1306T1398 1270T1452 1214T1470 1143Q1470 1084 1457 1018T1419 889T1359
767T1281 665T1187 595T1081 569Z" />
<glyph unicode="0" glyph-name="zero" horiz-adv-x="2253" d="M-1548 -508Q-1604 -508 -1651 -498T-1739 -471T-1813 -432T-1872 -385Q-1822 -407 -1762 -416T-1630 -426Q-1539 -426 -1451 -398T-1277 -306T-1103 -143T-927 101T-746 435T-557 868Q-548 850 -539
834T-520 803Q-615 560 -703 369T-874 32T-1039 -216T-1202 -384T-1370 -478T-1548 -508ZM627 -266Q621 -260 614 -250T600 -229T589 -207T582 -188Q633 -190 691 -192T807 -196T920 -199T1020 -201Q1332 -201 1515 -117T1749 135Q1755 117 1760 98T1765 57Q1765
-103 1597 -193T1102 -283Q1050 -283 989 -282T865 -278T741 -272T627 -266ZM2044 1421Q2044 1301 2023 1175T1961 927T1859 694T1720 496Q1705 511 1687 523T1651 545Q1734 631 1800 740T1915 972T1994 1225T2036 1483Q2039 1467 2041 1452T2044 1421ZM33 -332Q-12
-332 -49 -323T-115 -299T-165 -265T-201 -225Q-170 -238 -127 -244T-41 -250Q43 -250 118 -218T252 -125T350 19T401 209Q405 190 405 172T406 135Q406 46 380 -38T306 -187T188 -292T33 -332Z" />
<glyph unicode="1" glyph-name="one" horiz-adv-x="1434" d="M-893 -401Q-899 -395 -906 -385T-920 -364T-932 -343T-938 -324Q-894 -325 -839 -325T-723 -326T-601 -327T-483 -328T-381 -328T-303 -328Q-146 -328 -20 -301T200 -223T355 -103T442 53Q452 35 455
14T459 -29Q459 -109 414 -178T282 -299T69 -380T-221 -410Q-256 -410 -309 -410T-426 -410T-557 -409T-688 -407T-804 -405T-893 -401ZM455 221Q455 237 452 258T438 295Q524 298 604 326T757 400T892 508T1006 637T1097 777T1159 918Q1168 902 1176 883T1184
840Q1184 789 1160 723T1091 589T981 454T835 336T658 253T455 221Z" />
<glyph unicode="2" glyph-name="two" horiz-adv-x="1638" d="M549 242Q506 242 471 245T401 258Q401 267 398 287T389 319Q417 316 439 316T483 315Q587 315 695 365T905 511T1100 746T1264 1061T1382 1450T1438 1905Q1441 1886 1441 1866T1442 1827Q1442 1588
1404 1378T1299 992T1145 677T957 441T753 293T549 242ZM-946 -401Q-952 -395 -958 -385T-969 -364T-978 -343T-983 -324Q-939 -325 -884 -325T-768 -326T-646 -327T-528 -328T-426 -328T-348 -328Q-191 -328 -65 -301T155 -223T310 -103T397 53Q407 35 410 14T414
-29Q414 -109 369 -178T237 -299T24 -380T-266 -410Q-301 -410 -355 -410T-474 -410T-606 -409T-739 -407T-857 -405T-946 -401Z" />
<glyph unicode="3" glyph-name="three" horiz-adv-x="1434" d="M1339 1802Q1339 1567 1301 1359T1198 975T1045 661T859 424T657 273T455 217Q455 236 452 258T442 299Q541 318 642 379T840 540T1022 778T1174 1085T1283 1456T1335 1884Q1338 1862 1338 1843T1339
1802ZM-901 -401Q-907 -395 -913 -385T-924 -364T-933 -343T-938 -324Q-894 -325 -839 -325T-723 -326T-601 -327T-483 -328T-381 -328T-303 -328Q-146 -328 -20 -301T200 -223T355 -103T442 53Q452 35 455 14T459 -29Q459 -109 414 -178T282 -299T69 -380T-221
-410Q-256 -410 -310 -410T-428 -410T-561 -409T-694 -407T-812 -405T-901 -401ZM-1090 651Q-1127 651 -1153 666T-1192 713Q-1136 713 -1073 747T-954 844Q-964 807 -972 768T-987 688Q-1015 670 -1040 661T-1090 651Z" />
<glyph unicode="4" glyph-name="four" horiz-adv-x="1536" d="M-1040 -401Q-1046 -395 -1052 -385T-1063 -364T-1072 -343T-1077 -324Q-1033 -325 -978 -325T-862 -326T-740 -327T-622 -328T-520 -328T-442 -328Q-286 -328 -160 -301T61 -223T216 -103T303 53Q312
35 315 14T319 -29Q319 -109 274 -178T143 -299T-70 -380T-360 -410Q-395 -410 -449 -410T-568 -410T-700 -409T-833 -407T-951 -405T-1040 -401ZM647 225Q567 225 515 246T434 307Q462 301 501 298T578 295Q650 295 725 322T875 394T1018 500T1147 628T1253 764T1327
897Q1360 866 1360 823Q1360 775 1328 712T1243 583T1118 452T967 338T805 256T647 225Z" />
<glyph unicode="5" glyph-name="five" horiz-adv-x="2048" d="M1126 352Q1052 352 1003 370T922 426Q976 414 1044 414Q1112 414 1187 439T1338 508T1486 610T1620 734T1729 869T1802 1004Q1815 988 1821 967T1827 922Q1827 868 1795 805T1708 678T1583 556T1434
452T1277 379T1126 352ZM-1384 307Q-1443 307 -1494 326T-1585 385Q-1557 376 -1527 373T-1466 369Q-1408 369 -1337 404T-1192 524Q-1183 500 -1171 479T-1147 442Q-1176 404 -1207 378T-1269 337T-1329 314T-1384 307ZM-967 -229Q-976 -222 -985 -211T-1003 -189T-1017
-166T-1024 -147Q-976 -146 -910 -143T-767 -135T-606 -126T-437 -117T-272 -107T-123 -98T0 -91T86 -86Q257 -75 384 -46T600 28T744 136T823 274Q833 256 838 237T844 193Q844 119 809 54T695 -62T485 -146T164 -188Q138 -190 83 -192T-48 -198T-211 -204T-392
-211T-573 -218T-740 -224T-877 -227T-967 -229Z" />
<glyph unicode="6" glyph-name="six" horiz-adv-x="2048" d="M1282 352Q1208 352 1158 370T1077 426Q1133 414 1200 414Q1268 414 1343 439T1493 508T1641 610T1775 734T1884 869T1958 1004Q1970 988 1976 967T1982 922Q1982 868 1950 805T1864 678T1738 556T1589
452T1432 379T1282 352ZM-811 -229Q-820 -222 -829 -211T-847 -189T-861 -166T-868 -147Q-820 -146 -754 -143T-611 -135T-450 -126T-281 -117T-116 -107T33 -98T156 -91T242 -86Q412 -75 539 -46T756 28T899 136T979 274Q988 256 993 237T999 193Q999 119 964
54T850 -62T640 -146T319 -188Q293 -190 238 -192T107 -198T-56 -204T-236 -211T-418 -218T-585 -224T-721 -227T-811 -229Z" />
<glyph unicode="7" glyph-name="seven" horiz-adv-x="2048" d="M-803 41Q-868 -62 -945 -150T-1107 -303T-1276 -405T-1442 -442Q-1606 -442 -1679 -356Q-1645 -369 -1606 -375T-1524 -381Q-1432 -381 -1337 -334T-1151 -206T-975 -13T-819 225Q-819 199 -818
173T-816 121T-811 76T-803 41ZM-553 -279Q-562 -271 -571 -260T-587 -238T-600 -216T-606 -197Q-558 -196 -501 -194T-383 -190T-260 -184T-141 -178T-34 -173T53 -168Q233 -156 362 -126T578 -49T717 58T791 193Q800 174 805 155T811 111Q811 37 778 -28T665
-144T455 -228T131 -270Q96 -272 44 -273T-71 -276T-201 -277T-333 -278T-455 -279T-553 -279ZM1094 352Q1019 352 970 370T889 426Q945 414 1012 414Q1080 414 1155 439T1305 508T1453 610T1587 734T1696 869T1769 1004Q1782 988 1788 967T1794 922Q1794 868 1762
805T1675 678T1550 556T1401 452T1244 379T1094 352Z" />
<glyph unicode="8" glyph-name="eight" horiz-adv-x="2499" d="M152 -487Q-143 -487 -396 -456T-861 -368T-1244 -231T-1548 -53Q-1272 -223 -873 -310T61 -397Q136 -397 204 -395T339 -387T471 -373T610 -352L725 -438Q577 -463 438 -475T152 -487ZM2159 1208Q2159
992 2109 790T1962 411T1723 89T1397 -160L1343 -66Q1529 37 1675 180T1924 500T2085 880T2154 1311Q2158 1283 2158 1258T2159 1208Z" />
<glyph unicode="9" glyph-name="nine" horiz-adv-x="3809" d="M-2265 -602Q-2277 -590 -2286 -565T-2298 -520Q-2158 -519 -1980 -513T-1598 -498T-1171 -477T-717 -450T-257 -418T190 -381T605 -342T971 -299Q991 -302 1024 -305T1095 -310T1173 -313T1245 -315Q1374
-315 1482 -289T1672 -213T1808 -91T1884 74Q1890 55 1895 35T1901 -4Q1901 -92 1858 -166T1733 -295T1536 -379T1274 -410Q1243 -410 1207 -409T1137 -405T1072 -399T1024 -393Q854 -415 651 -436T225 -476T-231 -511T-699 -542T-1156 -567T-1583 -586T-1960 -598T-2265
-602ZM2523 1200Q2506 1107 2474 1014T2398 834T2297 668T2173 527T2031 419T1872 352L1835 426Q1955 464 2057 548T2241 746T2384 993T2482 1266Q2598 1274 2700 1280Q2744 1283 2788 1285T2874 1290T2949 1293T3006 1294Q3031 1294 3051 1279T3084 1233Q3061
1233 3025 1232T2945 1228T2853 1223T2757 1217Q2647 1210 2523 1200ZM-3117 -8Q-3145 -8 -3176 9T-3236 57Q-3227 54 -3218 54T-3199 53Q-3168 53 -3138 60T-3074 82T-3005 124T-2925 188L-2843 139Q-2886 98 -2922 70T-2990 25T-3054 0T-3117 -8ZM3400 934Q3313
934 3269 967V999Q3281 996 3299 996T3330 995Q3381 995 3431 1018T3525 1089T3602 1209T3650 1380Q3653 1362 3655 1343T3658 1303Q3658 1204 3635 1134T3574 1020T3490 955T3400 934Z" />
<glyph unicode=":" glyph-name="colon" horiz-adv-x="1724" d="M1081 569Q1008 569 947 602T842 692T774 823T750 979Q750 1054 786 1116T882 1224T1020 1294T1184 1319Q1255 1319 1308 1306T1398 1270T1452 1214T1470 1143Q1470 1084 1457 1018T1419 889T1359
767T1281 665T1187 595T1081 569Z" />
<glyph unicode=";" glyph-name="semicolon" horiz-adv-x="1724" d="M1081 569Q1008 569 947 602T842 692T774 823T750 979Q750 1054 786 1116T882 1224T1020 1294T1184 1319Q1255 1319 1308 1306T1398 1270T1452 1214T1470 1143Q1470 1084 1457 1018T1419 889T1359
767T1281 665T1187 595T1081 569Z" />
<glyph unicode="&lt;" glyph-name="less" horiz-adv-x="1724" d="M1081 569Q1008 569 947 602T842 692T774 823T750 979Q750 1054 786 1116T882 1224T1020 1294T1184 1319Q1255 1319 1308 1306T1398 1270T1452 1214T1470 1143Q1470 1084 1457 1018T1419 889T1359
767T1281 665T1187 595T1081 569Z" />
<glyph unicode="=" glyph-name="equal" horiz-adv-x="1724" d="M1081 569Q1008 569 947 602T842 692T774 823T750 979Q750 1054 786 1116T882 1224T1020 1294T1184 1319Q1255 1319 1308 1306T1398 1270T1452 1214T1470 1143Q1470 1084 1457 1018T1419 889T1359
767T1281 665T1187 595T1081 569Z" />
<glyph unicode="&gt;" glyph-name="greater" horiz-adv-x="1724" d="M1081 569Q1008 569 947 602T842 692T774 823T750 979Q750 1054 786 1116T882 1224T1020 1294T1184 1319Q1255 1319 1308 1306T1398 1270T1452 1214T1470 1143Q1470 1084 1457 1018T1419 889T1359
767T1281 665T1187 595T1081 569Z" />
<glyph unicode="?" glyph-name="question" horiz-adv-x="2499" d="M152 -487Q-143 -487 -396 -456T-861 -368T-1244 -231T-1548 -53Q-1272 -223 -873 -310T61 -397Q136 -397 204 -395T339 -387T471 -373T610 -352L725 -438Q577 -463 438 -475T152 -487ZM2159 1208Q2159
992 2109 790T1962 411T1723 89T1397 -160L1343 -66Q1529 37 1675 180T1924 500T2085 880T2154 1311Q2158 1283 2158 1258T2159 1208Z" />
<glyph unicode="@" glyph-name="at" horiz-adv-x="1724" d="M1081 569Q1008 569 947 602T842 692T774 823T750 979Q750 1054 786 1116T882 1224T1020 1294T1184 1319Q1255 1319 1308 1306T1398 1270T1452 1214T1470 1143Q1470 1084 1457 1018T1419 889T1359 767T1281
665T1187 595T1081 569Z" />
<glyph unicode="A" glyph-name="A" horiz-adv-x="6513" d="M-1954 -1106Q-1991 -1106 -2031 -1097T-2111 -1072T-2187 -1032T-2253 -979Q-2197 -1010 -2143 -1027T-2036 -1044Q-1987 -1044 -1948 -1013T-1877 -920T-1819 -764T-1769 -541Q-1679 -528 -1577 -517T-1350
-498T-1077 -484T-746 -472T-344 -461T143 -451Q163 -454 190 -457T246 -462T304 -465T360 -467Q489 -467 594 -433T779 -340T910 -204T983 -41Q995 -79 995 -127Q995 -213 956 -292T844 -432T664 -529T422 -565Q366 -565 310 -560T217 -549Q-89 -555 -326 -560T-746
-572T-1069 -584T-1320 -598T-1523 -615T-1704 -635Q-1724 -760 -1752 -849T-1814 -995T-1883 -1079T-1954 -1106ZM5325 811Q5390 863 5441 898T5534 955T5611 986T5681 995Q5724 995 5764 985T5844 955T5925 909T6013 848Q6053 866 6089 895T6154 963T6206 1050T6238
1155Q6247 1133 6251 1106T6255 1057Q6255 996 6237 945T6189 854T6118 783T6033 733Q5989 775 5949 805T5868 854T5789 883T5706 893Q5671 893 5639 885T5568 855T5480 797T5362 705Q5241 610 5148 546T4979 442T4841 386T4719 369Q4666 369 4616 393T4538 455Q4560
448 4584 445T4633 442Q4696 442 4763 460T4911 522T5094 635T5325 811ZM-5759 -295Q-5864 -295 -5948 -260T-6095 -168Q-6039 -193 -5977 -205T-5841 -217Q-5736 -217 -5639 -186T-5441 -81T-5230 116T-4989 422Q-4908 425 -4816 428T-4641 438Q-4644 404 -4644
379T-4645 348Q-4671 347 -4704 346T-4774 343T-4846 341T-4915 340Q-5001 216 -5077 121T-5223 -45T-5358 -163T-5489 -240T-5620 -282T-5759 -295ZM2167 168Q2083 168 2012 202T1888 287Q1932 265 1980 256T2085 246Q2164 246 2241 273T2393 350T2537 470T2670
627T2790 814T2892 1024Q2887 998 2883 967T2876 903T2871 838T2867 778Q2729 471 2550 320T2167 168ZM1212 90Q1172 90 1137 99T1073 121T1023 152T991 184Q1019 175 1050 172T1118 168Q1174 168 1241 193T1381 263T1529 365T1675 487Q1688 466 1706 438T1741
393Q1678 332 1608 277T1468 180T1332 115T1212 90ZM-2736 -86Q-2795 -86 -2838 -60T-2916 0Q-2895 -6 -2871 -11T-2818 -16Q-2764 -16 -2699 12T-2565 86T-2424 192T-2286 315Q-2286 305 -2286 288T-2288 251T-2289 208T-2290 164Q-2347 112 -2406 67T-2523 -13T-2635
-66T-2736 -86ZM-4219 -180Q-4284 -180 -4332 -153T-4411 -82Q-4390 -91 -4361 -94T-4301 -98Q-4240 -98 -4168 -74T-4019 -9T-3864 90T-3711 213Q-3725 188 -3739 158T-3767 97T-3792 38T-3809 -12Q-3921 -93 -4025 -136T-4219 -180ZM-3367 -795Q-3404 -795 -3441
-785T-3513 -758T-3576 -719T-3625 -672Q-3582 -697 -3537 -709T-3449 -721Q-3378 -721 -3323 -660T-3226 -483T-3155 -203T-3105 168Q-3104 164 -3097 154T-3081 132T-3065 111T-3056 98Q-3093 -351 -3170 -573T-3367 -795ZM3277 254Q3249 254 3222 261T3170 280T3124
307T3088 340Q3132 328 3178 328Q3226 328 3283 346T3400 394T3522 466T3641 553Q3657 534 3681 511T3723 475Q3672 430 3615 390T3499 320T3383 272T3277 254ZM4006 340Q3928 340 3871 369T3777 442Q3811 427 3844 421T3912 414Q3995 414 4102 483T4321 692Q4331
667 4345 640T4379 594Q4274 459 4182 400T4006 340Z" />
<glyph unicode="B" glyph-name="B" horiz-adv-x="9134" d="M-4035 -1864Q-4070 -1864 -4102 -1856T-4162 -1833T-4215 -1802T-4260 -1765Q-4232 -1775 -4202 -1778T-4137 -1782Q-4063 -1782 -3999 -1759T-3879 -1679Q-3861 -1445 -3805 -1254T-3646 -913T-3391
-654T-3026 -473T-2539 -367T-1917 -332Q-1221 -332 -554 -367T749 -457T1985 -582T3150 -721Q3596 -775 4018 -824T4837 -912T5608 -972T6328 -995Q6681 -995 6975 -956T7509 -834T7935 -622T8259 -313T8486 101T8622 627Q8636 713 8647 779T8666 898T8680 992T8692
1069Q8697 1101 8701 1129T8709 1188T8719 1252T8733 1331Q8801 1430 8853 1528T8929 1729Q8939 1719 8942 1699T8946 1663Q8946 1561 8899 1444T8761 1200Q8748 1126 8740 1074T8724 977T8711 887T8696 783T8675 642T8643 442Q8579 38 8415 -253T7977 -732T7314
-1009T6410 -1098Q6020 -1098 5596 -1070T4714 -995T3767 -888T2759 -766T1692 -644T569 -538T-607 -463T-1835 -434Q-2196 -434 -2478 -467T-2976 -569T-3344 -747T-3598 -1007T-3755 -1355T-3830 -1798Q-3861 -1829 -3915 -1846T-4035 -1864ZM-5587 -893Q-5698
-893 -5797 -856T-5968 -754Q-5900 -791 -5825 -811T-5669 -831Q-5597 -831 -5525 -817T-5386 -770T-5257 -683T-5145 -549T-5058 -361T-5001 -111Q-4917 -48 -4830 34T-4666 205T-4528 385T-4432 553Q-4399 520 -4399 479Q-4399 441 -4422 389T-4486 276T-4582
149T-4700 19T-4832 -105T-4968 -213Q-4982 -343 -5014 -444T-5094 -620T-5199 -748T-5322 -832T-5454 -878T-5587 -893ZM-8520 -299Q-8548 -299 -8579 -281T-8638 -229Q-8629 -232 -8620 -235T-8602 -238Q-8571 -238 -8543 -231T-8483 -208T-8414 -165T-8327 -98Q-8210
-175 -8118 -223T-7946 -298T-7791 -334T-7635 -344Q-7494 -344 -7380 -315T-7179 -231T-7031 -99T-6935 74Q-6931 43 -6928 18T-6918 -33Q-6946 -117 -6998 -186T-7130 -304T-7314 -379T-7553 -406Q-7634 -406 -7711 -394T-7871 -353T-8046 -275T-8249 -152Q-8298
-192 -8335 -220T-8404 -265T-8463 -291T-8520 -299ZM6210 885Q6178 747 6121 608T5991 345T5830 116T5648 -57L5505 -37Q5579 4 5651 67T5790 210T5918 384T6031 580T6124 791T6193 1008Q6196 974 6199 944T6210 885ZM3863 406Q3707 406 3617 492Q3689 467 3781
467Q3849 467 3920 487T4063 543T4204 627T4334 733Q4343 708 4352 687T4375 647Q4320 595 4258 551T4130 475T3997 424T3863 406ZM2941 381Q2885 381 2845 397T2777 451Q2796 447 2816 445T2859 442Q2924 442 2992 467T3129 534T3261 627T3383 733Q3393 708 3402
687T3424 647Q3373 599 3314 552T3192 466T3065 405T2941 381ZM7246 643Q7178 643 7134 659T7062 713Q7086 707 7111 706T7164 705Q7216 705 7272 724T7384 776T7494 851T7598 938Q7616 887 7639 852Q7596 812 7548 775T7449 708T7347 661T7246 643ZM6517 655Q6591
655 6689 712T6889 881Q6896 853 6907 831T6935 791Q6848 695 6759 645T6599 594Q6527 594 6481 611T6406 664Q6431 657 6458 656T6517 655ZM-6550 -311Q-6615 -311 -6656 -292T-6726 -238Q-6704 -244 -6682 -247T-6631 -250Q-6591 -250 -6534 -230T-6411 -174T-6276
-91T-6144 12Q-6184 -28 -6208 -78T-6242 -184Q-6332 -243 -6413 -277T-6550 -311ZM4710 479Q4639 479 4594 497T4518 553Q4568 541 4628 541Q4681 541 4765 571T4948 664Q4936 626 4927 595T4911 537Q4849 509 4797 494T4710 479ZM7983 676Q7909 676 7860 694T7782
754Q7807 744 7837 741T7901 737Q7957 737 8020 757T8155 815Q8155 806 8153 798T8151 782Q8148 761 8143 742T8135 705Q8094 689 8056 683T7983 676ZM2650 528Q2619 491 2587 463T2523 410Q2486 416 2450 420T2380 430Q2436 458 2491 503T2605 610Q2614 586 2624
565T2650 528Z" />
<glyph unicode="C" glyph-name="C" horiz-adv-x="4424" d="M872 -672Q1083 -672 1239 -631T1503 -519T1674 -354T1761 -156Q1771 -177 1774 -198T1778 -242Q1778 -345 1731 -446T1584 -627T1328 -757T954 -807Q773 -807 579 -799T184 -777T-222 -750T-630 -722T-1032
-701T-1417 -692Q-1643 -692 -1839 -699T-2214 -722T-2559 -766T-2892 -836Q-2913 -820 -2929 -794T-2945 -745Q-2611 -665 -2229 -630T-1413 -594Q-1089 -594 -795 -606T-222 -633T327 -660T872 -672ZM2056 143Q1967 143 1899 175T1782 250Q1866 225 1974 225Q2077
225 2185 275T2397 421T2595 656T2762 975T2884 1370T2945 1835Q3249 1844 3479 1916T3869 2106T4117 2379T4227 2712Q4230 2690 4232 2669T4235 2626Q4235 2511 4204 2402T4107 2196T3940 2017T3701 1875T3385 1781T2990 1745Q2990 1485 2949 1265T2838 867T2675
554T2479 328T2266 190T2056 143ZM-3449 -344Q-3576 -344 -3685 -305T-3879 -197Q-3805 -234 -3720 -254T-3539 -274Q-3421 -274 -3312 -249T-3102 -177T-2909 -67T-2732 74Q-2723 52 -2705 30T-2671 -8Q-2749 -79 -2836 -140T-3021 -247T-3225 -318T-3449 -344Z"
/>
<glyph unicode="D" glyph-name="D" horiz-adv-x="3686" d="M-2998 573Q-3097 573 -3163 601T-3277 680Q-3233 661 -3187 654T-3088 647Q-2988 647 -2882 695T-2674 834T-2478 1058T-2310 1360Q-2310 1301 -2310 1259T-2306 1192Q-2374 1043 -2457 928T-2630 734T-2815
614T-2998 573ZM2781 -831Q2673 -831 2586 -796T2445 -705Q2501 -729 2559 -741T2683 -754Q2757 -754 2830 -743T2973 -706T3103 -640T3214 -541T3297 -405T3346 -229Q3353 -251 3356 -285T3359 -344Q3359 -434 3337 -505T3275 -631T3181 -723T3062 -785T2927 -820T2781
-831ZM1700 -881Q1651 -881 1599 -869T1496 -834T1395 -779T1303 -709Q1383 -752 1463 -775T1618 -799Q1716 -799 1806 -773T1971 -697T2105 -574T2200 -406Q2206 -430 2214 -457T2232 -504Q2209 -596 2158 -666T2037 -784T1880 -856T1700 -881ZM-147 -979Q-233
-979 -287 -950T-369 -881Q-341 -893 -308 -897T-238 -901Q-184 -901 -121 -877T11 -810T152 -712T295 -590Q301 -618 315 -646T344 -692Q283 -749 216 -801T85 -892T-39 -955T-147 -979ZM672 -881Q638 -881 609 -873T555 -852T512 -822T483 -786Q502 -793 525
-796T573 -799Q627 -799 689 -777T817 -715T951 -623T1085 -508Q1091 -517 1100 -529T1120 -555T1141 -580T1159 -602Q1099 -659 1035 -709T908 -798T784 -859T672 -881ZM2277 1425Q2277 1376 2245 1305T2150 1159Q2123 1165 2086 1168T2015 1171Q2096 1255 2154
1344T2241 1511Q2259 1496 2268 1473T2277 1425ZM3203 348Q3191 364 3180 383T3162 418Q3196 412 3242 398T3334 365Q3374 408 3406 465T3457 582Q3469 560 3475 535T3482 475Q3482 451 3476 426T3459 376T3434 330T3404 291Q3351 312 3301 327T3203 348ZM-565
-754Q-568 -785 -570 -819T-573 -885Q-601 -910 -647 -924T-750 -938Q-788 -938 -819 -930T-875 -909T-919 -876T-954 -836Q-920 -848 -885 -854T-807 -860Q-739 -860 -676 -833T-565 -754ZM-1143 -721Q-1146 -752 -1148 -786T-1151 -852Q-1179 -877 -1225 -891T-1327
-905Q-1404 -905 -1452 -876T-1532 -803Q-1498 -815 -1463 -821T-1384 -827Q-1316 -827 -1253 -801T-1143 -721Z" />
<glyph unicode="E" glyph-name="E" horiz-adv-x="5366" d="M-4440 -918Q-4449 -912 -4458 -901T-4475 -877T-4488 -851T-4493 -827Q-4308 -781 -4106 -751T-3686 -705Q-3655 -729 -3620 -754T-3546 -799T-3469 -831T-3391 -844Q-3336 -844 -3291 -806T-3203 -680Q-3169
-679 -3141 -678T-3084 -677T-3027 -676T-2961 -676Q-2677 -676 -2387 -688T-1802 -717Q-1511 -732 -1230 -743T-676 -754Q-467 -754 -312 -713T-48 -601T124 -436T213 -238Q222 -259 225 -280T229 -324Q229 -393 208 -461T144 -592T35 -709T-123 -803T-332 -866T-594
-889Q-866 -889 -1151 -871T-1727 -832T-2308 -792T-2879 -774Q-2951 -774 -3020 -774T-3158 -778Q-3189 -859 -3226 -900T-3310 -942Q-3347 -942 -3387 -932T-3466 -902T-3541 -854T-3604 -791Q-3836 -809 -4045 -838T-4440 -918ZM3940 127Q3813 127 3722 161T3559
266Q3624 232 3699 217T3858 201Q3989 201 4112 237T4347 335T4559 483T4745 668T4902 875T5026 1092T5115 1306T5165 1503Q5177 1461 5177 1405Q5177 1307 5152 1200T5080 985T4966 771T4815 570T4632 393T4422 253T4190 161T3940 127ZM1085 -528Q1012 -528 947
-515T824 -477T718 -418T627 -344Q713 -394 810 -420T1004 -446Q1127 -446 1236 -400T1432 -261T1581 -28T1671 299Q1715 330 1758 365T1851 446Q1858 419 1870 391T1901 344Q1876 323 1855 306T1814 272T1772 239T1724 205Q1707 24 1650 -113T1508 -343T1314 -481T1085
-528ZM2863 229Q2807 229 2760 251T2687 311Q2706 305 2726 304T2769 303Q2826 303 2889 324T3018 384T3150 474T3277 586Q3286 561 3301 533T3334 483Q3280 429 3220 383T3099 303T2977 249T2863 229ZM2232 164Q2167 164 2118 189T2040 254Q2082 242 2138 242Q2178
242 2223 254T2318 293T2417 361T2519 459Q2528 431 2545 403T2585 356Q2540 305 2494 269T2403 210T2314 175T2232 164Z" />
<glyph unicode="F" glyph-name="F" horiz-adv-x="9830" d="M5083 -209Q5327 -209 5518 -171T5847 -63T6068 100T6177 307Q6186 286 6189 265T6193 221Q6193 147 6163 77T6073 -56T5927 -172T5725 -263T5471 -322T5165 -344Q5029 -344 4857 -340T4488 -329T4079
-313T3649 -295T3218 -277T2805 -261T2430 -250T2114 -246Q1963 -246 1829 -248T1573 -255T1337 -270T1114 -293T898 -328T680 -377Q669 -369 660 -357T643 -331T631 -304T627 -279Q793 -239 966 -211T1323 -165T1705 -139T2118 -131Q2280 -131 2463 -134T2843
-143T3243 -156T3650 -170T4050 -184T4432 -196T4781 -205T5083 -209ZM8626 520Q8597 334 8538 199T8395 -24T8206 -154T7979 -197Q7912 -197 7851 -182T7737 -141T7639 -81T7557 -8Q7638 -55 7724 -83T7897 -111Q8026 -111 8130 -67T8314 67T8453 295T8548 623Q8843
709 9049 792T9388 963T9589 1151T9675 1368Q9678 1343 9680 1315T9683 1262Q9683 1183 9663 1113T9596 978T9470 855T9274 740T8996 630T8626 520ZM-8962 -684Q-9019 -684 -9069 -674T-9162 -645T-9242 -602T-9310 -549Q-9254 -574 -9188 -588T-9044 -602Q-8864
-602 -8720 -525T-8462 -308T-8265 30T-8122 467Q-8110 523 -8098 576T-8069 688Q-8026 682 -7979 679T-7897 676Q-7792 676 -7707 713T-7565 827Q-7562 815 -7559 806T-7553 786Q-7558 773 -7563 754T-7575 715T-7586 676T-7594 643Q-7640 612 -7689 597T-7803
582Q-7827 582 -7855 583T-7912 587T-7966 594T-8012 602L-8086 287Q-8140 56 -8219 -124T-8407 -429T-8653 -619T-8962 -684ZM-844 119Q-915 119 -974 145T-1065 209Q-1040 200 -1010 197T-946 193Q-867 193 -779 228T-602 321T-428 455T-271 612T-143 774T-57
926Q-45 904 -37 871T-29 815Q-29 756 -66 682T-165 530T-309 378T-481 247T-665 154T-844 119ZM-2097 86Q-2157 86 -2206 97T-2295 127T-2368 172T-2429 229Q-2376 198 -2313 181T-2179 164Q-2070 164 -1952 205T-1717 324T-1487 513T-1278 762Q-1281 742 -1283
718T-1287 667T-1289 615T-1290 565Q-1476 330 -1678 208T-2097 86ZM-6599 -127Q-6661 -127 -6705 -101T-6771 -41Q-6752 -47 -6729 -50T-6681 -53Q-6592 -53 -6494 -10T-6298 108T-6106 284T-5931 500Q-5937 466 -5940 413T-5943 307Q-6017 210 -6100 130T-6268
-7T-6437 -95T-6599 -127ZM-5460 -127Q-5544 -127 -5611 -100T-5722 -20Q-5688 -36 -5647 -42T-5558 -49Q-5503 -49 -5442 -31T-5312 27T-5165 129T-4997 279Q-4985 257 -4964 230T-4927 184Q-5007 104 -5077 46T-5211 -51T-5337 -108T-5460 -127ZM-4477 -53Q-4582
-53 -4663 -17T-4801 78Q-4751 50 -4694 35T-4575 20Q-4512 20 -4442 43T-4298 105T-4154 197T-4018 307Q-4012 297 -4003 285T-3983 262T-3962 240T-3944 221Q-4004 164 -4068 115T-4200 28T-4337 -31T-4477 -53ZM-3084 -8Q-3124 -8 -3155 -1T-3211 18T-3253 45T-3285
78Q-3263 72 -3239 71T-3187 70Q-3119 70 -3045 98T-2895 172T-2747 277T-2609 397Q-2603 387 -2593 375T-2572 350T-2550 326T-2531 307Q-2591 247 -2659 191T-2798 90T-2942 19T-3084 -8ZM7012 647Q6957 647 6911 667T6840 721Q6859 715 6877 714T6918 713Q6977
713 7048 739T7197 812T7354 920T7508 1053Q7514 1042 7523 1027T7543 997T7562 968T7578 946Q7533 901 7466 849T7322 752T7164 677T7012 647ZM-7242 -188Q-7313 -188 -7363 -164T-7438 -102Q-7417 -109 -7390 -112T-7332 -115Q-7245 -115 -7147 -59T-6947 119Q-6941
91 -6923 62T-6889 16Q-6979 -86 -7071 -137T-7242 -188ZM-3613 29Q-3650 29 -3683 39T-3745 65T-3797 101T-3838 143Q-3804 128 -3768 120T-3695 111Q-3633 111 -3573 143T-3457 233V82Q-3482 54 -3521 42T-3613 29ZM6476 651Q6439 651 6406 661T6343 687T6291
724T6250 766Q6285 750 6321 742T6394 733Q6456 733 6516 765T6631 856V705Q6607 677 6568 664T6476 651Z" />
<glyph unicode="G" glyph-name="G" horiz-adv-x="5775" d="M225 -750Q470 -750 661 -712T990 -604T1210 -440T1319 -233Q1328 -255 1331 -276T1335 -319Q1335 -430 1267 -532T1069 -712T747 -838T307 -885Q171 -885 -1 -880T-370 -867T-779 -849T-1209 -828T-1640
-807T-2053 -788T-2428 -775T-2744 -770Q-2970 -770 -3160 -776T-3521 -798T-3852 -841T-4178 -909Q-4200 -894 -4215 -868T-4231 -819Q-4065 -779 -3892 -751T-3535 -706T-3153 -680T-2740 -672Q-2578 -672 -2395 -675T-2015 -684T-1615 -697T-1208 -711T-808
-725T-426 -737T-77 -746T225 -750ZM-4907 -684Q-4964 -684 -5014 -674T-5107 -645T-5187 -602T-5255 -549Q-5199 -574 -5133 -588T-4989 -602Q-4856 -602 -4743 -554T-4533 -418T-4359 -211T-4216 53T-4102 361T-4014 696Q-4005 695 -3988 694T-3949 691T-3907
689T-3871 688Q-3796 688 -3733 707T-3617 766Q-3623 738 -3626 699T-3633 631Q-3667 615 -3706 609T-3789 602Q-3829 602 -3867 604T-3949 610Q-3979 451 -4024 294T-4132 -7T-4274 -275T-4450 -489T-4661 -632T-4907 -684ZM4702 303Q4609 303 4531 337T4403 430Q4453
405 4507 391T4620 377Q4724 377 4833 427T5048 573T5247 807T5416 1121T5537 1508T5595 1962Q5597 1953 5598 1936T5600 1901T5602 1865T5603 1839Q5603 1602 5564 1396T5458 1019T5302 715T5113 491T4907 351T4702 303ZM2269 119Q2189 119 2117 150T1999 233Q2042
218 2090 210T2187 201Q2338 201 2470 278T2720 492Q2751 479 2773 477T2826 475Q2958 475 3071 550T3277 754Q3276 743 3275 731T3274 701T3273 657T3273 590Q3198 497 3108 445T2908 393Q2871 393 2843 399T2789 422Q2734 348 2676 292T2554 197T2420 139T2269
119ZM3756 176Q3705 176 3665 184T3593 206T3537 238T3494 279Q3528 266 3569 260T3658 254Q3723 254 3793 279T3936 349T4083 454T4227 586Q4233 577 4242 566T4262 543T4283 522T4301 504Q4240 438 4168 379T4022 274T3880 203T3756 176ZM1225 172Q1300 210 1368
268T1498 400T1610 561T1704 745Q1704 728 1706 707T1711 663T1719 620T1729 586Q1654 419 1551 295T1315 98Q1307 106 1297 116T1274 136T1250 156T1225 172Z" />
<glyph unicode="H" glyph-name="H" horiz-adv-x="6390" d="M-4465 -848Q-4483 -832 -4499 -809T-4518 -766Q-4366 -765 -4169 -762T-3746 -753T-3272 -740T-2771 -722T-2265 -700T-1779 -672T-1335 -638T-958 -598Q-938 -601 -904 -604T-831 -611T-751 -616T-676
-618Q-547 -618 -441 -587T-253 -501T-119 -368T-45 -197Q-39 -215 -34 -236T-29 -279Q-29 -366 -68 -443T-181 -579T-359 -671T-594 -705Q-628 -705 -664 -704T-737 -699T-808 -691T-872 -680Q-1009 -698 -1175 -713T-1528 -743T-1917 -769T-2328 -790T-2747 -808T-3159
-823T-3552 -834T-3909 -842T-4218 -846T-4465 -848ZM4874 369Q4791 369 4730 396T4641 463Q4672 454 4703 450T4772 446Q4847 446 4918 479T5051 565T5165 685T5251 819Q5500 881 5670 953T5948 1110T6110 1291T6181 1495Q6187 1473 6190 1442T6193 1389Q6193
1321 6178 1258T6125 1136T6023 1021T5861 915T5628 817T5313 725Q5290 665 5248 602T5149 487T5022 402T4874 369ZM3453 274Q3360 274 3285 309T3154 406Q3203 378 3256 363T3363 348Q3495 348 3603 384T3794 483T3934 631T4022 815Q4120 924 4204 1005T4363 1139T4503
1218T4628 1245Q4678 1245 4714 1226T4772 1176Q4756 1179 4741 1181T4710 1184Q4644 1184 4575 1155T4427 1064T4257 909T4055 688Q4035 608 3987 534T3862 401T3684 309T3453 274ZM-25 94Q-30 103 -37 114T-52 136T-68 156T-82 172Q-1 175 85 202T256 273T422
374T573 492Q578 481 585 467T601 437T618 408T635 385Q569 325 494 272T335 180T161 117T-25 94ZM1528 160Q1457 160 1407 180T1323 242Q1371 229 1430 229Q1496 229 1568 254T1714 324T1864 428T2011 557Q2020 532 2039 505T2077 463Q2011 399 1941 344T1800
247T1660 183T1528 160ZM2511 233Q2427 233 2351 261T2216 352Q2304 315 2413 315Q2481 315 2550 336T2689 395T2826 481T2957 586Q2963 575 2973 563T2993 537T3015 513T3035 492Q2975 438 2911 391T2781 309T2647 253T2511 233ZM-5812 -45Q-5883 -45 -5944 -17T-6050
61Q-6013 46 -5974 38T-5894 29Q-5819 29 -5751 45T-5618 96T-5490 182T-5358 307L-5366 152Q-5420 100 -5470 63T-5572 1T-5683 -34T-5812 -45ZM-5022 -922Q-5096 -922 -5159 -888T-5276 -795Q-5187 -844 -5104 -844Q-5030 -844 -4974 -778T-4876 -588T-4805 -289T-4755
102Q-4746 84 -4733 68T-4710 45Q-4727 -192 -4753 -372T-4818 -675T-4907 -859T-5022 -922ZM1114 221Q1065 172 967 172Q939 172 913 180T863 201T820 231T786 266Q811 257 834 254T885 250Q944 250 1002 280T1114 369V221Z" />
<glyph unicode="I" glyph-name="I" horiz-adv-x="4219" d="M1720 -721Q1965 -721 2150 -683T2465 -575T2671 -412T2773 -205Q2782 -226 2785 -247T2789 -291Q2789 -402 2728 -504T2543 -684T2235 -809T1802 -856Q1621 -856 1404 -848T951 -826T470 -799T-13 -771T-472
-750T-881 -741Q-1107 -741 -1297 -747T-1657 -769T-1988 -812T-2314 -881Q-2336 -865 -2351 -839T-2367 -791Q-2201 -751 -2028 -723T-1671 -677T-1290 -651T-877 -643Q-661 -643 -436 -649T17 -663T471 -682T913 -700T1333 -715T1720 -721ZM-3895 -270Q-3911
-258 -3926 -233T-3949 -188Q-3808 -188 -3691 -192T-3467 -200T-3253 -209T-3027 -213Q-2904 -213 -2807 -198T-2638 -150T-2522 -61T-2458 74Q-2445 32 -2445 -4Q-2445 -152 -2562 -229T-2929 -307Q-3016 -307 -3092 -305T-3240 -299T-3384 -290T-3534 -281T-3701
-274T-3895 -270ZM3756 430Q3667 513 3591 551T3428 590Q3393 590 3361 582T3290 551T3203 493T3084 401Q2970 309 2881 247T2720 143Q2704 165 2684 187T2642 225Q2722 269 2820 338T3047 508Q3112 560 3163 595T3256 652T3334 683T3404 692Q3447 692 3487 682T3567
652T3648 606T3736 545Q3816 582 3877 659T3961 852Q3970 830 3973 803T3977 754Q3977 693 3959 642T3911 551T3841 480T3756 430Z" />
<glyph unicode="J" glyph-name="J" horiz-adv-x="6349" d="M549 -717Q812 -717 1011 -677T1351 -566T1573 -401T1683 -197Q1693 -218 1696 -241T1700 -287Q1700 -351 1676 -418T1600 -548T1464 -668T1261 -767T986 -835T631 -860Q511 -860 350 -856T-1 -845T-403
-828T-835 -809T-1279 -789T-1716 -770T-2124 -755T-2486 -745Q-2573 -838 -2667 -886T-2879 -934Q-2919 -934 -2953 -925T-3015 -901T-3064 -865T-3101 -823Q-3070 -833 -3036 -838T-2961 -844Q-2859 -844 -2755 -790T-2552 -643Q-2404 -645 -2221 -649T-1833
-659T-1407 -671T-965 -684T-527 -697T-115 -707T250 -714T549 -717ZM-4329 -881Q-4338 -875 -4348 -864T-4365 -840T-4378 -815T-4383 -791Q-4134 -730 -3862 -697T-3289 -651Q-3280 -670 -3256 -697T-3203 -745Q-3371 -748 -3521 -758T-3811 -784T-4078 -825T-4329
-881ZM3351 217Q3258 217 3191 249T3076 328Q3113 312 3158 304T3256 295Q3345 295 3432 319T3603 388T3766 492T3920 623Q3932 601 3951 576T3990 532Q3922 465 3847 407T3690 307T3524 241T3351 217ZM4420 307Q4327 307 4254 341T4125 434Q4171 409 4222 397T4325
385Q4406 385 4491 406T4659 466T4822 556T4973 668Q4985 646 5004 621T5042 578Q4978 521 4903 472T4748 386T4585 328T4420 307ZM2388 139Q2314 139 2265 163T2187 225Q2231 213 2294 213Q2360 213 2432 236T2579 302T2728 403T2871 532Q2881 511 2899 485T2933
442Q2875 378 2808 323T2671 226T2529 162T2388 139ZM-5263 -29Q-5266 -49 -5268 -72T-5272 -118T-5275 -161T-5276 -193Q-5297 -227 -5333 -244T-5431 -262Q-5496 -262 -5552 -232T-5648 -156Q-5621 -168 -5591 -172T-5530 -176Q-5440 -176 -5375 -140T-5263 -29ZM1978
344Q1975 310 1975 276T1974 205Q1953 186 1925 175T1855 164Q1800 164 1746 189T1655 258Q1676 249 1702 246T1757 242Q1791 242 1819 247T1874 265T1925 296T1978 344ZM5530 352Q5478 352 5427 361T5331 386T5246 424T5177 475Q5230 453 5289 444T5419 434Q5528
434 5634 465T5827 563T5975 736T6054 991Q6057 966 6059 934T6062 877Q6062 753 6022 655T5911 490T5743 388T5530 352ZM5919 1622Q5947 1616 5981 1606T6058 1577Q6104 1623 6139 1681T6189 1802Q6198 1784 6201 1755T6205 1700Q6205 1674 6199 1645T6181 1588T6156
1535T6124 1491Q6083 1513 6039 1528T5951 1552L5919 1622Z" />
<glyph unicode="K" glyph-name="K" horiz-adv-x="5325" d="M-3912 -918Q-3930 -905 -3944 -879T-3961 -831Q-3797 -791 -3624 -763T-3266 -718T-2883 -692T-2470 -684Q-2329 -684 -2172 -687T-1847 -697T-1505 -710T-1155 -725H-1139Q-1132 -744 -1122 -765T-1102
-803Q-1272 -795 -1443 -789T-1778 -777T-2097 -769T-2388 -766Q-2614 -766 -2818 -774T-3209 -800T-3571 -847T-3912 -918ZM209 -852Q88 -852 -48 -849T-328 -840Q-421 -929 -513 -976T-688 -1024Q-736 -1024 -777 -1015T-851 -991T-910 -955T-950 -913Q-913 -926
-868 -934T-770 -942Q-683 -942 -590 -891T-401 -754Q-344 -756 -277 -757T-141 -759T-2 -761T127 -762Q368 -762 553 -721T868 -608T1076 -443T1180 -242Q1189 -263 1192 -286T1196 -332Q1196 -394 1173 -456T1099 -576T970 -684T782 -772T530 -830T209 -852ZM3207
205Q3147 205 3098 214T3009 238T2936 276T2875 324Q2925 302 2983 291T3109 279Q3207 279 3313 315T3530 418T3755 577T3985 782Q4085 879 4161 943T4299 1047T4415 1102T4526 1118Q4576 1118 4626 1098T4723 1036Q4698 1042 4667 1045T4608 1049Q4548 1049 4492
1030T4369 965T4221 847T4026 664Q3920 561 3815 477T3606 332T3403 238T3207 205ZM-3994 233Q-3876 250 -3759 286T-3535 381T-3334 520T-3170 709Q-3173 696 -3173 687T-3174 668Q-3174 659 -3174 646T-3172 620T-3168 596T-3162 578Q-3242 483 -3335 406T-3528
274T-3732 186T-3940 147Q-4060 -182 -4250 -343T-4698 -504Q-4785 -504 -4857 -477T-4973 -393Q-4929 -409 -4883 -419T-4784 -430Q-4655 -430 -4540 -387T-4326 -259T-4144 -51T-3994 233ZM2138 152Q2030 152 1946 188T1806 287Q1859 259 1917 242T2044 225Q2118
225 2197 249T2356 315T2514 414T2662 537Q2675 512 2691 485T2724 438Q2663 378 2591 326T2442 236T2288 175T2138 152ZM1200 57Q1191 57 1183 57T1159 61Q1150 77 1136 96T1110 131Q1170 136 1234 161T1366 228T1500 326T1634 446Q1647 428 1668 404T1708 360Q1648
300 1583 246T1451 149T1321 82T1200 57ZM4915 864Q4911 873 4903 885T4886 911T4867 935T4850 954Q4930 982 4990 1044T5075 1200Q5081 1189 5085 1175T5093 1145T5098 1115T5100 1090Q5100 1045 5086 1008T5046 941T4988 892T4915 864Z" />
<glyph unicode="L" glyph-name="L" horiz-adv-x="6799" d="M3785 -623Q3626 -623 3438 -618T3044 -603T2620 -582T2183 -558T1750 -534T1338 -513T964 -498T643 -492Q595 -541 549 -581T455 -649T358 -693T254 -709Q158 -709 92 -676T-8 -594Q29 -609 74 -618T172
-627Q265 -627 365 -570T573 -410Q685 -407 794 -404T1028 -401Q1155 -401 1307 -404T1627 -413T1977 -426T2343 -440T2712 -454T3071 -466T3407 -475T3707 -479Q3950 -479 4145 -437T4484 -323T4718 -156T4841 45Q4848 23 4853 0T4858 -49Q4858 -110 4830 -176T4744
-305T4598 -426T4391 -528T4121 -597T3785 -623ZM5329 459Q5509 459 5670 517T5970 672T6222 896T6420 1161T6557 1438T6627 1700Q6630 1685 6632 1666T6636 1629T6639 1593T6640 1561Q6640 1439 6601 1305T6486 1040T6304 790T6059 581T5759 438T5411 385Q5356
385 5311 393T5229 417T5165 454T5116 500Q5162 478 5214 469T5329 459ZM-6087 -492Q-6145 -492 -6192 -486T-6280 -465T-6354 -430T-6418 -377Q-6369 -399 -6311 -408T-6181 -418Q-6090 -418 -6002 -390T-5828 -299T-5655 -136T-5480 108T-5299 442T-5108 877L-5059
795Q-5153 553 -5242 364T-5416 32T-5585 -211T-5751 -373T-5917 -464T-6087 -492ZM-1851 -119Q-1916 -119 -1968 -95T-2060 -25Q-2029 -34 -1998 -39T-1933 -45Q-1816 -45 -1708 5T-1505 142T-1330 349T-1192 606Q-1192 569 -1189 532T-1176 463Q-1228 339 -1300
233T-1460 48T-1646 -75T-1851 -119ZM-3510 -184Q-3563 -184 -3605 -176T-3681 -154T-3744 -121T-3797 -78Q-3754 -93 -3707 -102T-3604 -111Q-3512 -111 -3429 -88T-3269 -25T-3118 70T-2970 188Q-2957 167 -2936 144T-2900 102Q-2969 44 -3039 -8T-3183 -99T-3339
-161T-3510 -184ZM-885 -688Q-900 -676 -909 -656T-918 -614Q-732 -571 -545 -535T-156 -471Q-143 -490 -129 -505T-98 -537Q-312 -564 -505 -603T-885 -688ZM-4506 -344Q-4560 -344 -4600 -336T-4671 -315T-4721 -284T-4755 -246Q-4721 -258 -4684 -264T-4600
-270Q-4516 -270 -4440 -238T-4303 -145T-4202 -1T-4149 188Q-4143 154 -4140 118T-4137 53Q-4137 -37 -4166 -110T-4246 -236T-4363 -316T-4506 -344ZM-2503 -98Q-2555 -98 -2597 -90T-2674 -65T-2738 -28T-2793 20Q-2747 -1 -2698 -13T-2597 -25Q-2552 -25 -2504
-15T-2407 14T-2311 58T-2220 115Q-2208 93 -2187 71T-2150 33Q-2231 -26 -2322 -62T-2503 -98ZM4854 430Q4792 430 4741 456T4653 532Q4715 508 4784 508Q4837 508 4896 533T5014 610V479Q4989 454 4946 442T4854 430Z" />
<glyph unicode="M" glyph-name="M" horiz-adv-x="4997" d="M508 -762Q752 -762 940 -724T1262 -616T1475 -453T1581 -246Q1590 -267 1593 -288T1597 -332Q1597 -443 1533 -545T1341 -725T1026 -850T590 -897Q454 -897 292 -892T-49 -879T-419 -861T-804 -840T-1190
-819T-1563 -800T-1909 -787T-2216 -782Q-2367 -782 -2500 -784T-2756 -793T-2992 -810T-3215 -836T-3431 -873T-3650 -922Q-3671 -906 -3687 -880T-3703 -831Q-3537 -791 -3364 -763T-3007 -718T-2625 -692T-2212 -684Q-1996 -684 -1762 -690T-1286 -704T-803
-723T-331 -741T112 -756T508 -762ZM3432 168Q3566 168 3692 203T3935 301T4155 448T4349 631T4513 836T4642 1052T4734 1265T4784 1462Q4787 1438 4789 1403T4792 1327Q4792 1241 4767 1142T4696 940T4582 734T4429 537T4243 361T4027 219T3786 125T3523 90Q3481
90 3437 99T3352 124T3276 164T3215 217Q3265 192 3319 180T3432 168ZM2490 106Q2425 106 2380 126T2306 180Q2325 177 2346 175T2392 172Q2458 172 2533 198T2687 268T2840 369T2982 487Q2988 463 3002 433T3035 381Q2974 320 2907 269T2769 182T2629 126T2490
106ZM2101 311Q2100 285 2099 271T2097 245T2096 216T2093 168Q2062 140 2031 128T1954 115Q1883 115 1834 144T1753 213Q1778 204 1808 199T1872 193Q1903 193 1931 199T1986 220T2042 256T2101 311Z" />
<glyph unicode="N" glyph-name="N" horiz-adv-x="3768" d="M1229 -844Q1473 -844 1658 -806T1973 -698T2179 -535T2281 -328Q2291 -349 2294 -370T2298 -414Q2298 -525 2237 -627T2052 -807T1743 -932T1311 -979Q1130 -979 913 -971T460 -949T-21 -922T-504 -894T-963
-873T-1372 -864Q-1523 -864 -1656 -866T-1912 -875T-2148 -892T-2371 -918T-2587 -955T-2806 -1004Q-2827 -988 -2843 -962T-2859 -913Q-2693 -873 -2520 -845T-2163 -800T-1781 -774T-1368 -766Q-1152 -766 -927 -772T-474 -786T-21 -805T421 -823T842 -838T1229
-844ZM2904 4Q2852 4 2802 13T2705 38T2620 76T2552 127Q2604 105 2663 96T2793 86Q2902 86 3008 117T3201 215T3349 388T3428 643Q3431 618 3434 586T3437 528Q3437 404 3397 307T3286 142T3117 40T2904 4ZM2089 143Q2157 181 2220 224T2343 319Q2355 298 2374
272T2413 229Q2314 138 2191 70Q2184 79 2172 89T2145 109T2116 128T2089 143ZM3293 1274Q3321 1268 3355 1258T3432 1229Q3479 1275 3513 1333T3564 1454Q3573 1436 3576 1406T3580 1352Q3580 1326 3574 1297T3556 1240T3530 1187T3498 1143Q3458 1164 3414 1179T3326
1204L3293 1274Z" />
<glyph unicode="O" glyph-name="O" horiz-adv-x="3645" d="M918 -709Q1125 -709 1280 -668T1544 -556T1717 -391T1806 -193Q1816 -214 1819 -235T1823 -279Q1823 -386 1775 -488T1627 -669T1370 -796T999 -844Q758 -844 503 -831T-8 -799T-509 -764T-979 -741Q-999
-863 -1028 -945T-1092 -1077T-1162 -1149T-1233 -1171Q-1328 -1171 -1397 -1137T-1524 -1044Q-1471 -1072 -1415 -1083T-1307 -1094Q-1259 -1094 -1221 -1067T-1152 -984T-1096 -842T-1049 -635Q-838 -638 -629 -648T-209 -672Q82 -687 364 -698T918 -709ZM2068
66Q2203 66 2329 100T2569 194T2786 335T2976 512T3135 711T3260 921T3348 1129T3396 1323Q3402 1292 3405 1252T3408 1184Q3408 1062 3367 926T3247 656T3058 401T2806 187T2501 39T2150 -16Q2102 -16 2060 -6T1981 20T1913 59T1855 106Q1902 85 1954 76T2068
66ZM-2847 -872Q-2856 -866 -2865 -856T-2882 -832T-2895 -806T-2900 -782Q-2642 -721 -2356 -686T-1749 -639Q-1751 -645 -1751 -656T-1752 -681T-1753 -709T-1753 -733Q-2064 -742 -2334 -776T-2847 -872Z" />
<glyph unicode="P" glyph-name="P" horiz-adv-x="3850" d="M2335 119Q2266 119 2208 131T2102 164T2014 213T1942 274Q2007 240 2080 223T2241 205Q2384 207 2516 242T2767 340T2990 487T3184 669T3345 876T3472 1094T3560 1311T3609 1516Q3612 1494 3614 1464T3617
1409Q3617 1324 3594 1224T3527 1018T3417 805T3268 598T3083 412T2864 261T2614 159T2335 119ZM1184 98Q1069 98 988 134T856 225Q906 201 963 189T1090 176Q1177 176 1264 200T1433 266T1592 364T1737 483Q1749 462 1767 435T1798 389Q1738 329 1667 276T1517
184T1354 121T1184 98ZM-1135 -41Q-1206 -41 -1261 -18T-1348 45Q-1320 39 -1292 36T-1229 33Q-1162 33 -1090 58T-947 125T-808 224T-680 344Q-671 319 -654 294T-618 254Q-672 196 -735 143T-866 48T-1002 -17T-1135 -41ZM258 53Q193 53 150 75T78 135Q99 129
119 128T164 127Q216 127 277 149T404 210T534 303T659 422Q672 400 688 375T721 332Q669 274 609 223T488 134T368 75T258 53ZM-2552 -836Q-2635 -836 -2698 -801T-2806 -713Q-2717 -762 -2634 -762Q-2560 -762 -2504 -698T-2404 -515T-2331 -225T-2281 160Q-2280
159 -2273 152T-2259 135T-2245 118T-2236 106Q-2251 -115 -2280 -289T-2349 -585T-2441 -771T-2552 -836ZM-1913 -45Q-1987 -45 -2039 -23T-2126 37Q-2098 28 -2065 22T-1995 16Q-1947 16 -1891 34T-1774 82T-1654 153T-1540 238Q-1534 213 -1523 190T-1499 152Q-1550
109 -1603 73T-1709 11T-1813 -30T-1913 -45ZM-274 70Q-348 70 -398 93T-492 160Q-461 150 -432 147T-369 143Q-338 143 -306 149T-240 173T-171 219T-98 295Q-89 270 -72 243T-37 201Q-99 127 -160 99T-274 70ZM-3273 61Q-3308 61 -3341 71T-3405 96T-3462 132T-3510
172Q-3473 160 -3436 152T-3355 143Q-3295 143 -3236 157T-3118 196T-3003 255T-2892 332L-2900 184Q-2990 125 -3080 93T-3273 61Z" />
<glyph unicode="Q" glyph-name="Q" horiz-adv-x="6144" d="M4919 156Q4848 156 4787 178T4694 238Q4722 228 4752 225T4817 221Q4921 221 5023 256T5224 352T5414 497T5587 678T5738 881T5860 1095T5950 1307T6001 1503Q6004 1482 6006 1458T6009 1405Q6009 1319
5986 1220T5920 1016T5817 808T5681 609T5518 431T5333 287T5132 191T4919 156ZM-2511 -893Q-2571 -893 -2632 -880T-2750 -844T-2858 -788T-2949 -717Q-2866 -766 -2776 -790T-2593 -815Q-2484 -815 -2375 -773T-2173 -644T-2015 -420T-1925 -94Q-1866 -51 -1812
-4T-1696 102Q-1683 81 -1660 55T-1618 12Q-1683 -50 -1752 -104T-1892 -217Q-1901 -378 -1952 -504T-2085 -716T-2276 -848T-2511 -893ZM-4968 -319Q-5055 -319 -5120 -289T-5239 -213Q-5195 -228 -5152 -237T-5059 -246Q-4984 -246 -4912 -225T-4772 -165T-4641
-72T-4518 49Q-4490 37 -4468 33T-4415 29Q-4296 29 -4169 111T-3916 369Q-3928 325 -3934 272T-3940 172Q-4039 54 -4138 1T-4334 -53Q-4371 -53 -4399 -49T-4448 -33Q-4505 -107 -4563 -160T-4684 -249T-4817 -302T-4968 -319ZM3625 131Q3570 131 3525 138T3442
160T3373 193T3314 238Q3410 201 3543 201Q3684 201 3816 252T4067 392T4294 597T4493 844Q4487 821 4483 794T4475 738T4471 683T4469 635Q4386 526 4290 434T4087 274T3864 169T3625 131ZM1393 -33Q1270 -33 1208 41Q1230 35 1256 32T1311 29Q1352 29 1401 44T1504
85T1614 148T1725 226T1832 314T1929 406Q1942 384 1952 365T1974 328Q1911 257 1836 192T1684 77T1531 -3T1393 -33ZM2589 -160Q2546 -160 2509 -155T2440 -137T2379 -106T2322 -61Q2363 -77 2405 -83T2503 -90Q2554 -90 2609 -74T2720 -29T2828 40T2925 128T3003
231T3056 344Q3065 325 3072 299T3080 250Q3080 198 3058 147T2998 51T2911 -33T2807 -100T2696 -144T2589 -160ZM590 -123Q558 -123 529 -116T474 -95T428 -66T393 -33Q437 -45 492 -45Q550 -45 615 -25T749 31T885 114T1016 217Q1025 192 1042 163T1077 119Q1017
65 956 21T832 -56T709 -105T590 -123ZM-754 -152Q-825 -152 -870 -130T-946 -70Q-904 -82 -852 -82Q-806 -82 -749 -62T-629 -4T-498 86T-365 201Q-355 179 -337 153T-299 111Q-358 53 -420 5T-542 -79T-656 -133T-754 -152ZM-3514 -328Q-3548 -328 -3577 -320T-3631
-297T-3677 -266T-3715 -229Q-3687 -239 -3659 -244T-3596 -250Q-3547 -250 -3494 -236T-3386 -196T-3276 -136T-3166 -61Q-3185 -92 -3198 -136T-3211 -229Q-3289 -279 -3366 -303T-3514 -328ZM-1307 -139Q-1384 -139 -1440 -112T-1536 -41Q-1472 -66 -1401 -66Q-1370
-66 -1337 -59T-1270 -34T-1199 15T-1126 94Q-1117 69 -1099 42T-1069 -4Q-1092 -35 -1120 -60T-1180 -102T-1243 -129T-1307 -139ZM180 -49Q149 -80 120 -91T53 -102Q19 -102 -12 -93T-72 -67T-123 -32T-164 8Q-103 -16 -41 -16Q-7 -16 21 -11T76 8T128 44T184
98L180 -49ZM-5607 307Q-5643 307 -5677 316T-5741 340T-5797 376T-5841 418Q-5807 402 -5769 396T-5689 389Q-5649 389 -5606 395T-5526 414Q-5529 389 -5529 360T-5530 311Q-5548 308 -5568 308T-5607 307Z" />
<glyph unicode="R" glyph-name="R" horiz-adv-x="5243" d="M-3326 -803Q-3347 -935 -3376 -1025T-3438 -1170T-3510 -1250T-3588 -1274Q-3678 -1274 -3746 -1237T-3871 -1130Q-3815 -1161 -3761 -1178T-3654 -1196Q-3470 -1196 -3371 -700Q-3236 -700 -3106 -701T-2841
-707T-2559 -716T-2245 -729Q-2128 -734 -1989 -739T-1710 -748T-1441 -755T-1212 -758Q-1031 -758 -889 -725T-644 -636T-476 -506T-385 -348Q-376 -370 -371 -392T-365 -438Q-365 -486 -386 -537T-449 -638T-554 -732T-702 -809T-894 -861T-1130 -881Q-1196 -881
-1281 -879T-1463 -872T-1665 -863T-1876 -852T-2084 -841T-2277 -831Q-2396 -826 -2492 -823T-2673 -816T-2832 -811T-2985 -808T-3145 -805T-3326 -803ZM1839 16Q1799 16 1760 25T1686 49T1620 84T1569 127Q1612 111 1660 103T1757 94Q1832 94 1903 115T2040
174T2169 267T2290 389Q2321 380 2357 375T2425 369Q2483 369 2544 391T2666 456T2787 560T2904 700Q2898 660 2893 610T2888 516Q2795 408 2698 350T2507 291Q2467 291 2426 297T2359 319Q2304 246 2246 189T2124 94T1990 36T1839 16ZM4313 123Q4255 123 4202
134T4104 165T4023 211T3961 266Q4013 235 4070 220T4190 205Q4264 205 4339 218T4485 260T4620 332T4734 439T4819 581T4866 762Q4869 737 4871 713T4874 668Q4874 527 4830 424T4710 254T4532 155T4313 123ZM-4502 -352Q-4591 -352 -4674 -322T-4825 -233Q-4769
-261 -4709 -276T-4583 -291Q-4463 -291 -4358 -258T-4169 -159T-4031 4T-3957 229Q-3954 208 -3952 187T-3949 147Q-3949 24 -3991 -69T-4108 -225T-4284 -320T-4502 -352ZM778 -119Q724 -119 674 -108T580 -76T497 -29T430 29Q489 -5 554 -23T684 -41Q787 -41
886 -15T1069 68T1215 214T1307 430Q1309 423 1311 412T1317 390T1324 369T1331 352Q1324 223 1275 134T1149 -12T976 -94T778 -119ZM3338 33Q3261 33 3208 62T3117 135Q3145 126 3177 121T3244 115Q3315 115 3380 131T3511 181T3647 270T3797 401Q3803 392 3812
381T3831 357T3851 334T3871 315Q3729 180 3600 107T3338 33ZM-188 -156Q-269 -156 -323 -127T-406 -57Q-381 -64 -349 -69T-283 -74Q-222 -74 -156 -51T-24 11T108 102T233 213Q239 204 248 192T267 168T286 146T303 127Q249 73 188 23T62 -68T-66 -132T-188 -156ZM4735
1397Q4763 1391 4797 1381T4874 1352Q4921 1398 4955 1456T5005 1577Q5015 1558 5018 1529T5022 1475Q5022 1449 5016 1420T4998 1363T4972 1310T4940 1266Q4900 1287 4856 1302T4768 1327L4735 1397Z" />
<glyph unicode="S" glyph-name="S" horiz-adv-x="2744" d="M-1802 -1032Q-1824 -1045 -1854 -1051T-1913 -1057Q-1969 -1057 -2017 -1036T-2085 -975Q-2072 -978 -2051 -980T-2011 -983Q-1968 -983 -1931 -973T-1855 -938Q-1826 -826 -1801 -754T-1748 -639T-1685
-581T-1602 -565Q-1552 -565 -1491 -570T-1353 -587T-1178 -617T-957 -663T-680 -727T-336 -811Q-164 -854 10 -893T346 -963T649 -1010T897 -1028Q1151 -1028 1368 -955T1754 -731T2032 -354T2183 180L2261 770Q2342 873 2402 960T2505 1122T2573 1259T2609 1376Q2621
1327 2621 1270Q2621 1228 2611 1173T2568 1042T2476 869T2318 647L2228 -4Q2190 -287 2081 -499T1807 -852T1431 -1064T979 -1135Q909 -1135 821 -1127T630 -1103T417 -1068T189 -1023T-44 -972T-274 -918Q-467 -870 -621 -833T-900 -768T-1120 -721T-1293 -690T-1430
-673T-1540 -668Q-1578 -668 -1606 -670T-1655 -684T-1694 -718T-1727 -781T-1762 -883T-1802 -1032ZM299 123Q164 123 111 197Q132 190 159 187T217 184Q283 184 354 208T499 276T643 381T778 516Q788 491 799 472T823 430Q766 364 701 308T568 211T431 146T299
123ZM1729 299Q1725 287 1724 275T1720 254Q1634 204 1541 176T1348 147Q1239 147 1159 174T1020 254Q1073 232 1133 221T1266 209Q1328 209 1389 221T1511 256T1629 309T1741 377Q1738 368 1738 362T1737 352Q1737 348 1735 341Q1733 335 1732 326T1729 303V299Z"
/>
<glyph unicode="T" glyph-name="T" horiz-adv-x="7537" d="M1507 -418Q1486 -550 1458 -640T1395 -785T1323 -865T1245 -889Q1155 -889 1087 -852T963 -745Q1018 -776 1072 -793T1180 -811Q1365 -811 1462 -315Q1597 -315 1727 -316T1993 -322T2275 -331T2589
-344Q2667 -347 2755 -350T2936 -357T3123 -363T3306 -368T3475 -371T3621 -373Q3802 -373 3944 -340T4189 -251T4357 -121T4448 37Q4458 15 4463 -6T4469 -53Q4469 -101 4448 -152T4385 -253T4280 -347T4131 -424T3939 -476T3703 -496Q3638 -496 3553 -494T3370
-487T3168 -478T2957 -467T2749 -456T2556 -446Q2437 -441 2341 -438T2161 -431T2001 -426T1849 -423T1689 -420T1507 -418ZM-4268 -274Q-4321 -274 -4357 -253T-4415 -197Q-4409 -200 -4389 -202T-4350 -205Q-4273 -205 -4182 -167T-3988 -47T-3773 158T-3543
455Q-3555 408 -3561 352T-3568 250Q-3671 110 -3768 11T-3953 -152T-4121 -244T-4268 -274ZM-6238 -1114Q-6322 -1114 -6385 -1079T-6492 -991Q-6407 -1040 -6320 -1040Q-6247 -1040 -6190 -976T-6091 -793T-6018 -503T-5968 -119Q-5965 -125 -5959 -133T-5946
-148T-5933 -162T-5923 -172Q-5940 -412 -5966 -589T-6031 -882T-6121 -1056T-6238 -1114ZM5587 295Q5513 295 5453 322T5362 393Q5390 384 5423 379T5493 373Q5574 373 5654 397T5811 460T5960 550T6099 655Q6111 634 6132 607T6169 561Q6109 512 6041 464T5898
379T5746 318T5587 295ZM-3133 -262Q-3208 -262 -3259 -234T-3338 -168Q-3313 -177 -3282 -180T-3219 -184Q-3153 -184 -3081 -158T-2936 -88T-2789 16T-2646 143Q-2642 129 -2635 113T-2621 81T-2605 52T-2589 29Q-2651 -33 -2720 -86T-2860 -178T-3000 -239T-3133
-262ZM-2150 -197Q-2195 -197 -2235 -188T-2309 -163T-2371 -129T-2417 -90Q-2379 -106 -2337 -112T-2245 -119Q-2168 -119 -2093 -96T-1944 -34T-1802 59T-1667 172Q-1661 147 -1645 118T-1614 70Q-1672 16 -1736 -32T-1869 -117T-2009 -175T-2150 -197ZM-319
-12Q-373 -12 -419 -3T-505 23T-576 62T-635 111Q-588 89 -534 78T-414 66Q-350 66 -280 85T-138 138T4 217T139 315Q145 288 159 256T188 205Q130 157 67 118T-62 49T-193 4T-319 -12ZM-1270 -90Q-1311 -90 -1343 -84T-1401 -66T-1446 -40T-1479 -8Q-1454 -11
-1426 -13T-1364 -16Q-1309 -16 -1243 7T-1107 72T-967 169T-831 287Q-819 265 -802 240T-766 197Q-826 137 -892 85T-1024 -6T-1153 -67T-1270 -90ZM4665 254Q4631 254 4602 262T4550 284T4510 314T4481 348Q4503 342 4524 339T4571 336Q4637 336 4710 358T4858
420T5007 514T5149 631Q5155 606 5168 574T5198 520Q5138 466 5070 418T4932 334T4794 276T4665 254ZM-5587 -340Q-5624 -340 -5658 -332T-5722 -310T-5775 -278T-5812 -242Q-5784 -251 -5751 -256T-5681 -262Q-5627 -262 -5566 -242T-5439 -186T-5307 -103T-5177
0Q-5171 -11 -5163 -23T-5144 -48T-5125 -72T-5108 -90Q-5165 -142 -5226 -187T-5350 -267T-5473 -320T-5587 -340ZM-6959 -217Q-6994 -217 -7027 -208T-7091 -182T-7148 -146T-7197 -106Q-7160 -119 -7122 -127T-7041 -135Q-6981 -135 -6922 -121T-6804 -82T-6689
-23T-6578 53L-6586 -94Q-6676 -153 -6766 -185T-6959 -217ZM537 41Q492 41 458 49T398 70T354 100T324 135Q351 126 384 123T455 119Q553 119 671 182T938 381L926 225Q877 184 826 150T725 92T628 55T537 41ZM-4784 -270Q-4816 -270 -4847 -261T-4905 -237T-4955
-203T-4993 -164Q-4938 -188 -4878 -188Q-4846 -188 -4812 -180T-4744 -153T-4673 -104T-4600 -29Q-4596 -41 -4589 -55T-4573 -85T-4555 -113T-4538 -135Q-4600 -209 -4664 -239T-4784 -270ZM6652 319Q6594 319 6541 330T6443 361T6362 407T6300 463Q6404 401
6529 401Q6603 401 6678 414T6824 456T6959 529T7073 635T7158 777T7205 958Q7208 934 7210 910T7213 864Q7213 723 7169 620T7049 450T6871 351T6652 319ZM7074 1593Q7102 1587 7136 1577T7213 1548Q7259 1595 7294 1653T7344 1774Q7353 1755 7357 1726T7361 1671Q7361
1645 7355 1616T7337 1559T7311 1506T7279 1462Q7238 1484 7194 1499T7107 1524L7074 1593Z" />
<glyph unicode="U" glyph-name="U" horiz-adv-x="3236" d="M2208 33Q2143 33 2086 58T1995 127Q2026 118 2055 112T2122 106Q2233 106 2336 151T2532 276T2703 465T2841 702T2939 971T2990 1257Q2992 1247 2992 1233T2993 1205T2994 1178T2994 1155Q2994 1012
2966 873T2888 610T2766 379T2607 197T2419 77T2208 33ZM-1659 -160Q-1770 -160 -1843 -131T-1966 -49Q-1920 -68 -1865 -79T-1745 -90Q-1627 -90 -1510 -44T-1282 83T-1067 276T-872 520Q-877 499 -881 473T-887 420T-891 365T-893 315Q-976 209 -1065 122T-1249
-28T-1447 -125T-1659 -160ZM545 -33Q493 -33 451 -25T375 -3T312 31T258 74Q301 58 348 50T451 41Q543 41 626 64T786 127T938 222T1085 340Q1098 318 1117 296T1155 254Q1086 196 1016 144T872 52T716 -10T545 -33ZM-455 -160Q-523 -160 -578 -135T-668 -70Q-643
-79 -613 -82T-549 -86Q-483 -86 -408 -63T-254 4T-94 111T66 254Q78 232 95 207T131 164Q57 89 -19 29T-171 -73T-319 -137T-455 -160ZM1552 53Q1500 53 1458 62T1381 86T1317 124T1262 172Q1308 150 1357 139T1458 127Q1503 127 1551 137T1648 165T1744 209T1835
266Q1847 245 1868 223T1905 184Q1824 125 1733 89T1552 53ZM-2658 -45Q-2730 -45 -2791 -20T-2896 49Q-2859 34 -2822 25T-2740 16Q-2598 16 -2468 75T-2216 246Q-2210 224 -2201 203T-2179 160Q-2287 64 -2407 10T-2658 -45Z" />
<glyph unicode="V" glyph-name="V" horiz-adv-x="3400" d="M1610 -418Q1530 -418 1481 -394T1401 -332Q1429 -338 1459 -343T1524 -348Q1631 -348 1735 -308T1934 -196T2111 -23T2256 199T2361 459T2413 745Q2416 721 2416 697T2417 647Q2417 500 2388 364T2305
109T2177 -107T2012 -273T1821 -380T1610 -418ZM463 -766Q412 -766 373 -759T304 -738T249 -706T205 -664Q242 -676 285 -684T381 -692Q456 -692 531 -665T681 -587T825 -466T959 -312T1079 -131T1180 70Q1180 29 1183 -11T1192 -82Q1126 -232 1044 -358T869 -574T674
-715T463 -766ZM-2658 -283Q-2703 -283 -2748 -274T-2837 -247T-2917 -205T-2982 -152Q-2926 -179 -2866 -194T-2740 -209Q-2620 -209 -2515 -176T-2326 -77T-2188 86T-2114 311Q-2110 290 -2108 269T-2105 229Q-2105 102 -2145 6T-2257 -154T-2432 -251T-2658
-283ZM-1556 -213Q-1643 -213 -1708 -182T-1810 -106Q-1773 -119 -1734 -127T-1651 -135Q-1568 -135 -1488 -113T-1330 -52T-1179 43T-1036 164Q-1030 153 -1022 141T-1003 116T-984 93T-967 74Q-1030 13 -1097 -40T-1238 -131T-1391 -191T-1556 -213ZM2683 1188Q2643
1188 2607 1187T2534 1181T2461 1171T2380 1155Q2374 1177 2365 1200T2343 1241Q2408 1257 2484 1263T2642 1270Q2765 1270 2846 1259T2986 1229Q3045 1266 3088 1317T3150 1446Q3159 1427 3162 1402T3166 1356Q3166 1317 3157 1284T3132 1222T3096 1172T3052 1135Q2993
1153 2899 1170T2683 1188ZM-635 -90Q-715 -90 -769 -64T-864 8Q-833 -4 -798 -12T-725 -20Q-685 -20 -651 -11T-584 17T-522 64T-459 131Q-449 103 -435 76T-406 33Q-435 -2 -464 -26T-523 -64T-580 -84T-635 -90ZM-135 -111Q-188 -111 -224 -89T-283 -29Q-261
-35 -242 -36T-205 -37Q-152 -37 -95 -19T25 33Q15 5 9 -28T0 -86Q-31 -98 -63 -104T-135 -111Z" />
<glyph unicode="W" glyph-name="W" horiz-adv-x="3973" d="M2433 111Q2567 111 2693 146T2936 244T3156 390T3350 573T3514 779T3643 995T3735 1208T3785 1405Q3788 1380 3790 1345T3793 1270Q3793 1184 3768 1085T3697 883T3583 677T3430 480T3244 304T3028 162T2786
68T2523 33Q2482 33 2438 42T2353 67T2276 107T2216 160Q2265 135 2319 123T2433 111ZM-1376 -180Q-1466 -180 -1547 -149T-1683 -61Q-1585 -111 -1466 -111Q-1354 -111 -1239 -64T-1017 71T-818 281T-659 557Q-659 520 -654 476T-643 401Q-705 265 -788 157T-968
-26T-1169 -140T-1376 -180ZM-37 -115Q-139 -115 -220 -83T-356 0Q-260 -37 -127 -37Q-47 -37 41 -10T220 64T397 172T561 303Q570 278 584 248T614 197Q544 134 463 78T297 -22T127 -90T-37 -115ZM-2458 -250Q-2507 -250 -2552 -241T-2638 -215T-2713 -178T-2773
-131Q-2727 -153 -2672 -162T-2552 -172Q-2469 -172 -2383 -148T-2211 -83T-2042 14T-1884 135Q-1875 113 -1857 87T-1823 45Q-1892 -15 -1970 -68T-2131 -162T-2296 -226T-2458 -250ZM1507 -33Q1436 -33 1389 -9T1311 53Q1359 41 1413 41Q1482 41 1557 68T1709
141T1861 247T2003 373Q2012 351 2027 324T2060 279Q2000 219 1931 163T1790 64T1646 -6T1507 -33ZM-3002 90Q-3076 41 -3130 -5T-3221 -94T-3280 -180T-3314 -266Q-3319 -252 -3322 -236T-3326 -203T-3329 -175T-3330 -156Q-3330 -116 -3319 -79T-3277 0T-3188
88T-3039 193Q-3033 168 -3024 139T-3002 90ZM1094 41Q1069 16 1037 4T954 -8Q917 -8 889 0T837 21T796 51T762 86Q787 77 814 74T872 70Q988 70 1098 180L1094 41ZM-3432 -573Q-3468 -573 -3499 -565T-3555 -543T-3599 -511T-3629 -475Q-3601 -488 -3573 -492T-3510
-496Q-3448 -496 -3402 -474T-3318 -414Q-3318 -442 -3313 -475T-3297 -532Q-3325 -557 -3361 -565T-3432 -573Z" />
<glyph unicode="X" glyph-name="X" horiz-adv-x="3686" d="M74 -8Q20 -8 -25 1T-107 28T-176 71T-233 127Q-184 99 -127 85T-8 70Q87 70 188 114T388 243T578 451T745 733Q745 696 748 655T754 582Q683 434 602 324T434 140T255 29T74 -8ZM-1200 -94Q-1290 -94
-1362 -59T-1491 29Q-1445 7 -1396 -4T-1294 -16Q-1137 -16 -1005 60T-754 274Q-729 265 -705 262T-655 258Q-600 258 -539 275T-422 324Q-413 302 -395 276T-360 233Q-407 206 -458 193T-561 180Q-598 180 -624 186T-676 205Q-731 136 -790 81T-913 -14T-1049
-73T-1200 -94ZM-2183 -188Q-2282 -188 -2358 -158T-2490 -78Q-2441 -96 -2389 -105T-2277 -115Q-2210 -115 -2135 -90T-1983 -21T-1831 82T-1688 209Q-1675 187 -1656 164T-1622 123Q-1682 60 -1752 4T-1895 -95T-2042 -163T-2183 -188ZM2417 -651Q2368 -651 2324
-641T2242 -613T2174 -572T2122 -524Q2168 -546 2222 -559T2335 -573Q2473 -573 2588 -519T2789 -366T2925 -129T2986 176Q2988 159 2990 139T2993 98T2996 61T2998 33Q2998 -121 2956 -247T2838 -463T2655 -602T2417 -651ZM3518 1253Q3518 1178 3490 1079T3398
863T3235 616T2990 348Q2990 359 2990 376T2988 411T2985 447T2982 475Q3108 597 3201 718T3358 953T3459 1172T3510 1364Q3513 1339 3515 1309T3518 1253ZM-3105 152Q-3185 152 -3247 181T-3346 254Q-3309 238 -3272 232T-3191 225Q-3079 225 -2974 266T-2769
381Q-2769 353 -2764 319T-2753 262Q-2833 210 -2921 181T-3105 152ZM1237 102Q1178 102 1121 131T1024 205Q1052 192 1082 188T1143 184Q1175 184 1209 191T1279 216T1351 267T1425 348Q1435 323 1451 294T1483 246Q1454 206 1423 179T1361 134T1298 110T1237
102ZM1778 94Q1728 94 1683 116T1610 176Q1625 173 1650 171T1700 168Q1737 168 1785 182T1876 225Q1864 201 1853 167T1835 102Q1826 99 1808 97T1778 94Z" />
<glyph unicode="Y" glyph-name="Y" horiz-adv-x="5980" d="M70 -20Q-39 -20 -120 18T-258 115Q-202 87 -141 72T-12 57Q230 57 472 215T938 696Q932 673 928 647T920 592T915 537T913 487Q813 357 710 261T501 103T287 11T70 -20ZM2347 135Q2245 135 2173 171T2048
266Q2098 238 2152 224T2265 209Q2365 209 2470 256T2676 392T2871 611T3039 905V856Q3039 828 3039 796T3043 741Q2974 597 2890 484T2715 294T2530 176T2347 135ZM-983 -98Q-1070 -98 -1135 -67T-1237 8Q-1200 -4 -1161 -12T-1077 -20Q-994 -20 -914 2T-756 63T-606
158T-463 279Q-450 257 -430 231T-393 188Q-456 127 -524 75T-665 -16T-818 -76T-983 -98ZM-2085 -168Q-2130 -168 -2175 -159T-2263 -132T-2343 -91T-2408 -37Q-2353 -65 -2293 -79T-2167 -94Q-2047 -94 -1941 -61T-1752 38T-1614 201T-1540 426Q-1537 404 -1535
384T-1532 344Q-1532 217 -1571 121T-1684 -39T-1859 -136T-2085 -168ZM5812 1417Q5812 1368 5803 1315T5771 1201T5710 1069T5613 913T5475 725T5288 500Q5288 509 5287 527T5283 566T5278 608T5272 647Q5406 804 5499 930T5655 1162T5750 1354T5796 1520Q5802
1498 5807 1467T5812 1417ZM-4768 -1176Q-4809 -1176 -4848 -1168T-4920 -1144T-4982 -1110T-5030 -1069Q-4990 -1085 -4949 -1093T-4862 -1102Q-4790 -1102 -4717 -1078T-4576 -1008T-4447 -895T-4339 -741T-4260 -548T-4219 -319Q-4219 -354 -4215 -388T-4211
-446Q-4211 -621 -4259 -757T-4385 -986T-4563 -1127T-4768 -1176ZM-3174 -279Q-3277 -279 -3358 -244T-3486 -156Q-3439 -177 -3385 -189T-3265 -201Q-3183 -201 -3097 -176T-2924 -108T-2752 -6T-2589 119Q-2576 100 -2556 76T-2519 37Q-2591 -28 -2672 -85T-2837
-185T-3007 -254T-3174 -279ZM4076 193Q4005 193 3962 213T3887 274Q3912 268 3937 265T3994 262Q4043 262 4102 283T4235 353T4397 482T4596 680Q4608 643 4619 612T4637 565Q4573 493 4502 426T4358 307T4214 224T4076 193ZM1352 8Q1310 8 1276 16T1216 38T1170
67T1139 98Q1167 89 1195 86T1257 82Q1331 82 1408 107T1565 176T1722 282T1876 418Q1888 399 1909 377T1946 340Q1875 268 1801 207T1650 102T1499 33T1352 8ZM-5399 -82Q-5434 -82 -5469 -74T-5535 -53T-5593 -20T-5636 20Q-5602 5 -5564 -1T-5485 -8Q-5416 -8
-5349 8T-5218 55T-5093 126T-4973 217Q-4966 189 -4958 159T-4944 106Q-4995 65 -5048 31T-5157 -29T-5274 -68T-5399 -82ZM4923 -274Q4865 -274 4819 -252T4747 -193Q4791 -205 4841 -205Q4941 -205 5019 -161T5153 -43T5242 125T5284 319Q5287 285 5289 250T5292
172Q5292 89 5268 9T5197 -134T5081 -235T4923 -274ZM-4080 -33Q-4107 -73 -4142 -110T-4215 -176Q-4215 -151 -4217 -115T-4223 -45Q-4207 -30 -4188 -7T-4149 41Q-4097 7 -4043 -4T-3936 -16Q-3884 -16 -3826 3T-3703 57Q-3693 36 -3675 7T-3641 -41Q-3666 -53
-3693 -63T-3749 -81T-3804 -93T-3854 -98Q-3916 -98 -3974 -83T-4080 -33ZM3531 193Q3463 193 3408 222T3318 295Q3346 283 3376 279T3437 274Q3502 274 3571 309T3711 430Q3720 405 3736 376T3768 328Q3739 289 3709 264T3648 222T3588 200T3531 193Z" />
<glyph unicode="Z" glyph-name="Z" horiz-adv-x="6021" d="M-258 -33Q-342 -33 -407 -1T-516 82Q-432 45 -340 45Q-183 45 -51 119T205 344Q226 335 252 332T303 328Q420 328 533 396T766 618Q757 572 749 523T741 434Q649 339 563 295T385 250Q314 250 270 274Q213
199 154 142T29 46T-107 -13T-258 -33ZM5083 209Q5018 209 4960 230T4862 295Q4893 286 4922 280T4989 274Q5100 274 5203 319T5399 444T5570 633T5708 870T5806 1139T5857 1425Q5860 1404 5860 1385T5861 1348Q5861 1205 5833 1065T5755 798T5633 563T5476 377T5290
254T5083 209ZM-3539 -180Q-3632 -180 -3708 -145T-3834 -57Q-3787 -79 -3737 -90T-3633 -102Q-3553 -102 -3483 -84T-3347 -29T-3220 63T-3097 193Q-3069 180 -3047 176T-2994 172Q-2938 172 -2886 189T-2777 238Q-2773 227 -2765 213T-2746 185T-2727 158T-2712
135Q-2752 113 -2799 102T-2900 90Q-2937 90 -2963 96T-3015 119Q-3072 45 -3130 -11T-3252 -104T-3387 -161T-3539 -180ZM1188 -78Q1101 -78 1048 -53T963 12Q994 3 1030 -2T1106 -8Q1198 -8 1293 38T1481 164T1661 347T1823 569Q1822 554 1821 537T1818 497T1816
448T1815 385Q1746 284 1671 199T1517 53T1355 -43T1188 -78ZM3203 123Q3116 123 3048 157T2937 242Q2980 220 3026 211T3121 201Q3201 201 3272 219T3408 274T3535 366T3658 496Q3673 490 3685 486T3709 479T3734 476T3764 475Q3808 475 3851 487T3944 520Q3957
495 3974 470T4010 426Q3973 411 3935 402T3858 393Q3818 393 3791 399T3740 422Q3683 348 3626 292T3504 199T3366 142T3203 123ZM-4518 -274Q-4626 -274 -4701 -242T-4825 -160Q-4776 -178 -4724 -187T-4612 -197Q-4546 -197 -4471 -171T-4319 -101T-4167 0T-4026
119Q-4014 97 -3995 71T-3961 29Q-4023 -31 -4092 -86T-4233 -182T-4378 -249T-4518 -274ZM2249 -37Q2181 -37 2128 -11T2040 53Q2065 44 2094 41T2154 37Q2229 37 2309 66T2469 145T2623 256T2765 385Q2771 376 2780 364T2800 341T2821 319T2839 303Q2770 229
2697 167T2550 59T2400 -11T2249 -37ZM4420 221Q4368 221 4326 230T4248 254T4184 292T4129 340Q4175 318 4224 307T4325 295Q4370 295 4418 305T4515 333T4611 377T4702 434Q4715 413 4735 391T4772 352Q4691 293 4600 257T4420 221ZM-5439 70Q-5520 70 -5582
99T-5681 172Q-5610 143 -5526 143Q-5414 143 -5309 184T-5104 299Q-5104 271 -5099 237T-5087 180Q-5168 128 -5256 99T-5439 70ZM-1200 -135Q-1281 -135 -1340 -108T-1430 -41Q-1402 -50 -1369 -53T-1298 -57Q-1232 -57 -1160 -30T-1014 42T-870 146T-733 270Q-721
246 -702 219T-668 176Q-726 113 -791 57T-926 -42T-1064 -110T-1200 -135ZM-1634 82Q-1637 51 -1639 17T-1642 -49Q-1670 -74 -1716 -88T-1819 -102Q-1857 -102 -1888 -94T-1944 -73T-1988 -40T-2023 0Q-1989 -12 -1954 -18T-1876 -25Q-1808 -25 -1745 2T-1634
82ZM-2216 119Q-2219 88 -2221 54T-2224 -12Q-2252 -37 -2286 -51T-2376 -66Q-2414 -66 -2445 -58T-2501 -36T-2545 -3T-2580 37Q-2546 24 -2511 18T-2433 12Q-2365 12 -2314 39T-2216 119Z" />
<glyph unicode="[" glyph-name="bracketleft" horiz-adv-x="1724" d="M1081 569Q1008 569 947 602T842 692T774 823T750 979Q750 1054 786 1116T882 1224T1020 1294T1184 1319Q1255 1319 1308 1306T1398 1270T1452 1214T1470 1143Q1470 1084 1457 1018T1419 889T1359
767T1281 665T1187 595T1081 569Z" />
<glyph unicode="\" glyph-name="backslash" horiz-adv-x="1724" d="M1081 569Q1008 569 947 602T842 692T774 823T750 979Q750 1054 786 1116T882 1224T1020 1294T1184 1319Q1255 1319 1308 1306T1398 1270T1452 1214T1470 1143Q1470 1084 1457 1018T1419 889T1359
767T1281 665T1187 595T1081 569Z" />
<glyph unicode="]" glyph-name="bracketright" horiz-adv-x="1724" d="M1081 569Q1008 569 947 602T842 692T774 823T750 979Q750 1054 786 1116T882 1224T1020 1294T1184 1319Q1255 1319 1308 1306T1398 1270T1452 1214T1470 1143Q1470 1084 1457 1018T1419 889T1359
767T1281 665T1187 595T1081 569Z" />
<glyph unicode="^" glyph-name="asciicircum" horiz-adv-x="1724" d="M1081 569Q1008 569 947 602T842 692T774 823T750 979Q750 1054 786 1116T882 1224T1020 1294T1184 1319Q1255 1319 1308 1306T1398 1270T1452 1214T1470 1143Q1470 1084 1457 1018T1419 889T1359
767T1281 665T1187 595T1081 569Z" />
<glyph unicode="_" glyph-name="underscore" horiz-adv-x="1724" d="M1081 569Q1008 569 947 602T842 692T774 823T750 979Q750 1054 786 1116T882 1224T1020 1294T1184 1319Q1255 1319 1308 1306T1398 1270T1452 1214T1470 1143Q1470 1084 1457 1018T1419 889T1359
767T1281 665T1187 595T1081 569Z" />
<glyph unicode="`" glyph-name="grave" horiz-adv-x="1724" d="M1081 569Q1008 569 947 602T842 692T774 823T750 979Q750 1054 786 1116T882 1224T1020 1294T1184 1319Q1255 1319 1308 1306T1398 1270T1452 1214T1470 1143Q1470 1084 1457 1018T1419 889T1359
767T1281 665T1187 595T1081 569Z" />
<glyph unicode="a" glyph-name="a" horiz-adv-x="4424" d="M-2462 -184Q-2533 -184 -2591 -153T-2695 -78Q-2661 -93 -2623 -99T-2544 -106Q-2450 -106 -2357 -63T-2175 59T-2004 253T-1851 508Q-1851 452 -1851 410T-1847 340Q-1912 219 -1985 122T-2136 -43T-2297
-147T-2462 -184ZM-668 -45Q-733 -45 -782 -16T-868 57Q-840 45 -812 39T-750 33Q-661 33 -567 76T-379 193T-198 363T-33 565Q-42 522 -47 471T-53 373Q-121 287 -197 211T-352 78T-512 -12T-668 -45ZM3576 156Q3495 156 3417 189T3277 279Q3329 254 3383 240T3494
225Q3567 225 3639 237T3780 276T3908 345T4016 446T4096 584T4141 762Q4144 740 4146 717T4149 672Q4149 578 4126 503T4063 371T3967 273T3848 206T3715 168T3576 156ZM1417 -16Q1368 -16 1321 -7T1232 18T1154 56T1090 106Q1139 82 1196 72T1319 61Q1403 61
1490 88T1662 160T1822 262T1962 377Q1970 368 1980 356T2000 332T2021 310T2040 291Q2003 254 1959 217T1864 146T1760 82T1648 31T1533 -3T1417 -16ZM2540 53Q2431 53 2332 95T2154 205Q2291 131 2454 131Q2554 131 2645 156T2812 231T2947 355T3039 528Q3045
513 3052 496T3068 467Q3050 369 3002 292T2884 162T2726 81T2540 53ZM377 -111Q309 -111 254 -87T168 -25Q193 -31 222 -34T283 -37Q358 -37 438 -9T596 67T748 175T885 303Q897 281 916 257T950 213Q895 152 827 94T684 -10T531 -83T377 -111ZM-3314 -229Q-3372
-229 -3412 -213T-3478 -160Q-3459 -163 -3438 -165T-3396 -168Q-3338 -168 -3276 -148T-3149 -91T-3022 0T-2896 119Q-2883 100 -2871 83T-2847 49Q-2902 -16 -2961 -67T-3080 -155T-3199 -210T-3314 -229ZM-1372 -156Q-1437 -156 -1494 -131T-1589 -66Q-1561
-75 -1531 -78T-1466 -82Q-1411 -82 -1355 -61T-1245 -1T-1137 89T-1032 201Q-1026 192 -1018 181T-1000 158T-982 137T-967 119Q-1013 61 -1062 11T-1162 -77T-1265 -135T-1372 -156ZM-3842 -213Q-3904 -213 -3955 -192T-4047 -131Q-4019 -140 -3989 -146T-3924
-152Q-3893 -152 -3861 -146T-3794 -123T-3724 -79T-3654 -8Q-3644 -33 -3634 -52T-3609 -90Q-3638 -125 -3668 -149T-3728 -187T-3787 -207T-3842 -213ZM4235 1479Q4235 1451 4226 1426T4195 1376T4141 1325T4059 1270Q4053 1291 4045 1312T4026 1356Q4107 1405
4152 1453T4219 1561Q4228 1539 4231 1518T4235 1479Z" />
<glyph unicode="b" glyph-name="b" horiz-adv-x="2007" d="M594 -627Q487 -627 411 -591T283 -500Q332 -524 388 -538T512 -553Q620 -553 739 -503T967 -344H1032Q1200 -344 1325 -314T1537 -234T1677 -118T1753 20Q1762 2 1768 -17T1774 -57Q1774 -120 1739 -185T1626
-302T1421 -388T1114 -422H1032Q986 -474 933 -512T822 -576T707 -614T594 -627ZM-987 -524Q-1009 -509 -1022 -485T-1036 -438Q-904 -428 -764 -415T-477 -391T-180 -373T123 -365Q128 -373 136 -383T155 -405T177 -428T197 -446Q36 -448 -128 -457T-447 -478T-740
-502T-987 -524ZM1733 1286Q1733 1211 1704 1111T1611 893T1446 645T1200 377Q1200 405 1200 431T1196 496Q1322 617 1415 738T1572 973T1674 1192T1724 1384Q1728 1360 1730 1336T1733 1286ZM-1507 250Q-1579 250 -1640 277T-1745 348Q-1711 333 -1673 326T-1593
319Q-1427 319 -1272 419T-954 721Q-954 687 -949 655T-938 594Q-1079 422 -1218 336T-1507 250Z" />
<glyph unicode="c" glyph-name="c" horiz-adv-x="4547" d="M-295 -1147Q-332 -1147 -372 -1138T-452 -1113T-528 -1073T-594 -1020Q-538 -1051 -484 -1068T-377 -1085Q-328 -1085 -289 -1054T-218 -961T-160 -805T-111 -582Q-7 -566 113 -552T384 -527T720 -506T1143
-488T1674 -474T2335 -463Q2355 -466 2381 -469T2437 -474T2496 -477T2552 -479Q2681 -479 2786 -445T2971 -353T3101 -217T3174 -53Q3187 -89 3187 -139Q3187 -225 3148 -304T3036 -445T2855 -542T2613 -578Q2558 -578 2502 -573T2408 -561Q2122 -565 1883 -569T1441
-577T1073 -587T767 -598T513 -612T301 -629T118 -650T-45 -676Q-65 -801 -93 -890T-155 -1036T-224 -1120T-295 -1147ZM3580 176Q3506 176 3452 195T3363 254Q3394 245 3427 242T3498 238Q3566 238 3644 265T3802 340T3960 449T4107 580T4228 722T4313 860Q4332
845 4341 828T4350 795Q4350 743 4313 677T4215 542T4075 407T3909 290T3738 208T3580 176ZM-3863 -152Q-3949 -152 -4014 -129T-4129 -61Q-4089 -77 -4043 -83T-3944 -90Q-3879 -90 -3817 -70T-3697 -16T-3588 63T-3492 160T-3412 266T-3351 373Q-3347 339 -3339
308T-3322 246Q-3351 183 -3404 113T-3529 -16T-3686 -113T-3863 -152ZM-2380 -139Q-2428 -139 -2463 -131T-2524 -110T-2568 -80T-2601 -45Q-2573 -54 -2542 -60T-2474 -66Q-2423 -66 -2358 -41T-2221 27T-2075 131T-1933 262Q-1924 237 -1906 210T-1876 164Q-1938
98 -2006 43T-2142 -53T-2270 -116T-2380 -139ZM3142 672Q3074 585 2983 495T2785 328Q2733 315 2671 304T2540 283Q2630 329 2720 394T2891 535T3043 689T3166 840Q3154 796 3148 756T3142 672ZM-1008 -41Q-1060 -41 -1102 -17T-1171 45Q-1153 39 -1132 38T-1090
37Q-1041 37 -985 57T-868 114T-744 201T-618 311Q-622 271 -623 231T-627 160Q-678 115 -728 78T-828 15T-922 -26T-1008 -41ZM-1532 -16Q-1594 -16 -1644 6T-1733 66Q-1685 53 -1622 53Q-1554 53 -1485 90T-1348 205Q-1338 180 -1323 155T-1294 115Q-1323 78
-1354 53T-1416 13T-1476 -9T-1532 -16ZM-2908 -111Q-2964 -111 -3011 -83T-3092 -16Q-3052 -29 -3002 -29Q-2928 -29 -2872 1T-2761 90V-57Q-2785 -85 -2825 -98T-2908 -111Z" />
<glyph unicode="d" glyph-name="d" horiz-adv-x="2949" d="M1462 -4Q1342 -4 1246 29T1081 127Q1146 93 1220 75T1380 57Q1524 59 1656 95T1906 193T2130 339T2324 522T2485 729T2611 947T2699 1164T2748 1368Q2752 1346 2754 1325T2757 1278Q2757 1193 2734 1094T2665
889T2553 677T2402 471T2214 286T1993 136T1742 35T1462 -4ZM-2265 -143Q-2434 -143 -2540 -49Q-2496 -65 -2448 -73T-2347 -82Q-2249 -82 -2145 -36T-1940 99T-1747 317T-1581 610V590Q-1581 556 -1581 525T-1577 463Q-1608 393 -1650 321T-1744 182T-1856 56T-1983
-48T-2120 -117T-2265 -143ZM319 -45Q239 -45 180 -19T78 53Q115 35 154 26T238 16Q318 16 400 39T563 105T724 206T877 336Q889 314 901 296T926 258Q860 192 787 137T635 41T477 -22T319 -45ZM-557 -70Q-616 -70 -660 -55T-733 0Q-712 -3 -688 -5T-639 -8Q-582
-8 -521 16T-396 82T-269 178T-143 295Q-134 273 -123 253T-98 213Q-154 155 -212 103T-329 13T-445 -47T-557 -70ZM-1098 -53Q-1157 -53 -1208 -35T-1303 25Q-1272 15 -1243 12T-1180 8Q-1121 8 -1051 44T-909 164Q-900 136 -890 115T-864 78Q-893 41 -923 16T-984
-24T-1043 -46T-1098 -53Z" />
<glyph unicode="e" glyph-name="e" horiz-adv-x="3891" d="M2941 184Q2867 184 2809 210T2720 274Q2776 262 2847 262Q2924 262 3003 289T3160 363T3307 470T3437 600T3541 740T3609 877Q3621 861 3633 832T3645 778Q3645 726 3616 662T3535 531T3415 403T3268
292T3106 214T2941 184ZM-2159 -123Q-2258 -123 -2339 -91T-2474 -12Q-2384 -49 -2253 -49Q-2167 -49 -2080 -24T-1908 42T-1745 139T-1597 254Q-1588 229 -1572 204T-1536 160Q-1598 103 -1670 52T-1821 -38T-1986 -100T-2159 -123ZM-33 -115Q-113 -115 -172 -88T-262
-20Q-234 -30 -201 -33T-131 -37Q-65 -37 7 -10T153 62T298 167T434 291Q447 266 465 239T500 197Q442 134 376 78T241 -22T103 -90T-33 -115ZM2073 53Q2011 53 1966 75T1896 131Q1921 125 1939 124T1982 123Q2050 123 2122 148T2267 216T2412 314T2552 430Q2561
405 2577 382T2609 340Q2549 285 2479 233T2336 141T2196 77T2073 53ZM1356 12Q1306 12 1259 33T1184 94Q1202 91 1221 89T1262 86Q1305 86 1358 103T1471 150T1593 222T1716 315Q1722 288 1737 260T1765 213Q1654 117 1548 65T1356 12ZM-3006 324Q-3080 324 -3145
335T-3267 368T-3373 418T-3465 483Q-3382 443 -3289 425T-3097 406Q-3019 406 -2941 410T-2773 426Q-2770 407 -2765 383T-2753 336Q-2888 324 -3006 324ZM831 29Q766 29 709 54T610 123Q641 114 672 108T737 102Q768 102 800 108T866 132T935 178T1008 254Q1017
229 1035 204T1069 164Q1040 125 1009 100T947 58T887 36T831 29ZM-451 102Q-454 71 -456 37T-459 -29Q-487 -53 -533 -67T-635 -82Q-673 -82 -704 -74T-760 -53T-805 -20T-840 20Q-806 8 -771 2T-692 -4Q-624 -4 -561 23T-451 102ZM-1044 147Q-1048 116 -1050
82T-1053 16Q-1081 -8 -1114 -22T-1204 -37Q-1243 -37 -1274 -29T-1330 -7T-1374 25T-1409 66Q-1375 53 -1340 47T-1262 41Q-1193 41 -1142 68T-1044 147Z" />
<glyph unicode="f" glyph-name="f" horiz-adv-x="2826" d="M-1450 -606Q-1469 -594 -1484 -569T-1503 -524Q-1392 -523 -1277 -521T-1037 -515T-771 -505T-469 -489T-118 -468T291 -438Q340 -448 391 -451T479 -455Q596 -455 702 -434T893 -368T1038 -254T1122
-90Q1132 -109 1135 -132T1139 -180Q1139 -268 1093 -335T969 -448T785 -517T561 -541Q521 -541 471 -535T381 -520Q148 -538 -46 -551T-405 -573T-710 -589T-975 -599T-1217 -604T-1450 -606ZM1348 98Q1286 98 1229 107T1122 131Q1122 143 1120 159T1114 184Q1148
178 1186 175T1266 172Q1443 172 1602 233T1899 398T2151 635T2351 914T2493 1206T2572 1479Q2578 1457 2581 1431T2585 1376Q2585 1286 2561 1184T2492 975T2382 762T2235 558T2054 376T1843 231T1607 134T1348 98ZM-1692 -172Q-1692 -184 -1691 -201T-1688 -236T-1683
-271T-1675 -303Q-1737 -391 -1805 -466T-1947 -596T-2094 -682T-2241 -713Q-2333 -713 -2397 -684T-2499 -610Q-2461 -626 -2418 -632T-2322 -639Q-2241 -639 -2157 -604T-1990 -506T-1833 -358T-1692 -172Z" />
<glyph unicode="g" glyph-name="g" horiz-adv-x="3031" d="M-1671 -610Q-1693 -595 -1709 -571T-1729 -528Q-1524 -527 -1298 -521T-835 -505T-356 -479T122 -445T585 -402T1016 -352Q1036 -355 1069 -358T1142 -365T1220 -371T1290 -373Q1419 -373 1527 -346T1717
-268T1853 -143T1929 25Q1935 6 1940 -15T1946 -57Q1946 -145 1904 -218T1784 -343T1592 -425T1335 -455Q1303 -455 1270 -453T1205 -448T1147 -441T1102 -434Q892 -462 661 -485T190 -529T-295 -564T-778 -589T-1242 -604T-1671 -610ZM-2601 -721Q-2694 -721 -2758
-698T-2863 -631Q-2823 -643 -2780 -651T-2683 -659Q-2605 -659 -2526 -628T-2371 -542T-2221 -409T-2083 -240T-1961 -42T-1862 174T-1791 398T-1753 623Q-1750 601 -1748 580T-1745 537Q-1745 399 -1780 252T-1876 -35T-2021 -299T-2199 -517T-2397 -666T-2601
-721ZM2097 246Q2038 246 1996 255T1925 287Q1922 293 1919 299T1913 315Q1935 309 1959 308T2015 307Q2083 307 2158 335T2309 410T2457 519T2592 651T2703 790T2777 926Q2789 910 2797 888T2806 844Q2806 795 2773 732T2685 602T2558 471T2407 357T2248 277T2097
246Z" />
<glyph unicode="h" glyph-name="h" horiz-adv-x="2744" d="M-1434 -856Q-1468 -856 -1504 -839T-1565 -791Q-1555 -794 -1537 -796T-1503 -799Q-1454 -799 -1414 -781T-1339 -729Q-1319 -654 -1297 -586T-1246 -467T-1178 -386T-1085 -356Q-1026 -356 -967 -359T-840
-369T-694 -390T-517 -422T-297 -469T-25 -532Q316 -615 586 -662T1065 -709Q1331 -709 1541 -648T1908 -447T2169 -85T2327 463Q2348 605 2367 756T2404 1044Q2460 1116 2494 1191T2548 1335Q2554 1314 2559 1291T2564 1245Q2564 1217 2560 1185T2543 1115T2507
1034T2445 942Q2436 868 2426 785T2406 617T2383 445T2359 279Q2311 -12 2210 -218T1956 -555T1601 -746T1147 -807Q935 -807 662 -761T41 -631Q-118 -593 -244 -565T-471 -516T-653 -482T-802 -460T-930 -449T-1049 -446Q-1097 -446 -1129 -459T-1186 -511T-1235
-622T-1290 -815Q-1315 -834 -1354 -845T-1434 -856ZM238 233Q160 233 92 261T-29 340Q15 318 60 307T156 295Q234 295 304 313T439 368T565 460T688 590Q719 577 741 575T795 573Q847 573 895 589T999 639Q1012 590 1036 553Q996 531 957 522T877 512Q839 512
811 518T758 537Q701 463 643 407T521 312T388 253T238 233ZM-2167 500Q-2238 500 -2299 523T-2404 590Q-2367 574 -2330 568T-2249 561Q-2110 561 -1981 631T-1720 840Q-1727 803 -1728 763T-1729 688Q-1836 587 -1944 544T-2167 500ZM1466 295Q1386 295 1327
318T1225 381Q1262 369 1300 363T1384 356Q1441 356 1501 370T1622 412T1745 477T1864 561Q1857 524 1849 490T1831 422Q1741 366 1649 331T1466 295Z" />
<glyph unicode="i" glyph-name="i" horiz-adv-x="2662" d="M1683 143Q1615 143 1561 163T1479 217Q1500 214 1530 212T1589 209Q1669 209 1754 237T1922 314T2082 427T2225 565T2338 714T2413 864Q2425 849 2431 829T2437 786Q2437 726 2404 655T2315 513T2185
375T2026 257T1854 174T1683 143ZM-61 -20Q-101 -20 -136 -11T-203 13T-263 49T-315 90Q-275 78 -234 72T-143 66Q-63 66 15 94T169 173T313 294T444 448T556 628T647 823V741Q647 720 647 689T651 635Q597 505 519 386T347 177T149 34T-61 -20ZM-1249 -147Q-1302
-147 -1346 -137T-1428 -108T-1497 -65T-1552 -12Q-1503 -40 -1447 -53T-1331 -66Q-1259 -66 -1185 -53T-1041 -10T-906 63T-791 170T-704 312T-655 492Q-652 470 -650 437T-647 381Q-647 287 -672 211T-741 77T-843 -24T-969 -94T-1108 -134T-1249 -147ZM-2142
-164Q-2220 -164 -2270 -145T-2351 -86Q-2323 -95 -2292 -98T-2224 -102Q-2173 -102 -2115 -82T-1996 -27T-1871 55T-1745 156Q-1733 134 -1718 117T-1688 82Q-1745 33 -1804 -11T-1922 -90T-2037 -144T-2142 -164ZM1270 348Q1267 320 1266 282T1262 209Q1211 164
1106 164Q1048 164 1002 192T918 258Q942 249 969 246T1024 242Q1083 242 1144 269T1270 348Z" />
<glyph unicode="j" glyph-name="j" horiz-adv-x="2417" d="M-1831 -844Q-1882 -844 -1921 -838T-1992 -819T-2047 -789T-2089 -750Q-2052 -765 -2009 -773T-1913 -782Q-1835 -782 -1755 -749T-1596 -655T-1443 -511T-1301 -329T-1176 -119T-1073 109T-999 343T-958
573Q-957 564 -956 550T-953 519T-951 486T-950 455Q-950 344 -970 230T-1028 3T-1118 -215T-1234 -416T-1368 -588T-1517 -724T-1673 -812T-1831 -844ZM1520 115Q1442 115 1385 137T1290 201Q1318 191 1353 188T1430 184Q1504 184 1580 209T1731 277T1873 379T1999
502T2100 638T2167 774Q2191 744 2191 692Q2191 633 2164 567T2088 437T1975 315T1836 212T1681 142T1520 115ZM709 78Q644 78 602 102T532 160Q551 154 579 151T635 147Q687 147 741 167T851 224T962 315T1073 434Q1082 409 1098 380T1126 332Q1027 208 919 143T709
78ZM49 -4Q3 -4 -35 17T-98 70Q-86 67 -69 67T-37 66Q12 66 65 82T174 128T282 195T385 279Q397 257 416 235T451 197Q406 154 356 117T255 53T151 11T49 -4ZM-463 12Q-525 12 -581 35T-680 102Q-649 90 -618 86T-553 82Q-524 82 -491 89T-424 115T-353 165T-279
242Q-269 217 -255 192T-225 152Q-256 112 -287 85T-350 42T-409 19T-463 12Z" />
<glyph unicode="k" glyph-name="k" horiz-adv-x="3891" d="M-2499 -598Q-2517 -583 -2533 -559T-2552 -516Q-2400 -515 -2203 -512T-1780 -503T-1306 -490T-805 -472T-299 -450T187 -422T631 -388T1008 -348Q1028 -351 1062 -354T1135 -361T1215 -367T1290 -369Q1419
-369 1525 -338T1713 -252T1847 -119T1921 53Q1927 35 1932 14T1937 -29Q1937 -116 1898 -193T1785 -329T1608 -421T1372 -455Q1338 -455 1302 -454T1229 -449T1158 -441T1094 -430Q958 -448 792 -463T438 -493T49 -519T-362 -540T-781 -558T-1193 -573T-1586 -584T-1943
-592T-2252 -596T-2499 -598ZM2732 188Q2664 188 2602 210T2503 279Q2534 269 2571 266T2646 262Q2778 262 2910 314T3166 457T3397 670T3591 931T3732 1222T3805 1520Q3808 1498 3810 1476T3813 1430Q3813 1323 3789 1213T3720 996T3613 787T3474 596T3310 431T3128
302T2933 218T2732 188ZM-3314 78Q-3385 78 -3446 103T-3551 172Q-3514 157 -3477 148T-3396 139Q-3253 139 -3123 198T-2871 369Q-2858 323 -2834 283Q-2943 187 -3063 133T-3314 78ZM2130 254Q2049 254 1992 286T1896 365Q1931 352 1971 344T2052 336Q2129 336
2188 368T2286 451V315Q2278 305 2263 294T2228 274T2183 260T2130 254Z" />
<glyph unicode="l" glyph-name="l" horiz-adv-x="3031" d="M-2449 -496Q-2458 -490 -2467 -480T-2483 -458T-2496 -435T-2503 -414Q-2376 -413 -2200 -408T-1815 -395T-1373 -376T-900 -351T-419 -323T45 -291Q63 -294 90 -297T147 -302T208 -305T266 -307Q372
-307 471 -286T653 -221T793 -107T877 57Q886 39 889 16T893 -33Q893 -120 856 -188T749 -302T584 -373T369 -397Q337 -397 303 -395T238 -390T180 -382T135 -373Q-40 -386 -225 -398T-597 -421T-970 -442T-1332 -460T-1672 -475T-1979 -486T-2242 -493T-2449 -496ZM1663
1139Q1644 1035 1606 932T1515 736T1393 563T1244 425T1071 332T877 295Q873 310 868 327T856 360Q950 372 1035 411T1196 512T1337 654T1455 827T1549 1020T1618 1225Q1733 1233 1835 1239Q1879 1242 1924 1244T2010 1249T2085 1252T2142 1253Q2173 1253 2193
1231T2220 1171Q2197 1171 2161 1170T2082 1166T1990 1161T1895 1155Q1786 1148 1663 1139ZM2535 877Q2501 877 2467 885T2404 909V975Q2417 972 2433 972T2462 971Q2513 971 2564 991T2659 1056T2736 1171T2785 1339Q2791 1321 2794 1292T2798 1241Q2798 1147
2774 1079T2711 965T2627 899T2535 877Z" />
<glyph unicode="m" glyph-name="m" horiz-adv-x="1597" d="M270 -557Q174 -557 109 -527T4 -451Q41 -466 87 -474T188 -483Q248 -483 308 -463T427 -405T544 -316T659 -201Q775 -192 886 -168T1091 -102T1252 1T1348 147Q1357 129 1362 108T1368 61Q1368 8 1343
-36T1272 -116T1166 -179T1032 -225T881 -257T721 -274Q666 -340 613 -392T505 -481T393 -537T270 -557ZM-1303 -385Q-1315 -373 -1321 -352T-1331 -311Q-1105 -308 -816 -296T-184 -262Q-178 -278 -165 -299T-139 -336Q-494 -358 -788 -371T-1303 -385ZM1360 1499Q1360
1453 1346 1413T1306 1342T1242 1295T1159 1278Q1156 1297 1151 1313T1139 1348Q1216 1366 1269 1428T1343 1581Q1353 1562 1356 1540T1360 1499Z" />
<glyph unicode="n" glyph-name="n" horiz-adv-x="2458" d="M1491 262Q1423 262 1373 280T1282 344Q1310 332 1342 328T1409 324Q1520 324 1623 369T1819 493T1990 680T2128 916T2226 1185T2277 1470Q2280 1452 2283 1434T2286 1401Q2286 1264 2258 1126T2177 862T2051
626T1890 435T1701 308T1491 262ZM1188 406Q1144 371 1097 342T1004 291Q997 312 987 333T967 373Q1049 410 1130 479Q1156 437 1188 406ZM-2130 -516Q-2136 -510 -2142 -500T-2155 -479T-2165 -455T-2171 -434Q-2053 -433 -1895 -429T-1551 -417T-1154 -400T-723
-378T-274 -350T176 -319Q194 -322 220 -324T274 -328T328 -331T373 -332Q490 -332 594 -312T782 -247T924 -135T1008 29Q1017 10 1020 -13T1024 -61Q1024 -149 974 -215T841 -325T649 -392T422 -414Q405 -414 381 -413T330 -411T278 -407T233 -401Q0 -419 -233
-434T-690 -462T-1123 -485T-1517 -502T-1857 -512T-2130 -516Z" />
<glyph unicode="o" glyph-name="o" horiz-adv-x="2621" d="M-1348 -598Q-1372 -583 -1388 -559T-1405 -512Q-1313 -492 -1178 -469T-875 -424T-510 -380T-99 -342T344 -313T803 -295Q815 -320 834 -342T868 -377Q626 -383 390 -396T-66 -426T-483 -465T-846 -509T-1140
-555T-1348 -598ZM1274 -557Q1166 -557 1091 -522T963 -430Q1012 -455 1068 -469T1192 -483Q1246 -483 1303 -471T1419 -433T1535 -368T1647 -274H1712Q1880 -274 2005 -244T2217 -164T2357 -48T2433 90Q2442 72 2448 53T2454 12Q2454 -30 2439 -73T2390 -157T2305
-233T2180 -295T2011 -336T1794 -352H1712Q1666 -405 1613 -443T1502 -507T1387 -544T1274 -557ZM-1954 20Q-2031 20 -2099 44T-2220 115Q-2177 99 -2131 91T-2036 82Q-1879 82 -1749 157T-1499 377Q-1477 368 -1457 364T-1421 360Q-1366 360 -1307 388T-1188 467Q-1179
442 -1169 421T-1147 377Q-1190 340 -1244 316T-1348 291Q-1372 291 -1396 294T-1442 307Q-1497 234 -1554 180T-1673 90T-1805 38T-1954 20ZM2413 1356Q2413 1281 2384 1181T2291 963T2126 714T1880 446Q1880 474 1880 501T1876 565Q2002 687 2095 808T2252 1043T2353
1262T2404 1454Q2407 1429 2410 1405T2413 1356Z" />
<glyph unicode="p" glyph-name="p" horiz-adv-x="3564" d="M2081 106Q1960 106 1864 139T1700 238Q1765 204 1838 186T1999 168Q2143 170 2275 205T2525 303T2749 450T2942 633T3103 839T3230 1057T3318 1274T3367 1479Q3370 1457 3372 1435T3375 1389Q3375 1304
3352 1205T3283 1000T3171 787T3020 582T2833 397T2612 247T2360 146T2081 106ZM659 -590Q595 -590 535 -575T420 -534T317 -474T229 -401Q310 -451 400 -477T578 -504Q685 -504 793 -462T994 -333T1152 -109T1241 217Q1306 264 1369 320T1495 438Q1504 417 1522
390T1556 344Q1522 310 1492 281T1430 225T1364 171T1290 115Q1261 -68 1204 -201T1067 -420T884 -548T659 -590ZM-1614 -16Q-1655 -16 -1687 -10T-1746 8T-1793 37T-1835 78Q-1807 69 -1776 63T-1708 57Q-1653 57 -1590 77T-1459 134T-1323 220T-1188 328Q-1175
303 -1157 278T-1126 233Q-1186 181 -1249 136T-1376 57T-1499 4T-1614 -16ZM-2261 -799Q-2295 -799 -2329 -789T-2397 -760T-2462 -719T-2519 -672Q-2476 -697 -2431 -707T-2343 -717Q-2271 -717 -2216 -653T-2119 -470T-2048 -180T-1999 205Q-1993 192 -1978
181T-1950 164Q-1984 -315 -2062 -557T-2261 -799ZM-2986 102Q-3021 102 -3054 112T-3118 137T-3175 173T-3224 213Q-3186 201 -3149 193T-3068 184Q-3008 184 -2949 198T-2831 237T-2716 296T-2605 373L-2613 225Q-2703 166 -2793 134T-2986 102ZM-774 49Q-816
49 -848 56T-906 76T-953 106T-995 143Q-964 131 -933 127T-868 123Q-839 123 -807 130T-741 154T-671 201T-598 274Q-589 250 -571 227T-537 188Q-598 112 -661 81T-774 49ZM-238 29Q-299 29 -347 54T-426 123Q-401 114 -374 110T-319 106Q-248 106 -178 140T-37
229Q-49 198 -57 157T-66 82Q-115 57 -159 43T-238 29Z" />
<glyph unicode="q" glyph-name="q" horiz-adv-x="4301" d="M2761 90Q2640 90 2544 123T2380 221Q2445 187 2518 170T2679 152Q2823 154 2955 189T3205 287T3429 434T3622 616T3783 823T3910 1041T3998 1258T4047 1462Q4050 1441 4052 1419T4055 1372Q4055 1288
4032 1188T3963 983T3851 771T3700 566T3513 381T3292 230T3040 129T2761 90ZM-2990 -889Q-3024 -889 -3060 -877T-3131 -846T-3198 -803T-3256 -754Q-3213 -778 -3169 -788T-3080 -799Q-3008 -799 -2953 -735T-2856 -552T-2785 -261T-2736 123Q-2733 117 -2725
108T-2707 88T-2686 69T-2666 53Q-2683 -197 -2713 -375T-2784 -668T-2877 -835T-2990 -889ZM-41 0Q-125 0 -198 37T-328 131Q-281 106 -229 94T-123 82Q-43 82 28 100T166 154T294 244T418 373Q443 363 466 360T524 356Q568 356 622 374T729 426Q734 415 741 402T758
376T777 352T795 332Q775 320 750 309T699 291T649 279T606 274Q566 274 539 281T487 303Q427 225 370 168T250 73T116 18T-41 0ZM-2339 -119Q-2380 -119 -2414 -110T-2476 -85T-2528 -48T-2572 -4Q-2544 -13 -2513 -19T-2445 -25Q-2390 -25 -2327 -5T-2196 52T-2060
138T-1925 246Q-1913 215 -1891 184T-1843 131Q-1903 79 -1968 34T-2097 -46T-2223 -99T-2339 -119ZM-975 -98Q-1052 -98 -1108 -70T-1196 -4Q-1141 -16 -1069 -16Q-1014 -16 -947 9T-806 79T-658 181T-512 303Q-500 281 -478 254T-430 209Q-493 149 -565 94T-710
-4T-851 -72T-975 -98ZM1720 45Q1640 45 1583 73T1495 139Q1523 130 1556 127T1626 123Q1680 123 1746 147T1883 213T2028 311T2171 430Q2180 408 2199 379T2236 332Q2173 272 2105 220T1970 129T1838 68T1720 45ZM-3723 4Q-3758 4 -3793 14T-3860 41T-3918 82T-3961
131Q-3927 116 -3888 109T-3805 102Q-3745 102 -3686 116T-3568 155T-3453 214T-3342 291L-3351 127Q-3440 68 -3530 36T-3723 4ZM-1507 -61Q-1579 -61 -1640 -27T-1741 66Q-1707 47 -1668 36T-1589 25Q-1521 25 -1467 51T-1356 131V-12Q-1381 -37 -1421 -49T-1507
-61ZM1290 119Q1265 94 1233 84T1163 74Q1098 74 1047 104T958 184Q986 169 1018 163T1081 156Q1128 156 1182 182T1294 270L1290 119Z" />
<glyph unicode="r" glyph-name="r" horiz-adv-x="3277" d="M-766 -811Q-1248 -811 -1613 -731T-2241 -483Q-2107 -539 -1947 -584T-1609 -661T-1238 -711T-848 -729Q-745 -729 -597 -721T-275 -697T87 -657T459 -598Q660 -561 817 -525T1098 -463Q1216 -438 1309
-420T1478 -389T1620 -371T1749 -365Q1805 -365 1837 -391T1884 -455Q1872 -452 1850 -452T1815 -451Q1754 -451 1690 -457T1550 -477T1379 -510T1161 -556T882 -614T524 -684Q344 -718 160 -742T-194 -781T-512 -804T-766 -811ZM3052 1642Q3052 1408 3016 1211T2918
853T2772 570T2593 365T2396 237T2195 188Q2182 196 2164 205T2128 225T2090 243T2056 258H2073Q2176 258 2285 299T2500 422T2699 626T2868 911T2989 1276T3047 1720Q3051 1702 3051 1682T3052 1642ZM2138 -864Q2135 -855 2132 -839T2122 -807Q2134 -810 2150
-810T2175 -811Q2215 -811 2259 -792T2342 -733T2413 -633T2458 -492Q2464 -513 2467 -542T2470 -594Q2470 -668 2449 -724T2394 -817T2320 -874T2241 -893Q2206 -893 2183 -887T2138 -864ZM-2654 -467Q-2697 -467 -2739 -457T-2818 -429T-2885 -391T-2933 -348Q-2896
-367 -2843 -380T-2740 -393Q-2675 -393 -2612 -379T-2486 -336L-2384 -401Q-2437 -429 -2505 -448T-2654 -467Z" />
<glyph unicode="s" glyph-name="s" horiz-adv-x="4178" d="M1855 -496Q2066 -496 2222 -455T2486 -343T2657 -178T2744 20Q2754 -1 2757 -22T2761 -66Q2761 -169 2714 -270T2567 -451T2311 -581T1937 -631Q1756 -631 1562 -623T1167 -601T761 -574T353 -546T-49
-525T-434 -516Q-660 -516 -856 -523T-1231 -546T-1576 -590T-1909 -659Q-1930 -644 -1946 -618T-1962 -569Q-1628 -489 -1246 -454T-430 -418Q-106 -418 188 -430T761 -457T1310 -484T1855 -496ZM3178 352Q3141 352 3110 360T3053 383T3006 414T2970 451Q3016
438 3084 438Q3168 438 3254 463T3422 532T3580 634T3718 760T3828 899T3899 1040Q3905 1033 3912 1020T3924 993T3932 964T3936 938Q3936 879 3905 812T3818 680T3690 556T3532 451T3357 379T3178 352ZM-3461 -111Q-3575 -111 -3658 -73T-3793 25Q-3737 0 -3674
-12T-3543 -25Q-3423 -25 -3310 9T-3103 111T-2945 278T-2859 508Q-2856 496 -2854 480T-2851 448T-2848 417T-2847 393Q-2847 311 -2871 242T-2937 117T-3037 19T-3163 -53T-3307 -96T-3461 -111ZM-2458 -791Q-2532 -791 -2599 -754T-2720 -655Q-2676 -680 -2630
-692T-2540 -705Q-2468 -705 -2413 -641T-2315 -455T-2243 -162T-2191 225Q-2190 222 -2183 215T-2167 198T-2149 181T-2134 168Q-2151 -55 -2181 -232T-2252 -534T-2346 -724T-2458 -791ZM2576 479Q2629 510 2681 548T2785 631Q2795 606 2811 579T2847 532Q2803
495 2757 462T2666 401Q2660 409 2649 420T2624 443T2598 465T2576 479Z" />
<glyph unicode="t" glyph-name="t" horiz-adv-x="2580" d="M-1389 -504Q-1401 -491 -1413 -466T-1430 -422Q-1253 -421 -1028 -413T-538 -390T31 -356T668 -311Q686 -314 712 -316T766 -320T820 -323T864 -324Q981 -324 1085 -304T1274 -239T1416 -127T1499 37Q1508
18 1512 -5T1516 -53Q1516 -112 1494 -160T1430 -248T1333 -317T1210 -366T1068 -396T913 -406Q896 -406 872 -405T821 -403T769 -399T725 -393Q25 -446 -507 -475T-1389 -504ZM1581 238Q1559 238 1543 238T1507 242L1495 299Q1593 299 1685 325T1859 396T2012
498T2141 621T2240 751T2306 877Q2322 861 2330 841T2339 799Q2339 756 2312 698T2236 577T2118 454T1965 345T1784 268T1581 238ZM-1995 -82Q-2066 -82 -2129 -53T-2236 20Q-2202 5 -2164 -3T-2085 -12Q-1997 -12 -1914 16T-1747 100T-1580 241T-1409 442Q-1400
418 -1386 392T-1360 344Q-1441 238 -1519 158T-1674 25T-1831 -55T-1995 -82Z" />
<glyph unicode="u" glyph-name="u" horiz-adv-x="3564" d="M2023 115Q1954 115 1902 124T1808 149T1732 189T1663 242Q1725 214 1793 201T1942 188Q2085 190 2217 226T2468 324T2691 470T2885 653T3046 860T3173 1078T3261 1295T3310 1499Q3313 1477 3315 1456T3318
1409Q3318 1324 3295 1224T3226 1018T3114 804T2963 596T2775 409T2554 257T2303 155T2023 115ZM930 45Q801 45 745 119Q770 113 795 110T848 106Q972 106 1124 196T1438 463Q1447 438 1460 419T1487 381Q1416 303 1342 241T1195 135T1055 68T930 45ZM-1024 8Q-1098
8 -1152 36T-1237 102Q-1212 93 -1175 88T-1094 82Q-1037 82 -973 107T-842 175T-713 275T-594 397Q-585 376 -567 349T-537 303Q-589 243 -648 190T-769 96T-896 32T-1024 8ZM-1880 -61Q-1979 -61 -2045 -36T-2159 37Q-2118 21 -2073 15T-1974 8Q-1835 8 -1693
77T-1417 274Q-1408 250 -1392 227T-1360 184Q-1481 67 -1612 3T-1880 -61ZM545 242Q542 211 540 177T537 111Q509 86 463 72T360 57Q322 57 291 65T235 87T191 119T156 160Q190 147 225 141T303 135Q371 135 434 162T545 242ZM-2978 -258Q-3049 -258 -3112 -229T-3219
-156Q-3185 -171 -3147 -179T-3068 -188Q-2980 -188 -2897 -160T-2730 -76T-2564 65T-2392 266Q-2383 241 -2369 216T-2343 168Q-2424 62 -2502 -18T-2657 -151T-2814 -231T-2978 -258ZM-49 287Q-52 256 -54 222T-57 156Q-85 131 -119 117T-209 102Q-247 102 -278
110T-334 132T-379 164T-414 205Q-380 192 -345 186T-266 180Q-198 180 -147 207T-49 287Z" />
<glyph unicode="v" glyph-name="v" horiz-adv-x="1843" d="M-1556 -381Q-1565 -375 -1574 -365T-1590 -344T-1603 -320T-1610 -299Q-1498 -298 -1383 -296T-1143 -290T-877 -280T-575 -264T-225 -242T184 -213Q204 -218 230 -221T284 -225T337 -228T381 -229Q498
-229 602 -208T790 -143T932 -29T1016 135Q1025 117 1028 94T1032 45Q1032 -42 991 -112T876 -232T703 -309T483 -336Q459 -336 426 -335T358 -331T293 -324T242 -315Q19 -330 -170 -340T-522 -358T-825 -369T-1090 -376T-1329 -380T-1556 -381ZM1221 438Q1286
438 1344 476T1451 577T1535 718T1589 877Q1599 864 1604 841T1610 803Q1610 731 1587 655T1523 518T1425 417T1303 377Q1250 377 1205 397T1126 455Q1148 445 1172 442T1221 438Z" />
<glyph unicode="w" glyph-name="w" horiz-adv-x="2908" d="M-2568 -655Q-2581 -643 -2593 -618T-2609 -573Q-2469 -572 -2290 -566T-1906 -551T-1475 -530T-1019 -503T-555 -471T-104 -434T314 -395T680 -352Q700 -355 733 -358T804 -365T882 -371T954 -373Q1083
-373 1191 -346T1381 -268T1517 -143T1593 25Q1600 6 1605 -15T1610 -57Q1610 -145 1570 -218T1454 -345T1273 -429T1036 -459Q956 -459 884 -451T766 -434Q596 -456 391 -477T-40 -518T-503 -556T-979 -589T-1445 -616T-1879 -637T-2261 -650T-2568 -655ZM1901
238Q1820 238 1768 256T1688 315Q1715 306 1748 303T1819 299Q1886 299 1966 335T2130 431T2297 570T2454 732T2584 899T2675 1053Q2712 1021 2712 975Q2712 939 2689 888T2625 779T2530 657T2412 534T2282 421T2147 327T2017 262T1901 238Z" />
<glyph unicode="x" glyph-name="x" horiz-adv-x="3031" d="M2044 66Q1979 66 1915 88T1798 164Q1838 145 1880 136T1962 127Q2068 127 2168 166T2358 275T2526 444T2662 659T2759 911T2810 1188Q2813 1169 2815 1149T2818 1110Q2818 974 2789 844T2709 597T2585
384T2427 216T2244 106T2044 66ZM-1688 -98Q-1753 -98 -1802 -80T-1888 -20Q-1863 -27 -1834 -32T-1769 -37Q-1645 -37 -1530 19T-1314 173T-1132 402T-995 684V676Q-995 639 -994 606T-987 541Q-1038 407 -1111 291T-1276 88T-1471 -48T-1688 -98ZM242 -16Q167
-16 107 9T0 82Q37 66 76 56T160 45Q291 45 403 97T608 243T772 464T889 745V725Q889 688 889 655T893 590Q853 458 790 347T644 155T460 29T242 -16ZM-2347 -74Q-2431 -74 -2499 -52T-2617 20Q-2577 5 -2530 -3T-2429 -12Q-2389 -12 -2342 -1T-2246 30T-2148 76T-2056
131Q-2044 109 -2032 91T-2007 57Q-2084 -1 -2173 -37T-2347 -74ZM-459 33Q-533 33 -596 56T-709 123Q-668 107 -628 101T-541 94Q-495 94 -447 104T-351 133T-258 175T-172 229Q-160 211 -145 193T-115 160Q-189 101 -274 67T-459 33ZM1401 49Q1327 49 1271 70T1171
131Q1206 122 1242 117T1319 111Q1415 111 1503 152T1675 262Q1691 244 1706 229T1741 201Q1704 169 1664 141T1580 93T1492 61T1401 49Z" />
<glyph unicode="y" glyph-name="y" horiz-adv-x="2949" d="M-1053 -238Q-1131 -359 -1230 -458T-1446 -627T-1694 -735T-1966 -774Q-2047 -774 -2125 -759T-2273 -716T-2406 -652T-2519 -569Q-2417 -628 -2298 -660T-2048 -692Q-1884 -692 -1740 -649T-1472 -524T-1244
-321T-1053 -45Q-1059 -70 -1064 -99T-1069 -156Q-1069 -174 -1066 -198T-1053 -238ZM2376 1253Q2363 1244 2333 1236T2277 1225Q2309 1375 2339 1508T2401 1763T2465 1995T2535 2212Q2563 2255 2586 2302T2627 2395T2660 2487T2683 2572Q2695 2551 2705 2510T2716
2425Q2716 2391 2711 2362T2691 2297T2650 2210T2580 2085Q2562 2033 2544 1970T2507 1838T2473 1699T2441 1564Q2407 1412 2376 1253ZM1921 438Q1989 438 2050 476T2160 576T2245 716T2298 877Q2310 861 2318 833T2327 774Q2327 729 2316 680T2285 585T2238 496T2176
422T2102 371T2019 352Q1961 352 1910 377T1819 459Q1843 449 1868 444T1921 438ZM-831 -463Q-853 -447 -867 -424T-885 -381Q-773 -380 -658 -378T-418 -372T-152 -361T150 -346T500 -324T909 -295Q934 -300 966 -303T1032 -309T1098 -313T1155 -315Q1272 -315
1368 -293T1539 -226T1665 -112T1741 53Q1750 35 1753 12T1757 -37Q1757 -124 1719 -193T1612 -309T1445 -381T1229 -406Q1206 -406 1174 -405T1110 -400T1048 -394T999 -385Q766 -403 572 -415T214 -436T-91 -450T-356 -458T-598 -462T-831 -463Z" />
<glyph unicode="z" glyph-name="z" horiz-adv-x="2662" d="M-1135 -414Q-1156 -398 -1170 -374T-1188 -332Q-1076 -331 -961 -329T-721 -323T-455 -312T-153 -297T197 -275T606 -246Q631 -251 663 -254T729 -260T795 -264T852 -266Q969 -266 1065 -244T1236 -177T1362
-63T1438 102Q1447 84 1450 61T1454 12Q1454 -75 1416 -143T1309 -259T1142 -331T926 -356Q903 -356 871 -355T806 -351T744 -345T696 -336Q463 -354 269 -366T-90 -387T-395 -401T-660 -409T-902 -413T-1135 -414ZM-1909 -291Q-1957 -291 -2003 -280T-2093 -250T-2174
-207T-2241 -156Q-2140 -205 -2011 -205Q-1895 -205 -1796 -172T-1608 -64T-1435 128T-1267 417T-1093 811T-901 1323Q-897 1314 -890 1300T-875 1272T-860 1246T-848 1225Q-948 938 -1035 715T-1205 323T-1366 37T-1530 -153T-1708 -258T-1909 -291ZM2089 1278Q2083
1274 2072 1269T2046 1261T2018 1254T1991 1249Q2023 1400 2053 1533T2115 1787T2179 2019T2249 2236Q2304 2323 2341 2419T2396 2597Q2409 2575 2419 2534T2429 2449Q2429 2415 2424 2386T2405 2321T2364 2234T2294 2109Q2276 2057 2257 1994T2220 1862T2186 1724T2154
1589Q2120 1437 2089 1278ZM1634 463Q1702 463 1763 501T1873 600T1958 741T2011 901Q2024 886 2032 858T2040 799Q2040 754 2029 705T1999 609T1951 520T1889 446T1816 396T1733 377Q1674 377 1623 402T1532 483Q1557 474 1581 469T1634 463Z" />
<glyph unicode="{" glyph-name="braceleft" horiz-adv-x="1724" d="M1081 569Q1008 569 947 602T842 692T774 823T750 979Q750 1054 786 1116T882 1224T1020 1294T1184 1319Q1255 1319 1308 1306T1398 1270T1452 1214T1470 1143Q1470 1084 1457 1018T1419 889T1359
767T1281 665T1187 595T1081 569Z" />
<glyph unicode="|" glyph-name="bar" horiz-adv-x="1724" d="M1081 569Q1008 569 947 602T842 692T774 823T750 979Q750 1054 786 1116T882 1224T1020 1294T1184 1319Q1255 1319 1308 1306T1398 1270T1452 1214T1470 1143Q1470 1084 1457 1018T1419 889T1359 767T1281
665T1187 595T1081 569Z" />
<glyph unicode="}" glyph-name="braceright" horiz-adv-x="1724" d="M1081 569Q1008 569 947 602T842 692T774 823T750 979Q750 1054 786 1116T882 1224T1020 1294T1184 1319Q1255 1319 1308 1306T1398 1270T1452 1214T1470 1143Q1470 1084 1457 1018T1419 889T1359
767T1281 665T1187 595T1081 569Z" />
<glyph unicode="~" glyph-name="asciitilde" horiz-adv-x="1724" d="M1081 569Q1008 569 947 602T842 692T774 823T750 979Q750 1054 786 1116T882 1224T1020 1294T1184 1319Q1255 1319 1308 1306T1398 1270T1452 1214T1470 1143Q1470 1084 1457 1018T1419 889T1359
767T1281 665T1187 595T1081 569Z" />
</font>
</defs>
</svg>
