<?xml version="1.0" standalone="no"?> <!DOCTYPE svg PUBLIC "-//W3C//DTD SVG 1.0//EN" "http://www.w3.org/TR/2001/REC-SVG-20010904/DTD/svg10.dtd" > <svg xmlns="http://www.w3.org/2000/svg" width="100%" height="100%">
<defs >
<font id="BLOCKIBF" horiz-adv-x="931" ><font-face
    font-family="Blockhead"
    units-per-em="1000"
    panose-1="2 0 5 6 2 0 0 2 0 4"
    ascent="750"
    descent="-170"
    alphabetic="0" />
<missing-glyph horiz-adv-x="500" />
<glyph unicode=" " glyph-name="space" horiz-adv-x="278" />
<glyph unicode="!" glyph-name="exclam" horiz-adv-x="689" d="M130 184L89 190L337 31L377 29L130 184ZM118 446L68 462L71 215L126 204L118 446ZM437 347Q437 361 434 379T423 414T405 442T377 454Q353 454 335 445T303 419T282 381T275 338Q275 320 281 302T298
269T325 245T360 235Q378 235 392 246T416 275T431 311T437 347ZM304 700L73 485L128 470L334 660L304 700ZM514 338Q514 378 493 409T427 452Q433 442 439 432T450 411Q456 397 460 381T464 345Q464 330 459 314T446 283T428 253T408 227Q453 232 483 261T514
338ZM610 530L339 690L358 661L622 501L610 530ZM394 9L325 11L47 193L44 496L307 733L628 548L649 484Q651 411 654 349Q655 322 655 296T657 246T658 204T657 176L394 9Z" />
<glyph unicode="&quot;" glyph-name="quotedbl" horiz-adv-x="1572" d="M1108 612Q1004 611 901 606Q857 604 809 601T713 593T618 582T530 568Q494 561 455 549T375 520T295 486T219 450Q135 408 52 359L79 330Q79 330 101 341T161 371T247 413T349 458T457 501T561
533Q615 546 678 554T805 567T929 572T1035 573T1109 572T1139 571L1108 612ZM1477 205Q1452 200 1427 196Q1406 192 1382 189T1338 184Q1318 182 1291 182T1237 181H1176L1197 166H1251Q1274 166 1298 166T1339 166Q1359 166 1384 168T1431 173Q1457 176 1482
180L1477 205ZM1456 557Q1433 559 1409 561Q1389 563 1366 563T1323 562Q1303 560 1277 560T1227 561Q1200 561 1172 562L1175 547Q1205 546 1232 545Q1255 544 1280 544T1323 544Q1343 544 1367 542T1412 538Q1437 535 1461 532L1456 557ZM1351 735L1132 623L1161
581L1437 687L1351 735ZM1510 34Q1487 38 1441 52T1343 85T1240 122T1160 155Q1077 151 991 150Q917 149 829 151T658 163Q601 169 538 181T413 208T294 239T192 268T119 290T86 301L29 359Q38 367 81 399T204 470T400 549T670 612Q701 616 736 619T808 625T881
628T950 631Q1027 633 1105 631L1354 754L1461 690L1484 498L1496 229L1510 34Z" />
<glyph unicode="#" glyph-name="numbersign" horiz-adv-x="643" d="M69 685L50 257L80 223L91 649L69 685ZM184 488L189 458L266 339L308 312L184 488ZM144 709L77 700L105 657L179 653L144 709ZM457 447L461 407L479 388L480 417L457 447ZM333 643L315 686L320
497L333 451V643ZM571 455L468 453L485 431L587 432L571 455ZM361 718L317 707L350 660L392 665L361 718ZM567 571Q567 579 560 584T544 588Q536 586 531 581T528 567Q530 553 546 553Q554 553 560 558T567 571ZM532 702Q523 706 513 705Q505 704 496 699T478 681Q472
670 469 657T465 632Q463 618 464 603Q468 614 473 625Q478 634 484 643T498 659Q504 664 513 668T530 675Q540 679 549 681L532 702ZM315 293L249 330L184 439L183 206L86 195L33 243L41 474L58 718L150 730L200 652L299 507L292 718L364 735L413 665L434 326L315
293ZM486 365L453 403L444 463L578 468L600 429L606 373L486 365ZM603 634Q618 615 622 595Q626 578 620 556T587 514Q558 491 535 491T497 498Q479 508 466 528L446 584Q442 610 443 635Q444 655 450 676T474 710Q497 726 515 724T546 712Q560 701 571 681L603
634Z" />
<glyph unicode="$" glyph-name="dollar" horiz-adv-x="866" d="M491 54L478 65L475 46L491 32V54ZM316 101Q316 140 315 180Q314 214 313 253T309 325Q307 343 306 363T303 402T300 433T297 450Q294 465 287 470T272 474Q263 473 254 468Q259 437 263 405Q267
378 270 347T276 289Q278 266 279 240T282 191Q283 164 284 137L316 101ZM651 420Q644 425 638 429Q633 433 628 437T617 443Q613 420 609 396Q605 376 600 353T590 310Q582 283 573 265T556 218Q548 189 547 164T537 118Q533 109 525 102T508 89Q497 83 486 78L498
66Q505 66 512 68Q518 70 524 72T536 77Q550 84 557 95T568 118T576 145T586 173Q596 194 603 212T617 247T629 283T640 325Q642 339 644 355T648 386Q650 403 651 420ZM743 631Q729 645 709 656Q692 665 666 671T603 672Q582 669 566 667T534 664T503 661T465
658Q409 654 379 647T331 633T301 620T270 613Q249 612 233 619T195 629Q180 630 167 632T142 635T118 634T91 624Q72 614 64 603T53 581Q50 569 53 557L77 515Q82 530 88 543Q93 554 100 566T118 585Q143 602 168 601T220 592Q231 589 242 585T263 577T284 573T305
577Q341 596 359 601T387 607T407 606T437 608Q457 612 473 615T506 622T538 628T575 636Q598 641 627 641T682 639Q712 636 743 631ZM818 536Q826 508 825 472T815 396T794 311T764 223Q752 190 733 154T697 85Q676 48 654 12L494 13L462 39L463 81Q473 90 482
95T498 105T512 116T522 134Q527 150 531 181T552 258Q561 284 571 315T589 375T599 425T593 453Q580 463 560 464T519 462T484 454T466 444Q454 423 448 404T439 366T434 325T429 279Q426 249 427 214T428 147T416 92T381 64Q371 62 360 63T337 66Q325 68 313
71L268 128Q266 153 263 179Q261 201 259 226T255 272Q252 304 249 335T243 393Q239 423 236 452Q222 448 207 445Q194 443 180 443T154 447Q143 451 131 456T108 466Q96 471 84 477L40 543Q30 562 32 581Q34 597 47 615T96 648Q112 654 126 655T154 656T183 651T215
645Q233 643 245 639T276 636Q295 638 309 645T338 656Q359 660 383 664Q403 668 429 672T485 679Q517 682 549 684T609 688T658 689T689 688Q709 685 730 669T768 629T799 580T818 536Z" />
<glyph unicode="&amp;" glyph-name="ampersand" horiz-adv-x="610" d="M250 192Q243 180 236 168Q230 157 223 146T208 126Q200 117 189 108T167 91Q155 82 142 74L162 50Q174 59 185 70Q195 78 206 88T225 109Q233 118 240 129T254 151Q261 162 269 175L250 192ZM208
277Q191 269 174 260Q160 252 145 242T118 221Q107 210 98 194T80 163Q71 145 64 128L81 89Q87 110 96 130Q103 147 113 165T135 197Q146 209 161 220T192 239Q210 249 228 258L208 277ZM482 708Q460 694 436 671Q416 651 392 620T345 541Q328 505 307 463T269
383Q248 340 228 297L250 275Q274 313 297 353Q317 387 337 426T374 500Q403 563 429 599T476 655Q500 677 521 683L482 708ZM577 669Q588 659 580 630Q577 618 569 600T547 558T512 503T460 431Q438 402 416 366T377 298Q357 260 338 221Q346 206 344 183Q342
163 330 134T286 67Q268 46 246 31T199 10T149 8T101 28Q83 41 69 57T48 93T42 133T57 175Q76 208 92 225T120 252T143 263T163 269T182 280T201 304Q225 344 241 376T273 439T303 499T340 568Q379 638 408 671T458 715Q481 728 497 722L577 669Z" />
<glyph unicode="&apos;" glyph-name="quotesingle" horiz-adv-x="660" d="M338 112L321 121Q318 125 314 129T306 137L297 146L266 147L268 136L292 106L306 102L338 100V112ZM268 260L254 285L225 306L198 308L194 287L217 285L243 260L246 236L267 214L280 218L268
260ZM398 186L390 194L371 175L367 157Q371 152 376 151Q379 149 381 149L395 164L403 176L398 186ZM388 261L363 270L360 240L370 234L391 233L388 261ZM471 201L455 186L446 168L429 155L446 143L466 168L483 194L471 201ZM208 557L183 525L179 497L173 474L165
439Q166 437 168 432T173 420T177 408T178 401Q177 399 174 391T170 381L144 371L156 355L179 362L195 390V417L189 445L191 477L204 514L221 534L222 551L208 557ZM317 345L303 368Q300 365 295 359T289 352Q289 350 290 344T292 336L308 318L316 302L323 300L326
314L317 345ZM249 497L248 467L242 448L236 412V385L252 374L258 397L255 423L268 466L275 494L249 497ZM386 346L382 359H362L371 339L382 321L397 335L386 346ZM313 694Q285 689 259 681Q236 674 211 664T165 640Q115 605 94 564T68 486Q62 444 71 401Q71 402
74 417T85 455T103 504T129 555T165 599T212 625Q247 634 271 638T313 643Q332 644 345 643L313 694ZM392 434L367 431V398H384L394 413L398 427L392 434ZM328 580Q318 582 309 582H298L278 558Q286 553 297 550T313 543Q315 543 317 544T321 545L327 564L328 580ZM539
422H516L514 405Q513 404 511 402T504 396Q500 392 495 387Q495 387 493 384T489 376T484 368T480 363L477 314L493 312L501 323L499 343L508 373L524 398L539 401V422ZM378 516L373 509L367 493L382 491L391 487L395 498L378 516ZM487 491L480 528L461 551L446
543V528L460 499Q457 491 454 481T447 462Q443 451 440 440L422 421Q423 419 426 416T434 410Q438 406 443 402Q444 405 447 411T453 423Q457 430 460 439L487 469V491ZM511 628Q497 645 482 658Q469 669 454 678T423 690Q412 691 400 688T377 680Q365 675 353
669L380 624Q380 624 386 626T401 630T420 635T439 638Q460 638 485 633Q498 630 511 628ZM612 442Q612 426 610 413T605 387Q603 378 600 365T592 337T584 309T577 287Q572 277 569 269T560 250Q551 230 541 200T518 111Q513 89 500 74T471 50T436 35T403 28T378
26T368 26Q343 29 319 34Q299 39 277 46T239 67Q218 84 210 104T191 147Q185 163 175 179Q160 205 146 229T118 276Q104 298 92 316T68 349Q62 356 55 375T45 422T44 480T58 545T93 609T156 666Q209 701 245 709T304 715Q330 711 346 696Q382 717 419 717Q435 717
452 712T488 695T524 663T560 610Q590 553 601 513T612 442Z" />
<glyph unicode="(" glyph-name="parenleft" horiz-adv-x="414" d="M243 256Q243 259 244 270T245 295T245 324T241 353Q238 365 233 378T222 404T211 425T204 439L198 430Q199 427 202 418T210 397T219 371T226 345Q228 333 229 319T231 292T232 269T233 254L243
256ZM306 285Q306 298 303 314T297 344T290 369T285 385L275 379Q275 376 276 366T280 341T284 312T287 283Q288 271 288 257T288 230T288 206T288 189L301 202Q301 204 302 213T304 234T306 260T306 285ZM227 540Q228 552 228 565Q228 576 227 588T224 612Q219
633 214 648T197 682Q192 688 187 695T177 708Q172 715 166 722L145 713Q152 704 159 695Q165 687 171 679T182 662Q191 647 198 637T209 610Q211 603 211 596T210 581Q209 573 209 564Q196 567 183 570Q172 572 160 575T136 580Q123 583 114 584T92 588Q83 590
73 593T53 599Q42 602 32 605L27 583Q37 581 48 578Q57 576 68 574T88 569Q112 564 129 564T171 557Q179 555 189 552T207 546Q217 542 227 540ZM340 615Q332 653 310 674T265 706Q238 718 207 722Q207 720 213 709T226 681T241 645T251 610Q254 597 254 581T255
551T254 527T253 517Q259 511 264 507Q269 502 273 498T283 490Q288 485 294 480T306 470Q312 465 319 459Q320 460 326 468T339 496T347 544T340 615ZM373 69Q373 39 366 20T335 0Q315 0 310 17T305 58Q305 69 305 80T304 100Q303 108 300 114T289 122Q282 122
280 118T277 107Q276 102 277 95T278 79Q277 63 271 51T240 39Q230 39 223 47T210 65T202 83T199 94Q198 93 194 89T185 81T174 74T164 71Q152 71 145 80T133 101T129 128T129 152Q134 198 138 241T144 317Q147 356 148 390Q113 393 84 411Q59 427 38 461T11 561Q8
599 23 632T64 690T126 729T201 744Q243 745 274 732T327 694T360 639T373 571Q375 529 369 503T353 460Q342 442 329 433Q330 432 334 427T342 414T351 397T357 379Q360 351 362 330T366 288T368 246T367 198Q365 169 369 134T373 69Z" />
<glyph unicode=")" glyph-name="parenright" horiz-adv-x="945" d="M405 302Q373 303 344 296Q319 290 293 275T250 231Q233 200 219 157T194 75Q182 28 172 -20L206 -33Q211 4 218 40Q224 71 234 105T258 166Q287 220 319 243T378 272Q410 279 441 270L405 302ZM866
20Q866 34 848 39T809 45Q784 46 753 42V20H769Q776 20 785 19T804 16Q815 14 819 8T826 -6Q828 -14 826 -24Q837 -18 846 -11Q854 -5 860 3T866 20ZM504 477Q489 456 478 439T456 404T438 363T422 311L453 286Q461 321 467 344T481 386T501 426T532 474L504 477ZM875
46Q896 29 894 12T872 -21T820 -51T744 -75Q685 -89 617 -91T485 -93Q464 -93 434 -92T368 -88T294 -81T219 -69Q168 -59 124 -45T55 -17T30 12T65 38Q81 43 99 46T132 52Q150 55 167 56Q181 96 193 132Q204 163 215 194T236 243Q248 269 275 284T331 307Q364 317
402 320Q409 342 415 360T430 397T452 436T485 485Q463 490 447 496Q433 501 423 509T417 529Q421 540 434 540T462 535Q479 530 498 519Q503 542 511 560Q517 575 526 586T548 592Q554 589 559 583T569 571Q573 564 577 555Q583 561 590 565Q596 569 602 571T616
573Q625 571 628 562T634 541Q635 528 634 513Q640 512 645 510Q655 507 660 498Q663 490 656 486T639 479Q628 475 611 474Q617 460 621 447Q625 435 628 422T632 396Q632 369 623 350T602 317Q589 302 572 291L580 249Q600 251 619 252Q636 253 654 253T686 247Q709
239 722 211T743 150Q751 113 752 69Q776 71 799 69Q819 67 840 62T875 46Z" />
<glyph unicode="*" glyph-name="asterisk" horiz-adv-x="744" d="M240 243L218 116L265 93L268 247L240 243ZM177 339L167 315L204 270L238 313L177 339ZM359 195L340 168L390 134L395 152L359 195ZM211 459L70 443L97 411H252L211 459ZM445 191V172L471 116L527
93L445 191ZM263 470L231 525L222 472L265 418L263 470ZM311 533L247 538L278 477L329 463L311 533ZM569 307L556 304L587 251L590 266L569 307ZM375 663L325 540L352 463L404 625L375 663ZM516 538L452 504L468 454L531 500L516 538ZM681 409Q672 419 664 427Q657
434 652 440T645 447Q644 448 628 444T592 435Q569 429 541 422L534 404L681 409ZM585 312L618 220L536 225L563 70L464 103L429 163L406 106L327 156L278 65L200 104L227 241L200 245L148 312L159 343L90 379L47 452L206 479L225 552L309 556L372 691L420 638Q428
606 434 581Q439 560 444 543T450 525Q451 525 463 530T490 544Q507 552 529 563L547 488L541 441L656 470L706 395L585 312Z" />
<glyph unicode="+" glyph-name="plus" horiz-adv-x="612" d="M247 368L149 275L174 263L286 353L247 368ZM308 298L250 205L267 197L324 290L308 298ZM224 429L170 456L204 420Q217 406 227 395T238 385Q243 384 247 382Q251 380 256 379T267 375L297 365L224
429ZM209 516L173 468L228 441L256 485L209 516ZM397 651L304 477L342 450L448 612L397 651ZM558 556Q558 555 548 563T525 581L493 607L411 660L468 621Q493 603 513 589Q530 577 544 567T558 556ZM459 373L509 341L449 259L396 295L341 148L531 32L519 14L241
181L19 342L29 359L131 286Q141 296 157 311T191 340Q210 357 232 374L150 461L205 534L289 487L393 681L498 624L584 547L459 373Z" />
<glyph unicode="," glyph-name="comma" horiz-adv-x="603" d="M487 199H432H384L386 169L429 164L492 174L487 199ZM424 707Q394 723 357 725Q325 726 281 713T185 659Q165 644 151 622T126 575T108 523T96 469Q85 407 84 340L87 65L137 35Q135 88 133 143Q131
190 131 243T130 342Q130 415 133 461T149 540T184 596T248 647Q290 675 326 684T388 693Q419 692 444 682L424 707ZM323 473H298L301 459L336 454L323 473ZM316 511H296L297 493L318 491L316 511ZM346 513L331 511L336 476L349 465L346 513ZM485 315L547 91L341
70L328 10H137L67 48Q65 98 63 148Q61 191 61 239T62 330Q65 389 69 444T88 547T130 637T210 710Q246 733 284 738T355 742Q393 739 429 730Q438 721 449 711Q457 703 467 693T485 675Q493 664 502 652T520 627Q529 613 537 599L570 320L485 315Z" />
<glyph unicode="-" glyph-name="hyphen" horiz-adv-x="633" d="M130 108L105 118L102 110L132 67L144 80L130 108ZM390 57L378 41L399 38L409 57H390ZM233 349L208 205L148 115L165 84L236 199L269 384L233 349ZM374 143L333 188L314 176L358 119L395 72H416L374
143ZM278 549L234 518L198 473L149 414L86 364Q78 359 72 353Q67 348 63 342T57 329Q56 325 56 322T58 315Q60 312 63 311T68 307Q70 312 73 321T83 334Q92 340 99 344T113 354T128 367T147 386Q170 409 186 434T224 480Q239 494 252 504T285 524Q290 526 297 528T308
533L278 549ZM530 289L477 357L422 402V384L456 350L493 308L519 284L527 269L531 279L530 289ZM306 716Q305 716 298 717T282 715T263 701T244 669Q239 656 242 641T252 611T266 586T274 574L297 562Q293 570 286 592T280 642Q280 663 285 675T298 693T312 700T324
702L306 716ZM595 264Q590 257 582 254T564 248Q553 245 542 245L507 260L500 284L419 365L413 291L426 213L467 119Q471 110 475 100Q478 92 480 83T480 66Q475 46 461 34T427 19Q418 17 412 18T397 22Q394 23 388 23Q380 23 374 23T362 32Q358 39 360 48Q360
52 362 58L377 69L341 112L301 162L182 15L127 48L85 110L94 136L131 124L191 206L209 333L142 278Q132 274 122 271Q114 269 105 268T87 269Q79 271 75 274T63 283Q55 290 48 295T36 311Q28 329 38 343T61 368Q71 376 81 385T99 401Q114 412 127 421T151 448Q164
467 181 486T213 521T241 548T256 562Q254 566 246 582T230 620T222 663T232 702Q247 721 262 728T290 736T311 735T320 732L356 695Q364 681 371 665Q376 651 381 634T385 597Q385 586 385 574T387 550T390 530T392 519L500 443L592 328Q596 314 599 303Q601 292
601 282T595 264Z" />
<glyph unicode="." glyph-name="period" horiz-adv-x="903" d="M54 61L48 -22L83 -45L91 32L54 61ZM327 84L193 86H67L120 44H214L342 46L327 84ZM485 75L489 0L514 -30L520 32L485 75ZM768 90L677 84L594 94L503 96L536 48L621 55L719 51H810L768 90ZM365 -82H220L81
-80L19 -36L38 102L162 104L350 100L369 42L365 -82ZM750 -65L630 -69H522L466 0V53L464 117L549 121L679 106H793L837 49V-72L750 -65Z" />
<glyph unicode="/" glyph-name="slash" horiz-adv-x="1944" d="M204 160Q204 174 201 190T195 221T188 247T183 261Q180 259 173 253T157 234T142 202T134 156Q132 118 139 101T157 78T178 73T190 76Q190 78 192 87T197 108T201 134T204 160ZM244 373Q242 373
231 372T204 367T171 358T142 344Q122 330 110 318T87 282Q84 275 83 263T81 237T80 214T81 203L103 156Q104 162 106 174T112 200T124 230T141 257Q161 280 180 290T228 311Q238 314 250 316T275 320T296 322T310 323L244 373ZM575 444Q575 461 572 479T563 511T545
534T518 541Q509 540 499 531T480 508T465 477T459 443Q459 426 462 409T473 377T492 354T520 346Q536 347 546 356T563 379T572 410T575 444ZM706 688Q700 693 686 704T652 726T605 745T549 755T486 746T419 711Q384 685 360 653T318 586T291 519T276 460T269
416T267 396L319 350Q319 355 319 373T323 417T333 475T355 540T390 606T442 666Q478 698 519 707T599 714T666 702T706 688ZM660 458Q660 477 648 494T619 524T588 545T566 556Q569 551 574 539T586 511T598 478T604 447Q605 433 603 417T597 387T589 362T584
347Q588 348 600 353T626 372T650 405T660 458ZM924 304H852V268L969 260L924 304ZM960 678L957 538L955 409L944 317L984 280L991 444L1006 629L960 678ZM1568 91Q1566 90 1560 89T1550 82Q1547 77 1549 74T1553 68L1596 39Q1594 44 1591 56T1593 76Q1596 81 1601
85T1610 92L1568 91ZM1781 691L1697 692L1572 701L1359 699L1133 700L992 687L1030 639L1114 632L1248 630L1406 639L1552 652L1719 644L1830 648L1781 691ZM1881 79L1831 82L1724 68Q1724 65 1724 53T1719 26T1701 1T1663 -12Q1651 -13 1637 -9T1612 0Q1599 5
1586 13L1541 46Q1535 51 1531 55Q1527 59 1524 63T1521 71Q1520 78 1522 85T1527 96L1446 86L1372 82Q1358 81 1345 81T1321 80Q1309 79 1298 79Q1297 79 1279 76T1238 68L1178 58L965 62L705 46L564 45Q564 42 562 35T553 21T533 7T495 -1Q485 -1 474 3T454 13T437
24T429 30L313 33L198 44Q183 46 170 50Q159 53 147 57T126 70Q119 75 114 84T105 101Q101 111 96 120L63 187Q59 227 63 260Q66 289 75 316T108 355Q126 364 148 371T191 385T226 394T244 399Q244 404 248 433T264 504T296 593T350 682T430 750T541 779Q618 780
671 750T759 671T813 567T840 460T850 374T852 332L928 330L933 507L940 705L1230 726L1497 724L1787 715L1869 643L1881 516Q1881 467 1882 428Q1882 411 1882 396T1883 367T1884 346T1884 338L1881 79Z" />
<glyph unicode="0" glyph-name="zero" horiz-adv-x="924" d="M149 183L116 181V58L158 35L149 183ZM41 460V234L78 218L82 428L41 460ZM178 427H158L160 348L179 344L178 427ZM102 481H46L93 442L153 441L102 481ZM201 481L128 480L175 442L261 440L201 481ZM284
428H266L267 350L285 348L284 428ZM285 481L222 484L281 443L352 447L285 481ZM692 428Q692 416 688 401Q684 388 676 370T653 328Q639 307 614 290T562 262Q547 256 533 253T508 248Q495 246 483 245Q513 239 545 241Q572 243 605 250T669 280Q683 290 695 312T716
357Q727 383 736 414L692 428ZM676 444Q675 446 674 449Q673 452 671 460Q667 466 666 468T663 472T659 478T651 488Q625 507 597 512Q573 517 543 510T482 468Q463 446 454 417T442 360T445 308T459 271Q468 259 489 260T534 269T577 287T606 304Q628 321 641
342T662 384Q671 406 675 429L683 438L676 444ZM491 705Q471 705 449 701Q430 697 408 689T363 664Q327 635 311 606T290 552Q285 524 290 497L350 464Q352 496 359 526Q365 552 377 579T413 627Q433 644 464 653T525 667Q559 671 595 672L491 705ZM731 430L674
476Q676 472 678 468Q682 459 686 453L691 443L736 426L731 430ZM864 383Q862 393 860 403T853 421T842 433T826 436Q821 435 816 432T806 424Q801 419 797 413L803 328L859 309Q861 323 863 336Q865 347 865 359T864 383ZM763 592Q754 582 748 571T737 548L773
503Q784 514 793 518T818 522L763 592ZM876 382Q875 372 875 361T874 340Q873 329 873 318L870 302L867 287Q862 261 848 235Q836 213 814 189T754 147Q716 128 667 120T573 107Q521 103 468 104L470 14L170 8L98 44L94 184L22 223L28 495L271 500Q269 535 278
568Q286 597 304 628T359 684Q373 693 394 700T438 712Q463 717 491 722L573 699L632 672L746 620L761 611L774 604L835 516Q837 510 840 505Q845 493 848 483Q849 476 849 471T849 461Q849 456 848 451Q856 437 862 424Q867 413 871 402T876 382Z" />
<glyph unicode="1" glyph-name="one" horiz-adv-x="816" d="M235 172L178 56L231 29L289 177L235 172ZM469 594L56 250L91 213L507 561L469 594ZM701 732H558L411 725L432 676L731 684L701 732ZM739 473L730 313L712 315L647 408L472 212L233 1L152 52L214 170L79
179L23 253L461 619L411 663L379 741L720 754L770 687L739 473Z" />
<glyph unicode="2" glyph-name="two" horiz-adv-x="553" d="M88 92L45 103L99 31L146 17L88 92ZM180 327L52 126L88 120L145 201L215 298L180 327ZM278 321L241 305L270 264L318 287L278 321ZM289 419L257 415Q256 409 256 396T254 375Q266 373 279 373T298 374L289
419ZM250 450L193 451Q195 449 198 447T205 441L212 434Q221 434 230 434T247 436L274 437L250 450ZM311 607Q306 601 291 583T257 544T221 502T195 473L243 472L352 585L311 607ZM325 648L291 664L314 627L353 604L325 648ZM486 512L458 533Q457 533 454 530T449
524L486 512ZM467 701L302 679Q309 676 317 671T332 664Q339 665 360 668T406 674T453 680T487 684L467 701ZM264 114L178 -10L83 12L16 113L178 359L224 325Q227 326 236 329T255 335T272 341T281 343Q281 342 292 333T317 314T342 294T354 284L264 114ZM520 484L433
511L309 355H236L238 412L199 416L155 463L296 618L260 692L475 720L522 675L520 484Z" />
<glyph unicode="3" glyph-name="three" horiz-adv-x="593" d="M141 310L57 345L83 287L190 232L141 310ZM192 485V645L160 683L158 493L153 334L199 252L192 485ZM498 365L430 314L435 254L545 325L498 365ZM353 720L269 616L301 581L386 682L353 720ZM471 156L367
0H321L188 121L71 262L22 379L133 330L138 515L149 735L254 630L357 744L427 696V478V346L495 394L574 321L471 156Z" />
<glyph unicode="4" glyph-name="four" horiz-adv-x="781" d="M141 450L86 395Q66 374 49 357T32 339Q32 338 36 334T47 324Q54 318 63 309L183 409L141 450ZM309 194L274 191Q283 179 291 170Q297 162 302 156T309 150H318Q322 150 327 150T337 151L365 153L309
194ZM372 274L319 277V206L374 165L372 274ZM300 421L252 415Q234 413 219 411T202 409Q200 409 202 403T206 389L212 369L353 385L300 421ZM517 188L484 190L483 138H558L517 188ZM316 577L313 433L356 403L357 575L316 577ZM616 303L587 298L585 279L620 250L616
303ZM555 442L483 436V413L596 407L555 442ZM383 723L262 629L304 598L413 693L383 723ZM601 457L557 493L558 456L602 419L601 457ZM631 229L572 271L573 301L480 295L483 203L520 202L576 135L446 -5L300 132L248 200L301 206L303 274L217 277L205 202L64 283L5
341L141 474L194 422L298 434L304 578L236 626L384 743L434 700L536 584L480 580L481 453L542 456V522L767 356L631 229Z" />
<glyph unicode="5" glyph-name="five" horiz-adv-x="1298" d="M231 543Q221 542 212 541Q204 540 196 540T179 537Q170 535 159 533T137 528T121 522T117 515Q119 509 125 508T140 506T157 508T176 509Q184 509 193 509T210 510Q219 511 228 512L231 543ZM616
119Q610 150 596 172T558 213L540 203L550 188Q555 181 559 174T567 160Q577 143 585 135T601 123Q609 119 616 119ZM561 281Q559 288 553 292T538 298Q529 301 518 302Q515 301 512 296T505 283T502 267T506 253Q510 248 516 244T529 239T540 238T547 247Q551
266 554 271T560 277T562 277T561 281ZM472 429Q471 400 484 377T512 339Q512 344 511 354T511 377T515 405T524 435L472 429ZM1190 672Q1138 674 1084 675Q1038 676 983 675T878 670Q848 668 834 671T804 678T760 684T675 682Q638 679 575 676T444 666Q405 663
374 661T312 655T250 647T179 635Q150 629 128 619T89 599Q71 588 56 574L86 527Q102 534 118 540Q132 545 147 550T176 561Q203 569 226 573T271 580T316 585T367 592Q398 596 423 600T473 607T523 614T580 620Q615 623 644 625T700 628T756 630T820 632Q854 633
881 633T935 632T988 632T1049 632Q1072 632 1100 633T1153 635Q1181 636 1209 638L1190 672ZM1237 459L1231 160L1086 157L934 154Q944 139 949 125Q954 113 954 100T947 77Q943 73 931 66T901 52T863 39T823 31Q794 27 760 34T697 52Q663 63 629 80Q615 86 602
94Q591 100 579 108T558 126Q548 136 540 149T526 176Q519 191 512 207Q504 219 497 231Q491 242 486 254T478 277Q476 285 476 295T478 313Q479 323 481 333L444 429Q419 427 393 425Q371 423 346 423T299 422Q276 422 250 422T202 423T162 426T139 432Q131 437
123 444T108 457Q100 464 92 472L31 580Q50 599 70 614Q87 627 107 638T148 654Q178 659 202 661T248 665T293 668T345 672Q382 675 412 678T472 685T531 690T598 694Q630 695 652 699T696 705T745 706T817 694Q844 688 866 688T909 690T952 696T1002 700Q1031
700 1066 700T1132 699Q1167 698 1203 697L1252 623L1237 459Z" />
<glyph unicode="6" glyph-name="six" horiz-adv-x="1228" d="M126 677Q122 653 118 629Q115 609 112 585T107 541Q104 510 103 485T101 436T99 387T96 331Q94 301 91 266T85 199Q81 163 78 127L139 100Q141 140 144 180Q146 215 148 254T153 327Q154 354 154 376T155
419T156 462T162 511Q164 528 168 547T176 583Q180 602 185 622L126 677ZM1064 697Q1041 699 1018 701Q998 703 976 704T935 707Q904 708 879 708T830 709T781 708T726 707Q692 708 664 709T610 712T556 715T494 716Q442 716 382 714T270 708Q209 704 148 700L207
638Q223 643 241 647Q256 651 273 654T305 657Q332 657 371 651T455 641Q481 639 503 638T546 637T588 637T637 636Q671 636 709 636T788 636T867 637T943 639Q1027 641 1112 643L1064 697ZM1119 574Q1112 570 1104 566Q1097 563 1090 560T1075 555Q1067 553 1060
553T1044 555Q1035 556 1027 558L1021 612H1018H992L1002 529Q1015 528 1028 528Q1039 528 1051 529T1075 533Q1083 535 1092 538T1110 546Q1120 550 1129 555L1119 574ZM1183 572Q1184 554 1179 540T1164 514T1141 492T1114 470Q1097 458 1075 451T1032 439Q1008
434 983 432H744Q744 427 745 422Q746 417 746 413T746 404Q745 398 742 392T736 381Q732 375 728 370Q737 358 743 347Q748 337 752 326T755 304Q753 294 746 286T731 271Q722 263 712 256Q716 237 718 219Q720 203 720 185T717 152Q708 114 690 90T639 43Q615
26 587 17T532 6T480 6T439 15Q428 19 417 27T398 45Q388 56 380 68Q374 66 368 65Q363 63 357 63T346 61Q317 56 283 55T220 56Q186 58 151 61L46 118L64 281L85 543L107 718L135 725Q147 728 161 731T187 736Q208 740 225 741T260 743T295 743T335 743Q379 744
415 743T485 739T556 735T637 732Q681 731 717 731T787 732T858 732T939 729Q959 727 983 726T1029 722Q1054 720 1078 718L1149 645Q1158 632 1165 620Q1171 609 1176 596T1183 572Z" />
<glyph unicode="7" glyph-name="seven" horiz-adv-x="597" d="M92 183L57 208L61 75L93 42L92 183ZM111 479Q108 478 100 474T82 457T62 421T45 360Q42 343 43 322T47 282T53 249T57 232L91 208Q89 215 84 232T76 270T70 313T72 353Q77 375 86 390T105 416T124
430T136 437L111 479ZM232 501Q224 505 216 508Q200 513 188 512Q169 508 160 493T145 461L173 416Q174 424 179 441T195 470Q206 481 223 480T248 476L232 501ZM322 732Q315 734 308 734Q302 734 295 732T282 725Q272 716 267 700T260 668Q258 660 258 653T258
641V630L253 506L277 465L288 627Q288 637 290 648Q292 657 294 667T299 686Q302 694 309 698T323 706T338 710T351 711L322 732ZM456 516Q454 517 446 520T432 521Q427 520 421 517T413 511L411 477Q416 482 424 488T441 495Q449 495 457 492T471 487L456 516ZM584
280Q584 252 574 232T548 198T512 174T475 159T444 152T427 149L430 8H103L45 63L42 222Q37 237 33 255Q30 271 28 293T28 342Q30 369 33 390T43 429T62 461T92 489Q99 495 105 495T117 493T125 488T131 481Q132 485 136 493T146 509T163 524T189 531Q202 532 217
526T237 518L242 646Q243 671 248 691Q253 708 263 724T293 748Q306 752 317 750T338 742Q349 737 357 728Q371 720 382 709Q392 699 399 686T409 654Q410 639 410 620T411 584T412 553T413 534Q418 536 429 538T452 536Q471 530 481 506T494 455T498 404T497 374Q501
373 515 369T544 355T572 327T584 280Z" />
<glyph unicode="8" glyph-name="eight" horiz-adv-x="831" d="M203 82Q201 90 198 113T189 153Q184 173 176 184T159 202T143 210T132 212Q134 206 139 189T149 156Q154 142 158 125T164 104L203 82ZM139 633Q136 631 124 623T104 607Q90 592 85 577T78 545Q76
528 77 510T77 472Q75 454 73 444T67 421Q65 410 63 393T63 344Q65 314 71 295T85 262T103 242T124 231Q119 241 115 263T107 315T104 376T105 437Q107 463 109 490T116 540Q121 564 128 582T146 609Q153 614 161 615T175 615L139 633ZM274 657Q272 654 267 644T256
621T245 592T238 563Q235 536 234 522T231 496Q229 485 228 475T222 447Q220 437 216 429T206 412Q198 397 204 391T222 387T243 404T254 440Q254 467 260 498T265 564Q265 578 269 591T279 616T290 635T299 646L274 657ZM436 666Q435 666 431 664T421 655T409
632T397 588Q394 574 394 563T394 540Q395 529 396 517T395 491Q394 467 384 437Q379 423 375 410T366 384Q358 358 357 343T366 326Q376 326 384 342T399 383T410 438T417 494Q418 508 416 520T412 545Q410 557 409 569T413 596Q421 626 435 640T459 659L436 666ZM763
431Q758 433 746 439T726 450Q721 453 714 443T698 417Q689 400 680 382T664 351Q655 335 643 327T620 313Q611 309 604 307T596 303Q597 297 600 294T609 287Q625 277 645 287T676 314Q686 330 700 353T726 393Q740 410 749 419T763 431ZM585 664Q583 662 578
656T567 640T556 620T549 599Q546 578 544 563T541 534T538 506T533 474Q530 456 521 436T503 398Q495 379 494 369T503 356Q515 354 523 363T536 388Q542 404 546 422T555 457Q560 472 561 484T564 510Q565 522 565 535T567 566Q570 593 575 609T587 635T600 648T612
653L585 664ZM796 429Q794 405 790 380Q786 359 780 336T765 295Q754 275 743 260T720 231T692 207T657 183Q641 173 620 165T579 150T544 141T525 136V53Q497 44 470 37Q447 31 420 26T370 21Q348 20 324 23T277 32Q251 37 227 44L148 91L116 217Q113 218 102
224T79 245T57 282T47 340Q46 373 49 400T56 452T63 504T65 559Q64 579 76 596T102 627Q119 642 140 653Q157 643 171 635Q183 628 193 621T203 612Q203 602 206 583T207 538Q205 517 204 493T203 452Q206 470 211 500T219 555Q220 570 225 589T238 625T254 656T269
674L322 655Q322 655 326 652T335 640T345 620T352 588Q353 572 356 547T360 495Q361 466 359 440T354 398Q360 415 368 443T377 492Q377 496 377 515T379 558T382 602T388 631Q392 639 399 648T413 665Q421 674 430 683L478 669Q478 669 482 666T492 651T500 619T502
564Q501 549 499 533T494 497T489 452T485 393Q488 401 493 416T506 449Q513 467 517 487T523 525Q526 544 527 559T530 585Q533 607 541 625T558 655Q568 669 580 680L631 662Q631 661 640 651T656 617Q660 600 659 575T655 518Q652 490 646 460T632 403T619 357T610
330Q616 332 631 343T661 378Q669 391 674 405T687 433Q694 446 703 455T729 466Q732 466 742 460T765 447Q779 439 796 429Z" />
<glyph unicode="9" glyph-name="nine" horiz-adv-x="908" d="M240 118L163 136L172 56L246 27L240 118ZM123 262L56 286L157 159L240 136L123 262ZM114 570L59 598L50 313L121 287L114 570ZM114 669L66 616L122 590L173 641L114 669ZM274 589H261L266 499L280
496L274 589ZM255 685L213 639L268 593L316 642L255 685ZM435 602H422L427 512L441 509L435 602ZM415 694L353 649L428 604L484 654L415 694ZM591 608H577L583 518L596 515L591 608ZM722 417L708 509L697 515L708 408L771 387L787 395L722 417ZM567 694L523 656L582
611L638 639L567 694ZM823 555L690 607L708 582L705 545L871 480L823 555ZM879 298L763 213L744 0L258 -3L156 42L144 141L26 292L41 615L111 690L187 655L252 712L331 666L415 718L499 669L567 718L678 629L834 567L894 485L879 298Z" />
<glyph unicode=":" glyph-name="colon" horiz-adv-x="579" d="M236 402Q218 372 201 341Q186 315 170 285T140 228Q120 191 111 161T99 110T96 76T97 62Q110 90 123 119Q134 144 147 172T173 224Q184 248 199 276T227 328Q242 356 257 385L236 402ZM383 731Q350
705 323 677Q300 653 278 623T246 563Q240 544 239 521T238 478Q239 454 241 430L264 416Q265 448 269 480Q273 507 279 537T299 591Q310 611 327 631T362 668Q382 687 404 705L383 731ZM494 693Q482 676 470 659Q459 644 448 627T428 595Q419 579 410 561T393
525Q384 506 376 486Q396 507 415 528Q431 546 448 567T479 609Q485 618 491 629T503 651Q509 662 516 675L494 693ZM549 691Q548 667 545 643Q543 623 539 600T530 558Q524 538 519 522T508 491T492 462T470 432Q456 415 435 402T394 377Q371 365 346 355L264
182L146 0L89 38Q86 47 84 56Q82 64 81 72T78 89Q76 114 80 134T91 173T109 211T129 255Q140 281 155 311T186 368Q204 398 222 427Q220 458 220 489Q220 515 223 545T236 598Q248 627 273 655T324 706Q354 732 388 754L428 705Q425 692 421 679Q418 668 414 656T405
634Q395 615 390 599T381 570Q377 555 376 542L423 626L494 719L549 691Z" />
<glyph unicode=";" glyph-name="semicolon" horiz-adv-x="2016" d="M110 509L60 552Q55 497 51 454Q49 436 48 418T46 386T44 363T43 353Q43 351 53 338T76 310Q91 292 110 271V509ZM1500 649L1209 638L902 611L639 589L448 585Q411 587 364 587T272 588Q221 588
169 589Q91 587 64 586Q66 584 75 578T93 563Q104 554 116 544L316 540L684 551L1000 577L1319 585L1529 608L1500 649ZM1712 257Q1705 254 1699 252Q1694 250 1689 249T1681 248Q1675 250 1670 251T1661 255Q1657 257 1652 259L1646 236Q1655 233 1665 230Q1673
228 1682 226T1700 225Q1707 225 1714 227T1729 233Q1737 237 1744 240L1712 257ZM1664 373L1652 282L1673 271L1691 273L1700 365L1664 373ZM1779 309Q1776 320 1767 328T1749 342Q1738 348 1725 353L1714 273L1756 255Q1766 262 1772 270Q1777 277 1780 286T1779
309ZM1827 732Q1799 723 1773 712Q1750 703 1724 692T1678 668Q1663 659 1646 646T1615 621Q1605 612 1600 607T1591 600T1586 595T1580 590Q1582 584 1586 575T1596 556Q1601 545 1608 535Q1663 587 1721 627T1848 699L1827 732ZM1968 206Q1954 156 1931 134T1885
103Q1859 94 1829 100Q1829 99 1819 85T1791 52T1753 19T1709 0Q1694 -2 1679 3T1648 17T1619 40T1591 67Q1560 100 1532 142L1049 168L580 199L110 238L25 331L44 611L286 622L485 604L827 630L1184 665L1506 680L1574 614Q1575 615 1584 625T1607 650T1639 680T1673
706Q1692 718 1717 726T1764 741T1804 750T1825 754L1880 702L1936 614L1823 504Q1823 503 1836 489T1868 452T1908 399T1945 336T1968 270T1968 206Z" />
<glyph unicode="&lt;" glyph-name="less" horiz-adv-x="1955" d="M315 371Q285 361 256 351Q231 343 203 335T153 321Q109 311 89 286T62 235Q54 204 59 167L110 132Q110 135 108 146T105 174T105 206T114 235Q122 250 133 258T157 271Q170 276 184 280T215 291Q237
300 268 306T327 318Q360 323 394 327L315 371ZM1049 311Q1048 312 1041 320T1018 340T975 363T908 381T811 388T680 377Q648 372 612 361T542 332Q522 322 505 311T473 289Q457 278 444 266L442 244H453Q458 244 464 244T477 245Q492 245 512 246Q552 266 590
283Q606 290 623 297T656 311T687 322T713 329Q760 337 818 336T926 329T1012 317T1049 311ZM1751 404Q1745 400 1739 396Q1734 392 1728 388T1716 379Q1705 368 1697 357T1687 336Q1685 327 1687 311T1687 283Q1685 267 1687 256T1690 237L1563 242L1411 240L1217
233Q1238 221 1259 210Q1277 201 1297 194T1334 186Q1529 180 1724 180Q1724 181 1724 192T1726 220T1731 255T1741 288Q1747 301 1757 315T1777 341T1796 361T1805 369L1751 404ZM1913 166Q1913 123 1895 96T1848 54T1781 33T1705 26T1630 25T1566 25Q1357 16
1147 8T727 0Q725 0 710 6T672 21T623 41T571 62T526 80T496 91Q454 76 410 64T320 52Q272 52 237 58T172 77T112 110T43 157L41 186Q36 245 62 279T130 335T223 368T319 396L435 325L442 294Q492 327 539 350T634 388T733 408T845 415Q889 415 936 398T1031 355T1122
302T1205 253L1668 263V355Q1674 363 1684 374T1705 397T1728 415T1751 423Q1785 423 1814 393T1866 322T1900 237T1913 166Z" />
<glyph unicode="=" glyph-name="equal" horiz-adv-x="587" d="M142 298L41 107L61 73L180 264L142 298ZM314 510L257 387L191 281L224 238Q243 269 258 295Q271 316 281 334T292 353Q292 354 303 370T328 406Q344 429 365 458L314 510ZM520 649L437 572L368 483L403
449L542 627L520 649ZM501 431L417 262L368 310L310 191L244 66L207 116L64 34L16 105L141 330L175 294L248 410L319 547L355 494L426 581L513 677L577 640L501 431Z" />
<glyph unicode="&gt;" glyph-name="greater" horiz-adv-x="704" d="M374 715Q366 721 358 725Q343 734 329 732Q321 730 314 725T301 713Q294 706 288 697Q289 658 286 622Q284 591 279 559T263 503Q255 486 246 472T228 443Q214 423 201 405T174 368T150 328T128
280Q118 254 108 218T89 146Q78 106 69 63L104 28Q107 77 117 125Q125 166 139 210T176 288Q195 315 204 331T223 365Q232 381 246 400T289 454Q305 473 313 495T325 542T328 593T325 647Q324 659 331 671T348 692T365 708T374 715ZM580 36Q580 49 579 61Q578 72
578 84T575 106Q570 136 563 160T545 205T519 246T481 287Q464 304 447 330T417 382Q401 412 388 444L372 409Q375 388 384 366Q392 347 405 324T440 276Q454 261 474 244T512 211Q529 196 534 172T542 128Q546 95 552 77T564 49T574 38T580 36ZM650 39Q649 38
646 34T637 25T626 16T613 10Q602 8 589 10T574 14L544 38Q544 40 542 49T537 71T530 98T519 124Q510 143 510 159T497 186Q485 198 469 215T437 249Q421 264 406 287T379 333Q365 359 353 387Q353 387 342 369T313 326T276 273T237 225Q224 211 217 195T207 162T202
126T199 90Q196 55 186 30T141 0Q130 -2 117 -1T102 0L56 49Q56 53 60 80T73 145T93 225T121 301Q136 333 148 356T174 399T204 441T241 493Q247 502 251 520T259 560T263 605T265 648T266 681T266 696Q266 697 270 706T282 726T300 745T325 754Q331 754 336 752T347
748Q352 745 357 742L405 708Q406 706 409 695T418 669T430 637T441 605Q451 579 457 558T471 517T489 478T518 435Q539 407 557 384T589 338Q604 315 616 289T637 229Q644 203 647 171T650 111T651 62T650 39Z" />
<glyph unicode="?" glyph-name="question" horiz-adv-x="537" d="M102 326L64 377L68 273L47 101L92 44L102 235V326ZM223 233L214 157L212 78L242 58L247 137L250 230L223 233ZM389 228H372L367 149L366 68L397 44L389 228ZM293 400L76 406L123 345L223 350L364
335L293 400ZM381 720L367 637L347 505L331 400L381 345L407 541L419 682L381 720ZM453 749L395 739L439 694L482 706L453 749ZM512 699Q512 699 511 692T510 671T508 642T506 610Q503 571 501 522L496 223L479 15L395 11L350 68L345 149L352 230L335 235L331 123L326
20L252 23L192 63V158L202 230L183 225L171 140L166 0H97L25 90L49 276L52 428L312 419L338 541L355 651L364 756L462 766L488 732Q498 719 505 709T512 699Z" />
<glyph unicode="@" glyph-name="at" horiz-adv-x="611" d="M207 279Q189 265 171 251Q156 239 139 224T110 195Q97 181 85 164T62 129Q50 110 38 90L57 78Q70 94 83 110Q94 124 106 139T130 168Q143 183 158 200T188 234Q204 252 220 270L207 279ZM535 664Q516
675 488 669Q464 664 426 642T334 565Q317 548 304 533T281 501T262 467T244 426Q237 408 232 385T224 341T220 308T218 294Q227 287 230 285T236 283Q238 283 237 285Q243 324 254 363Q263 395 276 431T308 495Q322 515 334 531T361 560T391 586T428 612Q443 622
461 631T497 648Q516 657 535 664ZM573 669Q586 654 585 634T574 590T549 544T517 499Q503 480 491 465T467 436T443 406T415 372Q398 352 380 329T344 286Q325 262 305 239Q291 214 276 189Q263 168 249 144T220 100Q206 80 189 60T153 26T115 9T76 20Q71 24 67
30T58 41Q54 47 49 54L19 90Q30 110 41 129Q51 146 63 163T88 195Q102 212 122 230T160 262Q181 279 203 295Q202 326 206 356Q209 382 216 410T237 458Q264 498 285 528T325 580T358 617T390 643Q412 658 439 669T491 684T538 686T573 669Z" />
<glyph unicode="A" glyph-name="A" horiz-adv-x="957" d="M297 244L276 245L392 58L425 47L297 244ZM263 453Q259 453 243 452T206 448T161 441T120 433Q97 428 81 417T57 386Q51 372 51 362T54 345T61 334T68 327Q68 333 70 347T82 376T112 403T171 418Q185 419
202 420T234 423T262 425T279 426L263 453ZM403 718Q379 672 347 604T281 461L291 445Q294 452 304 473T328 522T357 582T386 642T410 693T425 723L403 718ZM776 436Q679 435 601 429T476 418L477 399Q515 397 550 396T624 395T705 397T803 405L776 436ZM857 517L791
441L817 419Q829 437 844 457T880 500L857 517ZM920 491Q925 483 925 472T924 451Q922 440 918 427Q904 384 893 351Q883 322 874 298T859 272Q851 269 833 264T790 254T738 245T684 237Q660 234 632 234T579 233T534 235T507 236L559 140Q571 112 573 86Q575 63
566 40T525 0Q514 -5 500 -5T472 0Q457 4 441 11Q424 20 410 28Q398 34 388 39T377 45Q376 45 368 59T346 95T318 142T289 190T266 229T254 249L180 251Q132 266 97 285Q82 293 68 303T44 324T30 348T28 375Q32 393 42 407T65 432T92 449T120 457Q146 460 170 462T213
466T246 469T263 471L350 664Q361 693 379 715Q394 733 417 746T472 754Q506 747 520 728T537 687Q541 662 533 632L481 441L670 453L776 455L827 507Q835 517 841 524Q846 530 851 535T859 539Q865 535 871 532T882 524Q888 520 894 515Q895 513 905 506T920 491Z"
/>
<glyph unicode="B" glyph-name="B" horiz-adv-x="979" d="M127 555Q127 555 122 557T111 563T99 571T89 580Q86 583 82 593T72 614T63 634T58 647L61 125L126 56L127 555ZM394 200L370 209H340L316 203L268 197L233 203L236 182L271 179H304L325 185L423 168L431
203L394 200ZM410 322Q408 327 406 338T402 351Q401 352 396 353T385 355T374 356T367 357L331 351L287 349Q270 348 256 348T241 348Q239 348 230 350T217 354L204 327L229 330L310 333L376 336L410 322ZM424 436Q421 440 416 446T409 453H331L286 456L256 447H228L200
459L197 441L226 426H271L322 432L385 441L424 436ZM482 643L86 652Q85 650 85 635T101 601Q113 586 127 579Q134 575 142 573Q170 569 200 566Q226 563 256 561T316 559Q345 559 378 561T441 566Q474 570 507 574L482 643ZM844 204L827 206L764 200H676L606 221L603
185L674 176L719 179H755L809 167L844 176V204ZM832 345H791Q789 345 785 344T775 342Q769 340 761 339L701 342Q691 341 682 341Q674 341 667 341T658 342Q656 343 651 342T641 339T631 336T624 333L618 303L652 306L673 315H716L821 321H843L832 345ZM830 438L758
420L719 417L646 426L620 432L607 414L647 408L698 396L770 399L818 414L853 405L861 424L830 438ZM867 646L501 643L525 574Q565 566 603 561Q635 556 669 552T728 550Q757 551 790 555T853 565Q886 570 920 577L867 646ZM946 67Q943 65 930 57T894 41T838 26T764
20Q719 21 675 26T595 36Q553 42 514 50Q479 40 443 32Q412 25 376 20T307 14Q275 14 245 15T190 19T149 24T130 26L40 100L41 667L493 664L874 667L948 561L946 67Z" />
<glyph unicode="C" glyph-name="C" horiz-adv-x="711" d="M274 516Q251 508 229 497Q210 487 190 471T152 433Q136 411 121 389T93 342T74 291T69 236Q70 216 76 196T89 159Q97 140 106 122Q120 114 132 107Q143 101 153 95T168 87Q160 94 149 106T127 136T110
182T104 246Q104 269 109 288T123 324Q131 341 141 358T162 398Q172 418 192 436T233 468T273 491T298 504L274 516ZM515 271Q512 269 504 263T480 249T439 230T378 210Q337 199 308 209T255 234Q246 239 236 245T215 255Q207 257 200 256T184 246Q166 226 167
211T181 181Q193 167 211 155T246 131Q270 113 296 108T348 106T401 121T450 148Q485 171 500 191T519 228T520 256T515 271ZM265 389Q266 400 261 410T245 421Q242 421 237 419T226 412T218 401T214 389Q215 379 221 370T238 363Q246 365 254 371T265 389ZM347
270Q355 290 356 308T344 350Q342 350 335 350T318 347T302 338T291 321Q288 309 295 300T312 284T333 275T347 270ZM409 325Q408 333 402 338T389 345T374 349T363 351Q374 331 377 316T370 276Q374 279 381 285T394 297T405 311T409 325ZM543 280Q544 274 545
255T542 219Q539 207 532 196T515 175T496 156T478 141Q496 152 520 170T556 210Q560 219 563 229T569 250T573 269T575 281L543 280ZM357 431Q359 442 351 448T333 457Q325 459 318 455T304 444Q297 437 290 428Q294 415 306 412T329 411Q339 413 347 416T357
431ZM467 402Q467 409 463 414T453 424T441 431T432 432Q423 430 421 421T419 403Q420 392 426 384T444 375Q455 375 460 383T467 402ZM418 522H349L341 502L423 496L418 522ZM347 661L285 533L313 514L369 655L347 661ZM404 567L359 570L351 545L414 542L404 567ZM385
631L373 602L396 601L385 631ZM358 735Q357 735 355 732T349 724T342 715T338 709Q336 705 336 700T339 689Q341 683 344 676L367 671Q364 677 361 683Q356 695 357 703Q358 708 367 718T379 730L358 735ZM637 355Q655 315 659 274T654 194T622 122T564 66Q530
44 496 37Q461 30 419 26T335 23Q300 24 269 32T215 50Q188 61 164 74L98 107Q92 115 87 123Q82 130 77 138T68 157Q40 223 50 281T101 396Q132 440 160 466T210 506T246 524T263 529L333 667L322 681Q322 690 323 698Q324 705 325 712T331 725Q338 734 347 740Q352
744 358 747L394 741Q404 732 412 724Q419 716 424 709T429 693Q429 680 419 668T405 653L454 489Q458 487 482 477T536 450T594 408T637 355Z" />
<glyph unicode="D" glyph-name="D" horiz-adv-x="682" d="M126 246L32 243L55 198H183L126 246ZM160 339H84L121 291L223 273L160 339ZM226 417L120 422L142 384L264 359L226 417ZM249 533L169 530L207 484L297 461L249 533ZM590 186L535 142L619 165L590 186ZM589
293L517 225L590 234L626 244L589 293ZM300 614L223 608L253 562L344 550L300 614ZM581 381L520 335L598 338L620 350L581 381ZM372 694L264 712L303 655L399 620L372 694ZM583 472L517 419L590 420L620 444L583 472ZM566 535L512 488L568 490L598 506L566 535ZM559
611L509 590L490 560L581 574L559 611ZM496 732L392 697L422 620L532 664L496 732ZM450 26Q437 18 424 12Q413 7 400 3T375 -2Q361 -3 345 2T315 15Q299 23 284 34Q269 44 252 55Q238 64 221 75T186 99Q166 112 142 127T95 155Q69 170 43 184L11 250L114 259L63
353L139 357L99 432L220 434L145 541L241 550L196 620L294 628L235 730L381 711L502 747L554 658L517 605L563 628L602 574L580 542L619 505L596 484L640 443L593 393L640 351L601 306L649 241L598 196L650 157L450 26Z" />
<glyph unicode="E" glyph-name="E" horiz-adv-x="778" d="M308 298Q305 285 295 274Q287 264 271 253T228 233Q214 228 205 228T186 227T166 220T135 200Q115 185 101 161T76 114Q65 87 57 58L99 40Q103 63 109 85Q114 104 122 124T142 160Q157 179 172 191T205
211T243 226T286 238Q322 248 338 258T360 278Q366 289 361 298H308ZM203 463L180 458L161 454L168 478L183 509L171 515L155 484L137 460L105 496L98 488L128 448L89 445L86 431L125 427L107 389L120 380L147 430L186 373L200 380L177 416L162 439L185 445L203
449V463ZM361 368Q356 372 354 377T346 380Q340 379 340 373T338 362L361 368ZM325 401Q328 406 326 411T319 422Q314 427 310 431T299 434Q291 432 292 423T299 407Q304 401 312 398T325 401ZM292 469Q300 471 296 479T289 496Q286 502 283 508T273 512Q265 511
267 502T273 485Q277 479 280 473T292 469ZM183 681L153 642L132 687L117 681L137 640H102L101 624L140 622L104 591L116 580L147 607L156 568L173 570L161 616L191 607L197 618L168 631L198 670L183 681ZM507 368Q509 373 509 378T504 386Q499 388 495 386T488
379Q486 374 487 368T493 361Q498 359 501 361T507 368ZM316 600Q310 602 307 598T299 588Q294 581 291 572T296 561Q303 559 306 565T313 577Q315 583 318 590T316 600ZM550 454Q542 455 539 450T531 437Q526 430 521 421T523 410Q529 409 532 413T540 422Q543
426 547 431T553 441T555 449T550 454ZM424 637Q425 642 422 643T414 645T403 644T391 642Q383 640 374 638T367 627Q368 622 371 620T380 616Q387 615 390 620T398 628Q406 632 414 631T424 637ZM567 527Q567 538 566 549T555 561Q550 561 548 558T546 549T545
537T546 526Q545 516 543 507T549 493Q554 490 557 493T563 501T566 514T567 527ZM721 434L673 437L701 489L684 497L653 446L629 501L609 495L641 435H590V417L644 419L608 379L623 369L659 405L698 367L710 381L673 416H721V434ZM528 594Q532 597 531 600T526
608T516 617T505 624Q497 629 489 633T475 631Q472 627 473 624T479 618T489 613T499 607Q507 602 513 596T528 594ZM435 742L462 777L452 787L422 754L404 796L387 790L405 747L368 760L362 750L396 729L362 706L369 692L416 722L437 685L450 694L429 729L471
715L479 729L435 742ZM691 671L649 674L676 703L662 715L626 679L598 710L586 700L611 670H568L569 652L611 655L587 623L599 614L629 650L656 613L668 620L646 656L691 655V671ZM617 304L496 307L495 272L516 247Q539 239 559 230Q576 222 594 214T622 199Q646
180 658 146T676 78Q682 38 682 -6Q636 -13 587 -18Q545 -23 494 -27T393 -30Q351 -30 302 -23T210 -8Q160 2 111 13L39 49Q48 83 61 115Q72 142 88 169T127 214Q153 234 172 239T208 247T239 252T268 271Q275 278 280 288Q283 292 285 298L54 304L47 828L180 825Q190
826 206 826T240 827T273 828T298 825L420 834L532 825L629 828L739 825L748 309L617 304Z" />
<glyph unicode="F" glyph-name="F" horiz-adv-x="484" d="M148 276L142 266L129 262L248 26L264 18L148 276ZM312 168L276 230L303 261L317 279Q314 277 310 275Q307 273 304 271T298 268Q296 267 293 267T287 265Q283 264 281 264L265 246L251 265Q248 264 244
266T235 271Q230 274 225 277L249 240L210 196L218 179L258 217L299 157L246 117L258 101L290 126L313 142L321 127Q323 130 326 134Q332 142 332 143L327 148L322 156L342 171L354 193L312 168ZM110 489Q106 487 94 482T67 465T41 437T29 396Q29 379 33 363T39
344L64 320Q62 327 59 340T55 369T54 400T64 428Q70 439 80 445T99 453T117 456T131 456L110 489ZM405 383Q388 380 372 376Q358 373 343 370T313 364Q296 361 268 356T207 352Q192 352 174 355T141 361T114 367T102 370L104 348Q120 346 138 343Q152 341 169 338T201
333Q218 330 232 330T261 333T289 338T320 345Q333 347 349 349T379 355Q395 359 411 362L405 383ZM226 737Q224 737 211 737T181 726T145 691T109 620Q103 604 103 586T107 552T113 525T118 513L140 476Q138 486 136 505T135 548T140 596T154 644Q166 672 180
687T209 710T235 717T256 717L226 737ZM409 456Q394 475 372 480T323 487L311 456Q321 457 338 459T364 460Q373 460 385 459T409 456ZM267 599Q267 613 261 625T239 640Q225 641 219 630T209 608Q207 600 204 597Q200 591 201 584T207 572T217 562T229 555Q234
553 240 557T253 567T263 582T267 599ZM468 382Q465 350 455 329T432 295T408 277T393 270L347 137L300 -19L233 13L105 269L58 300L25 334Q22 346 18 357Q15 367 13 376T11 394Q12 421 25 441T53 476T83 498T103 508Q101 512 96 525T89 556T88 598T101 648Q125
705 159 730T225 755Q230 754 239 750T259 739Q270 732 282 724Q303 704 320 682Q334 663 344 641T352 596Q345 551 339 533T330 509Q338 507 361 500T409 478T452 440T468 382Z" />
<glyph unicode="G" glyph-name="G" horiz-adv-x="854" d="M411 93Q409 92 403 92T380 80Q368 71 364 64T360 55Q338 69 316 87Q297 102 277 121T241 164Q233 176 225 192T210 224Q202 242 195 261Q196 260 205 255T227 244T254 230T280 216Q291 211 305 206T333
195Q348 190 362 184Q364 175 368 166Q370 158 373 150T381 135Q388 122 399 108T411 93ZM357 206Q331 219 301 234T245 264Q215 280 186 297L181 365L184 428L211 419Q235 411 260 406Q271 404 283 403T307 400Q320 398 334 397Q335 382 337 367Q339 354 340 340T344
313Q348 282 352 250T357 206ZM600 180Q597 173 594 165Q591 158 588 151T582 138Q574 126 564 112Q559 105 553 98H532Q523 98 513 98T494 96Q486 95 478 95T461 93Q452 92 443 91Q438 98 434 105Q430 111 426 117T418 130Q413 136 409 143T400 159Q395 167 390
176Q410 175 429 173Q446 171 464 170T499 170Q513 170 531 171T564 175Q582 177 600 180ZM622 305Q620 290 617 273T611 240Q607 222 603 205Q584 203 566 200Q550 198 533 196T500 193Q483 192 464 192T428 195Q408 196 388 198Q384 215 380 233Q377 248 375
265T370 298Q368 312 368 328T366 359Q365 376 365 393Q389 391 415 389Q436 387 461 387T506 388Q523 390 543 391T580 395Q600 397 620 399Q621 383 622 367Q624 337 622 305ZM383 567Q376 555 370 544Q365 534 360 522T350 500Q346 489 343 476T337 452Q334
439 332 425Q319 425 306 427Q295 429 283 430T260 435Q250 437 240 441T219 449Q208 453 197 459Q200 474 204 489Q208 502 213 515T227 538Q238 552 251 567T277 594Q291 608 305 621Q312 617 319 613Q332 605 343 597Q349 592 356 588T369 578Q376 573 383 567ZM615
425Q596 422 577 419Q560 417 542 415T507 411Q485 409 460 410T412 413Q386 416 360 419Q362 433 365 446Q367 457 369 470T376 494Q378 503 382 514T391 535Q395 546 400 557Q416 553 434 549Q448 546 465 544T497 541Q511 541 526 543T556 547Q572 550 588 553Q591
543 595 534Q598 526 600 518T605 501Q607 491 608 479T612 454Q614 440 615 425ZM391 593Q384 596 378 600Q373 603 367 606T356 614Q348 620 342 628Q338 632 335 636Q347 644 358 651Q368 657 379 664T401 676Q412 681 426 685T455 694Q471 698 487 701L391
593ZM573 574Q559 571 545 568Q533 566 520 564T495 563Q483 564 470 567T444 574Q430 578 416 583L499 688Q506 679 514 670Q520 662 527 653T540 636Q545 628 551 618T562 597Q567 586 573 574ZM759 478Q751 472 743 468Q736 464 729 460T714 453Q705 448 694
445T671 439Q659 436 647 434Q643 443 639 454Q635 463 631 473T625 492Q622 500 620 510T615 529Q612 540 611 550Q612 550 616 551T628 553T642 557T655 563Q669 571 681 585T694 602L681 621Q675 615 669 610Q664 605 658 600T646 592Q640 589 633 586T619 580L604
575Q598 584 593 593Q588 601 584 609T574 626Q567 637 557 652T536 682Q525 699 512 716Q495 721 480 724Q467 726 453 727T430 726Q414 726 402 725T381 723Q370 722 363 721Q336 719 308 711Q284 704 256 690T203 651Q168 616 147 583T113 514T96 439T90 353Q90
333 94 312T107 270T126 228T148 189Q174 145 208 103L305 58Q313 56 322 53Q330 51 338 49T352 46Q356 45 364 44T380 40Q390 37 400 35L393 49Q393 60 403 65T429 73T463 76T496 76Q507 75 520 76T545 75Q556 74 566 67T574 49Q574 48 584 52Q588 54 595 57L580
89L620 179Q630 181 640 184Q648 186 657 188T675 193Q686 195 698 198T722 205Q735 209 748 212L759 242Q750 239 741 236Q733 233 724 230T707 225Q696 222 683 219T657 213Q643 209 628 207Q630 225 634 243Q636 258 639 275T644 307Q646 321 646 338T648 370Q649
388 649 405Q661 407 672 411Q682 414 693 417T713 424Q720 426 729 430T748 438Q759 442 769 447L759 478ZM796 370Q796 298 779 235T723 125T623 49T475 20Q413 19 362 28T274 50T217 73T194 85Q193 87 183 100T158 135T126 183T95 240T72 297T62 351Q62 436
80 498T127 603T194 674T270 718Q361 755 477 746Q566 726 636 678Q666 658 694 630T745 564T782 478T796 370Z" />
<glyph unicode="H" glyph-name="H" horiz-adv-x="958" d="M72 343L36 99L75 75L111 319L72 343ZM337 211Q302 225 271 239Q245 251 218 264T177 286Q173 253 175 225Q177 201 184 179T211 147Q238 134 261 143T301 167Q320 185 337 211ZM189 368L93 349L132 328L229
349L189 368ZM642 398L606 374Q602 336 590 303Q579 274 560 247T506 205Q487 197 476 181T458 148Q451 129 448 107L481 77Q495 113 513 144Q528 170 547 195T587 229Q622 244 639 270T662 322Q669 352 666 386L642 398ZM820 90L774 69L777 42L820 30V90ZM515
729Q468 728 420 717Q378 706 329 683T235 615Q200 580 190 541T182 466Q184 426 198 386L232 371Q210 433 216 490Q219 514 227 540T254 590T302 636T376 675Q408 686 448 694T523 708Q564 714 606 717L515 729ZM879 231Q831 228 794 223Q778 221 763 218T736
212T717 204T710 195Q710 189 718 186T740 182T771 182T807 186Q849 190 904 201L879 231ZM775 406Q769 426 754 443T721 474Q702 490 679 504Q687 513 695 523Q702 531 709 540T723 559Q729 568 735 580T747 603Q753 615 758 629L739 643Q733 629 727 615Q722
603 715 590T701 567Q694 556 685 545T667 523Q657 512 647 501Q627 497 607 493Q590 489 571 484T535 472Q515 463 493 448T452 419Q430 402 410 385L427 376Q467 408 507 432Q541 452 579 467T650 477Q688 471 715 453T753 398Q758 383 755 365T745 330Q738 311
728 292L669 271L658 251L742 273Q755 296 764 320Q772 340 776 363T775 406ZM835 9L762 30L759 69Q738 60 718 53Q700 46 680 40T642 29Q619 23 594 25T548 32Q523 37 499 46L434 90Q431 111 434 130Q436 147 443 164T467 193Q523 230 548 261T582 315Q591 341
584 362Q569 346 553 332Q539 320 523 307T491 286Q476 278 457 273T420 262Q400 257 379 253L410 193L286 9Q267 8 249 8Q233 8 216 8T183 12Q167 14 150 20T117 33Q99 40 81 48L18 90L57 365L183 386Q161 444 166 500Q168 524 176 550T203 603T251 654T325 702Q370
724 420 734T519 743T611 732T684 705Q756 665 799 624T864 543T891 464T889 392Q874 313 808 239L880 247L925 205V30L835 9Z" />
<glyph unicode="I" glyph-name="I" horiz-adv-x="1636" d="M283 326Q282 317 281 308Q280 300 280 292T280 276Q282 256 288 237Q291 226 295 216Q295 225 296 234Q296 242 296 250T298 266Q299 273 299 280T302 296Q303 304 305 313L283 326ZM692 304L580 297L551
282L495 285L426 294L439 260H492Q494 247 498 236Q501 227 506 219T520 207Q536 202 549 207T573 226Q577 231 579 237T583 249Q585 256 586 263L645 269L692 276V304ZM596 501Q580 503 565 504Q552 505 538 504T511 501Q481 495 462 483T417 454Q400 442 382
426T348 394Q330 376 314 357L320 338Q329 349 339 360Q357 379 376 397Q396 414 411 425T451 447Q465 453 477 455T502 457T527 458T555 457Q568 457 583 457T613 456Q629 455 645 454L596 501ZM1101 132Q1098 145 1095 159Q1093 171 1091 184T1089 210Q1089 227
1092 244Q1093 254 1095 263H1055Q1053 254 1052 244Q1051 236 1050 227T1051 210Q1053 196 1061 182T1078 157Q1089 144 1101 132ZM1445 301L1298 285L1204 288L1208 260L1289 257Q1294 240 1300 227Q1305 216 1313 207T1333 197Q1344 197 1352 206T1367 227Q1374
240 1379 257L1445 260V301ZM1376 501Q1354 503 1332 502Q1313 501 1292 499T1254 491Q1210 477 1182 457T1123 401Q1112 389 1103 374T1086 344Q1077 327 1070 310L1095 301Q1111 324 1129 347Q1144 366 1163 387T1201 422Q1221 437 1235 447T1273 466Q1286 470
1301 471T1331 473Q1347 473 1364 472L1376 501ZM1570 182Q1550 107 1499 64T1373 22Q1347 22 1325 22T1283 22T1241 27T1195 41Q1167 52 1144 63T1102 90T1067 125T1039 172Q1033 185 1030 201T1024 232Q1021 249 1020 266H783Q780 241 775 216Q770 195 763 172T745
132Q717 90 685 68T605 32Q572 22 543 21T485 26T430 45T373 76Q344 95 325 111T286 157Q263 192 253 222T242 291Q241 302 246 315T259 339Q267 351 276 363L251 388Q240 399 227 410T201 429Q189 436 178 444T156 458T134 465T111 460Q101 454 95 443T86 420Q82
407 80 391L48 401Q52 419 59 435Q65 449 74 462T95 482Q111 490 125 489T153 481T181 466T210 448Q224 440 238 429T266 407Q281 395 295 382Q317 405 340 425Q360 442 383 460T430 491Q468 511 506 523T570 535Q586 535 602 527T635 506T668 477T701 444Q719
425 735 400T766 352Q781 325 795 297H1036Q1044 321 1054 344Q1062 364 1073 385T1098 422Q1117 445 1141 462T1190 493T1237 514T1276 526Q1306 534 1341 529T1409 514Q1446 503 1483 488Q1476 515 1466 540Q1458 561 1446 583T1417 622Q1402 636 1388 649T1359
672T1328 684T1292 682Q1280 678 1269 670T1249 652Q1238 641 1229 629L1211 654Q1224 668 1239 680Q1252 691 1267 700T1298 713Q1347 723 1383 700T1448 635Q1472 600 1484 578T1506 532T1526 480T1561 404Q1575 375 1581 349T1588 296T1583 241T1570 182Z" />
<glyph unicode="J" glyph-name="J" horiz-adv-x="562" d="M184 99H161L162 37L185 27L184 99ZM326 95H296L298 35L326 24V95ZM196 435Q194 426 190 404T180 354T165 300T146 255Q137 239 128 223T111 192T98 166T89 148L125 122Q140 156 154 189T182 260T204 339T218
434L196 435ZM96 554Q90 559 76 572T51 595L50 454L49 284L78 262L90 435Q91 452 92 471Q93 488 93 509T96 554ZM153 437L137 281Q156 329 164 364T178 436L153 437ZM186 613L70 604L107 571L224 573L186 613ZM418 437L408 438L430 350Q431 348 432 348T432 350L418
437ZM456 438L438 436Q443 400 446 365T455 295L474 279L456 438ZM272 730Q269 732 258 733T226 728Q221 726 217 721T211 709T206 696T204 689L200 626L232 591L233 647Q233 657 236 667Q238 675 243 684T256 700Q264 705 272 705T290 704L272 730ZM468 603L327
607L330 571L496 564L468 603ZM482 246L454 270L494 97L406 96L404 0L334 -1L281 21L277 95H263L259 -1L198 0L145 22L142 98L121 99L65 143L111 235H86L30 272L31 456L35 621L183 632L188 693Q191 706 196 717Q201 726 208 734T229 745Q255 750 267 748T282 744L312
701Q312 699 313 694T317 683Q321 669 322 652T324 626L475 620L517 562L525 425L527 245L482 246Z" />
<glyph unicode="K" glyph-name="K" horiz-adv-x="605" d="M134 281L42 58L82 24L113 142L153 245L134 281ZM180 123L181 67L171 18L198 19L199 68L200 123H180ZM225 291H144L163 257L256 254L225 291ZM410 238Q409 221 399 209Q391 198 374 189T326 180Q303 179
288 188T262 208Q251 220 243 236L220 238Q230 216 246 199Q259 185 279 173T326 163Q363 165 384 176T416 202Q428 218 432 238H410ZM490 74L476 124L460 121L472 67L477 21L504 19L490 74ZM242 342L240 296L267 262L269 342H242ZM59 711L56 418L97 371L103 658L59
711ZM479 295L385 294V257H502L479 295ZM424 433Q418 434 412 434Q407 434 401 434T390 435Q376 436 366 437T342 438Q325 438 313 436T282 435Q275 435 268 436T253 438Q245 439 237 440V422Q245 421 253 420Q260 419 267 419T281 418Q296 418 309 419T334 421T360
422T390 421Q395 421 401 421T412 419Q418 418 424 418V433ZM231 570Q231 574 231 578T230 587V597L207 598V568Q207 563 207 559T209 549Q210 544 210 538L228 537Q228 543 229 549Q230 554 230 559T231 570ZM341 500Q349 501 351 506T352 516T342 525T325 528Q318
526 311 522T306 509Q308 504 311 503T320 501H325Q335 499 341 500ZM504 712L79 716L117 669L559 666L504 712ZM469 562Q469 567 469 573T467 586Q466 593 466 600L444 596V584Q444 579 444 573T445 562Q445 558 445 554T447 544Q448 539 448 534L467 531Q467
537 468 542Q468 547 468 552T469 562ZM584 339L474 341L384 339V309H486L524 254L550 122L576 4L83 1L22 50L124 306L225 308L224 345L99 347L37 407L43 731H513L587 666L592 484L584 339Z" />
<glyph unicode="L" glyph-name="L" horiz-adv-x="676" d="M189 193H128L138 57L194 30L189 193ZM237 94L235 28L268 26L270 90L237 94ZM107 286L52 293L122 218L182 215L107 286ZM345 33Q345 36 344 46T343 68T342 89T341 99Q340 98 339 98H333Q329 97 325 97T315
96L287 94Q287 94 287 86T287 67T287 47T287 34L345 33ZM237 146L235 115L271 113L273 144L237 146ZM338 143L287 144V112H341L338 143ZM429 37Q429 40 428 49T426 69T425 87T424 96Q424 96 415 96T395 97T374 98T360 98L363 35L429 37ZM89 540L50 571L45 315L93
308L89 540ZM420 148L356 145L357 116L422 115L420 148ZM488 100L444 97L447 39L497 42L488 100ZM487 151L439 150L437 119H488L487 151ZM372 282L350 281V263L396 265L372 282ZM246 440H197Q196 440 196 432T198 421L267 417L246 440ZM370 343H351L348 301L373
300L370 343ZM410 342H385L390 286L410 273V342ZM238 539L200 542L199 458L241 455L238 539ZM262 544L255 450L281 427L284 542L262 544ZM177 703L58 593Q60 591 66 586T80 575T93 564T102 557L119 573Q144 595 167 617T215 663L177 703ZM510 430H465L464 407L538
406L510 430ZM496 534H462V448H498L496 534ZM540 533H513L514 450L544 427L540 533ZM452 707L198 711L237 670L505 669L452 707ZM640 259L520 200Q520 197 520 182T521 151T521 120T522 105Q522 104 523 89T526 57Q528 36 530 10L378 2L197 -3L121 45L108 201L26
299L31 588L169 721L459 729L542 668L650 538L640 259Z" />
<glyph unicode="M" glyph-name="M" horiz-adv-x="633" d="M277 220Q269 215 253 216T224 217L221 47L273 25Q274 78 275 120Q276 156 276 186T277 220ZM131 256Q123 293 117 330Q112 361 108 396T105 457Q106 483 109 523T115 600Q119 643 122 690L61 713Q56 669
52 629Q48 595 45 560T39 503Q31 422 44 374T77 299Q100 268 131 256ZM312 713Q306 654 301 601Q299 578 296 555T290 512T285 474T279 446Q273 424 267 410T256 386Q250 375 244 368Q239 363 238 359Q237 355 240 351T256 342Q266 339 276 358T297 406T315 468T328
525Q333 549 340 577T353 631Q360 660 367 689L312 713ZM498 715Q489 676 481 642Q474 613 468 584T456 538Q451 522 447 509T440 485Q436 473 433 463Q422 438 415 416Q409 397 406 380T409 357Q424 344 439 364T469 420T495 495T516 560Q524 585 532 607T546
646Q553 665 558 683L498 715ZM612 522Q613 495 609 453T595 370T573 294T543 247Q526 235 503 229T457 221Q431 218 405 219L411 5L285 1L205 31L204 218Q169 224 138 235Q112 245 86 261T47 303Q35 328 29 352T20 399T18 448T20 501Q21 530 26 569T36 646Q42
689 50 734L130 709Q141 706 152 700Q161 695 172 686T191 659Q201 640 206 623T213 590T216 558T220 524Q222 507 225 483T230 436Q233 410 236 383Q246 400 254 421Q261 438 267 462T276 513Q278 540 282 578T291 651Q295 691 301 734L396 703V641Q396 615 396
586T394 536Q394 515 394 493T393 453T393 419T393 397Q399 411 409 445T432 527T460 630T491 742L590 695Q596 666 600 636Q604 610 607 580T612 522Z" />
<glyph unicode="N" glyph-name="N" horiz-adv-x="682" d="M474 65Q465 73 454 78Q444 83 429 84T394 81Q374 75 360 73T324 70Q318 70 311 71T297 73Q290 74 283 76L288 57Q297 56 307 55Q315 54 324 54T342 53Q364 53 379 59T417 64Q424 63 432 62T448 59Q456
57 464 55L474 65ZM177 504L170 445L159 73L195 31L200 306L208 500L177 504ZM67 681L32 327L67 299L103 642L67 681ZM459 205Q454 219 445 236T417 262Q411 265 400 264T376 260T350 251T325 239Q314 233 308 224T297 204T291 183T285 163Q282 153 286 147T299
135T318 127T338 121Q352 118 361 120T384 122Q398 122 409 117T431 120Q442 128 442 138T447 161Q452 174 457 184T459 205ZM334 477Q331 491 324 501T303 515Q294 517 287 514T274 504T264 491T256 478Q254 474 254 471T256 464T260 457T263 449Q264 443 264
438T262 428T261 419T266 410Q274 401 285 402T307 405Q314 406 317 408T322 414T324 422T327 432Q332 444 335 454T334 477ZM492 476Q491 486 486 492T473 502T457 509T441 516Q430 521 424 520T414 513T406 501T399 487Q389 470 391 450T403 419Q407 414 414
414T429 415T447 421T464 427Q480 432 487 445T492 476ZM447 641L456 658L320 665L193 648Q194 646 196 643Q198 641 199 639T202 634L209 627Q211 625 213 624L184 593L197 583L234 614L251 603L246 569L255 563L269 600Q274 599 279 598Q284 597 288 596T297
593Q302 591 306 591T316 589Q321 588 327 587L319 546L337 542L339 593L356 598L374 600L406 559L418 571L395 605L425 629L475 608L487 622L447 641ZM572 497L536 501L549 345L580 326L572 497ZM608 670Q609 670 602 676T584 691Q573 700 558 712L311 722L78
699L117 657L322 681L464 675Q491 674 516 673T562 672T595 671T608 670ZM591 301L557 316L552 -2H203L141 60L138 270H73L14 319L58 714L335 745L562 732L640 663L660 301H591Z" />
<glyph unicode="O" glyph-name="O" horiz-adv-x="1000" d="M233 595Q206 585 180 571Q157 559 132 542T88 503Q57 467 49 430T42 361Q45 325 58 291L101 254Q93 286 91 320Q89 349 94 384T118 453Q138 488 164 509T213 541Q240 554 269 559L233 595ZM777 35Q779
35 779 36T776 38Q767 39 760 45Q754 50 749 60T742 91Q739 116 739 134T741 164Q743 178 745 187L686 205Q685 205 681 204T672 197T666 179T669 143Q677 98 694 76T730 44T763 35T777 35ZM751 214Q748 240 741 264Q735 284 725 306T698 342Q682 356 668 362T644
369T627 370T619 369Q638 349 650 336T671 308T685 276T693 227L751 214ZM695 657Q661 672 623 683Q591 693 550 700T467 704Q434 702 397 686T328 653Q291 632 256 607L298 566Q299 567 315 576T357 598T413 622T471 640Q524 652 578 644T678 620Q701 613 719
606T752 591Q759 588 764 586T773 581Q777 579 781 578L780 577Q784 575 786 578T785 584L695 657ZM973 71Q956 45 933 32T887 12Q861 5 834 4L764 11Q742 11 722 19Q705 26 688 41T659 89Q642 137 642 163T647 203Q654 218 668 221Q668 221 670 224T673 236T670
258T653 296Q628 342 606 361T582 382L498 360Q511 306 500 258Q495 238 484 218T452 179T401 147T326 126Q288 119 251 132T183 162Q148 182 115 211L45 272Q44 274 35 295T21 348T20 420T51 498Q74 533 106 555T167 591Q200 607 236 616Q261 639 294 659Q322
676 362 693T455 720Q486 725 527 720T604 707T667 690T697 680Q698 678 713 666T747 636T787 598T821 559Q845 525 863 486T893 408T913 331T925 266T931 221T933 203Q933 203 943 188T964 153T978 110T973 71Z" />
<glyph unicode="P" glyph-name="P" horiz-adv-x="513" d="M388 682Q378 683 367 684Q358 685 348 685T329 683Q310 679 294 665T264 636Q249 618 236 596L47 200Q44 193 41 186Q39 180 37 173T35 161Q34 155 35 149T38 137Q40 131 41 125L68 95Q65 108 64 121Q63
132 64 145T72 170L252 572Q265 595 280 614Q293 631 310 645T347 663Q361 665 380 663T417 657Q437 653 457 646L388 682ZM390 322Q370 323 352 326Q336 328 319 332T287 344Q272 351 257 362T229 385Q214 398 200 412L192 398Q205 383 220 370Q233 359 248 347T279
328Q293 321 310 317T344 310Q362 307 382 306L390 322ZM494 539Q491 522 485 503T471 466Q463 447 453 428L311 117Q294 89 276 67Q260 48 239 31T195 12Q174 9 151 18T109 41Q86 56 65 75L24 119Q21 131 19 142Q17 152 17 163T20 185Q24 197 34 221T60 276T92
344T128 417Q170 501 221 602Q229 619 243 637Q255 652 274 668T322 697Q333 702 346 701T372 698Q386 695 400 690L476 648Q484 636 489 620Q494 606 496 586T494 539Z" />
<glyph unicode="Q" glyph-name="Q" horiz-adv-x="506" d="M138 334Q133 332 113 315T69 269Q50 246 43 221T35 175T36 139T39 122L66 91Q63 98 60 110T55 138T53 170T59 204Q69 233 85 253T119 286T152 306T173 315L138 334ZM287 69L271 89L262 81L272 63L305
55L287 69ZM168 524L147 350L179 332L199 517L168 524ZM240 723Q227 724 213 718Q200 713 184 700T149 661Q129 632 127 611T131 574T147 551T158 542Q160 542 169 541T184 537Q177 545 172 554T163 573Q157 592 160 617T190 673Q201 685 214 692T240 702T264 706T284
707L240 723ZM470 220Q486 176 485 133T447 57Q433 45 413 41T370 36Q347 36 325 39T285 44Q265 47 258 55T249 68Q246 65 238 58T218 44T193 33T164 30Q156 31 141 36T111 47Q93 54 75 62L22 114Q16 148 18 180Q19 207 27 236T57 287Q84 313 103 330T126 349Q127
365 130 391T137 444T145 494T151 527Q126 540 117 561T110 605T124 653T156 697T198 727T245 738L298 720Q316 709 330 695Q342 683 352 665T361 624Q360 603 354 588T340 561T325 544T316 537Q319 519 320 487T322 422T322 362T322 327Q327 328 345 328T386 318T432
286T470 220Z" />
<glyph unicode="R" glyph-name="R" horiz-adv-x="660" d="M232 620Q224 630 217 639Q211 647 205 653T193 662L121 403L44 88L100 50L173 397L232 620ZM421 342L400 335L379 338L402 209L406 80L468 45L421 342ZM302 555L284 537Q276 529 268 521T251 506Q246
501 239 497T227 488Q220 483 214 478L205 444Q218 452 229 460Q239 467 250 475T270 492Q285 507 299 524Q307 533 314 543L302 555ZM394 437L390 353H406L410 425L394 437ZM410 501L400 504L393 465L411 462L410 501ZM498 627Q485 618 468 611Q454 605 435 600T393
593Q363 592 338 596T294 605Q272 611 255 619L243 608Q254 601 267 596Q278 591 292 587T320 581Q339 578 361 578H383L386 537L405 528V581Q414 581 424 582Q432 583 441 584T458 589Q468 593 478 599T497 612Q507 619 516 627H498ZM543 509Q535 512 526 515Q518
517 510 520T495 527Q480 536 467 545Q460 550 453 556L441 541Q450 534 461 527Q479 514 499 504Q507 500 515 496T532 489Q541 485 550 481L543 509ZM494 705Q481 716 464 724Q450 731 429 736T383 741Q332 739 297 730T241 709Q216 696 202 680L233 650Q254
662 278 673Q298 682 322 690T370 700Q393 702 418 698T463 686Q487 678 509 667L494 705ZM480 17L393 67L383 204L362 339Q357 339 353 341Q349 343 347 344T343 351Q341 345 333 320T315 267Q304 234 291 194L227 3L102 24L24 79L103 408L183 685Q200 704 228
720Q252 734 290 745T382 758Q408 759 432 752T473 736Q493 725 510 712L530 655L577 491L614 297L640 51L480 17Z" />
<glyph unicode="S" glyph-name="S" horiz-adv-x="689" d="M225 147L192 160L195 123L226 110L225 147ZM273 201L203 174L238 158L319 202L273 201ZM394 71L361 67L401 21L448 16L394 71ZM244 270L211 278L280 218L314 216L244 270ZM221 320L210 294L240 287L244
318L221 320ZM163 386L154 426L135 437L144 384L139 354L165 343L163 386ZM424 201L433 185L392 154L360 83L391 86L480 215L424 201ZM95 521L71 534L75 502L104 490L95 521ZM216 460L143 451L163 439L229 444L216 460ZM381 276L421 216L482 233L381 276ZM145 605L74
549L97 533L176 580L145 605ZM274 451L257 418L264 398L288 445L274 451ZM330 534L181 593L201 577L349 508L330 534ZM469 486L406 404L427 392L492 483L469 486ZM396 598Q395 598 392 599T384 603Q380 605 374 608Q400 574 422 548T462 502L484 501L396 598ZM415
721L372 626L396 612L434 705L415 721ZM445 736H427L447 715L470 714L445 736ZM133 165Q128 167 123 169Q118 171 114 173T107 178Q104 180 102 184T97 193Q95 197 94 202L109 211Q109 209 111 204T118 193Q123 188 129 184T136 180L133 165ZM73 246Q68 252 64
258Q60 263 56 269T50 282Q47 287 46 295T42 310Q40 318 40 326L58 327Q58 326 59 313T66 290Q70 280 78 270T87 258L73 246ZM54 468Q53 461 51 456Q49 451 48 446T46 436Q44 421 45 403T47 383L27 381Q26 390 25 399Q24 407 24 415T24 431Q25 436 26 442T29 455Q31
461 33 468H54ZM611 153Q605 138 597 124Q589 112 579 98T554 72L541 83Q551 95 561 107Q569 118 578 131T593 160L611 153ZM574 428L481 311L569 245L474 95L518 63L472 -2L390 7L335 70L368 140L236 88L177 114L178 179L265 214L187 279L204 323L164 326L123
346L127 383L117 460L221 472L250 442L252 435L263 460L180 505L112 471L60 489L55 549L143 622L341 542L373 491L346 411L388 410L450 486L350 616L407 748H454L495 702L480 627L614 527L574 428ZM664 293Q660 277 656 259Q651 244 645 227T629 195L610 201Q616
213 623 228Q628 241 635 257T648 294L664 293ZM676 418Q676 402 675 386Q674 372 673 358T668 336L649 334Q653 347 656 372T652 422L676 418ZM652 466Q651 479 649 491Q647 502 645 514T638 538L656 541Q660 528 664 516Q667 505 669 493T669 470L652 466ZM623
592Q621 605 616 617Q611 628 603 639T581 661L595 677Q605 668 615 656Q623 645 631 630T644 595L623 592Z" />
<glyph unicode="T" glyph-name="T" horiz-adv-x="1056" d="M227 188Q219 209 211 230Q204 248 197 269T186 308Q182 322 179 338T174 368Q171 385 169 402L143 404Q145 384 148 366Q150 350 154 332T163 299Q169 281 179 262T201 226Q213 207 227 188ZM49 528V445L78
425L81 502L49 528ZM380 411Q356 435 331 456Q310 474 285 492T236 521Q206 533 174 538T115 545Q83 547 53 546L91 518Q119 517 150 511Q176 506 207 493T268 457Q289 439 314 420T363 385Q389 367 415 349L380 411ZM520 603Q504 591 489 579Q476 568 462 556T438
531Q429 521 422 502T409 464Q403 442 398 417L429 358Q431 386 436 413Q441 436 449 461T471 504Q481 516 495 528T524 549Q540 560 558 569L520 603ZM966 265Q969 274 967 287Q966 293 965 299Q960 291 955 284Q950 278 945 272T933 261Q927 256 919 253T903
248Q894 245 886 244L884 224Q890 225 897 226Q902 227 909 228T921 232Q936 238 948 243T966 265ZM894 294L891 265Q897 265 903 267Q914 269 924 275Q928 277 932 281T939 291Q943 296 945 302L894 294ZM564 692Q556 687 549 683Q543 678 537 673T529 662Q526
655 526 647T527 631Q529 622 532 613L559 587Q555 600 553 611Q551 621 551 632T555 651Q558 658 565 664T579 676Q587 681 596 686L564 692ZM760 519Q756 529 752 539Q748 547 742 555T729 568Q721 573 710 578T688 588Q676 592 663 597L650 572Q673 563 694
554Q712 546 730 537T760 519ZM919 401Q913 402 906 403Q900 404 893 404T881 402Q873 400 865 396T850 387Q842 382 834 376L837 337Q846 344 855 350Q863 355 872 360T889 369Q898 372 909 374T932 377Q944 378 957 378L919 401ZM1037 291Q1045 237 1015 195T931
139Q917 135 900 136T867 140Q849 143 831 148Q823 121 817 96Q812 75 807 53T800 18L515 14Q483 27 448 42Q418 55 381 72T306 109Q271 126 245 148T200 194T167 243T144 292Q123 347 120 406L76 408L32 434L35 559Q57 561 83 561Q105 561 133 559T193 549Q224
542 257 523T320 482Q353 457 385 429Q386 448 391 468Q396 485 404 505T430 546Q447 566 462 580T490 603Q504 613 517 618Q515 628 514 639Q513 648 513 657T518 674Q522 681 529 687T544 698Q553 703 563 707L600 701Q611 698 621 694Q629 690 638 686T652 674Q657
666 659 656T662 634Q662 622 661 609Q673 606 684 602Q706 595 726 586Q745 577 763 546T796 480Q813 440 828 393Q840 401 851 408Q861 413 872 418T895 422Q900 421 904 420T914 416Q919 414 925 412L961 394Q980 379 996 361Q1010 346 1022 328T1037 291Z"
/>
<glyph unicode="U" glyph-name="U" horiz-adv-x="371" d="M160 38Q158 40 155 46T151 60Q151 63 151 65T150 70Q149 72 149 74H133Q134 69 135 65Q137 55 137 51Q137 43 138 40Q138 37 139 36L160 38ZM231 38Q229 43 227 47Q222 54 218 65L215 76L197 79Q198 77
201 69T205 54Q205 46 208 42Q210 39 212 38H231ZM169 143L168 161L148 163Q148 161 150 149T153 126V107H169V143ZM299 37Q299 48 298 61T293 77Q291 77 289 77T285 76H280Q280 75 280 70T281 59T281 48T284 39Q286 38 293 38Q296 38 299 37ZM229 108V119Q229
124 229 130T227 145L224 161H207L208 136L213 106L229 108ZM133 481L46 69L77 31L148 453L133 481ZM163 245Q162 239 162 234Q161 229 161 225T160 217Q159 212 161 204Q162 200 162 198H181Q180 203 180 207Q179 211 179 216T179 227Q179 234 181 240Q182 243
183 244L163 245ZM292 107Q291 112 290 117Q289 122 289 127T288 137V149Q288 151 289 152L272 155V129Q272 124 274 114Q275 110 276 105L292 107ZM224 194Q225 200 225 205Q225 210 225 215T223 226Q220 238 219 239Q218 241 217 242L204 238L206 230Q207 227
207 223T208 216Q209 213 209 210T209 203Q209 199 208 196L224 194ZM179 328Q177 325 176 321Q175 318 174 314T173 308Q171 299 172 291T173 277L191 278Q191 280 190 290T189 309Q189 314 191 322L193 330L179 328ZM278 202Q277 207 277 212Q276 217 276 221T275
230Q274 234 274 237T275 242Q275 245 276 246L259 244Q259 240 260 236Q262 226 262 220V202H278ZM242 283Q242 288 241 293Q240 298 240 302T239 312L236 335L219 337Q220 335 222 325T225 308V292Q225 288 226 282L242 283ZM204 373L202 383Q201 387 201 391T199
399Q199 401 199 404T198 410V416L182 415Q182 412 183 408Q184 405 184 401T185 395Q185 390 187 382Q188 378 188 375L204 373ZM251 400Q250 403 250 406T249 413L247 421H233L236 400V381V371L249 369Q249 375 250 380Q250 385 250 390T251 400ZM255 507L219
505L218 496Q221 496 227 495T236 488Q240 483 237 481T228 476Q217 473 205 473Q196 473 185 475T176 487Q178 493 186 494T199 496V505Q188 503 170 503T141 504L161 465L274 466L255 507ZM78 -1L26 56L125 518L201 520V586Q199 588 195 596T192 612Q194 620
198 625T211 632Q221 633 227 625T233 607Q233 600 227 594T218 586V522Q221 522 228 522T242 521T256 520T262 520L268 521L272 513Q278 502 284 491T297 468L334 4L78 -1ZM152 619L110 663L124 675L159 630L152 619ZM270 603L257 612L294 665L308 656L270 603ZM230
651L218 653L217 742H238L230 651Z" />
<glyph unicode="V" glyph-name="V" horiz-adv-x="647" d="M98 214Q81 201 68 187Q57 175 48 161T38 131Q37 120 42 109T52 88Q58 77 66 67L118 41Q107 55 99 69Q92 81 86 95T82 123Q83 141 91 155T109 178Q120 189 133 197L98 214ZM130 470Q110 461 95 445Q82
431 73 408T65 346Q66 329 72 309T85 272Q93 252 103 232L150 210Q138 232 128 255Q120 275 113 298T107 341Q108 368 120 387T146 418Q162 432 182 441L130 470ZM324 726Q299 717 274 707Q253 699 231 689T191 667Q154 643 141 612T126 553Q124 520 133 488L189
456Q177 493 176 527Q176 542 177 557T184 588T199 618T225 644Q244 658 271 669T322 689Q350 698 380 705L324 726ZM628 137Q627 107 608 86T558 49T493 25T425 10T369 2T338 0Q307 -2 272 1T207 9Q172 13 136 20L60 50Q48 63 39 76Q31 87 25 101T18 129Q17 146
27 164T51 196Q66 213 85 228Q73 250 63 272Q55 291 48 313T42 355Q44 393 55 417T81 457Q97 475 116 484Q102 521 104 558Q106 590 122 624T185 687Q205 700 229 710T275 727Q300 735 325 741L389 719Q418 707 443 692Q464 679 483 662T510 622Q521 582 516 554T500
508Q487 487 466 472Q493 460 517 445Q537 432 557 416T589 379Q606 345 606 316T599 265Q590 239 574 217Q590 216 602 207Q613 199 621 183T628 137Z" />
<glyph unicode="W" glyph-name="W" horiz-adv-x="922" d="M64 443Q58 414 54 384Q50 358 47 329T44 276Q44 247 47 213T56 149Q61 115 68 80L114 45Q108 82 104 119Q100 151 98 186T97 253Q98 277 101 305T108 358Q112 387 117 416L64 443ZM227 78V106Q227 118
226 132T223 158Q220 175 215 186T208 215Q206 229 208 245T214 275Q218 292 223 308H206Q200 293 195 279Q190 266 187 252T184 225Q185 202 194 187T208 149Q210 138 210 125T211 101V75L227 78ZM135 696Q127 674 120 653Q114 634 108 613T97 574Q92 558 89 540T81
505Q77 486 73 467L118 438Q119 457 123 476Q125 492 129 510T138 544Q143 561 150 582T166 620Q175 640 184 660L135 696ZM708 26Q654 79 612 131T538 234L512 230Q521 210 531 192Q539 176 549 158T570 126Q580 112 593 97T617 69Q630 54 644 40Q657 37 669 34Q680
32 690 30T708 26ZM867 357Q844 348 819 338Q798 330 774 321T729 306Q708 299 683 293T636 281Q610 275 585 269L597 281Q602 286 607 292T617 303Q622 309 627 316T637 331Q642 339 647 347L615 349Q607 326 593 308Q581 293 561 280T509 268Q483 268 462 284T427
321Q409 344 397 374L381 355Q386 348 390 342Q394 337 397 331T405 319Q409 313 414 306T423 293Q427 286 432 279Q405 294 378 309Q355 322 328 336T278 363Q258 373 235 384T190 405Q165 416 141 427L138 412Q162 399 188 386Q210 375 235 363T281 340Q313 325
342 309T399 278T453 255T503 246Q537 246 564 250T616 260T668 275T729 293Q750 298 774 306T820 323T855 337T869 343L867 357ZM824 124Q821 130 818 137Q816 143 814 150T809 163Q804 184 805 200T805 239Q804 244 804 251T804 264Q804 271 803 277L789 279V262Q789
254 789 246T789 230Q789 209 788 194T792 158Q794 150 797 142T805 127Q809 119 814 111L824 124ZM813 618Q761 601 709 587Q664 575 613 565T517 556Q468 556 412 569T308 597Q252 615 196 637L191 621Q248 600 305 582Q354 567 410 554T517 540Q561 538 612
546T709 564Q761 575 813 591V618ZM535 610Q540 621 531 626T512 632Q502 634 494 628T486 611Q486 603 493 599T509 594Q528 592 535 610ZM760 715L506 721L153 708L191 671L512 674L802 680L760 715ZM893 301Q895 259 893 209T887 116Q883 65 875 15L720 4L637
27Q620 42 604 58Q590 72 576 88T551 119Q541 133 532 151T515 187Q506 206 498 226L459 235Q452 214 445 195Q438 178 430 159T414 125Q403 105 387 83T357 43Q340 22 322 1H135L58 60Q45 106 37 160Q30 206 28 265T37 387Q45 437 60 494T90 602Q107 660 126 719L506
737L765 731L830 676L833 595Q848 543 860 491Q871 446 880 396T893 301Z" />
<glyph unicode="X" glyph-name="X" horiz-adv-x="1035" d="M297 147L236 152L244 58L316 30L297 147ZM60 678V278L128 207L134 634L60 678ZM683 153L611 147L647 57L728 30L683 153ZM861 432Q856 437 852 442Q848 447 844 451T835 459Q830 463 824 466T811 473Q804
477 796 479Q808 460 814 442Q819 426 819 407T804 371Q781 345 754 337T693 323Q654 318 623 316T562 313T501 312T433 311Q380 309 343 315T280 328Q251 336 231 347V341Q231 333 234 329Q236 324 240 320T250 313Q255 309 262 306Q283 299 306 294Q326 289 348
285T394 278Q428 275 456 274T512 273T568 273T631 275Q701 277 759 292T855 351Q863 360 864 373T865 400Q864 415 861 432ZM799 399Q800 445 781 469T727 503T645 515T544 518Q487 519 432 510T333 482T262 437T234 376Q234 360 260 351T330 337T427 331T535
329Q589 329 637 334T721 348T778 370T799 399ZM902 714L692 708Q653 707 615 706T546 704T498 703T479 702H77Q95 690 110 679Q122 670 132 663T143 654Q143 653 158 653T200 652T258 651T326 650Q406 649 509 648L972 652L902 714ZM992 177L836 174L746 -3L632
39L587 147L408 146L329 6L227 45L215 156L132 166L38 267Q39 395 40 496Q40 539 40 580T41 654T42 706T44 726Q44 726 63 726T112 726T181 725T260 724Q354 723 473 723L908 738L1007 651L992 177Z" />
<glyph unicode="Y" glyph-name="Y" horiz-adv-x="598" d="M188 94L174 67L184 51L205 86L188 94ZM212 178L174 198L164 179L228 148L212 178ZM203 253L182 210L217 193L238 231L203 253ZM251 225L228 183L241 156L271 214L251 225ZM295 321L270 335L260 316L299
294L295 321ZM382 716Q377 708 363 685T329 629T286 559T242 487T203 426T177 386Q168 373 154 352T124 307T90 258T59 212T34 176T21 157L38 130Q42 136 56 156T90 203T132 263T175 326T213 381T240 421Q249 436 264 460T296 513T330 570T361 625T386 667T398
688L382 716ZM338 369L310 316L314 293L352 362L338 369ZM301 390L279 347L302 333L325 375L301 390ZM380 446L348 462L341 449L390 423L380 446ZM381 529L354 475L383 460L414 510L381 529ZM424 504L393 449L405 417L445 491L424 504ZM467 597L438 611L427 589L474
567L467 597ZM506 647L482 604L488 575L517 627L506 647ZM440 693L432 706L393 722L410 693Q411 693 415 691T426 686T438 680T448 675L440 693ZM559 626L553 640L519 653L531 632Q534 630 545 625T563 616L559 626ZM580 600Q553 553 527 508Q505 470 482 429T443
360Q435 346 422 323T393 272T359 212T324 150Q283 78 236 -4L189 23L156 68L175 103L125 132L86 71L35 107L4 158Q47 222 85 277Q101 300 117 323T147 368T172 405T189 431Q195 440 206 457T231 498T263 547T297 601Q336 663 382 737L441 717L465 669L446 625L470
615L506 671L562 653L580 600Z" />
<glyph unicode="Z" glyph-name="Z" horiz-adv-x="548" d="M106 221L66 60L110 31L148 222L106 221ZM145 124L137 67H273L289 121L145 124ZM141 481L27 271L56 243L164 453L141 481ZM248 375Q248 391 240 395T222 400Q212 400 204 392T195 373Q195 352 214 352Q223
352 235 358T248 375ZM354 442L156 491L183 460L422 410L354 442ZM236 676L188 696L357 461L435 424L236 676ZM409 708Q401 711 389 715T361 722T330 728T301 731Q285 731 269 728T239 721T215 714T200 708L243 691Q239 688 242 688Q244 688 253 690T283 700Q300
706 318 708T354 710T386 710T409 708ZM422 157Q416 120 407 89Q399 63 388 39T362 9Q354 6 340 4T307 2T267 1T225 1Q176 2 118 4L46 51L85 221L61 219L7 268L137 508L337 462L164 709Q216 733 268 741Q290 744 314 744T363 740T410 724T455 692Q496 652 513 616T531
547T522 489T498 443T472 413T458 400L422 157ZM124 579Q119 584 114 588Q109 592 105 595T96 603Q93 606 89 610T82 618Q78 622 75 626L91 640Q92 639 97 630T110 613Q117 605 125 601Q129 598 135 596L124 579ZM229 538Q229 536 226 526T222 515Q207 519 192
528T162 548L174 565Q175 565 182 559T198 549Q206 544 217 541T229 538ZM54 661Q49 667 45 672Q41 677 37 682T31 694Q26 705 24 716Q22 722 22 729L45 731Q45 730 46 721T50 703Q54 693 61 683T69 672L54 661Z" />
<glyph unicode="[" glyph-name="bracketleft" horiz-adv-x="640" d="M90 504L42 532L157 60L219 34L90 504ZM523 475Q492 484 460 489Q433 494 402 496T345 497Q324 495 300 489T256 476Q232 468 209 459Q234 453 260 448Q282 443 307 440T354 437Q379 437 408
443T464 456Q494 464 523 475ZM546 661Q521 681 485 695Q454 707 407 715T296 720Q230 716 182 690T102 634Q65 599 41 555L95 526Q102 559 125 588Q145 613 182 636T287 670Q310 673 343 675T409 676Q435 675 459 673T504 668Q526 664 546 661ZM452 1L239 3L139
42L15 561Q39 608 79 647Q113 680 167 708T299 741Q360 744 405 738T485 719T541 689T578 654Q611 611 614 555L452 1Z" />
<glyph unicode="\" glyph-name="backslash" horiz-adv-x="619" d="M315 438Q319 423 322 409Q324 397 324 384T318 360Q310 348 300 345T281 331Q273 323 269 314T262 296T255 280T241 266Q218 251 195 244T150 230T106 212T65 181Q55 170 50 156T43 129Q40 114
40 98L74 54Q69 71 69 88Q69 102 75 118T99 147Q120 161 141 169T183 184T224 202T265 231Q279 245 287 257T309 284Q314 289 321 295T334 306Q341 312 348 318L349 423L315 438ZM271 567Q271 576 269 586T258 597Q249 597 239 590T229 574Q229 564 231 556T242
548Q251 548 261 552T271 567ZM413 699Q364 708 317 712Q277 716 234 716T159 705Q130 695 115 674T91 632Q81 607 79 579L113 519Q118 550 134 577Q148 600 174 622T249 654Q307 665 356 656T441 632Q482 614 516 588L413 699ZM581 326Q561 275 544 232T504 152T451
86T373 32Q326 8 275 5T179 6Q128 12 79 27L27 87Q24 109 26 129Q27 146 32 164T50 194Q70 213 90 224T132 243T176 258T224 276Q237 282 243 293T252 315T257 336T265 347Q291 355 299 370T305 403Q303 422 292 444Q274 445 255 447Q238 449 218 450T178 454Q166
455 154 462T131 477Q119 486 108 497L62 568Q62 610 74 644Q84 673 108 699T179 734Q220 740 262 738T340 731Q380 725 419 716L539 600Q563 553 577 505Q589 464 593 416T581 326Z" />
<glyph unicode="]" glyph-name="bracketright" horiz-adv-x="1318" d="M424 64Q419 69 414 74T405 85Q395 99 389 117T381 141L345 145Q345 140 348 124T359 97Q361 94 365 92T372 87Q376 84 380 82L424 64ZM303 267Q300 267 288 266T260 264T230 261T207 259Q217
255 237 249T276 241Q289 240 305 241T329 244L303 267ZM299 354Q295 353 284 350T261 341T236 330T215 317Q204 308 203 295T201 276L294 288Q295 291 295 301T296 321L299 354ZM333 503Q329 501 306 493T251 472T181 441T111 405Q101 399 92 383T74 350T61 319T54
303L68 260Q67 272 69 289T82 327T112 368T167 407Q192 420 224 431T285 452T337 467T368 475L333 503ZM321 360Q320 356 317 343T313 319Q312 308 313 296T315 281L345 253Q343 262 340 280T338 313Q340 327 345 343T352 365L321 360ZM794 150Q779 169 762 195T727
249T696 306T671 357L723 542L679 555L638 416L579 537L531 510L617 344Q612 308 601 271T577 202Q563 166 547 131L583 94Q588 105 597 124T616 168T637 219T653 272Q662 249 679 222T714 169Q734 140 757 111L794 150ZM694 701Q692 701 677 704T640 708T592 708T541
697Q509 685 478 658T421 601T378 547T357 517L386 489Q389 495 402 516T434 562T478 613T527 652Q557 669 590 674T654 680T707 675T743 667L694 701ZM1129 388Q1126 368 1119 353T1092 327Q1084 322 1074 318T1053 307Q1041 301 1026 296T997 288T973 282T960
279Q957 271 953 262Q950 254 948 246T943 233Q947 233 958 234T983 238T1011 243T1038 252Q1052 258 1065 262T1091 273T1113 288T1132 311Q1136 318 1139 328T1145 347T1149 364T1151 374L1129 388ZM1108 397Q1105 398 1096 399T1074 403T1048 406T1022 406Q1013
405 1002 403T981 399T964 395T953 391Q954 387 955 377T958 353T961 327T962 303Q967 304 978 307T1001 313T1027 320T1050 327Q1069 332 1084 347Q1089 352 1093 359T1100 374T1105 388T1108 397ZM1132 505Q1130 505 1120 508T1093 516T1056 523T1016 525Q978
524 953 520T922 514L938 479Q942 480 961 483T1005 489T1061 493T1118 492Q1136 490 1152 486T1182 477L1132 505ZM1271 385Q1273 344 1264 312T1239 254T1202 209T1157 177Q1103 145 1033 132L893 121Q891 117 879 98T839 58T766 19T651 1Q598 0 558 6T489 20Q456
29 431 40L378 59Q371 63 364 68Q358 73 352 78T341 89Q336 95 333 103T327 120T324 135T322 145Q318 145 305 144T273 143T233 142T193 146Q167 150 145 161T105 184Q85 198 68 215L35 303Q43 329 52 351Q60 370 70 388T93 417Q108 429 145 446T223 481T296 512T332
527Q334 529 344 545T372 582T413 629T465 675T524 711T590 727Q605 727 624 726T660 722Q679 719 700 716L773 672Q789 665 805 655Q819 647 833 636T858 610Q876 586 892 565T912 538Q915 538 926 539T953 542T985 544T1017 545Q1037 544 1058 541T1098 532Q1119
527 1140 521L1234 467Q1244 453 1252 439Q1259 427 1264 413T1271 385Z" />
<glyph unicode="^" glyph-name="asciicircum" horiz-adv-x="604" d="M176 274Q176 273 171 277T159 286T148 295T142 298Q142 297 138 290T126 270T109 243T89 211Q66 173 37 126L65 85Q95 139 120 181Q130 199 140 216T158 246T171 266T176 274ZM119 431L86 370L123
331L147 375L119 431ZM225 342Q219 349 214 358Q209 365 204 373T195 390Q191 397 191 404T190 411Q188 411 180 414T161 422L135 434L159 385L225 342ZM521 636Q499 607 478 578Q460 553 439 525T400 473Q385 453 367 430T333 387Q315 363 297 340L313 325Q332
349 350 374Q366 395 384 419T417 465Q433 489 451 519T485 575Q503 606 521 636ZM528 737Q490 712 455 686Q424 663 391 635T332 581Q312 560 291 533T251 482Q230 454 210 425Q210 419 211 414Q212 409 212 404T215 394Q216 390 218 386T223 378Q226 374 228
370Q248 407 269 442Q287 472 310 505T356 563Q381 589 415 616T482 664Q519 689 557 711L528 737ZM586 705Q581 660 572 616Q564 578 552 536T523 461Q506 430 479 398T426 339T381 296T362 281Q362 282 367 278T379 267L396 250L342 172Q330 181 319 188Q310
194 303 199T294 205Q293 205 287 197T271 174T249 142T224 106Q194 62 157 7L58 63L16 129L125 304L70 366L116 455L192 425Q214 460 238 493Q258 522 283 553T333 609Q359 634 392 660T456 708Q491 734 529 757L586 705Z" />
<glyph unicode="_" glyph-name="underscore" horiz-adv-x="605" d="M48 442L44 68L80 43L85 414L48 442ZM442 174Q442 188 442 206T440 245Q439 285 429 325Q424 344 417 360T398 389T370 409T331 415Q355 368 368 328T387 247T394 164T395 70L437 49Q439 80 440
111T442 174ZM284 679L55 469L100 438L316 647L284 679ZM582 15Q549 14 517 13T453 12L370 56Q368 102 367 148T360 240T338 329T292 410Q267 394 251 365T227 300T215 223T212 143T214 69T219 8L98 6L15 55L24 476L290 714L571 435L582 15Z" />
<glyph unicode="`" glyph-name="grave" horiz-adv-x="1939" d="M900 702Q897 703 883 706T846 709T792 698T724 665Q693 645 674 604T643 519Q630 469 623 412L692 398L686 366L608 373Q607 337 608 303Q609 274 612 242T625 183Q640 137 660 109T703 65T748 44T789
39T819 41T833 45Q798 93 776 153Q757 204 748 272T758 422Q772 476 795 526T842 615Q869 661 900 702ZM31 377L38 396H256L259 371L31 377ZM1063 387Q1063 385 1062 363T1057 310T1045 246T1023 187Q999 144 970 108T906 48T830 15T740 17Q693 28 663 58T615 128T589
210T578 289T576 349T577 376H440L446 404L591 407Q591 408 593 425T601 467T614 523T636 584T666 641T707 683Q733 701 760 710T815 723T870 726T924 723Q960 717 980 692T1017 634Q1022 623 1027 611T1038 587Q1048 564 1053 535T1060 479T1062 433T1061 411L1088
413L1108 390L1063 387ZM1280 406L1271 425L1490 439L1496 399L1280 406ZM1684 406L1689 434L1883 440L1886 407L1684 406Z" />
<glyph unicode="a" glyph-name="a" horiz-adv-x="513" d="M334 119L300 122L298 70L334 52V119ZM265 231L181 234L192 208L256 203L343 201L346 231H265ZM66 685L57 405L49 206L91 165L100 482L106 650L66 685ZM298 344L214 349L219 322H301L298 344ZM252 510L189
529L192 436L252 439V510ZM388 504L325 501L333 425H390L388 504ZM394 703L244 718L84 703L130 655H232L282 640L367 633L437 640L394 703ZM486 32L345 25L277 61Q277 64 278 73T279 93T281 112T282 122Q282 122 270 123T238 124T195 125T152 126T118 127T100 128L28
190L40 400L45 555L50 722L239 741L397 727L483 626L488 303L486 32Z" />
<glyph unicode="b" glyph-name="b" horiz-adv-x="711" d="M274 44Q274 51 275 68T277 108T278 153T278 196T275 227T268 240Q262 240 258 229T251 200T247 163T244 124T243 93T243 76L274 44ZM405 29Q396 39 392 51Q388 59 387 67T385 80L365 78V67L362 57L405
29ZM211 597Q208 596 195 589T164 566T125 522T83 454Q71 429 66 409T57 369Q54 349 53 328T49 279Q46 248 52 215T68 153T87 105T97 83L119 61Q117 70 114 90T105 138Q100 164 94 191T86 245Q86 273 85 297T85 346T90 394T106 445Q121 482 141 506T182 545T218
567T243 577L211 597ZM186 470Q186 469 187 458T189 429T189 393T184 358Q179 343 170 326T150 295Q139 278 125 263L150 269Q162 281 173 293Q182 304 191 316T205 342Q213 359 214 382T213 426Q211 450 206 474L186 470ZM437 299Q425 283 413 278T386 271Q384
273 381 280T378 293Q379 301 386 308T396 317L375 323Q371 318 367 314Q364 310 361 306T357 296Q357 289 359 282T364 271Q360 271 353 272T341 276Q332 281 327 294T321 309L301 301Q303 294 307 287Q310 281 313 275T322 265Q330 257 343 255T362 252Q363 250
365 244T369 231T372 215T374 200Q374 193 372 185T366 169T361 157T358 151L378 136Q382 148 386 159Q389 169 391 180T394 201Q394 213 390 227T383 247Q388 248 399 250T419 258Q431 266 445 281Q452 288 458 297L437 299ZM525 150Q527 172 527 192T527 227T521
251T509 260Q501 260 496 247T488 213T484 169T482 124T481 88T482 69L509 42Q511 52 516 83T525 150ZM426 467Q426 487 409 499T359 514Q323 515 307 501T291 467Q291 447 311 433T360 419Q388 419 407 433T426 467ZM579 293Q568 306 558 318Q550 329 542 341T532
366Q529 380 532 397T541 430T551 457T558 472L531 450Q522 433 517 416Q512 402 509 386T509 355Q512 341 521 328T542 303Q554 291 570 279L579 293ZM352 599Q352 608 345 611T329 615Q321 615 315 612T309 599Q309 591 315 586T329 581Q338 581 345 585T352
599ZM325 730Q320 728 301 721T267 700Q257 692 250 679T238 652T231 628T228 614L256 593Q257 597 260 606T269 627T280 649T294 669Q307 684 327 697T355 716L325 730ZM435 593Q435 602 429 606T416 615Q408 621 401 611T393 593Q393 585 397 578T410 570Q418
570 426 577T435 593ZM623 514Q620 520 615 530T600 550T578 571T547 589Q527 597 504 604T472 613Q473 605 474 600T478 588Q483 586 503 581T540 568Q551 563 563 556T587 541T607 526T623 514ZM670 301Q670 277 669 257T665 218T658 179T650 135Q645 111 645
88T638 47Q632 28 616 17T565 5Q556 5 545 7T523 11Q512 14 500 18L474 44Q472 41 469 35T462 22T451 12T438 8Q430 8 424 8T413 9Q408 9 403 10L358 39Q357 36 355 30T349 19T336 9T316 5Q290 6 281 12T271 21L240 48Q237 45 231 39T216 26T197 14T177 8Q166 7
156 11T135 20Q124 26 113 34L81 69Q72 89 64 109Q57 126 50 146T39 184Q32 216 29 243T25 296T30 348T43 407Q59 464 85 503T136 567T182 604T207 618Q208 621 211 635T222 667T240 702T266 730Q274 735 284 738T303 745Q314 749 325 751L388 724Q397 716 406
709Q414 702 422 695T436 680Q445 669 453 654T464 634Q467 633 476 631T497 625T523 617T549 609Q585 596 606 573T638 525Q650 497 655 465Q655 463 657 447T663 406T668 353T670 301Z" />
<glyph unicode="c" glyph-name="c" horiz-adv-x="640" d="M167 193L165 218L163 237L154 238L147 223L148 202L153 174L162 156L171 173L167 193ZM398 113Q398 127 379 127Q370 127 359 125T337 123Q326 122 314 128T293 139Q281 144 269 146T244 144Q232 138
224 132T212 114Q210 107 215 102T229 93T245 87T259 83Q266 81 272 80T284 78Q310 73 329 74T372 85Q389 91 393 96T398 113ZM174 302L160 283L157 251L177 253L175 273L186 289L174 302ZM215 473Q212 471 201 463T175 445T144 422T114 399Q94 382 82 353T64 294T57
242T55 216L84 174Q84 183 85 205T92 255T105 312T129 362Q140 378 157 393T190 420T221 442T240 454L215 473ZM449 128Q447 134 441 137T427 141T412 142T400 141Q404 138 409 132T417 119Q419 112 416 104T409 90Q413 92 421 95T436 104T447 116T449 128ZM360
237Q360 257 342 267T302 275Q285 273 272 260T257 235Q255 216 273 206T311 196Q340 197 350 207T360 237ZM270 343Q269 355 263 366T243 377Q229 376 224 364T219 339Q220 328 226 316T243 309Q253 314 261 322T270 343ZM411 250Q408 261 402 267T388 275T373
278T363 278Q367 274 373 265T382 245Q384 235 381 223T375 206Q379 208 386 212T399 221T409 234T411 250ZM485 172Q485 172 485 176T485 186T484 196T483 202V219L474 220L466 199L469 171H477Q484 171 485 172ZM478 299H456L461 281L464 262L478 256L483 280L478
299ZM455 350Q453 362 445 370T424 377Q413 376 407 367T401 347Q401 335 410 327T429 316Q442 314 449 326T455 350ZM336 462L274 479L268 449L316 447L370 464L336 462ZM375 508L352 495L319 496L292 510L283 497L339 478L377 490L375 508ZM302 646L226 488L249
471L321 642L302 646ZM365 521L363 531Q362 535 361 540Q361 541 356 541T342 542T325 541T308 540L298 522L337 515Q338 515 342 516T352 518T361 520T365 521ZM345 589L317 591L315 562L353 564L345 589ZM338 621L330 627L323 609H340L338 621ZM300 736Q293 736
288 732Q283 729 279 722T274 702Q272 690 276 682T285 669Q291 663 300 660L319 657Q314 663 310 670Q307 675 304 682T302 695Q304 710 316 722Q321 728 329 734L300 736ZM595 251Q596 209 577 167T520 91T429 34T309 10Q252 8 212 25T146 63Q115 88 96 120L38
210Q38 239 41 268Q43 293 49 320T66 369Q78 393 101 414T147 453T188 481T209 494L291 654Q290 655 286 656T276 661T266 675T261 704Q261 720 268 729T287 741T310 745T333 744Q353 742 364 727T375 692Q375 685 372 678T365 663T356 651T351 645L382 546L401
476Q405 475 420 472T456 460T501 436T545 395T579 335T595 251Z" />
<glyph unicode="d" glyph-name="d" horiz-adv-x="1214" d="M453 103Q436 108 419 112Q405 116 390 120T363 127L375 85L469 57L453 103ZM359 142Q318 167 283 198Q253 224 223 258T178 335Q173 349 167 369T154 409Q147 431 140 454L56 524Q59 493 66 460Q72 432
82 400T109 342Q134 301 169 267T239 207Q278 177 320 152L359 142ZM334 437Q314 438 296 441Q279 443 261 447T228 456Q216 460 203 466T178 477Q165 483 152 490L159 468Q171 462 182 457Q192 452 203 448T224 440Q235 436 248 434T273 429Q286 426 300 424L334
437ZM948 376Q910 408 862 434Q821 456 765 474T641 492Q602 492 551 480T452 453Q397 435 341 414Q393 398 447 385Q493 374 546 364T644 351Q689 348 742 352T841 361Q895 367 948 376ZM1111 596Q1102 613 1072 629Q1046 642 997 655T863 675Q796 680 747 680T651
679T556 671T440 662Q359 656 291 639T174 601Q116 578 70 552L130 496Q156 523 197 546Q232 566 289 584T431 609Q527 616 607 625T751 641Q777 644 806 644T866 640T927 633T984 624Q1047 613 1111 596ZM1146 517Q1132 500 1116 484Q1102 470 1086 456T1055 432Q1042
424 1027 418T997 406Q980 400 964 395L980 382Q996 387 1012 393Q1026 398 1040 405T1067 420Q1081 429 1095 442T1122 468Q1136 482 1149 498L1146 517ZM1177 493Q1158 436 1133 382Q1112 336 1084 288T1020 206Q972 160 943 138T897 105Q878 94 870 94L846 28L472
31L356 72L344 129Q335 128 317 135Q302 141 278 155T215 197Q177 225 149 255T102 315T70 373T50 428Q33 488 38 546Q66 581 136 611Q166 624 208 637T309 661T442 682T612 698Q732 705 820 700T971 682T1073 650T1136 610Q1190 561 1177 493Z" />
<glyph unicode="e" glyph-name="e" horiz-adv-x="505" d="M91 212L48 257V66L91 37V212ZM174 94L157 96L155 42H178L174 94ZM157 184H141L148 127H162L157 184ZM263 97L243 95L250 61L259 43L285 48L263 97ZM100 290L58 278L103 236L148 245L100 290ZM221 186H202L216
144L228 139L221 186ZM371 78L364 99L348 98L349 64L359 51L371 52V78ZM301 192L278 197L281 176L295 139L309 136L310 174L301 192ZM244 279L243 318L224 320L230 257L250 256L251 276L244 279ZM421 182L399 181V139H422L421 182ZM152 461L150 533Q149 560 149
583T148 607Q148 608 143 611T131 619L115 629V458L117 307L157 271L152 461ZM303 323L282 325L285 279L291 265H306L303 323ZM250 408L244 424Q241 431 238 439L220 441L226 383L246 379L248 393Q249 398 249 402T250 408ZM394 288L375 286L379 255L443 257L394
288ZM306 409L304 442L282 444L283 413L291 381L306 379V409ZM207 563L213 500L233 495L236 561L207 563ZM294 558L266 561L275 503H297L294 558ZM297 685L126 673L164 633L238 631L342 643L297 685ZM467 191L469 94V25L337 14L145 0H103L29 51L27 295L103 321L98
690L299 709L379 621L370 321L394 319L476 248L467 191Z" />
<glyph unicode="f" glyph-name="f" horiz-adv-x="617" d="M455 117Q435 125 416 131Q399 136 381 140T345 147Q328 148 310 146T274 140Q255 136 235 131Q246 124 257 118Q267 113 277 108T299 99Q324 91 343 89T388 91Q399 93 410 97T432 106Q443 111 455 117ZM103
191L82 266L87 361L80 468L108 604L71 658L34 540L43 439L53 347L46 272L62 200L107 121L142 105L103 191ZM368 231Q365 238 361 244Q356 249 349 253T331 258Q319 258 312 254T301 243Q297 236 295 228Q296 222 300 217Q303 212 309 209T327 204Q340 203 348 207T361
217Q366 223 368 231ZM295 329Q289 334 279 338Q271 342 259 345T233 349Q220 350 211 348T196 344Q189 341 184 338Q189 334 196 330Q202 327 211 324T235 322Q249 322 260 323T279 326Q288 328 295 329ZM504 313Q495 317 485 321Q477 324 468 326T450 328Q443
327 436 324T423 318Q416 314 409 310Q416 304 424 300Q431 296 439 293T455 290Q463 290 471 293T487 301Q496 306 504 313ZM418 537Q397 538 376 540Q358 541 337 542T298 542Q281 541 263 539T228 533Q209 529 190 526L204 489Q223 493 241 497Q257 500 274
503T308 508Q329 510 354 509T403 506Q429 503 455 500L418 537ZM530 703L477 622L438 542L473 512L542 687L530 703ZM583 356L576 184Q570 161 562 139Q555 120 546 100T525 64Q513 51 500 43T473 29T444 18T411 7Q382 -2 359 -3T313 5Q297 7 279 13T243 28Q224
36 204 46Q187 52 170 60Q156 66 141 74T116 91Q103 98 90 116T65 155T45 197T34 231Q30 241 29 260T27 298Q26 320 27 344L20 464L16 570L64 691L177 542L296 563L425 556L471 650L535 742L569 691L599 542L583 356Z" />
<glyph unicode="g" glyph-name="g" horiz-adv-x="958" d="M35 525L32 447L82 412L87 490L35 525ZM68 603L44 542L94 509L108 561L68 603ZM176 627L82 615L120 577L207 582L176 627ZM483 384H443L450 303L488 284L483 384ZM661 261L611 263L618 126L682 69L661
261ZM611 352Q610 360 602 363T582 369Q570 371 554 371L555 336L588 335Q595 333 600 335Q611 337 611 352ZM644 325Q649 338 646 345T635 358Q627 363 616 366Q619 363 623 359Q625 355 627 350T629 337Q628 329 617 327T591 325Q575 325 555 329L554 323Q577
318 596 316Q612 314 626 315T644 325ZM591 546L228 523L226 504L635 523L591 546ZM613 646L601 565L649 537L661 606L613 646ZM687 684L625 662L672 622L731 632L687 684ZM932 65Q898 28 857 19T780 12Q738 16 696 32L597 112L594 263H488L436 291L424 376H259L82
391L16 436L23 539L63 629L181 646L221 589V539L585 563L599 674L689 700L755 627L776 518Q795 494 813 464Q829 438 848 404T885 329Q903 288 916 247T937 169T945 105T932 65Z" />
<glyph unicode="h" glyph-name="h" horiz-adv-x="1381" d="M240 333Q239 333 226 331T192 326T149 320T105 313T71 308T56 306Q53 303 57 293T70 271Q73 265 76 259T82 248Q85 243 88 238L282 255L240 333ZM463 653L266 334L298 269L529 592L463 653ZM778 666Q763
643 746 621Q732 602 714 582T677 546Q666 537 657 532T642 525Q635 522 629 522Q628 521 634 515T649 501T671 487T694 482Q709 483 720 490T742 507T761 529T783 554Q792 563 802 575T820 598Q830 610 839 623L778 666ZM1250 309L1060 299L1102 228L1307 239L1250
309ZM1336 243Q1335 239 1331 221T1307 178T1247 126T1137 74T961 33T703 14Q604 12 524 20T380 41T269 73T186 111Q104 156 65 215L11 318L253 361L458 686L552 604L610 537Q616 538 623 541Q629 543 638 547T658 560Q672 569 693 591T733 637Q755 664 778 695L873
626L1051 321L1258 337L1336 243Z" />
<glyph unicode="i" glyph-name="i" horiz-adv-x="1523" d="M194 128Q168 147 149 171Q132 191 118 218T104 276Q104 299 112 320T130 358Q141 377 156 396L109 385Q98 368 87 350Q78 334 70 314T57 274Q50 238 59 212T82 168Q98 148 120 134L194 128ZM294 228L285
219Q281 215 277 210T270 201Q264 193 257 184T240 173T216 176T180 207Q171 217 167 227T163 248T162 272T162 302Q161 318 167 333T186 357T215 368T254 361Q258 358 264 364Q267 367 269 370Q265 380 255 387Q247 393 233 396T195 394Q167 388 154 369T131 324Q120
294 124 270T143 216Q156 190 170 171T214 148Q232 146 246 147T275 164Q281 170 287 178T299 193Q305 201 312 210L294 228ZM931 250Q912 260 894 270Q878 278 860 287T826 302Q803 311 785 317T748 329T710 336T666 339Q649 339 636 335T610 327T584 321T555
321Q543 323 530 329T506 342Q494 349 482 358L472 342Q481 334 491 328Q499 323 509 317T528 308Q546 301 562 302T594 308T626 317T663 321Q684 320 701 319T735 314T768 305T805 293Q824 286 846 276T886 254Q907 242 928 228L931 250ZM1344 581Q1339 582 1330
588T1311 601T1291 614T1272 624Q1268 625 1260 626T1242 628T1225 629T1213 631Q1190 638 1176 645T1151 660T1129 673T1100 684Q1074 691 1055 694T1009 697Q976 696 954 688T900 668Q880 662 865 655T836 640T806 626T771 613Q758 609 747 608T726 605T705 602T682
594Q667 587 657 577T638 557T619 537T592 524Q564 517 540 514T488 493Q465 479 453 464T420 431Q397 414 381 403T340 379Q332 374 322 370T303 362Q292 358 282 354V336Q301 338 319 342Q335 345 352 350T383 364Q402 376 411 390T439 419Q465 440 485 453T537
478Q549 483 560 484T583 487T604 491T626 499Q641 508 652 519T672 540T693 560T722 576Q738 582 752 582T781 581T810 578T842 582Q858 586 869 592T892 606T915 620T943 631Q965 637 984 639T1021 640T1058 637T1100 631Q1117 629 1130 626T1157 619T1183 612T1214
604Q1232 600 1246 598T1275 594T1303 588T1335 576Q1339 575 1339 577T1344 581ZM1032 554Q1007 534 977 512T918 470T862 433T817 407L823 385Q853 400 883 418T943 458T1000 500T1048 542L1032 554ZM1365 422Q1343 417 1322 411Q1304 406 1283 400T1245 388Q1223
381 1213 371T1191 352T1160 338T1100 333Q1086 333 1070 337T1040 346Q1024 351 1008 358L1005 339Q1019 333 1033 328Q1045 323 1058 320T1085 314Q1111 310 1129 310T1174 318Q1190 322 1201 330T1223 346T1245 364T1272 379Q1285 384 1301 388T1331 395Q1348
399 1365 401V422ZM1488 358Q1486 327 1477 301T1459 256Q1430 227 1388 196T1312 139Q1294 126 1275 113T1233 91T1187 75T1135 70Q1127 70 1118 71T1101 74Q1091 76 1082 78L1076 66Q1073 61 1070 56T1063 47Q1051 36 1039 34T1012 27Q994 23 979 23T949 26T919
33T885 41Q867 44 853 46T824 52T796 58T765 68Q737 77 717 90T678 118T638 144T589 163Q564 169 546 169T503 173Q479 176 464 179T434 185T397 192T340 201Q337 201 330 193T313 173T289 149T263 129Q246 119 222 117T175 114Q149 114 120 117Q109 123 99 129Q91
134 83 140T70 151Q47 178 39 205T33 269Q34 291 44 314T69 358Q84 381 104 403Q125 406 143 409Q159 411 175 413T199 415Q207 414 223 411T254 405Q272 401 292 396Q305 399 319 403Q330 406 343 410T368 419Q388 429 401 442T426 468T451 495T485 518Q500 525
513 527T540 532T566 537T595 548Q611 556 625 569T652 596T673 618T688 628Q718 630 736 632T770 639T799 650T835 665Q849 671 859 677T880 691T900 704T926 715Q947 722 969 725T1011 729T1049 729T1078 726Q1091 724 1101 720T1121 711T1140 701T1162 690Q1182
682 1196 676T1232 665Q1244 662 1268 650T1317 622T1363 588T1391 558Q1416 544 1428 526T1457 478Q1475 446 1482 420T1488 358Z" />
<glyph unicode="j" glyph-name="j" horiz-adv-x="538" d="M418 100Q417 109 410 113T394 119T375 121T358 120Q355 120 350 120T342 119Q332 120 320 116T299 104T284 88T282 75Q287 66 295 63T312 60Q321 60 330 61T349 65Q360 67 371 67T394 72Q405 75 412 81T418
100ZM323 706Q319 701 307 687T280 653T250 611T223 569Q212 550 204 534T188 502T175 469T163 430Q158 414 157 399T153 367Q152 353 150 338T140 305Q135 292 133 283T126 265Q122 257 115 247T91 223Q81 215 75 201T66 174T61 149T59 135L110 77Q113 82 120
94T135 123T151 158T166 193Q173 213 175 232T180 272Q181 291 183 310T194 353Q204 380 214 401T237 443Q250 462 265 480T298 522Q309 535 323 550T349 578T372 601T385 614L323 706ZM359 484Q359 483 357 475T352 456T346 432T338 409Q335 401 331 396T323 385Q309
368 296 356T277 320Q273 306 273 289T275 258Q277 240 280 224L295 214Q293 231 293 249Q293 264 293 280T298 310Q302 327 309 338T324 361Q334 373 342 385T357 411Q361 420 365 431T374 454Q378 466 382 479L359 484ZM508 106Q508 86 498 73T473 51Q456 41
438 35T403 21Q380 12 364 10T329 8Q312 9 291 10T240 10Q218 8 194 14T150 29Q126 39 102 51L30 134Q35 152 40 170Q45 185 51 202T65 233Q71 244 78 252T94 269Q102 277 108 285T120 306Q132 332 131 354T131 403Q131 411 132 419T136 438Q144 465 152 486T171
527Q182 546 194 565T222 608Q235 628 252 652T286 696Q304 720 324 742L423 610L430 520Q431 518 436 505T448 472T461 432T472 391Q477 369 478 351T481 315Q482 298 482 280T482 239V172Q483 170 487 163T496 147T504 127T508 106Z" />
<glyph unicode="k" glyph-name="k" horiz-adv-x="436" d="M88 145Q83 142 70 134T48 115Q39 104 34 87T26 64L34 54Q36 64 40 78T53 102Q62 114 78 123T105 137L88 145ZM253 571Q252 566 252 556T249 533Q247 518 245 503T239 475Q233 453 227 436T213 403T197
369T180 329Q171 306 159 280T136 229T115 187T101 161L119 150Q122 158 130 177T148 221T169 272T189 322Q198 344 206 362T222 397T237 433T253 476Q264 507 264 532T262 565L253 571ZM268 686Q257 683 249 674T237 653T231 629T234 606Q238 596 242 593L255
585Q248 596 243 614T247 652Q253 663 262 670T280 682L268 686ZM381 690Q378 690 372 690T361 687Q355 685 350 680T340 669T332 658T328 649L333 639Q338 648 345 660T360 678Q366 681 373 682T386 684L381 690ZM413 610Q408 598 396 591T378 581Q376 575 370
556T357 512T341 459T326 408Q319 385 314 367T304 331T293 294T279 253Q274 238 268 221T255 187T245 159T239 143Q240 139 244 127T250 100T252 69T244 41Q235 25 223 20T198 14T177 17T163 22Q160 19 153 14T135 3T113 -4T87 -5Q78 -3 69 2T51 13Q41 19 33 27L8
61Q11 73 15 84Q18 94 22 104T32 123Q43 137 60 150T82 166L163 335Q173 357 184 382Q193 403 203 428T223 478Q228 490 230 505T234 537Q236 551 236 562T237 578Q217 594 214 613T219 654Q226 675 235 685T254 698T269 702T276 701L304 692L310 686Q312 683 314
680T319 674Q321 670 321 669Q326 676 333 685T349 699Q354 702 360 703T373 705Q380 706 387 706L409 681Q412 666 414 653Q416 642 416 630T413 610Z" />
<glyph unicode="l" glyph-name="l" horiz-adv-x="1339" d="M212 81L215 51L234 42L238 72L212 81ZM430 53L401 56L399 42L430 34V53ZM219 95Q199 108 176 127Q156 144 137 164T108 205Q99 224 94 251T87 305T84 350T83 375Q83 378 83 388T85 412T88 441T91 468Q93
482 96 499T103 532T109 561T114 581L75 591Q73 579 68 551T59 486T52 412T53 341Q55 319 57 300T62 264Q65 247 70 231T85 195Q96 175 112 159T144 129Q159 117 171 110T185 101L219 95ZM93 714Q88 712 72 704T46 683Q39 675 34 663T26 645L64 627Q66 637 72 655T89
683Q99 691 116 692T148 692L93 714ZM567 598Q548 598 530 600T509 603Q506 601 492 592T459 566T417 530T375 486Q366 475 351 451T318 395T283 329T253 265Q243 242 227 239T201 238Q203 231 207 223T231 214Q237 215 244 216T260 222T276 235T289 259Q295 275
305 292T325 328Q345 366 366 403T409 465Q451 515 490 550T567 598ZM917 72H892L894 53L922 45L917 72ZM1209 695Q1204 693 1195 697T1182 701Q1180 696 1174 672T1162 615T1150 548T1143 489Q1143 478 1141 462T1135 429T1127 396T1118 367Q1110 344 1100 328T1080
299Q1075 293 1071 289T1063 279Q1076 291 1093 310T1128 355T1159 413T1181 484Q1185 508 1190 540T1199 603T1206 659T1209 695ZM1271 469Q1263 427 1252 395T1226 332Q1212 302 1196 271T1160 198Q1146 169 1123 149T1076 116T1032 95T1004 86L1007 24L934 21L875
40L871 69Q863 68 843 65T797 59T744 53T692 48Q668 46 640 46T585 47T539 49T510 50L506 14L443 10L381 27L380 52L314 56L305 18L250 14L199 39L195 84Q192 86 179 89T157 97Q100 132 68 186T31 308Q30 329 29 352T27 399Q28 422 30 445T39 488Q43 504 45 522T49
555T50 583T50 601Q47 603 41 606T29 615Q22 620 14 626Q13 631 11 636Q9 641 8 645T8 655Q10 673 23 688T52 714Q70 726 93 737L179 698Q186 688 191 677Q196 668 199 657T201 635Q197 595 192 552T186 455Q186 409 190 364T197 273Q198 268 198 265T199 260Q201
257 207 257T215 257Q226 257 234 272Q238 280 240 288T246 305Q259 338 277 372T312 436Q343 487 377 522T440 580T488 614T507 625H538Q551 625 565 625T593 623Q633 620 669 609T736 577T787 529T818 465Q828 425 845 386T883 316T928 268T975 256Q1009 263
1031 279T1068 318T1092 367T1108 422Q1119 467 1124 517T1141 612Q1143 622 1147 640T1157 676Q1162 697 1167 720Q1179 718 1190 716Q1200 714 1211 712T1234 707Q1265 701 1277 676T1291 616T1285 542T1271 469Z" />
<glyph unicode="m" glyph-name="m" horiz-adv-x="1223" d="M114 425L58 353L84 331L144 418L114 425ZM352 64Q349 84 346 104Q344 121 342 140T338 177Q336 205 337 224T336 272Q334 294 336 311T326 345Q318 354 312 362T293 369Q284 368 284 362T289 348T299
330T306 312Q309 293 309 277T309 246T308 215T309 180Q311 165 314 148T320 115Q324 97 328 80L352 64ZM195 616Q181 606 170 595Q160 586 150 574T134 551Q127 537 125 520T123 486Q123 468 125 448L145 441Q141 460 140 479Q139 495 140 513T149 545Q154 556
164 567T186 586Q198 596 211 604L195 616ZM287 516Q287 522 281 525T269 528Q263 528 258 525T253 515Q253 509 258 507T269 504Q275 504 281 507T287 516ZM239 713L211 637L231 631L258 704L239 713ZM276 693L253 626L295 624L276 693ZM814 104L809 197L807 269H777L769
153L774 85L817 45L814 104ZM822 489L720 477L574 485L466 483L480 462L572 464L725 456L842 450L822 489ZM1068 523Q1058 537 1040 545Q1024 552 998 554T931 548Q917 544 902 536T873 520Q858 510 844 499L872 454Q883 468 895 481Q906 492 918 503T944 521Q961
529 981 530T1022 529Q1044 527 1068 523ZM1185 370Q1187 352 1184 331T1175 291Q1170 269 1163 248Q1154 238 1148 230Q1142 223 1138 217T1133 210Q1133 209 1128 221T1116 247Q1108 264 1099 285L1034 339Q1027 333 1020 327Q1007 316 993 307Q987 302 980 299T965
291Q957 287 950 283Q946 260 942 238Q938 219 934 198T925 158Q920 137 920 117T917 78T907 45T881 19Q865 10 855 8T836 6T821 11T803 20Q783 28 772 42T756 75T748 115T744 158Q742 175 745 195T752 233Q756 253 763 274H688L633 269L585 278L488 277L448 84Q448
67 441 54Q435 43 421 33T380 24Q351 24 335 39T309 78T295 129T285 185Q282 199 282 211T284 234T286 258T285 285Q283 296 281 309T275 335Q271 348 268 362L211 318L141 259L85 285L30 351L106 447Q103 473 105 499Q106 521 111 544T128 585Q134 594 144 603T164
619Q175 627 187 635L207 683L241 734L295 708L320 618Q336 611 352 603Q366 596 380 588T407 570Q416 562 426 552T445 533Q455 522 465 512L599 501L739 496L819 502Q839 519 859 534Q876 547 897 558T939 575Q953 578 969 579T1000 579Q1017 578 1034 577L1117
510Q1135 486 1149 462Q1161 441 1172 417T1185 370Z" />
<glyph unicode="n" glyph-name="n" horiz-adv-x="1553" d="M195 483Q174 469 156 453Q140 439 125 423T100 391Q84 364 79 334T72 277Q71 246 75 217L134 138Q123 177 119 213Q115 244 117 276T135 329Q157 358 178 376T217 406Q236 419 254 427L195 483ZM511
216H456Q433 216 407 216T357 219Q340 220 320 221T283 224Q263 226 242 228L233 204Q260 201 286 198Q309 196 335 194T384 190Q402 189 423 189T463 191Q484 192 506 193L511 216ZM562 726Q520 722 480 716Q445 710 406 701T337 676Q304 659 280 631T239 575Q220
542 207 507L251 459Q271 492 293 522Q312 548 336 574T387 616Q416 633 455 642T531 656Q573 660 617 660L562 726ZM947 133Q964 176 966 218Q967 236 964 255T953 294T931 332T894 367Q843 402 799 408T721 407Q681 398 648 376L663 350Q693 373 728 382Q757
390 795 385T876 347Q919 312 929 276T934 210Q928 175 906 142L947 133ZM1101 83Q1092 76 1083 70Q1075 65 1066 61T1048 56Q1039 55 1029 59T1010 68Q999 73 990 80L974 59Q987 50 1001 43Q1013 37 1027 32T1054 27Q1068 27 1082 34T1109 51Q1123 62 1137 74L1101
83ZM932 450Q932 468 923 485Q915 499 898 515T846 542Q832 546 817 549T787 555Q770 558 754 560L757 524Q774 526 790 526Q804 526 819 524T846 516Q857 510 867 499T886 477Q895 464 903 450H932ZM869 783Q843 785 820 787Q800 789 780 790T745 789Q722 786
696 778T648 761Q622 750 597 738L657 658Q678 673 701 686Q721 697 743 707T787 723Q809 728 836 729T887 728Q914 726 942 722L869 783ZM1291 370Q1272 363 1254 357Q1238 352 1220 346T1187 335Q1170 330 1150 327T1112 322Q1091 319 1071 317Q1068 309 1068
302V293Q1089 298 1111 302Q1129 305 1150 307T1190 311Q1228 312 1251 317T1287 330Q1302 338 1308 347L1291 370ZM1443 288L1425 294L1421 249L1449 223L1451 249L1443 288ZM1293 606Q1275 618 1257 629Q1242 638 1225 646T1196 657Q1175 662 1151 661T1107 656Q1083
652 1060 647L1084 600Q1108 603 1133 604Q1154 605 1177 604T1220 598Q1240 592 1260 581T1299 557Q1319 543 1340 527L1293 606ZM1480 176Q1465 131 1433 90Q1406 55 1358 19T1232 -39Q1186 -52 1126 -58T1006 -64T893 -58T808 -39Q781 -28 751 -9T694 31Q664
54 635 80Q601 72 567 65Q537 59 502 53T434 44Q372 39 316 50T215 77Q164 95 120 119L55 196Q50 221 47 247Q45 270 45 297T52 350Q60 379 80 406T124 454Q150 479 181 501Q185 537 203 573Q218 604 248 638T331 699Q363 716 405 726T485 743Q529 750 574 754Q613
776 653 792Q687 806 727 816T802 821Q813 819 826 816T853 811Q868 807 883 805L990 714Q993 709 997 704Q1004 693 1012 687Q1016 683 1020 680T1030 674Q1035 670 1041 667Q1070 682 1104 688Q1133 693 1171 691T1253 668Q1264 662 1275 654T1295 638Q1306 629
1315 619L1406 462Q1413 449 1419 438Q1424 427 1429 416T1436 394Q1438 385 1438 374T1439 354V332L1449 324Q1453 320 1457 317T1463 308Q1468 296 1468 283Q1468 276 1467 268L1480 176Z" />
<glyph unicode="o" glyph-name="o" horiz-adv-x="686" d="M159 92L150 73L159 56L186 70L159 92ZM177 301L158 288L167 261L185 276L177 301ZM493 122L476 105L493 88L509 100L493 122ZM466 678Q422 706 376 717Q356 721 335 722T291 720T246 703T202 670Q181
649 162 611T126 533T99 455T84 396Q78 363 78 337T81 286T89 233T99 171Q101 159 98 145T90 118Q85 104 79 90L101 65Q109 83 114 109Q118 131 119 162T113 237Q107 269 109 298T117 357T132 418T150 484Q158 516 169 543T195 592T233 633T285 666Q309 677 340
681T399 684Q432 683 466 678ZM233 528L207 523L209 492L211 467L229 479L226 497L236 504L233 528ZM509 362Q509 436 492 476T455 537Q431 560 402 565Q422 547 438 519Q452 495 462 457T471 362Q470 327 463 288T446 215Q435 175 422 137L427 90Q450 136 468
184Q483 225 496 272T509 362ZM554 276L532 259L552 249L567 261L554 276ZM304 623L287 626L285 612L300 594L317 612L304 623ZM567 416L552 396L562 384L584 394L567 416ZM537 553L522 536L540 514L554 536L537 553ZM449 639L434 629L444 617L471 624L449 639ZM630
416Q633 374 624 328T602 240T573 163T549 105Q546 97 548 89T556 73Q561 64 569 56Q561 41 551 30Q543 20 532 11T509 0Q492 -3 477 6T447 29Q431 44 417 65L398 137Q406 159 414 180Q421 198 427 219T439 259Q458 348 449 407T420 503Q397 544 363 568Q343 562
324 544Q307 529 289 502T253 428Q237 384 232 345T227 268T228 192T229 110Q228 82 224 62T204 19Q199 13 194 7T183 -4Q177 -10 170 -15L104 29L60 88Q69 103 74 118Q79 131 81 145T82 173Q74 208 68 236T59 290T57 344T64 406Q75 467 93 526T142 633T217 710T324
744Q361 746 402 731T478 696Q518 673 557 644Q575 605 591 565Q604 531 616 491T630 416Z" />
<glyph unicode="p" glyph-name="p" horiz-adv-x="423" d="M318 157H266L263 129Q264 129 279 130T305 129Q310 128 315 128T325 126Q330 125 337 123L318 157ZM327 721Q308 725 290 727Q274 729 256 729T223 724Q163 706 138 664T106 548Q103 518 100 494T93 446T87
399T81 345Q79 317 78 284T74 222Q72 188 71 154L105 110V148Q105 164 105 181T108 211Q113 245 117 267T119 316Q117 342 117 370T121 432Q127 469 128 502T135 566Q140 596 154 623T200 675Q221 691 247 695T296 697T335 691T352 686L327 721ZM396 568Q387 552
369 542T331 525T296 517T281 515V445Q281 415 281 381T278 318Q276 297 275 272T271 224Q268 198 266 173L323 179Q324 178 328 173T339 161T351 146T361 130Q366 119 371 108T380 85Q382 74 382 63T378 39Q371 18 355 8T319 -5T275 -6T229 0Q211 3 192 12T157
33Q139 45 121 61L53 143L50 239L73 470Q78 512 83 547Q88 577 93 606T103 646Q121 687 149 708T219 742Q236 747 256 747T296 744T328 738T343 734L384 687Q385 685 390 672T399 641T403 603T396 568Z" />
<glyph unicode="q" glyph-name="q" horiz-adv-x="816" d="M123 43Q111 146 107 251T107 460L63 503V254Q63 210 64 167T67 80L123 43ZM278 298V314Q278 319 277 327T274 342T267 355T255 361Q245 361 237 355T222 340T212 321T208 302V281Q208 273 208 265T210
254L227 252Q250 252 264 263T278 298ZM342 299Q342 323 327 342T287 366Q293 354 295 334T297 301Q297 263 272 250T211 241Q226 230 244 222T280 213Q296 213 308 221T327 242T338 270T342 299ZM537 160Q537 167 530 171T514 177T496 180T482 181Q471 181 464
175T457 157Q457 142 467 139T488 135Q495 135 503 135T519 137T532 145T537 160ZM143 594Q143 557 131 536T80 509L119 474Q151 489 164 508T183 563L143 594ZM612 142Q612 151 605 157T587 169T567 177T549 181Q549 172 552 163T556 145Q556 134 545 129T518
121T487 118T462 118Q508 103 552 103Q562 103 572 104T592 110T606 122T612 142ZM345 616L160 609L194 577L378 591L345 616ZM489 596Q495 572 495 550Q495 526 482 510T449 481Q452 479 455 479T461 478Q474 478 484 487T501 510T514 537T523 562L489 596ZM626
457Q626 464 621 470T608 476Q600 476 595 470T585 455T579 437T577 422Q577 417 580 412T589 406Q596 406 602 412T614 426T622 442T626 457ZM671 433Q671 447 662 457T639 472Q639 458 637 445T628 420T610 401T582 393Q592 386 602 382T623 378Q643 378 657
395T671 433ZM713 613L505 602L533 576L732 583L713 613ZM796 19Q631 13 468 9T138 3L42 73V523Q89 530 106 555T123 626L360 631L401 595Q401 584 402 568T408 537T422 511T445 500Q458 500 465 514T474 548T477 586T475 613L724 631L764 575L759 326Q752 322
742 316T723 301T708 284T702 265Q702 253 710 242T731 223T756 209T781 199L796 19Z" />
<glyph unicode="r" glyph-name="r" horiz-adv-x="1518" d="M411 416Q396 416 381 415Q368 414 354 413T328 409Q303 402 286 395T248 370Q235 359 226 351T209 327Q207 324 207 321T205 314Q204 310 204 307Q198 314 193 321Q188 327 185 334T180 348Q179 362
191 372T217 391Q234 400 255 407Q274 416 292 423Q308 429 326 434T360 438Q368 437 376 436T392 433Q401 431 410 429L411 416ZM439 139L375 121L379 106Q395 106 410 109Q423 111 437 115T462 126Q469 131 476 137T489 151Q496 159 502 168L504 190L439 139ZM506
276Q490 262 473 250Q459 239 442 228T410 208Q396 200 379 194T345 183Q327 177 308 172L311 154Q331 159 351 164Q368 169 387 175T422 190Q437 198 453 211T484 236Q500 250 515 265L506 276ZM481 355Q466 338 450 322Q436 308 419 293T386 268Q369 257 346
248T302 232Q277 224 253 218V210Q280 215 306 222Q329 228 353 237T397 257Q414 266 431 280T462 308Q479 324 495 341L481 355ZM433 436Q430 443 412 447T369 451T316 445T266 430Q246 421 226 412T190 390T165 363T158 325Q162 298 186 291T242 287T301 299T342
317Q361 329 381 341T415 368T436 399T433 436ZM484 587Q433 583 385 575Q343 568 297 556T215 525Q191 512 166 493T118 456Q92 435 69 412L91 401Q113 423 137 442Q157 459 181 475T229 503Q255 515 278 521T323 531T369 534T422 534Q439 533 457 531T493 527Q512
524 532 520L484 587ZM766 591L745 582L760 512L787 527L766 591ZM1413 711Q1396 709 1379 708Q1365 706 1349 706T1318 703Q1303 701 1286 700T1252 696Q1234 694 1216 692Q1180 698 1144 702Q1113 706 1078 708T1012 711Q977 711 948 709T892 704T835 695T772
681Q734 672 691 657T609 626Q565 608 521 590L557 543Q615 564 674 583Q725 599 783 615T892 641Q924 647 950 649T1001 654T1052 658T1110 663Q1131 665 1147 663T1180 658T1212 651T1249 649Q1264 650 1275 651T1298 655T1321 659T1347 663Q1363 665 1382 666T1418
669Q1437 670 1457 671L1413 711ZM1259 628L1240 634L1250 600L1271 594L1259 628ZM1500 547Q1494 540 1471 538T1421 536T1372 537T1347 539Q1332 541 1315 547T1284 562Q1267 570 1252 580Q1221 580 1190 578Q1164 576 1134 574T1078 569Q1033 563 996 557T924
541T854 520T775 492Q748 481 717 468T659 440Q627 424 597 408Q601 376 603 344Q605 317 604 287T597 230Q590 200 584 172T569 120T543 76T499 41Q474 27 445 23T388 20T337 29T302 48Q264 81 238 102T193 138T161 164T138 187T118 216T95 259Q84 282 76 309T62
363Q55 392 51 423Q62 433 73 443Q83 451 94 460T115 478Q136 493 153 504T188 524T225 542T268 560Q300 573 327 579T382 589T437 598T499 612Q540 623 572 636T635 662T698 686T772 707Q803 713 839 716T911 721T985 723T1055 722Q1133 719 1212 711Q1236 716
1258 720Q1277 724 1297 727T1332 732Q1346 734 1363 734T1396 732Q1414 731 1431 729L1496 641Q1503 622 1507 604Q1510 589 1510 573T1500 547Z" />
<glyph unicode="s" glyph-name="s" horiz-adv-x="1042" d="M232 22Q184 73 184 143Q184 158 186 173T194 203L173 212Q168 204 165 199T158 186Q154 178 152 168T149 143Q149 121 153 101T167 65T193 38T232 22ZM203 219Q199 260 186 278T159 305Q152 310 145
314T133 325Q128 331 124 338T119 360L81 373L78 360Q81 343 90 336T111 320Q116 316 121 313T131 306Q152 292 166 278T183 242Q183 236 181 232Q180 229 179 228L203 219ZM186 431L148 436Q140 419 132 412T115 400Q110 398 102 395T88 388L128 376Q139 385 154
390Q160 392 166 394T178 399Q189 405 193 415L186 431ZM331 705Q329 708 322 713T307 723T292 732T281 737Q266 740 253 740Q220 740 183 722T114 676T63 612T42 543Q42 526 46 515T61 489L115 466Q101 481 92 500T83 539Q83 558 92 575Q128 651 187 684T331 705ZM914
492Q867 490 824 478T738 449T655 412T572 375Q515 352 458 331T344 289L359 276Q383 285 416 297T489 325T572 356T660 388Q703 403 745 417T825 442T894 460T946 467L914 492ZM1019 362Q1019 345 1011 329T990 298T962 274T931 257Q930 257 903 246T831 217T729
177T610 131Q549 107 489 85T380 45T297 17T253 6Q193 6 160 43T127 140Q127 158 132 174T146 204Q150 210 153 216T159 227Q165 236 165 240Q165 249 161 256T148 271Q143 274 139 277T130 285Q118 293 104 302T79 322T61 347T53 378Q53 389 61 393T77 401Q85
404 93 406T109 413T122 424T127 442Q107 450 87 459T47 473Q38 487 30 505T22 541Q22 580 44 618T99 686T173 735T252 754Q276 754 307 739T366 701T414 649T434 596Q434 570 422 556T396 532Q382 521 371 510T359 479Q359 466 363 454T368 428Q368 410 359 397T340
370Q334 362 331 354T327 334Q327 327 327 320T329 306Q388 328 446 349T562 393Q609 411 652 430T738 467Q782 484 827 496T925 512L985 464Q996 443 1007 415T1019 362Z" />
<glyph unicode="t" glyph-name="t" horiz-adv-x="1308" d="M67 285L37 256L100 175L131 208L67 285ZM467 195L89 285L141 226L556 137L467 195ZM580 135Q579 137 566 156T535 203T494 266T453 333T419 391T402 430Q395 457 393 491T389 557Q388 593 389 631L353
656Q348 608 348 560Q348 519 352 474T370 392Q381 361 398 330T432 272Q451 241 472 212L580 135ZM1195 233Q1182 228 1168 223Q1156 218 1141 213T1108 204Q1084 198 1053 194T995 186Q963 182 931 180L915 129Q951 131 987 135Q1018 138 1053 141T1117 149Q1137
151 1159 160T1201 178Q1224 189 1247 202L1195 233ZM989 694L687 685H367L398 660H714L1047 662L989 694ZM1094 463Q1095 477 1091 480T1080 480Q1075 478 1070 474T1057 467Q1046 463 1037 452T1036 429Q1043 421 1053 423T1072 431Q1077 434 1080 433T1086 434Q1089
436 1090 442T1094 463ZM1146 478Q1141 486 1136 487T1119 487Q1108 485 1107 481Q1107 476 1109 472T1111 462Q1111 457 1110 453T1114 446Q1118 444 1125 446T1139 454T1147 465T1146 478ZM1264 97Q1261 94 1233 79T1141 46T970 14T703 0Q627 0 554 10T416 35T295
68T198 101T133 127T107 139L1 256L58 315L256 265L446 218Q423 250 403 283Q386 311 369 344T342 407Q329 447 326 497T324 592T329 670T334 710L687 707L1000 718L1071 674L1085 586Q1085 586 1096 590T1125 597T1162 601T1201 594T1234 569T1255 518Q1260 487
1251 462T1224 417T1180 378T1127 343Q1107 330 1079 321T1024 306T980 298T961 295L945 204Q975 205 1005 209Q1031 212 1059 216T1111 226Q1148 235 1167 245T1195 259L1274 205L1264 97Z" />
<glyph unicode="u" glyph-name="u" horiz-adv-x="1275" d="M550 43Q542 66 534 90Q526 110 518 132T500 174Q492 190 482 208T463 243Q452 261 441 279L415 276Q428 258 439 240Q449 224 459 206T477 171Q485 153 491 131T503 89Q509 66 514 43H550ZM1168 641Q1171
641 1159 642T1127 643T1084 644T1043 641Q1010 635 986 626T939 604T893 573T838 534Q811 516 791 503T752 479T713 460T669 443T612 425T536 404Q484 390 442 380T360 358T280 328T191 282Q168 268 147 246T108 201Q89 175 71 147L111 87Q130 117 152 145Q170
169 193 194T241 237Q269 256 294 269T344 290T398 304T461 312Q504 316 527 319T566 326T596 334T636 347Q672 358 700 369T754 394T808 421T868 454Q898 470 920 487T963 521T1008 552T1065 574Q1084 579 1108 581T1152 584Q1176 585 1200 584L1168 641ZM1078
49Q1078 83 1077 116Q1076 145 1075 178T1073 239Q1071 278 1058 301T1031 335Q1014 348 993 352Q1003 329 1011 306Q1018 286 1024 263T1035 219Q1038 198 1038 173T1038 125Q1037 99 1035 74L1078 49ZM1198 148L1096 158L1089 135L1198 131V148ZM1215 429L1205
309L1203 214L1215 157L1213 34L1090 19L1005 67Q1007 92 1008 117Q1009 138 1008 162T1005 207Q1002 230 995 255T981 304Q972 330 963 357Q934 354 907 350Q884 345 858 338T813 319Q794 307 781 295T757 268T737 237T716 202Q701 178 689 148T669 89Q659 56
651 24H451L249 32H121L39 142Q54 167 71 191Q85 211 103 233T139 272Q166 296 192 310T245 334T301 352T364 374Q404 390 438 400T505 420T572 439T648 464Q701 483 738 500T801 534T847 565T883 593T918 618T961 639Q1015 659 1054 666T1121 673Q1153 673 1175
666L1230 584L1215 429Z" />
<glyph unicode="v" glyph-name="v" horiz-adv-x="1636" d="M625 429Q589 430 554 429Q524 428 490 426T426 418Q394 412 374 404T333 387T287 366T220 341Q173 325 143 291T96 221Q76 180 67 132L94 101Q119 141 147 178Q171 209 202 241T266 292Q300 311 330
322T392 338T456 344T529 345Q549 345 572 343T616 337Q640 333 664 330L625 429ZM474 318L448 314L533 162L550 170L474 318ZM600 305L567 314L668 200L676 212L600 305ZM1508 255Q1489 247 1471 241Q1455 235 1437 230T1403 221Q1387 218 1369 216T1335 213Q1317
212 1297 212L1229 255Q1172 240 1116 227Q1068 215 1012 203T909 179Q852 166 806 154T716 130T625 111T520 98Q465 93 400 95T277 102Q210 107 144 115L128 94Q198 85 268 79Q328 74 397 71T524 73Q582 77 629 85T722 103T813 125T917 149Q964 159 1019 172T1122
197L1234 225L1289 187Q1310 188 1331 190Q1349 192 1369 194T1407 200Q1423 202 1442 206T1478 215Q1497 219 1517 225L1508 255ZM735 322L714 314L799 208L816 221L735 322ZM1259 162L1148 166L1144 151L1262 109L1259 162ZM1236 674L842 479L670 414L694 338L1049
487L1312 601L1236 674ZM1282 552Q1270 521 1253 494Q1239 471 1217 449T1166 415Q1131 402 1095 402T1028 407Q993 412 959 424L921 407Q955 392 995 384Q1030 377 1076 377T1175 390Q1216 401 1242 430T1285 490Q1303 526 1313 568L1282 552ZM1416 605L1271 672L1330
609L1418 555L1416 605ZM1289 63L1113 135V162Q1082 148 1051 135Q1025 124 995 112T938 90Q901 77 871 66T810 45T749 30T678 21Q630 18 593 18T521 18T450 20T369 21Q337 21 314 20T267 18T217 17T151 21Q140 22 130 28T112 41Q102 49 94 59L45 120Q44 150 52
181Q59 207 75 238T125 296Q146 313 164 326T200 350T239 370T285 391Q310 402 332 409T375 422T418 432T468 441Q491 445 510 447T548 449T586 450T629 452Q670 453 689 453T718 453T733 456T750 465T787 483T861 513Q919 535 985 568T1108 631Q1174 666 1239
704L1419 635L1472 521Q1481 496 1490 471Q1498 450 1505 426T1518 380Q1523 359 1527 334T1534 286Q1538 260 1541 235L1591 124L1289 63Z" />
<glyph unicode="w" glyph-name="w" horiz-adv-x="1296" d="M113 182L68 185L66 135L113 108L153 155L113 182ZM214 148Q194 144 177 138Q163 133 151 125T138 103Q137 90 148 81T173 64Q189 56 209 51L214 148ZM78 328L39 289L61 232L98 262L133 279L78 328ZM133
474Q119 469 107 464Q96 459 87 452T73 435Q68 420 68 404T81 380Q88 377 93 380T104 389T115 402T128 412Q145 419 162 422Q172 424 182 425L133 474ZM791 237Q785 236 780 236Q775 236 771 236T761 237Q755 238 752 242T744 250T736 257T726 259Q721 258 705
254T668 243T623 230T576 219Q553 214 526 210T475 203Q447 199 420 197L422 177Q458 183 494 189Q525 194 560 199T625 210Q642 213 654 218T679 227T705 232T741 229Q756 226 773 224Q782 223 791 222V237ZM840 519Q821 516 802 513Q785 511 766 509T731 504Q710
502 692 500T657 498T623 497T583 499Q555 502 533 507T490 520T447 534T397 546Q374 550 355 554T318 562T280 567T237 568Q215 567 200 557T174 535Q162 521 153 504Q176 518 199 528Q219 536 241 540T284 536Q288 534 306 529T350 516T404 502T459 489Q484 484
504 481T545 475T585 471T632 467Q669 464 714 464T797 467Q842 469 887 472L840 519ZM1090 469Q1077 464 1065 459Q1054 454 1042 449T1021 437Q1004 426 991 418T969 390Q962 375 966 357T979 322Q988 303 1001 284L1021 304Q1013 315 1007 326Q1002 336 998
346T996 368Q999 390 1011 402T1043 425Q1050 429 1059 432T1076 437Q1086 439 1095 440L1090 469ZM922 707L867 534L910 494L966 652L922 707ZM1125 722L944 724L976 675L1159 672L1125 722ZM1243 192Q1235 148 1212 121T1149 74Q1128 63 1101 63T1049 66Q1020
70 991 78Q969 85 947 100T906 129Q884 146 863 165Q801 144 739 125Q685 108 625 92T511 64Q471 56 438 47T372 30T306 22T232 27Q217 30 204 31T178 34T154 42T133 56Q119 69 106 76T80 90T58 104T44 130Q41 141 42 154T46 179Q49 193 54 207Q41 219 30 232Q21
243 14 256T9 284Q11 298 22 310T47 332Q62 343 81 351Q64 361 54 375Q45 387 42 405T49 450Q54 463 68 472T98 487Q116 493 135 497Q141 513 149 528Q156 541 165 554T185 576Q204 591 224 594T264 594T307 585T353 576Q382 572 416 563T479 544Q512 533 546 519L687
516L848 536L870 633L914 741L1033 744L1137 739L1199 655L1187 492L1159 351Q1188 336 1208 313Q1225 293 1237 264T1243 192Z" />
<glyph unicode="x" glyph-name="x" horiz-adv-x="693" d="M143 266Q128 253 114 240Q102 229 90 215T70 186Q63 172 60 155T54 120Q51 101 51 81L83 59Q87 80 93 99Q98 116 105 132T121 160Q135 175 151 191T181 222Q198 238 214 253L143 266ZM119 384Q110 377
103 371Q97 365 92 359T86 346Q85 332 90 322T103 305Q111 297 120 292L154 278Q150 286 146 295Q143 302 142 310T142 325Q144 333 150 338T164 349Q172 354 182 358L119 384ZM512 30Q499 44 487 58Q476 70 464 84T442 111Q432 122 422 135T402 160Q391 173 380
187L355 152L385 106L424 61L512 30ZM127 459Q111 483 101 506Q93 526 90 546T97 581Q104 589 115 594T137 604Q149 608 164 610L112 649Q102 651 91 651Q82 651 73 650T56 645Q39 637 37 617T37 575Q41 550 50 522L121 398L200 368L127 459ZM548 498L534 497L453
373Q445 381 435 384T417 390Q406 392 397 393L392 447L380 454L373 447L370 394Q360 392 353 388T339 379Q332 374 327 367L255 422L230 423L229 405L311 350Q308 333 311 320T319 298Q325 287 334 281L217 162L215 139L235 138L356 264Q364 259 371 258T385 258Q392
259 399 261L512 141L531 138L525 160L429 271Q445 279 453 290T465 314T467 337T464 357L553 487L548 498ZM366 624Q359 624 351 623Q337 621 324 616Q310 609 301 595T286 564Q279 546 275 524L315 473Q314 495 318 513Q321 529 327 544T346 568Q357 575 368
576T388 575Q399 573 409 568L366 624ZM606 424L569 428L554 401H571H602Q608 400 615 400T630 398Q638 397 645 397L606 424ZM613 678Q604 681 595 684Q579 689 563 687Q554 685 545 680T528 668Q519 660 512 651L423 563L437 474L527 603Q535 615 543 626Q550
635 558 643T572 655Q579 657 589 656T608 650Q619 646 630 639L613 678ZM666 380Q668 351 656 333T627 303T592 288T565 282L636 191Q646 161 651 134Q655 111 655 87T640 45Q628 30 607 23T566 14Q542 11 516 12L412 43L341 133L253 44Q234 33 215 24Q198 16
180 11T144 9Q134 10 123 15T101 25T85 36T78 43L56 57Q46 63 35 71Q34 97 37 123Q39 145 43 168T59 210Q70 228 88 245T115 269Q110 273 102 281T85 299T72 322T69 345Q72 362 85 376T105 396L37 512Q26 545 22 573Q19 597 22 621T44 656Q54 661 67 663T93 665Q107
665 122 663L265 548Q268 555 273 568T287 596T307 622T332 637Q337 638 344 638T360 635Q369 633 378 631L418 583L522 688Q528 691 534 694Q539 696 545 698T557 701Q563 702 569 701T582 698Q589 696 596 694L632 674L649 630Q651 621 653 612Q655 604 655 596T654
583Q649 569 639 550T618 510T596 472T581 448Q588 445 601 440T629 426T654 406T666 380Z" />
<glyph unicode="y" glyph-name="y" horiz-adv-x="1806" d="M1083 291Q1098 336 1103 361T1098 402T1057 428T971 452Q939 460 907 452T850 423T809 374T793 311Q793 269 804 241T835 197T881 173T938 166Q966 166 989 176T1031 204T1062 244T1083 291ZM1166 245Q1177
273 1174 299T1163 347Q1153 372 1137 393L1107 252L1009 152Q1041 150 1071 159Q1097 167 1123 186T1166 245ZM1462 566L1357 623L1068 693L674 665Q674 665 653 660T599 646T528 627T458 609T403 595T379 589Q378 589 364 583T326 566T274 542T215 515L55 441L108
369L397 503L683 573L1072 601L1346 568L1451 535L1620 421Q1622 420 1623 421T1622 423L1462 566ZM1642 195L1528 88L1301 27L996 2L758 40L464 116L247 195L108 311L26 449L168 540L510 657L774 708L1065 722L1301 675L1504 588L1749 329L1642 195Z" />
<glyph unicode="z" glyph-name="z" horiz-adv-x="684" d="M335 126Q328 138 321 147Q315 155 308 159T292 162Q280 158 273 147T271 123Q275 114 282 111T298 105Q309 101 320 103Q326 103 332 105L438 74L450 93L335 126ZM262 624Q248 624 234 622Q222 620 209
617T186 609Q168 600 158 588T141 560T128 529T113 494Q104 476 93 461T74 430T63 399T64 363Q72 330 87 311T119 280Q137 268 158 263Q161 298 166 333Q171 363 177 397T192 460Q200 485 211 513T234 567Q247 596 262 624ZM438 278L353 293Q347 300 342 306Q337
311 331 315T319 320Q305 320 295 312T283 290Q282 276 293 267T319 257Q323 256 327 257T337 261Q342 263 347 266L441 251L438 278ZM377 727Q347 702 317 659Q291 622 262 563T207 412Q194 367 185 314T170 213Q163 158 158 102L204 68Q208 127 216 186Q222 237
232 294T256 399Q277 474 304 530T356 625Q384 670 414 703L377 727ZM546 170Q544 176 541 181Q539 186 536 189T528 193Q518 193 515 184T512 164Q512 155 515 145T528 136Q531 136 534 139T539 145Q542 149 544 154L633 138L637 151L546 170ZM374 478Q369 482
365 486Q361 489 357 491T347 494Q335 492 329 482T325 460Q326 449 332 441T350 433Q355 433 358 436T366 443Q370 447 374 454L456 442L459 466L374 478ZM564 371Q565 376 563 380Q561 383 558 386T545 390Q536 392 531 382T525 361Q524 350 529 341T544 330Q553
329 557 338Q559 342 560 347L641 335L642 344L564 371ZM608 517L531 543Q531 549 529 553Q527 557 524 559T513 563Q503 563 499 552T495 529Q496 520 499 511T511 502Q515 502 518 505T523 511Q526 515 527 519L608 509V517ZM644 330L611 333Q612 318 613 304Q614
291 615 277T617 251Q618 237 618 221T619 191Q619 174 620 159L643 155L637 134L618 136Q617 124 617 113Q617 103 617 92T617 72Q617 61 618 49T622 25Q624 12 626 0Q593 3 560 7Q532 9 500 11T441 14Q409 14 373 11T304 3Q266 -2 229 -8L134 80L155 229Q133
239 115 250Q99 260 83 273T58 302Q35 340 30 379T52 454Q73 481 82 499T98 533T112 562T134 594Q163 629 187 642T232 658Q254 661 274 652Q283 663 293 674Q301 683 310 693T329 712Q336 719 345 726T362 740Q371 747 380 754L444 715Q454 700 465 684Q474 670
484 655T502 627Q509 615 517 601T532 574Q540 559 547 545L614 521V503L569 509Q571 497 574 486Q576 476 579 465T584 445Q587 433 590 419T597 392Q601 377 605 363L647 348L644 330Z" />
<glyph unicode="{" glyph-name="braceleft" horiz-adv-x="944" d="M273 265Q257 220 241 175T223 80L249 63Q263 113 271 164T298 264L273 265ZM149 303Q149 312 143 312Q136 314 134 311T131 303Q131 294 140 294Q146 292 147 295T149 303ZM187 282Q187 291 181
291Q173 293 171 290T169 282Q169 276 172 276T178 273Q183 271 185 274T187 282ZM162 355Q162 363 156 364Q149 367 147 363T144 355Q144 346 153 346Q159 344 160 347T162 355ZM221 328Q221 337 215 337Q209 341 206 337T203 328Q203 323 206 321T211 319Q217
317 219 320T221 328ZM537 32Q525 40 506 58T467 97Q445 120 425 141T393 174L387 155Q417 125 447 92T507 30L537 32ZM190 386Q193 392 188 396Q182 403 178 399Q175 397 174 394Q171 386 175 383L177 381Q182 378 185 380T190 386ZM290 316Q290 325 284 325L281
326Q275 327 274 324T272 316Q272 307 280 307Q286 305 288 308T290 316ZM255 374Q255 382 249 383Q242 387 240 382T237 374Q237 369 239 368T245 365Q251 363 253 366T255 374ZM301 353Q301 360 297 361T288 360Q282 359 282 353Q282 350 283 348Q285 342 289
342T296 344Q302 347 301 353ZM220 441Q215 448 211 447T205 443Q200 438 202 435Q202 434 204 430Q207 425 211 426T218 430Q224 436 220 441ZM278 418Q278 421 278 423T269 427Q263 428 262 425T260 418Q260 411 263 410Q265 409 266 409T269 408Q275 406 276
409T278 418ZM320 384Q320 392 314 393Q306 395 304 391T302 384Q302 378 305 377T311 375Q317 373 318 376T320 384ZM256 490V493Q258 499 255 500T247 502Q238 502 238 497L237 494Q236 488 239 487T247 485Q255 485 256 490ZM348 407Q348 415 343 416Q335 418
333 414T331 407Q331 401 333 400T339 397Q345 395 346 398T348 407ZM326 450Q326 453 325 456T317 459Q311 460 310 457T308 450Q308 444 310 443T317 440Q323 438 324 441T326 450ZM481 321Q481 330 475 330Q467 334 465 330T463 321Q463 312 472 312Q477 310
479 313T481 321ZM374 441Q374 449 368 450Q361 452 359 448T356 441Q356 435 359 434T364 431Q370 429 372 432T374 441ZM298 529Q294 537 289 534L286 533Q281 530 281 527T283 520Q285 515 290 515Q292 515 292 515T295 516Q301 518 301 522T298 529ZM349 518Q349
527 343 527L340 528Q334 529 333 526T331 518Q331 512 334 512T340 509Q345 507 347 510T349 518ZM504 380Q504 388 498 389Q488 390 487 387T486 380Q486 374 488 373T495 371Q500 369 502 372T504 380ZM412 501Q416 506 413 508T406 513Q398 515 396 510L395
507Q392 502 395 500T401 496Q409 493 411 499Q412 500 412 501ZM525 417Q525 425 519 426Q510 428 509 424T507 417Q507 411 509 410T515 407Q521 405 523 408T525 417ZM566 411Q566 419 560 420Q552 422 550 418T548 411Q548 406 550 405T556 401Q562 399 564
402T566 411ZM453 525Q453 534 447 534L444 535Q438 536 437 533T435 525Q435 520 437 519T443 516Q449 514 451 517T453 525ZM612 408Q612 416 606 417Q599 419 597 415T594 408Q594 403 596 402T602 398Q608 396 610 399T612 408ZM555 479Q555 487 549 488Q541
490 539 486T537 479Q537 473 539 472T545 469Q551 467 553 470T555 479ZM486 570Q486 573 486 576T480 579L478 580Q472 581 471 577T469 570Q469 567 470 564T477 561Q483 559 484 562T486 570ZM665 401Q665 409 660 410H657Q651 411 649 408T647 401Q647 395
649 394T656 391Q662 389 663 393T665 401ZM605 472Q605 480 599 481Q590 482 589 479T587 472Q587 466 589 465T595 462Q601 460 603 463T605 472ZM581 513Q581 516 580 519T575 522L572 523Q566 524 565 520T563 513Q563 505 571 504Q577 502 579 505T581 513ZM645
459Q645 467 640 468Q630 469 629 466T627 459Q627 451 630 451T636 449Q642 447 643 450T645 459ZM719 402Q719 410 713 411H710Q704 412 703 409T701 402Q701 397 703 396T709 392Q715 390 717 393T719 402ZM505 615Q505 623 500 624Q492 626 490 622T487 615Q487
609 490 608T496 606Q502 604 503 607T505 615ZM676 466Q676 474 670 475Q667 474 664 472Q658 468 658 466Q658 458 661 458T666 456Q672 454 674 457T676 466ZM606 561Q606 570 600 570L597 571Q591 572 590 569T588 561Q588 552 596 552Q602 550 604 553T606
561ZM676 511Q676 520 670 520L667 521Q661 522 660 519T658 511Q658 505 661 505T666 502Q672 500 674 503T676 511ZM742 448Q742 456 736 457Q728 459 726 455T724 448Q724 442 726 441T733 438Q739 436 740 439T742 448ZM555 642Q555 650 549 651Q539 652 538
649T537 642Q537 637 539 636T545 632Q551 630 553 634T555 642ZM610 617Q610 625 604 626Q596 628 594 624T592 617Q592 608 600 608Q606 606 608 609T610 617ZM742 508Q742 517 736 517L733 518Q727 519 726 516T724 508Q724 503 726 502T732 499Q738 497 740
500T742 508ZM702 548Q702 557 696 557L693 558Q687 559 686 556T684 548Q684 539 692 539Q698 537 700 540T702 548ZM608 673Q608 681 602 682Q592 683 591 680T590 673Q590 668 592 667T598 663Q604 661 606 664T608 673ZM917 569Q917 544 896 527T848 495Q837
489 825 482T802 467Q781 452 781 438Q781 424 797 415T835 397Q845 393 854 390T872 381Q890 373 890 361Q890 344 872 333T830 314T782 303T746 299Q724 299 703 303T660 311T617 320T573 324Q561 324 546 321T517 310T495 292T486 266Q486 254 498 233T527 191T561
149T586 118L656 105L653 70Q646 63 633 53T605 33T576 16T552 9Q537 9 522 12T492 17Q462 41 433 71T380 134L366 94L365 60L398 32L394 11L358 0Q311 8 272 22T197 70Q211 171 251 264Q230 256 207 250T160 243Q138 243 117 246T80 260T53 286T43 330Q43 356
54 375T82 408T122 431T166 446Q158 450 148 457T128 472T113 490T106 510Q106 530 121 545T157 570T200 586T238 591Q250 591 261 589T285 586Q311 586 327 599T359 630Q364 636 369 642T381 656Q393 669 407 682T442 705T488 721T551 727Q576 727 600 722T651
717Q674 717 695 723T740 730Q757 730 768 720T780 693Q780 681 775 670T761 647T743 626T724 609Q736 610 748 610T772 610Q782 610 806 609T855 605T898 593T917 569Z" />
<glyph unicode="|" glyph-name="bar" horiz-adv-x="725" d="M314 167Q306 168 296 166T276 159T259 147T251 132Q240 127 233 123T221 113T216 99T217 79L218 73L243 59Q248 74 251 82T260 97T273 107T296 117Q301 140 312 148T345 161L314 167ZM366 208L320 210L319
186L366 178V208ZM288 333Q282 334 274 330T258 320T245 305T239 290Q239 280 239 274T240 264T246 255T258 247Q260 246 268 241T285 234L314 229Q302 237 292 250T281 281Q281 292 288 299T305 311T327 319T348 325L288 333ZM306 380L302 349L365 337L367 380H306ZM519
705Q518 713 503 716T481 719Q460 719 441 719T403 712Q356 696 310 694T215 692Q175 692 141 679T82 641T46 583T39 508L73 469Q71 480 71 494T70 520Q70 563 86 589T128 629T188 648T255 653Q284 653 313 657T370 667T428 677T487 682Q513 682 543 672T594 647L519
705ZM701 513Q701 484 691 467T664 440T625 429T579 431Q561 396 539 384T475 373L474 337Q485 334 501 330T531 318T556 301T567 277Q567 263 558 251T535 230T507 213T481 202L477 183Q501 173 511 162T530 126Q540 124 552 121T576 112T595 98T603 76Q603 52
583 38T534 15T477 5T431 2Q364 2 307 15T196 68L195 90Q193 115 202 125T232 147Q239 159 245 165T258 175T274 179T298 182L300 208Q285 213 270 219T244 235T225 258T217 290Q217 300 224 310T243 330T265 345T286 356L289 380Q278 374 266 370T242 365Q231
365 222 372T205 387Q167 387 143 395T100 418T64 455T23 501Q19 574 39 616T97 679T186 707T296 713Q326 713 352 716T401 724T444 733T485 737Q497 737 518 725T563 692T611 646T656 597T688 550T701 513Z" />
<glyph unicode="}" glyph-name="braceright" horiz-adv-x="1837" d="M395 707Q358 711 322 712Q291 713 256 710T195 697Q142 677 108 647T57 562Q40 505 53 459T104 365Q109 360 119 346T142 316Q155 298 172 277L263 247Q246 269 231 292Q218 312 206 334T185
379Q176 404 169 426T158 469T156 512T168 558Q185 599 211 622T273 663Q295 673 317 681T356 695Q376 702 395 707ZM305 437Q306 424 310 412Q312 401 316 390T326 370Q331 362 338 354T352 340Q360 332 369 326L404 390L305 437ZM543 370L433 386L396 296L482
251L601 216L648 339L543 370ZM494 579Q466 585 440 586Q418 587 395 584T357 566Q334 546 322 523T318 470Q323 454 339 445T373 430Q393 424 418 421L494 579ZM796 316L683 333L631 205L789 169L845 161Q866 158 883 156T902 156Q903 158 904 178T908 225Q910
254 912 292L796 316ZM531 575L449 410L545 390L650 369L716 534L531 575ZM837 507L748 527L689 367L839 326L919 323L941 474L837 507ZM1232 281L1109 267L949 271L931 140L1103 136L1249 152L1232 281ZM1187 349L1074 343L947 339L962 304L1117 296L1226 308L1187
349ZM1452 263L1442 318L1355 304L1265 287L1282 162L1355 171L1466 203L1452 263ZM1224 491L1197 480L1193 386L1232 345L1224 491ZM1415 429L1407 532L1318 529L1251 495L1259 402L1265 314L1360 326L1439 341L1415 429ZM1604 380L1480 326L1485 222L1583 261L1651
328L1685 368L1698 429L1604 380ZM1614 519L1521 550L1433 536L1439 443L1474 353L1577 392L1684 462L1614 519ZM1817 447Q1820 414 1814 388T1796 338T1767 291T1729 242Q1700 205 1670 182T1607 141T1535 111T1454 80Q1422 68 1395 59T1342 44T1287 32T1224 23Q1196
19 1174 17T1129 14T1084 13T1033 17Q1010 19 991 22T954 30T918 38T876 47Q854 51 836 54T801 60T766 66T726 74Q699 80 677 84T633 94T589 105T539 119Q482 135 416 157T292 200Q225 224 158 250Q130 277 105 306Q84 331 64 362T36 423Q28 450 24 474T19 521T24
568T43 616Q59 647 81 668T129 702T187 724T254 737Q306 745 346 743T419 732T481 712T539 686T602 662T677 644Q716 638 747 634T809 627T870 622T941 618Q973 616 999 616T1051 615T1103 615T1161 618Q1197 620 1225 624T1282 632T1338 640T1403 646Q1434 647
1460 650T1511 654T1562 653T1618 644Q1640 639 1658 636T1694 627T1727 613T1759 589Q1791 557 1802 525T1817 447Z" />
<glyph unicode="~" glyph-name="asciitilde" horiz-adv-x="0" />
</font>
</defs>
</svg>
