<?xml version="1.0" standalone="no"?> <!DOCTYPE svg PUBLIC "-//W3C//DTD SVG 1.0//EN" "http://www.w3.org/TR/2001/REC-SVG-20010904/DTD/svg10.dtd" > <svg xmlns="http://www.w3.org/2000/svg" width="100%" height="100%">
<defs >
<font id="BLOCKHDS" horiz-adv-x="469" ><font-face
    font-family="Blockhead"
    units-per-em="1000"
    panose-1="2 0 5 6 2 0 0 2 0 4"
    ascent="750"
    descent="-170"
    alphabetic="0" />
<missing-glyph horiz-adv-x="500" />
<glyph unicode=" " glyph-name="space" horiz-adv-x="278" />
<glyph unicode="!" glyph-name="exclam" horiz-adv-x="291" d="M196 76Q188 82 181 87T166 93T150 88T135 64Q132 56 135 48T145 34T161 24T178 22Q195 25 202 32T211 47T208 63T196 76ZM117 627L142 191L203 199L239 624L117 627ZM225 17Q220 9 210 6T188 1Q176
-1 162 0L73 37Q67 51 63 64Q60 75 60 88T65 110Q71 119 83 123T107 130Q121 132 138 132L221 78Q225 66 228 55Q230 45 230 35T225 17ZM217 171L128 158L54 232L45 696L222 707L264 641L217 171Z" />
<glyph unicode="&quot;" glyph-name="quotedbl" horiz-adv-x="462" d="M103 631L108 546L110 441L159 433L175 540L194 641L103 631ZM307 635L312 534L328 430L366 428L384 511L403 628L307 635ZM193 529L170 415L105 417L63 463L55 564L47 704L179 702L217 654L193
529ZM402 500L377 410L323 406L281 452L259 552L251 708L388 689L426 641L402 500Z" />
<glyph unicode="#" glyph-name="numbersign" horiz-adv-x="648" d="M335 350V298L361 299L368 350H335ZM430 242L313 252L320 374L435 363L430 242ZM587 229L481 236L479 311L492 391L566 393L564 428L471 433L470 514L472 625L424 614L417 518L409 443L306 451L318
555L329 645L275 635L268 522L264 421L124 430V381L185 377L252 375L253 305L245 245L113 258L110 213L170 210L241 197L235 130L228 50L283 49L286 107L290 188L431 184L430 108L418 24L471 27L473 181L590 184L587 229ZM494 163L479 0H405L346 66L362 161H308L300
27L217 35L162 82L169 192L102 197Q85 208 72 218Q61 226 52 232T42 240Q42 241 44 253T49 281L57 321L179 304V357L107 366L59 424L83 517L190 512L210 696L288 722L350 665L329 515L360 522L379 670L451 706L491 636V510L553 505L582 443V371L513 374L499 304L575
309L606 242V163H494Z" />
<glyph unicode="$" glyph-name="dollar" horiz-adv-x="704" d="M257 448H240L228 435L239 409L288 397L257 448ZM496 245L453 249V204L488 207L525 224L496 245ZM339 371Q298 372 267 379Q254 382 242 387T220 399T207 415T206 438Q211 458 232 466T276 478Q303
482 337 479L339 371ZM580 210Q578 187 555 177T505 161Q473 156 434 157L431 272Q474 272 507 265Q521 262 534 258T558 246T575 231T580 210ZM614 520Q600 527 586 533Q574 538 560 543T534 553Q521 556 506 558T476 561Q460 562 444 563L436 701L353 696L347
535Q316 544 287 547Q262 549 236 546T194 527Q159 493 148 471T141 431T159 400T191 371Q208 356 232 349T281 339Q308 335 339 337L334 180Q317 180 300 182Q286 184 270 186T240 192Q216 198 193 210Q181 216 168 223L125 182Q138 169 152 157Q164 146 178 136T206
118Q225 108 249 103T297 94Q323 90 350 90L357 13H434V80Q468 81 500 87Q527 92 554 103T598 134Q613 153 624 175T634 218T616 260T559 297Q543 303 524 308T487 316Q467 320 447 323L439 486Q451 484 464 482Q475 480 487 478T511 473Q520 471 530 468T550 462Q561
458 572 456L614 520ZM666 217Q668 213 663 198T649 165T625 127T596 94Q580 80 557 74T512 64Q486 60 460 60L456 -11L348 -14L279 46L282 80Q263 82 245 86Q229 89 212 93T181 104Q166 110 151 120T122 142Q107 154 93 167L37 251L111 317Q125 307 140 299Q153
292 167 285T195 275Q204 273 214 272T235 269Q246 268 257 268L264 317Q243 316 220 326Q200 334 176 354T128 412Q99 459 96 506T128 594Q142 609 164 617T208 629Q234 633 261 635L268 792H387L456 729L463 632Q476 633 488 633Q499 633 510 633T533 632Q546
630 561 627T590 618Q606 613 621 607L643 520L579 426Q566 431 553 435Q542 439 529 443T505 450Q499 451 493 452T480 455Q473 456 467 457L470 409Q485 407 499 404Q511 402 525 398T550 389Q585 373 607 355T646 301Q650 292 653 281T659 259T664 236T666 217Z"
/>
<glyph unicode="&amp;" glyph-name="ampersand" horiz-adv-x="648" d="M220 231L203 177L271 187L276 253L220 231ZM360 114Q343 110 325 109T289 107Q270 107 250 110T213 121T185 145T174 184Q174 211 185 229T214 258T255 273T301 278Q315 278 328 277T355
273L360 114ZM548 251Q534 225 508 200T455 160Q450 185 443 217T425 281T402 343T374 393Q365 405 351 415T323 435T299 457T289 486Q289 505 296 523T316 554T346 576T384 584Q427 584 470 575T555 552L578 616Q539 625 497 627T414 630Q377 630 343 623T284
600T243 555T227 484Q227 460 239 438T271 397T313 363T355 337Q321 336 282 328T210 301T153 255T125 187Q124 176 124 167T123 146Q123 104 130 85T153 58T192 51T245 45Q258 42 273 42Q313 42 361 56T445 87L521 26L573 67L524 111L592 234L548 251ZM553 121L597
57L507 0L440 12L408 47Q370 35 329 28T247 21Q218 21 188 26T134 50Q92 81 63 126T34 226Q34 267 50 298T92 352T153 390T222 417Q201 455 189 499T176 588Q176 619 194 642T242 683T309 711T384 729T455 739T512 742Q521 742 529 742T546 741L612 621L563 518Q545
525 523 532T479 544T434 553T393 557Q380 557 365 552T338 539T317 518T309 492Q309 479 318 470T340 453T365 436T384 413Q398 384 412 356T442 300L514 359L600 346L629 246L553 121Z" />
<glyph unicode="&apos;" glyph-name="quotesingle" horiz-adv-x="287" d="M115 646L121 553L136 424L178 422L200 527L221 638L115 646ZM220 515L190 402L131 397L85 448L63 572L54 726L205 705L246 653L220 515Z" />
<glyph unicode="(" glyph-name="parenleft" horiz-adv-x="519" d="M385 639Q385 639 359 630T295 596T215 524T140 402Q128 374 120 353T107 310T98 268T94 218Q93 194 93 174T96 135T104 97T119 56Q128 33 144 13T179 -23T219 -53T262 -76Q311 -100 367 -115L414
-63Q378 -57 344 -42Q315 -29 283 -5T229 59Q200 111 191 148T186 219Q188 236 192 252T203 286Q209 303 217 321T233 361Q251 409 282 446T345 509Q381 539 420 562L385 639ZM455 539Q451 539 431 533T381 508T320 455T260 363Q253 348 246 335T234 307Q228 294
223 282T215 256Q208 230 209 202T225 139Q238 106 265 84T320 47T371 27T397 20L455 -51L380 -143Q376 -143 353 -139T295 -124T222 -90T147 -33T86 55T54 179Q48 242 52 296T71 399T111 496T175 595Q192 617 216 638T266 677T318 711T365 737T399 754T413 760Q414
760 424 742T446 700T468 658T480 635L455 539Z" />
<glyph unicode=")" glyph-name="parenright" horiz-adv-x="492" d="M409 440Q397 490 380 524T343 581T303 614T267 631T241 637T230 638L174 568Q174 568 196 552T245 512T296 458T325 403Q334 358 335 321T330 248T305 173T258 81Q235 41 202 12T136 -36Q98
-59 58 -74L128 -121Q172 -85 212 -45Q247 -11 282 31T341 118Q352 139 360 152T375 176Q381 187 386 197T398 225Q408 255 413 280T420 331T419 382T409 440ZM439 285Q428 221 402 165T341 60T269 -25T200 -90T146 -132T121 -150L31 -82L6 -3Q10 -1 31 12T79 44T136
87T185 136Q199 153 211 168T236 199Q254 222 268 245T290 293T300 344T292 401Q284 429 262 456T215 504T171 538T149 553L93 668L176 762Q180 760 205 751T261 724T324 684T374 632Q401 587 416 539T439 446T445 359T439 285Z" />
<glyph unicode="*" glyph-name="asterisk" horiz-adv-x="546" d="M428 557L312 507V585L308 671L262 665L256 578L251 490L202 518L149 583L112 562L154 509L224 448L164 308L209 296L252 415L311 407L378 295L427 325L388 400L358 469L470 518L428 557ZM424 482L384
455L450 319L376 269L311 286L260 376L216 272L148 295L101 339L137 440L88 502Q79 517 73 529Q68 539 63 547T59 556L56 562Q54 565 52 568T48 577Q43 587 37 599L106 655L146 609L198 545V633L216 722L275 740L322 699L328 593L371 614L443 583L494 509L424 482Z"
/>
<glyph unicode="+" glyph-name="plus" horiz-adv-x="632" d="M578 245Q575 261 573 274Q571 285 570 294T568 305Q568 306 541 307T480 310L392 314L374 546L300 548L305 311L126 300L115 256L215 238L308 241L322 35L396 36V133L394 224L578 245ZM605 216H491L422
203L421 5H300L218 67V216L98 236L41 293L49 412L215 409L210 655L339 665L401 568Q402 520 404 482Q405 466 405 451T407 423T408 404T409 396H563L607 322L605 216Z" />
<glyph unicode="," glyph-name="comma" horiz-adv-x="392" d="M204 72Q204 52 205 33Q205 16 205 -3T204 -38Q202 -58 199 -80T190 -122Q185 -145 179 -167L220 -172Q236 -152 250 -131Q262 -113 274 -92T292 -51Q297 -31 298 -8T298 37Q297 62 294 87L204 72ZM316
106Q320 75 322 44Q324 18 323 -12T314 -66Q306 -89 291 -113T261 -157Q243 -180 223 -202L150 -183L90 -118Q100 -97 109 -75Q117 -56 124 -35T135 6Q139 30 138 59T134 115Q130 145 125 176L270 186L316 106Z" />
<glyph unicode="-" glyph-name="hyphen" horiz-adv-x="572" d="M515 303Q427 300 339 300T163 299L157 190H345Q390 190 433 196T520 207L515 303ZM540 188Q439 180 346 174T148 168L43 222Q41 241 38 259T35 298Q35 320 37 341T41 384Q73 384 105 384T170 383L292
382Q327 382 356 386T419 398L533 327L540 188Z" />
<glyph unicode="." glyph-name="period" horiz-adv-x="331" d="M198 38Q204 49 206 63T195 82Q188 84 179 84T162 82T147 76T138 64Q134 53 139 43T157 27Q168 21 180 24T198 38ZM213 18Q204 6 192 2T165 -1T138 8T115 25L54 74Q46 92 44 111T55 145Q61 152 71
156T92 162T116 161T137 153L204 108Q219 98 225 87T231 64T226 40T213 18Z" />
<glyph unicode="/" glyph-name="slash" horiz-adv-x="552" d="M399 652L244 326L121 53L174 29L341 348L464 635L399 652ZM435 493L305 232L184 0L95 34L44 128L131 285L259 561L348 754H442L501 650L435 493Z" />
<glyph unicode="0" glyph-name="zero" horiz-adv-x="741" d="M499 411Q499 448 481 472T422 496Q389 496 360 482T308 444T271 390T252 327Q249 303 254 278T273 232T306 198T353 183Q387 182 414 206T460 266T489 341T499 411ZM583 368Q583 331 572 291T540 217T486
161T411 139Q374 139 341 152T282 189T241 244T226 313Q226 347 241 385T281 454T340 506T410 527Q447 527 478 517T533 486T570 437T583 368ZM668 372Q668 412 655 455T616 533T552 591T464 612Q401 610 341 586T233 519T157 421T128 300Q128 250 145 201T192
115T266 55T363 38Q436 44 493 70T589 140T648 242T668 372ZM692 341Q689 273 663 214T592 111T490 42T366 17Q312 17 254 37T148 93T70 179T39 289Q39 372 70 446T157 577T285 667T442 700Q471 700 501 684T559 639T612 575T655 498T683 418T692 341Z" />
<glyph unicode="1" glyph-name="one" horiz-adv-x="458" d="M268 660L169 640L167 566H261L243 240L233 29H355L357 235L375 462L388 659L268 660ZM385 368L378 0H225L141 78L149 322L154 537L60 581L80 709L225 739L329 754L416 678L385 368Z" />
<glyph unicode="2" glyph-name="two" horiz-adv-x="570" d="M219 67Q230 99 243 129Q254 155 270 183T304 231Q330 260 358 283T411 331T451 384T470 449Q472 505 466 543T444 607T402 645T337 666Q307 671 272 663T207 642Q172 628 137 608L139 525Q176 555 211
574Q226 582 242 588T273 598T304 600T331 590Q356 572 366 546T374 491T360 434T326 383Q313 369 295 349T256 303T216 248T182 185Q171 162 163 133T149 77Q142 46 137 15L291 12L528 13L532 76L219 67ZM550 -7H334H110L34 94Q50 139 72 182Q91 219 118 260T182
334Q212 360 237 400T274 478T284 543T255 569Q235 567 213 556T174 530Q153 514 134 494L49 546L47 675Q102 704 158 722Q182 729 209 735T264 742T320 741T374 727Q397 718 418 692T455 631T481 556T492 477T486 405T457 351Q283 178 280 155H495L553 91L550
-7Z" />
<glyph unicode="3" glyph-name="three" horiz-adv-x="627" d="M544 294Q532 307 513 315T474 327T439 334T417 336Q422 340 436 353T466 386T498 431T519 483T521 539T492 596Q465 627 433 636T362 650Q349 652 337 652T310 655Q281 657 248 654T185 645Q151 639
117 631L125 552Q125 552 150 560T210 575T283 585T350 576Q405 554 423 530T437 482Q435 469 430 457T416 432Q398 406 382 384Q369 365 344 354T294 338T250 331T231 329L229 283Q260 291 290 296Q316 301 343 303T393 300Q415 295 434 288T467 268T491 239T500
196Q501 170 484 152T439 120T379 99T314 88Q289 85 259 86T203 90T159 95T141 98L118 45Q118 45 126 38T162 24T242 13T383 14Q448 18 492 50T557 127T576 217T544 294ZM599 297Q599 294 600 270T599 214T587 146T558 86Q535 56 509 39T454 12T391 -1T318 -6Q286
-8 248 -4T177 7T121 19T94 26L29 89L71 184Q77 182 103 175T165 162T240 151T313 150Q338 153 366 160T416 180T447 210T445 249Q436 266 423 272T393 280Q377 282 360 280T324 279Q308 279 290 277T256 271T227 265T212 261L145 318L153 406Q158 405 171 404T200
401T235 401T268 406Q308 418 329 437T356 479T355 523T328 559Q317 567 298 568T257 567T212 558T170 546T137 534T120 527L33 568L40 716Q46 717 69 721T124 731T191 741T257 746Q302 746 344 740T422 717T485 674T527 604Q542 559 541 522T532 455Q523 422 506
394Q512 392 517 390Q522 388 526 386T535 382Q543 378 550 372T564 360Q571 353 578 345L599 297Z" />
<glyph unicode="4" glyph-name="four" horiz-adv-x="658" d="M314 314L282 273L344 279L314 314ZM375 330Q375 312 374 293T370 255L250 260Q250 262 257 274T275 304T299 341T323 380T344 413T357 434Q361 411 368 382T375 330ZM610 331L480 319Q472 362 471
408T467 501T460 593T439 681L370 669Q358 628 342 590T306 514T267 439T229 364Q207 319 188 272T148 179Q199 184 252 186T357 189L367 15L481 29Q481 47 482 69T484 114T489 158T499 198L613 214L610 331ZM518 174Q517 172 515 162T509 140T504 120T501 109Q501
83 502 57T505 4L349 -13L269 51L270 164L125 157L30 251Q49 289 68 325T105 400Q123 440 139 486T177 569Q194 597 208 619T238 661T268 703T304 753L356 762L454 705Q465 679 472 647T482 581T487 512T488 449L628 338L639 198L518 174Z" />
<glyph unicode="5" glyph-name="five" horiz-adv-x="666" d="M618 212Q629 260 624 299T589 378Q574 398 558 410T522 431T482 445T436 455Q394 464 362 466T290 455Q280 452 269 447T249 436Q238 430 228 424L226 558L379 565L559 562L548 629L357 617L154 605V338L228
333Q244 353 263 370Q280 384 302 397T352 412Q406 417 446 406T514 352Q543 309 540 263T505 175Q481 145 453 134T387 118Q361 114 332 123T277 143Q247 156 218 175L125 110Q153 92 182 78Q207 65 236 54T291 38Q317 33 339 31T383 29T426 34T472 50Q531 76
567 112T618 212ZM638 335Q655 283 648 241T615 151Q603 128 589 111T559 79T523 54T479 31Q447 17 419 11T364 5T307 12T245 27Q222 34 197 46T150 72Q125 87 101 103L28 211L161 271L228 208Q242 205 257 202Q270 200 284 199T311 201Q383 215 404 245T412 319Q404
347 386 364T338 385Q319 387 301 376T268 348Q250 330 235 306L135 318L49 419L42 570L58 713L166 730L307 737H520L575 648L582 548L247 539V466Q280 474 313 478Q341 482 373 483T431 479Q467 471 499 461T559 435T606 394T638 335Z" />
<glyph unicode="6" glyph-name="six" horiz-adv-x="514" d="M298 197Q291 195 285 192Q280 190 274 186T263 178Q255 169 252 156Q249 149 248 142Q254 140 261 141Q267 142 274 146T289 162Q292 167 293 173T296 184Q297 190 298 197ZM377 149Q377 131 371 115T353
87T327 67T294 62Q268 64 251 78T226 116Q219 139 225 157T246 195Q260 214 280 225T316 236Q327 235 338 228T358 208T372 180T377 149ZM465 218Q447 263 411 283T327 304Q316 304 304 301T281 295Q269 291 256 286Q264 321 273 354Q281 383 291 415T312 475Q321
496 333 521T358 567Q372 592 387 616L342 619Q311 590 284 559Q260 533 236 501T195 438Q178 404 166 374T147 315T137 254T135 185Q137 128 164 88T244 27Q286 10 321 12T395 39Q419 54 437 74T464 117T475 166T465 218ZM496 160Q491 119 476 91T430 36Q393 4
356 -5T271 -6Q242 -2 215 17T164 57Q138 82 114 112L42 250Q40 258 38 267Q36 275 34 282T31 298Q26 335 29 366T43 426T68 484T102 546Q122 581 153 618T215 685Q250 720 289 753L364 763L418 612Q405 593 394 574Q384 557 373 539T354 503Q347 489 340 472T327
441Q320 423 314 407Q319 407 324 408Q329 409 333 409T342 409Q349 408 357 405T372 399Q380 395 387 391L455 308Q468 282 478 256Q486 233 492 208T496 160Z" />
<glyph unicode="7" glyph-name="seven" horiz-adv-x="523" d="M375 620L122 600L118 491L306 499L390 507L350 347L305 181L273 43L324 40L367 183L447 447L478 580L375 620ZM445 379L334 16H270L184 97L203 216L256 382L280 484L97 474L33 564L48 714L195 729L347
754L436 724L501 591L445 379Z" />
<glyph unicode="8" glyph-name="eight" horiz-adv-x="576" d="M344 280Q335 286 326 286T307 281T288 268T269 253Q248 235 238 209T230 166Q231 149 238 142T254 133T269 131T280 135Q300 146 311 159T332 192Q338 204 344 216T354 240T357 262T344 280ZM281
476Q286 493 291 509T281 534Q269 542 257 536T232 519Q220 508 216 496T210 468Q207 445 218 435T245 424Q254 424 260 428T269 440T275 457T281 476ZM432 241Q441 220 436 197T418 153T390 118T364 97Q344 86 322 84T280 86T242 103T215 136Q200 168 207 196T235
253Q252 277 271 290T320 307Q358 311 388 294T432 241ZM357 470Q354 448 334 429T266 397Q252 393 239 397T216 409T197 431T186 458Q182 476 187 493T205 524T234 546T269 555Q287 555 304 549T333 531T353 504T357 470ZM510 280Q502 299 484 316T447 346Q425
361 400 373Q420 396 430 425Q438 450 438 484T418 562Q405 590 389 606T353 629T310 638T262 636Q228 633 201 617T154 575T125 517T115 451Q115 428 126 403T150 357Q165 332 184 309Q167 304 153 293Q140 284 128 269T108 227Q100 201 104 178T120 135T150 96T191
63Q226 40 258 35T332 34Q388 39 430 57T500 124Q523 164 526 201T510 280ZM522 305Q552 251 547 199T505 97Q488 74 470 60T429 37T383 24T330 17Q297 14 269 17T216 30T166 54T115 90Q99 103 84 122T57 158Q43 178 30 200Q25 221 24 241Q23 258 25 276T37 307Q48
321 61 332T85 352Q97 361 110 368L35 485Q39 522 48 557Q56 586 69 618T103 670Q123 690 155 702T216 721Q250 729 288 733L403 629Q419 603 432 577Q443 554 452 528T462 478Q462 464 460 447T454 415Q450 397 445 381Q461 369 476 357Q489 346 501 333T522 305Z"
/>
<glyph unicode="9" glyph-name="nine" horiz-adv-x="471" d="M252 589Q231 582 215 573Q201 565 190 554T179 529Q179 518 186 508T202 490Q212 480 225 472Q228 482 232 492Q235 500 237 510T242 528Q244 536 245 547T249 567Q251 578 252 589ZM311 462Q281 452
254 448Q231 445 208 447T173 467Q155 493 159 520T179 574Q191 597 220 607T278 620Q312 624 352 620L311 462ZM412 655Q390 662 367 667Q347 672 325 675T284 679Q265 679 249 679T219 676T190 669T160 653Q119 626 95 590T79 505Q87 455 122 429T205 390Q220
386 238 386T272 389Q290 392 310 396L233 198L169 19L230 24L280 142L348 277L393 444L412 655ZM417 478L363 245L243 -3H149L90 50L154 211L216 364Q192 370 168 380Q148 388 126 399T90 425Q82 433 75 443T61 462Q54 473 47 484L13 556Q22 588 34 619Q45 645
60 672T96 717Q115 733 133 742T169 758T209 767T254 773Q274 775 297 774T342 770Q367 766 391 762L438 676L417 478Z" />
<glyph unicode=":" glyph-name="colon" horiz-adv-x="231" d="M177 33Q183 44 179 56T163 72Q150 76 138 73T122 57Q116 35 139 23Q150 18 161 20T177 33ZM178 408Q184 419 180 431T164 447Q151 451 139 448T123 432Q120 421 123 405T138 384Q149 379 161 388T178
408ZM190 15Q182 4 171 1T147 -2T122 6T101 21L46 66Q39 83 38 99T47 130Q58 143 76 145T110 137L171 96Q198 78 201 56T190 15ZM189 376Q181 365 170 362T146 359T121 367T100 382L45 427Q38 444 38 467T48 505Q59 518 77 520T111 512L172 471Q185 462 192 450T201
424T200 398T189 376Z" />
<glyph unicode=";" glyph-name="semicolon" horiz-adv-x="270" d="M146 82Q148 62 149 43Q150 26 150 7T146 -28Q143 -42 137 -58T123 -88Q115 -104 107 -119L148 -124Q158 -110 169 -94Q177 -81 186 -65T200 -35Q206 -16 207 8T207 53Q205 78 202 103L146 82ZM179
323Q185 334 181 346T165 362Q152 366 140 363T124 347Q118 325 141 313Q152 308 163 310T179 323ZM224 122Q230 91 232 60Q234 34 232 4T222 -50Q215 -67 204 -85T180 -119Q166 -137 151 -154L78 -135L18 -70Q31 -56 42 -41Q52 -28 62 -13T77 16Q85 39 85 68T80
124Q76 155 67 186L178 202L224 122ZM192 305Q184 294 173 291T149 288T124 296T103 311L48 356Q41 373 40 389T49 420Q60 433 78 435T112 427L173 386Q200 368 203 346T192 305Z" />
<glyph unicode="&lt;" glyph-name="less" horiz-adv-x="583" d="M469 575L251 383L144 284L302 162L462 69L512 139L394 222L281 295L407 390L518 492L469 575ZM471 31L260 161L123 266L56 379L196 531L363 697L485 591L553 496L403 346L485 303L553 148L471 31Z" />
<glyph unicode="=" glyph-name="equal" horiz-adv-x="579" d="M372 266Q326 266 281 267T190 268L74 337L73 383Q72 396 74 410T79 438Q114 438 148 437T218 436Q299 436 379 442L493 380L516 282Q489 279 461 275T404 267L530 193L537 82Q491 78 445 73T351 68H210Q209
68 192 76T155 94T116 112T95 123Q94 125 92 131T88 143T85 155T83 162Q83 186 85 210T89 259Q126 258 162 258T235 257Q269 257 304 257T373 266H372ZM509 167Q439 165 369 163T229 156L226 95H324Q370 95 416 99T509 107V167ZM479 345Q412 343 346 342T212 335L209
288Q280 292 349 289T490 295L479 345Z" />
<glyph unicode="&gt;" glyph-name="greater" horiz-adv-x="627" d="M402 463L266 592L207 513L451 325L182 144L221 61L561 302L402 463ZM415 170L213 34L78 105L46 231L243 347L160 443L46 568L145 704Q150 701 170 687T213 657T254 628T272 614Q272 613 279
607T298 589T325 565T357 537Q395 504 443 462L596 303L415 170Z" />
<glyph unicode="?" glyph-name="question" horiz-adv-x="502" d="M351 41Q356 52 351 64T334 81Q323 86 311 83T294 69Q286 52 301 38Q312 27 328 27T351 41ZM441 504Q442 540 435 568T401 620Q379 640 357 646T306 653Q266 654 239 640T182 598Q160 577 149 557T129
508Q125 495 124 481T123 452Q123 436 124 420L156 424Q160 455 169 483Q177 506 188 530T220 566Q248 583 274 589T331 583Q355 572 364 552T373 508T365 455T351 402Q346 385 338 374T322 351T305 328T292 300Q287 283 286 262T286 222Q287 200 289 178L331 173Q330
197 331 220Q332 240 334 262T344 302Q355 329 369 345T396 387Q404 403 412 416T426 443T437 471T441 504ZM369 29Q362 17 348 13T317 8Q299 8 277 12L188 41Q179 55 175 68Q170 79 169 91T172 114Q176 122 184 128T201 139Q211 144 222 148L331 116Q345 101 356
85Q365 71 370 56T369 29ZM465 518Q465 495 461 478T450 444T433 411T413 374Q406 360 398 350T383 331T368 311T356 285Q350 267 348 246T347 204Q348 181 351 158L279 161L212 228Q211 252 212 276Q213 296 216 318T227 359Q246 400 253 419T264 448T271 467T284
496Q292 511 290 525T283 550Q277 562 267 573Q258 569 247 560Q238 552 226 540T201 509Q192 495 187 477T179 442Q175 423 175 402L118 394L43 449Q43 476 46 502Q48 525 53 549T68 593Q93 646 124 681T212 730Q231 734 253 732T296 726Q319 722 342 714L416
650Q429 628 440 605Q449 585 456 562T465 518Z" />
<glyph unicode="@" glyph-name="at" horiz-adv-x="857" d="M365 333L360 271L388 250L403 296L409 344L365 333ZM493 280Q493 255 485 238T445 220Q425 220 406 222T372 231T348 252T339 290Q339 327 354 349T410 371Q433 371 451 370T492 367Q488 360 488 351T488
330Q490 318 491 306T493 280ZM804 366Q804 511 729 584T507 657Q455 657 404 640T307 593T222 523T154 435T109 337T92 234Q92 198 108 162T151 93T213 32T287 -17T363 -50T436 -62H541Q561 -62 588 -56T643 -41T697 -20T741 2L713 40Q664 18 613 9T508 0Q425
0 359 14T246 62T174 156T148 306Q148 339 163 373T204 440T262 501T332 551T404 584T472 597Q530 597 576 578T654 524T706 442T730 339L682 259Q678 257 666 253T640 243Q626 237 615 233T601 229Q581 229 563 233T524 241L530 427Q507 429 484 430T439 429Q407
426 389 420T359 406Q351 401 345 395T331 381Q329 379 327 377T321 373Q304 350 296 330T288 306Q288 291 290 276T294 245Q304 234 321 219T357 191T397 168T433 158Q457 158 483 165T529 188L602 153Q646 158 683 175T747 219T789 283T804 366ZM835 364Q835
323 819 280T773 203T705 146T619 124Q608 124 597 126T573 133Q562 137 550 140T526 145Q518 145 509 144T490 141Q472 136 454 136Q419 136 380 152T308 197T254 260T232 333Q232 376 257 408T321 462T402 495T481 509L555 450L564 289L633 325L683 400L678 469Q641
523 586 550T466 578Q413 578 361 548T267 472T199 371T173 264Q173 195 199 155T268 95T362 70T467 65Q525 65 583 74T694 109L777 2Q744 -28 703 -45T616 -72T525 -84T436 -87Q361 -87 290 -54T162 35T71 162T37 309Q37 397 73 478T178 617Q186 624 205 635T248
660T298 686T349 710T394 728T424 735H571Q583 735 596 733T624 727Q638 723 651 720T676 714Q748 640 791 555T835 364Z" />
<glyph unicode="A" glyph-name="A" horiz-adv-x="599" d="M401 335L343 325L313 340Q313 375 319 410T333 478Q348 478 366 474T399 462Q398 450 397 438T395 414Q395 413 396 406T400 390T405 373T407 364L401 335ZM548 49Q535 140 511 228T460 405Q449 440 440
477T416 548Q404 577 391 610T364 673L340 629L308 556L276 480Q257 435 246 389T218 297Q195 231 170 167T119 37L171 13Q183 38 199 70T231 136T259 203T275 265L338 272Q355 280 376 277T415 273Q419 256 422 245T429 223T435 201T443 175Q447 161 447 145T452
115Q457 93 464 72T479 29L548 49ZM473 -7L365 65L344 247L299 250Q278 190 250 134T193 21Q190 14 188 6T183 -10L89 21L17 112Q49 182 78 255T131 402Q141 434 148 467T167 532Q176 555 190 586T221 649T254 712T284 766L368 716Q381 691 396 665T422 612L444
534Q454 499 464 464T485 393Q499 344 512 300T537 211T558 122T575 26L473 -7Z" />
<glyph unicode="B" glyph-name="B" horiz-adv-x="442" d="M293 240Q293 254 287 268T270 293L215 282Q214 269 213 257T212 232Q212 203 213 176T220 119Q224 123 235 141T260 179T283 218T293 240ZM191 588L201 494Q209 515 215 537T225 583L191 588ZM363 203Q363
177 347 156T306 118T255 93T206 83Q199 117 195 150T191 218V300Q195 301 203 303T219 308T236 312T247 314Q259 314 274 312T304 306T332 295T352 277Q355 273 357 263T360 242T362 219T363 203ZM290 529Q290 527 290 525T289 520Q287 513 284 504T276 485T266
467T254 454Q246 447 234 441T211 429Q198 423 184 417L172 552Q172 567 171 582T167 613L236 605L278 575Q283 565 286 553T290 529ZM405 245Q405 247 401 258T392 282T382 307T376 324Q354 343 331 360T278 385Q285 392 297 406T320 437T339 470T347 496Q347
536 337 575T307 649Q278 657 250 661T191 666Q174 666 159 665T127 659Q125 621 123 584T120 509Q120 390 122 271T138 33Q155 31 171 28T204 25Q242 25 286 39T363 73Q374 88 382 110T395 156T402 203T405 245ZM423 212Q423 202 419 182T410 139T398 97T386 70Q376
56 348 45T287 25T222 11T173 6Q159 6 147 7T120 11L35 78Q37 138 41 197T46 317Q46 383 38 446T30 576Q30 616 36 655T48 734Q66 738 86 744T125 750Q150 750 174 749T223 747Q257 733 284 708T331 650T360 580T371 507Q371 499 365 483T349 450T331 417T317 394Q329
388 344 376T373 349T397 319T413 290Q419 273 421 252T423 212Z" />
<glyph unicode="C" glyph-name="C" horiz-adv-x="634" d="M518 139Q501 132 483 128Q468 123 450 120T417 117Q378 116 350 123T287 151Q246 177 224 208T192 288Q188 313 192 339T204 389T221 430T238 457Q271 497 308 513T397 533Q424 535 450 535T497 532Q522
530 544 528L534 628Q498 630 463 630Q433 630 399 627T336 614Q312 606 292 598T255 580T221 556T187 523Q168 501 155 481T134 438T121 391T113 337Q111 310 110 287T112 242T123 199T145 154Q159 131 174 115T208 87T246 65T292 46Q339 28 377 21T463 29Q483
35 502 49T539 78Q558 95 576 114L518 139ZM608 122Q585 95 562 71Q542 51 519 32T476 6Q464 1 442 0T391 0T332 9T272 26Q256 32 228 44T168 76T109 123T64 185Q52 211 43 245T31 318T31 399T50 482Q64 521 82 550T123 604T174 648T238 690Q273 710 318 722T405
742Q453 750 503 754L556 663L569 501Q545 504 520 507Q499 509 474 510T429 509Q405 506 383 505T341 500T304 486T270 457Q256 440 245 428T226 397T215 349T216 269Q218 241 236 224T280 198T337 189T395 198Q408 202 421 210T446 227Q459 237 471 249L559 251L608
122Z" />
<glyph unicode="D" glyph-name="D" horiz-adv-x="601" d="M432 415Q432 417 429 428T422 453L410 493L343 540L277 531Q275 481 272 432T268 333Q268 298 272 263T277 193L281 190Q307 193 327 205T362 238Q370 249 377 259T390 280Q403 300 412 320Q422 340 427
363T432 415ZM497 398Q497 345 478 295T426 202T349 130T253 85Q251 109 248 135T245 185V301Q245 364 248 427T259 553Q281 557 300 561Q317 564 334 565T361 564Q380 559 404 540T448 495T483 444T497 398ZM559 329Q560 349 557 365T553 398Q553 417 545 445T525
503T499 558T471 597Q421 626 368 634T261 642Q250 642 239 641T215 637Q203 635 191 633T168 628Q166 585 164 543T162 458Q162 351 163 244T174 29Q190 27 206 25T236 23Q279 23 329 42T425 94T504 167T547 252Q550 268 554 288T559 329ZM582 344Q582 261 546
195T450 84T315 17T162 -1Q132 23 103 48T48 103Q46 133 44 163T42 224Q42 333 48 442T54 660Q54 675 55 690T57 721Q72 723 88 726T121 731Q138 734 154 736T185 738Q253 738 306 732T402 707T477 649T537 546Q557 497 569 448T582 344Z" />
<glyph unicode="E" glyph-name="E" horiz-adv-x="561" d="M508 119L423 108L333 105L259 92L248 211L251 299L381 312L468 315L466 365L367 373L280 362L232 349L230 447L235 580L360 601L497 611L492 651L375 654H280H195L124 649L126 564L140 413L132 270L134
116L145 26L256 15L373 31L511 47L508 119ZM405 13L275 0H124L39 79L44 304L42 543V731L179 736L325 741L468 754L511 675L519 598L386 585L254 558L251 447L325 455L418 452L479 384L487 296H357L275 272L272 180L394 185L481 190L524 137L534 31L405 13Z" />
<glyph unicode="F" glyph-name="F" horiz-adv-x="562" d="M400 651L300 637L184 632L170 468L165 349L156 222V100L167 19L247 22L250 122V219V316L339 310L431 306V340L433 374L329 371L253 376L247 460L252 562L327 578L404 574L512 579L516 660L400 651ZM534
563L431 557L349 556L282 545L275 460H397L455 393V288L350 285L281 295L275 211L272 91L275 0L142 -3L100 50L45 83V213L37 399L31 527L48 640L64 721L153 740L286 734L389 740L466 748L538 687L534 563Z" />
<glyph unicode="G" glyph-name="G" horiz-adv-x="655" d="M606 260Q560 265 509 267T411 271L384 212L431 188Q426 182 420 172Q415 164 407 152T389 126Q375 118 365 115T346 111T327 109T308 108Q281 115 257 129T215 164T187 210T176 265V369Q176 385 187 411T212
463T241 511T262 541Q282 565 311 580T372 603Q387 602 412 597T462 585Q491 577 523 568L544 633Q499 653 448 666T348 680Q304 680 267 662T199 614T145 544T106 462T82 377T74 298Q74 272 75 251T80 209T91 168T110 123Q133 108 161 91T219 60T280 34T340 20Q363
25 378 31T404 42Q415 47 423 53Q434 63 445 78T467 112T483 148T491 182L603 169L606 260ZM621 146L508 159Q507 144 500 125T481 88T457 55T433 30Q416 21 398 15Q382 9 362 5T318 0Q292 5 261 15T198 40T136 72T84 108Q55 155 39 207T22 316V449Q22 498 36 539T75
616T131 683T200 742Q221 750 249 753T308 758T366 760T416 760Q449 760 480 753T544 740L571 633L535 538Q512 548 494 554T459 565T422 572T378 576Q333 568 300 543T243 481T208 400T194 310Q194 300 197 282T206 244T215 209T221 188L286 135Q304 143 323 162T351
200L304 259L345 372H458Q487 372 514 366T571 354L627 274L621 146Z" />
<glyph unicode="H" glyph-name="H" horiz-adv-x="642" d="M588 245L582 430L576 630L504 627L489 461L474 329L267 352V489L261 652L159 644L141 425L132 222V40H231L237 169L243 279L345 276L495 267L498 149L510 20L588 29V245ZM609 9L504 -2L426 48L408 253L261
248L255 124L252 20L114 15L36 68L42 245L57 391L69 548V731L195 756L282 669L294 559L297 430L402 433L399 571L405 705L555 731L603 649V492L609 304L612 124L609 9Z" />
<glyph unicode="I" glyph-name="I" horiz-adv-x="533" d="M481 57L397 68L386 165L389 296V475L386 581L445 589L442 656L222 659H121L124 592L172 572H261V380L258 204V68L172 62V26L347 20L484 18L481 57ZM503 -5L328 4H149L67 59L78 147L169 143L174 288V450L169
547L105 567L41 611L38 745L194 753L305 750L411 753L467 684L473 569L414 558V402V143L506 79L503 -5Z" />
<glyph unicode="J" glyph-name="J" horiz-adv-x="503" d="M440 632L330 624L203 631L200 560L266 549L316 552L313 474L308 319L297 205Q296 189 293 175Q291 163 286 151T274 130Q269 123 261 119T244 111Q233 107 222 104L166 118L132 156L72 127L125 59L186
34L250 29Q266 34 281 40Q294 45 307 51T328 64Q335 73 341 92T352 131Q357 154 363 180L366 297V410L369 557L452 568L440 632ZM388 540L385 335L380 186Q376 157 372 132Q368 111 362 91T349 64Q332 42 308 27T267 10Q259 8 244 8T215 9Q198 10 179 12L111 47L50
122L0 225L75 272L143 179L157 157Q164 157 171 158Q177 159 183 160T196 166Q206 176 210 182T217 194Q219 199 219 202L233 319L239 430V532L176 543L100 588L106 730H264L403 749L466 654L480 552L388 540Z" />
<glyph unicode="K" glyph-name="K" horiz-adv-x="509" d="M447 150L390 227L328 294L274 343L337 409L405 508L461 606L411 621L357 533L285 438L217 394L205 512L190 653L139 643L137 503L135 345L130 191L126 25H180L186 162L199 309Q216 305 240 285T291 235T344
173T391 111T425 64T438 44Q438 43 442 45T452 50T465 58T477 66L447 150ZM432 20L354 59L290 136L210 198L203 124L197 5L125 2L42 77L45 221L57 340L60 464L57 562L60 732L166 745L210 668L227 512L285 588L357 701L421 709L450 668L485 618L450 549L388 446L310
340L393 258L463 162L496 59L432 20Z" />
<glyph unicode="L" glyph-name="L" horiz-adv-x="531" d="M483 108H310H205L194 195L205 393L200 645L122 640V385V198L128 24H307L486 30L483 108ZM307 -1L109 -4L33 84L41 268L47 541L33 751L163 757L219 667L225 496L222 307L217 189H335H452L508 132L511 10L307 -1Z" />
<glyph unicode="M" glyph-name="M" horiz-adv-x="668" d="M602 158V349L585 514L560 662L462 645L431 589L376 491L342 430Q337 451 329 474T312 518T298 552T292 567Q292 568 288 575T277 592T264 615T250 637L124 600L118 514L124 388L132 259L138 125L141 35L194
30L216 164L211 326V416L216 497L244 438L292 346L339 262L415 410L465 502L473 416L487 326L499 186Q500 172 501 146T504 95T506 50T507 30Q507 29 516 30T538 32T567 36T596 41Q597 58 598 78T600 116T601 145T602 158ZM613 10L496 -4L412 41L401 170V312L348
231L241 256L233 156L208 5L127 10L48 69L40 234V419V690L132 723L230 751L269 662L320 578L403 718L499 762L580 681L605 542L619 349L622 192L613 10Z" />
<glyph unicode="N" glyph-name="N" horiz-adv-x="622" d="M521 636L502 442L497 305L488 233L340 492L244 635L135 626L127 340L120 48L175 54L179 251L189 434L206 529L311 345L383 213L470 27L543 24L548 181L564 445L578 634L521 636ZM588 480L567 227L556
3L459 8L370 72L348 108L270 254L210 350L195 32L106 27L33 81L41 329L55 534V725L222 728L265 644L427 386L440 725L534 739L596 653L588 480Z" />
<glyph unicode="O" glyph-name="O" horiz-adv-x="615" d="M391 421Q391 441 388 467T375 516T351 555T310 570Q283 569 265 555T236 519T218 468T210 412T207 357T207 311Q207 291 209 259T219 196T243 142T287 119Q310 119 327 136T355 182T374 244T385 312T390
375T391 421ZM485 429Q485 401 484 365T477 290T462 216T432 151T386 105T318 87Q274 87 248 110T207 167T189 240T184 313Q184 349 186 396T200 486T240 558T317 588Q397 588 441 551T485 429ZM563 359Q563 422 557 475T529 567T464 628T348 650Q288 650 247 626T179
559T141 461T127 342Q125 281 133 224T167 121T239 49T360 22Q401 22 432 38T485 81T523 143T547 215T559 290T563 359ZM581 340Q581 310 577 274T562 201T537 127T498 64T445 19T375 1Q336 1 293 11T210 39T142 76T102 116Q84 150 72 182T54 246T45 312T42 384Q42
449 62 518T115 648Q142 676 162 695T204 724T250 739T310 744Q371 744 415 727T489 681T537 613T565 528T578 435T581 340Z" />
<glyph unicode="P" glyph-name="P" horiz-adv-x="437" d="M222 596L218 452Q227 458 236 465Q244 471 251 478T264 492Q267 500 268 516T268 549Q267 567 265 588L222 596ZM346 512Q346 490 340 473T324 441T300 417T272 400Q239 383 196 376Q195 390 195 402Q194
413 194 424T194 445Q194 490 197 533T202 621Q241 615 273 601Q300 589 322 568T346 512ZM381 555Q379 567 371 583T353 613Q342 630 327 646Q296 660 259 664T187 668Q172 668 155 666T122 661Q120 622 118 582T115 503Q115 447 113 385T111 259T114 135T130
19L185 14Q183 83 186 151T195 289Q213 292 233 299T274 317T313 339T345 366Q355 385 364 407T380 454T387 504T381 555ZM407 518Q407 459 394 421T357 356T297 309T215 268Q210 201 207 131T205 -6L120 -3L45 64Q49 126 45 185T40 306Q40 413 46 519T55 733Q59
734 72 737T100 745T127 752T142 755Q190 755 237 736T322 685T383 609T407 518Z" />
<glyph unicode="Q" glyph-name="Q" horiz-adv-x="705" d="M475 332Q475 347 473 371T467 421T454 475T434 523T406 558T368 572Q337 572 312 551T268 498T239 433T229 372Q229 352 232 325T242 268T259 211T286 160T322 123T370 109Q403 109 423 135T455 198T471
271T475 332ZM551 354Q551 319 540 273T506 185T450 114T375 85Q329 85 297 115T243 188T213 279T203 363Q203 396 215 438T249 517T303 579T374 605Q425 605 459 582T513 523T542 442T551 354ZM587 144Q601 193 612 251T624 362Q624 401 622 430T612 485T593 538T562
602Q544 614 521 624T473 642T423 654T376 659Q343 659 307 642T240 599T186 541T153 478Q148 462 146 444T142 411T140 384T139 370Q139 316 142 266T160 173T207 97T296 42Q298 41 310 39T335 35T360 31T374 29Q393 29 414 35T455 51T493 74T525 101L603 49L643
82L587 144ZM593 15L532 8Q530 8 522 11T505 19T487 28T475 34Q462 29 445 25T410 17T375 11T344 9Q316 10 283 23T218 53T162 87T123 114Q99 138 84 168T60 231T48 298T45 365Q45 405 56 450T89 537T138 616T201 678L289 718Q303 724 322 729T356 735Q385 735
423 728T490 710Q516 692 543 661T593 592T629 517T643 448Q643 377 640 301T614 157L670 84L593 15Z" />
<glyph unicode="R" glyph-name="R" horiz-adv-x="498" d="M325 555Q325 562 324 568T322 581L277 605L225 592L233 419Q261 430 282 447T312 494Q317 509 321 524T325 555ZM382 523Q382 502 376 479T358 436T329 399T290 375L212 349Q208 413 207 477T197 605L264
625L335 605Q339 599 346 588T362 564T376 541T382 523ZM465 45Q419 191 340 326Q371 343 397 375T441 438Q446 470 447 502T436 584Q424 604 413 617T393 639Q382 649 374 654Q353 659 327 667T280 675Q238 675 196 670T116 644Q122 487 121 332T132 20L214 26Q212
49 210 73T207 120Q207 160 208 199T212 279L277 284Q300 266 323 233T366 162T401 85T426 19L465 45ZM426 -7L329 14Q314 74 288 133T232 247Q231 221 230 196T228 144Q228 112 232 78T238 11L119 -2L43 50Q42 141 48 230T56 409Q56 453 52 495T48 581V706Q71
718 101 728T162 745T225 754T283 753Q327 741 361 715T420 652T457 573T470 487Q470 485 466 472T457 443T445 410T432 385L371 321Q407 255 435 183T486 40L426 -7Z" />
<glyph unicode="S" glyph-name="S" horiz-adv-x="645" d="M589 118Q589 174 572 210T526 272T461 315T387 351T312 391T246 449Q242 462 239 477Q237 490 237 506T243 539Q243 561 252 573T273 591Q286 598 303 599Q357 596 409 585T513 557L531 625Q526 626 507
633T464 647T417 662T382 671Q362 674 335 670T282 656T236 634T210 610Q199 595 189 580Q181 567 174 552T167 522Q167 461 185 423T232 360T298 319T373 286T448 247T513 188Q514 173 513 159Q512 147 509 135T498 113Q492 107 481 103T458 95T437 90T426 88Q356
88 289 115T170 188L122 133Q186 73 268 49T433 25Q449 25 470 31T513 50T555 79T589 118ZM612 152Q612 108 589 79T529 34T449 12T364 10Q322 14 276 30T191 65Q145 86 102 113Q83 137 66 160Q52 180 37 200T12 236L100 301Q130 291 161 276T222 244T282 210T341
180Q354 178 366 178T389 180Q400 182 412 184L451 223Q422 233 384 249T304 287T223 335T152 390T101 451T81 518Q81 557 108 601T175 682T261 743T345 768Q348 768 367 764T409 753T452 742T478 735L556 642L528 529Q476 549 422 562T310 579Q289 568 275 553T260
512Q260 470 286 443T351 393T436 352T521 306T586 243T612 152Z" />
<glyph unicode="T" glyph-name="T" horiz-adv-x="681" d="M620 643L481 645L316 648H135L132 560L217 549L332 547L329 363V190L335 30L431 32L441 208V368L444 536L519 539L620 549V643ZM540 512L460 507L465 317L457 139L452 8L329 0L236 59L231 307L220 520L116
531L23 589L34 744L135 749L287 744L449 752L569 741L641 661L644 523L540 512Z" />
<glyph unicode="U" glyph-name="U" horiz-adv-x="588" d="M527 449L510 632L425 594L430 426L447 278Q450 252 443 225T421 175T386 141T345 131Q302 138 280 149T246 175T232 203T226 230L214 409L212 609L140 599L146 207Q147 166 165 132T214 73T282 36T362
28Q401 32 433 43T487 77T522 139T533 235L527 449ZM555 213Q552 187 548 163Q545 143 540 123T530 93Q509 67 492 53T457 31T419 20T371 12Q321 5 275 13T190 40T124 87T82 151L57 264L55 491L52 715L177 736L237 619L234 494L237 312Q241 293 242 268T247 222T262
187T294 176Q313 179 325 191T344 222T354 262T357 302V426L322 727L450 759L524 656L547 469L555 213Z" />
<glyph unicode="V" glyph-name="V" horiz-adv-x="633" d="M525 633L464 422L422 293L388 213L264 493L206 620L166 615L248 322L311 150L364 42L462 245L522 409L586 646L525 633ZM544 403L483 221L364 2L237 92L156 340L92 522L58 699L182 725L224 649L348 345L398
501L446 723L554 741L610 667L544 403Z" />
<glyph unicode="W" glyph-name="W" horiz-adv-x="756" d="M644 605Q638 588 631 570T618 535Q615 527 613 520T608 508Q605 502 604 498Q602 498 597 486T586 457Q579 440 572 420T558 382L523 264L475 347L423 429L330 288L276 222L253 382L223 521L202 623L132
599L138 440L164 354L191 227L227 58L288 138L342 224L393 278L463 141L521 37L576 221L647 417L709 599L644 605ZM626 320L529 -7L495 -5L427 57L334 156L228 17L111 128L75 302L55 467L34 697L159 747L221 647L241 517L269 437L344 557L437 463L468 404Q478 431
489 459T509 512Q519 536 525 552T531 571Q531 573 532 576Q533 578 534 581T537 590Q539 598 542 609T550 635Q558 662 566 693T581 750L697 759L738 615L626 320Z" />
<glyph unicode="X" glyph-name="X" horiz-adv-x="636" d="M555 720L469 576L352 410L271 566L213 656L144 587L269 355L94 59L142 30L334 314L408 194L501 29L549 63L488 224L421 351L495 479L599 686L555 720ZM547 533L450 355L518 209L579 46L494 -4L370 57L283
204L146 0L64 56L32 138L155 384L22 650L138 767L227 673L307 541L381 646L441 735L541 756L628 704L547 533Z" />
<glyph unicode="Y" glyph-name="Y" horiz-adv-x="654" d="M540 701L488 603L434 487L383 411L261 598L212 687L150 657Q159 637 170 613T192 569T210 534T217 519Q217 518 225 503T247 467T277 420T309 374L358 308L225 47L280 22L434 308L526 502L612 676L540
701ZM518 441L418 237L293 -7L190 27L131 91L201 224L226 317L144 480L17 716L152 763L228 709L339 509L415 635L488 765L596 763L640 689L518 441Z" />
<glyph unicode="Z" glyph-name="Z" horiz-adv-x="660" d="M466 665L283 660H134V595L317 581L469 576L373 385L258 244L171 143L92 22H575L570 98L373 104L275 107L348 191L443 359L550 525L598 654L466 665ZM572 531L457 340L370 180H474H542L601 104L598 0L53
-3L11 84L154 284L342 559L126 570L53 618L61 736L575 741L631 668L572 531Z" />
<glyph unicode="[" glyph-name="bracketleft" horiz-adv-x="442" d="M374 705L269 695L142 681L144 470L147 38L161 -100L245 -110L333 -108L341 -29L288 -43H223L214 420L211 631H379L374 705ZM398 605H230L235 423L240 43L312 41L367 -21L350 -127L250 -130L137
-115L53 -53L56 418L53 619L60 772L197 782L341 791L403 717L398 605Z" />
<glyph unicode="\" glyph-name="backslash" horiz-adv-x="609" d="M473 209L350 424L211 659L165 622L279 437L355 297L431 151L485 36L543 87L473 209ZM487 0L382 50L255 309L157 476L35 688L145 754L228 691L341 503L451 280L578 87L487 0Z" />
<glyph unicode="]" glyph-name="bracketright" horiz-adv-x="395" d="M330 663L230 656H129V592L269 588L262 474L257 118L253 -72H147L145 -127L257 -133L335 -131V-1L337 186L339 565L330 663ZM362 483L355 109L353 -159H246L138 -154L54 -90V20L122 13L166
15L161 113L157 239L166 565L109 563L36 629L42 762L189 757L287 762L365 679L362 483Z" />
<glyph unicode="^" glyph-name="asciicircum" horiz-adv-x="462" d="M378 477L310 599L275 655L170 459L117 345L157 320L234 436L283 509L320 438L358 373L418 394L378 477ZM358 353L310 379L258 424L223 382L166 294L94 326L26 410L110 561L205 733L294 689L334
593L395 480L447 380L358 353Z" />
<glyph unicode="_" glyph-name="underscore" horiz-adv-x="645" d="M622 -132L429 -138L150 -141L147 -169H457L504 -166L632 -152L622 -132ZM517 -188L484 -189H129L16 -135L5 -126L12 -49L154 -50L464 -49L540 -45L658 -103L665 -176L517 -188Z" />
<glyph unicode="`" glyph-name="grave" horiz-adv-x="402" d="M143 650L112 599Q157 563 192 534Q207 522 221 510T247 489T265 475T272 469Q275 473 278 478Q280 482 283 487T290 498L308 526L143 650ZM281 436L180 511L90 589L41 644L101 753L165 704L309 603L331
530L281 436Z" />
<glyph unicode="a" glyph-name="a" horiz-adv-x="580" d="M316 338Q301 340 285 337Q271 334 254 326T220 300Q191 271 183 248T174 190Q174 174 178 156T190 123T209 101T235 99Q246 104 257 110T277 124Q286 132 292 140T303 157Q307 165 311 173L316 338ZM386
114Q360 98 336 86Q316 75 296 67T264 58Q244 58 226 63T192 82T168 123T156 192Q155 213 157 228T164 257T178 284T198 314Q214 337 238 346T285 358Q311 361 340 356L382 314L386 222V114ZM509 416L463 417L452 346Q427 365 401 380Q378 393 352 403T302 412Q205
409 156 334Q130 295 114 244T102 128Q105 85 119 62T155 29T204 16T260 12Q284 10 310 19T359 42Q385 56 410 76L428 74L430 24L510 22L514 236L509 416ZM428 0L378 30Q351 11 319 0T253 -11Q205 -11 165 6T97 54T54 126T38 214Q38 266 52 316T95 406T167 469T269
493Q303 493 331 483T391 462L402 518L494 514L534 432Q533 384 533 336T532 240Q532 180 534 120T538 0H428Z" />
<glyph unicode="b" glyph-name="b" horiz-adv-x="419" d="M265 275Q260 276 256 276T246 276Q241 276 235 275L239 141Q243 147 247 153Q251 158 254 163T261 174Q266 183 268 200T271 233T271 262T265 275ZM328 185Q331 149 321 128T293 94T257 75T223 62L222
288Q254 294 274 285T305 260T321 222T328 185ZM342 346Q327 354 311 360Q297 365 282 368T254 370Q243 368 232 363T211 351Q200 344 189 336V485L192 668L131 647L125 533L128 393L129 185L127 31Q183 11 234 20T326 72Q350 96 362 134T376 212T369 289T342 346ZM386
177Q382 125 358 88T297 29T213 3T113 14L44 83L49 339L51 528L59 721L148 762L210 696V577Q210 557 209 535T208 492T206 455T205 430Q209 430 226 431T265 427T310 408T352 366T381 292T386 177Z" />
<glyph unicode="c" glyph-name="c" horiz-adv-x="543" d="M498 395Q471 403 444 408Q421 413 394 416T344 419Q321 418 301 417T261 412T223 400T185 378Q140 346 116 307T94 212Q96 167 111 136T160 74Q177 59 194 50T228 35T265 27T308 22Q331 19 359 22T411
30Q439 35 468 44L475 110Q474 110 448 106T384 100T307 104T240 131Q225 142 212 153Q192 168 179 186T166 232Q166 257 178 274T209 301T255 318T312 327Q336 329 364 330T419 330Q449 329 479 327L498 395ZM488 300Q485 300 473 301T446 303T412 305T379 306Q362
305 348 305T319 303Q305 301 292 297T261 291Q230 289 214 277T192 252T185 227T185 215Q196 210 211 205Q224 200 241 196T280 186Q298 181 307 180T326 180Q335 181 347 182T383 186Q395 187 408 188T434 191T455 194T467 196L500 124L487 28Q484 27 466 22T421
11T365 1T309 0Q278 3 252 8T201 24T156 51T114 90Q95 111 82 130T60 170T49 214T47 268Q49 312 59 346T89 408T139 454T211 488Q250 501 292 502T371 500T432 491T460 484L518 408L488 300Z" />
<glyph unicode="d" glyph-name="d" horiz-adv-x="411" d="M203 290Q201 293 192 289T178 276Q174 272 170 259T163 231T158 206T156 193Q156 191 155 177T156 149L159 132L196 163Q196 173 197 193T200 235T203 272T203 290ZM283 78Q261 70 246 68T209 72Q164
84 151 112T137 176Q137 191 141 212T153 254T172 291T199 310Q212 313 221 313T239 313T257 311T280 308L283 78ZM322 647L312 493L306 378Q293 389 279 392T251 394T222 387T192 376Q152 362 136 336T109 267Q105 248 103 224T102 176T109 128T126 89Q149 57
177 45T244 27Q261 24 274 26T301 31T327 39T358 47V338L366 513L370 662L322 647ZM385 544L379 298L375 27Q349 17 325 11T278 4T231 6T180 21Q122 45 88 82T40 181Q34 211 35 244T44 310T67 373T102 427Q115 442 128 452T155 470T183 485T214 504L219 619L236
733L333 756L391 679L385 544Z" />
<glyph unicode="e" glyph-name="e" horiz-adv-x="627" d="M371 393Q363 394 354 395Q338 397 323 395Q318 394 312 392T300 388Q294 385 288 383H374L371 393ZM337 330L219 333Q226 351 240 366T272 392T311 409T352 414Q392 412 421 392T471 337L337 330ZM572
307Q570 367 540 404T456 449Q413 455 390 458T352 461T323 459T286 452Q222 438 184 397T129 292Q112 225 129 168T202 69Q237 43 269 36T344 29Q380 29 406 35T463 62Q476 70 484 78T500 95T515 114T534 135L481 143Q427 60 329 69Q287 73 259 90T207 143Q194
162 190 179T186 215T188 252T191 295H372L572 307ZM415 272L210 274L207 203L220 170L245 138Q276 131 302 132T359 148Q375 155 387 162T410 179T428 201T445 229L534 221L567 153Q554 137 546 123T528 95T508 70T481 46Q441 20 405 13T321 8Q259 11 214 29T124
92Q81 135 60 177T40 279Q43 338 66 379T135 455Q156 471 170 481T197 499T225 512T263 525Q303 536 347 540T444 531Q460 526 470 523T490 513T513 490T549 446Q580 408 588 371T595 282L415 272Z" />
<glyph unicode="f" glyph-name="f" horiz-adv-x="525" d="M61 410L53 310L92 287L97 371L61 410ZM519 586Q505 635 471 666T388 698Q361 699 336 690T291 663T256 623T237 572Q232 540 231 515T230 466Q232 442 233 417T234 360H115L113 283L240 278L229 21L315
26L311 243L381 251L386 322L305 319Q307 336 307 352T306 382Q304 397 303 411T301 439Q299 467 302 494T319 553Q334 586 353 598T390 607T427 588T459 548L519 586ZM454 526Q445 534 438 542T423 559Q416 568 410 575T396 586Q382 594 367 582T331 519Q323 498
323 478T322 436L356 424L406 325L401 234L331 226L329 -5L217 -3L143 49V264H98L32 303L43 435L141 457Q143 481 141 501Q139 522 138 540Q136 560 137 579T149 621Q155 635 161 648T173 674Q180 686 187 696T202 717Q220 735 245 745T309 754Q339 753 373 742T440
710T503 656T554 579L454 526Z" />
<glyph unicode="g" glyph-name="g" horiz-adv-x="561" d="M273 296Q259 292 245 285Q233 279 220 269T197 245Q183 225 182 203T185 161Q190 139 201 117L274 131L273 296ZM362 86Q362 76 340 72T287 69T227 82T182 115Q166 137 162 163T163 215T184 263T223 299Q240
309 262 310T305 309Q329 306 355 300Q356 268 358 233Q360 203 361 165T362 86ZM411 390V338Q382 351 356 360Q333 368 309 372T268 371Q241 362 223 351T191 328T168 301T151 273Q137 247 131 214T128 148T142 90T174 50Q196 36 217 29T257 19T294 17T326 23Q360
32 389 53Q392 26 391 1Q390 -21 385 -43T368 -82Q342 -114 310 -121T236 -128Q219 -128 201 -123T165 -112Q146 -105 127 -96L107 -125Q129 -135 151 -145Q169 -153 189 -161T224 -174Q308 -200 365 -185T452 -122Q470 -94 477 -66T486 -9T488 51T492 119Q495
158 496 204T496 292Q495 340 494 387L411 390ZM515 320Q516 282 516 243Q516 210 515 172T511 102Q509 73 509 48T506 0T500 -46T486 -97Q470 -140 443 -160T375 -197Q354 -205 335 -207T298 -209T260 -204T219 -194Q196 -189 171 -178T124 -154Q98 -141 74 -125L17
-29L88 6Q114 -12 140 -25Q162 -36 187 -46T234 -54Q274 -52 297 -42T332 -19Q345 -5 349 12Q328 6 307 2Q289 -1 269 -3T231 0Q189 10 164 30T115 86Q95 118 83 157T71 238T87 321T138 397Q173 431 209 440T277 448Q313 445 347 430L349 481L465 488L474 437L515
396V320Z" />
<glyph unicode="h" glyph-name="h" horiz-adv-x="514" d="M447 273Q429 308 403 323T337 346Q313 350 297 346T265 332T233 312T194 292L195 436L198 567L201 680L139 668L130 500L127 340V158L135 21L205 19L207 135Q208 156 213 178T228 218T254 248T293 262Q315
264 333 256T366 234T388 200T399 158L413 15L453 27L447 273ZM408 -5L305 45Q305 60 307 70T311 90T313 110T311 135Q305 165 298 187T266 233Q253 224 246 212T236 186T232 155T228 120Q225 103 224 89T223 61T226 33T231 1H118L35 68L44 274L50 471L68 744L171
764L222 706L216 401Q228 417 244 424T278 432T315 431T355 424Q385 418 405 402T438 363T458 312T468 256Q471 222 472 195T473 140T472 84T473 16L408 -5Z" />
<glyph unicode="i" glyph-name="i" horiz-adv-x="303" d="M217 237L220 435L166 429L160 207L169 21H220L217 237ZM197 604Q202 615 199 627T183 643Q170 647 158 644T142 628Q138 617 143 608T159 594Q170 589 180 591T197 604ZM157 0L79 102L70 510L193 525L238
459V3L157 0ZM210 586Q202 575 191 572T167 569T142 577T121 592L66 637Q59 654 57 670T67 701Q77 714 95 716T130 708L191 667Q218 649 221 627T210 586Z" />
<glyph unicode="j" glyph-name="j" horiz-adv-x="450" d="M360 300H300L306 -45Q301 -71 291 -87T261 -120Q229 -145 195 -150T126 -129L91 -183L169 -219Q188 -228 214 -226T268 -214T320 -185T361 -142Q374 -123 378 -104T383 -64T382 -22T378 24L360 300ZM355
427Q362 435 362 446T358 467T348 486T335 496Q329 498 322 496T308 487T297 474T291 457Q289 445 292 435T305 417Q317 409 330 412T355 427ZM405 -87Q398 -113 389 -132T368 -167T340 -195T303 -219Q240 -253 181 -243T63 -192L-9 -123L63 -51L141 -104Q154 -100
164 -98T182 -93T198 -85T214 -70Q232 -49 231 -23T228 33L207 366L309 375L381 324L405 -87ZM368 409Q357 398 344 395T316 392T289 400T267 415L206 463Q203 471 203 483T203 509T209 535T219 554Q230 567 248 569T282 561L343 520Q356 511 366 497T380 467T383
436T368 409Z" />
<glyph unicode="k" glyph-name="k" horiz-adv-x="447" d="M377 435L306 372L222 300L209 365L195 474L177 675L126 654V432V180L129 15L207 21L213 216L372 60L414 93L327 195L264 255L333 309L417 380L377 435ZM372 33L287 58L231 102L228 0L111 -6L41 50L54
306L45 549V741L144 759L201 690L224 389L325 464L387 456L444 381L305 255L444 87L372 33Z" />
<glyph unicode="l" glyph-name="l" horiz-adv-x="318" d="M224 237L217 663L167 659L174 290L180 23L227 21L224 237ZM164 0L78 68L67 738L204 752L239 686L249 2L164 0Z" />
<glyph unicode="m" glyph-name="m" horiz-adv-x="678" d="M620 183Q620 203 620 219T620 250T619 282T617 318Q615 349 608 368T590 397T563 412T528 420Q509 423 494 419T465 405T438 385T411 362Q409 407 380 428T311 456Q291 459 277 455T249 442T222 422T192
398L187 477L129 465L120 304L119 155L116 45L158 50Q161 80 163 106T167 157T174 210T188 270Q194 289 202 307T223 338T251 360T287 368Q312 368 326 352T347 311T356 259T358 210L361 27H400L415 194Q417 216 418 240T423 285T439 320T473 338Q498 342 512 326T534
285T544 232T547 183L549 10L607 8Q610 33 612 54T616 95T618 136T620 183ZM634 377Q648 269 644 173T621 -18L544 -13L469 43L478 176Q481 210 481 236T462 292Q451 310 446 296T438 243T431 144T415 9L345 4L270 45L277 196Q274 213 274 225T272 249T267 270T258
295Q246 319 237 316T219 293T205 241T193 171T183 98T175 36L100 23L30 101L40 280L54 419L49 559L151 574L197 501Q217 530 246 538T311 542Q351 537 373 515T415 457Q438 482 456 493T510 499Q561 491 594 458T634 377Z" />
<glyph unicode="n" glyph-name="n" horiz-adv-x="537" d="M479 196Q479 208 477 225T470 262T457 300T435 336Q406 371 376 387T298 406Q252 408 218 396T153 348L148 419L117 411L112 298L110 166V31L155 29Q158 55 158 83T160 141Q162 170 166 199T183 257Q197
288 227 311T298 332Q319 331 339 324T375 304T402 276T415 241L429 28L486 36L479 196ZM501 122Q503 99 503 75T497 20L418 10L351 47L354 198Q352 214 346 233T330 269T307 297T275 310Q254 311 239 303T213 279T196 243T185 198Q177 150 176 98T171 10H103L43
56L52 268L50 372L36 468L116 497L160 447Q184 467 222 471T300 470Q314 468 324 467T343 461T364 450T393 432L457 352Q472 315 481 286T493 218Q495 191 497 168T501 122Z" />
<glyph unicode="o" glyph-name="o" horiz-adv-x="605" d="M400 242Q401 271 395 290T377 320T349 337T313 343Q293 344 277 337T249 315T230 283T222 246Q220 226 225 207T240 173T266 147T302 136Q349 131 373 159T400 242ZM481 235Q481 207 470 186T439 149T395
126T342 114Q312 111 285 120T238 148T208 192T200 248Q202 272 211 294T235 333T270 359T315 367Q345 365 375 356T428 331T466 290T481 235ZM545 231Q546 284 531 320T489 381T425 421T342 446Q302 455 266 441T201 397T155 327T135 244Q133 200 150 160T197
89T266 38T349 17Q392 15 428 32T490 79T530 148T545 231ZM569 243Q574 193 555 145T501 62T419 9T324 2Q257 17 203 37T110 89T52 164T33 267Q35 320 58 367T121 449T211 503T319 519Q374 516 418 492T494 429T545 343T569 243Z" />
<glyph unicode="p" glyph-name="p" horiz-adv-x="442" d="M298 328Q299 334 295 338T283 344T267 347T254 345V288Q267 292 281 304T298 328ZM343 294Q344 267 334 248T307 217T272 200T238 197L232 372Q251 377 270 373T306 358T332 331T343 294ZM398 317Q389
368 374 402T332 454T267 471T174 453L165 237L153 -15L150 -212L213 -206L240 105Q288 113 321 132T373 179T399 242T398 317ZM418 315Q427 269 418 232T386 166T331 117T258 84L229 -225L139 -236Q127 -227 114 -215T91 -191T74 -171T67 -161Q67 -160 68 -127T71
-43T74 68T76 184L79 553Q152 560 209 553T307 520T375 444T418 315Z" />
<glyph unicode="q" glyph-name="q" horiz-adv-x="494" d="M260 421Q246 413 235 404Q224 396 214 386T198 366Q182 341 175 318T179 267Q184 255 194 250T217 244Q224 244 231 249T244 259Q250 265 256 273L260 421ZM333 175Q329 175 311 175T268 179T221 191T184
216Q167 237 161 260T156 307T169 355T196 401Q209 418 232 430T279 449T321 460T345 465L333 175ZM293 -26V91L253 92L236 -26L232 -155L294 -220L293 -26ZM407 -146L409 192L422 495Q393 508 363 514Q337 519 306 519T245 505Q221 493 201 482T165 456T135 423T110
381Q97 352 90 323T84 266T95 212T129 164Q153 140 183 129T241 114T289 111T314 113L315 -56L317 -229L527 -214L531 -136L407 -146ZM546 -229L305 -250L213 -170L214 -41L226 92Q213 96 200 100Q189 104 177 109T153 121Q103 153 75 188T32 281Q14 360 38 422T123
540Q148 564 186 578T261 601T325 613T357 617L443 516L433 221L432 -45L513 -51L549 -131L546 -229Z" />
<glyph unicode="r" glyph-name="r" horiz-adv-x="426" d="M396 410Q367 422 344 424T291 420Q255 412 232 397T186 353L176 451L135 438V295Q135 276 135 254T134 213T134 181T133 167Q133 167 134 146T136 99T139 52T141 29Q141 29 148 27T167 21T192 17T217
16L221 275Q232 306 250 324T299 351Q310 354 319 354T338 354T357 350T381 347L396 410ZM393 319Q373 333 355 333T311 332Q296 332 285 330T266 320T252 298T241 259L235 123L243 -6L126 10L48 76L57 277L39 515L129 558L188 485Q211 496 227 505T268 520Q294
526 313 527T359 526L416 433L393 319Z" />
<glyph unicode="s" glyph-name="s" horiz-adv-x="501" d="M440 118Q440 158 426 185T389 229T341 258T293 278T256 296T241 321Q241 348 262 369T310 390Q333 390 351 377T387 352L410 431Q389 442 367 451T321 461Q294 461 270 451T227 424T197 383T185 332Q185
292 197 274T228 248T271 235T319 214Q329 208 342 200T366 181T385 159T393 134Q393 117 385 103T363 78T334 61T303 55Q282 55 257 64T207 87T160 117T122 147L106 90Q124 73 148 59T198 34T252 17T304 11Q328 11 352 17T396 37T428 70T440 118ZM463 132Q463
100 449 74T411 27T358 -4T299 -15Q279 -15 248 -5T183 21T119 52T72 81L26 172L98 242Q123 222 142 206T182 177T225 159T280 152Q318 152 353 174Q333 191 304 199T251 219Q218 233 199 249T171 287T159 334T157 395Q157 452 175 481T224 524T295 541T378 549L436
439L393 326Q374 339 359 352T318 365Q309 365 299 364T279 360T264 349T258 330Q258 319 273 311T311 292T360 268T410 237T448 193T463 132Z" />
<glyph unicode="t" glyph-name="t" horiz-adv-x="432" d="M399 95Q391 96 380 96T357 95T332 95T311 103Q302 108 300 116T298 135T299 157T298 178L306 359L393 366L388 419L311 427L308 576H251L247 415V414L178 412L104 416L101 363L218 358L215 206Q215 187
215 175T217 151T219 126T222 95Q223 78 224 65T232 42T250 29T287 26Q321 27 347 27T402 34L399 95ZM418 14L316 3Q285 5 261 4T210 16Q179 33 158 53T136 109Q134 171 134 224T141 340L78 348L14 422L30 499L165 504L184 667L284 671L328 600V505L378 489L412
430V350L322 343V191H341L421 109L418 14Z" />
<glyph unicode="u" glyph-name="u" horiz-adv-x="486" d="M464 387L372 396L354 304Q351 289 351 270Q350 260 350 250T350 229Q349 207 347 184T336 138Q324 106 298 87T240 77Q211 85 200 109T186 164Q183 228 188 285T195 400H122V280Q122 248 122 227T122
186Q122 167 124 149T134 108Q136 100 137 94T141 80Q144 68 151 58Q159 48 175 41T221 29Q239 26 255 24T287 22T316 29T344 48Q376 79 389 109T403 184Q403 206 403 223T404 257T404 291T400 329L467 335L464 387ZM481 325L424 305L422 228Q418 207 418 190T415
155Q413 138 409 122T394 87Q386 72 377 58T356 31Q345 20 332 12T300 1Q280 -2 265 -2T236 2Q222 5 208 9T175 19Q158 23 146 27T124 38T105 52T84 71Q57 100 47 129T35 196Q35 245 35 282T38 354T44 422T51 497L169 511L219 417L204 208Q203 194 203 185T204
170T205 158T204 144Q203 131 210 130T226 138Q235 147 244 167T256 221Q261 263 261 302T267 384L301 499H433L483 403L481 325Z" />
<glyph unicode="v" glyph-name="v" horiz-adv-x="626" d="M459 467L369 310L306 202L254 354L215 504L160 486L219 200L264 46L408 259L480 392L581 388L593 462L459 467ZM597 366L488 370L392 197L270 12L125 137L57 579L189 609L235 516Q242 491 250 462T265
407L276 365L280 353L281 350V349Q282 349 282 349Q283 350 289 362T304 393Q313 411 322 431T340 465L399 583L567 590L621 483L597 366Z" />
<glyph unicode="w" glyph-name="w" horiz-adv-x="717" d="M604 401L521 220L404 415L294 270L217 426L145 388L178 239L232 62L323 172L386 262L431 143L494 25L579 189L660 376L604 401ZM612 214L498 -8L352 64L323 134L230 31L122 102L95 230L33 488L143 566L228
456L253 400L340 532L420 439L456 376L539 542L660 496L685 382L612 214Z" />
<glyph unicode="x" glyph-name="x" horiz-adv-x="537" d="M439 478L372 372L291 275L173 455Q165 449 158 441T145 425T136 412T132 405Q132 404 143 383T170 332T202 273T226 224L130 62L179 37L309 204L396 35L457 54Q450 69 443 86T429 117T418 142T413 153Q413
154 410 162T402 183T392 210T382 236L433 325L490 427L439 478ZM404 232L443 135L478 45L388 9L299 47L268 127L181 5L116 43L51 90L116 250L33 449L110 518L186 476L261 356L317 447L354 539L443 502L512 425L404 232Z" />
<glyph unicode="y" glyph-name="y" horiz-adv-x="609" d="M502 412L380 132L198 385L142 358L239 196L337 54L304 -64L240 -206L301 -211L461 104L565 406L502 412ZM476 81L313 -241L213 -220L148 -173L231 63L21 446L133 506L205 419L321 248L372 373L426 515L543
524L591 405L476 81Z" />
<glyph unicode="z" glyph-name="z" horiz-adv-x="500" d="M167 461L178 389L376 391L205 154L110 16H251L437 28L433 96H241L391 313L461 452L167 461ZM408 309L321 171L412 174L461 110L469 4L268 -4H89L25 67L140 229L229 370H157L55 418L64 541L260 553L392
549L483 461L408 309Z" />
<glyph unicode="{" glyph-name="braceleft" horiz-adv-x="399" d="M344 -45L204 -54L187 30L172 264L134 322L172 368L180 650L313 658L308 705L221 696L131 687L125 573L129 372L83 317L129 264L134 45L148 -83L349 -93L344 -45ZM373 -117Q373 -117 363 -117T337
-116T300 -114T257 -112Q206 -109 142 -106L68 -59L59 64L61 261L0 334L47 399L49 594L76 761L286 780L332 729V642L195 633L198 534L193 363L160 320L190 263L214 19L327 16L373 -28V-117Z" />
<glyph unicode="|" glyph-name="bar" horiz-adv-x="263" d="M206 442V628Q206 629 198 629T179 628Q167 627 152 625L138 467L143 312L134 138L141 42L182 40L177 129L182 285L206 442ZM229 460L204 342L197 192L202 18L120 15L41 117L43 294L41 473L45 603L55
732L172 739L234 643L229 460Z" />
<glyph unicode="}" glyph-name="braceright" horiz-adv-x="415" d="M294 409V575L277 692H109L100 629Q143 630 177 630Q206 630 230 630T254 629V400L304 321L252 270L244 -44L126 -56L124 -89L292 -79L304 39L315 265L378 320L294 409ZM334 248L327 36L306 -98L197
-108L110 -115L29 -77L46 6L167 10L174 117L176 319L223 362L181 383L166 602L79 605Q59 617 44 627Q31 635 21 642T11 650Q12 650 14 670T20 717Q24 746 27 784L155 771H256L299 705L312 420L361 371L398 315L334 248Z" />
<glyph unicode="~" glyph-name="asciitilde" horiz-adv-x="581" d="M478 313Q470 300 460 289Q452 279 442 269T421 254Q398 243 379 243T337 250Q323 253 315 259T298 273T280 287T258 297Q237 301 221 300T184 289Q173 284 164 276T146 259Q136 249 128 239L133
185Q145 201 158 214Q169 225 183 235T213 247Q232 250 245 247T275 235Q292 227 301 216T329 198Q347 191 361 191T394 195Q418 200 431 213T462 243Q477 258 491 275Q499 284 506 294L478 313ZM526 290Q517 277 506 265Q497 254 487 242T466 222Q453 211 442
201T420 184T395 172T366 167Q354 167 345 171T327 181T310 193T289 204Q279 208 274 212T263 221T247 227T217 228Q201 226 186 215T157 191Q142 176 128 157L44 239L51 305Q65 323 81 339Q95 353 111 365T145 385Q164 391 181 392T214 391T248 384T285 373Q303
367 314 358T346 347Q365 345 384 356T420 381Q438 397 455 417L509 405L526 290Z" />
</font>
</defs>
</svg>
