<?xml version="1.0" standalone="no"?> <!DOCTYPE svg PUBLIC "-//W3C//DTD SVG 1.0//EN" "http://www.w3.org/TR/2001/REC-SVG-20010904/DTD/svg10.dtd" > <svg xmlns="http://www.w3.org/2000/svg" width="100%" height="100%">
<defs >
<font id="GOTHAMB2" horiz-adv-x="497" ><font-face
    font-family="Gotham"
    units-per-em="1000"
    panose-1="2 0 6 4 4 0 0 9 0 4"
    ascent="907"
    descent="-200"
    alphabetic="0" />
<missing-glyph horiz-adv-x="500" />
<glyph unicode=" " glyph-name="space" horiz-adv-x="300" />
<glyph unicode="!" glyph-name="exclam" horiz-adv-x="271" d="M48 105H140L112 0H20L48 105ZM193 643L209 700H299L284 643L141 198H97L193 643Z" />
<glyph unicode="&quot;" glyph-name="quotedbl" horiz-adv-x="442" d="M191 700H283L282 695L143 428H100L191 700ZM388 700H480L479 695L340 428H297L388 700Z" />
<glyph unicode="#" glyph-name="numbersign" horiz-adv-x="682" d="M423 246L498 458H308L234 246H423ZM139 177H29L46 246H163L237 458H115L133 527H261L321 700H392L331 527H522L582 700H653L592 527H703L685 458H569L494 246H617L599 177H470L409 0H338L400
177H209L148 0H77L139 177Z" />
<glyph unicode="$" glyph-name="dollar" horiz-adv-x="623" d="M292 70Q331 69 363 78T418 103T455 143T468 196Q468 231 444 257T358 308L292 70ZM388 629Q349 633 317 625T261 601T224 562T210 512Q210 474 236 450T326 402L388 629ZM212 6Q144 17 90 48T-2
124L56 173Q89 135 134 110T236 75L304 327Q260 344 227 361T172 399T140 445T129 504Q129 546 147 582T199 644T276 685T373 700Q382 700 390 700T407 699L424 758H487L469 690Q522 679 563 656T636 600L581 547Q554 574 521 593T445 621L379 383Q465 351 507
311T549 204Q549 159 530 122T476 57T393 15T287 0H273L246 -98H182L212 6Z" />
<glyph unicode="%" glyph-name="percent" horiz-adv-x="837" d="M608 48Q635 48 657 62T697 98T723 148T733 204Q733 248 711 274T649 300Q622 300 600 286T560 250T534 199T524 143Q524 100 546 74T608 48ZM237 401Q264 401 286 415T326 451T352 501T362 557Q362
601 340 627T278 653Q251 653 229 639T189 603T163 553T153 497Q153 453 174 427T237 401ZM603 -7Q571 -7 546 4T501 34T472 81T462 139Q462 180 476 219T516 288T577 336T654 355Q685 355 711 344T756 313T785 267T795 209Q795 168 781 129T741 60T680 12T603
-7ZM743 700H822L143 0H64L743 700ZM232 346Q200 346 175 357T130 388T101 434T91 492Q91 533 105 572T145 641T206 689T282 708Q314 708 340 697T385 666T414 620T424 562Q424 521 410 482T370 413T309 365T232 346Z" />
<glyph unicode="&amp;" glyph-name="ampersand" horiz-adv-x="692" d="M244 58Q298 58 345 80T441 146L296 350Q197 324 152 277T107 175Q107 121 143 90T244 58ZM332 418Q384 432 418 448T472 482T500 519T509 557Q509 596 482 621T408 647Q384 647 363 638T325
613T300 576T291 531Q291 504 300 478T332 418ZM479 95Q423 43 366 17T235 -10Q191 -10 154 2T89 37T45 93T29 169Q29 247 86 308T261 401Q241 434 229 466T217 531Q217 569 232 602T273 659T334 698T411 712Q450 712 481 701T535 670T570 622T583 561Q583 534
573 507T538 455T472 408T367 368L492 193Q548 256 600 345L653 311Q623 261 593 220T531 143L616 24L557 -14L479 95Z" />
<glyph unicode="&apos;" glyph-name="quotesingle" horiz-adv-x="245" d="M191 700H283L282 695L143 428H100L191 700Z" />
<glyph unicode="(" glyph-name="parenleft" horiz-adv-x="434" d="M264 -141Q227 -109 195 -71T139 11T102 107T88 216Q88 291 112 363T185 501T309 621T484 717L511 660Q419 620 354 569T248 461T187 341T167 218Q167 167 178 123T209 42T255 -29T310 -93L264 -141Z" />
<glyph unicode=")" glyph-name="parenright" horiz-adv-x="434" d="M-61 -81Q30 -41 95 10T202 118T262 237T282 361Q282 412 271 455T241 537T195 608T139 672L186 719Q223 687 255 649T311 567T348 472T362 363Q362 288 338 215T265 77T141 -43T-34 -139L-61 -81Z" />
<glyph unicode="*" glyph-name="asterisk" horiz-adv-x="430" d="M221 408L264 527L145 484L130 535L257 557L158 639L197 677L278 580L300 703L351 690L308 572L427 615L442 563L315 542L414 460L375 422L294 519L272 395L221 408Z" />
<glyph unicode="+" glyph-name="plus" horiz-adv-x="642" d="M299 316H92L111 388H318L373 594H448L393 388H600L581 316H374L318 110H244L299 316Z" />
<glyph unicode="," glyph-name="comma" horiz-adv-x="255" d="M-45 -87Q-1 -76 21 -54T49 0H12L41 105H132L108 15Q90 -50 57 -80T-37 -121L-45 -87Z" />
<glyph unicode="-" glyph-name="hyphen" horiz-adv-x="410" d="M87 341H366L345 260H66L87 341Z" />
<glyph unicode="." glyph-name="period" horiz-adv-x="255" d="M41 105H132L104 0H12L41 105Z" />
<glyph unicode="/" glyph-name="slash" horiz-adv-x="508" d="M582 798H660L-47 -128H-125L582 798Z" />
<glyph unicode="0" glyph-name="zero" horiz-adv-x="715" d="M327 60Q385 60 435 94T523 182T582 304T604 442Q604 485 593 521T561 583T508 625T435 640Q378 640 328 606T240 518T181 396T159 258Q159 215 170 179T202 117T254 75T327 60ZM322 -12Q263 -12 218
8T141 64T93 149T77 258Q77 341 103 422T178 567T293 672T441 712Q499 712 545 692T622 636T669 551T686 442Q686 359 660 278T585 133T470 28T322 -12Z" />
<glyph unicode="1" glyph-name="one" horiz-adv-x="361" d="M259 617L117 576L115 645L303 705H362L173 0H94L259 617Z" />
<glyph unicode="2" glyph-name="two" horiz-adv-x="595" d="M-6 62L395 366Q453 410 482 448T512 531Q512 578 477 608T379 638Q320 638 273 610T187 542L135 592Q183 643 243 676T382 710Q429 710 468 698T535 662T578 607T594 536Q594 473 556 423T444 317L121
72H495L476 0H-22L-6 62Z" />
<glyph unicode="3" glyph-name="three" horiz-adv-x="605" d="M248 -12Q156 -12 95 25T3 124L65 164Q93 115 137 88T252 60Q293 60 328 71T390 104T430 153T445 215Q445 275 396 304T264 334H232L222 379L505 629H160L180 700H636L620 642L335 393Q374 390 409
378T470 344T512 292T527 221Q527 170 505 128T445 54T356 6T248 -12Z" />
<glyph unicode="4" glyph-name="four" horiz-adv-x="649" d="M417 232L513 589L129 232H417ZM399 166H35L25 225L544 705H620L493 232H602L584 166H475L431 0H354L399 166Z" />
<glyph unicode="5" glyph-name="five" horiz-adv-x="603" d="M251 -12Q165 -12 105 24T9 113L70 158Q104 111 149 85T257 59Q303 59 340 73T404 111T445 166T460 231Q460 294 417 329T303 365Q271 365 234 356T160 327L115 363L225 700H616L595 627H276L202 407Q224
418 259 426T322 434Q372 434 412 420T482 381T527 319T543 237Q543 187 522 142T463 63T371 8T251 -12Z" />
<glyph unicode="6" glyph-name="six" horiz-adv-x="641" d="M318 57Q360 57 394 71T454 110T493 166T507 233Q507 259 498 284T469 328T420 360T352 372Q308 372 273 358T212 320T173 266T159 204Q159 140 200 101Q223 78 253 68T318 57ZM316 -12Q263 -12 219
5T146 52Q113 85 95 132T77 246Q77 302 87 354T115 453T159 540T216 611Q265 660 322 686T448 712Q517 712 568 688T655 622L603 568Q574 600 535 620T442 640Q347 640 273 566Q232 525 202 464T165 338Q180 358 200 376T246 409T302 431T367 440Q418 440 459 425T528
382T572 318T588 239Q588 189 568 144T511 64T424 9T316 -12Z" />
<glyph unicode="7" glyph-name="seven" horiz-adv-x="586" d="M522 628H141L161 700H636L619 641L153 0H61L522 628Z" />
<glyph unicode="8" glyph-name="eight" horiz-adv-x="647" d="M301 58Q344 58 380 68T441 96T481 140T496 197Q496 222 484 245T447 286T390 314T314 325Q269 325 233 314T171 283T132 239T118 185Q118 157 130 134T167 94T225 68T301 58ZM376 390Q419 390 451
401T506 430T540 472T552 521Q552 574 509 608T392 642Q353 642 322 632T267 605T232 563T219 511Q219 485 230 463T262 425T312 400T376 390ZM296 -10Q239 -10 192 4T111 44T57 103T38 177Q38 219 54 252T97 309T162 349T242 373Q199 390 170 428T141 518Q141
557 159 592T211 653T291 695T394 710Q446 710 489 697T563 659T612 602T630 529Q630 493 617 463T580 410T525 371T457 348Q480 340 501 326T539 292T566 247T576 193Q576 150 556 113T498 49T409 6T296 -10Z" />
<glyph unicode="9" glyph-name="nine" horiz-adv-x="641" d="M338 320Q380 320 415 335T476 374T515 430T529 496Q529 558 489 598Q444 643 371 643Q329 643 294 628T234 589T195 531T181 462Q181 435 190 409T218 364T268 332T338 320ZM243 -13Q177 -13 123 13T28
84L80 138Q114 101 154 80T247 59Q341 59 416 134Q458 175 487 234T523 357Q509 338 490 319T445 285T388 261T320 251Q269 251 228 267T159 310T115 375T99 456Q99 508 120 554T178 635T264 690T373 711Q424 711 468 694T543 648Q576 614 594 567T612 449Q612
338 574 245T472 88Q422 39 366 13T243 -13Z" />
<glyph unicode=":" glyph-name="colon" horiz-adv-x="262" d="M44 105H136L108 0H16L44 105ZM155 517H247L218 412H126L155 517Z" />
<glyph unicode=";" glyph-name="semicolon" horiz-adv-x="262" d="M-41 -87Q3 -76 24 -54T52 0H16L44 105H136L112 15Q94 -50 61 -80T-33 -121L-41 -87ZM155 517H247L218 412H126L155 517Z" />
<glyph unicode="&lt;" glyph-name="less" horiz-adv-x="640" d="M76 319L94 385L627 618L605 535L169 347L504 158L484 86L76 319Z" />
<glyph unicode="=" glyph-name="equal" horiz-adv-x="640" d="M94 272H553L533 198H74L94 272ZM157 506H616L597 432H137L157 506Z" />
<glyph unicode="&gt;" glyph-name="greater" horiz-adv-x="640" d="M68 169L503 357L169 546L189 618L596 385L578 319L46 86L68 169Z" />
<glyph unicode="?" glyph-name="question" horiz-adv-x="537" d="M145 105H237L209 0H117L145 105ZM217 360L223 365Q276 369 320 381T395 414T443 462T460 526Q460 580 422 608T327 637Q272 637 225 613T145 557L100 609Q143 652 202 680T335 709Q383 709 421
696T487 658T528 602T542 532Q542 484 522 446T467 380T384 334T280 308L240 198H189L217 360Z" />
<glyph unicode="@" glyph-name="at" horiz-adv-x="980" d="M449 131Q483 131 517 147T577 190T620 252T637 325Q637 376 606 409T520 442Q485 442 454 426T398 383T360 320T346 242Q346 189 375 160T449 131ZM482 -159Q387 -159 310 -131T178 -52T93 72T63 232Q63
328 101 415T206 569T362 674T553 713Q646 713 719 686T844 610T921 498T948 362Q948 289 928 235T877 144T808 89T733 71Q680 71 649 96T608 165Q570 119 526 94T429 69Q396 69 367 80T317 113T283 166T270 236Q270 292 291 341T347 426T426 483T516 504Q576 504
611 475T663 406L690 494L755 477L679 233Q662 180 679 146T745 111Q770 111 799 126T853 173T894 251T911 362Q911 428 887 485T816 586T704 654T553 679Q459 679 377 643T233 545T136 402T100 232Q100 152 127 87T205 -26T325 -99T482 -125Q539 -125 588 -114T688
-80L703 -111Q649 -136 596 -147T482 -159Z" />
<glyph unicode="A" glyph-name="A" horiz-adv-x="761" d="M548 256L485 615L229 256H548ZM468 705H544L674 0H593L561 185H179L47 0H-40L468 705Z" />
<glyph unicode="B" glyph-name="B" horiz-adv-x="717" d="M361 71Q456 71 511 108T566 211Q566 238 554 258T521 291T470 311T405 318H193L127 71H361ZM411 388Q505 388 560 426T616 527Q616 577 579 603T473 629H276L212 388H411ZM218 700H480Q583 700 640 656T697
537Q697 499 684 469T647 415T591 376T522 353Q574 337 610 302T646 208Q646 163 626 125T568 59T476 16T352 0H30L218 700Z" />
<glyph unicode="C" glyph-name="C" horiz-adv-x="735" d="M383 -13Q321 -13 267 7T173 64T109 155T85 277Q85 362 118 440T208 579T341 676T505 712Q602 712 668 670T769 562L701 520Q669 575 622 607T498 639Q430 639 370 609T265 529T194 414T168 280Q168 229
184 189T230 120T299 76T387 61Q458 61 508 86T604 156L657 104Q633 80 605 59T543 21T470 -4T383 -13Z" />
<glyph unicode="D" glyph-name="D" horiz-adv-x="773" d="M277 73Q365 73 438 101T566 183Q608 225 631 280T654 401Q654 499 595 556Q524 627 382 627H278L129 73H277ZM218 700H387Q475 700 544 676T660 607Q736 531 736 406Q736 325 708 256T626 133Q563 70
471 35T267 0H30L218 700Z" />
<glyph unicode="E" glyph-name="E" horiz-adv-x="653" d="M218 700H719L699 628H277L213 389H590L570 317H194L128 72H555L536 0H30L218 700Z" />
<glyph unicode="F" glyph-name="F" horiz-adv-x="658" d="M218 700H721L702 627H277L210 377H590L570 305H191L109 0H30L218 700Z" />
<glyph unicode="G" glyph-name="G" horiz-adv-x="784" d="M396 -13Q332 -13 276 7T177 65T111 159T86 285Q86 366 118 443T208 579T345 675T516 712Q570 712 612 702T685 673T740 632T780 584L720 537Q705 558 686 577T642 610T585 632T509 640Q436 640 374 610T267
531T195 418T169 288Q169 234 186 192T234 120T307 76T401 60Q458 60 503 74T582 109L637 303H426L445 374H734L645 60Q589 25 529 6T396 -13Z" />
<glyph unicode="H" glyph-name="H" horiz-adv-x="756" d="M218 700H297L214 389H613L696 700H776L588 0H508L593 315H194L109 0H30L218 700Z" />
<glyph unicode="I" glyph-name="I" horiz-adv-x="291" d="M225 700H304L116 0H37L225 700Z" />
<glyph unicode="J" glyph-name="J" horiz-adv-x="548" d="M194 -10Q153 -10 120 1T60 32T16 79T-14 139L49 176Q71 119 105 91T195 63Q263 63 313 111Q337 136 354 171T386 262L504 700H584L462 247Q445 181 423 137T367 58Q333 24 288 7T194 -10Z" />
<glyph unicode="K" glyph-name="K" horiz-adv-x="718" d="M218 700H297L186 284L688 700H800L424 392L623 0H534L360 346L157 179L109 0H30L218 700Z" />
<glyph unicode="L" glyph-name="L" horiz-adv-x="607" d="M218 700H297L129 73H523L503 0H30L218 700Z" />
<glyph unicode="M" glyph-name="M" horiz-adv-x="869" d="M218 700H292L443 318L800 700H888L700 0H620L772 567L417 192H413L260 566L108 0H30L218 700Z" />
<glyph unicode="N" glyph-name="N" horiz-adv-x="786" d="M218 700H291L576 132L729 700H806L618 0H555L263 581L107 0H30L218 700Z" />
<glyph unicode="O" glyph-name="O" horiz-adv-x="842" d="M400 60Q469 60 527 89T628 167T695 278T720 406Q720 455 704 498T658 572T586 621T491 639Q422 639 364 610T263 532T196 421T171 293Q171 243 187 201T233 127T305 78T400 60ZM395 -13Q327 -13 271 10T174
75T111 171T88 291Q88 372 119 448T205 582T334 676T496 712Q564 712 620 689T717 624T780 528T803 409Q803 328 772 252T686 117T557 23T395 -13Z" />
<glyph unicode="P" glyph-name="P" horiz-adv-x="667" d="M346 319Q471 319 538 366T605 500Q605 551 573 583Q529 627 434 627H277L195 319H346ZM218 700H437Q571 700 637 635Q661 610 674 578T687 505Q687 444 662 397T592 316T483 266T342 249H176L109 0H30L218 700Z" />
<glyph unicode="Q" glyph-name="Q" horiz-adv-x="842" d="M400 60Q445 60 486 73T562 111L453 239L515 286L617 157Q665 206 692 271T720 406Q720 455 704 498T658 572T586 621T491 639Q422 639 364 610T263 532T196 421T171 293Q171 243 187 201T233 127T305
78T400 60ZM607 53Q561 22 508 5T395 -13Q327 -13 271 10T174 75T111 171T88 291Q88 372 119 448T205 582T334 676T496 712Q564 712 620 689T717 624T780 528T803 409Q803 320 766 238T664 96L734 17L672 -29L607 53Z" />
<glyph unicode="R" glyph-name="R" horiz-adv-x="717" d="M391 343Q460 343 510 360T590 407Q610 428 621 453T632 509Q632 556 603 585Q583 605 550 616T466 627H278L201 343H391ZM218 700H470Q601 700 667 636Q713 588 713 515Q713 469 697 431T651 363Q618
330 568 309T457 280L601 0H510L372 272H182L109 0H30L218 700Z" />
<glyph unicode="S" glyph-name="S" horiz-adv-x="637" d="M298 -10Q201 -10 129 25T12 123L72 170Q117 116 171 89T303 61Q341 61 373 71T429 98T466 139T480 192Q480 212 473 228T449 260T404 289T336 320Q288 339 252 358T192 398T156 446T144 507Q144 550 163
587T216 652T298 694T402 710Q484 710 547 681T650 604L592 552Q554 594 506 616T395 639Q356 639 325 629T272 602T239 562T227 516Q227 495 235 478T263 446T311 417T382 387Q427 370 461 352T517 311T551 263T563 202Q563 156 543 117T487 50T403 6T298 -10Z"
/>
<glyph unicode="T" glyph-name="T" horiz-adv-x="616" d="M364 627H128L148 700H699L679 627H443L275 0H196L364 627Z" />
<glyph unicode="U" glyph-name="U" horiz-adv-x="758" d="M347 -11Q284 -11 237 5T157 52T109 123T92 213Q92 268 107 322L207 700H287L181 301Q176 285 174 265T171 222Q171 188 182 159T216 108T273 74T354 62Q398 62 437 78T510 126Q537 154 560 196T599 297L708
700H787L675 283Q639 150 565 76Q478 -11 347 -11Z" />
<glyph unicode="V" glyph-name="V" horiz-adv-x="717" d="M137 700H221L307 98L716 700H806L318 -5H247L137 700Z" />
<glyph unicode="W" glyph-name="W" horiz-adv-x="1083" d="M145 700H227L271 117L618 702H683L720 117L1076 700H1165L726 -5H657L617 560L274 -5H206L145 700Z" />
<glyph unicode="X" glyph-name="X" horiz-adv-x="694" d="M328 362L152 700H239L385 414L664 700H766L420 351L602 0H515L363 299L72 0H-31L328 362Z" />
<glyph unicode="Y" glyph-name="Y" horiz-adv-x="663" d="M292 282L119 700H207L347 347L677 700H778L368 269L296 0H216L292 282Z" />
<glyph unicode="Z" glyph-name="Z" horiz-adv-x="669" d="M-5 53L592 629H165L185 700H727L713 647L115 71H561L542 0H-19L-5 53Z" />
<glyph unicode="[" glyph-name="bracketleft" horiz-adv-x="439" d="M232 700H518L502 640H288L98 -70H311L295 -130H9L232 700Z" />
<glyph unicode="\" glyph-name="backslash" horiz-adv-x="508" d="M139 798H205L423 -128H357L139 798Z" />
<glyph unicode="]" glyph-name="bracketright" horiz-adv-x="439" d="M-49 -70H165L355 640H141L157 700H444L221 -130H-66L-49 -70Z" />
<glyph unicode="^" glyph-name="asciicircum" horiz-adv-x="500" d="M328 702H388L488 493H427L350 647L191 493H117L328 702Z" />
<glyph unicode="_" glyph-name="underscore" horiz-adv-x="600" d="M-97 -97H508L490 -160H-114L-97 -97Z" />
<glyph unicode="`" glyph-name="grave" horiz-adv-x="500" d="M279 703L360 740L416 595H362L279 703Z" />
<glyph unicode="a" glyph-name="a" horiz-adv-x="576" d="M207 50Q240 50 272 61T331 92T379 141T409 203L419 239Q385 248 343 255T252 262Q183 262 141 229T98 141Q98 99 127 75T207 50ZM182 -11Q149 -11 120 -2T68 26T32 70T19 132Q19 175 36 210T84 269T157
306T249 319Q301 319 348 311T432 291L436 304Q438 315 440 327T442 351Q442 401 408 428T303 455Q261 455 227 448T157 428L143 493Q182 508 223 516T315 525Q413 525 465 482T518 364Q518 348 516 330T508 293L430 0H354L375 81Q340 39 292 14T182 -11Z" />
<glyph unicode="b" glyph-name="b" horiz-adv-x="659" d="M312 56Q358 56 397 76T466 129T511 207T528 302Q528 338 518 367T488 417T442 449T382 460Q339 460 298 440T224 386T172 308T152 217Q152 183 163 154T196 103T246 69T312 56ZM319 -12Q279 -12 248 -2T193
26T153 67T125 116L94 0H17L213 730H290L208 428Q246 470 293 499T404 528Q448 528 485 513T550 468T593 399T609 309Q609 240 585 182T521 80T428 13T319 -12Z" />
<glyph unicode="c" glyph-name="c" horiz-adv-x="562" d="M277 -12Q232 -12 191 3T118 48T67 119T48 214Q48 277 72 334T138 434T235 502T352 528Q392 528 425 518T483 492T527 453T558 407L496 368Q485 387 471 403T440 432T399 452T347 460Q303 460 263 440T193
387T145 309T127 216Q127 178 139 148T173 98T223 67T281 56Q327 56 363 74T434 124L479 74Q439 36 391 12T277 -12Z" />
<glyph unicode="d" glyph-name="d" horiz-adv-x="659" d="M277 56Q320 56 361 76T435 130T487 208T507 300Q507 334 496 363T463 413T413 447T347 460Q301 460 262 440T193 387T148 308T131 214Q131 178 141 149T171 99T218 67T277 56ZM255 -12Q211 -12 174 4T109
48T66 117T50 207Q50 276 74 334T138 436T231 503T340 528Q380 528 411 518T466 490T506 449T534 400L622 730H699L504 0H427L450 88Q413 46 366 17T255 -12Z" />
<glyph unicode="e" glyph-name="e" horiz-adv-x="589" d="M470 291Q472 299 473 308T474 330Q474 357 467 381T443 423T403 452T345 463Q307 463 274 450T214 413T168 358T137 291H470ZM126 229Q125 224 125 220T125 211Q125 140 167 98T281 55Q331 55 368 71T440
116L480 65Q442 33 394 11T277 -12Q226 -12 184 4T111 49T65 118T48 208Q48 267 70 324T133 427T229 500T349 528Q398 528 435 512T498 469T536 406T549 330Q549 304 544 279T530 229H126Z" />
<glyph unicode="f" glyph-name="f" horiz-adv-x="375" d="M167 449H96L114 517H185L202 579Q222 657 267 694T379 732Q440 732 482 710L464 644Q441 655 422 660T379 665Q342 665 316 642T275 567L262 517H431L412 449H244L123 0H46L167 449Z" />
<glyph unicode="g" glyph-name="g" horiz-adv-x="659" d="M287 106Q331 106 371 123T441 170T490 236T508 314Q508 342 497 368T466 415T416 448T349 460Q308 460 270 444T202 399T154 331T136 245Q136 210 148 184T182 141T230 115T287 106ZM240 -162Q168 -162
102 -138T-13 -72L35 -18Q77 -53 128 -74T239 -96Q288 -96 324 -82T384 -43Q408 -20 423 10T449 81L463 133Q424 93 377 67T265 40Q224 40 187 53T120 91T73 152T55 235Q55 299 80 353T145 446T238 506T345 528Q387 528 417 518T470 490T508 450T535 404L565 517H642L524
74Q507 14 488 -23T440 -89Q404 -125 355 -143T240 -162Z" />
<glyph unicode="h" glyph-name="h" horiz-adv-x="613" d="M213 730H290L210 433Q245 473 288 500T390 528Q465 528 510 485T555 368Q555 350 551 329T542 288L466 0H389L467 293Q471 306 473 322T475 351Q475 402 444 430T359 459Q329 459 300 447T246 412T202
360T172 292L94 0H17L213 730Z" />
<glyph unicode="i" glyph-name="i" horiz-adv-x="264" d="M163 517H240L101 0H24L163 517ZM211 715H299L276 630H188L211 715Z" />
<glyph unicode="j" glyph-name="j" horiz-adv-x="263" d="M-50 -163Q-70 -163 -85 -161T-119 -154L-101 -89Q-91 -92 -80 -94T-57 -96Q-31 -96 -12 -79T17 -26L163 517H240L92 -34Q74 -100 37 -131T-50 -163ZM211 715H299L276 630H188L211 715Z" />
<glyph unicode="k" glyph-name="k" horiz-adv-x="568" d="M213 730H290L157 233L505 517H610L333 294L475 0H388L268 245L130 135L94 0H17L213 730Z" />
<glyph unicode="l" glyph-name="l" horiz-adv-x="264" d="M220 730H297L101 0H24L220 730Z" />
<glyph unicode="m" glyph-name="m" horiz-adv-x="950" d="M155 517H232L210 433Q245 473 285 500T382 528Q415 528 440 518T483 492T512 455T529 411Q564 465 616 496T737 528Q772 528 801 517T851 484T883 434T895 368Q895 350 891 329T881 288L804 0H727L806
293Q809 306 811 322T813 351Q813 402 785 430T706 459Q677 459 650 447T598 412T556 359T527 292L450 0H373L451 293Q455 306 457 322T459 351Q459 402 431 430T351 459Q322 459 295 447T243 412T201 359T172 292L94 0H17L155 517Z" />
<glyph unicode="n" glyph-name="n" horiz-adv-x="613" d="M155 517H232L210 433Q245 473 288 500T390 528Q465 528 510 485T555 368Q555 350 551 329T542 288L466 0H389L467 293Q471 306 473 322T475 351Q475 402 444 430T359 459Q329 459 300 447T246 412T202
360T172 292L94 0H17L155 517Z" />
<glyph unicode="o" glyph-name="o" horiz-adv-x="638" d="M289 57Q332 57 372 76T443 129T492 205T510 294Q510 373 465 416T348 460Q303 460 263 440T193 386T145 310T127 222Q127 143 172 100T289 57ZM284 -12Q231 -12 188 5T113 54T66 127T49 220Q49 280 73
336T139 434T236 502T353 528Q406 528 449 511T524 463T572 390T589 297Q589 235 564 179T497 81T400 13T284 -12Z" />
<glyph unicode="p" glyph-name="p" horiz-adv-x="659" d="M312 56Q358 56 397 76T466 129T511 207T528 302Q528 338 518 367T488 417T442 449T382 460Q339 460 298 440T224 386T172 308T152 217Q152 183 163 154T196 103T246 69T312 56ZM155 517H232L208 428Q246
470 293 499T404 528Q448 528 485 513T550 468T593 399T609 309Q609 240 585 182T521 80T428 13T319 -12Q279 -12 248 -2T193 26T153 67T125 116L51 -160H-26L155 517Z" />
<glyph unicode="q" glyph-name="q" horiz-adv-x="659" d="M277 56Q320 56 361 76T435 131T487 209T507 300Q507 334 496 363T463 413T413 447T347 460Q301 460 262 440T193 387T148 308T131 214Q131 178 141 149T171 99T218 67T277 56ZM451 89Q413 47 366 18T255
-12Q211 -12 174 4T109 48T66 117T50 207Q50 276 74 334T138 436T231 503T340 528Q380 528 411 518T466 490T506 450T534 401L565 517H642L451 -200H374L451 89Z" />
<glyph unicode="r" glyph-name="r" horiz-adv-x="402" d="M155 517H232L197 382Q221 416 247 443T305 490T370 518T443 526L421 443H416Q374 443 333 428T256 382T192 307T149 204L94 0H17L155 517Z" />
<glyph unicode="s" glyph-name="s" horiz-adv-x="496" d="M217 -11Q157 -11 98 11T-6 79L44 129Q86 88 131 71T224 53Q246 53 266 59T303 76T328 103T338 139Q338 164 317 184T240 227Q170 254 132 284T94 369Q94 402 107 431T146 481T208 515T290 528Q347 528
398 507T481 457L436 404Q404 430 365 447T283 464Q228 464 200 439T171 382Q171 369 175 359T191 338T223 317T274 294Q344 265 379 234T415 152Q415 116 400 86T357 35T294 1T217 -11Z" />
<glyph unicode="t" glyph-name="t" horiz-adv-x="401" d="M202 -9Q146 -9 111 16T76 93Q76 107 78 121T83 147L164 449H93L111 517H183L225 673H301L259 517H422L404 449H241L161 151Q159 142 158 132T157 113Q157 86 176 73T228 60Q262 60 303 76L284 6Q264 -2
245 -5T202 -9Z" />
<glyph unicode="u" glyph-name="u" horiz-adv-x="613" d="M222 -11Q147 -11 103 32T58 149Q58 167 62 188T71 229L147 517H224L145 224Q142 211 140 195T138 166Q138 115 168 87T253 58Q283 58 312 70T367 105T411 158T440 226L518 517H595L457 0H380L403 84Q368
44 325 17T222 -11Z" />
<glyph unicode="v" glyph-name="v" horiz-adv-x="566" d="M88 517H169L227 88L513 517H600L239 -4H171L88 517Z" />
<glyph unicode="w" glyph-name="w" horiz-adv-x="848" d="M96 517H174L201 105L451 519H515L544 105L793 517H873L551 -4H483L453 404L204 -4H137L96 517Z" />
<glyph unicode="x" glyph-name="x" horiz-adv-x="564" d="M243 268L113 517H198L296 320L493 517H590L327 261L462 0H377L274 210L62 0H-35L243 268Z" />
<glyph unicode="y" glyph-name="y" horiz-adv-x="574" d="M38 -163Q5 -163 -22 -154T-75 -127L-33 -69Q-19 -80 4 -87T46 -95Q79 -95 110 -75T181 1L87 517H167L239 86L517 517H604L250 -17Q195 -97 146 -130T38 -163Z" />
<glyph unicode="z" glyph-name="z" horiz-adv-x="549" d="M-6 49L435 452H114L132 517H564L550 468L108 65H446L428 0H-20L-6 49Z" />
<glyph unicode="{" glyph-name="braceleft" horiz-adv-x="483" d="M311 -141Q266 -132 234 -116T183 -78T154 -32T145 22Q145 45 150 68T168 133Q173 150 175 165T178 192Q178 223 159 240T87 257H59L75 317H103Q141 317 167 326T212 355T243 409T264 492Q273
543 291 583T340 651T420 696T538 715L539 660Q486 657 450 644T391 608T355 553T335 479Q326 426 313 391T282 334T238 299T179 282Q252 264 252 198Q252 168 241 135Q233 112 227 84T220 32Q220 -12 245 -43T335 -93L311 -141Z" />
<glyph unicode="|" glyph-name="bar" horiz-adv-x="303" d="M139 798H203V-128H139V798Z" />
<glyph unicode="}" glyph-name="braceright" horiz-adv-x="483" d="M-41 -86Q12 -83 48 -70T107 -34T143 21T163 95Q172 147 185 182T216 240T260 275T319 292Q245 310 245 376Q245 390 248 406T257 439Q264 462 271 490T278 542Q278 586 253 617T163 667L187
715Q232 706 263 690T314 652T343 606T352 552Q352 529 347 506T330 441Q319 406 319 382Q319 351 338 334T411 317H438L423 257H395Q357 257 331 248T286 219T255 165T233 82Q224 31 207 -9T158 -77T78 -122T-40 -141L-41 -86Z" />
<glyph unicode="~" glyph-name="asciitilde" horiz-adv-x="473" d="M78 260Q103 312 131 339T196 366Q219 366 234 357T266 333Q283 317 292 311T315 304Q333 304 346 319T377 363L426 342Q402 290 374 263T309 236Q286 236 271 245T239 269Q222 285 212 291T190
298Q172 298 159 283T128 238L78 260Z" />
</font>
</defs>
</svg>
