<?xml version="1.0" standalone="no"?> <!DOCTYPE svg PUBLIC "-//W3C//DTD SVG 1.0//EN" "http://www.w3.org/TR/2001/REC-SVG-20010904/DTD/svg10.dtd" > <svg xmlns="http://www.w3.org/2000/svg" width="100%" height="100%">
<defs >
<font id="PRINTCLEARLY" horiz-adv-x="376" ><font-face
    font-family="Print Clearly"
    units-per-em="1000"
    panose-1="0 0 4 0 0 0 0 0 0 0"
    ascent="800"
    descent="-207"
    alphabetic="0" />
<missing-glyph horiz-adv-x="500" d="M63 0V800H438V0H63ZM125 63H375V738H125V63Z" />
<glyph unicode=" " glyph-name="space" horiz-adv-x="297" />
<glyph unicode="!" glyph-name="exclam" horiz-adv-x="184" d="M92 117Q78 117 78 132V598Q78 612 92 612Q106 612 106 598V132Q106 117 92 117ZM92 41Q115 41 115 19Q115 -4 92 -4Q69 -4 69 19Q69 41 92 41Z" />
<glyph unicode="&quot;" glyph-name="quotedbl" horiz-adv-x="236" d="M153 610Q167 610 167 596V434Q167 420 153 420Q139 420 139 434V596Q139 610 153 610ZM83 610Q97 610 97 596V434Q97 420 83 420Q69 420 69 434V596Q69 610 83 610Z" />
<glyph unicode="#" glyph-name="numbersign" horiz-adv-x="458" d="M151 377L132 298Q130 287 119 287Q105 287 105 301Q105 302 122 377H83Q69 377 69 391Q69 405 83 405H129L149 491H83Q69 491 69 504Q69 518 83 518H155L174 598Q176 608 187 608Q201 608 201
594Q201 593 184 518H307L326 598Q328 608 339 608Q353 608 353 594Q353 593 336 518H375Q389 518 389 504Q389 491 375 491H329L309 405H375Q389 405 389 391Q389 377 375 377H303L284 298Q282 287 271 287Q257 287 257 301Q257 302 274 377H151ZM177 491L157
405H281L301 491H177Z" />
<glyph unicode="$" glyph-name="dollar" horiz-adv-x="487" d="M83 176Q95 176 97 162Q97 152 99 134Q109 70 162 35Q187 18 224 13V307Q69 358 69 464Q69 527 114 569T224 614Q224 639 224 638Q226 653 238 653Q250 653 252 637Q252 639 252 612Q315 604 353
559T392 451Q392 438 378 438Q368 438 366 451T359 488Q338 571 252 584V327Q418 268 418 145Q418 73 372 29T252 -16V-119Q252 -133 238 -133Q224 -133 224 -119V-15Q153 -6 111 42T69 162Q69 176 83 176ZM224 586Q172 584 135 550T97 464Q97 380 224 336V586ZM252
297V12Q313 13 351 49T390 146Q390 245 252 297Z" />
<glyph unicode="%" glyph-name="percent" horiz-adv-x="731" d="M200 271Q140 271 102 330Q69 381 69 444Q69 507 102 558Q140 617 200 617Q260 617 297 558Q330 507 330 444Q330 381 297 330Q260 271 200 271ZM200 589Q151 589 122 538Q97 496 97 444Q97 392
122 350Q151 299 200 299Q248 299 277 350Q302 392 302 444Q302 496 277 538Q248 589 200 589ZM401 144Q401 207 433 258Q471 316 531 316Q591 316 629 258Q662 207 662 144Q662 81 629 30Q591 -29 531 -29Q471 -29 433 30Q401 81 401 144ZM531 289Q483 289 453
238Q428 195 428 144Q428 92 453 49Q483 -1 531 -1Q579 -1 609 49Q634 92 634 144Q634 195 609 238Q579 289 531 289ZM229 -12Q215 -12 215 2Q215 5 495 593Q499 601 508 601Q521 601 521 587Q521 584 242 -4Q238 -12 229 -12Z" />
<glyph unicode="&amp;" glyph-name="ampersand" horiz-adv-x="776" d="M303 -66Q134 -66 86 35Q69 71 69 106Q69 170 133 234Q168 269 251 325Q177 416 177 488Q177 547 224 586Q267 622 328 622Q381 622 415 591T450 507Q450 450 395 397Q369 372 292 319Q383
218 576 88Q623 156 623 235Q623 248 618 272T613 306Q613 320 627 320Q650 320 650 235Q650 147 600 72Q636 50 701 7Q707 2 707 -5Q707 -19 694 -19Q686 -19 583 50Q490 -66 303 -66ZM205 489Q205 425 273 341Q347 390 368 410Q422 459 422 507Q422 548 396 571T328
594Q279 594 244 566Q205 536 205 489ZM269 304Q191 251 159 221Q97 161 97 104Q97 30 166 -8Q221 -38 302 -38Q476 -38 560 65Q363 198 269 304Z" />
<glyph unicode="&apos;" glyph-name="quotesingle" horiz-adv-x="166" d="M83 610Q97 610 97 596V434Q97 420 83 420Q69 420 69 434V596Q69 610 83 610Z" />
<glyph unicode="(" glyph-name="parenleft" horiz-adv-x="308" d="M225 -207Q166 -207 124 -113Q96 -51 82 31Q69 107 69 192Q69 277 82 354Q96 435 124 498Q166 592 225 592Q239 592 239 578Q239 564 225 564Q179 564 143 473Q119 413 108 343T97 192Q97 112
108 42T143 -89Q179 -180 225 -180Q239 -180 239 -193Q239 -207 225 -207Z" />
<glyph unicode=")" glyph-name="parenright" horiz-adv-x="308" d="M83 -207Q142 -207 184 -113Q212 -51 226 31Q239 107 239 192Q239 277 226 354Q212 435 184 498Q142 592 83 592Q69 592 69 578Q69 564 83 564Q129 564 165 473Q189 413 200 343T211 192Q211
112 200 42T165 -89Q129 -180 83 -180Q69 -180 69 -193Q69 -207 83 -207Z" />
<glyph unicode="*" glyph-name="asterisk" horiz-adv-x="412" d="M83 340Q69 340 69 354Q69 361 75 366L186 440L75 515Q69 520 69 527Q69 541 83 541Q87 541 193 469V584Q193 598 207 598Q221 598 221 584V464Q325 535 329 535Q343 535 343 521Q343 514 337 509L235
440L337 372Q343 367 343 360Q343 346 329 346Q325 346 221 417V297Q221 283 207 283Q193 283 193 297V412Q87 340 83 340Z" />
<glyph unicode="+" glyph-name="plus" horiz-adv-x="444" d="M208 307H83Q69 307 69 321Q69 335 83 335H208V460Q208 474 222 474Q236 474 236 460V335H361Q375 335 375 321Q375 307 361 307H236V182Q236 168 222 168Q208 168 208 182V307Z" />
<glyph unicode="," glyph-name="comma" horiz-adv-x="194" d="M125 20V14Q126 -6 113 -42Q98 -82 83 -82Q69 -82 69 -68Q81 -44 95 -2Q79 3 79 20Q79 43 102 43Q124 43 125 20Z" />
<glyph unicode="-" glyph-name="hyphen" horiz-adv-x="363" d="M83 310Q69 310 69 324Q69 338 83 338H281Q294 338 294 324Q294 310 281 310H83Z" />
<glyph unicode="." glyph-name="period" horiz-adv-x="184" d="M92 41Q115 41 115 19Q115 -4 92 -4Q69 -4 69 19Q69 41 92 41Z" />
<glyph unicode="/" glyph-name="slash" horiz-adv-x="342" d="M83 -12Q69 -12 69 2Q69 4 246 594Q249 604 259 604Q273 604 273 590Q273 588 96 -2Q93 -12 83 -12Z" />
<glyph unicode="0" glyph-name="zero" horiz-adv-x="542" d="M271 622Q314 622 354 596Q416 555 449 466Q478 390 478 305Q478 219 449 143Q416 55 354 13Q314 -13 271 -13Q227 -13 188 13Q126 55 93 143Q64 219 64 305Q64 390 93 466Q126 555 188 596Q227 622
271 622ZM271 15Q306 15 338 37Q394 74 424 156Q450 226 450 305Q450 383 424 453Q394 536 338 573Q306 594 271 594Q236 594 204 573Q148 536 117 453Q92 383 92 305Q92 226 117 156Q148 74 204 37Q236 15 271 15Z" />
<glyph unicode="1" glyph-name="one" horiz-adv-x="423" d="M237 29H278Q292 29 292 15Q292 1 278 1H169Q155 1 155 15Q155 29 169 29H209V564Q149 523 145 523Q131 523 131 537Q131 544 137 548Q219 604 223 604Q237 604 237 590V590V29Z" />
<glyph unicode="2" glyph-name="two" horiz-adv-x="470" d="M235 616Q306 616 356 565T406 442Q406 343 328 275Q254 223 181 172Q100 110 95 27H385Q399 27 399 13Q399 -1 385 -1H80Q80 -1 75 0L70 3L67 8L66 13Q66 113 147 181Q222 233 297 286Q377 350 377
440Q377 501 336 544T235 588Q175 588 134 545T92 442Q92 428 78 428Q64 428 64 442Q64 514 114 565T235 616Z" />
<glyph unicode="3" glyph-name="three" horiz-adv-x="493" d="M316 325Q367 305 398 261T429 162Q429 88 375 37T246 -15Q172 -15 118 36T64 162Q64 176 78 176Q92 176 92 162Q92 99 138 56T246 13Q309 13 355 56T401 162Q401 224 355 267T246 311Q233 311 233
325Q233 339 247 339Q302 339 344 375T386 465Q386 519 344 555T247 591Q191 591 149 555T107 465Q107 451 93 451Q79 451 79 465Q79 531 129 575T247 619Q313 619 363 575T414 465Q414 419 387 382T316 325Z" />
<glyph unicode="4" glyph-name="four" horiz-adv-x="480" d="M344 331H402Q416 331 416 317Q416 303 402 303H344V11Q344 -3 330 -3Q316 -3 316 11V303H78Q64 303 64 317V320L113 603Q115 615 127 615Q142 615 141 601V599L95 331H316V601Q316 615 330 615Q344
615 344 601V331Z" />
<glyph unicode="5" glyph-name="five" horiz-adv-x="475" d="M238 419Q316 419 366 348Q411 285 411 204Q411 123 366 59Q316 -11 238 -11Q162 -11 113 46T64 181Q64 218 81 218Q93 218 93 202Q93 199 93 191Q92 184 92 181Q92 114 131 67Q173 17 238 17Q304 17
346 79Q383 134 383 204Q383 273 346 328Q304 391 238 391Q171 391 112 333Q105 327 97 330Q89 327 83 332T78 344L106 587Q107 599 120 599H382Q396 599 396 585Q396 571 382 571H132L109 370Q167 419 238 419Z" />
<glyph unicode="6" glyph-name="six" horiz-adv-x="495" d="M248 379Q326 379 380 320Q431 263 431 184Q431 106 380 49Q326 -10 248 -10Q178 -10 127 39T67 158Q64 164 64 204Q64 306 101 398Q140 496 212 560Q276 617 313 617Q327 617 327 603Q327 594 315 590T278
573Q209 534 160 455Q116 382 100 298Q155 379 248 379ZM248 18Q314 18 360 68Q403 117 403 184Q403 251 360 300Q314 351 248 351Q182 351 138 301T93 184Q93 117 137 68T248 18Z" />
<glyph unicode="7" glyph-name="seven" horiz-adv-x="470" d="M77 599H392Q406 599 406 585Q406 583 186 3Q182 -6 173 -6Q159 -6 159 8Q159 10 371 571H78Q64 571 64 585Q64 599 77 599Z" />
<glyph unicode="8" glyph-name="eight" horiz-adv-x="493" d="M316 329Q367 308 398 264T429 165Q429 91 375 40T246 -12Q172 -12 118 39T64 165Q64 219 95 263T177 329Q133 347 106 384T79 468Q79 534 129 578T247 622Q313 622 363 578T414 468Q414 422 387 385T316
329ZM107 468Q107 414 149 378T247 342Q302 342 344 378T386 468Q386 522 344 558T247 594Q191 594 149 558T107 468ZM246 16Q309 16 355 59T401 165Q401 228 355 271T246 314Q184 314 138 271T92 165Q92 103 138 60T246 16Z" />
<glyph unicode="9" glyph-name="nine" horiz-adv-x="493" d="M246 617Q326 617 377 563T429 429Q429 328 381 222Q336 124 261 45Q242 26 203 -7Q199 -10 195 -10Q181 -10 181 4Q181 10 186 15Q205 31 241 66Q352 184 387 327Q332 263 246 263Q172 263 118 314T64
440Q64 514 118 565T246 617ZM246 291Q309 291 355 334T401 440Q401 502 355 545T246 588Q184 588 138 545T92 440Q92 377 138 334T246 291Z" />
<glyph unicode=":" glyph-name="colon" horiz-adv-x="184" d="M92 41Q115 41 115 18Q115 -5 92 -5Q69 -5 69 18Q69 41 92 41ZM92 281Q69 281 69 304Q69 326 92 326Q115 326 115 304Q115 281 92 281Z" />
<glyph unicode=";" glyph-name="semicolon" horiz-adv-x="194" d="M102 281Q79 281 79 304Q79 326 102 326Q125 326 125 304Q125 281 102 281ZM125 20V14Q126 -6 113 -42Q98 -82 83 -82Q69 -82 69 -68Q81 -44 95 -2Q79 3 79 20Q79 43 102 43Q124 43 125 20Z" />
<glyph unicode="&lt;" glyph-name="less" horiz-adv-x="385" d="M302 161Q298 161 294 163L75 310Q69 314 69 326Q69 333 75 338L294 484Q298 487 302 487Q316 487 316 473Q316 465 310 461L104 324L310 186Q316 182 316 175Q316 161 302 161Z" />
<glyph unicode="=" glyph-name="equal" horiz-adv-x="444" d="M83 366Q69 366 69 380Q69 394 83 394H361Q375 394 375 380Q375 366 361 366H83ZM83 261Q69 261 69 275Q69 289 83 289H361Q375 289 375 275Q375 261 361 261H83Z" />
<glyph unicode="&gt;" glyph-name="greater" horiz-adv-x="385" d="M83 161Q87 161 91 163L310 310Q316 314 316 326Q316 333 310 338L91 484Q87 487 83 487Q69 487 69 473Q69 465 75 461L281 324L75 186Q69 182 69 175Q69 161 83 161Z" />
<glyph unicode="?" glyph-name="question" horiz-adv-x="482" d="M69 449Q69 525 118 571T244 617Q315 617 364 573T413 458Q413 400 377 357Q360 337 295 287Q255 256 241 226T226 144Q226 117 213 117Q198 117 198 137V144Q198 202 215 238T278 309Q339 356
351 370Q385 407 385 457Q385 516 344 552T243 589Q180 589 139 552T97 453Q97 436 84 436Q69 436 69 449ZM211 41Q234 41 234 18Q234 -5 211 -5Q188 -5 188 18Q188 41 211 41Z" />
<glyph unicode="@" glyph-name="at" horiz-adv-x="860" d="M470 596Q608 596 699 505T791 275Q791 84 668 -8Q612 -50 565 -50Q524 -50 524 -5Q524 -1 534 72Q476 -13 385 -13Q324 -13 285 30T246 136Q246 211 300 271T430 332Q523 332 558 244L568 314Q570 326
584 326Q598 326 595 310L553 6Q551 -2 551 -5Q551 -22 565 -22Q656 -22 714 87Q763 178 763 275Q763 401 680 484T470 568Q415 568 364 550Q241 507 169 406T97 174Q97 25 196 -76T446 -177Q598 -177 678 -76Q683 -70 689 -70Q703 -70 703 -84Q703 -88 701 -92Q665
-147 587 -178Q519 -205 445 -205Q285 -205 177 -96T69 175Q69 313 146 421T354 576Q410 596 470 596ZM385 15Q449 15 495 67T542 183Q542 234 511 269T430 304Q367 304 321 252T274 136Q274 85 304 50T385 15Z" />
<glyph unicode="A" glyph-name="A" horiz-adv-x="550" d="M78 -7Q64 -7 64 7Q64 9 261 610Q264 619 275 619Q286 619 289 610Q486 9 486 7Q486 -7 472 -7Q462 -7 458 3L383 233H167L91 3Q88 -7 78 -7ZM275 562L176 261H374L275 562Z" />
<glyph unicode="B" glyph-name="B" horiz-adv-x="464" d="M84 -6Q69 -6 69 10V599Q69 613 83 613H219Q278 613 318 568T358 461Q358 370 284 327Q335 309 367 265T400 166Q400 94 348 44T224 -6H84ZM372 166Q372 226 328 268T224 310H97V22H224Q284 22 328 64T372
166ZM330 461Q330 510 299 547T219 585H97V338H218Q266 338 298 375T330 461Z" />
<glyph unicode="C" glyph-name="C" horiz-adv-x="509" d="M271 -12Q227 -12 188 14Q126 55 93 144Q64 220 64 305Q64 391 93 467Q126 555 188 597Q227 623 271 623Q358 623 419 528Q445 487 445 475Q445 461 431 461Q422 461 418 470Q356 595 271 595Q236 595
204 573Q148 536 117 454Q92 384 92 305Q92 227 117 157Q148 75 204 37Q236 16 271 16Q356 16 418 141Q422 150 431 150Q445 150 445 136Q445 124 419 83Q358 -12 271 -12Z" />
<glyph unicode="D" glyph-name="D" horiz-adv-x="486" d="M83 -6Q69 -6 69 8V596Q69 611 84 611H228Q293 611 344 549Q386 499 406 426Q422 368 422 303Q422 239 406 180Q386 107 344 57Q293 -4 228 -4H89Q86 -6 83 -6ZM394 303Q394 364 379 418Q362 482 328 526Q284
583 228 583H97V24H228Q284 24 328 80Q362 124 379 188Q394 243 394 303Z" />
<glyph unicode="E" glyph-name="E" horiz-adv-x="431" d="M83 -3Q69 -3 69 11V597Q69 611 83 611H353Q367 611 367 597Q367 583 353 583H97V341H264Q278 341 278 327Q278 313 264 313H97V25H353Q367 25 367 11Q367 -3 353 -3H83Z" />
<glyph unicode="F" glyph-name="F" horiz-adv-x="431" d="M83 -4Q69 -4 69 10V596Q69 610 83 610H353Q367 610 367 596Q367 582 353 582H97V340H264Q278 340 278 326Q278 312 264 312H97V10Q97 -4 83 -4Z" />
<glyph unicode="G" glyph-name="G" horiz-adv-x="542" d="M271 -11Q227 -11 188 15Q126 57 93 145Q64 221 64 307Q64 392 93 468Q126 557 188 598Q227 624 271 624Q358 624 419 529Q445 488 445 476Q445 462 431 462Q422 462 418 471Q411 485 395 514Q343 596
271 596Q236 596 204 575Q148 537 117 455Q92 385 92 307Q92 228 117 158Q148 76 204 38Q236 17 271 17Q334 17 382 81Q421 132 438 202Q447 243 449 293H320Q306 293 306 307Q306 321 320 321H464Q478 321 478 307Q478 221 449 145Q416 57 354 15Q314 -11 271
-11Z" />
<glyph unicode="H" glyph-name="H" horiz-adv-x="457" d="M83 -5Q69 -5 69 9V599Q69 613 83 613Q97 613 97 599V337H360V599Q360 613 374 613Q388 613 388 599V9Q388 -5 374 -5Q360 -5 360 9V309H97V9Q97 -5 83 -5Z" />
<glyph unicode="I" glyph-name="I" horiz-adv-x="266" d="M64 17Q64 31 78 31H119V576H78Q64 576 64 590Q64 604 78 604H188Q202 604 202 590Q202 576 188 576H147V31H188Q202 31 202 17Q202 3 188 3H78Q64 3 64 17Z" />
<glyph unicode="J" glyph-name="J" horiz-adv-x="543" d="M232 -10Q164 -10 114 36T64 151Q64 165 78 165Q92 165 92 151Q92 95 134 57T232 18Q373 18 373 186V574Q373 577 374 579H307Q293 579 293 593Q293 607 307 607H465Q479 607 479 593Q479 579 465 579H400Q401
577 401 186Q401 -10 232 -10Z" />
<glyph unicode="K" glyph-name="K" horiz-adv-x="490" d="M83 -4Q69 -4 69 10V600Q69 614 83 614Q97 614 97 600V313L383 609Q387 614 393 614Q407 614 407 600Q407 594 403 590L198 377Q426 12 426 8Q426 -6 412 -6Q404 -6 400 1L178 356L97 272V10Q97 -4 83 -4Z" />
<glyph unicode="L" glyph-name="L" horiz-adv-x="431" d="M83 0Q69 0 69 14V599Q69 613 83 613Q97 613 97 599V28H353Q367 28 367 14Q367 0 353 0H83Z" />
<glyph unicode="M" glyph-name="M" horiz-adv-x="594" d="M83 -6Q69 -6 69 8V595Q69 609 83 609Q94 609 99 596L297 56L497 600Q500 609 511 609Q525 609 525 595V8Q525 -6 511 -6Q497 -6 497 8V518L312 14Q312 -1 298 -1Q288 -1 285 9L97 520V8Q97 -6 83 -6Z" />
<glyph unicode="N" glyph-name="N" horiz-adv-x="458" d="M389 10Q389 -4 375 -4Q366 -4 363 4L97 538V8Q97 -6 83 -6Q69 -6 69 8V598Q69 612 83 612Q92 612 96 604L361 70V600Q361 614 375 614Q389 614 389 600V10Z" />
<glyph unicode="O" glyph-name="O" horiz-adv-x="542" d="M271 622Q314 622 354 596Q416 555 449 466Q478 390 478 305Q478 219 449 143Q416 55 354 13Q314 -13 271 -13Q227 -13 188 13Q126 55 93 143Q64 219 64 305Q64 390 93 466Q126 555 188 596Q227 622 271
622ZM271 15Q306 15 338 37Q394 74 424 156Q450 226 450 305Q450 383 424 453Q394 536 338 573Q306 594 271 594Q236 594 204 573Q148 536 117 453Q92 383 92 305Q92 226 117 156Q148 74 204 37Q236 15 271 15Z" />
<glyph unicode="P" glyph-name="P" horiz-adv-x="449" d="M212 611Q283 611 334 561T385 439Q385 368 334 318T212 267H97V8Q97 -6 83 -6Q69 -6 69 8V597Q69 611 83 611H212ZM212 295Q272 295 314 337T357 439Q357 499 315 541T212 583H97V295H212Z" />
<glyph unicode="Q" glyph-name="Q" horiz-adv-x="542" d="M271 621Q314 621 354 595Q416 554 449 465Q478 390 478 304Q478 166 415 75Q465 8 465 3Q465 -11 451 -11Q444 -11 440 -5L397 52Q342 -14 271 -14Q227 -14 188 12Q126 54 93 142Q64 218 64 304Q64 389
93 465Q126 554 188 595Q227 621 271 621ZM397 99Q450 184 450 304Q450 382 424 452Q394 535 338 572Q306 593 271 593Q236 593 204 572Q148 535 117 452Q92 382 92 304Q92 226 117 156Q148 73 204 36Q236 14 271 14Q331 14 380 75Q325 149 325 154Q325 168 339
168Q346 168 350 162L397 99Z" />
<glyph unicode="R" glyph-name="R" horiz-adv-x="445" d="M258 271Q394 13 394 10Q394 -4 380 -4Q372 -4 368 3L229 266Q220 265 97 265V9Q97 -5 83 -5Q69 -5 69 9V593Q69 607 83 607H212Q283 607 334 557T385 436Q385 378 350 332T258 271ZM212 293Q272 293 314
335T357 436Q357 495 315 537T212 579H97V293H212Z" />
<glyph unicode="S" glyph-name="S" horiz-adv-x="480" d="M92 469Q92 413 139 379Q168 358 236 335Q416 274 416 148Q416 74 368 30T246 -15Q166 -15 115 35T64 164Q64 178 78 178Q90 178 92 164Q92 155 94 138Q103 72 158 37Q194 13 245 13Q308 13 348 49T388
148Q388 255 227 308Q151 333 116 362Q64 403 64 469Q64 533 111 576T224 620Q296 620 343 574T390 456Q390 442 375 442Q365 442 361 456Q361 469 356 495Q331 589 229 591L224 592Q171 593 132 557T92 469Z" />
<glyph unicode="T" glyph-name="T" horiz-adv-x="464" d="M386 604Q400 604 400 590Q400 576 386 576H246V12Q246 -2 232 -2Q218 -2 218 12V576H78Q64 576 64 590Q64 604 78 604H386Z" />
<glyph unicode="U" glyph-name="U" horiz-adv-x="505" d="M422 615Q436 615 436 601V159Q436 78 386 33T253 -12Q172 -12 121 33T69 159V601Q69 615 83 615Q97 615 97 601V159Q97 91 142 52Q183 16 253 16Q323 16 365 53T408 159V601Q408 615 422 615Z" />
<glyph unicode="V" glyph-name="V" horiz-adv-x="550" d="M472 611Q486 611 486 597Q486 595 289 -11Q286 -20 275 -20Q264 -20 261 -11Q64 595 64 597Q64 611 78 611Q88 611 91 602L275 37L458 602Q462 611 472 611Z" />
<glyph unicode="W" glyph-name="W" horiz-adv-x="840" d="M762 612Q776 612 776 598Q776 596 605 -10Q603 -20 591 -20Q580 -20 577 -10L420 547L263 -10Q260 -20 249 -20Q238 -20 235 -10Q64 596 64 598Q64 612 78 612Q89 612 92 601L249 44L406 601Q409 611
420 611Q431 611 434 601L591 44L749 601Q752 612 762 612Z" />
<glyph unicode="X" glyph-name="X" horiz-adv-x="484" d="M406 609Q420 609 420 595Q420 592 258 304Q420 15 420 12Q420 -2 406 -2Q398 -2 393 5L242 275L90 5Q86 -2 78 -2Q64 -2 64 12Q64 15 226 304Q64 592 64 595Q64 609 78 609Q86 609 90 602L242 332L393
602Q398 609 406 609Z" />
<glyph unicode="Y" glyph-name="Y" horiz-adv-x="478" d="M400 611Q414 611 414 597Q414 593 253 289V10Q253 -4 239 -4Q225 -4 225 10V290Q64 593 64 597Q64 611 78 611Q86 611 90 603L239 323L388 603Q392 611 400 611Z" />
<glyph unicode="Z" glyph-name="Z" horiz-adv-x="485" d="M421 589Q421 586 102 33H397Q411 33 411 19Q411 5 397 5H78Q64 5 64 19Q64 23 383 575H89Q75 575 75 589Q75 603 89 603H407Q421 603 421 589Z" />
<glyph unicode="[" glyph-name="bracketleft" horiz-adv-x="6631" d="M6393 587Q6393 573 6379 573H6255V-172H6379Q6393 -172 6393 -186Q6393 -200 6379 -200H6241Q6227 -200 6227 -186V587Q6227 601 6241 601H6379Q6393 601 6393 587Z" />
<glyph unicode="\" glyph-name="backslash" horiz-adv-x="6631" d="M3887 -12Q3873 -12 3873 2Q3873 4 4050 594Q4053 604 4063 604Q4077 604 4077 590Q4077 588 3900 -2Q3897 -12 3887 -12Z" />
<glyph unicode="]" glyph-name="bracketright" horiz-adv-x="6631" d="M6227 587Q6227 573 6241 573H6366V-172H6241Q6227 -172 6227 -186Q6227 -200 6241 -200H6379Q6393 -200 6393 -186V587Q6393 601 6379 601H6241Q6227 601 6227 587Z" />
<glyph unicode="^" glyph-name="asciicircum" horiz-adv-x="6631" d="M4407 342Q4398 342 4395 350L4301 546L4207 350Q4204 342 4195 342Q4181 342 4181 356Q4181 359 4287 581Q4290 589 4301 589Q4312 589 4315 581Q4421 359 4421 356Q4421 342 4407 342Z" />
<glyph unicode="_" glyph-name="underscore" horiz-adv-x="519" d="M69 -40H450V-54H69V-40Z" />
<glyph unicode="`" glyph-name="grave" horiz-adv-x="258" d="M83 590Q89 590 93 586L185 494Q189 490 189 484Q189 470 175 470Q169 470 165 474L73 566Q69 570 69 576Q69 590 83 590Z" />
<glyph unicode="a" glyph-name="a" horiz-adv-x="462" d="M379 329Q393 329 393 315V10Q393 -4 379 -4Q365 -4 365 10V74Q318 -13 225 -13Q156 -13 110 39T64 161Q64 231 110 283T225 335Q318 335 365 248V315Q365 329 379 329ZM225 15Q282 15 320 59T358 161Q358
219 320 263T225 307Q168 307 130 263T92 161Q92 103 130 59T225 15Z" />
<glyph unicode="b" glyph-name="b" horiz-adv-x="462" d="M237 333Q305 333 353 279Q398 228 398 159Q398 89 353 38Q305 -15 237 -15Q144 -15 97 72V7Q97 -7 83 -7Q69 -7 69 7V593Q69 607 83 607Q97 607 97 593V245Q144 333 237 333ZM237 13Q294 13 332 57T370
159Q370 217 332 261T237 305Q180 305 142 261T103 159Q103 101 141 57T237 13Z" />
<glyph unicode="c" glyph-name="c" horiz-adv-x="426" d="M362 72Q362 68 359 64V64Q311 -13 225 -13Q156 -13 110 39T64 161Q64 231 110 283T225 335Q292 335 340 284Q360 261 360 252Q360 238 346 238Q340 238 335 243Q296 307 225 307Q168 307 130 263T92 161Q92
103 130 59T225 15Q257 15 288 32T334 77Q339 86 347 86Q362 86 362 72Z" />
<glyph unicode="d" glyph-name="d" horiz-adv-x="462" d="M379 608Q393 608 393 594V9Q393 -5 379 -5Q365 -5 365 9V73Q318 -14 225 -14Q157 -14 111 38T64 160Q64 229 110 281T225 334Q318 334 365 246V594Q365 608 379 608ZM225 14Q282 14 320 58T358 160Q358
218 320 262T225 306Q168 306 130 262T92 160Q92 102 130 58T225 14Z" />
<glyph unicode="e" glyph-name="e" horiz-adv-x="451" d="M225 335Q294 335 340 283T387 161Q387 147 372 147H93Q98 93 135 54T225 15Q298 15 340 74Q345 81 352 81Q366 81 366 67Q366 63 364 60Q322 -13 225 -13Q157 -13 111 39T64 161Q64 231 110 283T225 335ZM93
175H357Q352 229 315 268T225 307Q172 307 135 268T93 175Z" />
<glyph unicode="f" glyph-name="f" horiz-adv-x="431" d="M285 328Q285 314 271 314H170V7Q170 -7 156 -7Q142 -7 142 7V314H78Q64 314 64 328Q64 342 78 342H142V505Q142 555 172 582T253 609Q281 609 316 593T364 554Q367 549 367 545Q367 531 353 531Q353 531
321 556T254 581Q170 581 170 511V342H271Q285 342 285 328Z" />
<glyph unicode="g" glyph-name="g" horiz-adv-x="457" d="M374 328Q388 328 388 314V-86Q388 -95 381 -112Q347 -196 232 -196Q201 -196 163 -183Q119 -169 102 -148Q97 -143 97 -138Q97 -124 111 -124Q108 -124 149 -146T232 -168Q326 -168 354 -106Q360 -93
360 -86V67Q312 -12 225 -12Q156 -12 110 40T64 162Q64 232 110 284T225 336Q312 336 360 257V314Q360 328 374 328ZM225 16Q282 16 320 60T358 162Q358 220 320 264T225 308Q168 308 130 264T92 162Q92 104 130 60T225 16Z" />
<glyph unicode="h" glyph-name="h" horiz-adv-x="407" d="M214 334Q273 334 309 288Q343 246 343 186V8Q343 -6 329 -6Q315 -6 315 8V186Q315 235 289 268Q261 306 214 306Q153 306 121 259Q92 216 96 154Q97 141 97 142V8Q97 -6 83 -6Q69 -6 69 8V593Q69 607
83 607Q97 607 97 593V262Q137 334 214 334Z" />
<glyph unicode="i" glyph-name="i" horiz-adv-x="184" d="M115 424Q115 402 92 402Q69 402 69 424Q69 447 92 447Q115 447 115 424ZM92 326Q106 326 106 312V8Q106 -6 92 -6Q78 -6 78 8V312Q78 326 92 326Z" />
<glyph unicode="j" glyph-name="j" horiz-adv-x="190" d="M121 424Q121 402 99 402Q76 402 76 424Q76 447 99 447Q121 447 121 424ZM99 326Q113 326 113 312V-65Q113 -120 85 -155Q56 -194 3 -194Q-11 -194 -11 -180Q-11 -167 3 -166Q49 -162 68 -132Q85 -105
85 -62V312Q85 326 99 326Z" />
<glyph unicode="k" glyph-name="k" horiz-adv-x="364" d="M177 203L311 15Q313 11 313 7Q313 -7 299 -7Q292 -7 288 -1L155 185L97 137V7Q97 -7 83 -7Q69 -7 69 7V593Q69 607 83 607Q97 607 97 593V174L285 328Q289 332 294 332Q308 332 308 318Q308 311 303 307L177
203Z" />
<glyph unicode="l" glyph-name="l" horiz-adv-x="166" d="M83 607Q97 607 97 593V7Q97 -7 83 -7Q69 -7 69 7V593Q69 607 83 607Z" />
<glyph unicode="m" glyph-name="m" horiz-adv-x="652" d="M459 334Q518 334 553 291T588 187V8Q588 -6 574 -6Q560 -6 560 8V187Q560 236 534 269Q507 306 459 306Q401 306 369 253Q343 208 343 146V8Q343 -6 329 -6Q315 -6 315 8V187Q315 236 289 269Q261 306
214 306Q153 306 122 262Q95 221 97 150Q97 143 97 143V8Q97 -6 83 -6Q69 -6 69 8V314Q69 328 83 328Q97 328 97 314V263Q137 334 214 334Q303 334 333 245Q372 334 459 334Z" />
<glyph unicode="n" glyph-name="n" horiz-adv-x="406" d="M213 336Q272 336 308 290Q342 248 342 188V10Q342 -4 328 -4Q314 -4 314 10V188Q314 237 287 272T213 308Q154 308 123 260Q97 218 97 149V9Q97 -5 83 -5Q69 -5 69 9V315Q69 329 83 329Q97 329 97 315V266Q138
336 213 336Z" />
<glyph unicode="o" glyph-name="o" horiz-adv-x="451" d="M225 336Q294 336 340 284T387 162Q387 92 341 40T225 -12Q156 -12 110 40T64 162Q64 231 110 283T225 336ZM225 16Q282 16 320 60T358 162Q358 220 320 263T225 307Q168 307 130 264T92 162Q92 104 130
60T225 16Z" />
<glyph unicode="p" glyph-name="p" horiz-adv-x="462" d="M237 335Q305 335 353 282Q398 231 398 161Q398 91 353 40Q305 -13 237 -13Q144 -13 97 74V-183Q97 -197 83 -197Q69 -197 69 -183V315Q69 329 83 329Q97 329 97 315V247Q144 335 237 335ZM237 15Q294
15 332 59T370 161Q370 219 332 263T237 307Q180 307 142 263T103 161Q103 103 141 59T237 15Z" />
<glyph unicode="q" glyph-name="q" horiz-adv-x="462" d="M379 329Q393 329 393 315V-183Q393 -197 379 -197Q365 -197 365 -183V74Q318 -13 225 -13Q156 -13 110 39T64 161Q64 231 110 283T225 335Q318 335 365 248V315Q365 329 379 329ZM225 15Q282 15 320 59T358
161Q358 219 320 263T225 307Q168 307 130 263T92 161Q92 103 130 59T225 15Z" />
<glyph unicode="r" glyph-name="r" horiz-adv-x="293" d="M214 328Q229 328 229 315Q229 302 216 300Q157 292 126 246Q97 205 97 143V9Q97 -5 83 -5Q69 -5 69 9V314Q69 328 83 328Q97 328 97 314V252Q116 284 146 305Q180 328 214 328Z" />
<glyph unicode="s" glyph-name="s" horiz-adv-x="401" d="M96 249Q96 214 158 198Q216 184 274 170Q337 145 337 90Q337 41 292 11Q253 -14 202 -14Q145 -14 108 8Q64 36 64 89Q64 112 81 112Q92 112 92 96Q92 14 202 14Q242 14 272 31Q309 53 309 90Q309 132
246 150Q188 164 130 178Q68 199 68 248Q68 293 112 315Q146 332 196 332Q251 332 286 311Q329 285 329 234Q329 221 314 221Q302 221 301 236Q299 260 285 276Q261 304 196 304Q96 304 96 249Z" />
<glyph unicode="t" glyph-name="t" horiz-adv-x="303" d="M164 328H239Q253 328 253 314Q253 300 239 300H164V6Q164 -8 150 -8Q136 -8 136 6V300H64Q50 300 50 314Q50 328 64 328H136V436Q136 450 150 450Q164 450 164 436V328Z" />
<glyph unicode="u" glyph-name="u" horiz-adv-x="406" d="M323 326Q337 326 337 312V6Q337 -8 323 -8Q309 -8 309 6V64Q270 -15 193 -15Q134 -15 98 31Q64 73 64 133V312Q64 326 78 326Q92 326 92 312V133Q92 84 117 51Q145 13 193 13Q309 13 309 198V312Q309
326 323 326Z" />
<glyph unicode="v" glyph-name="v" horiz-adv-x="402" d="M324 328Q338 328 338 314Q338 311 216 -5Q213 -14 201 -14Q189 -14 186 -5Q64 311 64 314Q64 328 78 328Q88 328 91 319L201 33L311 319Q315 328 324 328Z" />
<glyph unicode="w" glyph-name="w" horiz-adv-x="614" d="M536 330Q550 330 550 316Q550 314 437 -2Q434 -11 422 -11Q410 -11 407 -2L307 278L207 -2Q204 -11 192 -11Q180 -11 177 -2Q64 314 64 316Q64 330 78 330Q88 330 91 321L192 38L293 321Q296 330 307
330Q318 330 322 321L422 38L523 321Q526 330 536 330Z" />
<glyph unicode="x" glyph-name="x" horiz-adv-x="366" d="M288 329Q302 329 302 315Q302 311 300 307L200 162L300 16Q302 12 302 8Q302 -6 288 -6Q281 -6 277 0L183 137L90 0Q85 -6 78 -6Q64 -6 64 8Q64 12 66 16L166 162L66 307Q64 311 64 315Q64 329 78 329Q85
329 90 323L183 187L277 323Q281 329 288 329Z" />
<glyph unicode="y" glyph-name="y" horiz-adv-x="408" d="M330 329Q344 329 344 315Q344 313 148 -191Q145 -200 135 -200Q121 -200 121 -186Q121 -183 193 2Q190 5 127 157T64 315Q64 329 78 329Q87 329 91 321L207 38L317 320Q321 329 330 329Z" />
<glyph unicode="z" glyph-name="z" horiz-adv-x="398" d="M334 304Q334 299 330 295L108 31H309Q323 31 323 17Q323 3 309 3H78Q64 3 64 17Q64 23 67 26L289 290H88Q74 290 74 304Q74 318 88 318H320Q334 318 334 304Z" />
<glyph unicode="{" glyph-name="braceleft" horiz-adv-x="370" d="M301 595Q301 581 287 581H217Q193 581 177 564T161 522V272Q161 221 147 205Q161 190 161 138V-112Q161 -136 177 -153T217 -171H287Q301 -171 301 -185Q301 -199 287 -199H217Q182 -199 158
-173T133 -112V138Q133 173 131 178Q126 191 98 191Q81 191 79 191Q69 194 69 205Q69 220 82 220Q121 220 127 225T133 272V522Q133 558 157 583T217 609H287Q301 609 301 595Z" />
<glyph unicode="|" glyph-name="bar" horiz-adv-x="166" d="M69 597Q69 611 83 611Q97 611 97 597V-186Q97 -200 83 -200Q69 -200 69 -186V597Z" />
<glyph unicode="}" glyph-name="braceright" horiz-adv-x="370" d="M69 595Q69 581 83 581H153Q176 581 192 564T209 522V272Q209 221 223 205Q209 190 209 138V-112Q209 -136 193 -153T153 -171H83Q69 -171 69 -185Q69 -199 83 -199H153Q188 -199 212 -173T237
-112V138Q237 173 239 178Q244 191 271 191Q289 191 291 191Q301 194 301 205Q301 220 288 220Q249 220 243 225T237 272V522Q237 558 213 583T153 609H83Q69 609 69 595Z" />
<glyph unicode="~" glyph-name="asciitilde" horiz-adv-x="478" d="M394 355Q409 355 409 337Q409 294 392 266Q371 233 331 233Q283 233 236 282T155 332Q97 332 97 255Q97 241 83 241Q69 241 69 255Q69 299 90 327Q113 360 155 360Q200 360 247 311T331 261Q381
261 381 337Q381 355 394 355Z" />
</font>
</defs>
</svg>
