<?xml version="1.0" standalone="no"?> <!DOCTYPE svg PUBLIC "-//W3C//DTD SVG 1.0//EN" "http://www.w3.org/TR/2001/REC-SVG-20010904/DTD/svg10.dtd" > <svg xmlns="http://www.w3.org/2000/svg" width="100%" height="100%">
<defs >
<font id="SFSLAPSTICKCOMIC-BOLD" horiz-adv-x="463" ><font-face
    font-family="SF Slapstick Comic"
    units-per-em="1000"
    panose-1="2 0 8 6 0 0 0 2 0 4"
    ascent="775"
    descent="-225"
    alphabetic="0" />
<missing-glyph horiz-adv-x="337" />
<glyph unicode=" " glyph-name="space" horiz-adv-x="337" />
<glyph unicode="!" glyph-name="exclam" horiz-adv-x="196" d="M31 657H184L131 201L31 192V657ZM11 163L148 151V-4L11 12V163Z" />
<glyph unicode="&quot;" glyph-name="quotedbl" horiz-adv-x="277" d="M31 472L10 661H265L217 473L135 452V622L105 454L31 472Z" />
<glyph unicode="#" glyph-name="numbersign" horiz-adv-x="527" d="M107 252H37L18 383H114V443H11V576H118V643L238 654V582H299Q300 600 301 622T304 661H429L424 586H490L501 454H416Q414 434 413 420T410 384H502L497 261H403Q401 245 400 227T397 194L275
184L280 257H220V188L107 176V252ZM287 384L293 449H233Q231 431 231 418T229 384H287Z" />
<glyph unicode="$" glyph-name="dollar" horiz-adv-x="511" d="M23 139Q34 138 50 138T77 137Q109 137 140 138T204 142Q202 173 200 204T196 269Q87 277 36 319T-16 450Q-16 514 31 558T179 631L175 703L279 720L282 655Q318 661 358 664T451 672L441 503Q351
503 288 497Q290 465 290 436T292 375Q357 370 400 358T470 325T507 274T518 204Q518 138 466 93T305 21Q306 -2 307 -28T310 -76L214 -64L211 1Q170 -5 127 -7T36 -12L23 139ZM185 478Q138 465 138 439Q138 399 192 385L185 478ZM301 160Q330 168 342 181T355
212Q355 251 297 260Q298 231 299 211T301 160Z" />
<glyph unicode="%" glyph-name="percent" horiz-adv-x="608" d="M151 359Q123 359 99 371T58 405T30 453T20 509Q20 538 30 565T58 614T100 648T152 661Q180 661 204 649T245 615T272 567T282 510Q282 481 272 454T245 405T203 372T151 359ZM434 649L542 568L103
-3L3 81L434 649ZM151 465Q167 465 179 479T192 509Q192 526 180 540T152 555Q137 555 124 542T111 510Q111 493 123 479T151 465ZM273 157Q273 191 286 222T320 277T369 315T427 330Q458 330 485 315T533 276T565 220T577 155Q577 122 565 91T531 37T482 -1T424
-15Q393 -15 366 -1T318 38T285 93T273 157ZM370 157Q370 133 385 112T424 90Q445 90 462 110T480 155Q480 167 476 179T464 201T447 217T427 224Q417 224 407 218T389 202T375 180T370 157Z" />
<glyph unicode="&amp;" glyph-name="ampersand" horiz-adv-x="563" d="M40 152Q40 185 55 211T95 256T153 291T224 318Q179 320 140 327T71 348T26 387T9 447Q9 492 35 525T118 585T263 633T477 677L492 514Q432 520 380 520Q194 520 194 463Q194 408 280 408Q321
408 373 417T491 446L542 33L531 18Q452 5 391 -1T284 -7Q153 -7 97 34T40 152ZM232 170Q232 122 299 122Q337 122 385 135L371 259Q232 232 232 170Z" />
<glyph unicode="&apos;" glyph-name="quotesingle" horiz-adv-x="146" d="M28 472L8 661H140L103 454L28 472Z" />
<glyph unicode="(" glyph-name="parenleft" horiz-adv-x="448" d="M13 328Q13 389 38 452T107 573T208 677T329 749L349 580Q310 568 275 541T212 477T169 401T153 323Q153 279 175 238T235 164T318 110T413 84L431 -52L417 -67Q338 -59 265 -23T136 68T47 189T13 328Z" />
<glyph unicode=")" glyph-name="parenright" horiz-adv-x="415" d="M14 98Q56 104 97 127T172 183T225 257T246 339Q246 380 227 421T177 497T105 560T21 599V752Q93 731 158 688T274 587T354 465T384 333Q384 289 370 245T331 159T271 80T195 12T107 -41T11 -73L14 98Z" />
<glyph unicode="*" glyph-name="asterisk" horiz-adv-x="419" d="M0 368L108 446L8 512L77 629L135 579V653L256 662V581L318 640L392 511L286 447Q315 426 346 403T403 361L328 252L256 325V241L138 233V320L79 259L0 368Z" />
<glyph unicode="+" glyph-name="plus" horiz-adv-x="365" d="M103 240H11L20 369H118V479H245V362H344L335 233H233V125H103V240Z" />
<glyph unicode="," glyph-name="comma" horiz-adv-x="146" d="M8 141H140L103 -65L28 -47L8 141Z" />
<glyph unicode="-" glyph-name="hyphen" horiz-adv-x="365" d="M18 351L339 372V216H18V351Z" />
<glyph unicode="." glyph-name="period" horiz-adv-x="172" d="M19 141H150V9L19 -2V141Z" />
<glyph unicode="/" glyph-name="slash" horiz-adv-x="387" d="M262 663L382 622L127 -3L-4 29L262 663Z" />
<glyph unicode="0" glyph-name="zero" horiz-adv-x="540" d="M258 -2Q200 -2 155 22T78 91T31 202T15 349Q15 495 79 576T264 658Q322 658 367 634T443 563T490 451T506 300Q506 150 443 74T258 -2ZM269 133Q391 133 391 293Q391 420 362 475T272 530Q149 530
149 361Q149 239 181 186T269 133Z" />
<glyph unicode="1" glyph-name="one" horiz-adv-x="343" d="M135 473L68 392L-2 530L124 666L275 636L308 -12L135 9V473Z" />
<glyph unicode="2" glyph-name="two" horiz-adv-x="573" d="M9 0Q9 105 15 168T40 269T89 327T170 368Q212 384 252 390T324 401T375 415T395 447Q395 463 372 475T307 494T211 505T92 509L81 679Q193 673 280 655T427 608T518 540T549 452Q549 392 526 357T466
303T383 274T289 258L262 254Q233 249 214 237T184 210T167 177T160 141L514 154L502 0H9V0Z" />
<glyph unicode="3" glyph-name="three" horiz-adv-x="541" d="M21 172L68 159Q112 147 157 136T232 125Q300 125 300 174Q300 195 285 209T240 235T165 256T59 274L70 435L123 427Q157 422 189 417T244 412Q333 412 333 468Q333 521 163 521Q113 521 35 512L48
676Q165 659 252 640T399 598T487 544T517 474Q517 445 504 420T469 376T417 343T353 324Q381 311 406 294T450 253T479 199T490 128Q490 -3 235 -3Q154 -3 10 15L21 172Z" />
<glyph unicode="4" glyph-name="four" horiz-adv-x="531" d="M8 240L269 640L445 664L502 12L341 -9L331 131L19 105L8 240ZM190 266Q232 270 270 274T354 282L337 483L190 266Z" />
<glyph unicode="5" glyph-name="five" horiz-adv-x="584" d="M83 133L160 135Q201 136 246 138T329 148T391 171T416 212Q416 244 387 256T316 269Q286 269 252 263T185 248T120 226T64 200L10 608L445 654L464 503L154 466L171 376Q253 410 333 410Q380 410 421
398T494 360T544 294T563 196Q563 146 542 111T485 53T401 17T300 -4T190 -14T82 -19L83 133Z" />
<glyph unicode="6" glyph-name="six" horiz-adv-x="563" d="M9 268Q9 336 34 405T106 529T221 620T375 655Q390 655 408 653T448 648L436 517Q416 521 403 522T379 524Q320 524 271 501T202 441Q220 449 240 453T281 457Q331 457 375 439T452 390T504 316T524
225Q524 177 506 136T455 64T378 17T283 0Q211 0 160 22T75 81T25 166T9 268ZM161 249Q161 228 171 209T198 176T237 154T285 145Q308 145 329 152T365 171T390 202T399 242Q399 265 389 284T361 316T320 337T269 345Q220 345 191 319T161 249Z" />
<glyph unicode="7" glyph-name="seven" horiz-adv-x="451" d="M256 511Q196 511 134 511T13 512L24 672L466 607L131 -21L-16 13L256 511Z" />
<glyph unicode="8" glyph-name="eight" horiz-adv-x="531" d="M8 187Q8 229 36 268T107 332Q66 352 40 390T13 474Q13 511 31 544T80 603T148 644T227 659Q271 659 308 644T373 606T415 554T430 498Q430 463 415 432T372 375Q431 359 469 316T507 216Q507 172
484 133T423 64T337 17T240 0Q189 0 147 15T74 56T26 115T8 187ZM205 390Q219 390 233 396T260 412T279 436T287 467Q287 486 271 500T219 515Q204 515 190 510T164 496T147 476T140 454Q140 424 158 407T205 390ZM145 220Q145 188 175 169T253 150Q311 150 343
170T376 221Q376 242 366 257T339 283T301 298T259 303Q237 303 217 296T180 277T155 250T145 220Z" />
<glyph unicode="9" glyph-name="nine" horiz-adv-x="531" d="M37 171Q76 149 123 133T212 117Q235 117 255 121T291 138T317 172T331 227Q314 221 294 217T254 213Q206 213 162 230T83 279T29 352T9 443Q9 494 28 537T79 613T155 663T249 682Q309 682 355 659T434
596T483 501T500 385Q500 280 479 205T419 83T328 13T211 -10Q124 -10 6 36L37 171ZM266 318Q314 318 339 338T365 401Q365 423 356 443T332 478T299 501T261 510Q241 510 224 503T194 482T173 452T165 413Q165 373 193 346T266 318Z" />
<glyph unicode=":" glyph-name="colon" horiz-adv-x="164" d="M15 466L147 478V337L15 335V466ZM15 141H147V9L15 -2V141Z" />
<glyph unicode=";" glyph-name="semicolon" horiz-adv-x="158" d="M11 466L143 478V337L11 335V466ZM11 141H142L105 -65L30 -47L11 141Z" />
<glyph unicode="&lt;" glyph-name="less" horiz-adv-x="456" d="M11 290L399 483L421 355L210 266Q264 249 319 231T428 195L412 67L11 205V290Z" />
<glyph unicode="=" glyph-name="equal" horiz-adv-x="381" d="M24 415L338 439V306L24 281V415ZM24 262H345L357 125H24V262Z" />
<glyph unicode="&gt;" glyph-name="greater" horiz-adv-x="448" d="M17 189L228 279Q174 296 119 314T10 350L26 478L427 339V255L39 62L17 189Z" />
<glyph unicode="?" glyph-name="question" horiz-adv-x="594" d="M24 183Q26 248 51 288T121 348Q143 357 186 361T292 368Q329 369 353 374T390 387T409 405T414 428Q414 442 393 454T331 476T236 492T112 501L107 670Q215 660 300 639T445 587T536 517T568 432Q568
363 531 317T409 253L357 248Q327 245 297 241T243 229T203 208T185 173L24 183ZM24 158H182L169 15H14L24 158Z" />
<glyph unicode="@" glyph-name="at" horiz-adv-x="754" d="M17 344Q17 416 44 480T119 591T230 665T366 693Q438 693 502 666T613 591T687 480T715 344Q715 272 688 208T613 97T502 23T366 -5Q294 -5 230 22T119 97T45 208T17 344ZM165 280Q165 308 182 333T230
378T303 414T397 437Q391 451 384 459T361 467Q344 467 329 457T293 416L214 474Q246 525 282 545T372 565Q414 565 442 550T486 510T508 450T515 378Q515 345 511 310T500 242T487 178T475 124Q534 155 571 213T609 343Q609 394 590 439T537 517T459 569T363 589Q312
589 267 570T189 517T137 439T117 343Q117 292 136 247T189 169T267 117T363 97Q420 97 472 122Q312 144 239 184T165 280ZM276 296Q276 283 302 273T387 254Q392 273 397 300T404 355Q350 353 313 337T276 296Z" />
<glyph unicode="A" glyph-name="A" horiz-adv-x="484" d="M108 668H255L514 33L347 12L304 136L170 107L158 1H-11L108 668ZM267 263L209 427Q203 381 197 339T186 247L267 263Z" />
<glyph unicode="B" glyph-name="B" horiz-adv-x="531" d="M2 655Q42 659 79 660T152 662Q239 662 299 651T397 617T452 563T469 488Q469 446 441 415T368 363Q455 349 505 312T555 224Q555 177 516 138T409 70T247 20T43 -11L2 655ZM145 418Q218 425 261 443T304
491Q304 517 271 528T191 540Q181 540 168 539T137 536Q139 504 141 478T145 418ZM179 130Q352 133 352 207Q352 268 242 268Q225 268 208 267T169 263Q171 228 174 197T179 130Z" />
<glyph unicode="C" glyph-name="C" horiz-adv-x="484" d="M4 279Q4 325 32 377T108 481T223 584T365 675L401 505Q353 484 312 459T241 406T195 350T178 296Q178 267 196 244T248 205T329 179T435 170Q444 170 458 170T482 172L515 37L501 20Q396 20 306 36T148
85T43 166T4 279Z" />
<glyph unicode="D" glyph-name="D" horiz-adv-x="578" d="M58 669Q165 645 257 606T418 518T525 414T564 300Q564 237 521 184T402 91T223 28T1 -1L58 669ZM158 154Q213 157 258 167T336 195T385 238T403 294Q403 350 346 396T186 472L158 154Z" />
<glyph unicode="E" glyph-name="E" horiz-adv-x="479" d="M0 644L437 694L450 533L169 500L183 392L358 411L370 269L161 250L170 151Q243 159 321 168T471 186L481 35L52 -14L0 644Z" />
<glyph unicode="F" glyph-name="F" horiz-adv-x="481" d="M45 644H513L501 499L222 518L215 418L381 405L370 264H160V0H5L45 644Z" />
<glyph unicode="G" glyph-name="G" horiz-adv-x="600" d="M210 126Q7 245 7 386Q7 452 47 504T163 592T344 647T583 666L562 488Q514 498 469 502T383 507Q162 507 162 385Q162 328 227 277T414 192Q416 208 418 223T422 257Q402 260 380 264T338 272V401L575
367L534 -4Q441 19 362 51T210 126Z" />
<glyph unicode="H" glyph-name="H" horiz-adv-x="500" d="M5 655H168L187 416Q216 418 243 419T300 424Q294 483 289 547T278 669L435 690L486 30L319 8L292 284L176 274L194 3L56 -17L5 655Z" />
<glyph unicode="I" glyph-name="I" horiz-adv-x="198" d="M21 672L175 658V-3L21 12V672Z" />
<glyph unicode="J" glyph-name="J" horiz-adv-x="488" d="M77 308Q100 271 125 240T174 186T221 150T260 137Q320 137 320 285Q320 433 267 650L433 687Q448 562 456 477T464 342Q464 166 413 76T270 -15Q240 -15 204 1T129 45T51 111T-23 196L77 308Z" />
<glyph unicode="K" glyph-name="K" horiz-adv-x="488" d="M-22 644L117 667L139 431Q176 494 215 559T289 688L450 671L256 341L517 123L377 21L157 239Q162 180 167 119T177 1L40 -13L-22 644Z" />
<glyph unicode="L" glyph-name="L" horiz-adv-x="385" d="M-17 672H128L172 161Q229 167 290 175T407 189L418 42L47 -2L-17 672Z" />
<glyph unicode="M" glyph-name="M" horiz-adv-x="660" d="M81 706L248 686L311 328Q326 416 342 506T373 682L621 665V0H423V393L358 32H249L205 385Q193 300 179 206T153 30L-7 53L81 706Z" />
<glyph unicode="N" glyph-name="N" horiz-adv-x="546" d="M18 658H193L336 310L307 670H476L529 19L361 4L209 403V-2H18V658Z" />
<glyph unicode="O" glyph-name="O" horiz-adv-x="628" d="M310 0Q247 0 193 25T99 94T36 199T13 329Q13 398 35 460T98 568T192 641T308 668Q369 668 423 643T518 573T581 468T605 337Q605 267 582 206T520 99T426 27T310 0ZM305 160Q337 160 363 175T409 215T438
274T449 346Q449 381 439 412T411 466T366 503T309 517Q278 517 251 502T205 462T174 403T163 331Q163 295 173 264T201 210T246 174T305 160Z" />
<glyph unicode="P" glyph-name="P" horiz-adv-x="528" d="M0 656Q22 658 50 659T101 660Q198 660 274 647T403 608T484 546T512 462Q512 384 425 321T173 213L188 0H37L0 656ZM141 367Q345 385 345 460Q345 536 188 536Q157 536 130 533L141 367Z" />
<glyph unicode="Q" glyph-name="Q" horiz-adv-x="667" d="M308 1Q246 1 192 28T97 102T33 212T10 346Q10 414 32 472T94 574T187 643T303 668Q366 668 420 640T515 565T579 456T602 323Q602 276 593 236T564 158Q593 133 625 105T685 52L582 -66L469 52Q394 1
308 1ZM308 148Q323 148 336 151T364 159L322 205L384 315L454 253Q466 287 466 324Q466 364 454 400T419 463T367 505T303 521Q270 521 241 507T191 469T157 412T144 342Q144 303 156 268T191 207T243 164T308 148Z" />
<glyph unicode="R" glyph-name="R" horiz-adv-x="542" d="M37 670Q148 664 238 644T392 590T490 513T525 414Q525 287 350 211Q358 183 369 164T398 133T438 116T495 111Q512 111 548 117L524 -27Q440 -22 385 -12T293 20T236 76T198 161L163 155L156 0H5L37 670ZM149
307Q237 315 287 345T337 419Q337 464 290 491T158 526L149 307Z" />
<glyph unicode="S" glyph-name="S" horiz-adv-x="534" d="M58 136Q70 136 86 136T110 135Q258 135 325 157T392 218Q392 228 389 236T375 251T345 262T294 268Q234 271 197 274T146 281Q80 298 46 341T12 450Q12 497 44 536T136 606T283 656T482 684L475 512Q406
512 350 507T253 493T190 471T168 443Q168 432 173 421T193 401T233 387T298 381Q354 377 383 375T423 370L422 371Q491 357 523 316T556 212Q556 163 521 123T421 54T268 6T73 -16L58 136Z" />
<glyph unicode="T" glyph-name="T" horiz-adv-x="500" d="M157 509Q121 513 79 518T2 526V679L490 645L481 501H284V0H157V509Z" />
<glyph unicode="U" glyph-name="U" horiz-adv-x="580" d="M72 245Q42 331 26 428T4 634L177 649Q176 633 176 609T175 566Q175 474 184 400T210 274T251 194T305 165Q411 165 411 392Q411 457 404 525T381 668L538 698Q548 636 552 576T557 452Q557 232 494 116T305
0Q154 0 72 246V245V245Z" />
<glyph unicode="V" glyph-name="V" horiz-adv-x="513" d="M-32 617L146 649L280 210L337 671L522 686L398 11L212 -16L-32 617Z" />
<glyph unicode="W" glyph-name="W" horiz-adv-x="641" d="M-17 666H150L187 286L231 643H362L409 224Q429 328 449 436T490 648L652 627L526 -12H320L295 276L250 0H60L-17 666Z" />
<glyph unicode="X" glyph-name="X" horiz-adv-x="520" d="M164 308Q125 389 82 476T0 644L164 677L244 452L339 684L512 674L331 333Q380 260 434 183T538 33L363 -21L252 192L172 -20L-1 2L164 308Z" />
<glyph unicode="Y" glyph-name="Y" horiz-adv-x="452" d="M175 274L-36 620L115 664L225 437Q250 496 276 556T325 674L483 688L318 305V6L175 -12V274Z" />
<glyph unicode="Z" glyph-name="Z" horiz-adv-x="509" d="M307 513Q244 516 178 520T50 527V682L542 626L185 121H442L481 -20L-50 10L307 513Z" />
<glyph unicode="[" glyph-name="bracketleft" horiz-adv-x="340" d="M53 665H320L314 561H157L129 132L280 120L271 -2L11 27L53 665Z" />
<glyph unicode="\" glyph-name="backslash" horiz-adv-x="399" d="M1 622L121 663L388 29L257 -3L1 622Z" />
<glyph unicode="]" glyph-name="bracketright" horiz-adv-x="298" d="M26 107L129 117V552H13V667H270V0H26V107Z" />
<glyph unicode="^" glyph-name="asciicircum" horiz-adv-x="441" d="M138 658H251L425 270L296 248L208 459Q191 405 173 350T137 241L9 257L138 658Z" />
<glyph unicode="_" glyph-name="underscore" horiz-adv-x="590" d="M600 -40V-110H-10V-40H600Z" />
<glyph unicode="`" glyph-name="grave" horiz-adv-x="186" d="M-1 695L99 726L172 565L102 528L-1 695Z" />
<glyph unicode="a" glyph-name="a" horiz-adv-x="458" d="M6 169Q6 203 27 234T87 290T178 334T297 362Q289 383 279 394T247 406Q226 406 206 394T161 344L67 413Q106 474 151 498T260 522Q312 522 346 504T400 454T428 380T436 292Q436 256 432 217T422 141T408
69T394 7L388 -25Q288 -12 216 7T98 50T29 104T6 169ZM138 188Q138 170 171 156T282 133Q290 157 295 194T303 267Q268 265 238 259T185 242T151 218T138 188Z" />
<glyph unicode="b" glyph-name="b" horiz-adv-x="478" d="M55 685L185 697L165 527Q230 502 283 468T375 395T434 313T455 227Q455 184 440 142T391 67T305 14T179 -7Q103 -7 -3 20L55 685ZM146 123Q236 124 277 151T324 226V234Q324 256 313 277T281 318T232
353T170 380Q165 313 159 252T146 123Z" />
<glyph unicode="c" glyph-name="c" horiz-adv-x="383" d="M2 252Q2 303 29 348T107 429T228 491T382 526L386 375Q337 375 294 366T219 339T168 298T149 245Q149 203 195 171T347 119L351 -9Q269 6 204 31T94 89T26 163T2 252Z" />
<glyph unicode="d" glyph-name="d" horiz-adv-x="470" d="M12 261Q12 347 82 409T283 507L262 663L387 704L480 -7Q351 -7 262 16T117 78T37 164T12 261ZM145 259Q145 229 161 207T202 170T259 146T320 132Q312 195 303 252T286 374Q210 354 178 325T145 259Z" />
<glyph unicode="e" glyph-name="e" horiz-adv-x="492" d="M215 131Q250 104 283 104Q293 104 310 108T347 122T391 149T437 195L508 113Q465 60 408 27T272 -7Q223 -7 177 13T94 71T35 160T13 278Q13 321 26 363T66 437T135 489T234 509Q275 509 311 493T376 448T428
381T464 300L215 131ZM160 216Q205 244 245 269T333 322Q318 344 295 358T244 372Q221 372 204 363T176 339T158 305T152 264Q152 252 154 241T160 216Z" />
<glyph unicode="f" glyph-name="f" horiz-adv-x="330" d="M60 -20Q52 11 44 55T28 151T16 258T11 369Q11 437 20 499T54 610T118 686T219 715Q278 715 319 678T398 570L317 488Q285 544 261 568T212 593Q168 593 151 544T134 413V400L304 444V303L141 291Q146
244 153 199T168 116T183 49T195 6L60 -20V-20Z" />
<glyph unicode="g" glyph-name="g" horiz-adv-x="508" d="M151 23Q189 -32 218 -56T275 -81Q334 -81 349 -16Q297 -4 237 15T126 68T42 148T8 264Q8 311 37 353T118 428T245 485T408 519L423 509Q432 480 444 435T467 334T486 218T494 99Q494 39 484 -15T448 -111T380
-176T273 -201Q205 -201 158 -165T63 -59L151 23ZM153 237Q153 204 172 180T222 139T287 111T353 92Q350 154 337 221T309 345Q276 340 248 330T198 306T165 275T153 237Z" />
<glyph unicode="h" glyph-name="h" horiz-adv-x="481" d="M35 676L161 652L153 449Q202 520 269 520Q276 520 282 520T295 518H294Q333 511 363 486T413 420T443 325T454 206Q454 159 448 106T431 -7L281 -21Q289 5 296 35T309 97T318 160T321 221Q321 249 318
275T309 321T293 353T269 369H270H263Q239 369 218 341T181 263T156 146T146 1L9 -7L35 676Z" />
<glyph unicode="i" glyph-name="i" horiz-adv-x="177" d="M37 702L162 691L167 560L37 549V702ZM22 501L149 511L136 10L22 -10V501Z" />
<glyph unicode="j" glyph-name="j" horiz-adv-x="250" d="M15 667L158 694L161 548L38 538L15 667ZM-86 6Q-54 -50 -30 -75T19 -100Q63 -100 80 -51T97 80Q97 137 90 200T73 321T53 424T36 488L158 510L174 500Q181 470 189 428T204 337T215 233T220 125Q220 56
211 -6T178 -116T114 -192T12 -221Q-47 -221 -88 -185T-167 -77L-86 6Z" />
<glyph unicode="k" glyph-name="k" horiz-adv-x="437" d="M65 676L207 649L170 356Q209 399 250 445T330 533L445 457L238 254Q283 203 332 149T426 45L314 -56L156 160Q151 121 147 81T137 4L-7 -12L65 676Z" />
<glyph unicode="l" glyph-name="l" horiz-adv-x="270" d="M67 570L17 580L24 696L217 639L159 108L248 141L238 2L12 -10L67 570Z" />
<glyph unicode="m" glyph-name="m" horiz-adv-x="728" d="M21 31Q21 40 21 65T24 146T29 293T38 524L164 493L163 476Q184 496 208 507T259 519Q313 519 343 491T389 414Q409 457 438 481T510 505Q559 505 593 472T649 387T680 270T690 140Q690 92 685 46T671
-40L525 -19Q528 -6 532 19T541 77T549 146T552 215Q552 242 550 267T542 312T528 343T505 355Q488 355 476 340T454 299T439 240T430 170T424 98T420 32Q420 24 419 10T418 -10H267L272 35Q275 54 279 80T288 137T294 198T297 259Q297 281 295 301T289 336T277
360T258 369Q240 369 226 350T202 300T185 230T174 151T168 73T166 7L21 9V31Z" />
<glyph unicode="n" glyph-name="n" horiz-adv-x="499" d="M0 455L116 501L126 430Q147 475 179 499T253 523Q304 523 345 488T416 389T462 237T478 44V2H322L326 78Q327 99 328 118T329 156Q329 259 309 315T255 372Q217 372 199 316T180 163Q180 137 182 109T187
49L191 -1L59 -30L0 455Z" />
<glyph unicode="o" glyph-name="o" horiz-adv-x="508" d="M256 -13Q208 -13 164 8T86 67T31 156T10 269Q10 317 26 361T71 439T143 494T239 515Q294 515 338 491T414 428T463 338T483 235Q483 187 468 142T425 63T354 8T256 -13ZM259 118Q281 118 298 127T327
153T345 190T351 234Q351 258 344 284T322 333T286 369T236 384Q213 384 196 375T166 350T148 313T141 269Q141 237 150 210T176 162T214 130T259 118Z" />
<glyph unicode="p" glyph-name="p" horiz-adv-x="509" d="M173 -1Q178 -49 184 -103T195 -202H70L-4 513Q13 514 37 514T76 515Q281 515 386 461T491 300Q491 258 469 216T404 135T304 61T173 -1ZM153 131Q179 140 211 153T271 186T318 231T337 289Q332 334 287
356T140 378H131Q136 315 142 256T153 131Z" />
<glyph unicode="q" glyph-name="q" horiz-adv-x="506" d="M17 253Q17 294 37 339T103 423T219 487T391 512Q414 512 438 511T491 507L420 -177L291 -219L315 9Q251 23 197 46T102 99T40 169T17 253ZM132 250Q132 212 178 181T310 129L336 378Q334 378 333 378T330
379Q285 379 249 369T186 340T146 299T132 250Z" />
<glyph unicode="r" glyph-name="r" horiz-adv-x="374" d="M10 501L145 529L147 455Q187 486 241 509T362 545L374 394Q334 392 295 385T224 364T172 334T151 295L160 -7H37L10 501Z" />
<glyph unicode="s" glyph-name="s" horiz-adv-x="461" d="M-1 163L27 156Q71 142 116 131T212 119Q238 119 254 125T270 144Q270 164 252 177T207 201T148 223T89 251T44 293T26 355Q26 429 85 469T255 509Q297 509 349 503T469 482L419 337Q353 357 302 366T219
375Q184 375 169 367T152 344Q153 328 173 316T223 292T289 266T353 233T403 188T423 126Q423 85 402 58T347 16T274 -6T196 -12Q150 -12 95 -4T-26 21L-1 163Z" />
<glyph unicode="t" glyph-name="t" horiz-adv-x="429" d="M128 381L-2 371L20 501L131 509L135 665L276 689L270 520L386 529L413 403L265 391L251 10L120 -10L128 381Z" />
<glyph unicode="u" glyph-name="u" horiz-adv-x="472" d="M208 -17Q161 -17 125 11T63 89T25 208T12 361Q12 395 14 435T23 522L179 509L167 434Q159 389 155 352T151 281Q151 210 165 172T210 133Q234 133 252 159T283 229T301 329T308 447V499L453 501Q452 442
448 393T436 300Q410 145 353 64T208 -17Z" />
<glyph unicode="v" glyph-name="v" horiz-adv-x="433" d="M-18 527L141 510L182 183L296 505L455 476L227 -12L87 6L-18 527Z" />
<glyph unicode="w" glyph-name="w" horiz-adv-x="573" d="M-3 478L143 505L206 221L222 465L328 481L393 222Q396 299 398 377T403 530L555 539L492 11L359 -3L298 211L282 -6L123 -18L-3 478Z" />
<glyph unicode="x" glyph-name="x" horiz-adv-x="390" d="M137 251Q120 275 100 304T59 364T18 422T-17 474L134 517L199 384L243 511L391 497L268 270L390 20L247 -2L207 128L166 -6L2 -2L137 251Z" />
<glyph unicode="y" glyph-name="y" horiz-adv-x="483" d="M113 28Q139 -37 162 -64T215 -91Q236 -91 252 -78T280 -39T299 20T312 96Q251 14 175 14Q132 14 102 36T52 95T23 182T14 285Q14 340 24 400T53 518L192 484Q182 459 172 426T152 356T137 283T131 215Q131
177 140 150T173 123Q194 123 215 153T254 233T287 346T308 474L435 497L446 462Q449 433 451 391T454 298Q454 245 450 187T437 72T410 -36T366 -125T302 -187T215 -210Q177 -210 148 -199T95 -167T54 -113T19 -39L113 28Z" />
<glyph unicode="z" glyph-name="z" horiz-adv-x="390" d="M192 402Q150 396 104 390T20 378L-2 502L380 534L198 103L416 127L390 -1L11 -17L192 402Z" />
<glyph unicode="{" glyph-name="braceleft" horiz-adv-x="377" d="M80 114Q80 128 81 144T83 177T86 205T88 225Q88 245 67 260T13 279L24 429H49Q72 429 85 436T104 457T113 489T117 530Q117 592 146 630T229 669Q232 669 269 667T364 660L355 525L307 528Q295
529 288 529T279 530Q237 530 230 479V471V454Q230 439 228 423T220 391T201 363T166 343Q186 332 198 317T210 287Q210 274 209 258T206 227T203 199T201 179Q201 159 216 146T251 128L347 123L338 -1Q313 2 270 6T175 18Q134 25 107 53T80 114Z" />
<glyph unicode="|" glyph-name="bar" horiz-adv-x="164" d="M21 720H139V-64L21 -54V720Z" />
<glyph unicode="}" glyph-name="braceright" horiz-adv-x="381" d="M19 137Q54 133 72 131T93 129Q138 129 142 182V189V201Q142 216 144 233T152 266T172 295T208 317Q188 328 176 342T163 374Q163 383 164 398T167 431T170 462T172 482Q172 501 157 515T121
531L27 538L34 662L76 658Q99 656 130 652T199 643Q241 636 267 609T293 546Q293 537 292 522T289 490T286 458T284 434Q284 414 307 399T359 381L349 231H324Q299 231 286 222T266 198T258 162T256 117Q256 88 247 65T223 26T187 1T143 -8Q142 -8 134 -8T112 -6L8
1L19 137Z" />
<glyph unicode="~" glyph-name="asciitilde" horiz-adv-x="466" d="M9 372Q27 394 48 414T91 450T134 474T172 483Q195 483 209 469T234 439T253 409T271 395Q299 395 331 473L435 393L439 375Q424 349 406 328T369 290T332 265T297 256Q260 256 230 307Q207 346
187 346Q143 346 78 250L9 372Z" />
</font>
</defs>
</svg>
