<?xml version="1.0" standalone="no"?> <!DOCTYPE svg PUBLIC "-//W3C//DTD SVG 1.0//EN" "http://www.w3.org/TR/2001/REC-SVG-20010904/DTD/svg10.dtd" > <svg xmlns="http://www.w3.org/2000/svg" width="100%" height="100%">
<defs >
<font id="WALBAEFM" horiz-adv-x="471" ><font-face
    font-family="Walbaum EF"
    units-per-em="1000"
    panose-1="2 0 6 3 9 0 0 2 0 3"
    ascent="750"
    descent="-170"
    alphabetic="0" />
<missing-glyph horiz-adv-x="333" />
<glyph unicode=" " glyph-name="space" horiz-adv-x="250" />
<glyph unicode="!" glyph-name="exclam" horiz-adv-x="313" d="M233 63Q233 31 211 9T156 -13Q124 -13 102 9T80 63Q80 95 102 117T156 140Q188 140 210 118T233 63ZM231 598Q231 574 225 538L209 450L192 342L175 232L169 194H138L134 229Q129 273 126 300T120
341Q116 374 102 450Q97 481 94 503T88 542T86 570T85 594Q85 634 104 657T159 680Q192 680 211 658T231 598Z" />
<glyph unicode="&quot;" glyph-name="quotedbl" horiz-adv-x="315" d="M125 667L113 398H66L55 667H125V667ZM259 667L248 398H201L190 667H259V667Z" />
<glyph unicode="#" glyph-name="numbersign" horiz-adv-x="600" d="M388 411H245L224 269H367L388 411V411ZM572 469L563 411H453L432 269H543L534 211H422L390 0H325L358 211H215L182 0H118L150 211H37L46 269H159L181 411H68L76 469H189L220 667H284L254 469H397L427
667H492L462 469H572V469Z" />
<glyph unicode="$" glyph-name="dollar" horiz-adv-x="546" d="M395 133Q395 163 379 187Q373 196 367 203T351 217T328 234T295 255V23Q313 27 326 32Q356 44 375 72T395 133ZM260 442V630Q177 615 177 546Q177 518 196 493Q207 478 219 468T260 442ZM489 196Q489
154 471 114T421 45Q407 33 395 25T369 10T337 0T295 -7V-116H260V-8Q230 -6 207 -3T166 7T133 21T103 42Q81 60 69 84T57 134Q57 164 74 183T117 203Q143 203 159 186T176 142Q176 136 175 128T172 112Q169 94 169 82Q169 32 260 20V276Q249 282 241 287T228 295Q174
326 136 359Q107 384 92 418T76 488Q76 560 124 605T260 660V761H295V660Q375 655 421 625T468 548Q468 523 452 507T411 491Q387 491 371 507T354 549Q354 551 355 558T356 576V583Q356 606 342 617T295 632V419Q324 404 341 395T371 377T395 360T423 337Q455
310 472 274T489 196Z" />
<glyph unicode="&amp;" glyph-name="ampersand" horiz-adv-x="725" d="M396 74Q388 85 383 92T376 101Q365 118 346 149T299 228Q286 250 277 266T259 298T243 328T224 363Q198 344 186 332T164 302Q151 280 151 250Q151 204 182 142Q237 33 309 33Q333 33 353
42T396 74ZM395 585Q395 614 380 632T338 650Q312 650 295 633T277 590Q277 570 284 550Q287 542 289 536T294 523T302 505T315 480Q317 476 319 472T325 460Q395 515 395 585ZM697 150Q697 115 685 85T653 32T604 -2T542 -15Q530 -15 518 -14T493 -7Q470 1 454
13T413 53Q405 46 400 42T390 34Q360 12 318 0T231 -13Q188 -13 152 0T90 36T49 92T34 163Q34 211 58 253Q67 269 77 282T103 308T140 337T191 374L211 388Q188 435 179 466T169 528Q169 561 182 588T218 635T274 666T346 677Q403 677 435 654T467 590Q467 565
455 544Q449 533 442 524T423 504T397 481T359 451L338 435L352 411L407 312L463 214L480 184L493 209Q516 253 524 282T532 338Q532 398 485 414Q478 416 473 417T461 419T446 420T424 421V445H697V421H684Q658 421 640 417T609 402T586 373T567 327Q560 306 554
287T541 250Q530 221 521 203T496 158Q504 146 511 136T525 116Q561 67 602 67Q632 67 651 93T670 162Q670 181 667 197T654 244L679 253Q685 234 688 220T694 195T696 173T697 150Z" />
<glyph unicode="&apos;" glyph-name="quotesingle" horiz-adv-x="180" d="M125 667L113 398H66L55 667H125V667Z" />
<glyph unicode="(" glyph-name="parenleft" horiz-adv-x="425" d="M365 -190L350 -216Q309 -193 280 -175T228 -140T187 -103T149 -60Q101 1 76 75T50 230Q50 402 162 532Q181 555 199 572T238 606T285 640T350 680L365 655Q314 623 279 584T222 493T190 374T180
219Q180 135 190 72T222 -41T279 -126T365 -190Z" />
<glyph unicode=")" glyph-name="parenright" horiz-adv-x="425" d="M375 234Q375 63 263 -69Q244 -91 227 -108T188 -142T140 -176T75 -216L60 -191Q111 -159 146 -120T203 -30T235 89T245 245Q245 329 235 393T203 505T146 590T60 654L75 680Q116 657 145 639T197
604T238 567T276 524Q324 463 349 389T375 234Z" />
<glyph unicode="*" glyph-name="asterisk" horiz-adv-x="399" d="M361 545Q361 503 314 503H215L297 444Q320 427 320 406Q320 389 306 376T272 363Q255 363 247 370T230 400L199 490L169 400Q161 378 153 371T127 363Q108 363 94 376T79 406Q79 428 101 444L184
503H85Q37 503 37 544Q37 564 48 578T77 592Q92 592 107 582L190 522L158 612Q153 627 153 637Q153 654 166 665T200 677Q219 677 232 665T245 636Q245 624 241 612L209 522L292 582Q307 592 322 592Q338 592 349 578T361 545Z" />
<glyph unicode="+" glyph-name="plus" horiz-adv-x="500" d="M467 302H282V129H218V302H33V361H218V535H282V361H467V302V302Z" />
<glyph unicode="," glyph-name="comma" horiz-adv-x="269" d="M220 25Q220 -50 166 -113Q157 -123 149 -131T132 -146T110 -162T81 -180L66 -155Q111 -125 138 -88T165 -16Q165 -13 165 -9T164 0Q150 -8 142 -10T122 -13Q91 -13 70 7T49 58Q49 91 72 113T130 136Q169
136 194 105T220 25Z" />
<glyph unicode="-" glyph-name="hyphen" horiz-adv-x="253" d="M253 214H0V294H253V214V214Z" />
<glyph unicode="." glyph-name="period" horiz-adv-x="274" d="M213 63Q213 31 191 9T137 -13Q105 -13 83 9T60 63Q60 95 82 117T137 140Q169 140 191 118T213 63Z" />
<glyph unicode="/" glyph-name="slash" horiz-adv-x="475" d="M407 667L42 -203H-17L348 667H407V667Z" />
<glyph unicode="0" glyph-name="zero" horiz-adv-x="546" d="M363 314V338Q363 389 361 432T355 508Q347 568 327 599T273 631Q252 631 236 619T211 584Q196 546 190 478T183 306Q183 258 184 222T188 157T195 108T205 69Q224 14 273 14Q298 14 315 28T343 76T358
168T363 314ZM506 326Q506 248 490 186T443 79T370 11T274 -13Q221 -13 178 10T103 77T56 182T39 319Q39 396 56 458T104 565T178 634T275 658Q327 658 370 635T443 568T489 463T506 326Z" />
<glyph unicode="1" glyph-name="one" horiz-adv-x="545" d="M455 0H131V23H225V518Q214 508 207 501T191 488T174 475T151 458L128 441L112 464Q132 479 146 489T171 507T192 525T216 546Q232 561 244 573T267 597T288 625T311 660H364V23H455V0Z" />
<glyph unicode="2" glyph-name="two" horiz-adv-x="545" d="M501 211L423 0H33L24 19L58 50Q107 95 142 129T202 190T245 242T280 293Q303 330 316 374T330 462Q330 527 300 566T218 605Q192 605 169 594T129 564T103 518T93 462Q93 443 97 426T108 392Q119 369
130 355T166 321L148 297Q140 305 134 310T122 319Q93 348 77 385T60 465Q60 507 76 542T120 603T187 643T273 658Q318 658 355 645T418 607T459 548T474 473Q474 429 455 386Q447 369 437 354T411 323T376 288T328 248Q300 225 282 212T256 191L195 139L174 122H301Q351
122 378 124T419 135Q427 139 433 144T445 159T457 182T472 217L501 211Z" />
<glyph unicode="3" glyph-name="three" horiz-adv-x="545" d="M485 213Q485 163 469 122T424 50T355 4T265 -13Q183 -13 128 30Q115 40 106 49T88 71T73 98T57 135L88 146Q101 115 110 100T134 71Q155 50 183 38T238 25Q291 25 315 68T339 205Q339 295 318 335T252
376Q219 376 181 345Q174 339 169 335T157 324T144 311T124 292L102 315L325 526H131L93 439L65 451L149 647H470L477 628L239 402Q262 408 275 410T305 412Q345 412 378 398T435 357T472 294T485 213Z" />
<glyph unicode="4" glyph-name="four" horiz-adv-x="546" d="M264 230V498L69 230H264V230ZM505 110H472V193H399V0H264V193H27V230L343 662H399V230H472V314H505V110V110Z" />
<glyph unicode="5" glyph-name="five" horiz-adv-x="546" d="M495 218Q495 167 478 125T431 52T359 4T265 -13Q176 -13 121 39Q109 50 100 61T82 87T65 121T48 167L79 177Q87 154 93 139T106 111T120 89T138 69Q156 49 182 38T234 26Q350 26 350 212Q350 297 321
341T235 386Q192 386 161 358T116 279L86 286L144 647H332Q360 647 375 648T402 655Q433 667 447 710L473 699L460 661Q441 607 421 580T371 538Q361 533 353 531T333 527T304 525T261 524H159L133 365Q141 373 146 378T156 386Q182 406 217 417T288 429Q334 429
372 414T437 370T480 303T495 218Z" />
<glyph unicode="6" glyph-name="six" horiz-adv-x="545" d="M363 203V217Q363 395 277 395Q257 395 239 382T211 348Q200 325 196 293T192 210Q192 16 280 16Q363 16 363 203ZM505 220Q505 167 489 124T444 51T374 4T281 -13Q236 -13 199 0T132 42Q90 82 71 145T51
309Q51 390 69 455T122 565T207 634T319 659Q355 659 386 650T439 625T473 587T486 538Q486 510 471 493T431 476Q407 476 390 495T373 540Q373 555 377 572Q381 584 381 596Q381 613 367 622T329 632Q306 632 284 622T247 593Q220 562 210 522Q206 505 203 492T198
462T195 424T192 370Q198 378 202 383T210 393Q230 413 259 424T322 435Q363 435 396 420T454 376T491 308T505 220Z" />
<glyph unicode="7" glyph-name="seven" horiz-adv-x="545" d="M517 647Q511 637 507 630T499 618Q484 595 469 568T440 513T413 458T390 407Q355 321 337 237Q331 210 327 188T320 141T313 82T306 0H153Q158 24 162 41T171 75T182 109T197 151Q211 188 227 223T261
292Q276 321 294 351T332 414Q337 421 350 442T387 498L405 524H104L70 426L41 436L112 647H517Z" />
<glyph unicode="8" glyph-name="eight" horiz-adv-x="546" d="M401 135Q401 160 391 183T362 225Q352 234 343 241T321 257T288 275T238 299L208 313Q201 308 196 304T187 297Q165 276 153 242T140 169Q140 101 177 60T275 18Q302 18 325 27T365 51T391 88T401
135ZM385 512Q385 567 357 598T278 629Q234 629 205 604T175 541Q175 509 197 484T270 435L318 413L339 403Q366 432 375 454T385 512ZM500 202Q500 155 483 116T434 48T361 3T267 -13Q218 -13 178 0T108 36T62 92T45 163Q45 222 76 262T174 331Q120 359 97 394T73
480Q73 519 89 551T133 608T201 645T286 659Q327 659 362 648T423 618T463 573T478 517Q478 472 450 439T370 388Q388 379 400 372T421 359T437 347T453 331Q476 307 488 274T500 202Z" />
<glyph unicode="9" glyph-name="nine" horiz-adv-x="545" d="M357 422V430Q357 491 351 527T332 589Q322 608 305 619T268 630Q225 630 205 585T185 442Q185 250 271 250Q357 250 357 422ZM498 344Q498 260 480 194T427 82T342 11T228 -14Q193 -14 163 -5T111
20T76 58T63 105Q63 133 78 151T117 169Q143 169 159 150T176 102Q176 89 173 76Q168 54 168 47Q168 33 183 23T220 13Q253 13 282 33T325 88Q333 107 338 123T347 158T352 205T357 275Q346 258 337 251Q317 231 288 221T225 210Q184 210 151 225T94 269T57 336T44
424Q44 477 59 520T104 594T175 641T267 658Q381 658 439 579T498 344Z" />
<glyph unicode=":" glyph-name="colon" horiz-adv-x="273" d="M213 63Q213 31 191 9T137 -13Q105 -13 83 9T60 63Q60 95 82 117T137 140Q169 140 191 118T213 63ZM213 375Q213 343 191 321T137 298Q105 298 83 320T60 375Q60 407 82 429T137 451Q169 451 191 429T213
375Z" />
<glyph unicode=";" glyph-name="semicolon" horiz-adv-x="269" d="M220 25Q220 -50 166 -113Q157 -123 149 -131T132 -146T110 -162T81 -180L66 -155Q111 -125 138 -88T165 -16Q165 -13 165 -9T164 0Q150 -8 142 -10T122 -13Q91 -13 70 7T49 58Q49 91 72 113T130
136Q169 136 194 105T220 25ZM203 375Q203 343 181 321T127 298Q95 298 73 320T51 375Q51 407 73 429T127 451Q159 451 181 429T203 375Z" />
<glyph unicode="&lt;" glyph-name="less" horiz-adv-x="500" d="M467 102L33 302V357L467 557V494L101 329L466 165L467 102V102Z" />
<glyph unicode="=" glyph-name="equal" horiz-adv-x="500" d="M467 239H33V296H467V239V239ZM467 388H33V445H467V388V388Z" />
<glyph unicode="&gt;" glyph-name="greater" horiz-adv-x="500" d="M467 302L33 102V165L399 330L34 494L33 557L467 357V302V302Z" />
<glyph unicode="?" glyph-name="question" horiz-adv-x="431" d="M244 63Q244 31 222 9T168 -13Q136 -13 114 9T91 63Q91 95 113 117T168 140Q200 140 222 118T244 63ZM391 491Q391 444 372 405Q365 390 356 378T332 355T296 332T247 308Q221 296 208 287T188
267Q184 260 183 246T181 204Q181 202 181 198T182 188H149Q149 204 149 210T148 221Q148 244 151 262Q155 290 169 307Q173 311 183 320T212 345Q227 357 236 369T251 396T258 435T260 493Q260 517 260 534T258 564T254 587T248 607Q240 628 224 639T187 651Q141
651 141 611Q141 601 146 589L155 567Q157 561 159 555T161 542Q161 518 144 502T101 485Q73 485 55 505T37 555Q37 582 50 605T85 644T139 670T206 680Q292 680 341 630T391 491Z" />
<glyph unicode="@" glyph-name="at" horiz-adv-x="733" d="M464 354Q464 401 440 428T374 456Q348 456 325 444T285 411T258 362T248 302Q248 251 274 219T345 186Q370 186 392 198T430 233T455 287T464 354ZM695 380Q695 333 682 290T647 215T595 163T532 143Q501
143 482 161T460 211Q413 139 335 139Q305 139 279 151T235 184T206 236T195 301Q195 343 208 380T246 444T302 488T370 504Q454 504 483 423L496 491H542L501 278Q498 264 497 251T495 231Q495 209 505 196T535 183Q558 183 579 199T616 243T642 305T652 379Q652
434 632 480T576 560T490 613T380 632Q317 632 262 609T167 545T103 449T79 330Q79 270 100 216T161 119Q205 74 260 52T390 30Q444 30 497 42Q513 45 525 48T549 56T573 65T603 79L617 37Q513 -13 390 -13Q312 -13 246 12T133 83T60 192T33 331Q33 404 59 466T132
575T242 648T379 675Q447 675 505 653T605 591T671 497T695 380Z" />
<glyph unicode="A" glyph-name="A" horiz-adv-x="651" d="M340 247L268 468L189 247H340V247ZM651 0H312V23H411L347 221H180L110 23H209V0H0V23H77L310 674H341L571 23H651V0V0Z" />
<glyph unicode="B" glyph-name="B" horiz-adv-x="669" d="M469 189Q469 270 434 311Q417 330 391 339Q374 345 359 347T308 349H265V26H322Q399 26 434 65T469 189ZM426 503Q426 542 421 568T402 610T368 633T316 640H265V375H308Q341 375 364 381T400 403T420
442T426 503ZM625 178Q625 140 612 106T574 48Q559 34 543 25T503 11T448 3T373 0H36V23H120V644H36V667H370Q422 667 454 662T512 642Q543 627 560 595T578 519Q578 452 532 412Q522 403 512 396T488 384T456 374T414 364Q441 361 460 359T494 352T522 341T550
326Q625 282 625 178Z" />
<glyph unicode="C" glyph-name="C" horiz-adv-x="691" d="M631 47Q614 40 602 35T582 27Q531 7 481 -3T383 -13Q306 -13 245 11T139 80T72 188T48 330Q48 409 73 473T143 584T253 655T396 680Q437 680 475 673Q494 670 510 666T543 657T581 644T631 625V446H598Q596
473 593 493T583 529T567 560T542 590Q488 648 412 648Q378 648 346 636T290 602Q249 566 232 503T214 332Q214 263 220 216T241 130Q260 78 301 48T397 18Q437 18 472 34T534 80T578 149T601 236H631V47Z" />
<glyph unicode="D" glyph-name="D" horiz-adv-x="786" d="M576 336Q576 502 517 582Q494 611 456 625T358 640H266V26H356Q394 26 421 31T470 48Q522 75 549 148T576 336ZM737 339Q737 169 648 77Q628 56 605 42T554 18T490 4T409 0H36V23H120V644H36V667H408Q453
667 494 661T568 643Q649 614 693 535T737 339Z" />
<glyph unicode="E" glyph-name="E" horiz-adv-x="676" d="M629 226L625 0H36V23H120V644H36V667H598L601 460H575Q567 513 550 548T500 608Q477 626 446 633T360 640H265V352H296Q361 352 389 384T417 492H444V180H417V199Q417 266 389 295T297 325H265V26H353Q414
26 449 33T512 60Q543 82 567 120Q575 133 581 144T590 167T597 193T602 226H629Z" />
<glyph unicode="F" glyph-name="F" horiz-adv-x="619" d="M592 461H564Q561 483 558 499T550 529T538 554T519 580Q493 612 454 626T351 640H266V353H300Q362 353 389 386T418 492H445V179H418V196Q418 326 301 326H266V23H350V0H36V23H122V644H40V667H588L592 461Z" />
<glyph unicode="G" glyph-name="G" horiz-adv-x="753" d="M739 301H661V57Q632 43 615 36T573 21Q524 4 475 -4T383 -13Q307 -13 246 11T140 81T72 189T48 330Q48 408 73 472T145 583T255 654T396 680Q438 680 486 671Q504 668 518 665T549 657T585 646T632 630V450H605Q600
477 595 496T583 530T565 560T540 589Q483 650 404 650Q364 650 333 634T274 583Q257 561 245 536T226 479T215 407T211 316Q211 167 257 92T393 16Q423 16 454 27Q491 41 506 65T521 137V301H429V327H739V301Z" />
<glyph unicode="H" glyph-name="H" horiz-adv-x="789" d="M752 0H439V23H524V331H265V23H349V0H36V23H119V644H36V667H349V644H265V355H524V644H439V667H752V644H669V23H752V0V0Z" />
<glyph unicode="I" glyph-name="I" horiz-adv-x="385" d="M349 0H36V23H119V644H36V667H349V644H265V23H349V0V0Z" />
<glyph unicode="J" glyph-name="J" horiz-adv-x="461" d="M439 644H357V166Q357 129 354 109T344 70Q312 -13 169 -13Q91 -13 46 18T1 103Q1 135 19 155T68 175Q94 175 111 158T129 115Q129 90 110 71L97 57Q89 49 89 40Q89 29 102 22T138 14Q171 14 191 34Q197
41 201 50T208 73T211 110T212 166V644H128V667H439V644Z" />
<glyph unicode="K" glyph-name="K" horiz-adv-x="712" d="M716 0H405V23H472L315 347H264V23H349V0H36V23H120V644H36V667H349V644H264V374H311L501 644H410V667H626V644H541L416 467L642 23H716V0V0Z" />
<glyph unicode="L" glyph-name="L" horiz-adv-x="649" d="M624 0H36V23H119V644H36V667H350V644H266V26H356Q431 26 474 43Q494 51 512 65T546 98Q558 113 566 127T580 156T590 191T597 238H624V0Z" />
<glyph unicode="M" glyph-name="M" horiz-adv-x="930" d="M893 0H570V23H664V614L408 -16H391L146 614V23H236V0H30V23H113V644H30V667H284L464 198L655 667H893V644H810V23H893V0V0Z" />
<glyph unicode="N" glyph-name="N" horiz-adv-x="740" d="M714 644H632V-16H597L146 617V23H238V0H30V23H114V644H30V667H294L602 227V644H511V667H714V644V644Z" />
<glyph unicode="O" glyph-name="O" horiz-adv-x="762" d="M550 339Q550 393 548 434T539 506T524 560T500 602Q482 625 452 638T387 651Q352 651 322 639T271 603Q255 584 244 559T226 499T216 418T213 309Q213 216 225 159T264 67Q283 43 315 29T382 15Q420 15
452 30T503 74Q516 92 525 115T539 170T547 243T550 339ZM714 338Q714 260 690 196T621 85T516 13T379 -13Q305 -13 244 12T140 82T72 190T48 330Q48 408 72 472T141 583T246 654T383 680Q458 680 519 656T623 587T690 479T714 338Z" />
<glyph unicode="P" glyph-name="P" horiz-adv-x="627" d="M445 488Q445 539 433 572T396 623Q382 634 364 637T307 640H266V331H305Q345 331 372 338T415 364T438 412T445 488ZM600 483Q600 431 580 392T520 330Q506 322 492 317T461 309T423 305T372 303H266V23H349V0H36V23H121V644H37V667H373Q490
667 545 623T600 483Z" />
<glyph unicode="Q" glyph-name="Q" horiz-adv-x="762" d="M549 331Q549 385 547 426T539 498T525 553T504 595Q487 621 456 636T386 651Q308 651 266 597Q251 577 241 553T225 495T216 416T213 311Q213 217 224 161T261 69Q280 43 312 29T381 14Q414 14 444 26Q474
38 494 60T526 118T543 206T549 331ZM714 340Q714 262 690 198T623 86T521 13T389 -13Q373 -13 360 -12T324 -7Q330 -9 335 -11T343 -14Q370 -23 388 -30Q411 -39 425 -55T448 -94L460 -129Q467 -149 483 -157T533 -165H540L557 -164V-191H450Q392 -191 364 -173T327
-112L317 -62Q312 -41 302 -28T273 -5L226 20Q135 68 92 143T48 330Q48 408 72 472T141 583T246 654T383 680Q458 680 519 656T623 587T690 480T714 340Z" />
<glyph unicode="R" glyph-name="R" horiz-adv-x="692" d="M417 505Q417 592 381 622Q368 633 351 636T302 640H265V363H301Q334 363 356 370T391 393T411 437T417 505ZM687 0H588Q554 0 535 4T498 19Q478 33 467 56Q462 66 459 75T454 98T451 129T448 176Q445
225 438 256T415 304T372 328T302 335H265V23H350V0H36V23H120V644H36V667H350Q381 667 403 666T443 662T475 655T502 644Q533 628 550 594T567 512Q567 437 515 396Q504 388 495 382T473 371T444 362T405 351Q426 348 440 346T464 342T484 338T505 331Q544 317
565 290Q572 280 577 268T586 240T592 201T597 148Q599 107 602 89T615 55Q631 26 678 26H687V0Z" />
<glyph unicode="S" glyph-name="S" horiz-adv-x="555" d="M512 208Q512 160 493 119T441 49T360 4T257 -13Q235 -13 214 -11T172 -5Q157 -2 145 1T119 8T90 19T54 34L48 222H79Q84 193 89 172T103 134T122 103T149 73Q203 20 281 20Q342 20 381 51T421 132Q421
160 406 181Q397 195 388 205T361 225T313 249T230 284Q140 321 100 367T60 480Q60 525 76 561T123 624T196 665T290 680Q326 680 360 673Q374 670 385 668T408 661T433 652T465 639L469 485H439Q436 506 433 521T424 548T411 570T392 593Q340 648 269 648Q218
648 185 621T151 553Q151 525 167 504Q175 493 186 484T214 465T255 444T315 419Q354 404 381 391T429 364T463 335T488 302Q500 282 506 258T512 208Z" />
<glyph unicode="T" glyph-name="T" horiz-adv-x="670" d="M645 446H615Q611 538 566 589T445 640H407V23H499V0H169V23H262V640H230Q151 640 105 590T53 446H25V667H645V446Z" />
<glyph unicode="U" glyph-name="U" horiz-adv-x="744" d="M714 644H631V214Q631 149 618 105T575 35T493 -2T364 -13Q197 -13 138 59Q127 72 121 82T112 108T109 148T108 214V644H27V667H341V644H253V214Q253 156 259 124T281 70Q299 46 334 34T417 21Q468 21
506 34T564 71Q584 93 591 125T599 214V644H511V667H714V644Z" />
<glyph unicode="V" glyph-name="V" horiz-adv-x="644" d="M644 644H568L328 -19H300L78 644H0V667H332V644H234L378 202L535 644H438V667H644V644V644Z" />
<glyph unicode="W" glyph-name="W" horiz-adv-x="972" d="M972 644H909L687 -18H658L489 587L305 -18H277L70 644H0V667H313V644H222L350 220L477 644H390V667H710V644H621L737 220L876 644H785V667H972V644V644Z" />
<glyph unicode="X" glyph-name="X" horiz-adv-x="676" d="M683 0H350V23H434L298 272L135 23H231V0H16V23H93L281 303L88 644H13V667H342V644H259L368 438L500 644H413V667H621V644H543L385 408L606 23H683V0V0Z" />
<glyph unicode="Y" glyph-name="Y" horiz-adv-x="628" d="M626 644H552L389 345V23H473V0H159V23H245V345L65 644H2V667H334V644H236L382 391L516 644H420V667H626V644V644Z" />
<glyph unicode="Z" glyph-name="Z" horiz-adv-x="618" d="M580 0H8L400 640H299Q101 640 91 458H64V667H580L191 26H293Q341 26 378 31T440 47Q479 64 510 105Q521 120 528 133T540 161T547 193T552 235H580V0Z" />
<glyph unicode="[" glyph-name="bracketleft" horiz-adv-x="425" d="M321 -203H121V667H321V644H238V-180H321V-203V-203Z" />
<glyph unicode="\" glyph-name="backslash" horiz-adv-x="500" d="M453 -83H391L25 750H88L453 -83V-83Z" />
<glyph unicode="]" glyph-name="bracketright" horiz-adv-x="425" d="M304 -203H104V-180H187V644H104V667H304V-203V-203Z" />
<glyph unicode="^" glyph-name="asciicircum" horiz-adv-x="500" d="M471 370H401L249 618L98 370H29L208 668H292L471 370V370Z" />
<glyph unicode="_" glyph-name="underscore" horiz-adv-x="500" d="M500 -127H0V-70H500V-127V-127Z" />
<glyph unicode="`" glyph-name="grave" horiz-adv-x="500" d="M277 506H250L108 631Q97 641 94 646T90 658Q90 678 122 678H186Q204 678 213 674T226 658L232 640L277 506Z" />
<glyph unicode="a" glyph-name="a" horiz-adv-x="547" d="M328 214V274Q324 272 321 272T316 270Q311 269 302 267T279 259Q244 249 226 239T197 214Q174 185 174 127Q174 29 234 29Q251 29 268 38T297 64Q306 75 312 88T321 118T326 159T328 214ZM525 0Q519 -1
515 -1T507 -2Q503 -2 494 -2T469 -3Q454 -4 443 -4T423 -4Q338 -4 325 65Q320 58 317 53T309 42Q270 -8 175 -8Q108 -8 73 27T38 129Q38 238 153 261L228 276L300 293L328 301Q328 325 328 339T326 374Q324 412 309 428T260 444Q231 444 214 431T194 395L191 363Q189
338 175 327T130 316Q78 316 78 358Q78 413 126 441T269 470Q327 470 364 459T426 422Q435 413 440 404T449 382T453 351T454 307V133V97Q454 78 457 62Q460 40 470 32T505 23H512H525V0Z" />
<glyph unicode="b" glyph-name="b" horiz-adv-x="587" d="M403 239Q403 339 382 384T315 430Q291 430 272 418T241 385Q234 372 230 358T224 325T220 278T219 212Q219 180 220 159T223 121T231 92T244 66Q266 29 310 29Q359 29 381 78T403 239ZM547 240Q547 183
533 137T494 59T432 9T350 -8Q318 -8 291 1Q267 9 252 22T219 64V0H85V642H19V665H49H93Q115 665 128 665T148 667Q160 667 168 667T184 668T200 669T219 672V395Q236 421 249 433T285 455Q321 470 363 470Q449 470 498 409T547 240Z" />
<glyph unicode="c" glyph-name="c" horiz-adv-x="508" d="M480 145Q472 123 465 108T450 80T434 59T413 39Q386 16 350 4T273 -8Q221 -8 178 9T105 57T57 131T40 227Q40 281 57 325T107 402T185 452T284 470Q324 470 358 461T417 435T456 395T470 345Q470 319
454 304T410 288Q384 288 370 302T355 340V372Q355 403 336 422T288 442Q235 442 211 390T186 228Q186 128 217 76T309 24Q332 24 359 35Q387 47 408 70Q424 86 433 102T455 153L480 145Z" />
<glyph unicode="d" glyph-name="d" horiz-adv-x="595" d="M365 217V239Q365 270 364 292T361 331T355 359T345 384Q335 406 317 418T275 430Q227 430 206 385T185 233Q185 124 205 78T275 31Q286 31 297 34T317 43Q338 57 349 83Q354 95 357 106T362 133T364 168T365
217ZM566 0H366V68Q355 47 347 38Q330 16 300 4T234 -8Q190 -8 155 9T94 57T54 132T40 231Q40 286 53 330T92 405T153 453T233 470Q261 470 288 462Q315 454 331 440T366 394V642H288V665H328H372Q394 665 408 666T427 667Q439 667 447 667T463 668T479 669T498
672V23H566V0Z" />
<glyph unicode="e" glyph-name="e" horiz-adv-x="529" d="M348 285Q347 310 347 326T345 355T341 376T334 397Q317 444 271 444Q250 444 234 433T208 401Q203 389 200 380T195 358T191 328T187 285H348ZM498 258H187Q187 235 187 220T189 192T191 169T195 144Q203
87 236 56T320 24Q367 24 405 54T468 141L494 130Q486 113 479 101T466 79T452 61T434 45Q375 -8 278 -8Q223 -8 179 8T104 56T57 132T40 232Q40 285 57 328T105 403T180 452T276 470Q379 470 436 416T498 258Z" />
<glyph unicode="f" glyph-name="f" horiz-adv-x="369" d="M437 581Q437 555 422 540T381 525Q357 525 342 539T327 576Q327 581 327 585T328 596Q329 601 329 605T330 614Q330 631 318 641T286 652Q253 652 242 626Q237 615 236 599T234 549V458H313V431H234V23H308V0H29V23H103V431H29V458H103V513Q103
534 103 546T105 567T108 582T113 598Q143 678 285 678Q358 678 397 653T437 581Z" />
<glyph unicode="g" glyph-name="g" horiz-adv-x="543" d="M445 -87Q445 -67 435 -52T405 -28Q396 -24 386 -22T363 -18T330 -16T284 -14Q277 -13 271 -13T258 -13Q232 -13 215 -13T185 -15T163 -19T145 -26Q127 -34 116 -51T104 -91Q104 -179 262 -179Q347 -179
396 -155T445 -87ZM326 322V334Q326 397 314 422T269 447Q236 447 223 418T210 314Q210 253 223 227T267 201Q299 201 312 228T326 322ZM550 403Q550 380 539 367T507 354Q490 354 480 363T469 389V404Q469 425 453 425Q448 425 444 422T432 410Q430 409 429 407T425
403Q439 380 442 366T446 328Q446 256 400 216T268 176Q248 176 233 177T206 181T180 191T150 207Q118 196 104 183T89 149Q89 141 92 134T104 122Q111 117 119 115T140 111T172 109T219 108H311Q343 108 366 106T407 100T439 89T467 71Q511 36 511 -31Q511 -115
445 -160T258 -206Q148 -206 86 -176T23 -91Q23 -65 38 -45Q51 -28 70 -19T128 -4Q118 -1 110 2T95 9Q66 23 50 49T34 108Q34 138 48 164Q60 186 76 198T127 225Q115 238 108 248T97 270T91 293T89 322Q89 391 137 430T271 470Q288 470 305 468T340 461Q363 455
377 448T411 422Q428 446 445 456T486 466Q515 466 532 449T550 403Z" />
<glyph unicode="h" glyph-name="h" horiz-adv-x="630" d="M606 0H340V23H405V265Q405 317 403 344T396 389Q391 409 376 419T340 429Q317 429 296 418T260 385Q251 372 245 357T235 320T230 270T228 201V23H295V0H25V23H97V642H25V665H58H102Q125 665 138 666T157
667Q169 667 177 667T193 668T209 669T228 672V374Q249 410 266 426T309 454Q327 461 350 465T396 470Q477 470 513 423Q520 414 524 404T532 382T536 352T537 312V23H606V0Z" />
<glyph unicode="i" glyph-name="i" horiz-adv-x="331" d="M305 0H28V23H103V434H30V457H64H108Q131 457 144 457T163 458Q175 458 183 458T199 459T215 461T234 463V23H305V0ZM235 602Q235 573 215 552T165 531Q136 531 115 552T94 602Q94 631 115 652T165 673Q194
673 214 652T235 602Z" />
<glyph unicode="j" glyph-name="j" horiz-adv-x="314" d="M228 26Q228 -20 223 -48T204 -100Q187 -131 152 -151Q140 -159 131 -163T108 -172T74 -182T19 -196Q15 -197 10 -198T-2 -201L-7 -177Q25 -168 45 -156T76 -121T92 -65T97 23V434H24V457H58H102Q124 457
137 457T157 458Q169 458 177 458T193 459T209 461T228 463V26ZM229 602Q229 573 208 552T158 531Q129 531 109 552T88 602Q88 631 108 652T158 673Q187 673 208 652T229 602Z" />
<glyph unicode="k" glyph-name="k" horiz-adv-x="567" d="M587 0H328V23H389L261 221H227V23H291V0H26V23H97V642H27V665H57H101Q123 665 137 666T156 667Q168 667 176 667T192 668T208 669T227 672V247H274L386 434H298V457H498V434H422L350 318L547 23H587V0Z" />
<glyph unicode="l" glyph-name="l" horiz-adv-x="325" d="M298 0H20V23H97V642H23V665H58H102Q125 665 138 666T157 667Q169 667 177 667T193 668T209 669T228 672V23H298V0Z" />
<glyph unicode="m" glyph-name="m" horiz-adv-x="950" d="M928 0H656V23H722V297Q722 336 720 358T713 395Q700 430 657 430Q611 430 578 388Q568 375 562 360T551 325T546 276T544 209V23H611V0H343V23H411V297Q411 336 409 359T401 397Q395 413 380 422T344
432Q301 432 271 396Q251 371 242 328T233 209V23H299V0H26V23H100V434H28V457H66H110Q132 457 145 457T165 458Q177 458 185 458T201 459T217 461T236 463L233 380Q238 389 243 396T252 410Q274 438 312 454T397 470Q422 470 444 465T486 449Q508 437 519 420T540
369Q549 387 558 399Q581 433 620 451T711 470Q756 470 788 455T838 411Q848 393 852 369T856 297V23H928V0Z" />
<glyph unicode="n" glyph-name="n" horiz-adv-x="636" d="M612 0H343V23H411V296Q411 335 408 357T400 396Q388 430 351 430Q331 430 311 420T276 392Q259 370 249 338Q245 326 243 315T239 289T237 256T236 211V23H304V0H29V23H103V434H29V457H69H113Q135 457
149 457T168 458Q180 458 188 458T204 459T220 461T239 463V376Q245 386 250 393T260 408Q282 437 321 453T405 470Q496 470 529 408Q542 382 542 349Q542 342 542 329T543 296V23H612V0Z" />
<glyph unicode="o" glyph-name="o" horiz-adv-x="561" d="M374 224Q374 287 370 329T355 397T326 433T281 444Q254 444 236 433T207 397T191 329T186 224Q186 166 191 127T207 63T235 28T279 17Q306 17 324 27T353 62T369 126T374 224ZM521 234Q521 180 504 136T454
59T378 10T279 -8Q225 -8 181 9T105 57T57 132T40 231Q40 285 57 329T107 404T185 453T287 470Q339 470 382 453T456 405T504 330T521 234Z" />
<glyph unicode="p" glyph-name="p" horiz-adv-x="599" d="M415 231Q415 338 394 385T327 432Q276 432 254 387Q242 362 237 324T232 219Q232 188 233 166T236 126T243 96T254 71Q264 53 283 42T325 31Q373 31 394 77T415 231ZM559 218Q559 167 546 126T507 54T446
8T366 -8Q337 -8 310 0Q296 4 286 9T266 21T249 38T232 63V-179H306V-203H25V-179H100V434H29V457H62H106Q128 457 141 457T160 458Q172 458 180 458T197 459T213 461T232 463V391Q240 406 250 419Q286 470 367 470Q458 470 508 404T559 218Z" />
<glyph unicode="q" glyph-name="q" horiz-adv-x="586" d="M368 241Q368 340 346 385T274 431Q251 431 232 419T204 385Q184 336 184 227Q184 122 204 77T270 31Q322 31 345 80T368 241ZM572 -204H294V-180H368V73Q361 62 356 54T345 41Q325 18 293 5T224 -8Q137
-8 89 53T40 224Q40 339 92 404T238 470Q273 470 303 458Q326 449 339 435T368 390V458H499V-180H572V-204Z" />
<glyph unicode="r" glyph-name="r" horiz-adv-x="461" d="M454 378Q454 346 437 326T393 306Q369 306 353 322T337 361Q337 366 337 371T339 382Q342 398 342 406Q342 428 323 428Q310 428 295 412T265 367Q248 333 241 294T234 196V23H312V0H30V23H103V435H33V458H64Q71
458 82 458T108 459Q131 460 144 460T163 460Q187 461 200 462T234 465V356Q261 419 290 444T362 470Q404 470 429 445T454 378Z" />
<glyph unicode="s" glyph-name="s" horiz-adv-x="434" d="M394 152Q394 116 381 87T342 36T283 4T206 -8Q186 -8 169 -7T134 -2T93 8T40 23V171H69Q75 98 111 59T208 19Q251 19 278 38T306 89Q306 116 284 134T200 173Q177 181 157 190T119 208Q48 247 48 327Q48
359 60 385T93 430T145 459T213 470Q231 470 245 469T276 464T311 455T356 440V322H327Q321 377 288 410T207 443Q175 443 154 427T132 386Q132 374 136 365T153 348T186 331T240 311Q289 294 323 275Q357 256 375 225T394 152Z" />
<glyph unicode="t" glyph-name="t" horiz-adv-x="350" d="M351 58Q336 40 328 32T308 16Q270 -8 217 -8Q162 -8 129 16Q107 33 101 61Q99 70 98 80T95 103T94 136T93 185V431H27V458H93V586H225V458H324V431H225V157L226 109Q227 67 237 49T270 31Q288 31 302
40T332 73L351 58Z" />
<glyph unicode="u" glyph-name="u" horiz-adv-x="630" d="M607 0H403L402 81Q391 63 386 56Q363 25 324 9T233 -8Q187 -8 154 8Q119 24 106 53T93 145V434H27V457H55H99Q121 457 135 457T154 458Q166 458 174 458T190 459T206 461T225 463V172Q225 130 227 106T236
65Q249 29 291 29Q314 29 334 40T370 72Q380 85 386 99T395 132T400 179T402 247V434H327V457H364H408Q430 457 443 457T463 458Q475 458 483 458T499 459T515 461T534 463V23H607V0Z" />
<glyph unicode="v" glyph-name="v" horiz-adv-x="527" d="M524 434H456L276 -12H251L66 434H0V457H290V434H213L317 161L425 434H349V457H524V434V434Z" />
<glyph unicode="w" glyph-name="w" horiz-adv-x="792" d="M789 434H721L556 -12H531L395 378L259 -12H233L66 434H0V457H274V434H208L298 181L384 434H314V457H582V434H514L598 181L690 434H622V457H789V434V434Z" />
<glyph unicode="x" glyph-name="x" horiz-adv-x="540" d="M533 0H240V23H319L230 177L113 23H194V0H11V23H75L215 202L76 434H7V457H300V434H226L302 300L401 434H337V457H502V434H439L316 276L469 23H533V0V0Z" />
<glyph unicode="y" glyph-name="y" horiz-adv-x="523" d="M519 434H451L270 -71Q243 -147 210 -179T127 -211Q82 -211 54 -186T26 -122Q26 -93 42 -75T83 -57Q106 -57 121 -72T136 -112Q136 -120 133 -129Q130 -143 130 -148Q130 -159 138 -165T158 -172Q207 -172
248 -53L262 -13L66 434H0V457H288V434H211L325 156L420 434H346V457H519V434Z" />
<glyph unicode="z" glyph-name="z" horiz-adv-x="457" d="M430 457L169 25H230Q314 25 352 60T394 177H422V0H4L266 432H215Q140 432 105 400T68 299H40V457H430Z" />
<glyph unicode="{" glyph-name="braceleft" horiz-adv-x="500" d="M365 -187H344Q269 -187 238 -154T207 -39V128Q207 171 194 192T149 222V272Q180 281 193 302T207 363V543Q207 615 239 647T344 679H365V625Q337 625 319 621T290 606T275 579T270 535V360Q270
344 268 328T261 299Q255 281 244 269T208 245Q243 228 256 202T270 129V-40Q270 -67 274 -85T289 -113T318 -128T365 -134V-187Z" />
<glyph unicode="|" glyph-name="bar" horiz-adv-x="500" d="M282 -250H218V750H282V-250V-250Z" />
<glyph unicode="}" glyph-name="braceright" horiz-adv-x="500" d="M360 220Q329 211 316 191T303 129V-51Q303 -123 271 -155T165 -187H144V-134Q172 -133 190 -129T219 -114T234 -87T239 -44V132Q239 149 241 164T248 193Q254 211 265 223T301 247Q266 264 253
290T239 363V532Q239 559 235 577T220 605T191 620T144 625V679H165Q240 679 271 646T303 531V364Q303 320 315 299T360 270V220Z" />
<glyph unicode="~" glyph-name="asciitilde" horiz-adv-x="667" d="M573 701Q544 644 511 618T433 592Q419 592 395 598T352 613L293 640Q271 650 255 655T224 660Q197 660 176 643T132 586L93 611Q101 625 105 632T115 649Q160 722 228 722Q249 722 274 714T341
686Q372 672 391 664Q403 659 416 657T440 654Q469 654 489 669T534 724L573 701Z" />
</font>
</defs>
</svg>
